<svg width="1794" height="1856" viewBox="0 0 1794 1856" fill="none" xmlns="http://www.w3.org/2000/svg">
<path d="M420.583 0H207V984.907H420.583L1472.16 623.634V361.302L420.583 0ZM1249.02 499.805L420.583 752.247V232.659L1249.02 485.101V499.952V499.835V499.805Z" fill="#00FF3B"/>
<path d="M1677.21 1226.74L1545.97 1592.98C1531.58 1634.53 1490.07 1703.94 1388.43 1703.94H0L148.389 1855.84H1505.22C1606.81 1855.84 1648.37 1786.43 1662.77 1744.87L1794 1378.64L1677.21 1226.74Z" fill="#3C1400"/>
<path d="M1520.2 1682.04V1674.26H1525.84C1528.73 1674.26 1530.42 1675.64 1530.42 1678.12C1530.42 1680.52 1528.64 1682.08 1525.89 1682.08H1520.2V1682.04ZM1516.29 1693.77H1520.15V1685.68H1525L1530.46 1693.77H1535L1529.09 1684.97C1532.15 1684.04 1534.33 1681.77 1534.33 1677.95C1534.33 1675.86 1533.66 1674.12 1532.51 1672.88C1531.09 1671.41 1528.91 1670.57 1526.15 1670.57H1516.29V1693.81V1693.77ZM1543.49 1682.08C1543.49 1671.9 1535.57 1664.21 1525.62 1664.21C1515.67 1664.21 1507.67 1671.9 1507.67 1682.08C1507.67 1692.26 1515.53 1700.03 1525.62 1700.03C1535.71 1700.03 1543.49 1692.39 1543.49 1682.08ZM1547.93 1682.08C1547.93 1694.66 1538.15 1704.52 1525.62 1704.52C1513.09 1704.52 1503.22 1694.88 1503.22 1682.08C1503.22 1669.28 1513.09 1659.77 1525.62 1659.77C1538.15 1659.77 1547.93 1669.59 1547.93 1682.08ZM0 1703.9L131.235 1337.71C146.434 1295.66 187.408 1226.74 288.734 1226.74H1677.21L1546.02 1592.98C1531.62 1634.53 1490.11 1703.94 1388.47 1703.94H0V1703.9Z" fill="#FF000A"/>
<path d="M288.735 1270.24C241.05 1270.24 194.253 1290.78 172.21 1352.37L61.8184 1660.39H1388.48C1436.16 1660.39 1482.96 1639.86 1505.04 1578.27L1615.39 1270.24H288.735Z" fill="white"/>
<path d="M523.916 1307.31L468.454 1460.14L476.098 1307.31H412.058L297.533 1622.93H352.996L408.458 1470.1L400.77 1622.93H464.81L579.334 1307.31H523.872H523.916ZM610.932 1307.31L496.407 1622.93H563.158L677.683 1307.31H610.976H610.932ZM733.545 1483.12L704.703 1562.93C702.436 1569.69 697.059 1573.73 690.704 1573.73C683.949 1573.73 681.238 1569.69 683.504 1562.93L754.744 1367.7C757.01 1360.95 761.943 1356.9 768.254 1356.9C775.009 1356.9 778.164 1360.95 775.897 1367.7L750.211 1438.94H815.583L861.136 1312.69C841.315 1307.26 816.517 1304.11 785.408 1304.11C728.123 1304.11 706.969 1315.4 687.549 1368.59L617.198 1562C601.866 1603.46 619.02 1626.48 677.594 1626.48C727.19 1626.48 752.877 1610.71 767.765 1570.13L799.318 1483.12H733.501H733.545ZM1295.77 1372.24C1298.48 1365.04 1296.21 1361.44 1289.46 1361.44H1278.66L1249.37 1439.88H1260.17C1266.93 1439.88 1271.91 1435.83 1274.62 1429.08L1295.81 1372.28L1295.77 1372.24ZM1309.32 1516.49L1270.57 1622.88H1204.31L1248.93 1502.05C1251.2 1495.29 1248.93 1491.25 1242.17 1491.25H1231.82L1183.6 1622.88H1116.85L1231.37 1307.26H1315.24C1358.97 1307.26 1375.63 1329.8 1359.85 1376.68L1344.52 1419.52C1336.39 1442.5 1322.43 1457.83 1296.75 1464.63C1318.84 1472.27 1318.83 1490.81 1309.37 1516.49M1085.21 1488.54H1132.54L1151.47 1435.34H1105.03L1131.16 1361.39H1186.62L1206 1307.31H1084.27L969.75 1622.93H1091.47L1110.85 1568.84H1055.83L1085.12 1488.58L1085.21 1488.54ZM1065.39 1307.31H997.303L920.198 1422.72L961.661 1307.31H894.911L780.386 1622.93H848.026L894.022 1494.89L886.823 1622.93H957.617L955.795 1465.56L1065.34 1307.31H1065.39ZM291.711 1455.65L269.624 1433.12C259.269 1422.32 257.003 1412.37 261.491 1399.75L273.224 1367.75C275.935 1360.55 279.534 1356.46 286.734 1356.46C293.044 1356.46 296.644 1360.5 293.933 1367.75L277.268 1413.74H343.085L379.171 1312.73C366.995 1308.2 343.085 1304.15 310.199 1304.15C250.248 1304.15 225.005 1315.44 206.518 1366.81L194.341 1400.19C183.542 1429.48 185.764 1447.08 208.784 1470.54L230.871 1493.07C240.782 1503.43 242.159 1514.27 237.626 1526.45L224.116 1562.53C221.405 1569.29 215.984 1573.82 209.673 1573.82C202.918 1573.82 200.207 1569.29 202.473 1562.53L220.961 1512.49H155.144L117.28 1616.17C123.59 1620.66 156.077 1626.08 194.385 1626.08C254.825 1626.08 273.757 1609.86 291.311 1562.98L305.31 1526C315.221 1499.38 314.776 1479.12 291.8 1455.65M1474.78 1367.7C1477.49 1360.5 1473.89 1356.42 1467.58 1356.42C1460.38 1356.42 1456.78 1360.46 1454.07 1367.7L1442.34 1399.7C1437.85 1412.32 1440.07 1422.23 1450.47 1433.08L1472.56 1455.61C1495.53 1479.07 1495.98 1499.34 1486.07 1525.96L1472.07 1562.93C1454.47 1609.82 1435.54 1626.04 1375.14 1626.04C1336.83 1626.04 1304.35 1620.62 1298.04 1616.13L1335.9 1512.45H1401.72L1383.23 1562.49C1380.96 1569.24 1383.67 1573.78 1390.43 1573.78C1396.74 1573.78 1402.16 1569.24 1404.87 1562.49L1418.38 1526.4C1422.92 1514.23 1421.54 1503.43 1411.63 1493.03L1389.54 1470.5C1366.56 1447.08 1364.3 1429.48 1375.1 1400.15L1387.27 1366.77C1405.76 1315.35 1431 1304.11 1490.96 1304.11C1523.89 1304.11 1547.75 1308.15 1559.93 1312.69L1523.84 1413.7H1458.02L1474.69 1367.7H1474.78Z" fill="#20008C"/>
</svg>
