<svg width="2002" height="1225" viewBox="0 0 2002 1225" fill="none" xmlns="http://www.w3.org/2000/svg">
<g clip-path="url(#clip0_148_13)">
<path d="M124.923 8.81799H51.8931V348.124H410.835V276.516H124.923V8.81799Z" fill="#00FF3B"/>
<path d="M1575.5 8.81799H1501.92V348.124H1575.5L1937.78 223.664V133.288L1575.5 8.81799ZM1860.9 181.004L1575.5 267.971V88.9705L1860.9 175.938V181.054V181.014V181.004Z" fill="#00FF3B"/>
<path d="M1354.96 8.81799V258.588L1268.52 289.175L1155.45 289.964L1066.74 258.588V8.81799H992.942V305.606L1137.28 356.941H1284.44L1428.8 305.606V8.81799H1354.95H1354.96Z" fill="#00FF3B"/>
<path d="M775.464 -0.00012207H628.303L483.961 51.3351V305.554L628.303 356.889H775.464L919.815 305.554V51.3351L775.464 -0.00012207ZM759.565 289.164L646.501 289.952L557.788 258.577V98.3528L644.231 67.7761L757.295 66.9875L846.008 98.3629V258.628L759.565 289.204V289.164Z" fill="#00FF3B"/>
</g>
<path d="M1871.28 522.16L1724.86 930.779C1708.8 977.139 1662.49 1054.59 1549.09 1054.59H0L165.56 1224.07H1679.4C1792.74 1224.07 1839.1 1146.62 1855.17 1100.26L2001.59 691.637L1871.28 522.16Z" fill="#3C1400"/>
<path d="M1696.11 1030.14V1021.47H1702.4C1705.63 1021.47 1707.51 1023 1707.51 1025.78C1707.51 1028.46 1705.53 1030.19 1702.45 1030.19H1696.11V1030.14ZM1691.74 1043.23H1696.06V1034.21H1701.46L1707.56 1043.23H1712.62L1706.02 1033.42C1709.44 1032.38 1711.87 1029.85 1711.87 1025.58C1711.87 1023.25 1711.13 1021.32 1709.84 1019.93C1708.25 1018.29 1705.82 1017.35 1702.75 1017.35H1691.74V1043.28V1043.23ZM1722.09 1030.19C1722.09 1018.84 1713.26 1010.26 1702.15 1010.26C1691.05 1010.26 1682.12 1018.84 1682.12 1030.19C1682.12 1041.55 1690.9 1050.23 1702.15 1050.23C1713.41 1050.23 1722.09 1041.7 1722.09 1030.19ZM1727.05 1030.19C1727.05 1044.23 1716.14 1055.23 1702.15 1055.23C1688.17 1055.23 1677.16 1044.47 1677.16 1030.19C1677.16 1015.91 1688.17 1005.3 1702.15 1005.3C1716.14 1005.3 1727.05 1016.26 1727.05 1030.19ZM0 1054.54L146.42 645.97C163.378 599.064 209.094 522.16 322.144 522.16H1871.28L1724.91 930.779C1708.85 977.139 1662.54 1054.59 1549.14 1054.59H0V1054.54Z" fill="#FF000A"/>
<path d="M322.144 570.703C268.941 570.703 216.73 593.61 192.136 662.333L68.9707 1006H1549.14C1602.34 1006 1654.55 983.089 1679.2 914.366L1802.31 570.703H322.144Z" fill="white"/>
<path d="M584.541 612.055L522.661 782.573L531.189 612.055H459.739L331.962 964.198H393.842L455.723 793.68L447.145 964.198H518.595L646.372 612.055H584.491H584.541ZM681.625 612.055L553.849 964.198H628.323L756.1 612.055H681.675H681.625ZM818.427 808.208L786.247 897.26C783.718 904.797 777.718 909.309 770.628 909.309C763.091 909.309 760.067 904.797 762.595 897.26L842.078 679.44C844.607 671.903 850.11 667.391 857.151 667.391C864.688 667.391 868.208 671.903 865.68 679.44L837.02 758.922H909.958L960.781 618.055C938.667 612.006 910.999 608.485 876.291 608.485C812.377 608.485 788.776 621.08 767.108 680.431L688.617 896.219C671.51 942.48 690.65 968.165 756.001 968.165C811.336 968.165 839.995 950.563 856.606 905.293L891.81 808.208H818.377H818.427ZM1445.71 684.497C1448.73 676.465 1446.2 672.448 1438.67 672.448H1426.62L1393.94 759.963H1405.99C1413.53 759.963 1419.08 755.451 1422.11 747.914L1445.76 684.547L1445.71 684.497ZM1460.83 845.445L1417.59 964.148H1343.67L1393.45 829.331C1395.98 821.794 1393.45 817.282 1385.91 817.282H1374.36L1320.56 964.148H1246.08L1373.86 612.006H1467.43C1516.22 612.006 1534.81 637.145 1517.21 689.455L1500.1 737.254C1491.03 762.889 1475.46 779.995 1446.8 787.581C1471.44 796.11 1471.44 816.786 1460.88 845.445M1210.78 814.257H1263.59L1284.71 754.906H1232.9L1262.05 672.399H1323.93L1345.55 612.055H1209.74L1081.96 964.198H1217.77L1239.39 903.855H1178.01L1210.68 814.307L1210.78 814.257ZM1188.67 612.055H1112.71L1026.68 740.824L1072.94 612.055H998.465L870.688 964.198H946.154L997.473 821.348L989.44 964.198H1068.43L1066.39 788.623L1188.62 612.055H1188.67ZM325.467 777.565L300.824 752.427C289.271 740.378 286.742 729.271 291.75 715.189L304.84 679.489C307.864 671.457 311.881 666.895 319.913 666.895C326.954 666.895 330.97 671.407 327.946 679.489L309.352 730.808H382.785L423.047 618.105C409.461 613.047 382.785 608.535 346.093 608.535C279.205 608.535 251.042 621.129 230.415 678.448L216.829 715.685C204.78 748.361 207.259 767.996 232.944 794.176L257.587 819.315C268.644 830.868 270.181 842.966 265.123 856.552L250.05 896.814C247.025 904.351 240.976 909.408 233.935 909.408C226.399 909.408 223.374 904.351 225.903 896.814L246.53 840.983H173.096L130.851 956.661C137.892 961.669 174.138 967.718 216.879 967.718C284.312 967.718 305.435 949.62 325.02 897.31L340.639 856.056C351.696 826.356 351.201 803.746 325.566 777.565M1645.43 679.44C1648.46 671.407 1644.44 666.845 1637.4 666.845C1629.37 666.845 1625.35 671.357 1622.33 679.44L1609.23 715.14C1604.23 729.221 1606.71 740.279 1618.31 752.377L1642.95 777.516C1668.59 803.696 1669.08 826.306 1658.03 856.007L1642.41 897.26C1622.77 949.571 1601.65 967.669 1534.26 967.669C1491.52 967.669 1455.28 961.62 1448.24 956.612L1490.48 840.933H1563.92L1543.29 896.764C1540.76 904.301 1543.78 909.359 1551.32 909.359C1558.36 909.359 1564.41 904.301 1567.44 896.764L1582.51 856.502C1587.57 842.917 1586.03 830.868 1574.97 819.265L1550.33 794.126C1524.7 767.996 1522.17 748.361 1534.22 715.636L1547.8 678.398C1568.43 621.03 1596.59 608.485 1663.48 608.485C1700.22 608.485 1726.85 612.998 1740.43 618.055L1700.17 730.759H1626.74L1645.33 679.44H1645.43Z" fill="#20008C"/>
<defs>
<clipPath id="clip0_148_13">
<rect width="1886.68" height="356.94" fill="white" transform="translate(51.8931)"/>
</clipPath>
</defs>
</svg>
