<svg width="3881" height="2082" viewBox="0 0 3881 2082" fill="none" xmlns="http://www.w3.org/2000/svg">
<g clip-path="url(#clip0_740_124)">
<mask id="mask0_740_124" style="mask-type:luminance" maskUnits="userSpaceOnUse" x="0" y="0" width="3881" height="2082">
<path d="M3880.96 0H0V2081.96H3880.96V0Z" fill="white"/>
</mask>
<g mask="url(#mask0_740_124)">
<path d="M3382.47 562.612L3497.09 451.847C3528.84 421.06 3536.62 372.203 3515.83 332.673C3495.08 293.813 3450.41 272.815 3406.86 281.683L2920.12 382.869L2988.77 126.494C2999.4 87.4246 2985.63 46.1385 2953.25 20.9151C2921.29 -3.72276 2877.99 -6.86 2842.77 12.8837L2201.46 373.75L2232.5 204.214C2240.82 159.832 2218.19 115.074 2177.15 95.205C2136.49 75.7959 2087.5 86.0861 2057.93 120.387L1737.82 493.091C1681.47 465.86 1617.17 457.536 1553.83 470.21C1488.74 483.219 1421.43 503.005 1353.15 529.107C1298.64 457.243 1215.06 422.649 1129.76 441.013C936.532 482.55 752.673 613.268 629.974 718.261C595.127 734.491 562.706 752.144 537.773 766.073C423.567 829.78 320.949 910.679 232.805 1006.51C75.5936 1177.51 -6.94436 1379.55 0.460213 1575.48C5.31293 1704.15 54.1747 1811.78 145.665 1895.44C314.381 2049.62 591.948 2082 795.05 2082C827.137 2082 859.851 2081.16 889.469 2079.62C1106.75 2068.28 1317.47 2019.26 1515.72 1933.88C1592.9 1900.63 1659.13 1864.07 1713.51 1824.83C1732.71 1840.47 1753.04 1854.19 1774.29 1865.95C1834.66 1899.25 1905.03 1916.9 1977.73 1916.9C2068.85 1916.9 2162.26 1888.91 2240.7 1838.01C2298.35 1800.65 2349.38 1751.17 2392.01 1692.27C2411.55 1752.92 2447.48 1805.71 2497.81 1846.5C2573.61 1907.78 2670.67 1937.56 2794.37 1937.56C2866.62 1937.56 2936.65 1926.98 2983 1918.99C3150.37 1890.21 3314.11 1822.15 3456.51 1722.26C3704.84 1547.96 3863.14 1301.12 3879.87 1061.94C3888.4 940.336 3846.7 825.304 3762.32 738.089C3675.22 647.945 3547.79 589.174 3382.43 562.654H3382.47V562.612Z" fill="white"/>
<path d="M3711.87 786.82C3612.13 683.584 3448.19 626.779 3224.29 617.786L3448.23 401.483C3457.77 392.239 3460.11 377.556 3453.88 365.719C3447.6 354.048 3434.17 347.732 3421.12 350.367L2828.13 473.682C2828.34 460.505 2830.18 447.412 2833.61 434.571L2920.96 108.172C2924.18 96.5013 2920.04 84.036 2910.37 76.5484C2900.75 69.1027 2887.74 68.1825 2877.24 74.0805L2105.53 508.359L2163.6 191.288C2166.11 177.986 2159.29 164.559 2146.99 158.661C2134.78 152.846 2120.09 155.942 2111.27 166.19L1751.66 584.824C1701.09 542.994 1633.4 525.885 1567.68 539.104C1489.16 554.79 1407.08 581.017 1323.54 617.075C1323.49 616.907 1323.41 616.782 1323.33 616.656C1289.02 537.138 1217.15 494.095 1144.57 509.739C962.051 548.975 785.136 676.975 668.336 777.994C632.401 794.224 598.055 812.922 571.993 827.437C464.271 887.505 367.551 963.761 284.47 1054.07C139.85 1211.35 63.8802 1395.61 70.6154 1572.93C74.7152 1682.11 115.921 1773.21 193.021 1843.69C345.17 1982.7 604.372 2011.85 795.009 2011.85C825.84 2011.85 857.299 2011.06 885.83 2009.55C1094.79 1998.67 1297.35 1951.53 1487.94 1869.46C1584.12 1828.05 1661.22 1781.87 1717.36 1732.13C1744.51 1761.92 1774.96 1786.26 1808.18 1804.58C1858.21 1832.15 1916.82 1846.75 1977.69 1846.75C2055.42 1846.75 2135.24 1822.74 2202.46 1779.19C2307.42 1711.14 2388 1596.19 2429.45 1455.47C2437.36 1428.53 2443.76 1401.01 2448.49 1373.4C2465.97 1378.71 2484.3 1383.44 2503.29 1387.5C2464.13 1447.06 2446.52 1503.78 2445.02 1573.18C2443.17 1662.32 2477.56 1740.04 2541.78 1792.03C2604.61 1842.77 2687.19 1867.5 2794.24 1867.5C2861.14 1867.5 2927.15 1857.5 2970.99 1850.01C3128.24 1822.99 3282.15 1758.95 3416.06 1665C3647.28 1502.74 3794.45 1275.56 3809.76 1057.21C3816.87 955.771 3782.06 859.813 3711.78 787.029V786.862L3711.87 786.82Z" fill="black"/>
<path d="M3682.96 814.679C3574.32 702.198 3370.92 647.903 3094.69 657.775C2617.16 674.716 2415.36 831.076 2337.54 922.726C2277.47 993.586 2246.97 1077.16 2255.93 1146.31C2274.92 1293.13 2462.08 1354.74 2630.88 1363.49C2782.95 1371.48 2909.83 1326.76 2910.96 1326.34C2915.69 1324.71 2920.83 1326.59 2923.22 1330.94C2925.6 1335.29 2924.51 1340.69 2920.62 1343.74C2883.35 1372.52 2849.84 1412.14 2820.81 1461.58C2805.46 1487.68 2792.57 1512.61 2782.2 1532.61C2773.66 1549.04 2764.88 1566.03 2759.77 1573.18C2759.77 1567.62 2760.94 1556.99 2765.25 1540.89C2769.65 1524.28 2780.52 1490.57 2803.57 1451.37C2821.39 1421.05 2841.14 1393.9 2862.31 1370.64L2873.18 1358.68L2857.45 1362.4C2805.16 1374.74 2723.17 1388.38 2629.96 1383.52C2606.87 1382.31 2584.36 1380.26 2563.07 1377.33L2560.23 1376.91L2558.47 1379.22C2507.31 1445.6 2486.81 1500.15 2485.26 1573.85C2483.59 1650.32 2512.74 1716.62 2567.17 1760.62C2629.84 1811.23 2711.58 1827.13 2794.49 1827.13C2852.56 1827.13 2911.21 1819.31 2964.34 1810.19C3115.78 1784.17 3264.04 1722.47 3393.18 1631.83C3614.56 1476.51 3755.42 1260.5 3769.89 1054.07C3774.32 990.448 3762.86 897.209 3683 814.595L3682.96 814.679Z" fill="white"/>
<path d="M1779.15 645.603C1831.98 727.171 1866.29 828.776 1881.14 947.447L1881.64 951.379L1885.53 951.839C1909.13 954.642 1929.62 963.845 1946.52 979.029C1948.45 980.744 1950.29 982.584 1952.13 984.383L1956.31 988.482L1959.79 983.756C1987.52 945.816 2019.98 913.816 2056.38 888.676C2114.19 848.729 2175.31 832.959 2228.4 844.462C2263.08 851.991 2295.08 870.731 2323.4 900.221L2327.17 904.111L2330.77 900.096C2429.91 789.247 2642.81 653.718 3094.07 637.655C3110.76 637.111 3127.95 636.693 3145.23 636.567H3147.24L3395.52 396.715L2812.9 517.896L2814.41 523.543C2815.29 526.806 2816.16 530.152 2817.25 533.415C2823.74 553.117 2831.6 570.267 2839.17 585.828C2841.72 591.14 2846.16 600.385 2846.95 604.609C2843.98 603.647 2837.92 600.301 2830.01 592.562C2823.99 586.748 2818.05 579.219 2812.78 570.811C2806.71 561.023 2801.77 550.565 2798.22 539.689C2785.92 502.168 2784.83 462.22 2795.08 424.197L2876.32 120.679L2086.58 565.122L2083.36 566.921L2084.12 570.518C2085.29 575.998 2086.67 580.934 2088.26 585.66C2094.45 603.647 2104.03 621.634 2116.58 639.035L2119.8 643.511C2123.4 648.489 2127.37 653.927 2128.92 657.106C2125.49 656.562 2118.29 654.136 2108.63 647.192C2101.23 642.005 2093.57 634.392 2087.09 625.775C2079.6 615.903 2073.45 604.317 2069.35 592.311C2060.94 567.757 2058.89 541.279 2063.58 515.679L2117.71 220.402L1767.06 628.62L1769.57 631.882C1773.21 636.609 1776.43 641.043 1779.31 645.603L1779.23 645.519L1779.15 645.603Z" fill="#00FF3B"/>
<path d="M2236.06 1148.9C2226.89 1078.12 2254.34 995.803 2311.48 923.102L2314.16 919.714L2311.19 916.577C2285 888.593 2255.68 870.941 2224.09 864.122C2159.83 850.235 2098.51 883.908 2067.67 905.241C1979.66 966.062 1933.56 1056.08 1910.3 1120.87C1888.71 1181.15 1877.75 1247.08 1877.75 1316.85C1877.75 1351.69 1880.55 1387.46 1886.07 1423.05C1890.84 1454.18 1896.53 1483.16 1901.13 1506.5C1905.36 1527.92 1909.71 1549.88 1910.21 1560.09C1906.74 1555.36 1901.13 1545.78 1893.98 1528.34C1888.42 1514.91 1883.1 1499.35 1878.63 1483.29C1873.44 1464.8 1869.26 1445.52 1866.29 1426.15C1849.13 1315.8 1857.88 1207.92 1891.47 1114.18C1904.86 1076.74 1922.05 1041.36 1942.51 1009.06L1944.52 1005.84L1942.01 1003.04C1939.12 999.777 1936.11 996.723 1933.01 993.92C1887.75 953.136 1816.67 972.085 1769.78 1006.93C1751.03 1020.86 1733.42 1038.97 1717.4 1060.68L1715.94 1062.65L1716.56 1064.99C1723.63 1090.51 1727.19 1116.44 1727.19 1142.04C1727.19 1199.35 1704.14 1248.5 1658.54 1288.03L1653.23 1292.63L1659.42 1296.14C1710.96 1325.51 1752.12 1363.15 1778.48 1405.02C1813.74 1461.33 1820.81 1523.7 1798.89 1585.31C1786.55 1619.86 1765.43 1653.62 1736.1 1685.54L1733.13 1688.76L1735.93 1692.15C1762.96 1724.69 1793.75 1750.58 1827.55 1769.28C1871.89 1793.75 1923.72 1805.76 1977.06 1805.76C2046.67 1805.76 2118.88 1785.3 2180.54 1745.27C2277.47 1682.48 2352.19 1575.48 2390.97 1443.93C2400.5 1411.47 2407.78 1377.71 2412.47 1343.49L2413.01 1339.64L2409.41 1338.18C2337.75 1309.15 2249.53 1252.76 2236.06 1148.82H2236.01L2236.06 1148.9Z" fill="white"/>
<path d="M1604.49 920.969C1548.98 869.769 1480.58 841.743 1421.59 845.801L1420.42 846.01C1352.78 867.134 1283.04 895.118 1213.14 929.251L1212.26 929.837C1152.85 977.188 1053.88 1074.65 1059.19 1195.71C1061.11 1240.34 1078.85 1277.03 1111.94 1304.76C1172.35 1355.33 1273.42 1367.34 1345.37 1367.34C1372.77 1367.34 1395.91 1365.58 1411.01 1363.57C1480.5 1354.29 1707.28 1310.95 1707.28 1142.04C1707.28 1061.73 1669.84 981.12 1604.49 920.969Z" fill="#00FF3B"/>
<path d="M2236.06 1148.9C2226.89 1078.12 2254.34 995.803 2311.48 923.102L2314.16 919.714L2311.69 917.121C2300.69 913.565 2289.44 911.474 2277.81 911.097C2164.48 907.5 2067.59 1063.61 2061.4 1259.79C2057.38 1387.12 2092.61 1500.02 2148.79 1564.52C2131.97 1605.98 2104.95 1645.8 2068.09 1679.68C1989.36 1752.05 1887.29 1777.81 1804.08 1754.89C1811.74 1760.12 1819.56 1764.97 1827.55 1769.36C1871.89 1793.83 1923.72 1805.88 1977.1 1805.88C2046.72 1805.88 2118.92 1785.43 2180.58 1745.39C2277.51 1682.61 2352.23 1575.61 2391.01 1444.05C2400.55 1411.59 2407.82 1377.84 2412.51 1343.62L2413.05 1339.77L2409.46 1338.31C2337.8 1309.28 2249.57 1252.89 2236.1 1148.94V1148.86L2236.06 1148.9Z" fill="#BDBDBD"/>
<path d="M1031.16 826.308L1035.39 833.084C1054.96 864.959 1062.16 906.956 1055.72 951.087C1043.88 1032.32 997.693 1118.99 918.418 1208.8C902.563 1226.75 885.411 1244.69 866.084 1263.64L852.865 1276.61L870.811 1272.13C923.02 1259.08 980.081 1248.46 1040.45 1240.51L1046.01 1239.75L1044.59 1234.28C1041.53 1222.23 1039.69 1209.51 1039.11 1196.46C1036.01 1125.22 1064.13 1054.78 1122.69 987.144L1138 969.492L1116.79 979.322C1094.16 989.779 1084.33 990.156 1082.11 989.361C1082.95 984.216 1097.76 967.86 1125.37 952.467C1209.29 905.492 1377.59 822.083 1561.07 791.296C1568.6 790.041 1576.13 789.456 1583.74 789.456C1598.84 789.456 1614.11 792.509 1627.88 798.24C1633.86 800.75 1639.72 803.845 1645.24 807.401C1649.8 810.454 1654.11 813.508 1658.42 816.854C1669.25 825.22 1675.02 831.579 1677.37 835.134C1673.68 834.507 1666.53 832.248 1652.73 826.601L1638 820.494C1633.11 818.444 1627.63 816.52 1621.81 814.763C1603.11 809.492 1583.7 807.819 1564.33 810.998C1542.08 814.763 1518.94 819.448 1495.72 825.011L1477.44 829.362L1495.43 834.674C1538.81 847.474 1581.15 872.154 1617.92 906.078C1656.49 941.675 1686.74 984.969 1705.27 1031.32L1708.36 1039.1L1713.72 1032.65C1727.52 1016.26 1742.29 1002.12 1757.69 990.658C1787.05 968.781 1822.91 954.517 1856 951.379L1861.14 950.877L1860.51 945.732C1845.83 831.871 1812.66 734.491 1762.08 656.228C1721.84 594.152 1648.54 563.449 1575.25 578.089C1407.08 611.721 1225.23 694.251 1034.88 823.38L1030.91 826.099L1031.08 826.266L1031.16 826.308Z" fill="#BDBDBD"/>
<path d="M939.879 762.768C969.539 772.013 995.727 787.531 1015.43 807.693L1018.36 810.705L1021.83 808.363C1112.86 746.538 1203.1 694.544 1290.11 653.927L1294.38 651.919L1292.62 647.485C1290.61 642.382 1288.52 637.32 1286.39 632.384C1259.45 570.016 1207.07 537.179 1152.9 548.808C1032.25 574.743 899.467 644.264 758.195 755.49L738.7 770.841L762.671 764.232C827.597 746.329 885.578 745.827 939.837 762.684V762.81L939.879 762.768Z" fill="#BDBDBD"/>
<path d="M1638.29 1307.39L1635.62 1306.01L1633.11 1307.73C1556.55 1359.93 1454.14 1378.13 1413.65 1383.52C1393.27 1386.2 1368.51 1387.67 1343.78 1387.67C1282.46 1387.67 1169.17 1378.88 1099.06 1320.11C1079.56 1303.71 1064.54 1284.35 1054.46 1262.47L1052.91 1259.12L1049.27 1259.58C870.435 1282.5 726.736 1327.72 610.02 1398C587.053 1411.84 564.672 1426.9 543.63 1442.59C515.35 1463.5 490.208 1484.08 469.96 1500.65C453.52 1514.08 436.619 1527.92 427.834 1533.44C430.637 1527.88 436.912 1517.97 449.629 1502.74C470.755 1477.35 500.625 1449.57 531.582 1426.53C553.335 1410.3 576.26 1394.9 599.687 1380.85C661.936 1343.41 729.957 1313.58 807.726 1289.66L808.73 1289.37L809.525 1288.65C843.368 1259.08 874.953 1227.79 903.274 1195.67C979.914 1108.83 1024.47 1025.59 1035.76 948.284C1041.53 908.713 1035.3 871.568 1018.19 843.584C1000.83 815.349 970.92 793.513 933.813 781.968C816.218 745.493 695.444 804.347 591.488 862.407C487.363 920.509 393.99 994.088 313.921 1081.18C176.455 1230.55 104.334 1404.61 110.65 1571.38C114.374 1669.47 151.187 1751.08 220.004 1814C366.84 1948.19 628.678 1971.74 794.297 1971.74C828.936 1971.74 859.391 1970.69 883.654 1969.44C1087.93 1958.77 1285.89 1912.76 1471.96 1832.57C1642.48 1759.16 1746.06 1673.74 1779.9 1578.7C1823.37 1456.81 1735.18 1358.68 1638.13 1307.44H1638.25L1638.29 1307.39Z" fill="white"/>
<path d="M3505.46 1541.72C3546.46 1478.02 3559.76 1423.39 3537.29 1387.71C3479.15 1295.3 3203.63 1364.07 2921.96 1541.39C2832.81 1597.48 2753.71 1657.72 2689.16 1716.78C2683.26 1691.56 2672.63 1665.79 2657.15 1641.2C2613.61 1571.97 2544.79 1533.19 2487.48 1539.97C2486.22 1550.84 2485.43 1562.1 2485.18 1573.85C2483.5 1650.32 2512.66 1716.62 2567.09 1760.62C2629.75 1811.23 2711.5 1827.13 2794.37 1827.13C2852.43 1827.13 2911.13 1819.31 2964.21 1810.19C3115.65 1784.17 3263.91 1722.47 3393.05 1631.83C3433.25 1603.59 3470.78 1573.39 3505.38 1541.56V1541.68L3505.46 1541.72Z" fill="#BDBDBD"/>
<path d="M2712.83 903.233C2462.75 948.409 2278.68 1088.25 2301.69 1215.58C2304.79 1232.69 2311.48 1248.66 2321.31 1263.47C2394.61 1327.56 2516.93 1357.63 2630.92 1363.53C2782.99 1371.52 2909.87 1326.84 2911 1326.38C2915.73 1324.75 2920.87 1326.64 2923.26 1330.99C2923.3 1331.15 2923.34 1331.24 2923.47 1331.4C3105.53 1269.29 3226.18 1156.35 3207.27 1051.94C3184.26 924.65 2962.87 858.098 2712.83 903.317H2712.88L2712.83 903.233Z" fill="#BDBDBD"/>
<path d="M1635.57 1306.01L1633.06 1307.73C1556.51 1359.93 1454.1 1378.13 1413.65 1383.52C1393.27 1386.24 1368.51 1387.71 1343.78 1387.71C1305.88 1387.71 1248.11 1384.32 1192.93 1367.88C1256.64 1396.66 1389.38 1443.26 1541.99 1418.83C1631.14 1404.56 1662.85 1367.29 1663.52 1322.08C1655.19 1316.85 1646.74 1311.99 1638.25 1307.48L1635.57 1306.06V1306.01Z" fill="black"/>
<path d="M1810.86 1528.92C1809.56 1547.71 1805.59 1566.61 1798.89 1585.44C1786.55 1619.99 1765.43 1653.75 1736.1 1685.66L1733.13 1688.88L1735.93 1692.23C1749.03 1707.96 1763 1722.18 1777.81 1734.73C1790.65 1715.57 1801.32 1695.07 1809.06 1673.32C1824.2 1630.82 1827.67 1583.64 1815.17 1540.26C1814.08 1536.41 1812.66 1532.48 1810.86 1528.84V1528.97V1528.92Z" fill="black"/>
<path d="M1278.48 616.364C1249.99 564.578 1202.22 538.309 1152.98 548.892C1067.93 567.172 976.776 607.245 880.935 668.233C933.227 657.566 983.093 666.602 1015.39 694.042C1015.39 694.042 1122.99 566.837 1188.45 580.139C1229.03 588.38 1260.45 604.944 1278.56 616.406L1278.48 616.364Z" fill="white"/>
<path d="M2815.79 1431.55C2830.26 1409.12 2845.82 1388.67 2862.27 1370.64L2872.35 1359.56L2867.95 1359.89L2857.41 1362.4C2805.12 1374.74 2723.13 1388.38 2629.92 1383.52C2623.85 1383.23 2617.83 1382.81 2611.81 1382.35C2644.23 1401.64 2719.86 1438.57 2815.75 1431.55H2815.79Z" fill="black"/>
<path d="M322.329 1500.36C339.23 1527.13 390.685 1526.79 449.294 1503.28C449.462 1503.12 449.545 1502.99 449.713 1502.78C470.839 1477.43 500.708 1449.62 531.623 1426.57C553.377 1410.34 576.302 1394.94 599.729 1380.89C661.977 1343.45 729.999 1313.63 807.768 1289.7L808.772 1289.41L809.567 1288.7C843.41 1259.12 874.995 1227.83 903.358 1195.67C979.997 1108.83 1024.55 1025.63 1035.85 948.368C1033.08 943.975 1029.95 940.043 1026.18 936.572C971.965 886.543 831.069 951.003 711.467 1080.59C642.776 1155.01 596.089 1234.74 579.021 1298.57C541.956 1292.29 483.556 1308.77 426.621 1344.75C346.634 1395.24 299.906 1464.93 322.329 1500.44V1500.36Z" fill="#BDBDBD"/>
<path d="M1762.29 656.437C1722.09 594.361 1648.75 563.658 1575.46 578.298C1450.71 603.271 1318.39 655.182 1180.72 732.985C1239.12 716.17 1340.98 731.94 1400.59 777.451C1400.59 777.451 1541.28 619.292 1665.95 626.737C1707.7 629.247 1747.31 655.265 1781.57 688.687C1775.47 677.561 1769.02 666.769 1762.25 656.353L1762.29 656.437Z" fill="white"/>
<path d="M1895.32 1531.48C1894.86 1530.43 1894.44 1529.43 1893.98 1528.26C1888.42 1514.83 1883.1 1499.27 1878.63 1483.25C1873.4 1464.76 1869.26 1445.47 1866.29 1426.07C1849.14 1315.72 1857.88 1207.88 1891.47 1114.1C1900.34 1089.33 1910.88 1065.53 1922.93 1042.86C1849.3 1093.06 1816.46 1177.14 1816.46 1177.14C1786.97 1139.4 1754.51 1114.77 1723.97 1098.62C1726.23 1113.09 1727.36 1127.65 1727.36 1142.08C1727.36 1199.39 1704.31 1248.54 1658.71 1288.07L1653.4 1292.67L1659.55 1296.18C1711.08 1325.55 1752.29 1363.24 1778.6 1405.07C1797.93 1436.02 1808.81 1468.77 1810.98 1502.24C1854.99 1532.44 1884.19 1532.9 1895.36 1531.43H1895.32V1531.48Z" fill="#BDBDBD"/>
<path d="M1542.75 974.511C1545.42 974.176 1548.1 974.929 1549.94 976.561C1561.11 986.725 1573.41 999.525 1585.08 1015.04C1597.8 1032.03 1606.75 1048.17 1613.07 1062.19C1615.12 1066.7 1610.68 1071.35 1604.78 1070.89C1558.1 1067.08 1507.1 1064.7 1452.38 1064.7C1380.89 1064.7 1315.3 1068.8 1256.77 1074.99C1249.16 1075.78 1245.56 1067.58 1252.13 1064.24C1281.87 1049.14 1316.51 1033.74 1356.13 1019.69C1426.61 994.715 1491.25 981.58 1542.87 974.511H1542.75Z" fill="white"/>
<path d="M1711.08 1563.98C1695.23 1528.93 1651.51 1517.46 1613.19 1513.95C1529.99 1506.38 1446.23 1516.71 1363.78 1530.26C1082.66 1576.53 800.196 1665.25 580.862 1847.04C556.096 1867.54 530.996 1891.17 523.508 1922.46C521.542 1930.62 521.416 1939.36 522.88 1947.85C620.06 1966.72 717.616 1971.78 794.465 1971.78C829.103 1971.78 859.558 1970.73 883.822 1969.48C1088.1 1958.81 1286.01 1912.76 1472.09 1832.61C1552.45 1798.02 1617.96 1760.7 1668.29 1721.01C1681.47 1698 1693.26 1674.12 1703.34 1649.27C1714.39 1622.08 1723.13 1590.79 1711 1564.02L1711.08 1563.98Z" fill="#BDBDBD"/>
<path d="M3701.03 797.278C3598.75 691.365 3426.39 635.898 3188.15 631.799L3437.77 390.691C3442.58 386.048 3443.75 378.77 3440.62 372.83C3437.48 366.932 3430.79 363.795 3424.22 365.175L2813.74 492.087C2811.94 471.59 2813.74 450.885 2819.05 430.723L2906.48 104.198C2908.07 98.384 2905.98 92.1513 2901.21 88.4285C2896.4 84.7056 2889.87 84.2036 2884.6 87.1736L2086.17 536.469C2086.46 530.989 2087.04 525.551 2088.09 520.113L2148.83 188.444C2150.09 181.793 2146.66 175.1 2140.55 172.13C2134.44 169.244 2127.08 170.792 2122.64 175.895L1753.08 606.115C1705.52 560.479 1638 540.233 1570.61 553.744C1488.44 570.183 1403.19 597.959 1315.46 636.86C1313.5 632.008 1311.57 627.198 1309.48 622.471C1278.1 549.729 1213.05 510.241 1147.71 524.296C967.656 562.989 792.415 690.11 676.493 790.627C642.901 805.686 610.396 823.087 579.314 840.405C472.889 899.761 377.466 975.013 295.555 1064.07C153.655 1218.38 79.0657 1398.83 85.6755 1572.18C89.6497 1677.21 129.183 1764.76 203.228 1832.4C356.256 1972.24 625.707 1996.67 795.092 1996.67C829.94 1996.67 860.646 1995.66 885.118 1994.37C1092.32 1983.57 1293.12 1936.85 1482.09 1855.49C1583.95 1811.61 1662.89 1763.13 1718.61 1710.51C1747.1 1744.31 1779.65 1771.41 1815.5 1791.24C1864.36 1818.22 1920.34 1831.56 1977.77 1831.56C2051.61 1831.56 2127.75 1809.6 2194.35 1766.44C2296.3 1700.34 2374.65 1588.41 2415.06 1451.12C2424.43 1419.25 2431.63 1386.54 2436.44 1353.62C2465.97 1363.61 2497.14 1371.31 2528.81 1377.04C2481.83 1441.79 2461.71 1500.19 2460.16 1573.35C2458.4 1657.72 2490.82 1731.17 2551.36 1780.16C2619.46 1835.16 2706.64 1852.27 2794.37 1852.27C2854.19 1852.27 2914.22 1844.28 2968.56 1834.99C3123.6 1808.31 3275.46 1745.19 3407.57 1652.49C3635.06 1492.87 3779.89 1269.83 3794.86 1056C3801.68 958.867 3768.38 867.008 3701.03 797.32V797.278ZM2109.22 237.678L2058.47 514.717C2053.66 541.154 2055.71 568.51 2064.45 593.901C2069.06 607.287 2075.62 619.083 2082.94 628.745C2090.22 638.45 2098.26 646.105 2105.62 651.25C2120.47 661.916 2131.89 664.092 2134.02 660.787C2136.41 657.19 2129.71 648.866 2120.59 636.107C2111.43 623.475 2100.35 605.655 2092.9 584.071C2091.27 579.302 2089.93 574.45 2088.88 569.556L2868.25 130.969L2790.06 422.942C2779.56 461.928 2780.73 502.879 2793.32 541.279C2797.3 553.368 2802.61 564.244 2808.38 573.53C2814.2 582.858 2820.47 590.513 2826.37 596.243C2838.25 607.789 2848.04 611.93 2850.89 609.127C2853.98 606.157 2849.92 597.038 2843.57 583.736C2837.08 570.393 2828.67 552.531 2821.9 531.951C2820.81 528.605 2819.89 525.174 2818.97 521.828L3379.46 405.248L3145.06 631.673C3128.24 631.841 3111.22 632.175 3093.81 632.803C2643.85 648.782 2428.87 782.972 2326.96 896.875C2297.89 866.632 2265.09 847.432 2229.36 839.694C2174.85 827.898 2112.39 843.918 2053.41 884.661C2013 912.561 1980.95 946.234 1955.64 980.869C1953.72 978.945 1951.8 977.063 1949.83 975.306C1931.09 958.407 1909.12 949.623 1886.07 946.862C1871.18 827.563 1836.67 725.289 1783.33 642.926C1780.15 638.032 1776.8 633.347 1773.29 628.829L2109.22 237.719V237.678ZM1576.46 583.234C1647.71 568.97 1719.03 598.837 1758.06 659.156C1808.35 736.876 1841.14 833.503 1855.74 946.569C1819.6 949.915 1783.29 965.685 1754.93 986.767C1739.03 998.605 1724.05 1012.99 1710.08 1029.6C1691.34 982.835 1661.13 939.165 1621.48 902.564C1583.66 867.72 1540.28 842.831 1497.02 830.073C1519.44 824.718 1542.24 819.992 1565.25 816.143C1571.28 815.139 1577.38 814.637 1583.41 814.637H1583.87C1597 814.637 1609.51 816.687 1620.51 819.782C1626.08 821.456 1631.35 823.296 1636.16 825.304C1641.47 827.521 1646.37 829.571 1650.89 831.411C1669 838.773 1680.88 842.663 1683.35 839.275C1685.73 835.929 1677.66 825.471 1661.51 813.006C1657.49 809.911 1653.1 806.69 1648.04 803.343C1642.6 799.83 1636.54 796.525 1629.84 793.722C1616.41 788.117 1600.35 784.478 1583.41 784.562C1575.71 784.562 1567.93 785.231 1560.27 786.486C1376 817.356 1207.15 901.058 1122.94 948.2C1095.79 963.343 1077.05 981.581 1077.05 989.905C1077.05 990.783 1077.22 991.494 1077.6 992.122C1081.11 997.769 1097.97 993.711 1118.93 984.007C1069.52 1041.06 1030.45 1113.18 1034.13 1196.84C1034.72 1210.43 1036.64 1223.36 1039.74 1235.66C979.244 1243.64 922.56 1254.14 869.556 1267.4C887.838 1249.5 905.533 1231.14 922.183 1212.31C1002.04 1121.79 1048.69 1034.2 1060.69 952.007C1067.3 906.621 1059.82 863.495 1039.69 830.616C1039.15 829.738 1038.52 828.818 1037.98 827.898C1227.74 699.187 1408.84 616.907 1576.46 583.36V583.234ZM1702.26 1142.08C1702.26 1306.89 1478.86 1349.52 1410.38 1358.64C1356.08 1365.87 1197.24 1369.59 1115.16 1300.91C1083.24 1274.14 1066.09 1238.67 1064.21 1195.46C1059.02 1076.87 1155.95 980.995 1215.35 933.727C1272.08 906.036 1343.32 875.333 1421.97 850.82C1479.58 846.805 1546.43 874.287 1601.1 924.692C1665.44 983.965 1702.3 1063.23 1702.3 1142.08H1702.26ZM1154.03 553.786C1205.73 542.701 1255.93 574.325 1281.83 634.476C1283.92 639.328 1285.97 644.348 1288.02 649.409C1200.63 690.235 1110.77 741.895 1019.03 804.264C998.864 783.641 972.174 767.621 941.343 758.042C880.6 739.176 819.983 743.401 761.374 759.547C869.933 674.047 1010.95 584.573 1154.03 553.828V553.786ZM1470.08 1827.97C1284.42 1907.95 1087.05 1953.79 883.487 1964.46C743.72 1971.74 399.638 1971.32 223.476 1810.31C155.621 1748.36 119.352 1667.88 115.712 1571.21C109.437 1405.82 181.182 1232.98 317.685 1084.57C397.421 997.852 490.375 924.608 593.997 866.799C697.076 809.241 816.762 750.889 932.432 786.779C968.367 797.947 997.316 819.071 1014.01 846.261C1030.45 873.199 1036.47 909.131 1030.87 947.573C1019.74 1023.95 975.563 1106.28 899.593 1192.36C871.02 1224.78 839.561 1255.86 806.262 1284.93C728.535 1308.86 659.174 1339.27 597.093 1376.66C573.582 1390.8 550.574 1406.24 528.611 1422.64C493.094 1449.11 464.396 1477.39 445.822 1499.64C427.164 1521.9 418.379 1537.83 421.475 1540.55C427.875 1546.16 478.118 1497.47 546.641 1446.73C567.809 1430.92 590.023 1416.03 612.613 1402.39C728.827 1332.45 872.066 1287.4 1049.94 1264.64C1060.32 1287.15 1075.63 1307.02 1095.88 1324C1160.51 1378.17 1264.89 1392.68 1343.83 1392.68C1371.31 1392.68 1395.74 1390.93 1414.32 1388.5C1457.95 1382.69 1559.27 1364.12 1635.91 1311.87C1732.59 1362.9 1817.76 1457.86 1775.26 1577.03C1741.92 1670.69 1639.26 1755.14 1470.08 1827.97ZM2386.2 1442.63C2347.79 1573.01 2273.83 1679.05 2177.91 1741.17C2070.35 1810.9 1930.54 1820.44 1829.98 1764.93C1796.63 1746.52 1766.35 1720.97 1739.82 1689.01C1769.69 1656.46 1791.03 1622.46 1803.66 1587.07C1826.13 1523.91 1818.89 1460.07 1782.83 1402.39C1756.18 1360.02 1713.8 1321.32 1662.01 1291.79C1703.26 1255.98 1732.38 1207.5 1732.38 1142.04C1732.38 1115.73 1728.65 1089.33 1721.54 1063.61C1737.19 1042.4 1754.42 1024.67 1772.87 1010.9C1818.14 977.188 1886.53 958.7 1929.71 997.56C1932.64 1000.24 1935.48 1003.12 1938.28 1006.26C1914.6 1043.57 1898 1080.8 1886.74 1112.34C1852.86 1206.92 1844.07 1315.68 1861.31 1426.78C1864.53 1447.52 1868.88 1467.06 1873.82 1484.54C1878.67 1501.99 1884.11 1517.42 1889.34 1530.14C1899.8 1555.49 1909.38 1569.92 1913.22 1568.5C1921.3 1565.44 1903.18 1501.78 1891.05 1422.17C1885.53 1386.62 1882.77 1351.32 1882.77 1316.72C1882.77 1248.08 1893.6 1182.24 1915.02 1122.46C1937.99 1058.38 1983.63 969.324 2070.52 909.257C2100.72 888.384 2160.59 855.422 2223 868.891C2253.67 875.5 2282.03 892.65 2307.51 919.881C2249.44 993.837 2221.66 1076.74 2231.08 1149.44C2243.21 1243.14 2314.79 1305.26 2407.53 1342.82C2402.89 1376.45 2395.73 1409.96 2386.16 1442.55L2386.2 1442.63ZM3764.83 1053.78C3750.44 1258.7 3610.38 1473.29 3390.21 1627.77C3261.69 1717.95 3114.1 1779.32 2963.38 1805.25C2835.57 1827.21 2675.31 1841.56 2570.27 1756.65C2517.05 1713.69 2488.56 1648.77 2490.2 1573.89C2491.7 1501.9 2512.03 1447.48 2562.36 1382.19C2584.82 1385.24 2607.41 1387.25 2629.67 1388.42C2723.33 1393.27 2805.75 1379.59 2858.58 1367.17C2837.16 1390.68 2817.29 1417.95 2799.26 1448.74C2779.6 1482.24 2766.97 1515.08 2760.44 1539.51C2753.87 1563.98 2753.33 1580.08 2757.35 1581.17C2765.29 1583.43 2788.01 1527.34 2825.2 1464C2853.81 1415.15 2886.99 1375.99 2923.72 1347.63C2929.53 1343.12 2931.25 1335 2927.69 1328.48C2924.14 1321.99 2916.36 1319.11 2909.41 1321.57C2908.2 1322.03 2783.28 1366.33 2631.26 1358.43C2464.47 1349.81 2279.6 1289.41 2260.99 1145.64C2252.2 1077.83 2282.28 995.719 2341.48 925.905C2418.7 834.883 2619.21 679.61 3094.94 662.711C3369.75 652.923 3571.81 706.674 3679.4 818.109C3758.01 899.468 3769.26 991.118 3764.91 1053.78H3764.83Z" fill="black"/>
<path d="M1400.55 976.644C1400.3 1024.37 1398.75 1074.57 1395.41 1127.02C1392.1 1179.23 1387.42 1228.96 1381.64 1276.02C1381.06 1280.87 1376.37 1284.14 1371.65 1282.96C1355.5 1279.12 1334.92 1272.38 1312.83 1260.17C1287.85 1246.32 1269.74 1230.22 1257.61 1217.58C1255.39 1215.24 1254.72 1211.85 1255.89 1208.88C1269.28 1175.17 1285.63 1138.99 1305.59 1101.17C1331.61 1051.81 1359.14 1008.77 1385.7 971.75C1390.39 965.225 1400.59 968.655 1400.55 976.602V976.644Z" fill="black"/>
<path d="M1571.9 882.569C1571.9 882.569 1551.95 822.543 1596.59 804.054L1536.85 807.024L1477.57 829.529L1554 865.837L1571.86 882.527H1571.9V882.569Z" fill="black"/>
</g>
</g>
<defs>
<clipPath id="clip0_740_124">
<rect width="3881" height="2082" fill="white"/>
</clipPath>
</defs>
</svg>
