<svg width="9347" height="2381" viewBox="0 0 9347 2381" fill="none" xmlns="http://www.w3.org/2000/svg">
<g clip-path="url(#clip0_740_123)">
<path d="M3989.08 1163.79L3093.42 814.63C3075.84 807.77 3056.02 816.32 3048.86 833.85L2681.13 1733.65L3937.44 1423.98C3959.22 1418.61 3976.67 1402.27 3983.54 1380.81L4027.22 1244.06C4037.66 1211.4 4020.94 1176.22 3989.11 1163.82L3989.09 1163.8L3989.08 1163.79ZM3520.64 1308.48L3091.54 1414.26C3081.3 1416.79 3072.55 1406.59 3076.56 1396.8L3172.82 1161.27C3175.48 1154.76 3182.85 1151.59 3189.37 1154.13L3522.24 1283.89C3533.96 1288.46 3532.85 1305.47 3520.65 1308.47V1308.49L3520.64 1308.48Z" fill="#00FF3B"/>
<path d="M1776.71 777.15L1254.3 906.28C1230 912.29 1210 929.58 1200.47 952.82L698.09 2179.06C685.78 2209.11 712.66 2240.45 744.08 2232.71L1566.44 2030C1578.7 2026.98 1588.77 2018.28 1593.57 2006.55L2053.1 884.89L1776.7 777.14V777.16L1776.71 777.15ZM1633.9 1165.9L1395.35 1748.17C1390.72 1759.47 1381.01 1767.85 1369.2 1770.76L1219.84 1807.57C1189.57 1815.03 1163.68 1784.81 1175.54 1755.88L1414.04 1173.72C1418.66 1162.44 1428.37 1154.05 1440.16 1151.13L1589.57 1114.2C1619.84 1106.71 1645.76 1136.94 1633.9 1165.89V1165.9Z" fill="#00FF3B"/>
<path d="M995.62 3.84005C966.64 -7.35995 934.05 6.73005 922.24 35.57L809.16 311.58L1087.43 418.22L1099.44 388.9C1104.09 377.56 1116.92 372.02 1128.32 376.46L2588.15 945.56C2605.4 952.29 2613.78 971.9 2606.73 989.08L2402.29 1488.1C2398.3 1497.88 2389.88 1505.16 2379.63 1507.68L2262.66 1536.52C2236.42 1542.98 2213.98 1516.8 2224.27 1491.72L2398.15 1067.29C2407.32 1044.92 2396.39 1019.35 2373.93 1010.6L2191.93 939.66C2170.11 931.16 2145.5 941.74 2136.59 963.5L1750.27 1906.44C1737.96 1936.49 1764.86 1967.85 1796.27 1960.09L2595.28 1762.57L2998.57 777.99L995.62 3.84005Z" fill="#00FF3B"/>
<path d="M685.58 1925.88L478 1976.51C464.59 1979.79 453.15 1966.39 458.4 1953.58L1054.84 497.75C1055.14 497.04 1054.77 496.22 1054.06 495.96L1052.59 495.4C1051.76 495.09 1051.45 494.09 1051.95 493.36C1052.45 492.63 1052.13 491.63 1051.31 491.32L568.07 305.19C567 304.77 565.92 305.8 566.28 306.9L674.94 638.29C675.04 638.6 675.02 638.94 674.91 639.24L6.0498 2271.85C-18.3702 2331.42 34.8998 2393.64 97.2298 2378.36L547.53 2267.95C547.96 2267.86 548.31 2267.56 548.47 2267.14L687.17 1927.75C687.6 1926.72 686.67 1925.65 685.58 1925.91L685.56 1925.87L685.58 1925.88Z" fill="#00FF3B"/>
</g>
<g clip-path="url(#clip1_740_123)">
<path d="M8904.73 473.58H5777.05C5697.93 473.58 5633.55 537.956 5633.55 617.071V1961.06C5633.55 2040.18 5697.93 2104.56 5777.05 2104.56H8904.73C8983.84 2104.56 9048.22 2040.18 9048.22 1961.06V617.071C9048.22 537.956 8983.84 473.58 8904.73 473.58ZM5726.19 611.872C5726.01 613.59 5725.91 615.307 5725.91 617.116L5726.19 611.872Z" fill="white"/>
<path d="M8904.73 473.58C8983.84 473.58 9048.22 537.957 9048.22 617.071V1961.06C9048.22 2040.18 8983.84 2104.56 8904.73 2104.56H5777.05C5697.93 2104.56 5633.56 2040.18 5633.56 1961.06V617.071C5633.56 537.957 5697.93 473.58 5777.05 473.58H8904.73ZM8955.18 608.707C8955.14 608.3 8955.05 607.939 8955 607.532C8955.09 607.939 8955.14 608.3 8955.18 608.707ZM8904.73 417.025H5777.05C5666.74 417.025 5577 506.763 5577 617.071V1961.06C5577 2071.37 5666.74 2161.11 5777.05 2161.11H8904.73C9015.04 2161.11 9104.78 2071.37 9104.78 1961.06V617.071C9104.78 506.763 9015.04 417.025 8904.73 417.025ZM5777.5 617.071H5782.47C5782.47 617.071 5782.47 617.387 5782.47 617.568L5777.54 617.071H5777.5Z" fill="#091F11"/>
<path d="M9029.23 326.969H5901.55C5822.44 326.969 5758.06 391.346 5758.06 470.46V1814.45C5758.06 1893.57 5822.44 1957.94 5901.55 1957.94H9029.23C9108.35 1957.94 9172.72 1893.57 9172.72 1814.45V470.505C9172.72 391.391 9108.35 327.014 9029.23 327.014V326.969ZM5850.69 465.261C5850.51 466.979 5850.42 468.697 5850.42 470.505L5850.69 465.261Z" fill="#00FF3B"/>
<path d="M9029.23 326.97C9108.35 326.97 9172.72 391.347 9172.72 470.461V1814.46C9172.72 1893.57 9108.35 1957.95 9029.23 1957.95H5901.55C5822.44 1957.95 5758.06 1893.57 5758.06 1814.46V470.506C5758.06 391.392 5822.44 327.016 5901.55 327.016H9029.23M9079.64 462.098C9079.59 461.691 9079.5 461.329 9079.46 460.922C9079.55 461.329 9079.59 461.691 9079.64 462.098ZM9029.23 270.415H5901.55C5791.24 270.415 5701.5 360.153 5701.5 470.461V1814.46C5701.5 1924.76 5791.24 2014.5 5901.55 2014.5H9029.23C9139.54 2014.5 9229.28 1924.76 9229.28 1814.46V470.506C9229.28 360.198 9139.54 270.46 9029.23 270.46V270.415ZM5902 470.506H5906.98C5906.98 470.506 5906.98 470.823 5906.98 471.004L5902.05 470.506H5902Z" fill="#091F11"/>
<path d="M9241.26 265.938H6010.95C5981.79 265.938 5958.2 289.582 5958.2 318.696V1706.81C5958.2 1735.97 5981.84 1759.57 6010.95 1759.57H9241.26C9270.42 1759.57 9294.02 1735.93 9294.02 1706.81V318.696C9294.02 289.537 9270.37 265.938 9241.26 265.938Z" fill="white"/>
<path d="M9197.23 334.61H6030.08V954.188H9197.23V334.61Z" fill="#00FF3B"/>
<path d="M6339.89 359.475H6055.8V648.084H6339.89V359.475Z" fill="#091F11"/>
<path d="M6907.97 359.475H6623.89V648.084H6907.97V359.475Z" fill="#091F11"/>
<path d="M6623.93 647.992H6339.84V936.601H6623.93V647.992Z" fill="#091F11"/>
<path d="M7475.92 359.475H7191.84V648.084H7475.92V359.475Z" fill="#091F11"/>
<path d="M7191.88 647.992H6907.79V936.601H7191.88V647.992Z" fill="#091F11"/>
<path d="M8043.92 359.475H7759.83V648.084H8043.92V359.475Z" fill="#091F11"/>
<path d="M7759.92 647.992H7475.83V936.601H7759.92V647.992Z" fill="#091F11"/>
<path d="M8611.92 359.475H8327.83V648.084H8611.92V359.475Z" fill="#091F11"/>
<path d="M8327.92 647.992H8043.83V936.601H8327.92V647.992Z" fill="#091F11"/>
<path d="M9180.05 359.475H8895.96V648.084H9180.05V359.475Z" fill="#091F11"/>
<path d="M9180.04 359.475V931.991H6057.74V359.475H9180M9211.83 327.648H6025.96V963.772H9211.87V327.648H9211.83Z" fill="#091F11"/>
<path d="M9217.16 969.107H6020.63V322.359H9217.12V969.107H9217.16ZM6031.25 958.483H9206.54V332.983H6031.25V958.528V958.483ZM9185.33 937.28H6052.45V354.185H9185.33V937.28ZM6063.03 926.657H9174.71V364.764H6063.03V926.657Z" fill="#091F11"/>
<path d="M8896 647.992H8611.92V936.601H8896V647.992Z" fill="black"/>
<mask id="mask0_740_123" style="mask-type:luminance" maskUnits="userSpaceOnUse" x="6058" y="1076" width="3148" height="580">
<path d="M9206 1076.88H6058.2V1655.64H9205.95V1076.88H9206Z" fill="white"/>
</mask>
<g mask="url(#mask0_740_123)">
<path d="M6180.03 1091.17H6058.2V1641.31H6657.07V1525.21H6180.03V1091.17Z" fill="#091F11"/>
<path d="M8601.56 1091.17H8478.78V1641.31H8601.56L9206 1439.5V1292.98L8601.56 1091.17ZM9077.74 1370.33L8601.56 1511.33V1221.1L9077.74 1362.1V1370.42V1370.33Z" fill="#091F11"/>
<path d="M8233.21 1091.17V1496.14L8088.99 1545.74L7900.38 1547L7752.37 1496.14V1091.17H7629.27V1572.36L7870.09 1655.59H8115.62L8356.44 1572.36V1091.17H8233.25H8233.21Z" fill="#091F11"/>
<path d="M7265.84 1076.88H7020.32L6779.49 1160.11V1572.32L7020.32 1655.55H7265.84L7506.67 1572.32V1160.11L7265.84 1076.88ZM7239.3 1545.74L7050.7 1547L6902.68 1496.14V1236.33L7046.9 1186.74L7235.55 1185.47L7383.56 1236.33V1496.19L7239.35 1545.78V1545.69L7239.3 1545.74Z" fill="#091F11"/>
</g>
<path d="M9151.7 270.64C9228.96 270.64 9291.8 329.411 9291.8 401.608V1628.11C9291.8 1700.3 9228.96 1759.07 9151.7 1759.07H6098.39C6021.12 1759.07 5958.29 1700.3 5958.29 1628.11V401.563C5958.29 329.366 6021.12 270.595 6098.39 270.595H9151.65M9151.7 219.012H6098.39C5990.7 219.012 5903.09 300.93 5903.09 401.563V1628.06C5903.09 1728.74 5990.7 1810.61 6098.39 1810.61H9151.65C9259.34 1810.61 9346.95 1728.69 9346.95 1628.06V401.563C9346.95 300.884 9259.34 219.012 9151.65 219.012H9151.7ZM6098.84 401.563H6103.67C6103.67 401.563 6103.67 401.88 6103.67 402.015L6098.84 401.563Z" fill="#091F11"/>
</g>
<defs>
<clipPath id="clip0_740_123">
<rect width="4030.31" height="2380.7" fill="white"/>
</clipPath>
<clipPath id="clip1_740_123">
<rect width="3770" height="1942.14" fill="white" transform="translate(5577 219.012)"/>
</clipPath>
</defs>
</svg>
