<svg width="3892" height="2896" viewBox="0 0 3892 2896" fill="none" xmlns="http://www.w3.org/2000/svg">
<g clip-path="url(#clip0_740_64)">
<mask id="mask0_740_64" style="mask-type:luminance" maskUnits="userSpaceOnUse" x="0" y="0" width="3892" height="2896">
<path d="M3891.7 0H0V2895.66H3891.7V0Z" fill="white"/>
</mask>
<g mask="url(#mask0_740_64)">
<path d="M3581.05 954.51L3594.58 848.49C3598.91 815.71 3587.59 782.06 3564.23 758.26L3207.7 398.28C3185.09 375.29 3153.55 363.66 3120.95 366.42L2974.2 379.62C2940.77 249.37 2852.87 148.59 2720.98 91.58C2607.23 42.41 2501.16 40.63 2481.47 40.73C2230.64 32.78 2008.92 146.7 1849.61 262.94C1740.9 86.17 1575.38 11.25 1445.56 1.40996C1304.97 -9.35004 1151.4 42.03 1034.84 138.91C972.47 190.73 899.83 272.57 848.49 396.28C820.85 392.22 791.8 398.66 768.16 416.02L767.67 416.4C755.01 425.87 642.23 511.82 517.82 661.98L118.19 824.2C81.8899 838.7 56.1999 871.8 51.0599 910.86L0.979896 1301.78C-3.6701 1336.78 9.0899 1371.94 35.2199 1395.9L62.0499 1420.4C62.3199 1425.76 62.6499 1431.06 63.0199 1436.42C69.2899 1531.35 86.7699 1627.47 114.95 1722.35C110.68 1775.96 111.11 1831.94 116.3 1889C132.85 2073.35 217.18 2238.06 353.71 2352.79C486.78 2464.54 655.98 2521.18 856.55 2521.18C868.45 2521.18 880.73 2520.96 894.36 2520.53C1002.6 2516.8 1104.08 2495.77 1196.73 2457.9L1453.62 2692.76C1483.74 2720.56 1527.94 2728.89 1566.34 2713.96L1690.1 2665.6C1787.62 2766.58 1920.75 2841.77 2063.17 2874.99C2122.08 2888.78 2181.8 2895.76 2240.7 2895.76C2305.77 2895.76 2369.44 2887.21 2429.91 2870.45C2560.55 2834.15 2668.78 2760.05 2743.05 2656.24C2858.65 2494.56 2856.86 2330.12 2835 2220.7C2816.5 2127.77 2775.89 2037.87 2718.39 1961L2825.44 1872.23C2921.94 1968.13 3061.11 2071.94 3252.22 2086.7C3267.63 2087.89 3283.48 2088.49 3299.39 2088.49C3425.27 2088.49 3545.3 2050.79 3646.55 1979.49C3763.12 1897.44 3844.48 1776.11 3875.62 1637.84C3935.99 1369.98 3823.59 1112.39 3581.04 954.61V954.5L3581.05 954.51Z" fill="white"/>
<path d="M3499.76 993.73L3519.5 838.65C3520.79 828.86 3517.39 818.74 3510.41 811.66L3153.72 451.52C3146.9 444.6 3137.44 441.14 3127.71 441.95L2911.6 461.37C2895.26 285.57 2783.45 201.19 2690.91 161.21C2588.67 117.02 2491.09 116.42 2480.59 116.58C2213.6 107.6 1979.11 250.78 1824.3 378.55C1734.78 171.32 1568.39 86.72 1439.71 76.99C1318.16 67.69 1184.88 112.69 1083.13 197.18C997.18 268.63 890.24 404.08 864 645.17L795.14 651.39C814.67 606.33 836.63 561.92 860.65 518.97C868.11 505.72 865.19 488.79 853.78 478.83C842.42 468.77 825.27 468.01 812.89 477.1C800.72 486.19 690.48 570.25 568.99 718.84L565.31 723.33C564.88 723.87 564.44 724.36 564.01 724.9L146.1 894.59C135.23 898.92 127.55 908.87 126.03 920.5L75.8301 1311.86C74.4201 1322.35 78.2601 1332.85 86.1101 1340.04L136.2 1385.86C136.63 1401.49 137.34 1416.48 138.31 1431.46C144.53 1525.37 162.38 1620.52 191.43 1714.42C186.18 1767.91 186.24 1824.33 191.43 1882.21C206.2 2046.53 281.01 2193.02 402.12 2294.77C521.18 2394.72 673.99 2445.41 856.28 2445.41C867.42 2445.41 878.89 2445.19 891.44 2444.82C1007.95 2440.77 1115.33 2415.08 1210.91 2368.44L1504.62 2636.95C1513.55 2645.29 1526.91 2647.82 1538.49 2643.33L1711.36 2575.77C1800.34 2685.2 1934.01 2767.04 2080.16 2801.17C2133.44 2813.62 2187.38 2819.94 2240.44 2819.94C2298.64 2819.94 2355.49 2812.37 2409.36 2797.39C2523.12 2765.74 2617.09 2701.71 2681.17 2612.13C2780.98 2472.52 2779.4 2330.2 2760.47 2235.43C2739.7 2130.93 2685.5 2028.53 2610.74 1951.62L2831.27 1768.73C2928.16 1876.1 3063.27 1996.18 3257.73 2011.16C3271.2 2012.19 3285.1 2012.74 3299.11 2012.74C3409.3 2012.74 3514.23 1979.84 3602.72 1917.53C3703.88 1846.35 3774.52 1741.08 3801.51 1621.15C3857.99 1370.6 3742.39 1131.19 3499.52 993.74H3499.74L3499.76 993.73Z" fill="black"/>
<path d="M1123.22 1197.44C1162.82 1152.11 1194.24 1097.91 1216.53 1036.35L1219.61 1027.91L975.82 1062.26L1119.49 1201.76L1123.22 1197.49V1197.44Z" fill="black"/>
<path d="M2687.35 821.39L2706.32 828.91C2737.16 841.13 2767.4 855.04 2796.17 870.18L2799.19 871.75L2861.99 825.12L2841.38 799.64L2687.34 821.33V821.38L2687.35 821.39Z" fill="black"/>
<path d="M3120.95 1155.95C3153.07 1198.3 3184.01 1242.55 3211.34 1281.61L3218.1 1291.24C3226.76 1303.57 3235.35 1315.91 3244.01 1328.19C3248.77 1334.95 3254.07 1342.04 3260.35 1349.88L3263.75 1354.21L3427.43 1218.55L3473.2 860.14L3117.82 1151.86L3120.96 1156.03V1155.98L3120.95 1155.95Z" fill="#00FF3B"/>
<path d="M3480.49 1032.46L3473.46 1028.46L3448.3 1225.46C3447.92 1228.16 3446.58 1230.71 3444.46 1232.44L3277.64 1370.7L3281.49 1374.92C3300.36 1395.42 3319.95 1412.68 3339.75 1426.25C3369.55 1446.8 3397.73 1459.41 3416.13 1466.39C3419.69 1467.79 3423.05 1469.04 3426.19 1470.23C3432.79 1472.72 3439.98 1475.48 3444.09 1477.54C3439.05 1478.89 3428.83 1480.13 3413.2 1478.29C3386.37 1475.42 3354.35 1462.66 3327.52 1444.1C3291.22 1419.22 3257.15 1384.44 3226.26 1340.73C3215.27 1325.15 3204.35 1309.57 3193.48 1293.99L3192.79 1293.02C3144.59 1224.16 3094.82 1152.92 3038.52 1088.34C2834.75 854.5 2506.73 742.15 2202.84 802.14C2092.33 823.89 1985.23 868.08 1893.16 929.8C1769.67 1012.62 1675.01 1124.26 1619.51 1252.68C1570.56 1365.9 1551.09 1492.68 1561.64 1629.43L1561.8 1631.49L1653.75 1720.81L2072.09 1410.69L2072.68 1409.61C2081.34 1393.33 2115.74 1338.32 2196.23 1314.57C2268.12 1293.36 2390.64 1306.08 2485.57 1371.47C2624.91 1467.37 2730.82 1588.38 2842.91 1716.52L2846.9 1721.12C2940.86 1828.44 3072.91 1953.49 3261.13 1968C3274.33 1969.03 3287.43 1969.52 3300.35 1969.52C3521.85 1969.52 3711.5 1824 3759.38 1611.65C3811.08 1382.08 3704.15 1160.14 3480.31 1032.54L3480.47 1032.49L3480.49 1032.46ZM3479.74 1894.09C3484.13 1889.6 3490.83 1882.45 3498.51 1872.08C3507.64 1860.07 3515.92 1847.24 3523.06 1833.94L3529.07 1822.85L3516.9 1826.15C3491.21 1833.18 3464 1836.37 3440.48 1835.18C3420.68 1834.25 3407.86 1831.17 3401.26 1828.68C3406.34 1827.65 3413.97 1826.58 3421.49 1825.6C3427 1824.85 3433.17 1824.04 3439.87 1823.01C3479.25 1817.22 3515.83 1806.79 3548.55 1791.96C3581.22 1777.14 3613.19 1756.59 3643.48 1730.78C3648.66 1726.39 3653.32 1722.34 3657.53 1718.71C3663.26 1713.75 3669.11 1708.65 3673.28 1705.52C3670.73 1712.16 3664.62 1723.8 3652.29 1739.32C3641.52 1752.95 3610.85 1787.14 3558.88 1810.99L3556.98 1811.86L3556.17 1813.76C3551.08 1825.6 3545.08 1836.48 3538.37 1846.21C3529.22 1859.47 3518.51 1871.37 3507.38 1880.61C3498.33 1888.24 3488.45 1894.03 3480.82 1896.02C3479.46 1896.4 3478.21 1896.67 3477.24 1896.79C3478.15 1895.81 3479.08 1894.84 3479.89 1894.03L3479.73 1894.09H3479.74ZM3490.12 1705.91L3491.48 1704.39C3497.11 1698.12 3502.47 1692.71 3507.98 1687.79C3538.65 1659.99 3569.42 1648.9 3581.27 1645.43C3595.22 1641.32 3604.69 1640.57 3609.33 1640.94C3605.28 1644.52 3596.46 1650.15 3588.4 1655.23C3570.61 1666.59 3546.21 1682.11 3522.41 1703.86C3506.17 1718.52 3492.33 1733.72 3480.1 1747.14C3475.28 1752.38 3470.85 1757.3 3466.62 1761.69C3455.27 1773.7 3449.15 1778.62 3445.97 1780.68C3446.66 1776.89 3449.05 1769.16 3456.62 1754.66C3460.3 1747.79 3464.35 1740.92 3468.68 1734.27L3473.22 1727.29L3465 1725.99C3463.38 1725.73 3461.82 1725.51 3460.35 1725.18C3447.37 1722.37 3435.14 1717.61 3422.96 1710.74C3409.88 1703.07 3402.68 1696.73 3399.6 1693.05C3406.14 1693.7 3419.18 1697.16 3427.68 1699.43C3446.55 1704.35 3466.89 1708.58 3488.15 1706.19L3490.21 1705.97L3490.09 1705.93L3490.12 1705.91ZM3306.59 1874.13C3306.59 1874.13 3316.87 1858.87 3332.71 1848.22L3334.45 1847.02L3334.93 1844.96C3335.15 1843.99 3335.2 1843.02 3335.05 1842.31C3334.88 1840.85 3334.24 1839.5 3333.21 1838.26L3331.97 1836.8L3330.07 1836.48C3317.41 1834.21 3306.43 1829.55 3301.46 1827.22L3298.26 1825.56C3295.55 1824.36 3292.64 1823.07 3289.72 1821.45C3274.9 1813.76 3260.89 1804.08 3248.07 1792.66C3220.7 1768.75 3198.15 1735.49 3184.52 1699.03C3176.02 1676.91 3170.89 1656.74 3168.83 1637.31C3167.64 1626.17 3167.59 1615.99 3168.56 1606.15C3168.94 1601.66 3169.59 1597.39 3170.57 1593.33C3170.99 1591.27 3172.19 1585.98 3173.38 1581.11C3173.65 1579.87 3174.47 1578.78 3175.54 1578.09C3176.68 1577.38 3177.99 1577.16 3179.17 1577.48L3184.53 1578.9C3188.52 1579.87 3192.53 1580.9 3196.21 1581.98C3199.39 1583.11 3202.65 1584.19 3205.78 1585.28C3208.7 1586.31 3211.53 1587.49 3214.28 1588.68C3215.64 1589.27 3217.04 1589.87 3218.29 1590.36C3221.04 1591.55 3223.7 1592.85 3226.35 1594.15L3241.39 1602.1C3254.69 1609.94 3267.3 1619.08 3278.7 1629.25C3302.18 1650.35 3314.9 1670.09 3320.36 1679.99C3321.6 1682.26 3322.63 1684.26 3323.56 1686.1C3322.42 1684.91 3321.23 1683.67 3320.09 1682.42L3318.85 1681.06C3307.88 1669.5 3292.57 1654.18 3271.14 1638.77C3259.24 1630.17 3246.69 1622.65 3233.65 1616.21C3230.19 1614.65 3226.73 1613.03 3222.84 1611.23C3219.16 1609.78 3215.53 1608.32 3211.48 1606.7C3210.08 1606.21 3208.67 1605.72 3207.25 1605.24C3204.76 1604.31 3202.23 1603.45 3199.52 1602.63L3192.64 1600.91L3190.32 1603.12C3189.23 1604.15 3188.15 1605.93 3188.64 1608.79C3188.15 1616.91 3188.52 1625.72 3189.73 1634.97C3191.89 1652.06 3196.97 1671.05 3204.75 1691.33C3217.47 1724.98 3237 1755.12 3261.34 1778.48C3272.43 1789.19 3284.76 1798.71 3297.9 1806.66C3300.88 1808.61 3303.91 1810.24 3306.87 1811.75L3307.48 1812.07C3311.1 1814.07 3314.12 1815.59 3317.05 1816.89C3318.02 1817.32 3318.95 1817.74 3319.86 1818.18C3322.09 1819.21 3324.25 1820.19 3326.42 1820.94L3331.23 1822.72C3332.32 1823.1 3333.34 1823.49 3334.43 1823.81C3342.1 1826.14 3347.89 1828.89 3352.22 1832.25C3352.6 1832.52 3352.99 1832.84 3353.25 1833.18C3354.77 1834.69 3356.51 1837.33 3356.01 1841.07V1841.29C3355.85 1842.65 3355.42 1844.11 3354.77 1845.18C3354.39 1845.83 3353.74 1846.42 3352.93 1847.24L3351.9 1848.22C3350.06 1850.06 3346.43 1852.71 3341.51 1854.7C3340.16 1855.35 3338.86 1856 3337.57 1856.65C3336.59 1857.13 3335.62 1857.62 3334.59 1858.16C3333.4 1858.75 3332.32 1859.35 3331.35 1859.95L3328.64 1861.4C3326.47 1862.64 3324.37 1863.89 3322.42 1865.19C3318.21 1867.9 3314.26 1870.7 3310.68 1873.53C3307.71 1875.9 3305.05 1878.12 3302.73 1880.17C3303.86 1878.33 3305.22 1876.33 3306.78 1874.16L3306.62 1874.12L3306.59 1874.13ZM2740.2 1324.28C2736.78 1323.04 2733.01 1321.74 2729.21 1320.49C2722.61 1318.43 2714.88 1316.16 2707.25 1314.97L2699.19 1314.7L2699.78 1320.65C2699.78 1321.19 2700.05 1323.41 2700.21 1324.92L2700.96 1330.82C2701.77 1338.07 2702.91 1345.64 2704.42 1354.51C2707.07 1370.25 2710.33 1384.96 2714.06 1398.22C2720.92 1422.78 2730.6 1446.36 2742.78 1468.21C2754.89 1490.44 2768.15 1505.38 2776.1 1514.29C2774.64 1513.54 2772.96 1512.61 2771.18 1511.58C2765.01 1507.96 2748.95 1497.09 2732.61 1474.92C2722.02 1460.69 2707.08 1436.83 2695.89 1403.94C2691.01 1389.71 2686.96 1374.3 2683.78 1358.23C2682.1 1349.52 2680.74 1341.52 2679.71 1333.67L2677.87 1318.9C2677.12 1313.54 2677 1308.57 2676.96 1303.54V1300.4L2669.81 1296.34C2658.68 1289.96 2644.77 1282.06 2629.36 1275.08C2620.65 1271.13 2611.56 1267.45 2601.56 1263.88C2593.87 1261.17 2585.99 1258.69 2578.08 1256.36C2572.13 1254.57 2562.72 1251.76 2559.37 1249.6C2561.74 1247.87 2568.08 1245.17 2579.05 1244.08C2586.95 1243.27 2596.36 1243.65 2606.2 1245.32C2616.26 1247.16 2626.77 1250.4 2636.55 1254.62L2650.94 1260.84L2643.47 1247.05C2642.5 1245.21 2641.47 1243.43 2640.6 1241.53C2635.2 1229.95 2631.03 1217.57 2628.21 1204.8C2625.94 1193.55 2624.87 1182.79 2625.08 1173.64C2625.34 1160.5 2627.51 1153.52 2628.92 1150.54C2631.63 1154.81 2635.3 1166.12 2638.66 1176.29C2643.86 1192.09 2650.34 1211.83 2660.18 1232.38C2665 1242.44 2670.62 1252.77 2677.06 1263.32C2678.2 1265 2679.23 1266.67 2680.3 1268.35C2682.04 1271.05 2683.72 1273.71 2685.34 1276.03C2687.12 1278.84 2689.02 1281.38 2690.8 1283.87L2693.84 1288.14C2694.38 1288.95 2694.93 1289.71 2695.52 1290.47L2697.14 1292.63H2700.76C2701.85 1292.63 2702.93 1292.79 2704.06 1292.9C2704.87 1293.01 2705.68 1293.12 2706.33 1293.12L2707.52 1293.23C2708.01 1293.23 2708.45 1293.28 2708.92 1293.39L2710.82 1293.71C2720.5 1295.33 2728.94 1298.09 2735.98 1300.53C2739.93 1301.88 2743.67 1303.29 2747.5 1304.86C2752.1 1306.65 2755.5 1308.05 2758.64 1309.62C2763.03 1311.62 2766.33 1313.24 2769.25 1314.81L2771.57 1316.05C2774.22 1317.46 2776.82 1318.81 2779.41 1320.49C2808.14 1337.15 2829.01 1356.41 2842.21 1369.34C2859.2 1386.27 2870.29 1400.5 2876.61 1409.37C2877.85 1411.15 2878.94 1412.78 2879.81 1414.18C2878.45 1413.21 2876.94 1412.07 2875.15 1410.72C2870.72 1407.37 2865.47 1403.2 2859.52 1398.39C2852.11 1392.49 2843.79 1385.73 2834.15 1378.43C2815.55 1364.37 2794.88 1349.65 2770.38 1337.21C2767.08 1335.43 2763.78 1333.91 2760.7 1332.5C2757.4 1330.88 2754 1329.47 2750.64 1328.12C2747.56 1326.77 2744.2 1325.47 2740.2 1324.12V1324.23V1324.28ZM2847.02 1312.6C2846.75 1313.95 2846.43 1315.09 2846.09 1316.06C2845.4 1314.38 2844.58 1312.33 2843.88 1310.38C2841.72 1304.65 2838.68 1296.75 2834.1 1287.93C2828.96 1277.87 2821.87 1266.4 2813.06 1253.85C2803.04 1239.3 2793.1 1226.7 2782.71 1215.28C2754.91 1184.07 2727.1 1168.65 2713.15 1162.22C2706.12 1158.81 2699.63 1156.16 2694.49 1154.05C2691.13 1152.7 2687.56 1151.18 2684.97 1149.94C2685.88 1149.67 2687.08 1149.45 2688.49 1149.18C2691.41 1148.64 2695.25 1148.64 2699.68 1148.59H2700.61C2702.51 1148.59 2704.56 1148.81 2706.83 1149.08L2708.67 1149.3C2711.32 1149.57 2714.03 1149.9 2716.95 1150.6C2729.87 1153.09 2744.26 1158.71 2757.56 1166.56C2771.95 1174.89 2786.17 1186.74 2798.78 1200.69C2810.46 1213.51 2820.74 1228.06 2829.45 1243.91C2837.29 1258.03 2842.92 1271.82 2845.67 1283.88C2849.24 1298.97 2847.84 1308.98 2847.13 1312.55L2847.03 1312.6H2847.02ZM2057.01 994.86C2049.86 998.59 2041.8 1002.87 2032.98 1007.63C2023.04 1013.04 2013.18 1018.61 2003.83 1024.13L2000.21 1026.29C1990.73 1031.92 1981 1037.7 1971.05 1044.14C1957.1 1053.17 1946.82 1060.75 1937.67 1068.7C1935.02 1071.03 1932.31 1073.46 1929.94 1075.79C1928.54 1077.09 1927.29 1078.39 1926.05 1079.68L1921.55 1084.33H1918.47V1087.41L1918.21 1087.68V1092.6L1921.45 1095.74H1922.48L1923.02 1095.96L1932.6 1095.64C1943.37 1095.53 1953.47 1095.86 1963.21 1096.23L1970.03 1096.45C1983.61 1096.94 1993.62 1096.99 2002.54 1096.61C2011.31 1096.29 2020.44 1095.42 2030.5 1094.07C2044.9 1092.07 2057.06 1089.47 2065.93 1087.63C2068.26 1087.14 2070.59 1086.66 2072.81 1086.22C2072.22 1086.65 2071.51 1087.09 2070.81 1087.57C2064.96 1091.36 2052.25 1098.55 2032.83 1104.39C2023.48 1107.26 2013.8 1109.47 2004.06 1110.99C1994.22 1112.56 1982.8 1113.59 1970.09 1114.07C1965.92 1114.29 1961.75 1114.39 1957.6 1114.56C1942.72 1115.1 1927.35 1115.7 1912.21 1117.7L1907.17 1118.35C1905.93 1118.51 1904.58 1118.84 1903.23 1119.16C1902.58 1119.32 1901.93 1119.48 1901.12 1119.65C1899.72 1119.97 1898.41 1120.3 1897.05 1120.57C1894.79 1121.06 1892.46 1121.6 1889.81 1122.36L1888.41 1122.74L1887.38 1123.77C1883.31 1127.88 1879.32 1131.94 1875.47 1135.73C1872.5 1138.65 1869.64 1141.46 1866.6 1144.39C1864.01 1147.09 1861.52 1149.91 1859.09 1152.67C1855.04 1157.32 1851.03 1162.35 1846.43 1168.46C1840.38 1176.52 1835.84 1183.55 1832.2 1189.23C1830.69 1191.61 1829.07 1194.15 1827.67 1196.15V1192.42C1828.05 1184.2 1831.01 1173.33 1835.78 1162.56C1838.65 1156.12 1842.11 1149.63 1846.06 1143.25C1848.55 1139.3 1850.72 1136.11 1852.94 1133.19C1855.05 1130.43 1857.21 1127.83 1859.48 1125.13L1860.88 1123.45C1865.64 1117.82 1870.62 1111.98 1875.86 1106.03L1876.47 1105.22C1877.44 1103.6 1878.47 1102.03 1879.55 1100.35L1879.93 1099.76C1883.55 1094.46 1888.09 1088.78 1893.07 1083.26C1895.5 1080.5 1898.11 1077.85 1900.86 1074.93L1907.95 1067.63C1910.16 1065.41 1912.76 1062.76 1915.24 1060.55C1918.22 1057.74 1921.3 1055.14 1924.17 1052.76C1934.82 1044.1 1946.56 1036.26 1961.16 1028.04C1971.77 1022.09 1982.91 1016.41 1996.32 1010.14C2006.93 1005.11 2017.58 1000.62 2027.92 996.78C2053.08 987.48 2070.6 983.58 2080.6 982.28C2074.59 985.8 2065.94 990.34 2056.96 995.05L2057.02 994.89L2057.01 994.86ZM1991.77 1299.24C1979.39 1303.84 1965.92 1308.33 1950.56 1312.87L1948.61 1313.41C1942.13 1315.3 1935.41 1317.25 1928.27 1319.04C1924.48 1320.07 1920.53 1320.93 1916.63 1321.74L1906.19 1323.47C1902.83 1323.96 1898.9 1324.44 1895.1 1324.61C1893.42 1324.77 1891.8 1324.88 1890.28 1324.83H1888.12C1887.63 1324.83 1887.09 1324.94 1886.66 1324.83C1886.01 1324.61 1885.31 1324.45 1884.6 1324.29C1884.17 1324.18 1883.67 1324.07 1883.3 1323.97L1880.87 1322.51C1880.6 1322.24 1880.33 1321.97 1880.06 1321.7L1879.19 1320.89L1878.54 1319.81C1878.32 1319.38 1878.11 1318.89 1877.85 1318.46C1877.73 1318.24 1877.58 1318.03 1877.47 1317.76L1876.92 1314.78C1876.66 1310.02 1879.35 1302.23 1880.93 1297.52C1882.17 1293.84 1883.46 1290.54 1884.77 1287.51L1887.75 1280.86C1894.73 1266.42 1902.89 1253.87 1910.08 1242.78C1927.23 1216.87 1944.92 1197.45 1956.87 1185.71C1971.58 1170.73 1984.56 1159.8 1994.46 1154.07C1996.25 1153.04 1997.82 1152.18 1999.28 1151.53C1998.85 1152.02 1998.41 1152.5 1998.04 1152.99L1995.77 1155.64C1988.68 1163.75 1979.21 1175.82 1966.07 1193.67C1950.71 1213.9 1937.73 1233.27 1926.37 1252.9L1925.24 1254.85C1918.86 1266.05 1912.26 1277.68 1906.84 1289.69L1905 1294.29V1300.73H1912.73L1913.16 1300.35C1916.58 1299.65 1919.98 1298.94 1923.33 1298.08C1928.53 1296.84 1933.82 1295.48 1939.06 1294.08L1945.01 1292.51C1960.54 1288.45 1973.84 1284.67 1985.7 1281.04C1998.62 1277.04 2010.7 1272.87 2021.57 1268.6C2031.41 1264.76 2041.25 1260.32 2051.65 1255.02C2061 1250.26 2069.34 1245.72 2076.75 1241.66C2083.51 1237.98 2089.4 1234.74 2094.38 1232.3C2096.16 1231.38 2097.8 1230.62 2099.2 1229.97C2098.17 1231.11 2096.99 1232.4 2095.57 1233.86C2084.54 1245.06 2071.88 1255.71 2057.92 1265.45C2048.4 1272.1 2038.45 1278.11 2028.28 1283.25C2017.09 1288.93 2004.86 1294.28 1991.98 1299.15L1991.76 1299.26L1991.77 1299.24ZM2079.5 1176.4C2075.17 1178.73 2070.53 1181.27 2067.13 1182.73C2069.78 1177.54 2076.26 1168.4 2088.87 1157.74C2105.8 1143.19 2131.81 1129.02 2160.33 1118.9L2163.14 1117.93L2164.17 1113.28C2164.29 1112.69 2164.39 1112.14 2164.55 1111.55L2165.75 1106.63C2166.56 1103.87 2167.37 1101.06 2168.28 1098.35C2170.29 1092.62 2172.56 1087.37 2175.21 1082.34C2177.42 1078.07 2180.51 1073.36 2184.34 1068.38C2185.27 1067.14 2186.18 1065.89 2187.1 1064.7C2189.43 1061.56 2191.64 1058.59 2194.29 1055.72C2207.11 1040.47 2222.04 1026.84 2238.69 1015.15C2265.31 996.22 2294.67 981.83 2328.43 971.23C2356.94 962.3 2379.45 958.9 2393.4 957.6C2395.83 957.38 2398.05 957.22 2400 957.06C2397.51 957.98 2395.24 958.79 2393.72 959.33L2387.4 961.55C2373.45 966.42 2354.4 973.07 2332.6 982.48C2300.31 996.54 2273.26 1012.18 2250.06 1030.3C2235.24 1041.71 2221.82 1054.75 2210.52 1068.81C2208.15 1071.41 2206.13 1074.22 2204.25 1076.98C2203.44 1078.17 2202.61 1079.31 2201.76 1080.5C2198.68 1084.61 2196.23 1088.23 2194.18 1092.46C2192.12 1096.35 2190.34 1100.57 2188.72 1105.44C2187.97 1107.66 2187.26 1109.98 2186.61 1112.42L2185.21 1118.21L2189.26 1121.83H2190.5L2195.32 1123.18C2197.65 1123.77 2200.02 1124.21 2202.3 1124.59C2214.47 1126.32 2224.59 1128 2233.29 1129.73C2250.06 1132.87 2266.03 1136.49 2281.39 1139.95L2290.91 1142.06C2333.26 1151.8 2363.12 1156.93 2387.62 1158.83C2410.44 1160.78 2432.52 1159.86 2453.23 1156.12C2455.72 1155.69 2457.99 1155.25 2460.16 1154.82C2458.32 1155.79 2456.15 1156.82 2453.78 1157.9C2436.25 1165.74 2412.07 1170.5 2387.3 1170.94C2361.16 1171.7 2328.39 1168.34 2287.17 1160.77C2279.6 1159.42 2271.91 1158.01 2264.13 1156.55C2252.83 1154.44 2241.31 1152.33 2229.61 1150.33C2219.07 1148.49 2208.78 1147.08 2199.11 1145.73C2194.13 1145.08 2189.04 1143.95 2184.12 1142.43L2180.99 1141.29C2178.93 1140.64 2176.76 1139.67 2174.61 1138.53L2172.6 1137.45L2170.44 1138.15C2142.48 1147.02 2115.92 1157.62 2095.79 1167.95C2089.68 1170.98 2084.27 1173.9 2079.57 1176.44L2079.51 1176.39L2079.5 1176.4Z" fill="#BDBDBD"/>
<path d="M2565.41 1967.33L2561.95 1964.03L2192.67 2270.19L2199.49 2274.04C2228.42 2290.42 2250.6 2306.21 2269.33 2323.8C2280.2 2334.02 2288.8 2344.95 2295.02 2356.31C2301.07 2367.51 2304.8 2379.25 2305.99 2391.15C2307.67 2406.41 2304.37 2419.11 2301.34 2427.06C2296.8 2438.8 2290.63 2446.8 2286.24 2451.4C2278.4 2459.56 2271.91 2462.44 2268.93 2463.04C2269.48 2460.43 2271.48 2455.57 2273.21 2451.46C2274.12 2449.25 2275.09 2446.86 2276.08 2444.37C2283.43 2425.93 2286.2 2409.21 2284.46 2393.31C2282.4 2374.22 2272.56 2356.63 2254.38 2339.54C2234.7 2320.94 2211.05 2304.66 2177.84 2286.81L2174.64 2285.07L1979 2447.29C1978.02 2448.1 1976.99 2448.69 1975.9 2449.07L1739.47 2541.57L1744.12 2547.3C1826.88 2649.8 1953.03 2726.95 2090.15 2759.02C2140.94 2770.87 2191.35 2776.61 2240.26 2776.61C2408.49 2776.61 2559.07 2708.61 2646.11 2586.85C2716.64 2488.18 2742.27 2372.22 2720.32 2251.38C2701.07 2145.56 2644.59 2042.03 2565.39 1967.28V1967.34L2565.41 1967.33ZM2408.17 2484.72C2407.36 2499.71 2401.25 2517.72 2391.84 2532.97C2382.42 2548.28 2369 2561.86 2356.08 2569.31C2347.64 2574.19 2341.91 2575.22 2339.7 2575.06C2339.92 2573.48 2341.38 2569.59 2347.81 2560.07C2349.82 2557.1 2352.04 2553.86 2354.41 2550.39C2360.2 2541.95 2366.8 2532.39 2373.46 2521.67C2380.28 2510.41 2386.07 2499.87 2391.2 2490.57C2392.98 2487.33 2394.66 2484.29 2396.16 2481.54C2402.07 2471.09 2404.87 2468.12 2405.84 2467.37C2406.98 2469.03 2408.76 2474.66 2408.17 2484.72ZM2180.82 2617.89L2178.45 2620.81C2178.45 2620.81 2178.12 2621.19 2178.02 2621.36C2175.86 2622.82 2173.63 2624.33 2171.42 2625.79L2163.73 2628.87C2162.17 2629.52 2160.6 2630.11 2159.4 2630.45L2149.62 2633.53C2145.29 2634.72 2140.81 2635.9 2136.26 2636.71C2120.85 2639.79 2104.78 2640.82 2088.44 2639.69L2075.3 2638.76L2084.06 2648.66C2087.91 2652.99 2091.64 2657.16 2095.36 2661.15C2109.05 2675.65 2121.11 2687.12 2131.23 2695.24C2140.32 2702.49 2149.68 2708.32 2159.15 2712.59L2162.23 2713.95C2162.23 2713.95 2162.71 2714.17 2162.98 2714.27C2161.85 2714.49 2160.49 2714.6 2158.97 2714.7C2149.5 2715.25 2136.8 2711.78 2124.84 2705.57C2111.7 2698.75 2097.69 2688.69 2082.06 2674.84C2067.89 2662.07 2054.59 2647.35 2042.36 2631.13L2041.39 2629.83L2039.87 2629.29C2009.42 2618.2 1988.59 2599.92 1978.91 2590.02C1963.44 2574.43 1953.87 2560.42 1948.02 2551.23C1946.93 2549.51 1946.02 2547.93 1945.26 2546.63C1946.5 2547.56 1947.92 2548.69 1949.54 2549.99C1952.84 2552.6 1956.52 2555.78 1960.63 2559.3C1967.82 2565.47 1976.7 2573.09 1986.97 2580.82C2006.55 2595.86 2026.73 2606.09 2048.74 2612.2C2075.68 2619.77 2104.51 2620.91 2131.99 2615.44C2135.98 2614.75 2139.82 2613.72 2143.55 2612.73L2145.94 2612.09C2147.5 2611.54 2149.12 2611.06 2150.7 2610.63L2152.97 2610.04C2154.69 2609.61 2156.1 2608.46 2156.86 2606.9L2158.32 2605.28L2157.77 2604.47L2157.89 2604.25L2156.65 2601.76L2156.27 2601.11C2154.43 2598.46 2152.97 2596.07 2151.55 2593.76L2150.64 2592.18C2144.47 2581.8 2139.28 2571.79 2134.3 2562.1L2132.4 2558.48C2121.15 2536.19 2111.53 2518.56 2101.35 2504.87C2090.16 2489.18 2078.8 2479.02 2071.55 2472.74C2072.36 2473.01 2073.23 2473.29 2074.14 2473.61C2079.5 2475.61 2093.62 2481.99 2109.47 2497.84C2121.15 2509.26 2133.38 2525.76 2147.98 2549.77L2153 2557.99C2157.66 2565.73 2162.52 2573.68 2167.72 2581.63L2169.5 2584.24C2170.74 2586.02 2171.93 2587.81 2172.96 2589.22C2173.77 2590.29 2175.13 2592.09 2176.38 2593.37L2178.97 2596.03L2180.92 2596.19C2191.08 2597.1 2201.47 2599.16 2212.72 2602.46C2225.27 2606.09 2236.37 2610.58 2244.63 2614.04C2264.17 2622.1 2281.47 2631.47 2294.78 2641.25C2310.41 2652.55 2318.73 2662.56 2322.25 2667.49C2323.23 2668.84 2324.04 2670.02 2324.7 2671.05C2322.31 2669.81 2319.61 2668.24 2317.07 2666.78C2309.98 2662.73 2300.24 2657.15 2288.5 2651.64C2274.23 2644.82 2257.14 2638.11 2237.81 2631.84C2219.75 2625.89 2202 2620.36 2184 2618.15L2181.02 2617.77L2180.8 2617.87L2180.82 2617.89Z" fill="#BDBDBD"/>
<path d="M2652.24 1540.17L2648.78 1536.71L2037.37 2038.51L2035.75 2039.87L1986.42 2413.04L2815.22 1725.92L2819.49 1722.34L2815.81 1718.17C2759.17 1653.47 2707.74 1595.43 2652.17 1540.1L2652.23 1540.16L2652.24 1540.17Z" fill="#00FF3B"/>
<path d="M2012.49 2050.9L1591.06 2212.37L1540 2596.37L1962.19 2431.34L2012.49 2050.9Z" fill="#00FF3B"/>
<path d="M665.39 1395.25L661.6 1391.84L657.98 1395.46C582.03 1471.02 545.31 1574.39 559.8 1671.97C562.4 1689.34 566.51 1707.03 572.08 1724.55L572.51 1725.91L1511.33 2584.24L1518.96 2591.22L1569.81 2208.78L665.45 1395.29L665.4 1395.24L665.39 1395.25Z" fill="#00FF3B"/>
<path d="M875.32 2035.17C870.24 2036.3 865.31 2037.17 860.17 2037.82C839.29 2040.63 813 2039.88 782.01 2035.49C770.98 2033.87 759.51 2032.19 747.61 2030.51L736.85 2028.95L731.98 2028.3L725.98 2028.52V2033.93L726.25 2037.61L728.31 2038.58L736.86 2048.42C741.46 2053.78 746 2059.03 750.49 2064.17C762.82 2078.28 773.7 2089.8 783.76 2099.49C795.5 2110.79 806.37 2119.84 816.86 2126.98C826.49 2133.84 836.87 2139.53 849.64 2144.72C870.41 2152.88 889.07 2155.47 903.08 2156.83L907.89 2157.21C908.32 2157.21 908.7 2157.27 909.13 2157.31C907.4 2157.8 905.45 2158.29 903.18 2158.73C893.12 2160.73 872.29 2163.06 845.95 2156.34C832.26 2152.66 819.61 2147.42 808.41 2140.82C807.87 2140.49 807.33 2140.17 806.79 2139.79C806.14 2139.36 805.49 2138.98 804.84 2138.59L803.81 2138L802.67 2137.9C785.96 2136.06 768.65 2136 751.93 2135.89C729.97 2135.79 707.2 2135.73 685.56 2131.62C676.96 2130.11 667.87 2127.57 657.92 2123.78C647.64 2119.45 639.96 2115.34 633.63 2110.8C620.76 2101.93 609.29 2090.46 599.5 2076.73C586.46 2058.07 577.75 2037.72 572.83 2014.62C572.34 2012.03 571.91 2009.76 571.59 2007.64C572.56 2009.7 573.59 2011.87 574.62 2014.02L575.21 2015.22C581.81 2028.84 591.82 2049.41 609.07 2069.19C619.45 2080.93 630.65 2090.35 642.23 2097.21C648.67 2101.22 655.48 2104.03 664.14 2107.23C670.63 2109.17 679.34 2111.6 688.86 2112.8C706.33 2115.29 725.64 2115.23 745.49 2114.9L771.4 2114.52L761.61 2105.33C753.12 2097.38 744.09 2088.29 734.84 2078.28C728.94 2071.85 723.1 2065.36 717.21 2058.7C713.59 2054.71 710.02 2050.59 706.39 2046.53L704.87 2044.81C699.95 2039.18 693.78 2032.54 687.83 2026.1L672.68 2009.88L671.71 2009.07C667.11 2006.03 663.16 2003.22 659.54 2000.36C643.37 1987.87 629.14 1973.25 618.43 1958.17C606.75 1941.77 601.72 1929.77 599.77 1923.98C599.23 1922.36 598.8 1920.94 598.42 1919.71C600.85 1922.14 603.72 1925.22 606.53 1928.31C612.16 1934.36 619.08 1941.89 627.63 1950.17C643.32 1965.63 669.6 1987.48 705.63 2004.1L706.5 2004.48L709.42 2004.75C711.91 2004.91 714.4 2005.23 716.94 2005.56C718.29 2005.72 719.65 2005.88 720.94 2006.04C724.83 2006.47 728.62 2007.02 732.52 2007.56L739.88 2008.75C750.32 2010.53 760.27 2012.54 769.9 2014.48C774.99 2015.51 779.96 2016.49 784.78 2017.4C812.96 2023.13 835.9 2026.11 854.99 2026.49L869.32 2026.76L823.02 1984.4L821.45 1984.14C682.6 1960.39 560.83 1827.54 538.22 1675.11C521.29 1561.45 569.59 1440.72 664.25 1360.07C740.3 1295.27 843.24 1256.59 939.63 1256.59H960.56L942.82 1246.47C895.27 1219.37 810.78 1191.73 678.15 1213.69C673.39 1214.5 668.58 1215.37 663.76 1216.4L659.38 1217.32V1221.81C659.7 1236.96 660.08 1249.4 660.57 1261.08C660.73 1264.7 659.11 1268.11 656.19 1270.22C578.3 1327.4 438.79 1454.62 379.67 1663.74C349.76 1769.64 344.89 1884.1 365.55 1994.78C366.52 1999.86 363.71 2004.95 358.73 2006.84C357.59 2007.27 356.3 2007.55 354.89 2007.55C351.1 2007.55 347.64 2005.6 345.64 2002.35C304.48 1934.95 269.32 1864.04 241.24 1791.61L230.91 1764.94L230.8 1793.55C230.69 1820.49 231.94 1849 234.53 1878.32C248.32 2031.18 317.78 2167.27 429.96 2261.55C541.07 2354.86 684.46 2402.09 856.58 2402.09C867.56 2402.09 878.7 2401.87 889.95 2401.5C999.7 2397.71 1100.8 2373.74 1190.38 2330.3L1197.57 2326.84L877.89 2034.59L875.13 2035.18H875.29L875.32 2035.17ZM817.66 2192.68C817.66 2193.53 815.06 2196.79 806.95 2199.92C802.03 2201.87 788.67 2206.04 770.44 2203.77C754.11 2201.76 741.83 2194.68 735.66 2188.67C729.66 2182.82 728.74 2178.45 729.01 2177.64C729.5 2177.09 731.01 2176.87 732.85 2176.87C736.04 2176.87 740.21 2177.46 741.99 2177.68C744.48 2178.07 747.18 2178.49 750.05 2178.92C756.87 2180.01 764.6 2181.19 773.26 2182.28L778.56 2182.93C788.78 2184.23 798.41 2185.42 805.88 2187.26C816.27 2189.85 817.62 2192.56 817.67 2192.56V2192.68H817.66Z" fill="#BDBDBD"/>
<path d="M193.27 1179.1L291.39 1345.6L294.04 1331.43C307.24 1261.33 327.79 1190.47 355.05 1120.8L356.4 1117.34L166.48 946.41L119.91 1309.04L119.53 1311.8L157.5 1346.47L157.72 1334.51C159.56 1238.61 173.24 1182.62 173.41 1181.97C174.44 1177.64 177.9 1174.45 182.28 1173.8C186.66 1173.15 190.99 1175.21 193.21 1179.05L193.26 1179.1H193.27Z" fill="#00FF3B"/>
<path d="M368.1 1088.98C411 987.56 468.55 887.81 539.09 792.56L550.56 777.09L178.51 928.11L365.13 1096.01L368.11 1089.03V1088.98H368.1Z" fill="#00FF3B"/>
<path d="M335.64 1942.45L333.64 1916.54C326.93 1828.21 335.42 1741.16 358.96 1657.87C418.57 1446.8 558.45 1316.71 636.56 1257.97L638.83 1256.29L638.72 1253.48C635.96 1183.48 638.5 1112.79 646.19 1043.39C664.26 880.46 710.94 721.38 784.88 570.52L797.1 545.64L776.44 564.14C734.09 602 669.39 664.48 601.94 747.02C489.91 884.14 348.03 1105 308.11 1378.76C307.41 1383.3 303.94 1386.93 299.51 1387.85C294.97 1388.72 290.37 1386.66 288.04 1382.71L189.16 1214.81L187.1 1230.33C181.42 1273.12 175.85 1342.52 181.69 1430.04C189.53 1545.79 220.42 1724.63 323.46 1919.51L335.63 1942.51V1942.45H335.64Z" fill="#00FF3B"/>
<path d="M992.16 1282.58C891.44 1265.22 769.84 1300.81 682.48 1373.18L677.67 1377.18L1581.07 2189.85L1583.54 2192.08L2019.31 2025.14L2020.12 2024.82L2628.55 1525.44L2633.25 1521.6L2628.88 1517.37C2576.18 1466.86 2525.34 1424.93 2473.46 1389.23C2387.99 1330.38 2279.82 1318.37 2215.5 1332.05L2214.37 1332.32L1659.44 1743.69C1655.21 1746.77 1649.11 1746.3 1645.43 1742.78L944.94 1062.46C942.02 1059.65 940.94 1055.27 942.23 1051.37C943.47 1047.48 946.94 1044.61 950.99 1044.01L1227.08 1005.17L1228.05 1001.82C1245.9 941.4 1254.93 876.33 1254.93 808.49C1254.93 767 1251.47 724.49 1244.71 682.13C1243.52 674.56 1242.38 667.2 1241.3 659.95L1240.54 654.92L752.68 698.73L751.49 701.87C708.97 813.35 680.85 929.06 667.86 1045.79C662.67 1092.8 659.85 1140.88 659.53 1188.76V1195.25L668.73 1193.57C670.79 1193.19 672.84 1192.81 674.95 1192.49C907.54 1153.87 998.74 1260.54 1002.48 1265.08C1005.4 1268.6 1005.78 1273.46 1003.51 1277.41C1001.24 1281.3 996.75 1283.41 992.26 1282.66L992.15 1282.55L992.16 1282.58Z" fill="#00FF3B"/>
<path d="M1859.9 604.7C1865.75 655.6 1867.86 710.02 1866.24 766.38C1864.88 812.84 1860.77 861.15 1853.89 909.83L1852.92 916.91L1878.89 913.29L1879.86 912.69C1880.29 912.42 1880.73 912.1 1881.22 911.72C1975.6 848.43 2085.41 803.21 2198.78 780.82C2344.02 752.21 2496.83 760.75 2640.62 805.54L2641.75 805.92L2844.38 777.41C2848.17 776.87 2851.89 778.33 2854.28 781.3L2885.86 820.35C2887.71 822.62 2888.57 825.6 2888.19 828.57C2887.81 831.49 2886.29 834.09 2883.92 835.87L2820.09 883.2L2827.23 887.31C2913.78 937.24 2990.38 1000.09 3054.91 1074.09C3069.62 1090.91 3084.71 1109.3 3101.21 1130.24L3104.61 1134.57L3471.3 833.66L3126.52 485.47L1859.3 599.23L1859.95 604.75L1859.89 604.7H1859.9Z" fill="#00FF3B"/>
<path d="M1855.79 572.73L1856.56 577.76L2256.35 541.9L2259.71 541.58L2260.95 538.44C2267.22 522.54 2272.47 505.12 2276.58 486.73C2279.98 471.8 2282.9 456.55 2285.28 441.4L2286.37 434.58L2279.5 435.18C2272.31 435.77 2265.98 436.53 2260.25 437.45C2233.26 441.67 2207.07 449.67 2184.47 460.49C2161.37 471.47 2145.15 483.21 2134.43 491C2134 491.33 2133.56 491.65 2133.13 491.97C2134.22 490.46 2135.4 488.83 2136.71 487.1C2142.77 479.2 2156.23 463.95 2178.63 449.94C2194 439.99 2220.01 426.47 2256.86 418.68C2264.86 417 2273.03 415.7 2281.15 414.79L2288.66 414.03C2289.69 413.92 2290.72 413.81 2290.99 413.76C2291.53 413.76 2292.12 413.65 2292.5 413.49C2295.11 412.9 2298.13 411.65 2301 410.03C2306.63 406.89 2312.52 402.08 2319.67 395.86C2325.78 390.56 2332.32 384.83 2339.08 378.61C2350.93 367.57 2363.05 355.4 2375.22 342.37C2380.84 336.31 2386.36 330.25 2391.72 324.3L2392.57 323.33C2396.42 319 2400.41 314.57 2404.96 310.19L2412.65 302.83L2402.16 300.99C2376.25 296.39 2351.97 293.96 2329.95 293.8C2310.03 293.58 2291.16 295.1 2273.42 298.4C2257.09 301.54 2241.35 306.46 2226.53 313C2200.84 324.47 2182.44 338.96 2166.32 352.97C2164.26 354.81 2162.38 356.54 2160.65 358.11C2161.89 356.16 2163.3 354.05 2164.92 351.78C2179.8 331.55 2198.63 314.89 2220.9 302.28C2235.84 293.9 2252.34 287.3 2269.86 282.7C2288.46 278.05 2308.63 275.4 2329.74 274.75C2367.17 273.61 2408.82 278.81 2453.33 290.11L2454.26 290.33L2455.17 290.22C2468.11 289.03 2481.19 288.92 2493.96 289.95C2513.48 291.57 2531.88 295.25 2548.66 300.98C2550.76 301.74 2552.6 302.39 2554.22 303.04C2552.5 303.04 2550.54 302.93 2548.27 302.82C2545.62 302.71 2542.81 302.6 2539.73 302.5C2527.34 301.96 2511.93 301.31 2493.75 302.07C2480.45 302.72 2468.38 304.07 2457.03 306.18C2454.58 306.61 2452.15 307.15 2449.62 307.7L2446.86 308.35C2445.83 308.62 2444.65 308.94 2443.5 309.22C2441.23 309.81 2439.07 310.36 2437.45 311C2431.66 313.06 2426.84 316.08 2421.76 320.84C2417.16 325.17 2412.67 330.63 2407.42 336.96L2406.94 337.55C2401.8 343.77 2396.29 350.15 2390.66 356.54C2378.27 370.5 2366.21 382.94 2353.71 394.51C2347.76 400.08 2341 406.03 2333.59 412.25C2327.37 417.5 2320.29 423.5 2311.36 428.32L2308.99 429.62L2308.6 432.33C2305.73 452.13 2301.19 472.14 2295.14 491.78C2290.87 505.9 2285.56 519.31 2279.35 531.7L2274.96 540.41L2870.07 486.97L2869.81 481.78C2862.78 348.98 2797.17 254.65 2674.81 201.47C2580.91 160.58 2485.65 160.04 2480.56 160.04H2479.91C2212.86 150.74 1977.02 303.82 1826.21 433.91L1823.46 436.29L1824.59 439.7C1838.33 481.08 1848.88 525.87 1855.91 572.93L1855.85 572.77L1855.79 572.73ZM2467.25 437.44C2470.27 436.2 2475.2 434.74 2479.74 433.44C2483.63 432.3 2488.02 431.01 2492.78 429.44C2503.97 425.76 2514.36 421.71 2524.52 416.89C2536.53 411.16 2548.86 404.29 2561.15 396.5C2575.7 387.2 2587 379.3 2595.76 372.38C2605.18 365.13 2613.46 357.5 2620.38 349.71C2626.11 343.33 2630.06 337.27 2632.99 332.83C2633.9 331.42 2634.99 329.8 2635.9 328.5C2636.07 329.37 2636.23 330.45 2636.33 331.75C2636.94 338.46 2634.93 347.49 2630.93 355.98C2626.17 366.15 2618.21 377.02 2608.52 386.6C2598.68 396.39 2586.94 405.59 2572.71 414.78C2559.29 423.33 2545.02 430.2 2531.45 434.69C2518.84 438.86 2506.08 441.23 2494.61 441.56C2480.27 441.94 2471.35 439.4 2467.24 437.45L2467.25 437.44Z" fill="#BDBDBD"/>
<path d="M1236.38 627.74C1234.43 614.16 1232.7 601.83 1231.24 591.39C1230.32 584.47 1228.16 568.13 1228.43 560.23C1231.73 564.34 1237.08 573.16 1243.09 588.3C1247.47 599.12 1251.74 612.59 1255.75 628.33C1259.7 643.91 1263.16 660.84 1265.97 678.58C1299.07 884.72 1251.36 1084.49 1138.37 1212.96L1134.96 1216.8L1538.66 1608.8L1538.11 1595.28C1533.09 1468.59 1553.8 1350.46 1599.78 1244.06C1647.48 1133.66 1724.89 1033.43 1823.61 954.24L1825.17 952.94L1825.55 950.94C1836.54 887.87 1842.98 825.56 1844.7 765.78C1858.49 281.55 1594.68 132.04 1436.57 120.03C1325.85 111.75 1204.09 152.97 1110.99 230.38C995.72 326.18 925.02 473.52 906.41 656.63L905.76 663.17L1237.24 633.42L1236.43 627.79L1236.38 627.74ZM1439.22 629.42C1453.23 610.65 1465.14 592.53 1474.49 575.6C1478.82 567.87 1482.61 560.62 1486.01 554.23C1489.53 547.52 1492.61 541.68 1495.32 537.08C1496.29 535.4 1497.16 534 1497.91 532.81C1497.75 534.22 1497.53 535.84 1497.22 537.73C1494.89 551.52 1490.94 565.97 1485.58 580.68C1478.72 599.4 1468.11 619.95 1454.97 640.24L1452.26 644.41C1450.96 646.25 1449.67 648.09 1448.37 649.98L1447.4 651.39C1445.88 653.5 1444.32 655.72 1442.86 657.88L1437.72 665.07C1434.9 668.91 1432.09 672.8 1429.22 676.7C1428.35 675.46 1427.44 674.27 1426.57 673.02C1425.6 671.72 1424.68 670.42 1423.7 669.13C1422.4 667.29 1421.05 665.4 1419.64 663.56C1417.15 660.1 1414.61 656.64 1412.34 653.28L1403.96 640.78C1399.9 634.61 1396.12 628.39 1392.65 622.33C1378.26 597.45 1367.17 571.16 1360.52 546.17C1354.41 523.61 1351.49 500.46 1351.97 479.21C1352.46 457.52 1356.41 442.16 1358.73 435.02C1359.32 433.24 1359.92 431.67 1360.46 430.37C1360.62 432.91 1360.73 435.83 1360.89 438.65C1361.38 448.71 1361.97 462.45 1364.13 478.62C1366.94 499.55 1371.87 520.38 1378.74 540.66C1386.53 563.7 1397.51 587.56 1411.36 611.57C1414.88 617.68 1418.5 623.69 1422.02 629.2L1424.08 632.5L1424.57 633.47C1425 634.82 1425.81 635.96 1427 636.66L1429.76 638.23L1431.33 637.47H1432.85L1439.13 629.52L1439.23 629.41L1439.22 629.42ZM1435.06 632.55L1435.17 631.52C1435.17 631.84 1435.17 632.22 1435.06 632.55ZM1582.25 788.07C1583.76 790.88 1585.22 793.75 1586.68 796.62L1588.89 800.95C1597.55 818.48 1604.8 835.68 1610.43 852.12C1621.36 883.76 1627.15 915.79 1627.09 944.72C1627.09 968.36 1622.01 991.24 1613.4 1005.95C1612.17 1008.11 1610.93 1009.95 1609.78 1011.58C1610.37 1009.63 1610.97 1007.52 1611.56 1005.25C1614.27 995.41 1618.22 974.47 1614.92 945.21C1611.95 917.79 1604.15 887.82 1592.53 858.61C1586.42 843.19 1578.9 826.97 1570.18 810.31C1569.33 808.74 1568.52 807.17 1567.65 805.6C1566.29 803.06 1564.94 800.52 1563.54 798.08L1560.12 791.91C1559.47 790.72 1559.21 790.34 1559.21 790.34L1559.25 790.45L1558.87 789.91C1558.39 789.1 1557.68 788.18 1556.55 787.53L1548.53 783.15V790.18L1546.21 792.72C1543.01 796.29 1539.83 799.91 1536.85 803.54C1530.68 810.79 1524.85 818.41 1519.38 825.55C1508.94 839.61 1498.99 854.49 1489.74 869.8C1481.52 883.32 1473.67 897.6 1466.38 912.15C1458.8 927.35 1453.5 939.58 1449.66 950.5C1439.49 978.79 1437.05 1001.78 1435.69 1016.33C1435.27 1014.38 1434.83 1012.22 1434.4 1009.79C1431.42 992.37 1432.67 969.54 1437.92 947.15C1440.73 934.98 1445.37 920.97 1451.71 905.55C1452.78 902.79 1454.03 899.92 1455.27 897.11L1456.3 894.84L1455.27 892.57C1446.95 874.45 1440.67 857.14 1436.56 841.08C1431.75 822.74 1429.26 804.57 1429.37 788.56C1429.42 769.3 1432.56 756.43 1435.16 749.78C1435.81 753.24 1436.52 757.73 1437.16 761.9C1438.19 768.88 1439.55 777.64 1441.49 787.38C1445.38 808.37 1453.18 833.09 1463.9 858.94L1468.23 869.38L1473.63 859.43C1482.34 843.42 1492.03 827.84 1502.46 813.18C1509.02 803.98 1514.69 796.57 1520.42 789.7C1523.34 786.02 1526.43 782.51 1530.16 778.23L1553.9 753.51L1554.17 751.78C1557.25 733.17 1558.44 716.51 1559.37 703.15C1560.02 694.44 1560.67 684.76 1561.8 679.89C1564.39 683.57 1568.3 691.9 1571.38 705.69C1573.75 716.4 1577.11 738.69 1572.57 768.11L1572.29 769.95L1582.25 787.69V788.07ZM1653.16 561.69C1656.46 564.4 1662.21 570.94 1669.12 583.11C1674.26 591.98 1679.18 603.18 1683.45 615.51C1688.11 629.36 1691.51 643.69 1693.68 658.08C1695.74 672.58 1696.49 687.34 1695.89 701.84C1695.3 714.77 1693.68 726.94 1691.35 737C1688.11 750.63 1684.43 758.53 1682.1 762.05C1680.36 755.88 1679.45 740.9 1678.58 727.43C1677.44 708.98 1676.03 685.99 1672.26 661.28C1668.84 636.45 1663.71 614 1659.6 595.99C1656.58 582.85 1653.27 568.19 1653.16 561.75V561.7V561.69Z" fill="#BDBDBD"/>
<path d="M792.29 1359.6C752.15 1359.6 716.99 1363.66 686.49 1369.93C685.14 1371.01 683.78 1372.09 682.49 1373.18L677.68 1377.18L772.67 1462.64C804.64 1449.93 901.84 1414.55 1009.75 1407.79C1009.75 1407.79 965.72 1359.65 792.35 1359.65L792.3 1359.6H792.29Z" fill="black"/>
<path d="M754.85 1475.75L665.33 1395.26L661.54 1391.85L657.92 1395.47C581.97 1471.03 545.25 1574.4 559.74 1671.98C562.34 1689.35 566.45 1707.04 572.02 1724.56L572.45 1725.92L632.66 1780.92C643.91 1734.52 688.27 1565.26 754.91 1475.79L754.86 1475.75H754.85Z" fill="black"/>
<path d="M2720.4 2251.42C2701.14 2145.62 2644.67 2042.09 2565.47 1967.33L2562.01 1964.03L2433.22 2070.82C2585.54 2172.61 2648.01 2378.05 2563.37 2551.53C2503.1 2675.08 2383.29 2745.77 2253.36 2776.44C2416.35 2773.04 2561.47 2705.48 2646.29 2586.85C2716.82 2488.18 2742.47 2372.22 2720.5 2251.38L2720.4 2251.42Z" fill="white"/>
<path d="M3480.49 1032.46L3473.46 1028.46L3448.32 1225.46C3447.93 1228.17 3446.58 1230.71 3444.47 1232.44L3277.65 1370.7L3281.5 1374.92C3287.55 1381.52 3293.77 1387.74 3299.94 1393.69C3370.74 1347.01 3465.95 1304.49 3560.45 1324.51C3560.45 1324.51 3668.25 1397.59 3666.9 1553.91C3666.41 1609.68 3654.79 1682.22 3618.21 1750.69C3626.71 1744.47 3635.09 1737.82 3643.37 1730.85C3648.57 1726.46 3653.21 1722.41 3657.44 1718.78C3663.17 1713.8 3669.02 1708.72 3673.17 1705.58C3670.64 1712.24 3664.51 1723.87 3652.18 1739.39C3643.96 1749.78 3624.12 1772.17 3592.03 1792.84C3573.97 1817.82 3551.89 1841.63 3525.08 1863.09C3519.39 1869.59 3513.39 1875.6 3507.22 1880.73C3498.19 1888.36 3488.29 1894.15 3480.66 1896.14C3479.31 1896.52 3478.07 1896.79 3477.1 1896.89C3477.97 1895.98 3478.82 1895.11 3479.59 1894.3C3415.21 1932 3329.96 1957.8 3217.68 1962.4C3231.91 1964.89 3246.4 1966.79 3261.33 1967.91C3274.53 1968.94 3287.61 1969.43 3300.54 1969.43C3522.04 1969.43 3711.69 1823.91 3759.57 1611.56C3811.28 1381.99 3704.34 1160.05 3480.5 1032.45L3480.49 1032.46Z" fill="white"/>
<path d="M3126.94 1200.2C3098.92 1161.9 3069.77 1124.04 3038.61 1088.28C2834.85 854.44 2506.84 742.09 2202.95 802.08C2125.49 817.33 2049.76 843.62 1979.65 879.22C1948.6 922.6 1918.53 983.89 1912.85 1062.59C1913.66 1061.83 1914.41 1061.07 1915.22 1060.37C1918.2 1057.56 1921.28 1054.96 1924.15 1052.58C1934.8 1043.92 1946.54 1036.08 1961.14 1027.86C1971.75 1021.91 1982.89 1016.23 1996.3 1009.96C2006.91 1004.93 2017.56 1000.44 2027.9 996.6C2053.06 987.3 2070.58 983.4 2080.58 982.1C2074.57 985.62 2065.92 990.16 2056.94 994.87C2049.8 998.6 2041.74 1002.88 2032.93 1007.64C2022.97 1013.05 2013.13 1018.62 2003.77 1024.14L2000.15 1026.3C1990.68 1031.92 1980.94 1037.71 1970.99 1044.15C1957.04 1053.18 1946.76 1060.76 1937.61 1068.71C1934.96 1071.04 1932.25 1073.47 1929.88 1075.8C1928.48 1077.1 1927.23 1078.4 1925.99 1079.69L1921.5 1084.34H1918.42V1087.42L1918.14 1087.69V1092.61L1921.38 1095.75H1922.41L1922.96 1095.97L1932.53 1095.65C1943.3 1095.54 1953.42 1095.87 1963.14 1096.24L1969.96 1096.46C1983.54 1096.95 1993.55 1097 2002.48 1096.62C2011.24 1096.3 2020.38 1095.43 2030.44 1094.08C2044.83 1092.08 2057 1089.48 2065.87 1087.64C2068.19 1087.15 2070.52 1086.67 2072.73 1086.23C2072.14 1086.66 2071.44 1087.1 2070.73 1087.58C2064.88 1091.37 2052.17 1098.56 2032.75 1104.4C2023.4 1107.27 2013.72 1109.48 2003.98 1111C1994.14 1112.57 1982.72 1113.6 1970.01 1114.08C1965.84 1114.3 1961.69 1114.4 1957.52 1114.57C1942.92 1115.11 1927.82 1115.71 1912.94 1117.65C1915.17 1147.67 1920.94 1179.8 1931.34 1213.99C1940.91 1202.25 1949.78 1192.78 1956.71 1185.97C1971.42 1170.99 1984.4 1160.06 1994.3 1154.33C1996.09 1153.3 1997.66 1152.44 1999.12 1151.79C1998.69 1152.28 1998.25 1152.76 1997.88 1153.25L1995.61 1155.9C1990.25 1162.01 1983.54 1170.45 1974.88 1181.92C2016 1138.7 2090.54 1077.31 2200.83 1048.69C2212.13 1036.36 2224.8 1025.16 2238.75 1015.37C2265.37 996.44 2294.73 982.05 2328.49 971.45C2357 962.53 2379.49 959.12 2393.46 957.82C2395.89 957.6 2398.11 957.44 2400.06 957.28C2397.57 958.2 2395.3 959.01 2393.78 959.55L2387.46 961.77C2373.51 966.64 2354.46 973.29 2332.66 982.7C2300.37 996.76 2273.32 1012.4 2250.12 1030.52C2245.89 1033.77 2241.84 1037.17 2237.89 1040.63C2288.68 1031.65 2346.14 1029.7 2410.5 1038.95C2530.85 1056.26 2626.06 1095.64 2705.89 1149.13C2706.16 1149.13 2706.48 1149.18 2706.76 1149.24L2708.6 1149.46C2711.25 1149.73 2713.96 1150.05 2716.88 1150.76C2729.8 1153.25 2744.19 1158.87 2757.51 1166.72C2771.9 1175.05 2786.12 1186.9 2798.72 1200.85C2810.41 1213.67 2820.69 1228.22 2829.39 1244.07C2832.86 1250.29 2835.77 1256.4 2838.32 1262.35C2908.04 1335.75 2966.85 1420.03 3026.94 1505.33C3026.94 1505.33 3030.08 1202.03 3126.95 1200.36V1200.2H3126.94Z" fill="white"/>
<path d="M1436.52 120.03C1325.8 111.75 1204.04 152.97 1110.95 230.38C995.68 326.18 924.98 473.52 906.37 656.63L905.72 663.17L993.02 655.33C1004.76 467.79 1110.13 321.04 1238.44 321.04C1335.21 321.04 1418.89 404.56 1459.24 526.05C1493.05 502.19 1532.1 482.13 1575.16 467.47C1656.02 440.05 1737.22 436.47 1805.87 452.81C1728.47 213.24 1553.52 128.96 1436.52 120.09V120.04V120.03Z" fill="white"/>
<path d="M2674.69 201.23C2580.79 160.34 2485.53 159.79 2480.44 159.79H2479.8C2212.75 150.49 1976.9 303.57 1826.09 433.66L1823.34 436.04L1824.47 439.45C1838.22 480.83 1848.76 525.62 1855.79 572.68L1856.54 577.71L1997.08 565.11C2055.77 478.02 2159.68 359.51 2320.55 293.68C2304.05 293.95 2288.26 295.41 2273.28 298.17C2256.94 301.31 2241.19 306.23 2226.37 312.78C2200.68 324.25 2182.28 338.74 2166.17 352.75C2164.11 354.59 2162.22 356.32 2160.48 357.89C2161.72 355.94 2163.13 353.83 2164.76 351.56C2179.62 331.33 2198.45 314.67 2220.74 302.07C2235.66 293.69 2252.16 287.09 2269.69 282.49C2288.3 277.84 2308.48 275.19 2329.57 274.54C2342.65 274.16 2356.35 274.54 2370.41 275.68C2425.31 258.32 2486.05 247.12 2553.18 244.96C2652.06 241.72 2732.12 259.02 2796.97 287.91C2765.92 252.16 2725.14 223.22 2674.73 201.26H2674.67L2674.69 201.23Z" fill="white"/>
<path d="M1197.76 2326.88L1043.38 2185.75C938.6 2268.08 776 2302.22 607.51 2264.46C467.14 2232.98 351.76 2158.12 282.69 2065.07C316.44 2141.03 366.37 2208.04 430.09 2261.59C541.19 2354.9 684.59 2402.11 856.71 2402.11C867.69 2402.11 878.83 2401.89 890.08 2401.52C999.83 2397.74 1100.93 2373.77 1190.51 2330.34L1197.7 2326.88H1197.75H1197.76Z" fill="white"/>
<path d="M2569.91 1929.36L2815.21 1725.96L2819.48 1722.4L2815.8 1718.23C2759.16 1653.53 2707.73 1595.49 2652.18 1540.16L2648.72 1536.7L2620.7 1559.74C2621.94 1598.25 2621.35 1640.17 2617.68 1685.01C2609.94 1780.43 2590.79 1862.82 2569.86 1929.35H2569.92L2569.91 1929.36Z" fill="black"/>
<path d="M2633.21 1521.56L2628.82 1517.35C2576.14 1466.82 2525.29 1424.9 2473.42 1389.2C2387.95 1330.35 2279.76 1318.34 2215.44 1332.03L2214.31 1332.3L2149.45 1380.39C2216.64 1396.29 2295.76 1420.42 2381.23 1458.02C2459.4 1492.37 2525.44 1530.34 2579.37 1565.88L2628.54 1525.53L2633.24 1521.69L2633.2 1521.57L2633.21 1521.56Z" fill="black"/>
<path d="M3482.29 1002.54L3503.44 836.48C3504.09 831.56 3502.41 826.58 3498.9 823.01L3142.17 462.81C3138.75 459.35 3133.99 457.62 3129.19 458.05L2896.7 478.93C2886.64 300.53 2776.67 215.83 2684.55 176.02C2585.29 133.12 2488.26 132.42 2480.41 132.75C2210.97 123.66 1974.21 272.25 1817.84 405.16C1730.42 182.19 1556.68 102.03 1438.6 93.1C1321.16 84.17 1192.15 127.77 1093.65 209.61C1007.97 280.85 902 416.57 878.96 660.09L769.86 669.93C792.04 616 817.62 562.94 846.67 510.95C850.4 504.3 848.94 495.91 843.21 490.88C837.48 485.79 828.98 485.47 822.82 490.01C818.11 493.53 705.55 577.64 581.73 729.04C579.24 732.07 576.75 735.21 574.21 738.29L152.35 909.55C146.94 911.71 143.1 916.69 142.34 922.48L92.1399 1313.94C91.4399 1319.19 93.3799 1324.43 97.2799 1328L152.45 1378.47C152.83 1394.91 153.53 1412.22 154.72 1430.34C159.7 1505.75 173.92 1603.17 208.11 1712.71C202.7 1765.77 202.54 1822.29 207.84 1880.72C222.23 2040.73 295.04 2183.36 412.79 2282.29C528.93 2379.83 678 2429.15 856.51 2429.15C867.92 2429.15 879.44 2428.93 891.13 2428.56C1009.54 2424.45 1118.05 2397.62 1213.9 2348.94L1515.95 2625.08C1518.97 2627.89 1522.93 2629.35 1526.88 2629.35C1528.88 2629.35 1530.87 2628.97 1532.83 2628.21L1716.85 2556.28C1803.5 2667.65 1936.52 2750.89 2084.09 2785.35C2136.4 2797.58 2189.02 2803.69 2240.68 2803.69C2297.26 2803.69 2352.71 2796.34 2405.29 2781.73C2515.42 2751.1 2606.34 2689.17 2668.23 2602.63C2764.67 2467.72 2763.1 2330.16 2744.82 2238.53C2723.28 2130.34 2666.05 2026.43 2586.91 1950.43L2833.25 1746.18C2930.18 1855.66 3065.58 1979.97 3259.28 1994.89C3272.64 1995.92 3286.06 1996.41 3299.42 1996.41C3405.12 1996.41 3508.32 1964.28 3593.68 1904.18C3691.54 1835.31 3759.85 1733.46 3785.98 1617.49C3841.75 1370.13 3725.39 1135.48 3482.31 1002.52L3482.29 1002.54ZM3124.47 491.05L3463.3 833.24L3105.48 1126.9C3090.44 1107.75 3075.03 1088.87 3059.02 1070.54C2993.99 995.95 2916.43 932.5 2829.99 882.62L2887.22 840.21C2890.79 837.56 2893.11 833.61 2893.66 829.23C2894.2 824.85 2892.95 820.41 2890.14 816.95L2858.54 777.9C2854.98 773.47 2849.35 771.25 2843.66 772.06L2642.23 800.4C2497.32 755.23 2344.33 746.63 2197.75 775.52C2083.73 798.02 1973.22 843.57 1878.23 907.23C1877.85 907.5 1877.48 907.82 1877.04 908.1L1859.3 910.59C1866.18 861.74 1870.34 813.49 1871.69 766.54C1873.37 707.8 1870.98 653.76 1865.31 604.1L3124.47 491.05ZM3466.1 872.89L3422.35 1215.67L3264.56 1346.46C3259.1 1339.59 3253.69 1332.5 3248.45 1325.04C3237.52 1309.57 3226.64 1293.99 3215.77 1278.47C3186.62 1236.76 3156.82 1194.19 3125.28 1152.65L3466.1 872.89ZM2798.73 865.42C2769.46 850 2739.27 836.16 2708.34 823.88L2839.12 805.49L2854.27 824.21L2798.72 865.43L2798.73 865.42ZM2479.58 165.2H2480.33C2481.42 165.2 2577.42 164.82 2672.52 206.2C2792.93 258.56 2857.35 351.22 2864.27 481.85L2284.02 533.94C2290.03 521.99 2295.6 508.25 2300.14 493.15C2305.71 475.08 2310.63 454.53 2313.77 432.95C2323.02 427.92 2330.27 421.86 2336.91 416.24C2343.51 410.72 2350.6 404.56 2357.26 398.33C2370.78 385.78 2383.17 372.85 2394.57 359.98C2400.26 353.54 2405.71 347.16 2410.97 340.83C2416.21 334.45 2420.81 328.82 2425.3 324.6C2429.79 320.38 2434.07 317.68 2439.09 315.89C2441.36 315.02 2445.15 314.21 2448.18 313.35C2451.42 312.65 2454.62 311.89 2457.76 311.35C2470.41 308.97 2482.58 307.83 2493.83 307.29C2516.34 306.32 2534.95 307.61 2547.93 308.05C2560.96 308.59 2568.48 308.37 2569.02 306.16C2569.51 304.05 2563.01 300.1 2550.31 295.67C2537.6 291.34 2518.67 286.37 2494.27 284.36C2482.27 283.39 2468.9 283.28 2454.51 284.63C2411.51 273.7 2368.88 267.91 2329.4 269.11C2307.82 269.76 2287.27 272.52 2268.38 277.22C2249.56 282.14 2232.57 289.17 2218.08 297.34C2189.07 313.78 2171.07 333.85 2160.42 348.35C2149.87 363.12 2146.51 372.69 2148.25 373.88C2150.19 375.23 2157.06 368.15 2169.77 356.79C2182.54 345.7 2201.64 329.74 2228.58 317.74C2241.94 311.84 2257.24 306.81 2274.29 303.51C2291.33 300.37 2309.98 298.8 2329.72 299.02C2352.34 299.24 2376.35 301.78 2401.07 306.16C2395.99 311.03 2391.6 316 2387.49 320.6C2382.13 326.55 2376.66 332.55 2371.05 338.61C2359.79 350.67 2347.83 362.79 2335.18 374.58C2328.74 380.53 2322.52 385.99 2315.92 391.73C2309.49 397.36 2303.59 402.22 2298.19 405.25C2295.53 406.77 2293.05 407.74 2291.16 408.17C2290.61 408.33 2290.23 408.28 2289.8 408.39C2289.32 408.5 2287.8 408.61 2286.88 408.71C2284.72 408.93 2282.57 409.14 2280.45 409.36C2271.9 410.33 2263.62 411.69 2255.61 413.36C2223.65 420.12 2196.22 431.97 2175.56 445.38C2154.63 458.47 2140.56 473.02 2132.28 483.79C2130.22 486.55 2128.44 488.98 2127.04 491.2C2125.68 493.53 2124.65 495.47 2123.9 497.15C2122.38 500.5 2122.06 502.56 2122.93 503.26C2126.82 506.61 2146.29 484.6 2186.7 465.4C2206.77 455.77 2232.09 447.33 2261.02 442.79C2267.13 441.82 2273.47 441.11 2279.89 440.57C2277.4 456.26 2274.49 471.24 2271.23 485.52C2266.86 504.99 2261.45 522.14 2255.82 536.47L1861.11 571.9C1853.76 522.68 1842.99 478.11 1829.57 437.75C1981.47 306.69 2215.15 155.93 2479.55 165.18L2479.58 165.2ZM1114.41 234.54C1206.58 157.95 1326.88 117.27 1436.14 125.44C1592.31 137.29 1852.92 285.44 1839.24 765.62C1837.56 825.34 1831.12 887.38 1820.19 950.02C1720.61 1029.91 1643.31 1129.66 1594.79 1241.9C1548.37 1349.33 1527.6 1468.12 1532.68 1595.5L1142.41 1216.53C1256.87 1086.44 1305.01 887.6 1271.31 677.72C1268.44 659.71 1264.93 642.51 1260.98 626.98C1257.03 611.46 1252.7 597.61 1248.11 586.25C1239.08 563.48 1229.93 550.82 1225.82 552.33C1221.49 553.85 1222.79 568.83 1225.87 592.09C1227.33 602.58 1229.06 614.92 1231.01 628.49L911.76 657.16C930.21 475.41 1000.04 329.58 1114.39 234.54H1114.41ZM1119.17 1193.87L987.51 1066.05L1211.45 1034.51C1189.65 1094.71 1158.6 1148.75 1119.17 1193.87ZM1235.84 660.63C1236.92 667.88 1238.06 675.29 1239.25 682.86C1246.07 725.38 1249.42 767.35 1249.42 808.35C1249.42 875.86 1240.33 940.61 1222.75 1000.16L950.13 1038.51C944.02 1039.38 938.88 1043.65 936.99 1049.54C935.04 1055.44 936.67 1061.93 941.1 1066.2L1641.6 1746.51C1644.73 1749.55 1648.84 1751.11 1652.95 1751.11C1656.31 1751.11 1659.72 1750.02 1662.59 1747.93L2216.6 1337.26C2282.43 1323.25 2388.78 1337.48 2470.35 1393.62C2526.44 1432.19 2577.12 1475.19 2625.1 1521.23L2017.38 2020.06L1584.69 2185.8L685.95 1377.29C772.28 1305.78 891.5 1270.73 991.25 1287.88C997.96 1289.07 1004.66 1285.88 1008.07 1280.04C1011.48 1274.14 1010.88 1266.79 1006.55 1261.54C1002.71 1256.89 909.56 1147.89 673.94 1187.06C670.91 1187.55 667.88 1188.14 664.85 1188.68C665.17 1140.97 667.93 1093.31 673.13 1046.26C686.11 929.31 714.08 814.69 756.43 703.69L1235.85 660.63H1235.84ZM534.76 789.31C475.2 869.74 412.51 970.14 363.13 1086.87L188.57 929.84L534.76 789.31ZM181.59 1168.5C175.05 1169.47 169.74 1174.34 168.23 1180.78C167.47 1183.81 154.17 1240.66 152.38 1334.46L125.33 1309.74L170.61 957.33L350.09 1118.85C324.29 1184.74 302.92 1255.49 288.8 1330.46L197.98 1176.35C194.63 1170.62 188.14 1167.53 181.59 1168.51V1168.5ZM187.16 1429.6C181.26 1341.81 187 1272.41 192.52 1230.97L283.45 1385.35C286.97 1391.25 293.84 1394.33 300.6 1393.03C307.31 1391.68 312.5 1386.21 313.53 1379.45C353.29 1106.93 494.63 886.89 606.22 750.31C672.1 669.71 735.61 607.83 780.12 568.02C705.85 719.48 659.06 878.78 640.89 1042.68C633.15 1112.3 630.61 1183.16 633.37 1253.58C551.58 1315.14 413.38 1445.55 353.82 1656.34C330.18 1740.03 321.58 1828.79 328.29 1916.91C226.97 1725.21 195.22 1548.98 187.16 1429.59V1429.6ZM889.98 2396.12C704.39 2402.5 550.88 2355.87 433.66 2257.42C322.5 2164.07 253.8 2029.26 240.12 1877.86C237.58 1849.19 236.28 1821.01 236.39 1793.58C262.68 1861.36 296.86 1932.6 341.22 2005.18C344.25 2010.16 349.55 2012.97 355.07 2012.97C357.02 2012.97 359.02 2012.65 360.91 2011.9C368.21 2009.08 372.49 2001.45 371.03 1993.78C350.53 1884.03 355.34 1770.38 385.04 1665.22C443.73 1457.57 582.21 1331.37 659.56 1274.57C663.94 1271.38 666.43 1266.19 666.16 1260.78C665.57 1247.74 665.24 1234.71 665.02 1221.67C669.78 1220.7 674.54 1219.83 679.25 1219.02C812.05 1197 895.56 1225.62 940.35 1251.15H939.81C843.31 1251.15 738.86 1289.5 660.91 1355.93C564.84 1437.77 515.83 1560.39 533.04 1675.89C556.14 1831.51 679.36 1965.27 820.7 1989.46L855.26 2021.04C835.41 2020.66 812.26 2017.42 786.02 2012.07C771.9 2009.36 756.92 2006.12 740.91 2003.36C738.42 2002.98 735.93 2002.55 733.45 2002.17C729.5 2001.58 725.61 2001.03 721.66 2000.61C717.77 2000.18 713.76 1999.57 709.92 1999.31C709.27 1999.25 708.68 1999.19 708.03 1999.15C675.52 1984.21 649.39 1963.88 631.54 1946.29C609.09 1924.55 597.52 1907.89 593.19 1910.11C591.24 1911.08 591.62 1916.65 594.76 1925.74C597.84 1934.83 604.12 1947.28 614.12 1961.27C624.07 1975.28 638.14 1990.54 656.31 2004.6C660.26 2007.68 664.48 2010.66 668.81 2013.53C673.46 2018.51 678.06 2023.43 682.77 2028.45C689.1 2035.27 695.7 2042.36 700.89 2048.31C705.06 2053.01 709.17 2057.66 713.28 2062.26C719.18 2068.92 725.07 2075.46 730.97 2081.9C739.84 2091.47 748.88 2100.66 758.02 2109.21C753.8 2109.27 749.58 2109.37 745.52 2109.43C725.34 2109.75 706.63 2109.81 689.7 2107.37C681.21 2106.28 673.31 2104.23 665.79 2101.96C658.43 2099.25 651.46 2096.45 645.18 2092.55C632.41 2085.02 621.87 2075.34 613.21 2065.56C595.95 2045.76 586.33 2025.48 579.56 2011.57C572.96 1997.56 569.12 1989.45 566.85 1989.99C564.79 1990.53 564.42 1999.56 567.61 2015.58C570.96 2031.37 577.67 2054.69 595.14 2079.73C603.9 2092.06 615.37 2104.67 630.62 2115.16C638.08 2120.52 646.79 2124.84 655.88 2128.68C665.08 2132.15 674.76 2135.12 684.71 2136.86C723.33 2144.21 763.9 2138.96 802.14 2143.19C803.33 2143.9 804.52 2144.71 805.71 2145.4C818.75 2153.14 832.27 2158.22 844.6 2161.52C869.59 2167.9 890.58 2166.72 904.26 2164.01C918.11 2161.14 924.92 2157.08 924.44 2155.02C924.01 2152.75 916.43 2152.49 903.56 2151.4C890.69 2150.16 872.3 2147.78 851.63 2139.66C841.3 2135.45 830.59 2130.14 820.04 2122.57C809.22 2115.16 798.4 2106.01 787.53 2095.58C776.66 2085.09 765.73 2073.29 754.59 2060.58C747.18 2052.08 739.55 2043.21 731.71 2034.18H731.6C731.6 2034.18 731.44 2034.02 731.44 2033.92C731.44 2033.92 731.49 2033.8 731.6 2033.8L731.71 2033.7L733.17 2033.86L736.04 2034.29C751.78 2036.56 766.87 2038.72 781.21 2040.83C810.42 2044.94 838.11 2046.24 860.89 2043.16C866.41 2042.45 871.55 2041.54 876.47 2040.45L1188.2 2325.46C1099.27 2368.56 999.09 2392.31 889.94 2396.11H889.99L889.98 2396.12ZM610.97 1797.76L765.35 1938.83C703.41 1911.4 648.24 1860.34 610.97 1797.76ZM1514.9 2580.2L577.16 1722.84C571.8 1705.95 567.69 1688.65 565.1 1671.13C550.82 1574.95 587.6 1473.04 661.76 1399.26L1564.01 2210.85L1514.9 2580.2ZM1546.6 2587.98L1596.04 2216.25L2005.95 2059.17L1957.26 2427.42L1546.6 2587.98ZM2641.8 2583.76C2530.69 2739.16 2314.65 2805.87 2091.47 2753.78C1954.39 2721.75 1830.63 2645.75 1748.42 2543.96L1977.99 2454.17C1979.61 2453.58 1981.13 2452.65 1982.48 2451.56L2175.37 2291.61C2207.94 2309.14 2231.53 2325.36 2250.78 2343.54C2268.03 2359.76 2277.28 2376.26 2279.18 2393.95C2281.18 2412.51 2276.2 2429.7 2271.12 2442.42C2266.1 2455.19 2261.44 2463.78 2264.42 2467.3C2267.07 2470.6 2278.05 2467.84 2290.21 2455.19C2296.17 2448.91 2302.17 2440.09 2306.45 2429.07C2310.66 2417.97 2312.93 2404.57 2311.41 2390.6C2310.12 2377.89 2306.23 2365.62 2299.79 2353.76C2293.35 2341.98 2284.48 2330.66 2273.07 2319.91C2254.02 2302.01 2231.57 2285.98 2202.21 2269.38L2561.76 1971.28C2713.59 2114.51 2792.14 2373.5 2641.81 2583.76H2641.8ZM1993.62 2400.12L2040.85 2042.74L2648.47 1544.01C2704.67 1599.99 2757.67 1659.99 2811.82 1721.82L1993.63 2400.12H1993.62ZM3754.32 1610.38C3704.23 1832.58 3496.99 1980.63 3261.75 1962.51C3075.4 1948.18 2944.45 1824.04 2851.13 1717.49L2847.14 1712.89C2734.78 1584.48 2628.6 1463.15 2488.77 1366.92C2392.43 1300.6 2268.02 1287.73 2194.84 1309.31C2111.81 1333.81 2076.53 1390.99 2068.04 1407L1654.36 1713.64L1567.16 1628.98C1556.67 1493.22 1575.93 1367.34 1624.61 1254.78C1679.73 1127.29 1773.69 1016.45 1896.32 934.23C1987.78 872.89 2094.19 829.02 2204.04 807.38C2506.03 747.77 2832.05 859.42 3034.56 1091.85C3090.93 1156.54 3140.85 1228 3189.15 1297.08C3200.03 1312.66 3210.96 1328.24 3221.93 1343.82C3253.19 1388.07 3287.77 1423.34 3324.55 1448.55C3355.22 1469.75 3388.38 1481.06 3412.72 1483.65C3437.17 1486.47 3452.15 1482.46 3452.36 1478.24C3452.63 1473.59 3438.73 1469.32 3418.12 1461.32C3397.47 1453.48 3370.36 1440.71 3342.89 1421.78C3323.09 1408.2 3303.94 1391.22 3285.55 1371.26L3447.99 1236.63C3451.13 1233.98 3453.19 1230.25 3453.74 1226.19L3477.85 1037.19C3700.18 1163.93 3805.87 1381.59 3754.32 1610.41V1610.38Z" fill="black"/>
<path d="M2099.2 1237.74C2090.92 1246.12 2078.37 1257.65 2060.8 1269.98C2052.09 1276.09 2041.87 1282.42 2030.51 1288.15C2019.21 1293.88 2006.86 1299.29 1993.67 1304.27C1980.47 1309.19 1966.5 1313.74 1952.07 1318.01C1944.82 1320.12 1937.51 1322.28 1929.66 1324.23C1925.77 1325.26 1921.77 1326.18 1917.66 1327.04L1912.74 1327.96L1906.99 1328.83C1903.15 1329.37 1899.26 1329.86 1895.58 1330.02C1893.68 1330.18 1891.85 1330.29 1890.11 1330.24C1888.45 1330.19 1886.33 1330.56 1885.03 1330.02C1883.68 1329.59 1882.06 1329.37 1880.86 1328.83L1877.73 1326.99C1876.92 1326.34 1876.21 1325.58 1875.46 1324.88C1875.29 1324.72 1875.13 1324.61 1874.91 1324.34C1874.69 1324.07 1874.43 1323.75 1874.32 1323.58L1873.57 1322.17C1873.14 1321.25 1872.54 1320.39 1872.17 1319.36L1871.46 1315.52C1871.03 1310.06 1873.41 1302.65 1875.73 1295.83C1876.93 1292.37 1878.22 1288.91 1879.74 1285.44L1880.83 1282.9L1881.52 1281.28L1882.82 1278.58C1889.9 1263.97 1897.92 1251.59 1905.49 1239.9C1921.06 1216.32 1937.94 1196.79 1952.92 1182.02C1967.48 1167.2 1981.06 1155.62 1991.65 1149.51C2002.32 1143.34 2009.24 1142.1 2010.32 1143.99C2011.45 1145.99 2007.02 1150.75 1999.71 1159.3C1992.3 1167.79 1982.52 1180.45 1970.23 1197.06C1957.84 1213.34 1944.16 1232.76 1930.91 1255.7C1924.27 1267.38 1917.23 1279.56 1911.66 1291.94L1910.63 1294.32L1910.25 1295.29V1295.4H1910.47C1910.47 1295.4 1910.63 1295.4 1911.32 1295.24C1914.84 1294.54 1918.41 1293.78 1921.93 1292.91C1929.07 1291.23 1936.37 1289.23 1943.45 1287.39C1957.68 1283.66 1971.25 1279.87 1983.92 1275.98C1996.69 1272.03 2008.53 1267.92 2019.41 1263.65C2030.28 1259.43 2040.01 1254.89 2048.99 1250.29C2066.84 1241.2 2081.28 1232.71 2091.72 1227.57C2102.17 1222.27 2108.55 1220.11 2109.9 1221.94C2111.2 1223.73 2107.41 1229.24 2099.19 1237.74H2099.2Z" fill="black"/>
<path d="M1923.84 1089.69C1923.84 1089.69 1923.67 1089.85 1923.57 1089.96C1923.51 1089.96 1923.51 1090.12 1923.63 1090.23C1923.67 1090.23 1923.73 1090.34 1923.89 1090.39C1926.81 1090.28 1929.68 1090.23 1932.55 1090.12C1946.08 1089.96 1958.63 1090.55 1970.25 1090.93C1981.93 1091.36 1992.44 1091.52 2002.32 1091.09C2012.22 1090.71 2021.43 1089.74 2029.75 1088.6C2063.18 1083.95 2083.3 1076.43 2085.26 1080.43C2086.13 1082.16 2082.22 1086.43 2073.74 1091.95C2065.24 1097.41 2052.04 1104.07 2034.42 1109.42C2025.59 1112.12 2015.75 1114.5 2004.94 1116.18C1994.11 1117.91 1982.27 1118.89 1970.38 1119.32C1951.17 1120.19 1932.02 1120.4 1912.93 1122.94L1907.89 1123.59C1906.21 1123.81 1904.27 1124.4 1902.43 1124.78C1898.75 1125.7 1895.45 1126.24 1891.29 1127.43C1887.24 1131.6 1883.17 1135.65 1879.28 1139.49C1876.31 1142.41 1873.39 1145.28 1870.52 1148.04C1867.97 1150.69 1865.54 1153.45 1863.15 1156.15C1858.5 1161.51 1854.39 1166.75 1850.72 1171.62C1835.96 1191.15 1830.17 1205.37 1825.62 1204.78C1823.45 1204.46 1821.83 1199.97 1822.26 1192.01C1822.64 1184.06 1825.24 1172.86 1830.81 1160.2C1833.62 1153.87 1837.14 1147.16 1841.46 1140.24C1843.62 1136.78 1845.95 1133.26 1848.6 1129.75C1851.19 1126.34 1853.9 1123.21 1856.72 1119.85C1861.48 1114.17 1866.5 1108.33 1871.76 1102.32C1872.89 1100.43 1874.13 1098.53 1875.44 1096.53C1879.22 1091.01 1883.88 1085.17 1889.02 1079.49C1891.55 1076.62 1894.26 1073.81 1896.97 1071L1902.82 1064.94C1905.35 1062.4 1908.61 1059.04 1911.58 1056.39C1914.62 1053.52 1917.75 1050.87 1920.83 1048.33C1933.34 1038.16 1946.2 1030.05 1958.59 1023.07C1970.98 1016.09 1982.93 1010.2 1994.08 1005C2005.38 999.64 2016.14 995.16 2026.1 991.48C2066.02 976.71 2092.36 973.74 2093.56 977.8C2094.96 982.29 2071.49 992.95 2035.62 1012.36C2026.63 1017.23 2016.91 1022.69 2006.63 1028.75C1996.18 1034.97 1985.15 1041.46 1974.01 1048.66C1962.92 1055.85 1951.68 1063.7 1941.23 1072.73C1938.64 1075 1936.05 1077.33 1933.6 1079.71C1932.31 1080.9 1931.11 1082.14 1929.92 1083.39L1926.08 1087.34L1924.08 1089.45L1923.91 1089.67H1923.87L1923.84 1089.69Z" fill="black"/>
<path d="M2477.04 1147.73C2478.01 1149.57 2471.19 1156.01 2456 1162.82C2440.92 1169.58 2417.11 1175.8 2387.47 1176.34C2358.05 1177.15 2323.32 1172.88 2286.27 1166.06C2267.71 1162.76 2248.45 1158.98 2228.71 1155.62C2218.71 1153.89 2209.13 1152.54 2198.42 1151.08C2193.02 1150.38 2187.55 1149.13 2182.35 1147.51L2181.11 1147.08L2179.33 1146.43C2176.84 1145.62 2174.41 1144.54 2172.08 1143.29C2142.28 1152.76 2116.69 1163.3 2098.19 1172.77C2077.04 1183.32 2064.54 1192.08 2061.04 1188.89C2057.84 1186.18 2065.15 1170.77 2085.43 1153.68C2102.36 1139.13 2128.33 1124.63 2158.62 1113.87C2158.88 1112.68 2159.1 1111.49 2159.37 1110.35L2160.08 1107.43L2160.62 1105.21C2161.43 1102.34 2162.3 1099.48 2163.27 1096.61C2165.27 1090.88 2167.66 1085.3 2170.52 1079.89C2173.33 1074.48 2176.96 1069.29 2180.14 1065.12C2183.5 1060.74 2186.58 1056.19 2190.26 1052.25C2204.15 1035.75 2219.74 1021.96 2235.69 1010.76C2267.5 988.15 2299.63 974.68 2326.95 966.08C2354.38 957.48 2377.2 953.69 2392.99 952.23C2408.84 950.72 2417.77 951.58 2418.09 953.69C2418.48 955.96 2410.3 959.26 2395.64 964.46C2381.04 969.6 2359.89 976.63 2334.89 987.45C2310.01 998.27 2281.14 1013.04 2253.49 1034.62C2239.64 1045.28 2226.38 1057.93 2214.64 1072.48C2211.51 1075.94 2209.02 1079.95 2206.2 1083.73C2203.23 1087.73 2200.96 1091.09 2199.06 1094.93C2197.06 1098.77 2195.38 1102.83 2193.92 1107.1C2193.21 1109.21 2192.52 1111.43 2191.92 1113.64L2191.27 1116.29H2191.37L2193.6 1116.99C2194.63 1117.26 2195.66 1117.53 2196.68 1117.8C2198.84 1118.34 2201.05 1118.77 2203.11 1119.1C2213.34 1120.56 2224.27 1122.29 2234.33 1124.29C2254.72 1128.13 2273.97 1132.62 2292.15 1136.68C2328.49 1145.01 2360.74 1151.23 2388.11 1153.34C2415.26 1155.61 2437.22 1153.34 2452.31 1150.69C2467.41 1148.04 2475.95 1145.5 2477.03 1147.66V1147.71L2477.04 1147.73Z" fill="black"/>
<path d="M2889.65 1424.9C2887.91 1426.41 2881.81 1422.74 2871.85 1415.16C2861.91 1407.64 2848.21 1396.12 2830.9 1382.92C2813.55 1369.83 2792.6 1354.74 2767.78 1342.13C2764.7 1340.45 2761.5 1338.99 2758.31 1337.53C2755.11 1335.96 2751.81 1334.61 2748.47 1333.26C2745.17 1331.8 2741.81 1330.55 2738.35 1329.37C2734.99 1328.13 2731.32 1326.88 2727.64 1325.69C2720.39 1323.42 2713.3 1321.42 2706.54 1320.39L2705.35 1320.23H2705.19C2705.25 1320.77 2705.46 1322.94 2705.62 1324.34L2706.37 1330.29C2707.3 1338.3 2708.48 1346.09 2709.79 1353.71C2712.32 1368.91 2715.46 1383.35 2719.3 1396.87C2726.88 1423.97 2737.16 1447.07 2747.54 1465.73C2767.83 1502.9 2790.76 1518.59 2788.11 1522.8C2786.98 1524.58 2779.73 1523.08 2768.43 1516.36C2757.17 1509.72 2742.19 1497.17 2728.29 1478.24C2714.44 1459.63 2700.7 1435.01 2690.75 1405.8C2685.77 1391.25 2681.66 1375.67 2678.48 1359.39C2676.9 1351.28 2675.5 1343 2674.37 1334.56L2673.5 1328.23L2672.53 1319.79C2671.72 1314.06 2671.6 1308.86 2671.55 1303.72C2659.44 1296.85 2644.34 1287.98 2627.14 1280.19C2617.62 1275.86 2608.37 1272.24 2599.77 1269.16C2591.22 1266.19 2583.33 1263.7 2576.51 1261.7C2562.93 1257.64 2553.57 1254.67 2553.14 1250.07C2552.76 1245.8 2562.01 1240.5 2578.45 1238.87C2586.63 1238 2596.47 1238.38 2607.18 1240.17C2617.18 1242.01 2628.01 1245.2 2638.72 1249.85C2637.69 1247.96 2636.66 1246.06 2635.68 1244.06C2629.63 1231.13 2625.52 1218.1 2622.91 1206.09C2620.48 1194.03 2619.45 1182.99 2619.67 1173.74C2620.05 1155.24 2624.27 1144.1 2628.6 1144.04C2638.01 1144.04 2643.86 1185.91 2665.06 1230.21C2670.36 1241.24 2676.03 1251.41 2681.56 1260.5C2684.48 1264.94 2687.07 1269.32 2689.84 1273.21C2692.43 1277.21 2695.14 1280.78 2697.51 1284.19C2698.32 1285.33 2699.03 1286.35 2699.78 1287.38H2700.71C2702.71 1287.38 2704.82 1287.76 2706.88 1287.92C2707.85 1288.03 2708.99 1288.08 2709.8 1288.25L2711.68 1288.57C2721.26 1290.19 2729.8 1292.84 2737.7 1295.6C2741.65 1296.95 2745.43 1298.36 2749.38 1299.98C2753.33 1301.49 2757.17 1303.06 2760.86 1304.85C2764.64 1306.58 2768.27 1308.31 2771.77 1310.21C2775.29 1312.1 2778.8 1313.89 2782.1 1315.94C2808.99 1331.57 2829.76 1349.69 2845.99 1365.65C2862.17 1381.77 2873.69 1396.1 2880.99 1406.44C2888.24 1416.88 2891.21 1423.48 2889.65 1424.94V1424.89V1424.9Z" fill="black"/>
<path d="M2852.32 1313.74C2850.76 1321.04 2848.11 1324.67 2845.99 1324.5C2841.29 1324.01 2839.45 1309.79 2829.27 1290.42C2824.25 1280.63 2817.26 1269.32 2808.6 1256.94C2800.06 1244.55 2790.1 1231.46 2778.7 1218.91C2756.03 1193.49 2730.94 1176.34 2710.8 1167.15C2690.8 1157.52 2676.24 1154.17 2676.45 1149.24C2676.51 1147.02 2680.34 1145.18 2687.49 1143.88C2691.11 1143.23 2695.44 1143.23 2700.57 1143.18C2703.16 1143.18 2705.87 1143.56 2708.73 1143.88C2711.65 1144.21 2714.74 1144.53 2717.88 1145.29C2730.59 1147.72 2745.41 1153.19 2760.19 1161.9C2775.05 1170.56 2789.66 1182.62 2802.7 1197.06C2815.8 1211.45 2826.12 1226.76 2834.08 1241.31C2842.08 1255.7 2847.92 1269.98 2850.84 1282.69C2853.88 1295.51 2853.82 1306.49 2852.3 1313.74H2852.32Z" fill="black"/>
<path d="M1632.44 944.77C1632.5 972.52 1625.96 995.18 1618 1008.76C1610 1022.5 1602.43 1027.37 1600.86 1026.07C1598.96 1024.61 1602.74 1017.31 1606.32 1003.95C1609.94 990.59 1612.33 970.63 1609.5 945.91C1606.81 921.08 1599.83 891.71 1587.44 860.72C1581.27 845.2 1573.86 829.24 1565.37 813.01C1563.16 808.95 1561.1 804.84 1558.77 800.79L1555.35 794.62C1554.54 793.16 1554.76 793.59 1554.6 793.32L1554.33 792.94C1554.07 792.45 1553.95 792.4 1553.95 792.4V792.51L1553.36 793.1L1550.34 796.45C1547.2 799.97 1544.06 803.54 1541.09 807.16C1535.03 814.3 1529.35 821.66 1523.84 828.91C1512.96 843.57 1503.17 858.34 1494.46 872.72C1485.7 887.16 1478.02 901.28 1471.32 914.69C1464.56 928.27 1458.99 940.6 1454.82 952.45C1437.78 999.89 1442.81 1032.5 1437.89 1033.26C1435.83 1033.64 1431.67 1026.01 1429.18 1010.81C1426.58 995.66 1426.47 972.95 1432.75 946.06C1435.83 932.65 1440.81 918.2 1446.82 903.65C1447.95 900.78 1449.19 897.86 1450.5 895C1442.34 877.2 1435.78 859.52 1431.46 842.64C1426.27 822.84 1424 804.29 1424.1 788.71C1424.21 757.34 1432.38 739.27 1436.43 740.03C1441.19 740.73 1441.41 759.02 1446.92 786.55C1450.6 806.24 1458.01 830.58 1468.99 857.03C1477.37 841.61 1487.05 825.87 1498.14 810.24C1503.83 802.29 1509.78 794.34 1516.26 786.55C1519.4 782.6 1522.76 778.76 1526.16 774.92L1528.71 772L1533.2 767.29C1536.44 763.94 1539.64 760.58 1542.88 757.23C1544.94 755.17 1546.93 753.17 1548.94 751.17C1556.02 708.11 1552.99 674.58 1560.4 672.84C1564.57 671.81 1572.04 683.5 1576.74 704.81C1580.47 721.53 1581.82 744.35 1577.98 769.23C1579.82 772.47 1581.71 775.72 1583.55 778.97L1587.07 785.46C1589.39 789.79 1591.56 794.22 1593.77 798.55C1602.37 815.97 1609.72 833.33 1615.57 850.37C1627.37 884.5 1632.56 917.17 1632.5 944.76H1632.44V944.77Z" fill="black"/>
<path d="M1502.57 538.6C1500.78 549.15 1497.37 564.24 1490.66 582.52C1483.96 600.8 1473.36 621.84 1459.51 643.16L1458.21 645.16L1457.56 646.19L1456.69 647.49C1455.13 649.71 1453.61 651.93 1452.04 654.2C1450.48 656.42 1448.86 658.69 1447.28 660.96L1444.85 664.42L1442.09 668.21C1440.03 671.02 1436.42 676 1433.55 679.95C1431.39 682.87 1427.01 682.87 1424.89 679.95C1422.67 676.92 1420.29 673.57 1419.32 672.22C1415.59 666.97 1411.42 661.45 1407.91 656.21C1406.13 653.56 1404.29 650.91 1402.45 648.2L1399.48 643.66C1395.53 637.6 1391.69 631.38 1388.01 624.94C1373.13 599.19 1362.05 572.63 1355.34 547.48C1348.52 522.27 1346.14 498.69 1346.63 479C1347.06 459.31 1350.31 443.62 1353.66 433.18C1357.18 422.79 1360.69 417.55 1362.8 418.03C1367.56 419.06 1364.8 442.21 1369.56 477.8C1371.94 495.6 1376.32 516.48 1383.95 538.82C1391.52 561.16 1402.4 584.91 1416.13 608.76C1419.54 614.71 1423.05 620.55 1426.68 626.23L1429.33 630.45L1429.6 630.99C1429.92 631.53 1429.71 631.32 1429.82 631.53C1429.82 631.91 1429.98 632.07 1430.2 631.96H1430.31L1430.69 631.47L1431.56 630.5L1432.43 629.53L1434.92 626.18C1449.42 606.76 1461 588.86 1469.81 572.95C1478.68 557.1 1485.28 543.47 1490.68 534.33C1496.04 525.13 1499.94 520.32 1502.1 521.08C1504.16 521.84 1504.31 528 1502.59 538.61L1502.57 538.6Z" fill="black"/>
<path d="M1701.3 702.06C1700.66 715.8 1698.98 728.13 1696.6 738.25C1691.79 758.59 1685.14 770.06 1680.87 769.19C1671.72 767.24 1675.56 719.15 1666.9 661.98C1659.01 604.64 1641.8 559.58 1649.98 555.15C1653.82 553.15 1663.5 562.23 1673.83 580.41C1679.03 589.39 1684.11 600.75 1688.59 613.78C1692.98 626.82 1696.71 641.58 1699.03 657.32C1701.26 673.06 1701.85 688.32 1701.3 702.05V702.06Z" fill="black"/>
<path d="M2332.13 2678.81C2328.56 2681.99 2313.46 2669.56 2285.99 2656.62C2272.2 2650.02 2255.58 2643.48 2235.95 2637.1C2219.33 2631.64 2201.17 2625.85 2183.15 2623.64C2182.66 2624.23 2182.18 2624.88 2181.63 2625.48C2179.1 2627.2 2176.55 2628.94 2173.96 2630.66L2167.2 2633.37C2164.97 2634.24 2162.32 2635.32 2161.08 2635.64C2158.49 2636.51 2155.9 2637.32 2153.29 2638.19C2148.05 2639.59 2142.74 2641.11 2137.34 2642.08C2120.62 2645.44 2104.07 2646.25 2088.12 2645.16C2091.9 2649.43 2095.63 2653.6 2099.31 2657.55C2112.03 2671.01 2124.19 2682.75 2134.64 2691.14C2145.19 2699.58 2154.44 2704.66 2161.36 2707.8C2168.23 2710.88 2172.78 2712.45 2172.94 2714.78C2173.1 2716.89 2168.55 2719.76 2159.25 2720.24C2150 2720.73 2136.48 2717.87 2122.36 2710.51C2108.13 2703.14 2093.49 2692.33 2078.45 2678.97C2064.66 2666.52 2050.81 2651.48 2038.04 2634.51C2011.16 2624.71 1989.68 2608.86 1975.08 2593.94C1959.67 2578.41 1949.81 2564.24 1943.43 2554.24C1937.16 2544.18 1934.62 2537.9 1936.29 2536.44C1938.03 2534.92 1943.82 2538.5 1952.89 2545.91C1962.04 2553.22 1974.31 2564.68 1990.22 2576.7C2006.01 2588.81 2025.77 2600.39 2050.16 2607.15C2074.35 2613.97 2102.68 2615.91 2130.98 2610.29C2135.52 2609.47 2139.9 2608.23 2144.22 2607.09C2146.39 2606.38 2148.55 2605.74 2150.66 2605.09C2151.79 2604.71 2151.37 2604.87 2151.47 2604.87H2151.53C2151.53 2604.87 2151.85 2604.87 2151.91 2604.71C2151.85 2604.54 2152.01 2604.75 2151.75 2604.22C2149.42 2600.86 2147.68 2597.9 2145.9 2594.97C2138.87 2583.12 2133.03 2571.6 2127.5 2560.94C2116.69 2539.58 2107.01 2521.67 2096.89 2508.04C2077.15 2480.45 2057.57 2470.99 2059.14 2466.82C2059.83 2465.04 2065.9 2464.88 2075.96 2468.56C2085.9 2472.29 2099.6 2480.4 2113.17 2493.98C2126.91 2507.4 2139.95 2526.28 2152.49 2546.94C2158.82 2557.27 2165.15 2568.04 2172.07 2578.58C2173.85 2581.19 2175.64 2583.94 2177.21 2586.05C2177.92 2587.02 2179.16 2588.6 2180.23 2589.78C2180.56 2590.11 2180.88 2590.49 2181.26 2590.87C2193.06 2591.96 2203.98 2594.39 2214.1 2597.35C2225.84 2600.77 2236.55 2604.93 2246.55 2609.15C2266.41 2617.31 2284.31 2627.05 2297.77 2636.95C2311.4 2646.79 2320.99 2656.75 2326.5 2664.44C2332.01 2672.11 2333.69 2677.36 2332.13 2678.83V2678.81Z" fill="black"/>
<path d="M2413.58 2485.05C2412.83 2498.89 2407.57 2517.77 2396.43 2535.84C2385.29 2553.9 2370.8 2567.1 2358.78 2574.04C2346.72 2581.02 2337.58 2582.09 2335.09 2578.53C2332.44 2574.8 2336.49 2567.23 2343.31 2557.11C2350.13 2546.94 2359.53 2533.89 2368.84 2518.87C2378.05 2503.77 2385.5 2489.55 2391.45 2478.89C2397.46 2468.22 2402.38 2461.2 2406.92 2461.84C2411.25 2462.49 2414.39 2471.15 2413.58 2485.06V2485.05Z" fill="black"/>
<path d="M2635.84 358.25C2630.92 368.8 2622.81 380.1 2612.36 390.43C2601.87 400.87 2589.54 410.39 2575.64 419.31C2561.63 428.24 2547.08 435.21 2533.17 439.81C2519.22 444.41 2505.9 446.63 2494.77 446.95C2472.21 447.49 2459.22 441.22 2459.77 437C2460.19 432.35 2472.91 430.18 2491.08 424.29C2500.23 421.32 2510.84 417.37 2522.18 412.01C2533.54 406.6 2545.71 399.89 2558.2 391.94C2570.71 383.93 2582.66 375.82 2592.44 368.09C2602.4 360.41 2610.29 352.89 2616.35 346.07C2628.52 332.55 2632.14 320.76 2637.02 321.03C2639.12 321.14 2641.23 324.6 2641.72 331.25C2642.31 337.85 2640.79 347.64 2635.81 358.24L2635.84 358.25Z" fill="black"/>
<path d="M3361.27 1841.67C3361.05 1844.06 3360.24 1846.27 3359.27 1847.89C3358.3 1849.51 3356.94 1850.6 3355.59 1851.94C3352.98 1854.55 3348.72 1857.47 3343.69 1859.52C3341.3 1860.65 3339.09 1861.84 3336.87 1862.92C3335.78 1863.47 3334.81 1864.01 3333.73 1864.66L3331.89 1865.63C3329.56 1866.98 3327.29 1868.28 3325.17 1869.68C3320.96 1872.39 3317.17 1875.09 3313.87 1877.68C3300.68 1888.17 3294.24 1895.92 3292.03 1894.51C3290.24 1893.53 3292.41 1884.39 3302.09 1871.08C3302.84 1869.95 3313.5 1854.59 3329.68 1843.71C3329.72 1843.49 3329.72 1843.29 3329.68 1843.02C3329.62 1842.59 3329.41 1842.21 3329.09 1841.83C3310.75 1838.57 3296.03 1830.57 3296.03 1830.57C3293.11 1829.22 3290.14 1827.86 3287.22 1826.24C3272.62 1818.67 3258.11 1808.89 3244.48 1796.76C3217.17 1772.86 3193.75 1739.27 3179.42 1701.02C3171.52 1680.47 3165.67 1659.38 3163.4 1637.96C3162.27 1627.19 3162.05 1616.42 3163.14 1605.77C3163.52 1601.12 3164.21 1596.52 3165.24 1592.3C3165.67 1590.2 3166.92 1584.85 3168.11 1579.93C3169.41 1574.36 3175.04 1570.94 3180.56 1572.3C3182.62 1572.84 3184.51 1573.33 3185.76 1573.65C3189.87 1574.62 3193.92 1575.71 3197.98 1576.89C3201.18 1578.03 3204.36 1579.12 3207.56 1580.19C3211.99 1581.77 3216.22 1583.71 3220.43 1585.44C3224.66 1587.28 3228.65 1589.33 3232.66 1591.23C3236.5 1593.34 3240.35 1595.4 3244.08 1597.45C3258.84 1606.11 3271.55 1615.67 3282.26 1625.24C3303.68 1644.5 3317.37 1663.55 3325.04 1677.39C3332.67 1691.34 3334.84 1700 3333.04 1701.03C3330.98 1702.23 3325.15 1695.85 3314.82 1684.81C3304.49 1673.88 3289.17 1658.53 3267.87 1643.17C3257.22 1635.48 3245.05 1627.91 3231.31 1621.14C3227.84 1619.58 3224.32 1617.96 3220.76 1616.28C3217.08 1614.82 3213.41 1613.36 3209.67 1611.85C3205.82 1610.55 3201.98 1609.03 3198.03 1607.84L3195.11 1607.03H3194.36C3193.55 1606.76 3193.98 1608.17 3194.04 1608.38C3193.49 1616.66 3193.87 1625.37 3195.01 1634.3C3197.28 1652.15 3202.58 1670.8 3209.72 1689.42C3222.6 1723.55 3242.13 1752.6 3265.01 1774.55C3276.37 1785.54 3288.54 1794.68 3300.76 1802.09C3303.74 1804.03 3306.88 1805.65 3309.97 1807.27C3312.99 1808.95 3316.02 1810.53 3319.1 1811.87C3322.18 1813.23 3325.11 1814.74 3328.19 1815.82L3331.65 1817.12C3333.05 1817.6 3334.36 1818.15 3335.88 1818.58C3342.64 1820.64 3349.67 1823.44 3355.29 1827.83C3355.9 1828.26 3356.49 1828.8 3356.97 1829.29C3360.23 1832.53 3361.89 1836.92 3361.3 1841.66L3361.27 1841.67Z" fill="black"/>
<path d="M3656.46 1742.68C3637.37 1766.81 3604.43 1796.02 3561.04 1815.92C3555.74 1828.21 3549.52 1839.45 3542.7 1849.3C3532.42 1864.24 3521.24 1876.08 3510.74 1884.79C3500.25 1893.66 3489.85 1899.23 3482.13 1901.29C3474.33 1903.4 3469.62 1902.53 3468.93 1900.48C3468.16 1898.31 3471.14 1895.18 3475.91 1890.31C3480.67 1885.45 3487.05 1878.51 3494.25 1868.83C3501.92 1858.73 3510.42 1846.12 3518.38 1831.4C3489 1839.4 3461.53 1841.68 3440.27 1840.61C3408.95 1839.15 3390.67 1832 3391.2 1827.84C3391.69 1823.12 3410.41 1821.99 3439.08 1817.67C3467.8 1813.46 3506.74 1804.96 3546.29 1787.06C3585.83 1769.16 3617.91 1745.46 3639.98 1726.69C3662.15 1707.98 3675.35 1694.66 3679.25 1697.37C3682.72 1699.76 3676.01 1718.2 3656.48 1742.7L3656.46 1742.68Z" fill="black"/>
<path d="M3616.64 1638.62C3619.19 1647.59 3571.09 1666.68 3526.04 1707.91C3503.53 1728.2 3485.2 1750.1 3470.59 1765.41C3456.04 1780.82 3445.39 1789.58 3441.66 1787.05C3437.98 1784.5 3441.88 1771.36 3451.88 1752.1C3455.24 1745.83 3459.35 1738.74 3464.17 1731.33C3462.49 1731.07 3460.81 1730.79 3459.19 1730.48C3443.23 1727.01 3430.3 1721.12 3420.24 1715.38C3400.22 1703.7 3390.66 1693.15 3392.65 1689.36C3394.76 1685.25 3408.6 1688.71 3428.99 1694.18C3445.33 1698.45 3466.04 1703.21 3487.46 1700.78C3492.6 1695.05 3498.17 1689.3 3504.34 1683.79C3529.93 1660.59 3558.38 1646.52 3579.75 1640.25C3601.29 1633.87 3615.51 1634.46 3616.64 1638.63V1638.62Z" fill="black"/>
<path d="M823.06 2192.13C823.49 2196.57 818.3 2201.34 808.89 2204.95C799.59 2208.57 785.74 2211.12 769.78 2209.12C753.82 2207.17 739.81 2200.31 731.92 2192.56C723.91 2184.83 722.02 2177.36 724.94 2174.06C727.92 2170.66 734.46 2171.19 742.79 2172.32C751.17 2173.56 761.72 2175.4 773.95 2176.92C786.17 2178.48 798.07 2179.79 807.22 2182.06C816.36 2184.33 822.58 2187.63 823.07 2192.12L823.06 2192.13Z" fill="black"/>
<path d="M1138.59 2257.36L1191.22 1861.52L1030.78 1713.96L978.96 2103.69L1138.58 2257.36H1138.59Z" fill="black"/>
<path d="M1282.57 2386.22L1335.63 1987.18C1311.45 1963.92 1274.99 1928.97 1253.3 1908.69L1200.61 2304.8L1282.56 2386.16V2386.22H1282.57Z" fill="black"/>
</g>
</g>
<defs>
<clipPath id="clip0_740_64">
<rect width="3891.7" height="2895.77" fill="white"/>
</clipPath>
</defs>
</svg>
