<svg width="10466" height="3128" viewBox="0 0 10466 3128" fill="none" xmlns="http://www.w3.org/2000/svg">
<g clip-path="url(#clip0_742_544)">
<path d="M10021.8 104.027C10209.6 104.027 10362 256.352 10362 444.195V2683C10362 2870.92 10209.6 3023.17 10021.8 3023.17H444.195C256.278 3023.17 104.027 2870.85 104.027 2683V444.195C104.027 256.278 256.352 104.027 444.195 104.027H10021.8ZM10021.8 0H444.195C199.286 0 0 199.286 0 444.195V2683C0 2927.91 199.286 3127.2 444.195 3127.2H10021.8C10266.7 3127.2 10466 2927.91 10466 2683V444.195C10466 199.286 10266.7 0 10021.8 0Z" fill="#091F11"/>
<path d="M10021.8 104.027H444.195C256.326 104.027 104.027 256.326 104.027 444.195V2683.08C104.027 2870.95 256.326 3023.25 444.195 3023.25H10021.8C10209.7 3023.25 10362 2870.95 10362 2683.08V444.195C10362 256.326 10209.7 104.027 10021.8 104.027Z" fill="#091F11"/>
<path d="M1647.41 1191.56C1630.77 1191.56 1617.17 1173.95 1617.17 1152.25V440.481H520.875V2608.18H2198.46V1191.56H1647.41Z" fill="white"/>
<path d="M2300.04 2608.18H3977.69V440.481H2300.04V2608.18ZM3108.47 847.45C3108.47 825.604 3122.07 808.068 3138.72 808.068C3155.36 808.068 3169.33 825.604 3169.33 847.45V2201.29C3169.33 2223.06 3155.66 2240.59 3138.72 2240.59C3121.77 2240.59 3108.47 2223.06 3108.47 2201.29V847.45Z" fill="white"/>
<path d="M7201.04 440.627H5846.75V2608.18H7201.04C7379.37 2608.18 7524.41 2420.71 7524.41 2190.21V858.518C7524.41 628.098 7379.37 440.627 7201.04 440.627ZM6716.05 2201.28C6716.05 2223.05 6702.38 2240.59 6685.43 2240.59C6668.49 2240.59 6655.19 2223.05 6655.19 2201.28V847.447C6655.19 825.601 6668.79 808.065 6685.43 808.065C6702.08 808.065 6716.05 825.601 6716.05 847.447V2201.28Z" fill="white"/>
<path d="M4946.48 2201.21C4946.48 2223.06 4932.88 2240.59 4915.94 2240.59C4899 2240.59 4885.62 2223.06 4885.62 2201.21V440.481H4077.26V2608.18H5754.84V440.481H4946.48V2201.21Z" fill="white"/>
<path d="M9873.49 304.65H8117.3C7967.96 304.65 7846.9 425.711 7846.9 575.046V2517.3C7846.9 2666.64 7967.96 2787.7 8117.3 2787.7H9873.49C10022.8 2787.7 10143.9 2666.64 10143.9 2517.3V575.046C10143.9 425.711 10022.8 304.65 9873.49 304.65Z" fill="#45D62C"/>
<path d="M10143.9 1470.5V1586.11L10101.7 1543.91L9847.27 1289.56L9101.1 1040.72L8492.02 837.566H8216.79V2069.76L8689.08 2542.12H8689.15L8934.65 2787.7H8819.11L8158.98 2127.57L8134.98 2103.65V755.756H8505.32L8517.88 759.991L9359.6 1040.72L9873.2 1211.99L9891.48 1218.08L10143.9 1470.5Z" fill="#091F11"/>
<path d="M10101.7 1543.91L10143.9 1586.11V2517.3C10143.9 2666.65 10022.8 2787.7 9873.5 2787.7H8934.65L8216.72 2069.76V2069.32L8220.88 2043.01L8297.93 1543.91L8298.53 1539.82L8375.58 1040.71L8387.84 961.132L8653.33 1040.71L9692.49 1351.98L9847.27 1289.56L10101.7 1543.91Z" fill="#091F11"/>
<path d="M9101.1 1040.64L8492.02 837.563H8216.72V2069.76H8492.02L8572.19 2043.01L9847.27 1617.77V1289.49L9101.1 1040.64ZM9559.71 1462.84L9299.64 1539.82L9285.82 1543.91H9285.74L8492.02 1778.64V1128.62L9559.71 1444.49V1462.84Z" fill="white"/>
<path d="M9873.49 2806.28H8117.37C7957.99 2806.28 7828.32 2676.61 7828.32 2517.3V575.046C7828.32 415.736 7957.99 286.074 8117.37 286.074H9873.49C10032.8 286.074 10162.5 415.736 10162.5 575.046V2517.3C10162.5 2676.61 10032.8 2806.28 9873.49 2806.28ZM8117.37 323.227C7978.49 323.227 7865.48 436.17 7865.48 575.046V2517.3C7865.48 2656.18 7978.49 2769.12 8117.37 2769.12H9873.49C10012.4 2769.12 10125.3 2656.18 10125.3 2517.3V575.046C10125.3 436.17 10012.4 323.227 9873.49 323.227H8117.37Z" fill="#091F11"/>
</g>
<defs>
<clipPath id="clip0_742_544">
<rect width="10466" height="3127.27" fill="white"/>
</clipPath>
</defs>
</svg>
