<svg width="4294" height="4703" viewBox="0 0 4294 4703" fill="none" xmlns="http://www.w3.org/2000/svg">
<g clip-path="url(#clip0_742_589)">
<path d="M4222.66 419.037V4283.96C4222.66 4476.3 4066.05 4632.1 3872.88 4632.1H420.682C227.518 4632.1 70.9023 4476.24 70.9023 4283.96V419.037C70.9023 226.764 227.518 70.9023 420.682 70.9023H3872.88C4066.05 70.9023 4222.66 226.764 4222.66 419.037Z" fill="#091F11"/>
<path d="M4032.11 503.104V3200.75C4032.11 3331.45 3926.17 3437.39 3795.47 3437.39H493.993C363.297 3437.39 257.355 3331.45 257.355 3200.75V503.104C257.355 372.408 363.297 266.466 493.993 266.466H3795.47C3926.17 266.466 4032.11 372.408 4032.11 503.104Z" fill="black"/>
<path d="M4032.1 3052.91V3222.08C4032.1 3371.7 3924.51 3492.93 3791.76 3492.93H438.849C306.164 3492.93 198.508 3371.7 198.508 3222.08V3052.91H4032.03H4032.1Z" fill="#091F11"/>
<path d="M4032.11 2467.45H257.355V3057.71H4032.11V2467.45Z" fill="#22372B"/>
<path d="M4032.11 1877.2H257.355V2467.45H4032.11V1877.2Z" fill="#183028"/>
<path d="M4032.11 1291.74H257.355V1882H4032.11V1291.74Z" fill="#2E6F43"/>
<path d="M4032.11 701.48H257.355V1291.74H4032.11V701.48Z" fill="#45D62C"/>
<path d="M4032.11 503.104V701.48H257.355V503.104C257.355 372.408 363.297 266.466 493.993 266.466H3795.47C3926.17 266.466 4032.11 372.408 4032.11 503.104Z" fill="#00FF3B"/>
<path d="M1170.86 1053.52H1493.76L2208.2 1291.81L3083.51 1583.71L3381.86 1882.06L3954.97 2455.18L3967.39 2467.59L4032.12 2532.32L4158.08 2658.29L4222.67 2651.98V2555.57L4213.28 2556.46L4193.87 2558.38L4032.12 2396.62L4022.79 2387.29L3517.49 1882L3512.69 1877.2L3151.32 1515.83L3135.35 1499.85L3113.88 1492.65L2511.49 1291.74L1524.14 962.461L1509.33 957.523H1074.93V2538.56L1103.04 2566.61L3037.08 4500.65L3086.11 4549.68L3148.03 4518.54L4222.67 3977.86V3870.48L3795.48 4085.38L3763.8 4101.36L3104.9 4432.83L1724.91 3052.84L1170.86 2498.79V1053.45V1053.52Z" fill="#091F11"/>
<path d="M4222.66 2651.84V3870.48L3795.47 4085.38L3763.79 4101.36L3104.89 4432.83L1724.9 3052.84L1170.85 2498.79L1175.72 2467.45L1266.09 1882L1266.85 1877.2L1357.22 1291.74L1371.62 1198.41L1683 1291.74L2901.92 1656.88L3083.49 1583.64L3381.85 1882L3954.96 2455.11L3967.37 2467.52L4032.1 2532.25L4158.07 2658.22L4222.59 2651.91L4222.66 2651.84Z" fill="#091F11"/>
<path d="M2208.19 1291.74L1493.75 1053.45H1170.85V2498.79H1493.75L1587.83 2467.45L3083.56 1968.6V1583.58L2208.26 1291.67L2208.19 1291.74ZM2424.8 1882L1493.75 2157.38V1394.94L2746.19 1765.36V1786.96L2441.05 1877.2L2424.8 1882Z" fill="white"/>
<path d="M601.377 3723.12H472.738V4303.85H1104.89V4181.31H601.377V3723.12Z" fill="white"/>
<path d="M3157.4 3723.05H3027.8V4303.78H3157.4L3763.71 4101.36L3795.39 4090.73V3936.04L3157.34 3722.99L3157.4 3723.05ZM3660.03 4017.77L3157.4 4166.64V3860.33L3660.03 4009.13V4017.84V4017.77Z" fill="white"/>
<path d="M2768.63 3723.12V4150.59L2616.4 4202.91L2417.27 4204.28L2261 4150.59V3723.12H2131.05V4231.09L2385.25 4318.93H2644.44L2898.64 4231.09V3723.12H2768.56H2768.63Z" fill="white"/>
<path d="M1747.46 3707.97H1488.33L1234.14 3795.81V4230.89L1488.33 4318.73H1747.46L2001.72 4230.89V3795.81L1747.46 3707.97ZM1871.71 4150.66L1719.49 4202.98L1520.36 4204.22L1364.15 4150.52V3876.31L1516.38 3823.99L1715.51 3822.62L1871.71 3876.31V4150.59V4150.66Z" fill="white"/>
<path d="M3872.88 70.9023C4066.05 70.9023 4222.66 226.764 4222.66 419.036V4283.96C4222.66 4476.3 4066.05 4632.1 3872.88 4632.1H420.682C227.518 4632.1 70.9023 4476.24 70.9023 4283.96V419.036C70.9023 226.764 227.518 70.9023 420.682 70.9023H3872.88ZM3872.88 0H420.682C188.707 0 0 187.953 0 419.036V4283.96C0 4515.05 188.707 4703 420.682 4703H3872.88C4104.86 4703 4293.56 4514.98 4293.56 4283.96V419.036C4293.56 188.021 4104.86 0 3872.88 0Z" fill="#183028"/>
</g>
<defs>
<clipPath id="clip0_742_589">
<rect width="4293.56" height="4703" fill="white"/>
</clipPath>
</defs>
</svg>
