<svg width="6677" height="6058" viewBox="0 0 6677 6058" fill="none" xmlns="http://www.w3.org/2000/svg">
<g clip-path="url(#clip0_742_524)">
<path d="M1061.48 2293.64H284.167V5773.43H1061.57L4889 4496.92V3570.05L1061.48 2293.64ZM4076.78 4059.52L1061.48 4951.39V3115.68L4076.78 4007.55V4060.02V4059.52Z" fill="#2E6F43"/>
<path d="M1061.47 2293.64L4889 3570.04V4496.92L1061.47 5773.43H284.164V2293.64H1061.57H1061.47ZM1061.47 4951.49L4076.78 4059.62V4060.02V4007.55L1061.47 3115.68V4951.39M1107.59 2009.58H0V6057.59H1107.59L1151.33 6043.01L4978.86 4766.51L5173.07 4701.74V3365.33L4978.86 3300.56L1151.33 2024.16L1107.59 2009.58ZM1345.64 4571.11V3496.05L3162.99 4033.63L1345.64 4571.21V4571.11Z" fill="#091F11"/>
<path d="M1597.07 1629.01H819.657V5108.8H1597.07L5424.49 3832.29V2905.41L1597.07 1629.01ZM4612.37 3394.89L1597.07 4286.76V2451.05L4612.37 3342.92V3395.38V3394.89Z" fill="#45D62C"/>
<path d="M1597.07 1629L5424.6 2905.41V3832.29L1597.07 5108.79H819.66V1629H1597.07ZM1597.07 4286.75L4612.38 3394.88V3395.28V3342.81L1597.07 2450.95V4286.65M1643.19 1344.84H535.596V5392.86H1643.19L1686.93 5378.28L5514.46 4101.77L5708.66 4037V2700.59L5514.46 2635.83L1686.93 1359.52L1643.19 1344.94V1344.84ZM1881.13 3906.48V2831.42L3698.49 3369L1881.13 3906.58V3906.48Z" fill="#091F11"/>
<path d="M2092 961.992H1314.59V4441.78H2092L5919.53 3165.28V2238.4L2092 961.992ZM5107.21 2727.87L2091.9 3619.74V1784.03L5107.21 2675.9V2728.37V2727.87Z" fill="#00FF3B"/>
<path d="M2092 961.989L5919.53 2238.39V3165.27L2092 4441.78H1314.59V961.989H2092ZM2092 3619.74L5107.31 2727.87V2728.27V2675.8L2092 1783.93V3619.64M2138.12 677.825H1030.53V4725.84H2138.12L2181.86 4711.26L6009.39 3434.76L6203.6 3369.99V2033.58L6009.39 1968.81L2181.86 692.405L2138.12 677.825ZM2376.07 3239.36V2164.3L4193.42 2701.88L2376.07 3239.46V3239.36Z" fill="#091F11"/>
<path d="M2565.4 284.163H1787.99V3763.95H2565.4L6392.93 2487.45V1560.57L2565.4 284.163ZM5580.61 2050.04L2565.3 2941.91V1106.2L5580.61 1998.07V2050.54V2050.04Z" fill="white"/>
<path d="M2565.41 284.164L6392.94 1560.57V2487.45L2565.41 3763.95H1788V284.164H2565.41ZM2565.41 2941.91L5580.71 2050.04V2050.44V1997.97L2565.41 1106.11V2941.81M2611.53 0H1503.93V4048.02H2611.53L2655.27 4033.44L6482.8 2756.93L6677 2692.16V1355.75L6482.8 1290.99L2655.27 14.5801L2611.53 0ZM2849.47 2561.54V1486.48L4666.83 2024.06L2849.47 2561.64V2561.54Z" fill="#091F11"/>
</g>
<defs>
<clipPath id="clip0_742_524">
<rect width="6677" height="6057.59" fill="white"/>
</clipPath>
</defs>
</svg>
