<svg width="3482" height="2254" viewBox="0 0 3482 2254" fill="none" xmlns="http://www.w3.org/2000/svg">
<g clip-path="url(#clip0_740_156)">
<path d="M3386.73 95.3145H95.3135V2158.67H3386.73V95.3145Z" fill="white"/>
<path d="M1688.04 50.6538H43.9697V1479.26H1688.04V50.6538Z" fill="#00FF3B"/>
<path d="M3386.73 95.3139V2158.67H95.3139V95.3139H3386.73ZM3482 0H0V2253.93H3482V0Z" fill="#091F11"/>
<path d="M1636.61 95.3139V1415.37H95.3139V95.3139H1636.61ZM1731.87 0H0V1510.64H1731.87V0Z" fill="#091F11"/>
<path d="M3386.73 1512.3V2158.67H95.3139V1512.3H3386.73ZM3482 1416.99H0V2253.93H3482V1416.99Z" fill="#091F11"/>
<path d="M1446.48 614.057V808.418H1446.35H1446.44L1443.67 811.045L1429.57 824.365L1426.76 827.038L1412.7 840.312L1395.79 856.259L1392.97 858.886L1378.92 872.206L1376.47 874.511L1364.86 885.48L1362.05 888.153L1348.36 901.105L1347.99 901.473L1333.93 914.747L1331.12 917.42L1328.31 920.094L1317.06 930.694L1314.25 933.367L1300.15 946.641L1297.34 949.315L1283.28 962.589L1276.27 969.225L1269.22 975.862L1267.84 977.199L1266.41 978.536L1252.31 991.856L1238.25 1005.18L1235.44 1007.8L1232.63 1010.48L1221.38 1021.12L1218.71 1023.66L1218.52 1023.8L1207.28 1034.4L1204.47 1037.07L1201.61 1039.7L1190.36 1050.34L1187.55 1053.02L1173.49 1066.29L1170.73 1068.87L1170.64 1068.96L1169.9 1069.66L1156.58 1082.24L1139.66 1098.18L1136.85 1100.81L1125.61 1111.46L1122.79 1114.13L1108.69 1127.41L1105.88 1130.08L1094.63 1140.68L1091.82 1143.35L1077.72 1156.67L1074.91 1159.35L1072.05 1161.97L1060.8 1172.62L1057.99 1175.29L1043.89 1188.57L1041.08 1191.24L1029.83 1201.89L1027.99 1203.64L1027.02 1204.51L1012.92 1217.83L1010.1 1220.46L998.859 1231.11L996.047 1233.74L981.99 1247.06L980.607 1248.39L979.179 1249.73L976.367 1252.4L967.933 1260.38L965.121 1263.05L962.31 1265.68L948.206 1279L945.395 1281.62L934.149 1292.27L931.337 1294.94L917.234 1308.22L914.422 1310.89L903.13 1321.54L900.319 1324.16L886.261 1337.48L883.45 1340.16L880.592 1342.83L869.346 1353.43L866.535 1356.1L855.289 1366.75L852.477 1369.38L849.62 1372.05L838.374 1382.65L835.516 1385.33L821.413 1398.6L818.601 1401.23L804.498 1414.55L790.394 1427.87L789.012 1429.2L788.412 1429.76H51.1123V752.972L424.809 400.153L481.73 346.413V346.505H644.612L1446.53 614.149L1446.48 614.057Z" fill="#091F11"/>
<path d="M644.611 346.32H481.729V1076.02H644.611L1446.53 808.372V614.01L644.611 346.366V346.32ZM1276.32 716.607L644.611 903.593V518.65L1276.32 705.683V716.607Z" fill="white"/>
<path d="M644.611 346.32H481.729V1076.02H644.611L1446.53 808.372V614.01L644.611 346.366V346.32ZM1276.32 716.607L644.611 903.593V518.65L1276.32 705.683V716.607Z" fill="#00FF3B"/>
<path d="M1464.51 560.084L662.587 292.44L653.784 289.491H529.387V289.398H459.1L442.6 304.931L424.763 321.8L51.1123 674.618V752.832L424.809 400.014L481.73 346.273V346.366H644.612L1446.53 614.01V808.371L1443.76 810.998L1429.66 824.318L1426.85 826.945L1412.79 840.219L1395.88 856.166L1393.07 858.793L1379.01 872.113L1376.57 874.418L1364.95 885.387L1362.14 888.06L1348.45 901.012L1348.08 901.334L1334.02 914.654L1331.21 917.327L1328.4 919.954L1317.16 930.601L1314.34 933.274L1300.24 946.548L1297.43 949.222L1283.37 962.541L1276.32 969.178L1269.27 975.815L1267.89 977.198L1266.46 978.535L1252.35 991.809L1238.3 1005.13L1232.67 1010.43L1221.43 1021.03L1218.75 1023.56L1218.57 1023.7L1207.32 1034.3L1204.51 1036.98L1201.65 1039.6L1190.41 1050.25L1187.55 1052.88L1173.49 1066.15L1170.77 1068.73L1170.68 1068.82L1169.94 1069.52L1156.62 1082.1L1139.71 1098.05L1136.9 1100.67L1125.65 1111.32L1122.84 1113.99L1108.74 1127.27L1105.93 1129.94L1094.68 1140.59L1091.87 1143.26L1077.76 1156.53L1074.95 1159.21L1072.1 1161.83L1060.85 1172.48L1057.99 1175.11L1043.94 1188.43L1041.12 1191.1L1029.88 1201.7L1028.03 1203.5L1027.07 1204.42L1012.96 1217.7L1010.15 1220.32L998.905 1230.97L996.094 1233.6L982.036 1246.87L980.654 1248.25L979.225 1249.59L976.413 1252.22L967.979 1260.19L965.167 1262.86L962.356 1265.49L948.252 1278.81L945.441 1281.44L934.195 1292.08L931.383 1294.76L917.28 1308.03L914.468 1310.7L903.223 1321.35L900.411 1324.02L886.354 1337.3L883.542 1339.97L880.685 1342.64L869.439 1353.25L866.581 1355.87L855.335 1366.52L852.524 1369.15L849.666 1371.82L838.42 1382.42L835.563 1385.09L821.459 1398.37L818.648 1400.99L804.544 1414.31L790.441 1427.59L789.058 1428.97L788.459 1429.52H871.328L874.601 1426.44L877.412 1423.81L888.704 1413.16L891.516 1410.54L894.373 1407.91L905.619 1397.26L908.477 1394.63L919.723 1383.99L922.58 1381.36L925.392 1378.69L939.495 1365.41L942.307 1362.79L953.553 1352.14L956.364 1349.51L970.422 1336.24L973.279 1333.57L984.525 1322.96L987.337 1320.29L1001.44 1306.97L1004.25 1304.34L1007.06 1301.67L1015.54 1293.7L1018.36 1291.02L1021.17 1288.35L1035.27 1275.08L1038.08 1272.4L1049.33 1261.76L1052.14 1259.08L1066.2 1245.81L1069.01 1243.18L1080.25 1232.54L1083.07 1229.91L1097.17 1216.59L1099.98 1213.96L1111.23 1203.32L1116.9 1198.01L1131 1184.69L1133.81 1182.07L1145.06 1171.42L1147.87 1168.79L1161.97 1155.52L1164.78 1152.85L1176.03 1142.2L1178.84 1139.53L1195.76 1123.58L1209.86 1110.31L1212.67 1107.68L1226.77 1094.36L1229.59 1091.69L1240.83 1081.04L1243.64 1078.37L1246.5 1075.74L1257.75 1065.09L1260.6 1062.42L1271.85 1051.77L1274.66 1049.14L1277.52 1046.47L1291.62 1033.15L1305.73 1019.88L1308.54 1017.2L1322.59 1003.93L1336.7 990.61L1339.51 987.983L1353.61 974.709L1356.42 972.036L1367.67 961.389L1373.29 956.089L1387.4 942.769L1401.5 929.495L1404.31 926.868L1418.42 913.548L1432.52 900.228L1435.33 897.555L1452.2 881.654L1466.3 868.334L1469.16 865.661L1476.9 858.332L1503.68 849.437V572.897L1465.01 559.992L1464.51 560.084Z" fill="#091F11"/>
<path d="M644.613 518.65V903.593L1276.32 716.606V705.682L644.613 518.65ZM701.534 827.452V594.882L1094.36 711.167L701.534 827.452ZM644.613 518.65V903.593L1276.32 716.606V705.682L644.613 518.65ZM701.534 827.452V594.882L1094.36 711.167L701.534 827.452ZM644.613 518.65V903.593L1276.32 716.606V705.682L644.613 518.65ZM701.534 827.452V594.882L1094.36 711.167L701.534 827.452ZM644.613 518.65V903.593L1276.32 716.606V705.682L644.613 518.65ZM701.534 827.452V594.882L1094.36 711.167L701.534 827.452ZM644.613 518.65V903.593L1276.32 716.606V705.682L644.613 518.65ZM701.534 827.452V594.882L1094.36 711.167L701.534 827.452ZM644.613 518.65V903.593L1276.32 716.606V705.682L644.613 518.65ZM701.534 827.452V594.882L1094.36 711.167L701.534 827.452ZM644.613 518.65V903.593L1276.32 716.606V705.682L644.613 518.65ZM701.534 827.452V594.882L1094.36 711.167L701.534 827.452ZM644.613 518.65V903.593L1276.32 716.606V705.682L644.613 518.65ZM701.534 827.452V594.882L1094.36 711.167L701.534 827.452ZM644.613 518.65V903.593L1276.32 716.606V705.682L644.613 518.65ZM701.534 827.452V594.882L1094.36 711.167L701.534 827.452ZM644.613 518.65V903.593L1276.32 716.606V705.682L644.613 518.65ZM701.534 827.452V594.882L1094.36 711.167L701.534 827.452ZM644.613 518.65V903.593L1276.32 716.606V705.682L644.613 518.65ZM701.534 827.452V594.882L1094.36 711.167L701.534 827.452ZM644.613 518.65V903.593L1276.32 716.606V705.682L644.613 518.65ZM701.534 827.452V594.882L1094.36 711.167L701.534 827.452ZM644.613 518.65V903.593L1276.32 716.606V705.682L644.613 518.65ZM701.534 827.452V594.882L1094.36 711.167L701.534 827.452ZM644.613 518.65V903.593L1276.32 716.606V705.682L644.613 518.65ZM701.534 827.452V594.882L1094.36 711.167L701.534 827.452ZM644.613 518.65V903.593L1276.32 716.606V705.682L644.613 518.65ZM701.534 827.452V594.882L1094.36 711.167L701.534 827.452ZM644.613 518.65V903.593L1276.32 716.606V705.682L644.613 518.65ZM701.534 827.452V594.882L1094.36 711.167L701.534 827.452ZM1503.22 572.897L1464.55 559.992L662.634 292.302L653.831 289.398H459.148L442.647 304.931L424.811 321.8V1132.89H653.831L662.634 1129.99L1302.27 916.498L1348.36 901.104L1464.55 862.296L1503.22 849.391V572.99H1503.45L1503.22 572.897ZM644.613 1075.97H481.732V346.319H644.613L1446.53 613.964V808.325L644.613 1075.97ZM644.613 903.593L1276.32 716.606V705.682L644.613 518.65V903.593ZM701.534 594.836L1094.36 711.121L701.534 827.406V594.836ZM644.613 518.65V903.593L1276.32 716.606V705.682L644.613 518.65ZM701.534 827.452V594.882L1094.36 711.167L701.534 827.452ZM644.613 518.65V903.593L1276.32 716.606V705.682L644.613 518.65ZM701.534 827.452V594.882L1094.36 711.167L701.534 827.452ZM644.613 518.65V903.593L1276.32 716.606V705.682L644.613 518.65ZM701.534 827.452V594.882L1094.36 711.167L701.534 827.452ZM644.613 518.65V903.593L1276.32 716.606V705.682L644.613 518.65ZM701.534 827.452V594.882L1094.36 711.167L701.534 827.452ZM644.613 518.65V903.593L1276.32 716.606V705.682L644.613 518.65ZM701.534 827.452V594.882L1094.36 711.167L701.534 827.452ZM644.613 518.65V903.593L1276.32 716.606V705.682L644.613 518.65ZM701.534 827.452V594.882L1094.36 711.167L701.534 827.452ZM644.613 518.65V903.593L1276.32 716.606V705.682L644.613 518.65ZM701.534 827.452V594.882L1094.36 711.167L701.534 827.452ZM644.613 518.65V903.593L1276.32 716.606V705.682L644.613 518.65ZM701.534 827.452V594.882L1094.36 711.167L701.534 827.452ZM644.613 518.65V903.593L1276.32 716.606V705.682L644.613 518.65ZM701.534 827.452V594.882L1094.36 711.167L701.534 827.452ZM644.613 518.65V903.593L1276.32 716.606V705.682L644.613 518.65ZM701.534 827.452V594.882L1094.36 711.167L701.534 827.452ZM644.613 518.65V903.593L1276.32 716.606V705.682L644.613 518.65ZM701.534 827.452V594.882L1094.36 711.167L701.534 827.452ZM644.613 518.65V903.593L1276.32 716.606V705.682L644.613 518.65ZM701.534 827.452V594.882L1094.36 711.167L701.534 827.452Z" fill="#091F11"/>
<path d="M1503.22 849.159V849.528L894.003 1429.62H394.158L1302.27 916.45L1376.47 874.509L1467.73 822.934L1503.17 849.159H1503.22Z" fill="#091F11"/>
<mask id="mask0_740_156" style="mask-type:luminance" maskUnits="userSpaceOnUse" x="841" y="1657" width="1850" height="341">
<path d="M2690.68 1657.25H841.141V1997.3H2690.68V1657.25Z" fill="white"/>
</mask>
<g mask="url(#mask0_740_156)">
<path d="M912.718 1665.69H841.141V1988.96H1193.04V1920.75H912.764V1665.73L912.718 1665.69Z" fill="#091F11"/>
<path d="M2335.56 1665.69H2263.43V1988.96H2335.56L2690.68 1870.37V1784.28L2335.56 1665.69ZM2615.33 1829.72L2335.56 1912.59V1742.06L2615.33 1824.93V1829.81V1829.72Z" fill="#091F11"/>
<path d="M2119.12 1665.69V1903.65L2034.36 1932.78L1923.51 1933.52L1836.54 1903.6V1665.64H1764.18V1948.4L1905.68 1997.3H2049.94L2191.44 1948.4V1665.64H2119.03L2119.12 1665.69Z" fill="#091F11"/>
<path d="M1550.69 1657.25H1406.43L1264.94 1706.15V1948.36L1406.43 1997.26H1550.69L1692.19 1948.36V1706.15L1550.69 1657.25ZM1535.12 1932.78L1424.27 1933.52L1337.3 1903.6V1750.95L1422.06 1721.83L1532.9 1721.09L1619.88 1751V1903.7L1535.12 1932.82V1932.78Z" fill="#091F11"/>
</g>
<path d="M3267.08 722.69C3261.65 664.709 3243.07 608.526 3211.68 555.107C3208 548.793 3204.13 542.571 3200.12 536.395C3190.02 520.955 3178.96 505.93 3166.84 491.365C3136.6 454.862 3100.24 421.262 3058.11 390.889C2926.39 296.036 2752.31 243.217 2567.03 241.742C2564.81 241.742 2562.6 241.742 2560.39 241.742C2558.82 241.742 2557.25 241.742 2555.69 241.742H2554.77C2554.17 241.742 2553.61 241.742 2553.01 241.742C2552.05 241.742 2551.03 241.742 2550.06 241.742C2549.65 241.742 2549.23 241.742 2548.77 241.742C2364.28 243.586 2190.93 296.405 2059.71 390.889C2017.59 421.262 1981.18 454.862 1950.99 491.365C1938.91 505.93 1927.8 520.955 1917.76 536.395C1913.75 542.571 1909.88 548.793 1906.19 555.107C1874.8 608.48 1856.23 664.709 1850.79 722.69C1849.64 734.766 1849.08 746.934 1849.08 759.147C1849.08 762.005 1849.08 764.863 1849.22 767.72C1850.7 835.565 1869.87 901.289 1906.23 963.187C1907.43 965.261 1908.68 967.336 1909.97 969.41C1919.37 984.85 1929.69 999.875 1941.03 1014.44C1973.11 1055.78 2012.89 1093.58 2059.76 1127.36C2191.02 1221.84 2364.32 1274.66 2548.82 1276.51C2549.23 1276.51 2549.65 1276.51 2550.11 1276.51C2551.08 1276.51 2552.09 1276.51 2553.06 1276.51C2553.66 1276.51 2554.21 1276.51 2554.81 1276.51H2555.73C2557.3 1276.51 2558.87 1276.51 2560.43 1276.51C2562.65 1276.51 2564.86 1276.51 2567.07 1276.51C2752.31 1275.03 2926.43 1222.21 3058.16 1127.36C3105.08 1093.58 3144.81 1055.74 3176.89 1014.44C3188.23 999.875 3198.6 984.804 3208 969.41C3209.24 967.336 3210.49 965.261 3211.73 963.187C3248.1 901.289 3267.27 835.518 3268.7 767.72C3268.79 764.863 3268.84 762.005 3268.84 759.147C3268.84 746.934 3268.28 734.766 3267.13 722.69H3267.08ZM3221.82 722.69H3088.35C3083.74 657.335 3066.69 594.376 3038.43 536.441H3145.13C3187.67 592.717 3214.63 655.768 3221.82 722.69ZM2842.23 722.69C2839.74 657.335 2830.52 594.33 2815.27 536.441H2987.32C3018.29 592.717 3037.93 655.768 3043.18 722.69H2842.23ZM2771.99 969.41H2334.23C2317.96 907.326 2309.06 838.837 2308.37 767.72H2797.8C2797.15 838.837 2788.26 907.326 2771.94 969.41H2771.99ZM2383.91 1098.42C2370.04 1072.7 2357.92 1044.54 2347.73 1014.44H2758.48C2748.3 1044.54 2736.18 1072.7 2722.3 1098.42C2676.54 1183.22 2617.36 1230.37 2555.46 1231.52C2552.32 1231.52 2549.19 1231.43 2546.05 1231.34C2485.91 1227.93 2428.57 1181.05 2383.96 1098.42H2383.91ZM2337.64 536.441H2768.58C2784.75 593.731 2794.53 656.828 2797.15 722.69H2309.11C2311.73 656.828 2321.46 593.685 2337.68 536.441H2337.64ZM2546.01 286.956C2549.14 286.864 2552.28 286.818 2555.41 286.772C2617.31 287.924 2676.49 335.074 2722.26 419.88C2734.19 442.003 2744.84 465.923 2754.06 491.365H2352.06C2361.28 465.923 2371.93 442.003 2383.86 419.88C2428.48 337.24 2485.82 290.367 2545.96 286.956H2546.01ZM2801.76 491.411C2790.61 458.134 2777.29 426.978 2761.89 398.54C2741.52 360.838 2718.43 329.405 2693.36 304.885C2802.54 335.305 2896.11 402.319 2959.11 491.411H2801.76ZM2344.27 398.494C2328.92 426.931 2315.56 458.134 2304.45 491.365H2161.8C2220.75 408.035 2306.39 344.062 2406.54 311.2C2383.86 334.706 2362.94 363.927 2344.32 398.494H2344.27ZM2290.95 536.441C2275.65 594.376 2266.47 657.381 2263.98 722.69H2077.69C2082.94 655.768 2102.58 592.717 2133.55 536.441H2290.95ZM2263.34 767.72C2263.98 838.33 2272.37 906.635 2287.81 969.41H2126.96C2095.76 908.479 2077.69 840.035 2076.35 767.72H2263.34ZM2300.4 1014.44C2312.33 1052.42 2327.04 1087.81 2344.27 1119.8C2362.94 1154.32 2383.86 1183.54 2406.49 1207.05C2301.41 1172.57 2212.27 1103.81 2153.23 1014.44H2300.4ZM2761.89 1119.85C2779.18 1087.86 2793.88 1052.46 2805.82 1014.49H2967.64C2904.68 1109.75 2807.57 1181.61 2693.4 1213.46C2718.48 1188.94 2741.57 1157.55 2761.94 1119.85H2761.89ZM2818.4 969.41C2833.84 906.635 2842.23 838.33 2842.87 767.72H3044.52C3043.18 840.035 3025.11 908.479 2993.91 969.41H2818.4ZM3106.37 491.411H3013.5C2991.61 456.06 2965.15 423.106 2934.45 393.101C2916.34 375.403 2897.17 359.179 2877.03 344.431C2968.65 380.058 3047.28 430.573 3106.37 491.411ZM2247.12 342.034C2225.78 357.382 2205.5 374.435 2186.42 393.101C2155.77 423.06 2129.31 456.06 2107.37 491.411H2011.55C2071.97 429.236 2152.77 377.8 2247.12 342.08V342.034ZM1972.83 536.441H2082.48C2054.18 594.376 2037.13 657.381 2032.52 722.69H1896.09C1903.33 655.768 1930.25 592.717 1972.79 536.441H1972.83ZM1894.3 767.72H2031.32C2032.47 838.33 2048.01 906.635 2076.58 969.41H1963.75C1920.94 908.479 1896.14 840.035 1894.34 767.72H1894.3ZM1999.89 1014.44H2099.9C2123.23 1054.49 2152.22 1091.73 2186.46 1125.19C2205.54 1143.81 2225.78 1160.87 2247.07 1176.21C2146.55 1138.1 2061.33 1082.19 1999.89 1014.44ZM2877.12 1173.86C2897.21 1159.12 2916.39 1142.89 2934.5 1125.24C2968.74 1091.78 2997.74 1054.54 3021.06 1014.49H3118.12C3057.93 1080.85 2974.97 1135.84 2877.12 1173.91V1173.86ZM3154.21 969.41H3044.29C3072.86 906.635 3088.39 838.33 3089.55 767.72H3223.62C3221.82 840.035 3197.03 908.479 3154.21 969.41Z" fill="#091F11"/>
<path d="M2944.36 1884.89C2956.94 1876.09 2972.43 1863 2985.01 1850.6C2996.03 1839.59 3000.5 1830.97 3000.5 1820.27C3000.5 1810.27 2995.34 1804.79 2986.53 1804.79C2977.73 1804.79 2972.06 1810.83 2972.06 1820.96C2972.06 1823.55 2972.38 1826.63 2972.94 1829.4L2945.56 1826.45C2945.05 1823.68 2944.87 1821.79 2944.87 1819.72C2944.87 1797.51 2961.41 1782.85 2987.09 1782.85C3012.76 1782.85 3028.29 1795.94 3028.29 1819.21C3028.29 1833.32 3022.44 1845.07 3009.16 1858.34C3000.22 1867.15 2990.73 1874.89 2978.51 1883.14H3030.55V1905.22H2944.41V1884.89H2944.36Z" fill="#091F11"/>
<path d="M3101.48 1878.86H3047.05V1860.1L3096.51 1785.48H3127.02V1858.53H3143.89V1878.86H3127.02V1905.22H3101.53V1878.86H3101.48ZM3101.48 1858.53V1824.61C3101.48 1819.63 3101.48 1815.48 3101.99 1808.75H3101.81C3099.92 1814.1 3098.35 1817.19 3094.89 1822.21L3076.64 1849.77C3073.88 1853.92 3071.99 1856.5 3069.91 1858.58H3101.44L3101.48 1858.53Z" fill="#091F11"/>
<path d="M364.987 1884.89C377.57 1876.09 393.056 1863 405.639 1850.6C416.654 1839.59 421.125 1830.97 421.125 1820.27C421.125 1810.27 415.963 1804.79 407.16 1804.79C398.356 1804.79 392.687 1810.83 392.687 1820.96C392.687 1823.55 393.01 1826.63 393.563 1829.4L366.186 1826.45C365.679 1823.68 365.494 1821.79 365.494 1819.72C365.494 1797.51 382.041 1782.85 407.713 1782.85C433.385 1782.85 448.917 1795.94 448.917 1819.21C448.917 1833.32 443.064 1845.07 429.79 1858.34C420.848 1867.15 411.354 1874.89 399.14 1883.14H451.175V1905.22H365.033V1884.89H364.987Z" fill="#091F11"/>
<path d="M563.311 1845.44C563.311 1889.55 545.566 1907.8 516.115 1907.8C486.664 1907.8 468.919 1889.55 468.919 1845.44C468.919 1801.33 486.664 1782.9 516.115 1782.9C545.566 1782.9 563.311 1801.15 563.311 1845.44ZM496.296 1845.44C496.296 1850.97 496.619 1855.95 496.988 1860.28L531.463 1813.59C528.191 1806.03 523.029 1803.08 516.115 1803.08C503.21 1803.08 496.481 1813.08 496.296 1845.49V1845.44ZM535.934 1845.44C535.934 1838.53 535.611 1832.67 534.874 1827.7L499.891 1874.89C503.164 1884.2 508.51 1887.66 516.069 1887.66C528.974 1887.66 535.703 1877.52 535.888 1845.44H535.934Z" fill="#091F11"/>
</g>
<defs>
<clipPath id="clip0_740_156">
<rect width="3482" height="2253.93" fill="white"/>
</clipPath>
</defs>
</svg>
