<svg width="3770" height="1943" viewBox="0 0 3770 1943" fill="none" xmlns="http://www.w3.org/2000/svg">
<g clip-path="url(#clip0_740_408)">
<path d="M3327.73 254.567H200.045C120.931 254.567 56.5547 318.944 56.5547 398.058V1742.05C56.5547 1821.17 120.931 1885.54 200.045 1885.54H3327.73C3406.84 1885.54 3471.22 1821.17 3471.22 1742.05V398.058C3471.22 318.944 3406.84 254.567 3327.73 254.567ZM149.186 392.859C149.005 394.577 148.915 396.295 148.915 398.103L149.186 392.859Z" fill="white"/>
<path d="M3327.73 254.568C3406.84 254.568 3471.22 318.944 3471.22 398.058V1742.05C3471.22 1821.17 3406.84 1885.54 3327.73 1885.54H200.046C120.932 1885.54 56.5554 1821.17 56.5554 1742.05V398.058C56.5554 318.944 120.932 254.568 200.046 254.568H3327.73ZM3378.18 389.695C3378.14 389.288 3378.05 388.926 3378 388.519C3378.09 388.926 3378.14 389.288 3378.18 389.695ZM3327.73 198.012H200.046C89.7382 198.012 0 287.75 0 398.058V1742.05C0 1852.36 89.7382 1942.1 200.046 1942.1H3327.73C3438.04 1942.1 3527.78 1852.36 3527.78 1742.05V398.058C3527.78 287.75 3438.04 198.012 3327.73 198.012ZM200.498 398.058H205.471C205.471 398.058 205.471 398.375 205.471 398.556L200.543 398.058H200.498Z" fill="#091F11"/>
<path d="M3452.23 107.957H324.549C245.435 107.957 181.059 172.333 181.059 251.448V1595.44C181.059 1674.56 245.435 1738.93 324.549 1738.93H3452.23C3531.35 1738.93 3595.72 1674.56 3595.72 1595.44V251.493C3595.72 172.378 3531.35 108.002 3452.23 108.002V107.957ZM273.69 246.249C273.509 247.967 273.419 249.684 273.419 251.493L273.69 246.249Z" fill="#00FF3B"/>
<path d="M3452.23 107.958C3531.35 107.958 3595.72 172.334 3595.72 251.449V1595.44C3595.72 1674.56 3531.35 1738.93 3452.23 1738.93H324.55C245.436 1738.93 181.059 1674.56 181.059 1595.44V251.494C181.059 172.38 245.436 108.003 324.55 108.003H3452.23M3502.64 243.085C3502.59 242.678 3502.5 242.317 3502.46 241.91C3502.55 242.317 3502.59 242.678 3502.64 243.085ZM3452.23 51.4026H324.55C214.242 51.4026 124.504 141.141 124.504 251.449V1595.44C124.504 1705.75 214.242 1795.49 324.55 1795.49H3452.23C3562.54 1795.49 3652.28 1705.75 3652.28 1595.44V251.494C3652.28 141.186 3562.54 51.4478 3452.23 51.4478V51.4026ZM325.002 251.494H329.975C329.975 251.494 329.975 251.81 329.975 251.991L325.047 251.494H325.002Z" fill="#091F11"/>
<path d="M3664.26 46.9258H433.953C404.794 46.9258 381.195 70.5697 381.195 99.6837V1487.8C381.195 1516.96 404.839 1540.56 433.953 1540.56H3664.26C3693.42 1540.56 3717.02 1516.91 3717.02 1487.8V99.6837C3717.02 70.5244 3693.37 46.9258 3664.26 46.9258Z" fill="white"/>
<path d="M3620.23 115.598H453.076V735.176H3620.23V115.598Z" fill="#00FF3B"/>
<path d="M762.889 140.462H478.801V429.071H762.889V140.462Z" fill="#091F11"/>
<path d="M1330.97 140.462H1046.89V429.071H1330.97V140.462Z" fill="#091F11"/>
<path d="M1046.93 428.98H762.844V717.589H1046.93V428.98Z" fill="#091F11"/>
<path d="M1898.92 140.462H1614.84V429.071H1898.92V140.462Z" fill="#091F11"/>
<path d="M1614.88 428.98H1330.79V717.589H1614.88V428.98Z" fill="#091F11"/>
<path d="M2466.92 140.462H2182.83V429.071H2466.92V140.462Z" fill="#091F11"/>
<path d="M2182.92 428.98H1898.83V717.589H2182.92V428.98Z" fill="#091F11"/>
<path d="M3034.92 140.462H2750.83V429.071H3034.92V140.462Z" fill="#091F11"/>
<path d="M2750.92 428.98H2466.83V717.589H2750.92V428.98Z" fill="#091F11"/>
<path d="M3603.05 140.462H3318.96V429.071H3603.05V140.462Z" fill="#091F11"/>
<path d="M3603.04 140.462V712.979H480.742V140.462H3603M3634.83 108.636H448.961V744.76H3634.87V108.636H3634.83Z" fill="#091F11"/>
<path d="M3640.16 750.095H443.627V103.346H3640.12V750.095H3640.16ZM454.251 739.471H3629.54V113.97H454.251V739.516V739.471ZM3608.33 718.268H475.454V135.173H3608.33V718.268ZM486.032 707.644H3597.71V145.752H486.032V707.644Z" fill="#091F11"/>
<path d="M3319 428.98H3034.92V717.589H3319V428.98Z" fill="black"/>
<mask id="mask0_740_408" style="mask-type:luminance" maskUnits="userSpaceOnUse" x="481" y="857" width="3148" height="580">
<path d="M3629 857.871H481.197V1436.63H3628.95V857.871H3629Z" fill="white"/>
</mask>
<g mask="url(#mask0_740_408)">
<path d="M603.033 872.156H481.197V1422.29H1080.07V1306.2H603.033V872.156Z" fill="#091F11"/>
<path d="M3024.56 872.156H2901.78V1422.29H3024.56L3629 1220.49V1073.97L3024.56 872.156ZM3500.74 1151.32L3024.56 1292.32V1002.08L3500.74 1143.09V1151.41V1151.32Z" fill="#091F11"/>
<path d="M2656.21 872.156V1277.13L2511.99 1326.72L2323.38 1327.99L2175.37 1277.13V872.156H2052.27V1353.35L2293.09 1436.58H2538.62L2779.44 1353.35V872.156H2656.25H2656.21Z" fill="#091F11"/>
<path d="M1688.84 857.871H1443.32L1202.49 941.099V1353.31L1443.32 1436.54H1688.84L1929.67 1353.31V941.099L1688.84 857.871ZM1662.3 1326.72L1473.7 1327.99L1325.68 1277.13V1017.32L1469.9 967.726L1658.55 966.461L1806.56 1017.32V1277.18L1662.35 1326.77V1326.68L1662.3 1326.72Z" fill="#091F11"/>
</g>
<path d="M3574.7 51.6277C3651.96 51.6277 3714.8 110.398 3714.8 182.596V1409.09C3714.8 1481.29 3651.96 1540.06 3574.7 1540.06H521.385C444.124 1540.06 381.285 1481.29 381.285 1409.09V182.551C381.285 110.353 444.124 51.5825 521.385 51.5825H3574.65M3574.7 0H521.385C413.699 0 326.086 81.9172 326.086 182.551V1409.05C326.086 1509.73 413.699 1591.6 521.385 1591.6H3574.65C3682.34 1591.6 3769.95 1509.68 3769.95 1409.05V182.551C3769.95 81.872 3682.34 0 3574.65 0H3574.7ZM521.837 182.551H526.675C526.675 182.551 526.675 182.867 526.675 183.003L521.837 182.551Z" fill="#091F11"/>
</g>
<defs>
<clipPath id="clip0_740_408">
<rect width="3770" height="1942.14" fill="white"/>
</clipPath>
</defs>
</svg>
