<svg width="6307" height="3013" viewBox="0 0 6307 3013" fill="none" xmlns="http://www.w3.org/2000/svg">
<g clip-path="url(#clip0_742_561)">
<path d="M5963.19 293.502H299.227V1401.51H5963.19V293.502Z" fill="#00FF3B"/>
<path d="M6041.94 170.689H265.05C212.924 170.689 170.686 212.928 170.686 265.054V2747.42C170.686 2799.55 212.924 2841.78 265.05 2841.78H6041.94C6094.07 2841.78 6136.31 2799.55 6136.31 2747.42V265.054C6136.31 212.928 6094.07 170.689 6041.94 170.689Z" fill="white"/>
<path d="M853.279 337.909H345.201V853.967H853.279V337.909Z" fill="#091F11"/>
<path d="M1869.16 337.909H1361.09V853.967H1869.16V337.909Z" fill="#091F11"/>
<path d="M1361.26 853.966H853.178V1370.02H1361.26V853.966Z" fill="#091F11"/>
<path d="M2884.88 337.909H2376.8V853.967H2884.88V337.909Z" fill="#091F11"/>
<path d="M2376.99 853.966H1868.91V1370.02H2376.99V853.966Z" fill="#091F11"/>
<path d="M3900.7 337.909H3392.62V853.967H3900.7V337.909Z" fill="#091F11"/>
<path d="M3392.79 853.966H2884.71V1370.02H3392.79V853.966Z" fill="#091F11"/>
<path d="M4916.5 337.909H4408.43V853.967H4916.5V337.909Z" fill="#091F11"/>
<path d="M4408.61 853.966H3900.53V1370.02H4408.61V853.966Z" fill="#091F11"/>
<path d="M5932.4 337.909H5424.33V853.967H5932.4V337.909Z" fill="#091F11"/>
<path d="M5932.41 337.909V1361.78H348.756V337.909H5932.49H5932.41ZM5989.3 281.013H291.859V1418.59H5989.3V281.013Z" fill="#091F11"/>
<path d="M5998.85 1428.13H282.406V271.559H5998.85V1428.13ZM301.314 1409.14H5979.85V290.553H301.314V1409.23V1409.14ZM5941.95 1371.24H339.303V328.455H5941.95V1371.24ZM358.21 1352.33H5922.96V347.363H358.21V1352.24V1352.33Z" fill="#091F11"/>
<path d="M5424.49 853.966H4916.42V1370.02H5424.49V853.966Z" fill="#091F11"/>
<mask id="mask0_742_561" style="mask-type:luminance" maskUnits="userSpaceOnUse" x="349" y="1620" width="5630" height="1036">
<path d="M5978.9 1620.94H349.537V2655.92H5978.81V1620.94H5978.9Z" fill="white"/>
</mask>
<g mask="url(#mask0_742_561)">
<path d="M567.495 1646.44H349.623V2630.33H1420.59V2422.69H567.495V1646.44Z" fill="#091F11"/>
<path d="M4897.95 1646.44H4678.43V2630.33H4897.95L5978.89 2269.44V2007.42L4897.95 1646.53V1646.44ZM5749.49 2145.76L4897.95 2397.98V1878.97L5749.49 2131.19V2146.02V2145.84V2145.76Z" fill="#091F11"/>
<path d="M4239.22 1646.44V2370.65L3981.28 2459.38L3643.89 2461.64L3379.18 2370.65V1646.44H3158.97V2507L3589.68 2655.83H4028.81L4459.52 2507V1646.44H4239.22Z" fill="#091F11"/>
<path d="M2509.26 1620.94H2070.14L1639.43 1769.77V2506.91L2070.14 2655.74H2509.26L2939.98 2506.91V1769.77L2509.26 1620.94ZM2461.82 2459.38L2124.43 2461.64L1859.73 2370.65V1906.03L2117.67 1817.39L2455.06 1815.13L2719.76 1906.12V2370.83L2461.82 2459.47V2459.38Z" fill="#091F11"/>
</g>
<path d="M6041.95 170.689C6094.07 170.689 6136.31 212.928 6136.31 265.054V2747.42C6136.31 2799.55 6094.07 2841.78 6041.95 2841.78H265.054C212.928 2841.78 170.689 2799.55 170.689 2747.42V265.054C170.689 212.928 212.928 170.689 265.054 170.689H6041.95ZM6041.95 0H265.054C118.91 0 0 118.91 0 265.054V2747.42C0 2893.56 118.91 3012.47 265.054 3012.47H6041.95C6188.09 3012.47 6307 2893.56 6307 2747.42V265.054C6307 118.91 6188.09 0 6041.95 0Z" fill="#091F11"/>
</g>
<defs>
<clipPath id="clip0_742_561">
<rect width="6307" height="3012.47" fill="white"/>
</clipPath>
</defs>
</svg>
