<svg width="8021" height="1216" viewBox="0 0 8021 1216" fill="none" xmlns="http://www.w3.org/2000/svg">
<g clip-path="url(#clip0_742_409)">
<path d="M6874.52 56.3304C7152.7 56.3304 7415.85 106.378 7615.48 197.286C7840.54 299.764 7964.47 445.617 7964.47 608.022C7964.47 770.427 7840.54 916.279 7615.48 1018.76C7415.9 1109.67 7152.75 1159.71 6874.52 1159.71C6596.29 1159.71 6333.18 1109.67 6133.56 1018.76C6046.81 979.282 5975.18 933.308 5919.8 882.437C5864.43 933.265 5792.76 979.239 5706.05 1018.76C5506.47 1109.67 5243.32 1159.71 4965.09 1159.71C4686.86 1159.71 4423.76 1109.67 4224.13 1018.76C4137.38 979.282 4065.75 933.308 4010.38 882.437C3955 933.265 3883.33 979.239 3796.63 1018.76C3597.04 1109.67 3333.89 1159.71 3055.66 1159.71C2777.44 1159.71 2514.33 1109.67 2314.7 1018.76C2227.95 979.282 2156.33 933.308 2100.95 882.437C2045.57 933.265 1973.9 979.239 1887.2 1018.76C1687.62 1109.67 1424.47 1159.71 1146.24 1159.71C868.008 1159.71 604.902 1109.67 405.276 1018.76C180.214 916.279 56.2871 770.427 56.2871 608.022C56.2871 445.617 180.214 299.764 405.276 197.286C604.858 106.378 868.008 56.3304 1146.24 56.3304C1424.47 56.3304 1687.57 106.378 1887.2 197.286C1973.95 236.761 2045.57 282.735 2100.95 333.563C2156.33 282.735 2228 236.761 2314.7 197.286C2514.29 106.378 2777.44 56.3304 3055.66 56.3304C3333.89 56.3304 3597 106.378 3796.63 197.286C3883.37 236.761 3955 282.735 4010.38 333.563C4065.75 282.735 4137.42 236.761 4224.13 197.286C4423.71 106.378 4686.86 56.3304 4965.09 56.3304C5243.32 56.3304 5506.43 106.378 5706.05 197.286C5792.8 236.761 5864.43 282.735 5919.8 333.563C5975.18 282.735 6046.85 236.761 6133.56 197.286C6333.14 106.378 6596.29 56.3304 6874.52 56.3304ZM6874.52 1058.01C7420.32 1058.01 7862.77 856.525 7862.77 608.022C7862.77 359.518 7420.32 158.028 6874.52 158.028C6485.36 158.028 6148.81 260.463 5987.66 409.305C6031.95 471.052 6055.04 537.999 6055.04 608.022C6055.04 678.045 6031.95 744.991 5987.66 806.738C6148.85 955.58 6485.41 1058.01 6874.52 1058.01ZM4965.09 1058.01C5354.25 1058.01 5690.8 955.58 5851.95 806.738C5807.66 744.991 5784.57 678.045 5784.57 608.022C5784.57 537.999 5807.66 471.052 5851.95 409.305C5690.76 260.463 5354.2 158.028 4965.09 158.028C4575.98 158.028 4239.38 260.463 4078.23 409.305C4122.52 471.052 4145.61 537.999 4145.61 608.022C4145.61 678.045 4122.52 744.991 4078.23 806.738C4239.43 955.58 4575.98 1058.01 4965.09 1058.01ZM3055.66 1058.01C3444.82 1058.01 3781.37 955.58 3942.52 806.738C3898.24 744.991 3875.14 678.045 3875.14 608.022C3875.14 537.999 3898.24 471.052 3942.52 409.305C3781.33 260.463 3444.78 158.028 3055.66 158.028C2666.55 158.028 2329.96 260.463 2168.81 409.305C2213.09 471.052 2236.19 537.999 2236.19 608.022C2236.19 678.045 2213.09 744.991 2168.81 806.738C2330 955.58 2666.55 1058.01 3055.66 1058.01ZM1146.28 1058.01C1535.44 1058.01 1871.99 955.58 2033.14 806.738C1988.85 744.991 1965.76 678.045 1965.76 608.022C1965.76 537.999 1988.85 471.052 2033.14 409.305C1871.95 260.463 1535.39 158.028 1146.28 158.028C600.482 158.028 158.028 359.518 158.028 608.022C158.028 856.525 600.482 1058.01 1146.28 1058.01ZM5919.8 724.582C5941.64 687.404 5953.39 648.32 5953.39 607.978C5953.39 567.637 5941.69 528.596 5919.8 491.374C5897.97 528.552 5886.22 567.637 5886.22 607.978C5886.22 648.32 5897.92 687.361 5919.8 724.582ZM4010.38 724.582C4032.22 687.404 4043.96 648.32 4043.96 607.978C4043.96 567.637 4032.26 528.596 4010.38 491.374C3988.54 528.552 3976.8 567.637 3976.8 607.978C3976.8 648.32 3988.5 687.361 4010.38 724.582ZM2100.95 724.582C2122.79 687.404 2134.53 648.32 2134.53 607.978C2134.53 567.637 2122.83 528.596 2100.95 491.374C2079.11 528.552 2067.37 567.637 2067.37 607.978C2067.37 648.32 2079.07 687.361 2100.95 724.582ZM6874.52 0C6588.45 0 6317.02 51.8673 6110.24 146.026C6037.15 179.304 5973.28 217.435 5919.8 259.683C5866.33 217.435 5802.51 179.304 5729.36 146.026C5522.59 51.8673 5251.16 0 4965.09 0C4679.02 0 4407.59 51.8673 4200.82 146.026C4127.72 179.304 4063.85 217.435 4010.38 259.683C3956.91 217.435 3893.08 179.304 3819.94 146.026C3613.21 51.8673 3341.78 0 3055.66 0C2769.55 0 2498.17 51.8673 2291.39 146.026C2218.29 179.304 2154.42 217.435 2100.95 259.683C2047.48 217.435 1983.65 179.304 1910.51 146.026C1703.78 51.8673 1432.35 0 1146.28 0C860.209 0 588.739 51.8673 381.963 146.026C135.67 258.167 0 422.218 0 607.978C0 793.739 135.67 957.79 381.963 1069.97C588.739 1164.13 860.165 1216 1146.24 1216C1432.31 1216 1703.73 1164.13 1910.51 1069.97C1983.61 1036.7 2047.48 998.565 2100.95 956.317C2154.42 998.565 2218.25 1036.7 2291.39 1069.97C2498.17 1164.13 2769.59 1216 3055.66 1216C3341.74 1216 3613.16 1164.13 3819.94 1069.97C3893.04 1036.7 3956.91 998.565 4010.38 956.317C4063.85 998.565 4127.67 1036.7 4200.82 1069.97C4407.59 1164.13 4679.02 1216 4965.09 1216C5251.16 1216 5522.59 1164.13 5729.36 1069.97C5802.46 1036.7 5866.33 998.565 5919.8 956.317C5973.28 998.565 6037.1 1036.7 6110.24 1069.97C6317.02 1164.13 6588.45 1216 6874.52 1216C7160.59 1216 7432.02 1164.13 7638.79 1069.97C7885.13 957.79 8020.76 793.739 8020.76 607.978C8020.76 422.218 7885.09 258.167 7638.79 145.982C7432.02 51.8673 7160.59 0 6874.52 0ZM6061.63 420.831C6228.76 294.348 6540 214.315 6874.52 214.315C7130.61 214.315 7370.49 259.336 7550.01 341.059C7713.02 415.285 7806.48 512.563 7806.48 607.978C7806.48 703.393 7713.02 800.715 7550.01 874.898C7370.53 956.62 7130.65 1001.64 6874.52 1001.64C6540 1001.64 6228.8 921.609 6061.63 795.125C6094.65 735.805 6111.37 673.018 6111.37 607.978C6111.37 542.938 6094.69 480.152 6061.63 420.831ZM4152.2 420.831C4319.37 294.348 4630.58 214.315 4965.09 214.315C5299.61 214.315 5610.81 294.348 5777.98 420.831C5744.96 480.152 5728.24 542.938 5728.24 607.978C5728.24 673.018 5744.92 735.805 5777.98 795.125C5610.81 921.609 5299.61 1001.64 4965.09 1001.64C4630.58 1001.64 4319.37 921.609 4152.2 795.125C4185.22 735.805 4201.94 673.018 4201.94 607.978C4201.94 542.938 4185.26 480.152 4152.2 420.831ZM2242.82 420.831C2409.94 294.348 2721.19 214.315 3055.71 214.315C3390.22 214.315 3701.43 294.348 3868.6 420.831C3835.58 480.152 3818.85 542.938 3818.85 607.978C3818.85 673.018 3835.54 735.805 3868.6 795.125C3701.43 921.609 3390.22 1001.64 3055.71 1001.64C2721.19 1001.64 2409.99 921.609 2242.82 795.125C2275.83 735.805 2292.56 673.018 2292.56 607.978C2292.56 542.938 2275.88 480.152 2242.82 420.831ZM1146.28 1001.68C890.194 1001.68 650.313 956.663 470.792 874.941C307.781 800.715 214.315 703.437 214.315 608.022C214.315 512.607 307.781 415.285 470.792 341.102C650.269 259.38 890.15 214.359 1146.28 214.359C1480.8 214.359 1792 294.391 1959.17 420.875C1926.15 480.195 1909.43 542.982 1909.43 608.022C1909.43 673.062 1926.11 735.848 1959.17 795.169C1792 921.652 1480.8 1001.68 1146.28 1001.68Z" fill="#00FF3B"/>
<path d="M1146.28 157.985C1692.08 157.985 2134.53 359.475 2134.53 607.978C2134.53 856.482 1692.08 1057.97 1146.28 1057.97C600.482 1057.97 157.985 856.525 157.985 607.978C157.985 359.431 600.438 157.985 1146.24 157.985M1146.28 56.3304C868.095 56.3304 604.945 106.378 405.319 197.286C180.257 299.764 56.3301 445.617 56.3301 607.978C56.3301 770.34 180.257 916.236 405.319 1018.71C604.902 1109.62 868.051 1159.67 1146.28 1159.67C1424.51 1159.67 1687.62 1109.62 1887.24 1018.71C2112.3 916.236 2236.23 770.383 2236.23 607.978C2236.23 445.574 2112.3 299.721 1887.24 197.243C1687.66 106.335 1424.51 56.2871 1146.28 56.2871V56.3304Z" fill="#091F11"/>
<path d="M3055.67 157.985C3601.46 157.985 4043.92 359.475 4043.92 607.978C4043.92 856.482 3601.46 1057.97 3055.67 1057.97C2509.87 1057.97 2067.41 856.482 2067.41 607.978C2067.41 359.475 2509.87 157.985 3055.67 157.985ZM3055.67 56.3306C2777.48 56.3306 2514.33 106.378 2314.7 197.287C2089.64 299.765 1965.72 445.617 1965.72 608.022C1965.72 770.427 2089.64 916.279 2314.7 1018.76C2514.29 1109.67 2777.44 1159.71 3055.67 1159.71C3333.89 1159.71 3597 1109.67 3796.63 1018.76C4021.69 916.279 4145.62 770.427 4145.62 608.022C4145.62 445.617 4021.69 299.765 3796.63 197.287C3597.04 106.378 3333.89 56.3306 3055.67 56.3306Z" fill="#091F11"/>
<path d="M4965.09 157.985C5510.89 157.985 5953.34 359.475 5953.34 607.978C5953.34 856.482 5510.89 1057.97 4965.09 1057.97C4419.29 1057.97 3976.84 856.482 3976.84 607.978C3976.84 359.475 4419.29 157.985 4965.09 157.985ZM4965.09 56.3306C4686.9 56.3306 4423.75 106.378 4224.13 197.287C3999.07 299.765 3875.14 445.617 3875.14 608.022C3875.14 770.427 3999.07 916.279 4224.13 1018.76C4423.71 1109.67 4686.86 1159.71 4965.09 1159.71C5243.32 1159.71 5506.42 1109.67 5706.05 1018.76C5931.11 916.279 6055.04 770.427 6055.04 608.022C6055.04 445.617 5931.11 299.765 5706.05 197.287C5506.47 106.378 5243.32 56.3306 4965.09 56.3306Z" fill="#091F11"/>
<path d="M6874.52 157.985C7420.31 157.985 7862.77 359.475 7862.77 607.978C7862.77 856.482 7420.31 1057.97 6874.52 1057.97C6328.72 1057.97 5886.26 856.482 5886.26 607.978C5886.26 359.475 6328.72 157.985 6874.52 157.985ZM6874.52 56.3306C6596.33 56.3306 6333.18 106.378 6133.56 197.287C5908.49 299.765 5784.57 445.617 5784.57 608.022C5784.57 770.427 5908.49 916.279 6133.56 1018.76C6333.14 1109.67 6596.29 1159.71 6874.52 1159.71C7152.75 1159.71 7415.85 1109.67 7615.48 1018.76C7840.54 916.279 7964.47 770.427 7964.47 608.022C7964.47 445.617 7840.54 299.765 7615.48 197.287C7415.89 106.378 7152.75 56.3306 6874.52 56.3306Z" fill="#091F11"/>
<path d="M1146.28 1057.97C1692.08 1057.97 2134.53 856.503 2134.53 607.979C2134.53 359.454 1692.08 157.985 1146.28 157.985C600.483 157.985 158.027 359.454 158.027 607.979C158.027 856.503 600.483 1057.97 1146.28 1057.97Z" fill="white"/>
<path d="M3055.66 1057.97C3601.46 1057.97 4043.92 856.503 4043.92 607.979C4043.92 359.454 3601.46 157.985 3055.66 157.985C2509.87 157.985 2067.41 359.454 2067.41 607.979C2067.41 856.503 2509.87 1057.97 3055.66 1057.97Z" fill="white"/>
<path d="M4965.09 1057.97C5510.88 1057.97 5953.34 856.503 5953.34 607.979C5953.34 359.454 5510.88 157.985 4965.09 157.985C4419.29 157.985 3976.84 359.454 3976.84 607.979C3976.84 856.503 4419.29 1057.97 4965.09 1057.97Z" fill="white"/>
<path d="M6874.52 1057.97C7420.31 1057.97 7862.77 856.503 7862.77 607.979C7862.77 359.454 7420.31 157.985 6874.52 157.985C6328.72 157.985 5886.26 359.454 5886.26 607.979C5886.26 856.503 6328.72 1057.97 6874.52 1057.97Z" fill="white"/>
<path d="M1022.35 356.918H1134.84V738.145H1250.01V835.12H1022.35V356.875V356.918Z" fill="#091F11"/>
<path d="M2885.72 688.964V503.074C2885.72 402.026 2945 345.479 3041.97 345.479C3138.95 345.479 3198.22 402.069 3198.22 503.074V688.964C3198.22 790.012 3138.95 846.56 3041.97 846.56C2945 846.56 2885.72 789.969 2885.72 688.964ZM3082.4 703.784V488.255C3082.4 451.207 3067.58 431.665 3041.97 431.665C3016.36 431.665 3001.54 451.207 3001.54 488.255V703.784C3001.54 740.832 3016.36 760.374 3041.97 760.374C3067.58 760.374 3082.4 740.832 3082.4 703.784Z" fill="#091F11"/>
<path d="M4899.92 356.918V708.507C4899.92 736.802 4912.05 752.271 4934.28 752.271C4956.51 752.271 4969.29 736.759 4969.29 708.507V356.918H5081.09V712.537C5081.09 796.079 5028.57 846.56 4934.24 846.56C4839.91 846.56 4787.39 796.729 4787.39 712.537V356.918H4899.88H4899.92Z" fill="#091F11"/>
<path d="M6741.92 356.918H6880.67C6984.4 356.918 7042.99 412.815 7042.99 513.17V672.802C7042.99 777.88 6985.75 835.12 6879.98 835.12H6741.88V356.875L6741.92 356.918ZM6877.98 755.651C6910.31 755.651 6927.16 726.012 6927.16 679.562V507.147C6927.16 459.31 6913.04 436.431 6877.98 436.431H6854.41V755.694H6877.98V755.651Z" fill="#091F11"/>
</g>
<defs>
<clipPath id="clip0_742_409">
<rect width="8020.76" height="1216" fill="white"/>
</clipPath>
</defs>
</svg>
