<svg width="3048" height="3048" viewBox="0 0 3048 3048" fill="none" xmlns="http://www.w3.org/2000/svg">
<g clip-path="url(#clip0_740_218)">
<path d="M1524 68.9974C2327.58 68.9974 2979 720.418 2979 1524C2979 2327.58 2327.58 2979 1524 2979C720.418 2979 68.9965 2327.58 68.9965 1524C68.9965 720.418 720.418 68.9974 1524 68.9974ZM1524 15.4891C1320.39 15.4891 1122.8 55.395 936.788 134.052C757.141 210.034 595.828 318.796 457.298 457.327C318.768 595.857 210.005 757.17 134.023 936.817C55.3942 1122.83 15.4883 1320.39 15.4883 1524C15.4883 1727.61 55.3942 1925.2 134.051 2111.21C210.033 2290.86 318.796 2452.17 457.326 2590.7C595.856 2729.23 757.169 2837.99 936.816 2913.98C1122.83 2992.66 1320.39 3032.54 1524.03 3032.54C1727.67 3032.54 1925.23 2992.63 2111.24 2913.98C2290.89 2837.99 2452.2 2729.23 2590.73 2590.7C2729.26 2452.17 2838.02 2290.86 2914 2111.21C2992.69 1925.2 3032.57 1727.64 3032.57 1524C3032.57 1320.36 2992.66 1122.8 2914 936.789C2838.02 757.142 2729.26 595.828 2590.73 457.298C2452.2 318.768 2290.89 210.006 2111.24 134.024C1925.23 55.3387 1727.67 15.4609 1524.03 15.4609L1524 15.4891Z" fill="#091F11"/>
<path d="M1524 68.9973C2327.58 68.9973 2979 720.418 2979 1524C2979 2327.58 2327.58 2979 1524 2979C720.419 2979 68.9981 2327.58 68.9981 1524C68.9981 720.418 720.419 68.9973 1524 68.9973ZM1524 26.7539C1321.88 26.7539 1125.81 66.35 941.183 144.444C762.888 219.862 602.757 327.808 465.269 465.296C327.781 602.784 219.835 762.915 144.417 941.21C66.3227 1125.81 26.7266 1321.91 26.7266 1524.03C26.7266 1726.15 66.3227 1922.21 144.417 2106.85C219.835 2285.14 327.781 2445.27 465.269 2582.76C602.757 2720.25 762.888 2828.19 941.183 2903.61C1125.79 2981.71 1321.88 3021.3 1524 3021.3C1726.12 3021.3 1922.19 2981.71 2106.82 2903.61C2285.11 2828.19 2445.24 2720.25 2582.73 2582.76C2720.22 2445.27 2828.17 2285.14 2903.58 2106.85C2981.68 1922.24 3021.27 1726.15 3021.27 1524.03C3021.27 1321.91 2981.68 1125.84 2903.58 941.21C2828.17 762.915 2720.22 602.784 2582.73 465.296C2445.24 327.808 2285.11 219.862 2106.82 144.444C1922.21 66.35 1726.12 26.7539 1524 26.7539Z" stroke="#091F11" stroke-width="53.5083" stroke-miterlimit="10"/>
<path d="M1524 527.788C2074.18 527.788 2520.21 973.794 2520.21 1524C2520.21 2074.21 2074.2 2520.21 1524 2520.21C973.792 2520.21 527.787 2074.21 527.787 1524C527.787 973.794 973.792 527.788 1524 527.788ZM1524 474.28C1382.31 474.28 1244.83 502.048 1115.39 556.795C990.38 609.656 878.125 685.356 781.754 781.727C685.383 878.098 609.683 990.381 556.822 1115.37C502.075 1244.83 474.307 1382.29 474.307 1523.97C474.307 1665.66 502.075 1803.14 556.822 1932.58C609.683 2057.59 685.383 2169.84 781.754 2266.22C878.153 2362.61 990.408 2438.29 1115.39 2491.15C1244.85 2545.89 1382.31 2573.66 1524 2573.66C1665.68 2573.66 1803.17 2545.89 1932.6 2491.15C2057.62 2438.29 2169.87 2362.59 2266.24 2266.22C2362.64 2169.82 2438.31 2057.56 2491.17 1932.58C2545.92 1803.12 2573.69 1665.66 2573.69 1523.97C2573.69 1382.29 2545.92 1244.8 2491.17 1115.37C2438.31 990.353 2362.61 878.098 2266.24 781.727C2169.87 685.356 2057.59 609.656 1932.6 556.795C1803.14 502.048 1665.68 474.28 1524 474.28Z" fill="#091F11"/>
<mask id="mask0_740_218" style="mask-type:luminance" maskUnits="userSpaceOnUse" x="527" y="527" width="1994" height="1994">
<path d="M1524 2520.21C2074.19 2520.21 2520.21 2074.19 2520.21 1524C2520.21 973.807 2074.19 527.788 1524 527.788C973.808 527.788 527.789 973.807 527.789 1524C527.789 2074.19 973.808 2520.21 1524 2520.21Z" fill="white"/>
</mask>
<g mask="url(#mask0_740_218)">
<path d="M2784.6 506.3V660.995H1367.42V506.3H2784.6ZM2838.11 452.792H1313.91V714.503H2838.11V452.792Z" fill="#091F11"/>
<path d="M2337.75 506.3V609.43H742.752V506.3H2337.72M2391.26 452.792H689.244V662.938H2391.23V452.792H2391.26Z" fill="#091F11"/>
<path d="M1186 506.3V560.512H334.85V506.3H1186ZM1239.51 452.792H281.342V614.02H1239.51V452.792Z" fill="#091F11"/>
<path d="M2784.6 744.299V898.994H1367.42V744.299H2784.6ZM2838.11 690.791H1313.91V952.502H2838.11V690.791Z" fill="#091F11"/>
<path d="M2337.75 744.299V847.429H742.752V744.299H2337.72M2391.26 690.791H689.244V900.937H2391.23V690.791H2391.26Z" fill="#091F11"/>
<path d="M1186 744.299V798.511H334.85V744.299H1186ZM1239.51 690.791H281.342V852.019H1239.51V690.791Z" fill="#091F11"/>
<path d="M2784.6 982.27V1136.97H1367.42V982.27H2784.6ZM2838.11 928.762H1313.91V1190.47H2838.11V928.762Z" fill="#091F11"/>
<path d="M2337.75 982.27V1085.4H742.752V982.27H2337.72M2391.26 928.762H689.244V1138.91H2391.23V928.762H2391.26Z" fill="#091F11"/>
<path d="M1186 982.27V1036.48H334.85V982.27H1186ZM1239.51 928.762H281.342V1089.99H1239.51V928.762Z" fill="#091F11"/>
<path d="M2784.6 1220.24V1374.94H1367.42V1220.24H2784.6ZM2838.11 1166.73H1313.91V1428.44H2838.11V1166.73Z" fill="#091F11"/>
<path d="M2337.75 1220.24V1323.37H742.752V1220.24H2337.72M2391.26 1166.73H689.244V1376.88H2391.23V1166.73H2391.26Z" fill="#091F11"/>
<path d="M1186 1220.24V1274.45H334.85V1220.24H1186ZM1239.51 1166.73H281.342V1327.96H1239.51V1166.73Z" fill="#091F11"/>
<path d="M2784.6 1458.24V1612.94H1367.42V1458.24H2784.6ZM2838.11 1404.73H1313.91V1666.44H2838.11V1404.73Z" fill="#091F11"/>
<path d="M2337.75 1458.24V1561.37H742.752V1458.24H2337.72M2391.26 1404.73H689.244V1614.88H2391.23V1404.73H2391.26Z" fill="#091F11"/>
<path d="M1186 1458.24V1512.45H334.85V1458.24H1186ZM1239.51 1404.73H281.342V1565.96H1239.51V1404.73Z" fill="#091F11"/>
<path d="M2784.6 1696.21V1850.91H1367.42V1696.21H2784.6ZM2838.11 1642.7H1313.91V1904.41H2838.11V1642.7Z" fill="#091F11"/>
<path d="M2337.75 1696.21V1799.34H742.752V1696.21H2337.72M2391.26 1642.7H689.244V1852.85H2391.23V1642.7H2391.26Z" fill="#091F11"/>
<path d="M1186 1696.21V1750.42H334.85V1696.21H1186ZM1239.51 1642.7H281.342V1803.93H1239.51V1642.7Z" fill="#091F11"/>
<path d="M2784.6 1934.18V2088.88H1367.42V1934.18H2784.6ZM2838.11 1880.67H1313.91V2142.39H2838.11V1880.67Z" fill="#091F11"/>
<path d="M2337.75 1934.18V2037.31H742.752V1934.18H2337.72M2391.26 1880.67H689.244V2090.82H2391.23V1880.67H2391.26Z" fill="#091F11"/>
<path d="M1186 1934.18V1988.39H334.85V1934.18H1186ZM1239.51 1880.67H281.342V2041.9H1239.51V1880.67Z" fill="#091F11"/>
<path d="M2784.6 2172.18V2326.88H1367.42V2172.18H2784.6ZM2838.11 2118.67H1313.91V2380.38H2838.11V2118.67Z" fill="#091F11"/>
<path d="M2337.75 2172.18V2275.31H742.752V2172.18H2337.72M2391.26 2118.67H689.244V2328.82H2391.23V2118.67H2391.26Z" fill="#091F11"/>
<path d="M1186 2172.18V2226.39H334.85V2172.18H1186ZM1239.51 2118.67H281.342V2279.9H1239.51V2118.67Z" fill="#091F11"/>
<path d="M2784.6 2410.15V2564.85H1367.42V2410.15H2784.6ZM2838.11 2356.64H1313.91V2618.36H2838.11V2356.64Z" fill="#091F11"/>
<path d="M2337.75 2410.15V2513.28H742.752V2410.15H2337.72M2391.26 2356.64H689.244V2566.79H2391.23V2356.64H2391.26Z" fill="#091F11"/>
<path d="M1186 2410.15V2464.36H334.85V2410.15H1186ZM1239.51 2356.64H281.342V2517.87H1239.51V2356.64Z" fill="#091F11"/>
</g>
<path d="M1524 527.788C2074.18 527.788 2520.21 973.794 2520.21 1524C2520.21 2074.21 2074.2 2520.21 1524 2520.21C973.793 2520.21 527.787 2074.21 527.787 1524C527.787 973.794 973.793 527.788 1524 527.788ZM1524 485.545C1383.84 485.545 1247.84 513.003 1119.79 567.159C996.126 619.456 885.082 694.34 789.725 789.697C694.367 885.055 619.484 996.098 567.186 1119.76C513.03 1247.81 485.572 1383.81 485.572 1523.97C485.572 1664.13 513.03 1800.13 567.186 1928.18C619.484 2051.84 694.367 2162.89 789.725 2258.25C885.082 2353.6 996.126 2428.46 1119.79 2480.78C1247.84 2534.94 1383.84 2562.4 1524 2562.4C1664.16 2562.4 1800.16 2534.94 1928.21 2480.78C2051.87 2428.49 2162.92 2353.6 2258.27 2258.25C2353.63 2162.89 2428.49 2051.84 2480.81 1928.18C2534.97 1800.13 2562.43 1664.13 2562.43 1523.97C2562.43 1383.81 2534.97 1247.81 2480.81 1119.76C2428.51 996.098 2353.63 885.055 2258.27 789.697C2162.92 694.34 2051.87 619.456 1928.21 567.159C1800.16 513.003 1664.16 485.545 1524 485.545Z" stroke="#091F11" stroke-width="53.5083" stroke-miterlimit="10"/>
<path d="M1524 844.726C1899.15 844.726 2203.3 1148.85 2203.3 1524.03C2203.3 1899.2 1899.18 2203.33 1524 2203.33C1148.82 2203.33 844.698 1899.2 844.698 1524.03C844.698 1148.85 1148.82 844.726 1524 844.726ZM1524 791.218C1425.09 791.218 1329.12 810.593 1238.74 848.838C1151.47 885.758 1073.12 938.591 1005.84 1005.87C938.562 1073.15 885.73 1151.53 848.809 1238.77C810.593 1329.14 791.189 1425.12 791.189 1524.03C791.189 1622.93 810.565 1718.91 848.809 1809.28C885.73 1896.56 938.562 1974.91 1005.84 2042.18C1073.12 2109.46 1151.5 2162.3 1238.74 2199.22C1329.12 2237.43 1425.09 2256.84 1524 2256.84C1622.91 2256.84 1718.88 2237.46 1809.25 2199.22C1896.53 2162.3 1974.88 2109.46 2042.16 2042.18C2109.44 1974.91 2162.27 1896.53 2199.19 1809.28C2237.41 1718.91 2256.81 1622.93 2256.81 1524.03C2256.81 1425.12 2237.43 1329.14 2199.19 1238.77C2162.27 1151.5 2109.44 1073.15 2042.16 1005.87C1974.88 938.591 1896.5 885.758 1809.25 848.838C1718.88 810.622 1622.91 791.218 1524 791.218Z" fill="#091F11"/>
<path d="M1524 844.726C1899.15 844.726 2203.3 1148.85 2203.3 1524.03C2203.3 1899.21 1899.18 2203.33 1524 2203.33C1148.82 2203.33 844.698 1899.21 844.698 1524.03C844.698 1148.85 1148.82 844.726 1524 844.726ZM1524 802.483C1426.61 802.483 1332.1 821.577 1243.14 859.202C1157.21 895.559 1080.05 947.575 1013.81 1013.81C947.574 1080.05 895.53 1157.21 859.201 1243.14C821.576 1332.13 802.482 1426.61 802.482 1524C802.482 1621.38 821.576 1715.9 859.201 1804.86C895.53 1890.78 947.574 1967.95 1013.81 2034.19C1080.05 2100.42 1157.21 2152.47 1243.14 2188.8C1332.13 2226.42 1426.61 2245.52 1524 2245.52C1621.38 2245.52 1715.9 2226.42 1804.86 2188.8C1890.78 2152.44 1967.95 2100.42 2034.19 2034.19C2100.42 1967.95 2152.47 1890.78 2188.8 1804.86C2226.42 1715.87 2245.52 1621.38 2245.52 1524C2245.52 1426.61 2226.42 1332.1 2188.8 1243.14C2152.47 1157.21 2100.42 1080.05 2034.19 1013.81C1967.95 947.575 1890.78 895.531 1804.86 859.202C1715.87 821.577 1621.38 802.483 1524 802.483Z" stroke="#091F11" stroke-width="53.5083" stroke-miterlimit="10"/>
<mask id="mask1_740_218" style="mask-type:luminance" maskUnits="userSpaceOnUse" x="156" y="1166" width="2752" height="644">
<path d="M2907.02 1166.23H156.412V1809.79H2907.02V1166.23Z" fill="white"/>
</mask>
<g mask="url(#mask1_740_218)">
<path d="M1524 286.832C2207.27 286.832 2761.17 840.727 2761.17 1524C2761.17 2207.27 2207.27 2761.17 1524 2761.17C840.726 2761.17 286.831 2207.27 286.831 1524C286.831 840.727 840.726 286.832 1524 286.832ZM1524 244.589C1351.31 244.589 1183.74 278.412 1025.98 345.156C873.62 409.591 736.808 501.851 619.315 619.344C501.822 736.837 409.59 873.649 345.155 1026.01C278.439 1183.77 244.588 1351.34 244.588 1524.03C244.588 1696.72 278.411 1864.28 345.155 2022.05C409.59 2174.41 501.85 2311.22 619.315 2428.71C736.808 2546.2 873.62 2638.44 1025.98 2702.87C1183.74 2769.59 1351.31 2803.44 1524 2803.44C1696.69 2803.44 1864.26 2769.62 2022.02 2702.87C2174.38 2638.44 2311.19 2546.18 2428.68 2428.71C2546.18 2311.22 2638.41 2174.41 2702.84 2022.05C2769.56 1864.28 2803.41 1696.72 2803.41 1524.03C2803.41 1351.34 2769.59 1183.77 2702.84 1026.01C2638.41 873.649 2546.15 736.837 2428.68 619.344C2311.19 501.851 2174.38 409.62 2022.02 345.156C1864.26 278.44 1696.69 244.589 1524 244.589Z" stroke="#091F11" stroke-width="53.5083" stroke-miterlimit="10"/>
</g>
<path d="M351.437 799.667L561.95 914.794L534.886 964.303L446.822 916.146L429.953 946.983L518.017 995.141L490.953 1044.65L280.44 929.523L307.504 880.013L392.3 926.397L409.169 895.559L324.373 849.204L351.437 799.695M330.174 727.036L304.49 773.983L286.213 807.383L260.529 854.329L233.465 903.839L207.781 950.785L254.728 976.469L465.24 1091.6L512.187 1117.28L537.871 1070.33L564.935 1020.82L590.619 973.878L608.896 940.478L634.58 893.531L587.634 867.847L377.121 752.72L330.174 727.036Z" fill="#091F11"/>
<path d="M489.263 646.577C505.766 646.577 523.057 653.026 540.264 666.319L614.106 723.319C654.237 754.298 658.518 795.189 628.778 833.715C611.797 855.71 591.238 867.172 569.243 867.172C552.74 867.172 535.449 860.723 518.242 847.43L444.4 790.402C404.269 759.423 399.988 718.532 429.728 680.006C446.709 658.011 467.268 646.549 489.263 646.549M580.227 814.706C585.887 814.706 590.703 812.199 594.505 807.271C602.362 797.104 599.152 785.22 584.423 773.87L498.81 707.774C491.206 701.916 484.25 699.043 478.223 699.043C472.562 699.043 467.747 701.55 463.945 706.478C456.087 716.645 459.298 728.529 474.027 739.879L559.64 805.975C567.244 811.833 574.2 814.706 580.227 814.706ZM489.263 593.069C450.596 593.069 414.407 612.332 387.4 647.338C363.856 677.809 353.633 711.491 357.801 744.723C360.73 768.182 372.474 802.483 411.732 832.786L485.573 889.786C511.736 910.007 540.687 920.68 569.272 920.68C607.938 920.68 644.127 901.417 671.134 866.412C719.348 803.948 709.576 729.43 646.802 680.963L572.961 623.963C546.798 603.742 517.847 593.069 489.263 593.069Z" fill="#091F11"/>
<path d="M662.237 447.188L824.339 624.075L789.221 656.265L717.52 578.03C702.903 562.09 687.611 545.39 674.206 529.253L673.22 530.154C679.332 538.321 685.415 546.939 691.47 556.063L769.789 674.063L743.373 698.254L632.16 610.388C623.852 603.32 615.065 596.251 608.194 589.717L606.955 590.872C622.106 605.404 637.398 622.104 652.014 638.044L723.715 716.278L689.076 748.017L526.974 571.13L580.538 522.043L660.012 586.253C669.7 594.336 680.768 603.911 686.26 609.881L687.245 608.98C681.754 603.01 673.192 591.153 665.983 580.79L608.673 496.247L662.237 447.16M665.532 371.601L626.077 407.761L578.314 451.525L544.35 482.644L490.785 531.731L451.33 567.891L487.49 607.347L649.592 784.234L685.753 823.689L725.208 787.529L745.935 768.519L779.505 737.738L796.937 721.77L799.275 719.63L805.921 713.547L809.554 710.223L825.353 695.748L860.471 663.559L899.926 627.398L863.766 587.943L701.664 411.056L665.504 371.601H665.532Z" fill="#091F11"/>
<path d="M818.254 340.819L841.544 376.05L790.795 409.591L820.056 453.862L867.143 422.743L890.433 457.974L843.346 489.093L876.521 539.278L929.241 504.413L952.531 539.644L852.752 605.629L720.418 405.48L818.225 340.819M833.377 266.668L788.74 296.182L690.932 360.842L646.295 390.356L675.809 434.994L808.143 635.143L837.657 679.78L882.295 650.266L982.073 584.282L1026.71 554.768L997.196 510.13L973.906 474.899L944.392 430.262L938.76 433.98L935.099 428.432L912.062 393.567L915.723 391.145L886.209 346.508L862.919 311.277L833.405 266.64L833.377 266.668Z" fill="#091F11"/>
<path d="M1035.72 237.351C1064.84 237.351 1088.67 254.558 1102.55 288.437L1137.95 374.726C1157.19 421.617 1140.43 459.185 1095.43 477.631C1082.92 482.757 1070.93 485.32 1059.72 485.32C1030.6 485.32 1006.77 468.112 992.861 434.233L957.461 347.944C938.226 301.054 954.982 263.486 999.986 245.039C1012.49 239.914 1024.49 237.351 1035.7 237.351M1071.38 439.246C1073.83 439.246 1076.39 438.711 1078.98 437.641C1090.87 432.769 1094.02 420.884 1086.98 403.677L1045.95 303.617C1040.45 290.183 1032.77 283.453 1024.04 283.453C1021.59 283.453 1019.02 283.988 1016.43 285.058C1004.55 289.93 1001.39 301.814 1008.43 319.022L1049.47 419.082C1054.96 432.515 1062.65 439.246 1071.38 439.246ZM1035.72 183.843C1017.45 183.843 998.606 187.785 979.709 195.53C944.084 210.146 918.372 234.169 905.361 265.035C896.18 286.804 889.167 322.401 907.98 368.249L943.38 454.538C965.346 508.103 1007.76 538.828 1059.72 538.828C1078 538.828 1096.84 534.885 1115.73 527.141C1188.73 497.204 1217.57 427.784 1187.46 354.421L1152.06 268.132C1130.1 214.568 1087.68 183.843 1035.72 183.843Z" fill="#091F11"/>
<path d="M1246.38 174.352L1256.91 215.61L1197.96 230.649L1211.17 282.383L1265.86 268.414L1276.31 309.334L1221.62 323.302L1246.77 421.87L1192.08 435.839L1132.74 203.359L1246.38 174.352ZM1284.99 109.269L1233.14 122.506L1119.5 151.513L1067.66 164.749L1080.89 216.596L1140.23 449.075L1153.47 500.922L1205.32 487.685L1260.01 473.717L1311.85 460.481L1298.62 408.634L1286.7 361.913L1289.55 361.181L1341.4 347.944L1328.16 296.098L1317.74 255.291L1321.99 254.192L1308.76 202.346L1298.22 161.088L1284.99 109.241V109.269Z" fill="#091F11"/>
<path d="M1437.2 145.12C1478.77 145.12 1503.75 166.157 1506.65 206.992L1508.57 234.31L1451.31 248.841L1448.75 212.428C1447.65 196.657 1441.82 188.631 1431.35 188.631C1430.84 188.631 1430.33 188.631 1429.8 188.687C1417.66 189.532 1412.31 200.093 1413.69 219.637L1421.07 324.485C1422.39 343.269 1428.7 352.929 1439.65 352.929C1440.11 352.929 1440.56 352.929 1441.03 352.873C1452.5 352.056 1458.27 342.509 1457.06 325.33L1454.38 287.565L1512.48 294.661L1514.37 321.303C1517.58 366.813 1490.97 393.088 1444.1 396.383C1440.81 396.609 1437.63 396.721 1434.53 396.721C1390.93 396.721 1366.29 373.769 1362.97 326.541L1356.04 228.114C1352.46 177.535 1378.57 148.95 1427.8 145.486C1431.04 145.261 1434.19 145.148 1437.23 145.148M1437.2 91.6117C1432.92 91.6117 1428.47 91.7806 1424 92.0904C1344.66 97.6947 1297.04 152.555 1302.62 231.86L1309.55 330.287C1312.14 367.179 1324.53 396.609 1346.38 417.759C1361.67 432.572 1389.36 450.202 1434.47 450.202C1438.81 450.202 1443.29 450.033 1447.82 449.723C1484.57 447.132 1515.3 433.952 1536.65 411.591C1552.64 394.835 1571.03 364.926 1567.68 317.501L1565.79 290.86L1564.7 275.201L1565.03 275.117L1561.88 230.508L1559.96 203.19C1556.92 159.961 1537.46 134.362 1521.66 120.506C1506.62 107.326 1479.79 91.5835 1437.15 91.5835L1437.2 91.6117Z" fill="#091F11"/>
<path d="M1564.72 146.5L1620.96 151.146L1613.02 247.489L1648.06 250.39L1656 154.047L1712.24 158.694L1692.5 397.848L1636.26 393.201L1644.51 293.169L1609.47 290.268L1601.22 390.3L1544.98 385.653L1564.72 146.5ZM1515.81 88.7671L1511.41 142.106L1491.67 381.26L1487.28 434.599L1540.62 438.993L1578.58 442.119L1631.92 446.512L1688.16 451.159L1741.5 455.552L1745.89 402.213L1765.63 163.059L1770.03 109.72L1716.69 105.326L1678.72 102.2L1625.39 97.8072L1569.15 93.1604L1515.81 88.7671Z" fill="#091F11"/>
<path d="M1815.25 178.324L1887.8 196.066L1875.49 440.035L1820.35 426.546L1825.5 377.008L1787.09 367.63L1768.81 413.957L1713.98 400.552L1815.25 178.324ZM1829.7 336.99L1837.28 264.754C1838.54 253.939 1839.3 245.068 1841.11 231.944L1840.12 231.691C1836.01 244.251 1832.29 252.39 1828.4 262.557L1801.79 330.146L1829.7 336.962M1784.92 115.832L1766.56 156.132L1665.29 378.36L1638.48 437.191L1701.28 452.539L1756.11 465.945L1766.05 468.367L1807.65 478.533L1862.79 492.023L1925.68 507.399L1928.94 442.739L1941.25 198.769L1943.48 154.583L1900.5 144.078L1827.95 126.336L1784.92 115.832Z" fill="#091F11"/>
<path d="M1992.06 226.34L2058.6 255.516L2031.96 354.168C2028.5 366.306 2024.19 380.303 2020.95 387.71L2022.19 388.245C2025.46 380.81 2032.83 368.193 2039.4 357.407L2093.58 270.836L2160.13 300.012L2063.79 519.791L2020.13 500.668L2062.74 403.481C2071.42 383.683 2080.51 362.927 2089.86 344.143L2088.62 343.608C2083.61 352.479 2078.18 361.547 2072.29 370.756L1996 490.079L1963.19 475.689L1998.65 338.454C2001.74 328.006 2004.67 317.107 2007.85 308.18L2006.31 307.504C1999.12 327.245 1990.03 347.973 1981.35 367.799L1938.74 464.987L1895.71 446.118L1992.06 226.34ZM1964.54 155.85L1943.05 204.852L1846.71 424.63L1825.22 473.633L1874.23 495.121L1899.99 506.414L1933.39 521.058L1949.64 528.183L1952.12 529.281L1966.26 535.477L1998.65 549.671L2042.3 568.793L2091.3 590.281L2112.79 541.278L2209.13 321.5L2230.62 272.498L2181.62 251.01L2122.28 224.988L2080.09 206.486L2013.54 177.31L1964.54 155.822V155.85Z" fill="#091F11"/>
<path d="M2223.97 337.158L2285.22 377.458C2325.33 403.818 2334.03 435.472 2311.3 470.647L2300.52 487.009C2285.73 509.511 2267.48 520.888 2246.87 520.888C2233.07 520.888 2218.2 515.791 2202.6 505.512L2187.36 495.486L2139.26 568.595L2092.12 537.589L2223.97 337.13M2228.9 472.872C2236.5 472.872 2243.8 466.901 2252.25 454.059L2261.71 439.668C2272.3 423.588 2271.48 413.731 2259.34 405.761L2250.3 399.819L2208.71 463.071L2217.75 469.013C2221.63 471.576 2225.3 472.9 2228.9 472.9M2208.68 263.063L2179.28 307.756L2047.42 508.215L2018.02 552.909L2062.71 582.31L2109.86 613.317L2154.55 642.718L2183.95 598.025L2204.71 566.483C2218.76 571.749 2232.87 574.425 2246.9 574.425C2285.73 574.425 2320.65 553.838 2345.24 516.439L2356 500.076L2356.11 499.907L2356.22 499.738C2381.15 461.184 2379.29 427.728 2373.37 406.409C2365.46 377.965 2345.69 353.21 2314.63 332.793L2253.37 292.493L2208.68 263.091V263.063Z" fill="#091F11"/>
<path d="M2383.63 449.018L2426.97 485.179L2273.23 669.388L2229.89 633.228L2383.63 449.018ZM2376.84 373.628L2342.57 414.717L2188.83 598.926L2154.55 640.015L2195.64 674.288L2238.99 710.448L2280.07 744.722L2314.35 703.633L2468.09 519.424L2502.36 478.335L2461.27 444.062L2417.93 407.901L2376.84 373.628Z" fill="#091F11"/>
<path d="M2471.6 546.769C2491.32 546.769 2510.64 556.148 2527.93 574.425C2561.38 609.768 2561.19 650.885 2524.38 685.722L2456.62 749.819C2438.82 766.66 2420.04 774.856 2401.59 774.856C2381.88 774.856 2362.56 765.478 2345.27 747.2C2311.81 711.857 2312.01 670.74 2348.82 635.903L2416.57 571.806C2434.37 554.965 2453.16 546.769 2471.6 546.769ZM2389.82 723.572C2396.3 723.572 2403.56 719.995 2411.25 712.73L2489.82 638.409C2503.31 625.624 2505.34 613.486 2496.5 604.164C2492.7 600.137 2488.27 598.109 2483.37 598.109C2476.9 598.109 2469.63 601.686 2461.94 608.952L2383.37 683.272C2369.88 696.058 2367.85 708.196 2376.7 717.517C2380.5 721.544 2384.92 723.572 2389.82 723.572ZM2471.63 493.261C2439.02 493.261 2407.28 506.976 2379.85 532.942L2312.09 597.039C2254.47 651.533 2252.22 726.67 2306.43 783.98C2333.92 813.015 2366.81 828.364 2401.62 828.364C2434.23 828.364 2465.97 814.649 2493.4 788.683L2561.16 724.586C2597.18 690.51 2605.43 655.194 2606.02 631.566C2606.84 598.081 2593.29 565.61 2566.82 537.645C2539.36 508.61 2506.44 493.261 2471.63 493.261Z" fill="#091F11"/>
<path d="M2617.91 685.638L2651.5 734.725L2589.97 816.536C2582.48 825.351 2575.1 834.898 2567.98 843.037L2568.54 843.881C2581.83 833.968 2595.29 824.337 2608.7 815.184L2675.36 769.561L2702.84 809.721L2504.84 945.209L2474.67 901.135L2543.84 808.341C2552.15 797.752 2559.81 788.007 2567.78 779.277L2567.21 778.432C2554.85 787.303 2542.4 796.625 2529.03 805.806L2447.58 861.539L2419.9 821.098L2617.91 685.61M2631.85 611.261L2587.69 641.479L2389.68 776.968L2345.52 807.186L2375.74 851.344L2403.42 891.785L2433.64 935.944L2460.68 975.455L2490.89 1019.61L2535.05 989.396L2733.06 853.907L2777.22 823.689L2747 779.531L2719.52 739.371L2693.55 701.409L2662.09 655.42L2631.88 611.261H2631.85Z" fill="#091F11"/>
<path d="M2710.47 879.366C2736.24 879.366 2756.77 898.544 2769.16 924.2C2788.12 963.458 2786.62 996.83 2743.4 1017.7L2727.57 1025.33L2693.89 978.919L2720.05 966.274C2730.38 961.29 2737.45 953.376 2732.02 942.111C2729.2 936.282 2724.27 933.578 2718.89 933.578C2716.13 933.578 2713.26 934.282 2710.5 935.634L2701.38 940.055C2692.56 944.308 2687.89 953.32 2686.99 963.881L2683.21 1008.12C2680.51 1039.83 2669.75 1053.3 2647.53 1064.03L2627.45 1073.74C2619.54 1077.57 2611.26 1079.54 2602.98 1079.54C2580.42 1079.54 2557.89 1064.9 2542.6 1033.3C2522.46 991.62 2535.33 955.376 2570.96 938.168L2588 929.945L2622.72 976.976L2595.63 990.071C2582.53 996.408 2576.08 1004.77 2581.07 1015.11C2584.11 1021.39 2588.87 1023.78 2594.02 1023.78C2597.37 1023.78 2600.89 1022.77 2604.25 1021.16L2613.68 1016.6C2624.02 1011.59 2628.47 1006.83 2629.87 991.874L2633.82 947.18C2636.32 918.201 2648.18 903.078 2671.89 891.616L2683.47 886.04C2692.93 881.478 2701.94 879.394 2710.39 879.394M2710.47 825.857C2693.6 825.857 2676.71 829.885 2660.26 837.826L2648.69 843.403C2633.42 850.781 2620.78 859.765 2610.67 870.495L2604.7 862.412L2564.73 881.731L2547.7 889.955C2516.75 904.909 2494.44 929.945 2484.84 960.501C2475.35 990.719 2478.67 1023.92 2494.44 1056.56C2505.65 1079.74 2520.43 1098.19 2538.4 1111.39C2557.69 1125.56 2580.03 1133.05 2603.01 1133.05C2619.42 1133.05 2635.48 1129.31 2650.77 1121.93L2670.85 1112.21C2685.01 1105.37 2696.81 1097.06 2706.31 1087.12L2710.59 1093L2750.89 1073.54L2766.71 1065.91C2811.66 1044.2 2826.98 1012.15 2831.94 989.114C2837.74 962.106 2832.98 933.268 2817.38 900.938C2794.68 853.935 2754.72 825.857 2710.5 825.857H2710.47Z" fill="#091F11"/>
<path d="M2552.79 2012.36L2762.32 2129.29L2734.81 2178.57L2650.41 2131.46L2633.28 2162.16L2717.68 2209.24L2690.17 2258.53L2480.64 2141.6L2508.16 2092.31L2595.8 2141.23L2612.92 2110.53L2525.28 2061.62L2552.79 2012.33M2532.15 1939.56L2506.07 1986.28L2478.56 2035.57L2452.48 2082.29L2433.92 2115.52L2407.84 2162.24L2454.56 2188.32L2664.09 2305.25L2710.81 2331.33L2736.89 2284.61L2755.45 2251.37L2781.53 2204.65L2809.04 2155.37L2835.12 2108.65L2788.4 2082.57L2578.87 1965.64L2532.15 1939.56Z" fill="#091F11"/>
<path d="M2472.45 2189.16C2489.12 2189.16 2506.55 2195.75 2523.82 2209.33L2597.15 2266.98C2637 2298.29 2640.94 2339.24 2610.87 2377.48C2593.83 2399.17 2573.38 2410.43 2551.61 2410.43C2534.94 2410.43 2517.51 2403.84 2500.25 2390.27L2426.91 2332.62C2387.06 2301.31 2383.12 2260.36 2413.2 2222.11C2430.23 2200.43 2450.68 2189.16 2472.45 2189.16ZM2562.68 2358.08C2568.26 2358.08 2573.07 2355.6 2576.88 2350.76C2584.82 2340.68 2581.69 2328.76 2567.08 2317.27L2482.05 2250.44C2474.45 2244.45 2467.47 2241.54 2461.38 2241.54C2455.81 2241.54 2450.99 2244.02 2447.19 2248.84C2439.25 2258.92 2442.37 2270.83 2456.99 2282.32L2542.01 2349.15C2549.61 2355.15 2556.6 2358.05 2562.68 2358.05M2472.45 2135.65C2434.18 2135.65 2398.19 2154.61 2371.12 2189.05C2322.37 2251.09 2331.5 2325.69 2393.85 2374.7L2467.18 2432.34C2493.49 2453.02 2522.69 2463.97 2551.61 2463.97C2589.89 2463.97 2625.88 2445.02 2652.94 2410.57C2701.72 2348.53 2692.57 2273.93 2630.21 2224.93L2556.88 2167.28C2530.58 2146.61 2501.37 2135.65 2472.45 2135.65Z" fill="#091F11"/>
<path d="M2352.17 2307.22L2512.72 2485.51L2458.73 2534.15L2379.82 2469.24C2370.19 2461.07 2359.21 2451.41 2353.8 2445.38L2352.79 2446.28C2358.22 2452.31 2366.67 2464.25 2373.79 2474.67L2430.37 2559.69L2376.39 2608.33L2215.8 2430.04L2251.2 2398.16L2322.23 2477.01C2336.7 2493.09 2351.86 2509.9 2365.12 2526.15L2366.13 2525.25C2360.11 2517.03 2354.11 2508.35 2348.11 2499.17L2270.81 2380.53L2297.42 2356.56L2407.87 2445.38C2416.12 2452.51 2424.82 2459.66 2431.67 2466.25L2432.94 2465.13C2417.9 2450.45 2402.75 2433.64 2388.27 2417.56L2317.27 2338.71L2352.17 2307.28M2356.11 2231.66L2316.34 2267.45L2295.45 2286.27L2295.25 2286.46L2281.45 2298.88L2241.69 2334.68L2234.98 2340.7L2217.83 2356.14L2215.38 2358.33L2179.98 2390.21L2140.22 2426.04L2176.04 2465.8L2336.62 2644.1L2372.44 2683.86L2412.21 2648.04L2460.34 2604.7L2494.55 2573.89L2548.54 2525.25L2588.31 2489.43L2552.51 2449.66L2391.96 2271.37L2356.16 2231.6L2356.11 2231.66Z" fill="#091F11"/>
<path d="M2187.25 2448.26L2317.84 2649.53L2219.47 2713.35L2196.49 2677.92L2247.52 2644.83L2218.65 2600.33L2171.31 2631.06L2148.33 2595.63L2195.67 2564.9L2162.92 2514.44L2109.92 2548.82L2086.93 2513.4L2187.3 2448.28M2202.99 2374.25L2158.1 2403.37L2057.73 2468.48L2012.84 2497.6L2041.96 2542.49L2064.94 2577.92L2094.06 2622.81L2099.72 2619.12L2103.33 2624.69L2126.08 2659.75L2122.39 2662.15L2151.51 2707.04L2174.49 2742.47L2203.61 2787.36L2248.5 2758.24L2346.87 2694.42L2391.76 2665.3L2362.64 2620.41L2232.05 2419.14L2202.94 2374.25H2202.99Z" fill="#091F11"/>
<path d="M1978.6 2566.76C2008.03 2566.76 2031.94 2584.2 2045.62 2618.44L2080.26 2705.04C2099.1 2752.1 2082.04 2789.5 2036.84 2807.58C2024.53 2812.51 2012.73 2814.96 2001.72 2814.96C1972.29 2814.96 1948.38 2797.52 1934.69 2763.28L1900.05 2676.68C1881.21 2629.62 1898.28 2592.22 1943.48 2574.14C1955.79 2569.21 1967.59 2566.76 1978.6 2566.76ZM2013.32 2768.94C2015.74 2768.94 2018.25 2768.43 2020.81 2767.39C2032.72 2762.63 2035.99 2750.75 2029.09 2733.51L1988.93 2633.11C1983.53 2619.57 1975.86 2612.75 1967.05 2612.75C1964.63 2612.75 1962.15 2613.26 1959.56 2614.3C1947.65 2619.06 1944.38 2630.94 1951.28 2648.18L1991.44 2748.58C1996.85 2762.12 2004.51 2768.94 2013.32 2768.94ZM1978.6 2513.25C1960.69 2513.25 1942.18 2517.03 1923.6 2524.46C1850.35 2553.78 1820.92 2622.92 1850.37 2696.56L1885.01 2783.16C1906.7 2837.37 1949.25 2868.46 2001.75 2868.46C2019.66 2868.46 2038.16 2864.69 2056.75 2857.26C2092.48 2842.95 2118.42 2819.15 2131.71 2788.4C2141.09 2766.71 2148.39 2731.17 2130 2685.16L2095.36 2598.56C2084.97 2572.56 2069.84 2551.89 2050.41 2537.16C2029.82 2521.53 2005.01 2513.25 1978.62 2513.25H1978.6Z" fill="#091F11"/>
<path d="M1846.43 2615.09L1903.77 2848.07L1789.91 2876.1L1779.74 2834.75L1838.8 2820.22L1826.04 2768.38L1771.24 2781.87L1761.15 2740.83L1815.96 2727.34L1791.65 2628.58L1846.46 2615.09M1885.6 2550.34L1833.64 2563.13L1778.84 2576.62L1726.88 2589.4L1739.67 2641.36L1751.18 2688.17L1748.34 2688.87L1696.38 2701.66L1709.17 2753.62L1719.22 2794.54L1714.97 2795.58L1727.75 2847.54L1737.92 2888.88L1750.71 2940.84L1802.67 2928.06L1916.53 2900.03L1968.48 2887.25L1955.7 2835.29L1898.36 2602.3L1885.57 2550.34H1885.6Z" fill="#091F11"/>
<path d="M1602.6 2652.12C1646.87 2652.12 1671.68 2675.3 1674.64 2722.92L1680.72 2821.41C1683.85 2872.01 1657.49 2900.37 1608.26 2903.41C1605.42 2903.58 1602.63 2903.67 1599.9 2903.67C1557.68 2903.67 1532.48 2882.41 1529.91 2841.2L1528.22 2813.89L1585.59 2799.83L1587.84 2836.25C1588.83 2852.1 1594.63 2860.19 1605.22 2860.19C1605.67 2860.19 1606.12 2860.19 1606.57 2860.13C1618.71 2859.37 1624.17 2848.89 1622.96 2829.32L1616.48 2724.42C1615.33 2705.55 1609.05 2695.8 1597.98 2695.8C1597.59 2695.8 1597.16 2695.8 1596.77 2695.83C1585.31 2696.53 1579.45 2706.05 1580.52 2723.26L1582.86 2761.05L1524.82 2753.48L1523.18 2726.84C1520.37 2681.3 1547.2 2655.25 1594.1 2652.38C1597 2652.21 1599.84 2652.09 1602.6 2652.09M1602.6 2598.61C1598.74 2598.61 1594.77 2598.73 1590.8 2598.98C1554.02 2601.26 1523.21 2614.16 1501.64 2636.32C1485.47 2652.94 1466.86 2682.71 1469.79 2730.16L1471.42 2756.8L1472.38 2772.49L1472.04 2772.57L1474.8 2817.21L1476.49 2844.53C1479.19 2888.21 1498.74 2914.09 1514.68 2928.08C1529.77 2941.38 1556.81 2957.2 1599.87 2957.2C1603.67 2957.2 1607.58 2957.09 1611.53 2956.84C1690.89 2951.94 1739.02 2897.47 1734.09 2818.11L1728.01 2719.63C1725.7 2682.37 1713.36 2652.63 1691.34 2631.25C1675.99 2616.36 1648.14 2598.61 1602.57 2598.61H1602.6Z" fill="#091F11"/>
<path d="M1345.7 2648.8L1401.92 2653.92L1392.79 2753.87L1427.8 2757.05L1436.92 2657.11L1493.13 2662.23L1471.34 2901.19L1415.12 2896.06L1423.91 2799.8L1388.91 2796.62L1380.12 2892.88L1323.91 2887.76L1345.7 2648.8ZM1297.29 2590.64L1292.42 2643.93L1270.62 2882.88L1265.75 2936.17L1319.03 2941.04L1356.97 2944.5L1410.25 2949.37L1466.46 2954.5L1519.75 2959.37L1524.62 2906.09L1546.42 2667.13L1551.29 2613.85L1498.01 2608.98L1460.1 2605.51L1406.82 2600.64L1350.6 2595.52L1297.32 2590.64H1297.29Z" fill="#091F11"/>
<path d="M1163.1 2605.01L1218.13 2618.98L1212.55 2668.46L1250.88 2678.17L1269.55 2632.01L1324.24 2645.87L1221.06 2867.23L1148.68 2848.86L1163.1 2605.01ZM1196.67 2813.63C1200.89 2801.1 1204.7 2793.02 1208.67 2782.85L1235.84 2715.49L1207.99 2708.42L1199.8 2780.6C1198.44 2791.41 1197.6 2800.26 1195.68 2813.38L1196.67 2813.63ZM1113.51 2537.25L1109.68 2601.88L1095.26 2845.74L1092.64 2889.9L1135.5 2900.77L1207.88 2919.13L1250.83 2930.03L1269.55 2889.87L1372.74 2668.51L1400.06 2609.94L1337.4 2594.05L1282.71 2580.2L1276.54 2578.62L1231.28 2567.16L1176.25 2553.19L1113.51 2537.28V2537.25Z" fill="#091F11"/>
<path d="M975.511 2523.65L1018.99 2543.16L975.54 2639.98C966.697 2659.73 957.403 2680.37 947.912 2699.07L949.152 2699.63C954.221 2690.79 959.741 2681.81 965.711 2672.63L1043.04 2553.98L1075.74 2568.65L1039.1 2705.57C1035.92 2715.99 1032.88 2726.87 1029.61 2735.76L1031.16 2736.47C1038.51 2716.81 1047.78 2696.14 1056.62 2676.4L1100.07 2579.58L1142.94 2598.81L1044.68 2817.75L978.384 2788.01L1005.87 2689.58C1009.45 2677.47 1013.87 2663.53 1017.19 2656.12L1015.95 2655.56C1012.63 2662.97 1005.14 2675.53 998.492 2686.23L943.547 2772.35L877.253 2742.61L975.511 2523.67M948.588 2452.9L926.678 2501.71L828.42 2720.64L806.51 2769.45L855.315 2791.36L914.428 2817.89L934.564 2826.93L963.768 2840.02L1022.74 2866.49L1071.54 2888.4L1093.45 2839.6L1191.71 2620.67L1213.62 2571.83L1164.79 2549.92L1139.13 2538.4L1097.59 2519.76L1089.68 2516.21L1040.85 2494.3L997.365 2474.79L948.56 2452.88L948.588 2452.9Z" fill="#091F11"/>
<path d="M900.46 2474.14L947.35 2505.57L813.748 2704.87L752.833 2664.04C712.984 2637.31 704.535 2605.63 727.572 2570.62L738.499 2554.34C753.368 2532.15 771.533 2520.94 791.951 2520.94C805.891 2520.94 820.873 2526.15 836.588 2536.69L851.739 2546.85L900.46 2474.14ZM787.923 2642.01L830.082 2579.13L821.099 2573.1C817.184 2570.48 813.495 2569.1 809.862 2569.1C802.286 2569.1 794.992 2575.01 786.487 2587.72L776.884 2602.02C766.154 2618.02 766.886 2627.87 778.968 2635.96L787.952 2641.98M885.787 2399.9L855.992 2444.34L834.954 2475.71C820.62 2470.19 806.229 2467.41 791.923 2467.41C753.481 2467.41 718.701 2487.71 694.031 2524.52L683.104 2540.8L682.991 2540.97L682.878 2541.14C657.617 2579.46 659.194 2612.95 664.939 2634.3C672.627 2662.8 692.172 2687.75 723.038 2708.42L783.953 2749.25L828.393 2779.05L858.188 2734.61L991.79 2535.31L1021.59 2490.87L977.146 2461.07L930.255 2429.64L885.815 2399.85L885.787 2399.9Z" fill="#091F11"/>
<path d="M767.336 2372.22L810.339 2408.74L655.025 2591.63L612.021 2555.1L767.336 2372.22ZM761.168 2296.8L726.529 2337.58L571.214 2520.46L536.574 2561.24L577.353 2595.88L620.357 2632.41L661.136 2667.05L695.775 2626.27L851.09 2443.38L885.73 2402.61L844.951 2367.97L801.947 2331.44L761.168 2296.8Z" fill="#091F11"/>
<path d="M639.368 2265.62C659.279 2265.62 678.711 2275.17 695.974 2293.76C729.121 2329.38 728.586 2370.5 691.44 2405.03L623.119 2468.53C605.348 2485.06 586.677 2493.12 568.428 2493.12C548.517 2493.12 529.113 2483.57 511.821 2464.98C478.674 2429.36 479.21 2388.24 516.356 2353.72L584.677 2290.21C602.448 2273.68 621.119 2265.62 639.368 2265.62ZM556.768 2441.69C563.189 2441.69 570.455 2438.2 578.143 2431.05L657.336 2357.4C670.938 2344.76 673.05 2332.62 664.32 2323.22C660.518 2319.13 656.04 2317.05 651.084 2317.05C644.663 2317.05 637.397 2320.54 629.709 2327.69L550.516 2401.34C536.914 2414.01 534.802 2426.12 543.532 2435.53C547.334 2439.61 551.812 2441.69 556.768 2441.69ZM639.396 2212.12C607.151 2212.12 575.637 2225.58 548.263 2251.01L479.97 2314.51C443.669 2348.28 435.107 2383.51 434.319 2407.14C433.221 2440.62 446.485 2473.21 472.704 2501.4C500.219 2530.97 533.337 2546.6 568.484 2546.6C600.73 2546.6 632.243 2533.14 659.617 2507.71L727.91 2444.2C764.211 2410.43 772.773 2375.2 773.561 2351.58C774.66 2318.09 761.395 2285.51 735.176 2257.32C707.662 2227.75 674.543 2212.12 639.396 2212.12Z" fill="#091F11"/>
<path d="M538.181 2094.4L567.949 2138.72L497.965 2230.9C489.573 2241.43 481.829 2251.09 473.802 2259.77L474.366 2260.61C486.813 2251.85 499.317 2242.61 512.807 2233.57L594.731 2178.55L622.048 2219.21L422.885 2352.98L389.71 2303.61L451.948 2222.34C459.524 2213.61 466.987 2204.09 474.168 2196.01L473.605 2195.16C460.228 2204.96 446.682 2214.48 433.22 2223.52L366.166 2268.55L339.046 2228.17L538.209 2094.4M552.741 2020.13L508.329 2049.96L309.166 2183.73L264.754 2213.55L294.578 2257.96L321.698 2298.35L323.838 2301.53L345.242 2333.41L378.417 2382.78L408.241 2427.19L452.652 2397.37L651.816 2263.6L696.228 2233.77L666.404 2189.36L639.086 2148.69L609.263 2104.28L582.565 2064.55L552.741 2020.13Z" fill="#091F11"/>
<path d="M440.683 1959.27C463.381 1959.27 485.996 1974.09 501.091 2006.05C520.86 2047.9 507.681 2084.03 471.915 2100.93L454.792 2109.01L420.462 2061.7L447.667 2048.86C460.819 2042.64 467.352 2034.33 462.424 2023.94C459.41 2017.57 454.623 2015.15 449.385 2015.15C446.09 2015.15 442.598 2016.13 439.274 2017.68L429.812 2022.16C419.42 2027.06 414.942 2031.82 413.393 2046.75L409.085 2091.38C406.325 2120.33 394.356 2135.35 370.53 2146.61L358.928 2152.1C349.578 2156.52 340.707 2158.52 332.371 2158.52C306.405 2158.52 285.875 2139.09 273.624 2113.18C255.009 2073.75 256.811 2040.41 300.181 2019.91L316.065 2012.39L349.352 2059.08L323.077 2071.5C312.685 2076.4 305.56 2084.26 310.911 2095.58C313.699 2101.49 318.656 2104.23 324.091 2104.23C326.794 2104.23 329.639 2103.55 332.371 2102.25L341.523 2097.92C350.394 2093.72 355.126 2084.77 356.111 2074.2L360.279 2029.99C363.236 1998.31 374.135 1984.96 396.44 1974.4L416.604 1964.88C424.405 1961.19 432.544 1959.3 440.683 1959.3M440.683 1905.77C424.602 1905.77 408.803 1909.37 393.736 1916.5L373.572 1926.02C359.322 1932.75 347.494 1940.94 337.89 1950.8L333.666 1944.86L293.197 1963.98L277.313 1971.5C232.198 1992.82 216.567 2024.72 211.414 2047.73C205.387 2074.68 209.893 2103.58 225.213 2136.02C247.687 2183.62 287.762 2212 332.342 2212C348.93 2212 365.546 2208.12 381.739 2200.46L393.342 2194.96C408.662 2187.73 421.391 2178.83 431.614 2168.21L437.5 2176.35L477.631 2157.4L494.754 2149.31C525.845 2134.61 548.375 2109.77 558.232 2079.3C567.976 2049.17 564.934 2015.94 549.445 1983.18C538.377 1959.75 523.62 1941.08 505.597 1927.7C486.249 1913.34 463.804 1905.77 440.654 1905.77H440.683Z" fill="#091F11"/>
<path d="M824.759 924.257L836.756 946.73L839.291 946.533L1079.77 927.495L1084.58 927.101L1089.26 928.256L1399.24 1004.97L2277.14 1222.21L2304.54 1229L2325.33 1234.15L2327.02 1255.5L2349.04 1533.58L2360.45 1526.28L2366.47 1538.7L2291.05 1661.77L2271.31 1670.13L2245.32 1681.15L1412.56 2033.85L1118.49 2158.38L1114.04 2160.27L1109.23 2160.66L868.748 2179.7L839.122 2182.04L836.784 2152.41L751.622 1076.95L749.284 1047.33L824.703 924.257M1173.66 1736.54L1431.49 1637.61L1666.36 1547.49L1793.26 1498.79L1590.97 1456.04L1344.86 1404.03L1143.98 1361.56L1173.66 1736.51M827.941 816.649L779.136 896.32L703.718 1019.39L694.621 1034.23L696.001 1051.58L698.339 1081.21L783.501 2156.66L785.839 2186.29L790.063 2239.63L843.402 2235.41L873.029 2233.07L1113.51 2214.03L1118.32 2213.64L1126.97 2212.96L1134.97 2209.58L1139.42 2207.69L1433.49 2083.16L2266.24 1730.46L2292.21 1719.45L2311.95 1711.08L2327.75 1704.38L2336.71 1689.76L2412.12 1566.69L2427.42 1541.74L2414.66 1515.41L2408.63 1502.99L2398.69 1482.49L2380.38 1251.33L2378.7 1229.99L2375.65 1191.52L2338.2 1182.25L2317.41 1177.1L2290.01 1170.31L1412.14 953.067L1102.16 876.353L1097.48 875.198L1089.06 873.114L1080.42 873.79L1075.6 874.184L867.509 890.659L827.998 816.677L827.941 816.649ZM1221.34 1660.92L1202.95 1428.73L1333.79 1456.38L1579.9 1508.4L1605.02 1513.72L1412.31 1587.65L1221.34 1660.92Z" fill="#091F11"/>
<path d="M1097.2 932.508L1407.18 1009.22L2285.08 1226.47L2312.49 1233.25L2335.16 1519.72L2309.16 1530.73L1476.41 1883.43L1182.33 2007.97L941.857 2027.01L856.695 951.546L1097.17 932.508M1162.26 1753.92L1457.23 1640.73L1692.1 1550.61L2073.25 1404.37L2071.98 1388.31L1672.58 1303.88L1426.47 1251.87L1117.39 1186.53L1162.31 1753.89M1101.65 878.465L1093 879.141L852.527 898.179L799.188 902.403L803.412 955.742L888.574 2031.2L892.799 2084.54L946.138 2080.32L1186.62 2061.28L1195.26 2060.6L1203.26 2057.22L1497.33 1932.69L2330.09 1579.99L2356.05 1568.98L2391.57 1553.94L2388.52 1515.47L2365.85 1229L2362.81 1190.53L2325.36 1181.27L2297.95 1174.48L1420.05 957.235L1110.07 880.521L1101.65 878.437V878.465ZM1209.93 1678.3L1176.31 1253.7L1415.35 1304.22L1661.46 1356.24L1911.54 1409.1L1672.89 1500.65L1438.02 1590.77L1209.91 1678.3H1209.93Z" fill="#091F11"/>
<path d="M1097.2 932.509L1407.18 1009.22L2285.08 1226.47L2312.48 1233.25L2335.16 1519.72L2309.16 1530.73L1476.4 1883.44L1182.33 2007.97L941.856 2027.01L856.694 951.546L1097.17 932.509M1162.25 1753.92L1457.23 1640.73L1692.1 1550.61L2073.25 1404.37L2071.98 1388.29L1672.58 1303.86L1426.47 1251.84L1117.39 1186.5L1162.31 1753.86M1099.68 902.488L1094.86 902.882L854.385 921.92L824.758 924.257L827.095 953.884L912.258 2029.34L914.595 2058.97L944.222 2056.63L1184.7 2037.6L1189.52 2037.2L1193.96 2035.31L1488.04 1910.78L2320.79 1558.08L2346.79 1547.07L2366.53 1538.7L2364.84 1517.35L2342.17 1230.89L2340.48 1209.54L2319.69 1204.39L2292.29 1197.6L1414.39 980.356L1104.41 903.642L1099.73 902.488H1099.68ZM1188.73 1711.93L1150.09 1223.85L1420.28 1280.96L1666.39 1332.98L1995.24 1402.48L1681.43 1522.87L1446.55 1612.99L1188.73 1711.93Z" stroke="#091F11" stroke-width="53.5083" stroke-miterlimit="10"/>
<path d="M1099.68 902.487L1104.35 903.641L1414.33 980.355L2292.24 1197.6L2319.64 1204.39L2340.42 1209.54L2342.11 1230.89L2364.81 1517.35L2366.5 1538.7L2291.08 1661.77L2271.34 1670.13L2245.35 1681.14L1412.59 2033.85L1118.52 2158.38L1114.07 2160.27L1109.25 2160.66L868.776 2179.7L839.149 2182.04L836.812 2152.41L751.649 1076.95L749.312 1047.33L824.73 924.256L854.357 921.919L1094.83 902.881L1099.65 902.487M1188.73 1711.93L1446.55 1612.99L1681.43 1522.87L1761.6 1492.12L1590.97 1456.04L1344.86 1404.03L1161.3 1365.22L1188.76 1711.9M1101.76 876.916L1097.65 877.253L1092.83 877.648L852.357 896.685L822.731 899.023L809.86 900.037L803.13 911.048L727.711 1034.12L723.402 1041.16L724.05 1049.38L726.388 1079.01L811.55 2154.47L813.888 2184.09L815.887 2209.36L841.149 2207.36L870.775 2205.02L1111.25 2185.98L1116.07 2185.62L1120.18 2185.28L1123.95 2183.67L1128.4 2181.78L1422.47 2057.25L2255.23 1704.55L2281.2 1693.54L2300.94 1685.17L2308.43 1681.99L2312.68 1675.06L2388.1 1551.99L2392.41 1544.95L2391.76 1536.73L2390.07 1515.38L2367.37 1228.92L2365.68 1207.57L2364.25 1189.35L2346.51 1184.95L2325.72 1179.8L2298.32 1173.01L1420.42 955.77L1110.44 879.056L1105.76 877.901L1101.76 876.916ZM1211.31 1676.1L1189.21 1397.04L1339.59 1428.84L1585.7 1480.85L1672.41 1499.19H1672.3L1437.43 1589.34L1211.26 1676.1H1211.31Z" stroke="#091F11" stroke-width="53.5083" stroke-miterlimit="10"/>
<path d="M1524 2979C2327.58 2979 2979 2327.58 2979 1524C2979 720.424 2327.58 68.9971 1524 68.9971C720.425 68.9971 68.998 720.424 68.998 1524C68.998 2327.58 720.425 2979 1524 2979Z" fill="#00FF3B"/>
<path d="M1524 68.9973C2327.58 68.9973 2979 720.418 2979 1524C2979 2327.58 2327.58 2979 1524 2979C720.419 2979 68.9981 2327.58 68.9981 1524C68.9981 720.418 720.419 68.9973 1524 68.9973ZM1524 26.7539C1321.88 26.7539 1125.81 66.35 941.183 144.444C762.888 219.862 602.757 327.808 465.269 465.296C327.781 602.784 219.835 762.915 144.417 941.21C66.3227 1125.81 26.7266 1321.91 26.7266 1524.03C26.7266 1726.15 66.3227 1922.21 144.417 2106.85C219.835 2285.14 327.781 2445.27 465.269 2582.76C602.757 2720.25 762.888 2828.19 941.183 2903.61C1125.79 2981.71 1321.88 3021.3 1524 3021.3C1726.12 3021.3 1922.19 2981.71 2106.82 2903.61C2285.11 2828.19 2445.24 2720.25 2582.73 2582.76C2720.22 2445.27 2828.17 2285.14 2903.58 2106.85C2981.68 1922.24 3021.27 1726.15 3021.27 1524.03C3021.27 1321.91 2981.68 1125.84 2903.58 941.21C2828.17 762.915 2720.22 602.784 2582.73 465.296C2445.24 327.808 2285.11 219.862 2106.82 144.444C1922.21 66.35 1726.12 26.7539 1524 26.7539Z" fill="#091F11"/>
<path d="M1524 2520.21C2074.19 2520.21 2520.21 2074.19 2520.21 1524C2520.21 973.808 2074.19 527.789 1524 527.789C973.81 527.789 527.791 973.808 527.791 1524C527.791 2074.19 973.81 2520.21 1524 2520.21Z" fill="#ACD88C"/>
<mask id="mask2_740_218" style="mask-type:luminance" maskUnits="userSpaceOnUse" x="527" y="527" width="1994" height="1994">
<path d="M1524 2520.21C2074.19 2520.21 2520.21 2074.19 2520.21 1524C2520.21 973.808 2074.19 527.789 1524 527.789C973.81 527.789 527.791 973.808 527.791 1524C527.791 2074.19 973.81 2520.21 1524 2520.21Z" fill="white"/>
</mask>
<g mask="url(#mask2_740_218)">
<path d="M2784.6 506.302H1367.42V660.997H2784.6V506.302Z" fill="#091F11"/>
<path d="M2337.72 506.302H742.752V609.432H2337.72V506.302Z" fill="#091F11"/>
<path d="M1186 506.302H334.852V560.514H1186V506.302Z" fill="#091F11"/>
<path d="M2784.6 744.301H1367.42V898.996H2784.6V744.301Z" fill="#091F11"/>
<path d="M2337.72 744.301H742.752V847.431H2337.72V744.301Z" fill="#091F11"/>
<path d="M1186 744.301H334.852V798.514H1186V744.301Z" fill="#091F11"/>
<path d="M2784.6 982.272H1367.42V1136.97H2784.6V982.272Z" fill="#091F11"/>
<path d="M2337.72 982.272H742.752V1085.4H2337.72V982.272Z" fill="#091F11"/>
<path d="M1186 982.272H334.852V1036.48H1186V982.272Z" fill="#091F11"/>
<path d="M2784.6 1220.24H1367.42V1374.94H2784.6V1220.24Z" fill="#091F11"/>
<path d="M2337.72 1220.24H742.752V1323.37H2337.72V1220.24Z" fill="#091F11"/>
<path d="M1186 1220.24H334.852V1274.46H1186V1220.24Z" fill="#091F11"/>
<path d="M2784.6 1458.24H1367.42V1612.94H2784.6V1458.24Z" fill="#091F11"/>
<path d="M2337.72 1458.24H742.752V1561.37H2337.72V1458.24Z" fill="#091F11"/>
<path d="M1186 1458.24H334.852V1512.45H1186V1458.24Z" fill="#091F11"/>
<path d="M2784.6 1696.21H1367.42V1850.91H2784.6V1696.21Z" fill="#091F11"/>
<path d="M2337.72 1696.21H742.752V1799.34H2337.72V1696.21Z" fill="#091F11"/>
<path d="M1186 1696.21H334.852V1750.43H1186V1696.21Z" fill="#091F11"/>
<path d="M2784.6 1934.18H1367.42V2088.88H2784.6V1934.18Z" fill="#091F11"/>
<path d="M2337.72 1934.18H742.752V2037.31H2337.72V1934.18Z" fill="#091F11"/>
<path d="M1186 1934.18H334.852V1988.4H1186V1934.18Z" fill="#091F11"/>
<path d="M2784.6 2172.18H1367.42V2326.88H2784.6V2172.18Z" fill="#091F11"/>
<path d="M2337.72 2172.18H742.752V2275.31H2337.72V2172.18Z" fill="#091F11"/>
<path d="M1186 2172.18H334.852V2226.4H1186V2172.18Z" fill="#091F11"/>
<path d="M2784.6 2410.15H1367.42V2564.85H2784.6V2410.15Z" fill="#091F11"/>
<path d="M2337.72 2410.15H742.752V2513.28H2337.72V2410.15Z" fill="#091F11"/>
<path d="M1186 2410.15H334.852V2464.37H1186V2410.15Z" fill="#091F11"/>
</g>
<path d="M1524 527.789C2074.18 527.789 2520.21 973.795 2520.21 1524C2520.21 2074.21 2074.21 2520.21 1524 2520.21C973.795 2520.21 527.789 2074.21 527.789 1524C527.789 973.795 973.795 527.789 1524 527.789ZM1524 485.546C1383.84 485.546 1247.84 513.004 1119.79 567.16C996.128 619.457 885.084 694.341 789.727 789.698C694.369 885.056 619.486 996.099 567.188 1119.76C513.032 1247.81 485.574 1383.81 485.574 1523.97C485.574 1664.14 513.032 1800.13 567.188 1928.19C619.486 2051.85 694.369 2162.89 789.727 2258.25C885.084 2353.6 996.128 2428.46 1119.79 2480.78C1247.84 2534.94 1383.84 2562.4 1524 2562.4C1664.16 2562.4 1800.16 2534.94 1928.21 2480.78C2051.87 2428.49 2162.92 2353.6 2258.28 2258.25C2353.63 2162.89 2428.49 2051.85 2480.81 1928.19C2534.97 1800.13 2562.43 1664.14 2562.43 1523.97C2562.43 1383.81 2534.97 1247.81 2480.81 1119.76C2428.52 996.099 2353.63 885.056 2258.28 789.698C2162.92 694.341 2051.87 619.457 1928.21 567.16C1800.16 513.004 1664.16 485.546 1524 485.546Z" fill="#091F11"/>
<path d="M1524 2203.3C1899.17 2203.3 2203.3 1899.17 2203.3 1524C2203.3 1148.83 1899.17 844.699 1524 844.699C1148.83 844.699 844.701 1148.83 844.701 1524C844.701 1899.17 1148.83 2203.3 1524 2203.3Z" fill="#ACD88C"/>
<path d="M1524 844.727C1899.15 844.727 2203.3 1148.85 2203.3 1524.03C2203.3 1899.21 1899.18 2203.33 1524 2203.33C1148.82 2203.33 844.7 1899.21 844.7 1524.03C844.7 1148.85 1148.82 844.727 1524 844.727ZM1524 802.484C1426.62 802.484 1332.1 821.578 1243.14 859.203C1157.22 895.56 1080.05 947.576 1013.81 1013.81C947.576 1080.05 895.532 1157.22 859.203 1243.14C821.578 1332.13 802.484 1426.62 802.484 1524C802.484 1621.39 821.578 1715.9 859.203 1804.86C895.532 1890.79 947.576 1967.95 1013.81 2034.19C1080.05 2100.43 1157.22 2152.47 1243.14 2188.8C1332.13 2226.42 1426.62 2245.52 1524 2245.52C1621.39 2245.52 1715.9 2226.42 1804.86 2188.8C1890.79 2152.44 1967.95 2100.43 2034.19 2034.19C2100.43 1967.95 2152.47 1890.79 2188.8 1804.86C2226.42 1715.87 2245.52 1621.39 2245.52 1524C2245.52 1426.62 2226.42 1332.1 2188.8 1243.14C2152.47 1157.22 2100.43 1080.05 2034.19 1013.81C1967.95 947.576 1890.79 895.532 1804.86 859.203C1715.87 821.578 1621.39 802.484 1524 802.484Z" fill="#091F11"/>
<mask id="mask3_740_218" style="mask-type:luminance" maskUnits="userSpaceOnUse" x="156" y="1166" width="2752" height="644">
<path d="M2907.02 1166.23H156.414V1809.79H2907.02V1166.23Z" fill="white"/>
</mask>
<g mask="url(#mask3_740_218)">
<path d="M1524 286.833C2207.27 286.833 2761.17 840.728 2761.17 1524C2761.17 2207.27 2207.27 2761.17 1524 2761.17C840.728 2761.17 286.833 2207.27 286.833 1524C286.833 840.728 840.728 286.833 1524 286.833ZM1524 244.589C1351.31 244.589 1183.74 278.412 1025.98 345.157C873.622 409.592 736.81 501.851 619.317 619.344C501.824 736.837 409.592 873.649 345.157 1026.01C278.441 1183.77 244.59 1351.34 244.59 1524.03C244.59 1696.72 278.413 1864.28 345.157 2022.05C409.592 2174.41 501.852 2311.22 619.317 2428.71C736.81 2546.21 873.622 2638.44 1025.98 2702.87C1183.74 2769.59 1351.31 2803.44 1524 2803.44C1696.69 2803.44 1864.26 2769.62 2022.02 2702.87C2174.38 2638.44 2311.19 2546.18 2428.68 2428.71C2546.18 2311.22 2638.41 2174.41 2702.84 2022.05C2769.56 1864.28 2803.41 1696.72 2803.41 1524.03C2803.41 1351.34 2769.59 1183.77 2702.84 1026.01C2638.41 873.649 2546.15 736.837 2428.68 619.344C2311.19 501.851 2174.38 409.62 2022.02 345.157C1864.26 278.44 1696.69 244.589 1524 244.589Z" fill="#091F11"/>
</g>
<path d="M561.979 914.767L534.915 964.276L446.851 916.118L429.982 946.956L518.045 995.113L490.982 1044.62L280.469 929.495L307.533 879.986L392.329 926.369L409.198 895.532L324.402 849.177L351.466 799.667L561.979 914.795V914.767Z" fill="#091F11"/>
<path d="M518.243 847.431L444.401 790.402C404.27 759.424 399.989 718.532 429.729 680.006C459.468 641.48 500.134 635.284 540.237 666.291L614.079 723.291C654.21 754.27 658.491 795.161 628.751 833.687C599.012 872.213 558.346 878.409 518.243 847.402V847.431ZM584.452 773.871L498.839 707.774C484.138 696.425 471.831 696.312 463.974 706.478C456.117 716.645 459.327 728.53 474.056 739.879L559.669 805.976C574.37 817.325 586.677 817.438 594.534 807.271C602.391 797.105 599.181 785.22 584.452 773.871Z" fill="#091F11"/>
<path d="M526.943 571.159L580.508 522.072L659.982 586.282C669.67 594.364 680.737 603.94 686.229 609.91L687.215 609.009C681.723 603.038 673.162 591.182 665.952 580.818L608.642 496.275L662.207 447.188L824.309 624.076L789.19 656.265L717.489 578.03C702.873 562.09 687.581 545.39 674.176 529.253L673.19 530.154C679.301 538.322 685.384 546.939 691.439 556.064L769.758 674.064L743.342 698.255L632.129 610.389C623.822 603.32 615.035 596.251 608.163 589.718L606.924 590.872C622.075 605.404 637.368 622.104 651.984 638.044L723.685 716.279L689.045 748.018L526.943 571.131V571.159Z" fill="#091F11"/>
<path d="M929.241 504.414L952.531 539.645L852.752 605.629L720.418 405.48L818.225 340.819L841.516 376.05L790.767 409.592L820.028 453.863L867.115 422.743L890.405 457.974L843.318 489.094L876.493 539.279L929.213 504.414H929.241Z" fill="#091F11"/>
<path d="M992.889 434.234L957.489 347.945C938.254 301.054 955.011 263.486 1000.01 245.04C1045.02 226.593 1083.32 241.548 1102.55 288.466L1137.95 374.755C1157.19 421.645 1140.43 459.214 1095.43 477.66C1050.42 496.106 1012.12 481.152 992.889 434.234ZM1087.01 403.678L1045.98 303.617C1038.93 286.41 1028.32 280.186 1016.43 285.058C1004.55 289.93 1001.39 301.815 1008.43 319.022L1049.47 419.082C1056.51 436.29 1067.12 442.513 1079.01 437.641C1090.89 432.769 1094.05 420.885 1087.01 403.678Z" fill="#091F11"/>
<path d="M1197.97 230.649L1211.17 282.383L1265.87 268.415L1276.31 309.335L1221.62 323.303L1246.77 421.871L1192.08 435.839L1132.74 203.36L1246.38 174.353L1256.91 215.611L1197.97 230.649Z" fill="#091F11"/>
<path d="M1362.94 326.541L1356.01 228.114C1352.44 177.535 1378.54 148.95 1427.77 145.486C1474.97 142.163 1503.56 163.172 1506.65 207.021L1508.57 234.338L1451.32 248.87L1448.75 212.456C1447.6 195.925 1441.26 187.927 1429.8 188.715C1417.66 189.56 1412.31 200.121 1413.69 219.666L1421.07 324.514C1422.45 344.058 1429.24 353.746 1441.04 352.929C1452.5 352.113 1458.27 342.566 1457.06 325.387L1454.38 287.621L1512.48 294.718L1514.37 321.36C1517.58 366.87 1490.97 393.145 1444.11 396.44C1394.54 399.932 1366.52 377.177 1362.94 326.598V326.541Z" fill="#091F11"/>
<path d="M1692.52 397.82L1636.28 393.173L1644.53 293.141L1609.5 290.24L1601.25 390.272L1545.01 385.625L1564.75 146.472L1620.99 151.118L1613.05 247.462L1648.08 250.362L1656.02 154.019L1712.26 158.666L1692.52 397.82Z" fill="#091F11"/>
<path d="M1825.48 377.008L1787.06 367.63L1768.79 413.957L1713.95 400.552L1815.22 178.324L1887.77 196.066L1875.46 440.035L1820.32 426.546L1825.48 377.008ZM1829.7 336.99L1837.28 264.754C1838.54 253.939 1839.3 245.068 1841.11 231.945L1840.12 231.691C1836.01 244.252 1832.29 252.39 1828.4 262.557L1801.79 330.146L1829.7 336.962V336.99Z" fill="#091F11"/>
<path d="M1992.06 226.34L2058.6 255.516L2031.96 354.169C2028.5 366.307 2024.19 380.303 2020.95 387.71L2022.19 388.245C2025.46 380.81 2032.83 368.194 2039.4 357.407L2093.58 270.837L2160.13 300.013L2063.79 519.791L2020.13 500.669L2062.74 403.481C2071.42 383.683 2080.51 362.927 2089.86 344.143L2088.62 343.608C2083.61 352.479 2078.18 361.547 2072.29 370.756L1996 490.08L1963.19 475.689L1998.65 338.454C2001.74 328.006 2004.67 317.107 2007.85 308.18L2006.31 307.504C1999.12 327.246 1990.03 347.973 1981.35 367.799L1938.74 464.987L1895.71 446.119L1992.06 226.34Z" fill="#091F11"/>
<path d="M2311.3 470.676L2300.52 487.039C2275.82 524.579 2241.55 531.169 2202.6 505.541L2187.36 495.515L2139.26 568.625L2092.12 537.618L2223.97 337.159L2285.23 377.459C2325.33 403.819 2334.03 435.474 2311.3 470.648V470.676ZM2261.74 439.67C2272.33 423.589 2271.51 413.732 2259.37 405.762L2250.33 399.82L2208.74 463.073L2217.78 469.015C2229.92 477.013 2239.83 473.014 2252.28 454.089L2261.74 439.698V439.67Z" fill="#091F11"/>
<path d="M2229.89 633.229L2383.62 449.02L2426.97 485.18L2273.23 669.389L2229.89 633.229Z" fill="#091F11"/>
<path d="M2348.84 635.932L2416.6 571.834C2453.44 536.998 2494.5 539.082 2527.93 574.453C2561.38 609.797 2561.19 650.914 2524.38 685.751L2456.62 749.848C2419.78 784.685 2378.72 782.6 2345.3 747.229C2311.84 711.885 2312.04 670.768 2348.84 635.932ZM2411.25 712.73L2489.82 638.41C2503.31 625.624 2505.34 613.486 2496.5 604.165C2487.68 594.843 2475.43 596.166 2461.94 608.952L2383.37 683.272C2369.88 696.058 2367.85 708.196 2376.7 717.518C2385.51 726.839 2397.76 725.516 2411.25 712.73Z" fill="#091F11"/>
<path d="M2617.91 685.639L2651.5 734.725L2589.97 816.537C2582.48 825.351 2575.1 834.898 2567.97 843.037L2568.54 843.882C2581.83 833.969 2595.29 824.338 2608.7 815.185L2675.36 769.562L2702.84 809.721L2504.83 945.21L2474.67 901.136L2543.84 808.341C2552.15 797.752 2559.81 788.008 2567.78 779.278L2567.21 778.433C2554.85 787.304 2542.4 796.626 2529.03 805.807L2447.58 861.54L2419.9 821.099L2617.91 685.61V685.639Z" fill="#091F11"/>
<path d="M2570.99 938.141L2588.03 929.918L2622.75 976.949L2595.66 990.044C2582.56 996.381 2576.11 1004.74 2581.1 1015.08C2586.08 1025.42 2595.77 1025.25 2604.3 1021.14L2613.74 1016.57C2624.07 1011.56 2628.52 1006.8 2629.93 991.847L2633.88 947.153C2636.38 918.174 2648.24 903.051 2671.95 891.589L2683.53 886.013C2721.85 867.482 2752.69 890.125 2769.17 924.201C2788.12 963.459 2786.63 996.831 2743.4 1017.7L2727.57 1025.33L2693.89 978.92L2720.05 966.275C2730.39 961.29 2737.46 953.377 2732.02 942.112C2727.77 933.297 2718.7 931.664 2710.5 935.635L2701.38 940.056C2692.57 944.309 2687.89 953.321 2686.99 963.881L2683.22 1008.12C2680.51 1039.83 2669.75 1053.3 2647.53 1064.03L2627.45 1073.74C2597.94 1087.99 2563.47 1076.5 2542.6 1033.3C2522.47 991.621 2535.34 955.376 2570.96 938.169L2570.99 938.141Z" fill="#091F11"/>
<path d="M2480.67 2141.63L2508.19 2092.34L2595.83 2141.26L2612.95 2110.56L2525.31 2061.65L2552.83 2012.36L2762.35 2129.29L2734.84 2178.58L2650.44 2131.46L2633.31 2162.16L2717.72 2209.24L2690.2 2258.53L2480.67 2141.6V2141.63Z" fill="#091F11"/>
<path d="M2523.82 2209.33L2597.15 2266.98C2637 2298.29 2640.94 2339.24 2610.87 2377.48C2580.79 2415.73 2540.09 2421.59 2500.25 2390.24L2426.91 2332.59C2387.06 2301.28 2383.12 2260.33 2413.2 2222.09C2443.27 2183.84 2483.97 2177.98 2523.82 2209.33ZM2456.99 2282.32L2542.01 2349.15C2556.63 2360.64 2568.93 2360.84 2576.87 2350.76C2584.82 2340.68 2581.69 2328.76 2567.07 2317.27L2482.05 2250.44C2467.44 2238.95 2455.13 2238.73 2447.19 2248.84C2439.25 2258.92 2442.37 2270.83 2456.99 2282.32Z" fill="#091F11"/>
<path d="M2512.72 2485.52L2458.74 2534.15L2379.83 2469.24C2370.19 2461.07 2359.21 2451.41 2353.8 2445.38L2352.79 2446.29C2358.23 2452.31 2366.67 2464.25 2373.8 2474.67L2430.38 2559.69L2376.39 2608.33L2215.81 2430.04L2251.21 2398.16L2322.23 2477.01C2336.71 2493.09 2351.86 2509.9 2365.12 2526.15L2366.14 2525.25C2360.11 2517.03 2354.11 2508.35 2348.11 2499.17L2270.81 2380.53L2297.42 2356.56L2407.88 2445.38C2416.13 2452.51 2424.83 2459.66 2431.67 2466.25L2432.94 2465.13C2417.9 2450.45 2402.75 2433.64 2388.27 2417.56L2317.28 2338.71L2352.17 2307.28L2512.72 2485.57V2485.52Z" fill="#091F11"/>
<path d="M2109.86 2548.8L2086.88 2513.37L2187.25 2448.26L2317.84 2649.53L2219.47 2713.35L2196.49 2677.92L2247.52 2644.83L2218.65 2600.33L2171.31 2631.06L2148.33 2595.63L2195.67 2564.9L2162.92 2514.44L2109.92 2548.82L2109.86 2548.8Z" fill="#091F11"/>
<path d="M2045.62 2618.41L2080.26 2705.01C2099.1 2752.07 2082.04 2789.47 2036.84 2807.55C1991.66 2825.63 1953.5 2810.31 1934.66 2763.25L1900.02 2676.65C1881.18 2629.59 1898.25 2592.19 1943.45 2574.11C1988.62 2556.03 2026.78 2571.35 2045.62 2618.41ZM1951.25 2648.18L1991.41 2748.58C1998.31 2765.84 2008.87 2772.18 2020.78 2767.39C2032.7 2762.63 2035.96 2750.75 2029.06 2733.51L1988.9 2633.11C1982 2615.85 1971.44 2609.51 1959.53 2614.3C1947.62 2619.06 1944.35 2630.95 1951.25 2648.18Z" fill="#091F11"/>
<path d="M1838.8 2820.22L1826.04 2768.38L1771.24 2781.87L1761.16 2740.83L1815.96 2727.34L1791.66 2628.58L1846.46 2615.09L1903.8 2848.08L1789.94 2876.1L1779.77 2834.76L1838.83 2820.22H1838.8Z" fill="#091F11"/>
<path d="M1674.64 2722.92L1680.72 2821.41C1683.85 2872.01 1657.49 2900.37 1608.26 2903.41C1561.04 2906.34 1532.65 2885.05 1529.92 2841.2L1528.23 2813.89L1585.59 2799.83L1587.85 2836.25C1588.86 2852.78 1595.11 2860.86 1606.6 2860.16C1618.74 2859.4 1624.2 2848.92 1622.99 2829.35L1616.51 2724.44C1615.3 2704.87 1608.6 2695.13 1596.8 2695.86C1585.34 2696.56 1579.48 2706.08 1580.55 2723.29L1582.89 2761.08L1524.85 2753.51L1523.21 2726.87C1520.4 2681.33 1547.24 2655.28 1594.13 2652.4C1643.72 2649.34 1671.54 2672.34 1674.67 2722.92H1674.64Z" fill="#091F11"/>
<path d="M1345.71 2648.8L1401.92 2653.93L1392.79 2753.87L1427.8 2757.06L1436.93 2657.11L1493.14 2662.23L1471.34 2901.19L1415.13 2896.06L1423.91 2799.81L1388.91 2796.62L1380.12 2892.88L1323.91 2887.76L1345.71 2648.8Z" fill="#091F11"/>
<path d="M1212.56 2668.46L1250.89 2678.17L1269.56 2632.02L1324.25 2645.87L1221.06 2867.23L1148.69 2848.86L1163.1 2605.01L1218.13 2618.98L1212.56 2668.46ZM1208.02 2708.45L1199.83 2780.63C1198.48 2791.44 1197.63 2800.28 1195.72 2813.41L1196.7 2813.66C1200.93 2801.13 1204.73 2793.05 1208.7 2782.88L1235.88 2715.52L1208.02 2708.45Z" fill="#091F11"/>
<path d="M1044.68 2817.69L978.386 2787.95L1005.87 2689.52C1009.45 2677.41 1013.87 2663.47 1017.19 2656.07L1015.95 2655.5C1012.63 2662.91 1005.14 2675.47 998.494 2686.17L943.55 2772.29L877.256 2742.55L975.514 2523.62L1019 2543.14L975.542 2639.96C966.699 2659.7 957.406 2680.34 947.915 2699.04L949.154 2699.61C954.223 2690.76 959.743 2681.78 965.713 2672.6L1043.05 2553.95L1075.74 2568.62L1039.1 2705.55C1035.92 2715.97 1032.88 2726.84 1029.61 2735.74L1031.16 2736.44C1038.51 2716.78 1047.78 2696.11 1056.62 2676.37L1100.08 2579.55L1142.94 2598.78L1044.68 2817.72V2817.69Z" fill="#091F11"/>
<path d="M727.575 2570.62L738.502 2554.34C763.538 2517 797.84 2510.72 836.591 2536.69L851.743 2546.85L900.463 2474.14L947.353 2505.57L813.752 2704.87L752.837 2664.04C712.987 2637.31 704.538 2605.63 727.575 2570.62ZM776.887 2602.05C766.157 2618.05 766.89 2627.9 778.971 2635.99L787.955 2642.01L830.114 2579.13L821.13 2573.1C809.049 2565.02 799.107 2568.93 786.519 2587.74L776.915 2602.05H776.887Z" fill="#091F11"/>
<path d="M810.342 2408.75L655.027 2591.63L612.023 2555.1L767.338 2372.22L810.342 2408.75Z" fill="#091F11"/>
<path d="M691.471 2405.03L623.149 2468.53C586.031 2503.06 544.97 2500.61 511.852 2464.96C478.705 2429.33 479.24 2388.22 516.386 2353.69L584.707 2290.18C621.825 2255.66 662.886 2258.11 696.005 2293.76C729.152 2329.38 728.617 2370.5 691.471 2405.03ZM629.711 2327.69L550.518 2401.34C536.916 2414.01 534.804 2426.12 543.534 2435.53C552.293 2444.93 564.515 2443.69 578.146 2431.05L657.338 2357.41C670.94 2344.76 673.052 2332.62 664.322 2323.22C655.564 2313.81 643.341 2315.05 629.711 2327.69Z" fill="#091F11"/>
<path d="M422.857 2353.01L389.681 2303.64L451.92 2222.37C459.496 2213.64 466.959 2204.12 474.14 2196.04L473.577 2195.19C460.2 2204.99 446.654 2214.51 433.192 2223.55L366.138 2268.58L339.018 2228.2L538.181 2094.43L567.948 2138.75L497.965 2230.93C489.573 2241.46 481.828 2251.12 473.802 2259.8L474.365 2260.64C486.813 2251.88 499.317 2242.64 512.807 2233.6L594.731 2178.58L622.048 2219.24L422.885 2353.01H422.857Z" fill="#091F11"/>
<path d="M471.917 2100.93L454.794 2109.01L420.464 2061.7L447.669 2048.86C460.821 2042.64 467.354 2034.33 462.426 2023.94C457.526 2013.54 447.838 2013.63 439.276 2017.68L429.814 2022.16C419.422 2027.06 414.944 2031.82 413.395 2046.75L409.087 2091.39C406.327 2120.34 394.358 2135.35 370.532 2146.61L358.93 2152.1C320.432 2170.3 289.791 2147.4 273.626 2113.18C255.011 2073.76 256.813 2040.41 300.183 2019.91L316.067 2012.39L349.354 2059.08L323.079 2071.5C312.687 2076.4 305.562 2084.26 310.913 2095.58C315.109 2104.45 324.121 2106.14 332.373 2102.26L341.525 2097.92C350.396 2093.72 355.128 2084.77 356.113 2074.21L360.281 2029.99C363.238 1998.31 374.137 1984.96 396.442 1974.4L416.606 1964.88C446.233 1950.88 480.59 1962.68 501.093 2006.05C520.862 2047.9 507.683 2084.03 471.917 2100.93Z" fill="#091F11"/>
<path d="M2360.47 1526.28L2349.07 1533.57L2327.05 1255.5L2325.36 1234.15L2304.57 1229L2277.17 1222.21L1399.27 1004.97L1089.29 928.255L1084.61 927.1L1079.8 927.495L839.319 946.532L836.785 946.729L824.788 924.256L749.369 1047.32L751.707 1076.95L836.869 2152.41L839.207 2182.04L868.833 2179.7L1109.31 2160.66L1114.13 2160.27L1118.58 2158.38L1412.65 2033.85L2245.4 1681.14L2271.4 1670.13L2291.14 1661.77L2366.56 1538.7L2360.53 1526.28H2360.47ZM1666.33 1547.51L1431.46 1637.63L1173.63 1736.57L1143.95 1361.62L1344.83 1404.08L1590.94 1456.1L1793.23 1498.85L1666.33 1547.54V1547.51Z" fill="#091F11"/>
<path d="M2285.08 1226.46L1407.18 1009.22L1097.2 932.507L856.721 951.545L941.883 2027L1182.36 2007.97L1476.43 1883.43L2309.19 1530.73L2335.18 1519.72L2312.51 1233.25L2285.11 1226.46H2285.08ZM1162.25 1753.92L1117.33 1186.56L1426.41 1251.9L1672.52 1303.91L2071.92 1388.34L2073.19 1404.42L1692.04 1550.67L1457.17 1640.79L1162.2 1753.97L1162.25 1753.92Z" fill="#00FF3B"/>
<path d="M1097.2 932.508L1407.18 1009.22L2285.08 1226.47L2312.48 1233.25L2335.16 1519.72L2309.16 1530.73L1476.4 1883.43L1182.33 2007.97L941.856 2027.01L856.694 951.545L1097.17 932.508M1162.25 1753.92L1457.23 1640.73L1692.1 1550.61L2073.25 1404.37L2071.98 1388.29L1672.58 1303.86L1426.47 1251.84L1117.39 1186.5L1162.31 1753.86M1099.68 902.487L1094.86 902.881L854.385 921.919L824.758 924.256L827.095 953.883L912.258 2029.34L914.595 2058.97L944.222 2056.63L1184.7 2037.59L1189.52 2037.2L1193.96 2035.31L1488.04 1910.78L2320.79 1558.08L2346.79 1547.06L2366.53 1538.7L2364.84 1517.35L2342.17 1230.89L2340.48 1209.54L2319.69 1204.39L2292.29 1197.6L1414.39 980.355L1104.41 903.641L1099.73 902.487H1099.68ZM1188.73 1711.93L1150.09 1223.85L1420.28 1280.96L1666.39 1332.97L1995.24 1402.48L1681.43 1522.87L1446.55 1612.99L1188.73 1711.93Z" fill="#091F11"/>
<path d="M1099.68 902.487L1104.36 903.641L1414.34 980.355L2292.24 1197.6L2319.64 1204.39L2340.42 1209.54L2342.11 1230.89L2364.81 1517.35L2366.5 1538.7L2291.08 1661.77L2271.34 1670.13L2245.35 1681.14L1412.59 2033.85L1118.52 2158.38L1114.07 2160.27L1109.26 2160.66L868.778 2179.7L839.151 2182.04L836.814 2152.41L751.651 1076.95L749.314 1047.33L824.732 924.256L854.359 921.919L1094.84 902.881L1099.65 902.487M1188.73 1711.93L1446.55 1612.99L1681.43 1522.87L1761.61 1492.12L1590.97 1456.04L1344.86 1404.03L1161.3 1365.22L1188.76 1711.9M1101.76 876.916L1097.65 877.253L1092.84 877.648L852.359 896.685L822.733 899.023L809.862 900.037L803.132 911.048L727.713 1034.12L723.404 1041.16L724.052 1049.38L726.389 1079.01L811.552 2154.47L813.89 2184.09L815.889 2209.36L841.151 2207.36L870.777 2205.02L1111.25 2185.98L1116.07 2185.62L1120.18 2185.28L1123.96 2183.67L1128.41 2181.78L1422.48 2057.25L2255.23 1704.55L2281.2 1693.54L2300.94 1685.17L2308.43 1681.99L2312.68 1675.06L2388.1 1551.99L2392.41 1544.95L2391.76 1536.73L2390.07 1515.38L2367.38 1228.92L2365.69 1207.57L2364.25 1189.35L2346.51 1184.95L2325.72 1179.8L2298.32 1173.01L1420.42 955.77L1110.44 879.056L1105.76 877.901L1101.76 876.916ZM1211.32 1676.1L1189.21 1397.04L1339.59 1428.84L1585.7 1480.85L1672.42 1499.19H1672.3L1437.43 1589.34L1211.26 1676.1H1211.32Z" fill="#091F11"/>
</g>
<defs>
<clipPath id="clip0_740_218">
<rect width="3048" height="3048" fill="white"/>
</clipPath>
</defs>
</svg>
