<?xml version="1.0" encoding="UTF-8"?>
<svg id="Camada_2" xmlns="http://www.w3.org/2000/svg" viewBox="0 0 547.2 234.46">
  <g id="Camada_1-2" data-name="Camada_1">
    <g>
      <g>
        <polygon points="58 154.71 66.03 179.82 74.05 154.71 66.03 129.61 58 154.71"/>
        <path d="M132.05,120.05l-31.31,15.84,5.03-21.58c2.01,2.48,3.83,5.13,5.44,7.96l8.17-7.12c-2.92-5.13-7.09-10.28-10.59-13.79l7.72-33.11-27.73,37.87L66.03,0h0s0,0,0,0h0s0,0,0,0l-22.74,106.13-27.73-37.87,7.72,33.11c-3.5,3.51-7.67,8.66-10.59,13.79l8.17,7.12c1.61-2.83,3.44-5.48,5.44-7.96l5.03,21.58L0,120.05l5.94,10.29c-2.3,7.27-3.57,15.08-3.57,23.22,0,36.53,25.18,66.56,57.39,70.04l6.26,10.85h0s0,0,0,0l6.26-10.85c32.21-3.48,57.39-33.51,57.39-70.04,0-8.14-1.26-15.95-3.57-23.22l5.94-10.29ZM21.95,186.43c-5.79-9.37-11.3-24.9-8.41-42.91l38.61,66.7c-12.51-3.73-22.8-11.82-30.2-23.79ZM66.02,203.35l-32.49-56.61,14.64,8.02,17.86-83.75,17.86,83.75,14.89-8.26-32.76,56.84ZM110.39,186.11c-7.18,11.67-17.86,20.53-30.49,24.3l38.61-66.89c.51,3.26,3.71,23.37-8.12,42.59Z"/>
      </g>
      <g>
        <path d="M194.62,119.98c29.5,0,44.89,8.48,46.05,28.86h-28.03c-1.05-6.09-6.43-8.57-18.02-8.57-16.23,0-18.97,5.99-18.97,12.82s2.84,13,18.97,13c11.59,0,16.97-2.39,18.02-8.57h28.03c-1.16,20.47-16.44,28.86-46.05,28.86-32.46,0-46.36-10.79-46.36-33.29s13.91-33.11,46.36-33.11Z"/>
        <path d="M336.06,166.75c0,10.91-7.27,19.64-24.03,19.64h-67.44v-66.4h64.28c16.75,0,21.92,6.83,21.92,16.88,0,4.27-2.21,8.63-5.8,12.43,6.43,4.17,11.06,10.24,11.06,17.45ZM271.99,144.05h25.29c2.74,0,6.11-.74,6.11-4.34s-3.37-4.34-6.11-4.34h-25.29v8.68ZM308.66,164.85c0-3.51-3.37-4.34-6.11-4.34h-30.56v8.68h30.56c2.74,0,6.11-.83,6.11-4.34Z"/>
        <path d="M389.43,165.52l26.6,20.87h-75.87v-66.4h27.4v45.53h21.87Z"/>
        <path d="M467.4,153.17c0-22.37-14.01-33.19-46.37-33.19-28.21,0-42.62,8.62-45.63,23.19l16.81,13.49h9.84c-.03-1.07.01-2.34.01-3.49,0-6.84,2.74-12.85,18.97-12.85s18.97,6.1,18.97,12.85-3.6,11.95-20.07,12.24c-3.74.07-17.49-.03-17.49-.03l25.06,21c27.75-1.41,39.89-12.31,39.89-33.21Z"/>
        <path d="M520.6,165.52l26.6,20.87h-75.87v-66.4h27.4v45.53h21.87Z"/>
      </g>
    </g>
  </g>
</svg>