<?xml version="1.0" encoding="UTF-8"?>
<svg id="Camada_2" xmlns="http://www.w3.org/2000/svg" viewBox="0 0 171.27 275.01">
  <g id="Camada_1-2" data-name="Camada_1">
    <g>
      <polygon points="75.22 181.48 85.63 210.92 96.04 181.48 85.63 152.03 75.22 181.48"/>
      <path d="M171.27,140.82l-40.61,18.59,6.52-25.31c2.6,2.91,4.97,6.02,7.06,9.34l10.59-8.35c-3.79-6.02-9.19-12.05-13.74-16.17l10.01-38.84-35.97,44.42L85.63,0h0s0,0,0,0h0s0,0,0,0l-29.5,124.49-35.97-44.42,10.01,38.83c-4.54,4.12-9.95,10.16-13.74,16.17l10.59,8.35c2.09-3.32,4.46-6.43,7.06-9.34l6.52,25.31L0,140.82l7.7,12.07c-2.99,8.53-4.63,17.69-4.63,27.23,0,42.85,32.65,78.08,74.44,82.16l8.12,12.73h0s0,0,0,0l8.12-12.73c41.78-4.08,74.43-39.31,74.43-82.16,0-9.55-1.64-18.71-4.63-27.23l7.7-12.07ZM28.47,218.68c-7.51-10.99-14.65-29.21-10.9-50.33l50.07,78.24c-16.22-4.38-29.57-13.87-39.17-27.91ZM85.62,238.53l-42.15-66.4,18.99,9.41,23.16-98.24,23.16,98.24,19.31-9.69-42.48,66.67ZM143.17,218.31c-9.31,13.69-23.17,24.08-39.54,28.51l50.07-78.46c.66,3.83,4.81,27.42-10.53,49.96Z"/>
    </g>
  </g>
</svg>