<?xml version="1.0" encoding="UTF-8"?>
<svg id="Camada_2" xmlns="http://www.w3.org/2000/svg" viewBox="0 0 476.7 337.06">
  <g id="Camada_1-2" data-name="Camada_1">
    <g>
      <g>
        <path d="M55.4,265.3c35.26,0,53.64,9.16,55.02,31.19h-33.49c-1.26-6.58-7.68-9.26-21.53-9.26-19.39,0-22.66,6.48-22.66,13.85s3.4,14.05,22.66,14.05c13.85,0,20.27-2.58,21.53-9.26h33.49c-1.38,22.13-19.64,31.19-55.02,31.19-38.78,0-55.4-11.66-55.4-35.98s16.62-35.78,55.4-35.78Z"/>
        <path d="M224.41,315.84c0,11.79-8.69,21.22-28.71,21.22h-80.59v-71.76h76.81c20.02,0,26.19,7.38,26.19,18.25,0,4.61-2.64,9.33-6.92,13.43,7.68,4.51,13.22,11.07,13.22,18.86ZM147.86,291.32h30.22c3.27,0,7.3-.8,7.3-4.69s-4.03-4.69-7.3-4.69h-30.22v9.38ZM191.67,313.79c0-3.79-4.03-4.69-7.3-4.69h-36.52v9.38h36.52c3.27,0,7.3-.9,7.3-4.69Z"/>
        <path d="M288.18,314.51l31.79,22.55h-90.66v-71.76h32.74v49.21h26.13Z"/>
        <path d="M381.36,301.17c0-24.18-16.75-35.87-55.4-35.87-33.71,0-50.92,9.32-54.53,25.06l20.09,14.58h11.76c-.03-1.16.02-2.53.02-3.77,0-7.39,3.27-13.89,22.66-13.89s22.67,6.59,22.67,13.89-4.3,12.92-23.98,13.23c-4.47.07-20.89-.03-20.89-.03l29.95,22.69c33.16-1.53,47.66-13.3,47.66-35.89Z"/>
        <path d="M444.92,314.51l31.79,22.55h-90.66v-71.76h32.74v49.21h26.13Z"/>
      </g>
      <g>
        <polygon points="228.69 168.37 238.35 195.69 248.01 168.37 238.35 141.05 228.69 168.37"/>
        <path d="M317.8,130.65l-37.67,17.24,6.05-23.48c2.41,2.7,4.61,5.59,6.55,8.66l9.83-7.75c-3.51-5.58-8.53-11.18-12.75-15.01l9.28-36.03-33.37,41.21L238.35,0h0s0,0,0,0h0s0,0,0,0l-27.37,115.5-33.37-41.21,9.28,36.03c-4.22,3.82-9.23,9.42-12.75,15.01l9.83,7.75c1.94-3.08,4.14-5.97,6.55-8.66l6.05,23.48-37.67-17.24,7.15,11.2c-2.77,7.91-4.29,16.41-4.29,25.27,0,39.76,30.3,72.44,69.06,76.23l7.54,11.81h0s0,0,0,0l7.54-11.81c38.77-3.79,69.06-36.47,69.06-76.23,0-8.86-1.52-17.35-4.29-25.27l7.15-11.2ZM185.32,202.89c-6.97-10.19-13.6-27.1-10.12-46.7l46.46,72.59c-15.05-4.06-27.43-12.86-36.34-25.89ZM238.34,221.3l-39.1-61.6,17.62,8.73,21.49-91.15,21.49,91.15,17.91-8.99-39.42,61.86ZM291.74,202.55c-8.64,12.7-21.49,22.34-36.69,26.45l46.46-72.8c.62,3.55,4.46,25.44-9.77,46.35Z"/>
      </g>
    </g>
  </g>
</svg>