<?xml version="1.0" encoding="UTF-8"?>
<svg id="Camada_2" data-name="Camada 2" xmlns="http://www.w3.org/2000/svg" viewBox="0 0 3306.45 997.49">
  <defs>
    <style>
      .cls-1 {
        fill: #fff;
      }
    </style>
  </defs>
  <g id="_图层_1" data-name="图层 1">
    <g>
      <path class="cls-1" d="M394.26.09C241.05,3.2,22.97,11.16,22.97,11.16,10.16,11.59,0,22.05,0,34.8v935.76c0,14.52,11.83,26.26,26.44,26.26h167.51c14.58,0,26.38-11.74,26.38-26.26l.12-313.65c0-12.02,9.94-21.63,22.05-21.08,23.49,1.1,68.08,2.23,151.75,2.23,200.43,0,320.63-135.4,320.63-318.99S594.66-4,394.26.09M336.07,475.39c-49.41,0-78.54-.55-95.23-1.07-11.41-.37-20.38-9.7-20.38-21.08V184.93c0-11.41,8.97-20.74,20.38-21.11,16.68-.52,45.81-1.07,95.23-1.07,120.69,0,188.16,49.5,188.16,156.32s-67.47,156.32-188.16,156.32"/>
      <path class="cls-1" d="M1238.96.08c-127.07,0-387.64,32.42-387.64,498.64s260.57,498.61,387.64,498.61,387.67-32.39,387.67-498.61S1366.06.08,1238.96.08M1238.96,843.36c-145.25,0-165.53-138.99-165.53-344.64s20.28-344.64,165.53-344.64,165.56,141.71,165.56,344.64-20.28,344.64-165.56,344.64"/>
      <path class="cls-1" d="M2918.78.08c-127.1,0-387.64,32.42-387.64,498.64s260.54,498.61,387.64,498.61,387.67-32.39,387.67-498.61S3045.88.08,2918.78.08M2918.78,843.36c-145.28,0-165.56-138.99-165.56-344.64s20.28-344.64,165.56-344.64,165.56,141.71,165.56,344.64-20.28,344.64-165.56,344.64"/>
      <path class="cls-1" d="M1764.66,498.85c0,253.38,85.86,498.64,408.02,498.64,119.35,0,215.4-41.09,251.61-58.93,8.88-4.42,12.87-14.79,9.27-24.04l-40.9-104.68c-3.57-9.12-13.39-14.06-22.78-11.41-27.12,7.63-84.12,21.35-143.2,21.35-180.23,0-240.96-139.64-240.96-320.94s60.73-319.2,240.96-319.2c59.02,0,116,13.7,143.11,21.32,9.46,2.65,19.31-2.32,22.81-11.5l41.06-106.33c3.57-9.24-.46-19.58-9.3-23.94C2388.21,41.33,2292.1.21,2172.68.21c-322.16,0-408.02,245.26-408.02,498.64"/>
    </g>
  </g>
</svg>