<?xml version="1.0" encoding="UTF-8"?>
<svg id="Camada_2" data-name="Camada 2" xmlns="http://www.w3.org/2000/svg" viewBox="0 0 659.4 271.17">
  <defs>
    <style>
      .cls-1 {
        fill: #231f20;
      }
    </style>
  </defs>
  <g id="Logo">
    <g id="Odyssey_Logo_with_Lettermark_Left_Aligned" data-name="Odyssey Logo with Lettermark Left Aligned">
      <path class="cls-1" d="M31.31,27.04c-.45-1.88-.35-3.87-.09-4.9.64-2.97,2.66-6.29,8.54-6.29,5.46,0,8.67,3.39,8.67,8.48v5.78h23.28v-6.56C71.71,3.24,53.41,0,40.21,0,23.63,0,10.08,5.5,7.6,20.74c-.68,4.18-.79,7.87.19,12.58,4.04,19.08,37.21,24.6,42.04,36.68.9,2.24.63,5.13.18,6.89-.77,3.14-2.87,6.3-9.12,6.3-5.83,0-9.32-3.4-9.32-8.5l-.03-8.98H6.5v7.14c0,20.87,16.39,27.14,33.93,27.14s30.71-5.75,32.97-21.37c1.12-8.05.28-13.29-.1-15.28-3.94-19.59-39.34-25.39-42-36.32ZM334.86,27.27c-.42-1.84-.3-3.8-.08-4.83.67-2.99,2.68-6.25,8.46-6.25,5.39,0,8.55,3.36,8.55,8.4v5.71h23.01v-6.51c0-20.11-18.03-23.27-31.08-23.27-16.44,0-29.87,5.42-32.32,20.55-.65,4.12-.81,7.77.22,12.44,4,18.87,36.85,24.34,41.61,36.27.84,2.26.6,5.14.17,6.84-.71,3.11-2.8,6.23-8.99,6.23-5.81,0-9.3-3.34-9.3-8.37v-8.96h-24.78v7.12c0,20.63,16.16,26.86,33.57,26.86s30.44-5.7,32.65-21.14c1.05-7.98.26-13.17-.16-15.13-3.86-19.35-38.87-25.17-41.52-35.98ZM546.8,78.12l-21.98-75.15h-34.64v92.36h22.91l-1.33-77.55,23.61,77.55h33.22V2.97h-23.06l1.27,75.15ZM106.43,2.97l-17.29,93.34h25.21l13.03-86.41,12.72,86.41h25.04L147.92,2.97h-41.49ZM247.41,2.97l-11.78,72.96L223.87,2.97h-38.08l-2.02,93.34h23.33l.63-86.41,16.05,86.41h23.67l16.07-86.41.63,86.41h23.39l-2.09-93.34h-38.03ZM464.31,2.97h-23.61v69.05c.04,1.2,0,2.55-.21,3.55-.49,2.32-2.46,6.78-8.97,6.78s-8.44-4.46-8.9-6.78c-.24-.99-.27-2.34-.24-3.55V2.97h-23.6v66.91c-.03,1.72.11,5.25.21,6.17,1.63,17.44,15.37,23.1,32.53,23.1s30.92-5.66,32.58-23.1c.13-.92.3-4.45.2-6.17V2.97ZM626.39,43.92v13.61h9.57v13.51c.03,1.21-.04,2.51-.24,3.55-.38,2.52-2.77,6.81-9.56,6.81s-9.1-4.29-9.51-6.81c-.17-1.04-.24-2.34-.24-3.55V28.38c0-1.51.1-3.16.42-4.41.46-2.27,2.48-6.76,9.28-6.76,7.14,0,8.92,4.73,9.33,6.76.27,1.34.28,3.6.28,3.6v5.18h23.51v-3.06s.11-3.2-.18-6.18c-1.77-17.51-16.19-23.05-32.74-23.05s-30.71,5.59-32.76,23.05c-.19,1.6-.47,4.47-.47,6.18v39.24c0,1.71.05,3.03.37,6.16,1.53,17.03,16.29,23.06,32.8,23.06s31.26-6.04,32.82-23.06c.28-3.12.31-4.45.34-6.16v-25.01h-33.02Z"/>
      <g>
        <path class="cls-1" d="M0,194.97c0-24.84,19.92-45,44.76-45s44.88,20.16,44.88,45-19.92,45-44.88,45S0,219.93,0,194.97ZM73.44,194.97c0-15.96-12.72-28.92-28.68-28.92s-28.56,12.96-28.56,28.92,12.6,28.92,28.56,28.92,28.68-12.96,28.68-28.92Z"/>
        <path class="cls-1" d="M95.75,203.74c0-23.28,17.04-36.6,34.8-36.6,9.12,0,17.4,3.72,22.44,9.72v-26.88h16.32v88.8h-16.2v-9.12c-5.16,6.48-13.56,10.56-22.8,10.56-16.92,0-34.56-13.56-34.56-36.48ZM153.95,203.5c0-11.88-9-21.6-21-21.6s-21.24,9.48-21.24,21.6,9.24,21.84,21.24,21.84,21-9.72,21-21.84Z"/>
        <path class="cls-1" d="M204.59,235.29l-28.8-66.72h17.28l19.56,47.28,18.48-47.28h17.04l-41.88,102.6h-16.44l14.76-35.88Z"/>
        <path class="cls-1" d="M247.3,223.18l15-7.2c3.36,6.48,9.36,10.2,16.92,10.2s12-3.96,12-8.52c0-5.04-7.8-6.24-16.44-8.04-12.12-2.4-24.6-6.48-24.6-21.12,0-11.28,10.8-21.6,27.6-21.48,13.92,0,23.28,5.64,28.68,14.52l-13.8,6.96c-2.88-4.92-8.16-8.04-14.88-8.04-7.68,0-11.28,3.6-11.28,7.56,0,4.68,5.64,5.88,16.08,8.16,11.52,2.4,24.72,6.36,24.72,21.12,0,9.84-8.76,23.04-28.8,22.92-15.36,0-25.56-6-31.2-17.04Z"/>
        <path class="cls-1" d="M311.86,223.18l15-7.2c3.36,6.48,9.36,10.2,16.92,10.2s12-3.96,12-8.52c0-5.04-7.8-6.24-16.44-8.04-12.12-2.4-24.6-6.48-24.6-21.12,0-11.28,10.8-21.6,27.6-21.48,13.92,0,23.28,5.64,28.68,14.52l-13.8,6.96c-2.88-4.92-8.16-8.04-14.88-8.04-7.68,0-11.28,3.6-11.28,7.56,0,4.68,5.64,5.88,16.08,8.16,11.52,2.4,24.72,6.36,24.72,21.12,0,9.84-8.76,23.04-28.8,22.92-15.36,0-25.56-6-31.2-17.04Z"/>
        <path class="cls-1" d="M377.73,203.86c0-20.52,15.96-36.72,36.48-36.72s36.12,15.36,36.12,36.12v6.12h-57.12c2.16,9.84,10.08,16.56,21.6,16.56,9,0,16.08-4.92,19.44-12.36l13.32,7.68c-6.12,11.28-17.16,18.96-32.76,18.96-22.08,0-37.08-16.08-37.08-36.36ZM394.05,195.82h39.84c-2.4-9.36-9.6-14.4-19.68-14.4s-17.28,5.88-20.16,14.4Z"/>
        <path class="cls-1" d="M479.37,235.29l-28.8-66.72h17.28l19.56,47.28,18.48-47.28h17.04l-41.88,102.6h-16.44l14.76-35.88Z"/>
      </g>
    </g>
  </g>
</svg>