<svg width="766" height="766" viewBox="0 0 766 766" fill="none" xmlns="http://www.w3.org/2000/svg">
<g clip-path="url(#clip0_738_36)">
<path d="M286.323 246.473H224.726V521.943H286.323L589.603 420.895V347.52L286.323 246.473ZM525.247 386.267L286.323 456.869V311.549L525.247 382.152V386.3V386.265V386.267Z" fill="white"/>
<path d="M383 766C171.871 766 0 594.244 0 383C0 171.756 171.754 0 383 0C594.246 0 766 171.753 766 383C766 594.247 594.247 766 383 766ZM383 54.2118C201.665 54.2118 54.095 201.78 54.095 383.115C54.095 564.45 201.665 712.018 383 712.018C564.335 712.018 711.901 564.448 711.901 383.115C711.901 201.782 564.335 54.2118 383 54.2118Z" fill="white"/>
</g>
<defs>
<clipPath id="clip0_738_36">
<rect width="766" height="766" fill="white"/>
</clipPath>
</defs>
</svg>
