<svg width="1920" height="354" viewBox="0 0 1920 354" fill="none" xmlns="http://www.w3.org/2000/svg">
<g clip-path="url(#clip0_738_21)">
<path d="M74.32 8.71997H0V344.29H365.28V273.47H74.32V8.71997Z" fill="white"/>
<path d="M1551.33 8.71997H1476.45V344.29H1551.33L1920 221.2V131.82L1551.33 8.71997ZM1841.77 179.01L1551.33 265.02V87.99L1841.77 174V179.06V179.02V179.01Z" fill="white"/>
<path d="M1326.64 8.71997V255.74L1238.67 285.99L1123.61 286.77L1033.33 255.74V8.71997H958.23V302.24L1105.12 353.01H1254.88L1401.78 302.24V8.71997H1326.63H1326.64Z" fill="white"/>
<path d="M736.6 0H586.84L439.95 50.77V302.19L586.84 352.96H736.6L883.5 302.19V50.77L736.6 0ZM720.42 285.98L605.36 286.76L515.08 255.73V97.27L603.05 67.03L718.11 66.25L808.39 97.28V255.78L720.42 286.02V285.98Z" fill="white"/>
<path d="M74.32 8.71997H0V344.29H365.28V273.47H74.32V8.71997Z" fill="white"/>
<path d="M1551.33 8.71997H1476.45V344.29H1551.33L1920 221.2V131.82L1551.33 8.71997ZM1841.77 179.01L1551.33 265.02V87.99L1841.77 174V179.06V179.02V179.01Z" fill="white"/>
<path d="M1326.64 8.71997V255.74L1238.67 285.99L1123.61 286.77L1033.33 255.74V8.71997H958.23V302.24L1105.12 353.01H1254.88L1401.78 302.24V8.71997H1326.63H1326.64Z" fill="white"/>
<path d="M736.6 0H586.84L439.95 50.77V302.19L586.84 352.96H736.6L883.5 302.19V50.77L736.6 0ZM720.42 285.98L605.36 286.76L515.08 255.73V97.27L603.05 67.03L718.11 66.25L808.39 97.28V255.78L720.42 286.02V285.98Z" fill="white"/>
</g>
<defs>
<clipPath id="clip0_738_21">
<rect width="1920" height="353.01" fill="white"/>
</clipPath>
</defs>
</svg>
