<svg width="1017" height="244" viewBox="0 0 1017 244" fill="none" xmlns="http://www.w3.org/2000/svg">
<path d="M179.072 218.729C174.214 211.457 172.654 203.57 174.573 195.894C176.667 187.534 182.572 179.175 192.626 170.334C198.482 165.191 204.948 160.559 210.872 156.533C213.422 146.016 215.477 134.892 216.932 123.374C221.673 85.7848 222.943 38.3819 197.386 14.6804C179.159 -2.21202 145.74 -2.52021 117.362 15.1138C91.8049 31.0047 71.7939 55.8715 54.5267 79.207C44.0558 93.3643 34.9617 108.215 27.5448 123.374C-4.8373 189.538 -9.31651 242.671 17.5587 242.045C43.1057 241.448 87.7717 192.494 119.95 130.819C114.162 192.494 128.695 241.448 153.874 242.045C163.54 242.276 173.439 235.342 182.514 223.226C181.273 221.791 180.119 220.289 179.072 218.719V218.729ZM169.881 48.292C166.846 58.154 156.336 66.1476 146.409 66.1476C136.481 66.1476 130.896 58.154 133.931 48.292C136.965 38.4301 147.475 30.4365 157.403 30.4365C167.331 30.4365 172.915 38.4301 169.881 48.292Z" fill="white"/>
<path d="M728.967 0.157162C699.862 0.157162 671.813 5.97418 650.329 15.3064C653.421 17.5697 655.903 20.0448 657.775 22.7511C662.438 29.4927 663.214 37.4092 660.024 45.6628C657.581 51.9903 652.956 58.0673 646.276 63.7399C640.275 68.8249 632.606 73.6115 623.463 77.9453C611.645 83.5505 597.664 88.2985 582.249 91.9774C576.451 104.498 571.186 118.115 566.804 132.359C547.879 193.862 552.445 243.721 577.004 243.721C594.581 243.721 617.627 218.189 636.261 181.13C635.718 170.594 636.426 159.653 638.462 148.549C639.664 169.38 646.402 187.997 653.78 206.112C667.635 234.388 687.112 249.335 704.7 241.766C730.033 230.864 741.861 177.422 731.129 122.401C729.316 113.117 726.979 104.382 724.226 96.3306C770.269 91.024 809.069 71.8394 816.108 48.9758C824.407 22.0095 785.393 0.157162 728.967 0.157162ZM722.471 48.292C719.436 58.154 708.927 66.1476 698.999 66.1476C689.071 66.1476 683.486 58.154 686.521 48.292C689.556 38.4301 700.065 30.4365 709.993 30.4365C719.921 30.4365 725.506 38.4301 722.471 48.292Z" fill="white"/>
<path d="M893.476 2.38188C869.848 2.38188 845.009 12.7061 822.846 29.8586C825.716 36.6869 826.084 43.9774 823.825 51.3065C819.753 64.5296 807.527 76.6548 788.476 86.353C782.94 89.1749 776.89 91.7367 770.462 94.0095C765.944 102.985 762.115 112.356 759.148 121.997C738.817 188.064 765.983 241.621 819.84 241.621C873.697 241.621 933.827 188.064 954.158 121.997C974.489 55.9293 947.323 2.37225 893.466 2.37225L893.476 2.38188ZM904.141 48.292C901.106 58.154 890.596 66.1476 880.668 66.1476C870.74 66.1476 865.156 58.154 868.19 48.292C871.225 38.4301 881.735 30.4365 891.663 30.4365C901.591 30.4365 907.175 38.4301 904.141 48.292Z" fill="white"/>
<path d="M541.771 4.7318C498.036 4.7318 457.539 8.88269 430.78 18.7543C435.899 24.9469 439.632 32.1026 441.861 40.048C444.576 49.727 444.954 60.4076 442.967 70.9533C442.133 75.3835 440.873 79.7463 439.253 83.9838C445.497 85.8522 452.342 87.451 459.71 88.7511C455.095 98.2953 450.752 108.254 446.787 118.51C446.379 119.56 445.982 120.6 445.594 121.65C445.536 121.794 445.487 121.929 445.439 122.074C445.109 122.95 444.789 123.817 444.469 124.684C444.382 124.924 444.295 125.156 444.208 125.396C443.917 126.186 443.636 126.976 443.355 127.756C443.267 127.997 443.18 128.237 443.093 128.478C442.802 129.307 442.501 130.144 442.22 130.973C442.162 131.146 442.104 131.31 442.046 131.483C441.338 133.515 440.659 135.538 440.01 137.551C439.971 137.666 439.932 137.782 439.893 137.907C439.612 138.764 439.341 139.621 439.069 140.469C438.992 140.7 438.924 140.931 438.846 141.162C438.614 141.913 438.381 142.655 438.148 143.396C438.071 143.647 437.993 143.897 437.915 144.148C437.683 144.908 437.46 145.66 437.237 146.411C437.179 146.623 437.111 146.825 437.053 147.037C436.481 148.973 435.938 150.899 435.414 152.796C435.385 152.912 435.356 153.027 435.317 153.143C435.094 153.952 434.881 154.761 434.668 155.57C434.6 155.82 434.542 156.061 434.474 156.302C434.299 156.985 434.125 157.66 433.95 158.334C433.882 158.603 433.814 158.883 433.747 159.152C433.582 159.817 433.417 160.481 433.252 161.146C433.194 161.396 433.126 161.647 433.068 161.897C432.884 162.668 432.709 163.429 432.525 164.189C432.496 164.315 432.467 164.449 432.438 164.575C432.234 165.48 432.03 166.385 431.837 167.281C431.807 167.416 431.778 167.541 431.749 167.676C431.594 168.417 431.429 169.149 431.284 169.881C431.226 170.151 431.168 170.43 431.119 170.7C431.003 171.287 430.877 171.875 430.77 172.462C430.712 172.77 430.654 173.069 430.596 173.368C430.489 173.926 430.382 174.494 430.276 175.053C430.217 175.351 430.169 175.65 430.111 175.939C430.004 176.536 429.897 177.133 429.801 177.73C429.762 177.971 429.713 178.212 429.675 178.453C429.539 179.271 429.403 180.08 429.277 180.889C429.248 181.091 429.219 181.284 429.19 181.477C429.093 182.083 429.006 182.69 428.918 183.297C428.87 183.615 428.831 183.923 428.783 184.241C428.715 184.722 428.647 185.204 428.589 185.676C428.54 186.013 428.501 186.36 428.453 186.697C428.395 187.14 428.337 187.592 428.288 188.035C428.249 188.382 428.201 188.719 428.162 189.066C428.114 189.509 428.065 189.952 428.017 190.395C427.978 190.722 427.949 191.05 427.91 191.368C427.852 191.917 427.803 192.446 427.755 192.986C427.706 193.467 427.668 193.939 427.629 194.421C427.59 194.844 427.561 195.268 427.522 195.692C427.493 196.058 427.474 196.424 427.445 196.79C427.425 197.146 427.396 197.502 427.377 197.849C427.357 198.225 427.338 198.6 427.319 198.976C427.299 199.303 427.29 199.64 427.27 199.968C427.251 200.353 427.241 200.729 427.222 201.104C427.212 201.412 427.202 201.711 427.193 202.019C427.183 202.404 427.173 202.799 427.163 203.185C427.163 203.435 427.163 203.676 427.154 203.917C427.144 204.764 427.134 205.602 427.144 206.43C427.144 206.604 427.144 206.786 427.144 206.96C427.144 207.374 427.154 207.788 427.163 208.193C427.163 208.424 427.163 208.645 427.183 208.867C427.193 209.271 427.212 209.666 427.222 210.071C427.222 210.292 427.241 210.514 427.251 210.725C427.27 211.13 427.289 211.525 427.309 211.92C427.319 212.112 427.338 212.305 427.348 212.498C427.377 212.912 427.406 213.326 427.435 213.74C427.435 213.836 427.454 213.923 427.454 214.01C427.571 215.483 427.726 216.908 427.92 218.286C427.939 218.392 427.949 218.507 427.968 218.613C428.026 219.018 428.084 219.422 428.152 219.817C428.172 219.952 428.191 220.077 428.22 220.212C428.288 220.607 428.356 221.002 428.424 221.387C428.443 221.493 428.463 221.608 428.482 221.714C428.56 222.128 428.637 222.533 428.724 222.928C428.724 222.937 428.724 222.957 428.724 222.966C429.015 224.343 429.355 225.663 429.723 226.925C429.723 226.944 429.733 226.963 429.742 226.973C429.859 227.358 429.975 227.724 430.091 228.099C430.111 228.167 430.14 228.234 430.159 228.302C430.276 228.658 430.402 229.014 430.528 229.361C430.547 229.419 430.566 229.477 430.596 229.534C431.303 231.461 432.127 233.204 433.058 234.774C433.078 234.803 433.097 234.831 433.107 234.86C433.281 235.159 433.465 235.448 433.65 235.727C433.669 235.756 433.688 235.795 433.717 235.823C434.706 237.316 435.812 238.616 437.024 239.724C440.097 242.507 443.878 244 448.377 244C465.431 244 488.738 222.658 510.387 190.067C515.439 182.459 520.403 174.244 525.173 165.538L525.192 165.499C526.763 162.629 528.324 159.701 529.846 156.725C529.865 156.687 529.894 156.639 529.914 156.6C530.67 155.127 531.416 153.653 532.163 152.16C532.192 152.103 532.221 152.045 532.25 151.987C532.968 150.533 533.685 149.079 534.393 147.605C534.422 147.547 534.451 147.49 534.48 147.432C535.188 145.958 535.886 144.475 536.584 142.982C536.652 142.828 536.729 142.674 536.797 142.52C537.466 141.075 538.125 139.631 538.785 138.167C538.804 138.119 538.833 138.071 538.853 138.022C539.522 136.539 540.181 135.046 540.831 133.544C540.927 133.323 541.024 133.091 541.121 132.87C542.411 129.894 543.661 126.889 544.883 123.846C544.99 123.586 545.096 123.326 545.193 123.066C545.804 121.554 546.396 120.032 546.987 118.51C550.952 108.254 554.307 98.2953 557.07 88.7511C605.575 81.2391 644.473 63.4895 652.471 42.8024C663.097 15.3064 611.519 4.74143 541.742 4.74143L541.771 4.7318Z" fill="white"/>
<path d="M405.291 9.42201C384.165 -0.112502 358.095 -0.642197 332.722 0.359409C272.214 2.75748 234.79 31.178 235.11 56.1026C235.353 74.8924 250.855 88.1059 286.757 89.9453C310.413 91.1588 327.768 87.3258 337.114 85.0529C346.683 82.7222 355.855 79.2648 365.23 76.337C360.189 79.8715 312.032 103.428 294.145 113.473C271.206 126.427 248.373 140.093 226.142 155.271C212.588 164.517 186.208 180.196 181.835 197.685C180.196 204.254 182.281 210.09 185.306 214.607C194.623 228.533 212.356 234.552 228.547 238.51C247.355 243.114 267.599 244.597 288.26 243.778C348.768 241.38 398.989 218.555 400.443 192.793C401.888 167.204 354.653 148.337 294.717 150.437C294.319 150.446 293.922 150.465 293.524 150.485C293.01 150.504 292.487 150.533 291.973 150.552C318.693 141.181 353.286 149.079 353.286 149.079C353.286 149.079 396.265 135.875 424.265 95.2616C443.296 67.6596 441.212 25.6307 405.272 9.41238L405.291 9.42201Z" fill="white"/>
<path d="M928.117 213.124L935.01 218.786L944.133 207.836L949.466 212.218L940.343 223.169L947.682 229.197L959.384 215.156L964.716 219.538L948.234 239.329L917.995 214.472L934.477 194.681L939.809 199.063L928.107 213.104L928.117 213.124Z" fill="white"/>
<path d="M952.365 163.024L986.589 182.103L982.914 188.604L952.617 191.04L952.161 191.839L974.16 204.099L970.485 210.6L936.261 191.522L939.935 185.021L970.233 182.584L970.689 181.785L948.69 169.525L952.365 163.024Z" fill="white"/>
<path d="M964.144 154.125L972.366 157.621L977.999 144.552L984.369 147.258L978.736 160.327L987.491 164.055L994.713 147.297L1001.08 150.003L990.913 173.618L954.837 158.276L965.007 134.661L971.377 137.368L964.154 154.125H964.144Z" fill="white"/>
<path d="M996.866 107.175L1011.98 110.941L1010.16 118.173L998.233 115.207L994.461 130.164L1006.39 133.13L1004.56 140.363L966.5 130.886L969.855 117.595C972.89 105.586 978.93 103.303 985.823 105.018C991.979 106.549 994.752 110.43 993.123 118.298L994.015 118.52L996.875 107.175H996.866ZM989.265 122.43C990.894 115.977 989.856 113.714 985.096 112.53C980.171 111.306 978.183 112.819 976.554 119.271L975.022 125.329L987.733 128.498L989.265 122.44V122.43Z" fill="white"/>
<path d="M995.557 64.4333L1016.22 65.9068L1015.68 73.3418L1010.22 72.9469L1010.15 73.8619C1012.32 75.0464 1015.94 77.8394 1015.44 84.6387C1014.63 95.9646 1005.31 100.703 994.083 99.894C982.856 99.0946 974.324 93.085 975.216 80.7286C975.914 71.1267 982.052 65.4638 990.147 65.4734L989.614 72.8506C985.358 73.2936 982.527 75.6243 982.119 81.2294C981.615 88.2021 984.766 91.7656 994.616 92.4686C1004.46 93.1717 1008.11 89.8105 1008.66 82.4333C1009.05 76.9437 1005.78 73.4381 1001.05 72.292L1000.09 85.5537L994.054 85.1203L995.557 64.4236V64.4333Z" fill="white"/>
<path d="M974.431 28.3947L999.561 40.3947L1014.85 38.979L1015.54 46.2888L1000.27 47.8201L977.815 64.2407L977 55.5633L992.232 44.9886L992.202 44.6419L975.255 37.0625L974.441 28.3851L974.431 28.3947Z" fill="white"/>
</svg>
