<svg width="606" height="397" viewBox="0 0 606 397" fill="none" xmlns="http://www.w3.org/2000/svg">
<g clip-path="url(#clip0_3173_3516)">
<path d="M292.668 0.582886L254.898 142.811H176.362L214.132 0.582886H105.293L0.0205078 396.998H108.859L149.088 245.514H227.625L187.396 396.998H296.234L401.507 0.582886H292.668Z" fill="white"/>
<path d="M605.83 119.73C605.83 35.4947 551.542 3.40917 480.891 0.360706C464.416 -0.348685 440.676 -0.0563012 424.566 1.66924C413.11 44.6113 406.927 67.5755 396.881 105.14C414.4 103.069 427.399 101.928 446.039 101.928C481.744 101.928 498.429 116.83 498.429 142.694C498.429 192.102 449.721 259.01 329.287 359.758C325.16 375.269 322.524 385.181 319.418 396.968H600.773V294.868H526.105C568.975 247.876 605.83 171.846 605.83 119.73Z" fill="white"/>
<path d="M482.099 351.363C482.099 365.771 471.722 370.832 459.619 370.832C451.485 370.832 444.89 368.589 440.792 364.299V370.19H429.839V318.951H440.792V338.359C444.89 334.069 451.485 331.826 459.619 331.826C471.722 331.826 482.099 336.949 482.099 351.358V351.363ZM471.08 351.363C471.08 343.871 465.764 340.985 455.967 340.985C446.17 340.985 440.787 343.866 440.787 351.363C440.787 358.859 446.165 361.673 455.967 361.673C465.769 361.673 471.08 358.792 471.08 351.363Z" fill="black"/>
<path d="M525.678 356.677H536.569C534.071 366.283 524.72 370.831 510.757 370.831C496.795 370.831 485.267 365.194 485.267 351.361C485.267 337.528 496.09 331.829 511.4 331.829C525.746 331.829 537.211 336.761 537.211 353.926H496.478C497.696 359.946 503.457 361.93 510.762 361.93C518.067 361.93 522.932 360.521 525.683 356.677H525.678ZM496.857 346.942H525.487C523.627 341.626 518.249 340.155 511.332 340.155C503.841 340.155 498.587 341.626 496.857 346.942Z" fill="black"/>
<path d="M557.616 341.632V352.522C557.616 359.822 559.025 361.682 565.688 361.682C569.149 361.682 571.066 361.682 575.485 361.039V369.878C571.833 370.52 567.672 370.837 562.611 370.837C552.876 370.837 546.597 367.184 546.597 358.858V341.632H536.67V332.472H546.597V324.659L557.611 321.52V332.472H575.48V341.632H557.611H557.616Z" fill="black"/>
</g>
<defs>
<clipPath id="clip0_3173_3516">
<rect width="605.805" height="397" fill="white"/>
</clipPath>
</defs>
</svg>
