<svg width="1347" height="454" viewBox="0 0 1347 454" fill="none" xmlns="http://www.w3.org/2000/svg">
<g clip-path="url(#clip0_2622_7)">
<path fill-rule="evenodd" clip-rule="evenodd" d="M214.132 454L260.737 281.053H170.622L123.997 454H0L122.211 0.691467H246.188L244.163 8.23838L202.103 164.254H292.238L336.322 0.691467H460.319L338.109 454H214.132Z" fill="white"/>
<path fill-rule="evenodd" clip-rule="evenodd" d="M456.766 119.96C532.729 108.561 572.824 121.363 573.062 161.073C575.226 222.061 496.564 305.354 379.454 406.743L366.711 454H688.564V338.287H602.717C646.166 288.304 697.258 211.412 697.258 141.732C697.258 36.0948 614.924 0.691471 563.336 0.691471L489.101 0L456.766 119.96Z" fill="white"/>
<path fill-rule="evenodd" clip-rule="evenodd" d="M1144.32 231.979H1037.13C1043.66 217.616 1058.21 207.54 1075.02 207.54H1106.43C1123.24 207.54 1137.79 217.596 1144.32 231.979ZM1065.22 174.014H1116.23C1159.5 174.014 1194.89 209.239 1194.89 252.308C1194.89 256.042 1194.62 259.716 1194.1 263.312H1036.08C1042 278.999 1057.24 290.26 1075 290.26H1106.41C1120.04 290.26 1132.19 283.641 1139.77 273.467H1191.94C1182.61 306.341 1152.12 330.622 1116.21 330.622H1065.2C1021.93 330.622 986.538 295.396 986.538 252.328C986.538 209.259 1021.93 174.033 1065.2 174.033L1065.22 174.014ZM1276.85 267.224C1276.85 291.089 1312.5 297.945 1346.64 289.983V323.747C1329.81 328.152 1308.37 330.167 1280.96 329.041C1254.32 326.078 1231.85 313.039 1231.85 290.596V212.953H1191.62V177.649H1231.85V143.925L1276.87 133.908V177.649H1345.71V212.953H1276.87V267.244L1276.85 267.224ZM850.85 293.085H888.563C911.528 293.085 930.325 274.376 930.325 251.498C930.325 228.62 911.528 209.931 888.563 209.931H850.85C827.864 209.931 809.067 228.64 809.067 251.498C809.067 274.356 827.864 293.085 850.85 293.085ZM763.414 123.082H810.159V192.17C827.825 177.451 852.199 168.343 879.154 168.343C933.044 168.343 976.732 204.794 976.732 249.739C976.732 294.685 933.044 331.135 879.154 331.135C852.219 331.135 827.825 322.028 810.159 307.309V326.196H763.414V123.082Z" fill="white"/>
</g>
<defs>
<clipPath id="clip0_2622_7">
<rect width="1347" height="454" fill="white"/>
</clipPath>
</defs>
</svg>
