<svg width="1247" height="259" viewBox="0 0 1247 259" fill="none" xmlns="http://www.w3.org/2000/svg">
<path d="M18.3691 41.8466H59.3901L59.3901 155.152H149.995V190H18.3691L18.3691 41.8466ZM263.197 39.457C279.659 39.457 293.731 41.6474 305.413 46.0283C317.096 50.2765 326.521 56.184 333.69 63.751C340.062 70.5214 344.708 78.1548 347.629 86.651C350.682 95.1473 352.209 103.776 352.209 112.538V118.512C352.209 127.141 350.682 135.77 347.629 144.399C344.708 152.895 340.062 160.529 333.69 167.299C326.388 175.132 316.896 181.305 305.214 185.818C293.532 190.199 279.526 192.39 263.197 192.39H254.436C233.062 192.39 215.141 188.341 200.67 180.243C188.059 173.207 178.899 163.715 173.19 151.767C168.013 141.545 165.424 130.46 165.424 118.512V112.538C165.424 100.59 168.013 89.5052 173.19 79.2832C179.031 67.3353 188.192 57.9762 200.67 51.2057C215.008 43.3732 232.93 39.457 254.436 39.457H263.197ZM309.595 114.131C309.595 102.98 306.343 93.8861 299.838 86.8502C291.474 77.8229 277.8 73.3093 258.817 73.3093C240.231 73.3093 226.624 77.8229 217.995 86.8502C211.357 93.8861 208.038 102.98 208.038 114.131V116.919C208.038 121.831 208.835 126.676 210.428 131.456C212.021 136.235 214.61 140.483 218.194 144.2C226.956 153.625 240.497 158.338 258.817 158.338C277.668 158.338 291.341 153.625 299.838 144.2C306.343 137.164 309.595 128.07 309.595 116.919V114.131ZM462.262 192.19C439.693 192.19 421.904 187.876 408.894 179.247C398.141 172.211 390.574 162.321 386.194 149.576C382.875 140.416 381.215 129.597 381.215 117.118V41.8466L422.236 41.8466V116.122C422.236 127.672 424.626 136.633 429.405 143.005C436.441 152.563 448.19 157.343 464.651 157.343H465.647C482.374 157.343 494.123 152.563 500.893 143.005C505.407 136.5 507.663 127.539 507.663 116.122V41.8466H548.485V117.118C548.485 129.199 546.759 140.085 543.308 149.776C538.529 162.387 530.763 172.211 520.01 179.247C507.132 187.876 489.808 192.19 468.036 192.19H462.262ZM584.064 41.8466L659.933 41.8466C684.094 41.8466 703.742 45.5637 718.876 52.9979C731.753 59.3701 741.311 68.1982 747.551 79.4823C752.463 88.9079 754.919 99.329 754.919 110.746V116.72C754.919 128.933 752.728 139.885 748.347 149.576C742.772 161.79 733.612 171.215 720.867 177.853C705.335 185.951 685.09 190 660.132 190H584.064V41.8466ZM625.085 156.944H658.141C680.045 156.944 695.312 152.165 703.941 142.607C707.127 139.022 709.318 134.973 710.512 130.46C711.707 125.946 712.305 121.101 712.305 115.923V114.729C712.305 103.312 709.45 94.5499 703.742 88.4432C695.246 79.2832 680.045 74.7032 658.141 74.7032H625.085V156.944ZM821.887 151.369V190H775.49V151.369H821.887ZM928.762 192.19C908.185 192.19 891.126 188.208 877.585 180.243C865.504 173.472 856.543 164.047 850.702 151.966C845.525 141.744 842.936 130.46 842.936 118.114V112.737C842.936 100.789 845.458 89.8371 850.503 79.8806C856.477 67.8 865.372 58.3744 877.187 51.604C891.126 43.7715 908.583 39.8553 929.558 39.8553H936.329C965.8 39.8553 988.036 45.5637 1003.04 56.9805C1009.41 61.7597 1014.06 67.269 1016.98 73.5084C1019.9 79.6151 1021.36 85.9209 1021.36 92.4258V92.8241H978.943L976.553 88.045C973.765 82.8676 966.995 78.7522 956.242 75.6988C950.533 74.1058 942.833 73.3093 933.142 73.3093C916.283 73.3093 903.804 77.5574 895.706 86.0536C888.935 93.2224 885.55 102.449 885.55 113.733V116.322C885.55 121.499 886.413 126.61 888.139 131.655C889.865 136.567 892.586 140.947 896.303 144.797C905.198 154.09 917.942 158.736 934.536 158.736C949.405 158.736 960.954 155.418 969.185 148.78C972.238 146.258 974.495 143.669 975.956 141.014C977.018 138.624 977.681 136.832 977.947 135.637H937.722V109.153H1023.15V190H990.492C990.359 188.274 989.762 184.756 988.7 179.446C987.638 175.331 986.576 172.012 985.514 169.49C984.452 170.817 982.859 172.543 980.735 174.667C974.495 180.906 965.8 185.752 954.649 189.203C948.276 191.195 940.709 192.19 931.948 192.19H928.762ZM1136.64 192.19C1116.07 192.19 1099.01 188.208 1085.47 180.243C1073.39 173.472 1064.43 164.047 1058.58 151.966C1053.41 141.744 1050.82 130.46 1050.82 118.114V112.737C1050.82 100.789 1053.34 89.8371 1058.38 79.8806C1064.36 67.8 1073.25 58.3744 1085.07 51.604C1099.01 43.7715 1116.46 39.8553 1137.44 39.8553H1144.21C1173.68 39.8553 1195.92 45.5637 1210.92 56.9805C1217.29 61.7597 1221.94 67.269 1224.86 73.5084C1227.78 79.6151 1229.24 85.9209 1229.24 92.4258V92.8241H1186.82L1184.43 88.045C1181.65 82.8676 1174.88 78.7522 1164.12 75.6988C1158.42 74.1058 1150.72 73.3093 1141.02 73.3093C1124.16 73.3093 1111.69 77.5574 1103.59 86.0536C1096.82 93.2224 1093.43 102.449 1093.43 113.733V116.322C1093.43 121.499 1094.29 126.61 1096.02 131.655C1097.75 136.567 1100.47 140.947 1104.19 144.797C1113.08 154.09 1125.82 158.736 1142.42 158.736C1157.29 158.736 1168.84 155.418 1177.07 148.78C1180.12 146.258 1182.38 143.669 1183.84 141.014C1184.9 138.624 1185.56 136.832 1185.83 135.637H1145.6V109.153H1231.03V190H1198.37C1198.24 188.274 1197.64 184.756 1196.58 179.446C1195.52 175.331 1194.46 172.012 1193.4 169.49C1192.33 170.817 1190.74 172.543 1188.62 174.667C1182.38 180.906 1173.68 185.752 1162.53 189.203C1156.16 191.195 1148.59 192.19 1139.83 192.19H1136.64Z" fill="white"/>
</svg>
