<svg width="1112" height="402" viewBox="0 0 1112 402" fill="none" xmlns="http://www.w3.org/2000/svg">
<path d="M25.1804 335V98.0011H81.5929V289.269H177.728V335H25.1804ZM299.758 340.675C228.658 340.675 182.928 292.607 182.928 216.501C182.928 140.06 228.658 92.3265 299.758 92.3265C370.858 92.3265 416.588 140.06 416.588 216.501C416.588 292.941 370.858 340.675 299.758 340.675ZM299.758 296.613C336.81 296.613 358.507 266.571 358.507 216.501C358.507 166.43 336.81 136.388 299.758 136.388C262.706 136.388 240.675 166.43 240.675 216.501C240.675 266.237 262.706 296.613 299.758 296.613ZM446.902 98.0011H503.314V249.881C503.314 277.586 519.67 294.944 547.376 294.944C575.415 294.944 591.438 277.586 591.438 249.881V98.0011H647.85V252.217C647.85 306.293 610.464 340.675 547.376 340.675C484.288 340.675 446.902 306.293 446.902 252.217V98.0011ZM693.109 335V98.0011H787.575C858.674 98.0011 904.739 145.401 904.739 215.165C904.739 286.265 858.674 335 786.907 335H693.109ZM749.521 293.609H784.57C824.627 293.609 846.657 257.558 846.657 215.165C846.657 172.105 825.962 139.392 785.238 139.392H749.521V293.609Z" fill="white"/>
<path d="M1019.07 155.143C1019.4 152.941 1020.14 151.005 1021.07 149.404C1023.08 145.666 1026.48 143.731 1031.08 143.664C1034.09 143.664 1036.82 144.999 1038.76 146.934C1040.63 149.003 1041.9 151.873 1041.9 154.743H1053.91C1053.77 151.606 1053.17 148.736 1051.91 146.067C1050.9 143.531 1049.37 141.262 1047.37 139.393C1037.69 130.45 1019.74 131.718 1011.53 141.862C1002.92 153.007 1002.72 172.495 1011.46 183.64C1019.54 193.584 1037.22 194.985 1046.83 186.109C1048.9 184.441 1050.57 182.372 1051.91 179.969C1052.97 177.567 1053.71 175.031 1053.77 172.295H1041.9C1041.9 173.696 1041.43 174.964 1040.83 176.099C1040.23 177.367 1039.43 178.368 1038.56 179.235C1036.36 180.971 1033.75 181.905 1030.95 181.905C1028.55 181.838 1026.55 181.371 1025.01 180.37C1023.28 179.401 1021.9 177.905 1021.07 176.099C1017.74 170.092 1018.27 161.75 1019.07 155.143ZM1031.88 96.0133C995.179 96.0133 965.147 126.045 965.147 162.751C968.684 251.312 1095.29 251.245 1098.62 162.751C1098.62 126.045 1068.59 96.0133 1031.88 96.0133ZM1031.88 216.141C1002.45 216.141 978.494 192.182 978.494 162.751C981.431 91.9423 1082.34 91.9423 1085.27 162.751C1085.27 192.182 1061.32 216.141 1031.88 216.141Z" fill="white"/>
</svg>
