<svg width="1276" height="196" viewBox="0 0 1276 196" fill="none" xmlns="http://www.w3.org/2000/svg">
<path d="M48.4773 52.8332C47.5874 49.1565 47.7982 45.2689 48.29 43.2549C49.5312 37.447 53.489 30.9599 64.9877 30.9599C75.6668 30.9599 81.9431 37.5875 81.9431 47.5171V58.8051H127.446V45.9949C127.423 6.32312 91.6619 0 65.8776 0C33.4657 0 7.00228 10.7493 2.15455 40.5383C0.819665 48.7115 0.608894 55.9011 2.52925 65.1282C10.4215 102.411 75.2452 113.207 84.6831 136.79C86.4395 141.17 85.9243 146.814 85.0344 150.256C83.5355 156.392 79.4138 162.575 67.2125 162.575C55.8075 162.575 48.9925 155.947 48.9925 145.971L48.9223 128.43H0V142.364C0 183.137 32.0138 195.408 66.2992 195.408C100.585 195.408 126.322 184.167 130.725 153.652C132.926 137.914 131.263 127.68 130.537 123.793C122.833 85.5262 53.6763 74.1679 48.4773 52.8332ZM641.61 53.2782C640.79 49.6717 641.025 45.8544 641.446 43.8404C642.758 38.009 646.669 31.6391 657.98 31.6391C668.518 31.6391 674.678 38.1964 674.678 48.0558V59.2032H719.642V46.4867C719.642 7.18963 684.42 1.00702 658.893 1.00702C626.763 1.00702 600.533 11.5924 595.732 41.1706C594.468 49.2267 594.14 56.3695 596.177 65.4795C603.999 102.341 668.167 113.043 677.488 136.369C679.127 140.795 678.659 146.416 677.816 149.741C676.411 155.807 672.336 161.919 660.228 161.919C648.87 161.919 642.055 155.385 642.055 145.549V128.055H593.648V141.966C593.648 182.27 625.217 194.448 659.245 194.448C693.272 194.448 718.729 183.324 723.038 153.137C725.099 137.54 723.553 127.399 722.71 123.559C715.169 85.7369 646.762 74.3787 641.587 53.2548L641.61 53.2782ZM1055.75 152.645L1012.8 5.80791H945.12V186.298H989.897L987.298 34.7538L1033.43 186.298H1098.35V5.80791H1053.29L1055.78 152.645H1055.75ZM195.268 5.80791L161.474 188.195H210.747L236.204 19.3675L261.052 188.195H309.974L276.321 5.80791H195.244H195.268ZM470.745 5.80791L447.724 148.383L424.727 5.80791H350.325L346.39 188.195H391.964L393.205 19.3675L424.563 188.195H470.815L502.197 19.3675L503.438 188.195H549.128L545.054 5.80791H470.745ZM894.559 5.80791H848.423V140.725C848.493 143.067 848.423 145.713 848.025 147.657C847.065 152.177 843.224 160.912 830.508 160.912C817.791 160.912 813.997 152.2 813.107 147.657C812.639 145.713 812.592 143.067 812.639 140.725V5.80791H766.527V136.533C766.48 139.905 766.738 146.79 766.925 148.594C770.11 182.668 796.948 193.722 830.484 193.722C864.02 193.722 890.905 182.668 894.161 148.594C894.418 146.79 894.746 139.905 894.559 136.533V5.80791ZM1211.25 85.8072V112.411H1229.94V138.804C1229.99 141.17 1229.87 143.699 1229.47 145.736C1228.72 150.654 1224.06 159.038 1210.79 159.038C1197.51 159.038 1193.01 150.654 1192.21 145.736C1191.89 143.699 1191.75 141.146 1191.75 138.804V55.4562C1191.75 52.5054 1191.96 49.2736 1192.57 46.838C1193.48 42.3884 1197.41 33.6297 1210.69 33.6297C1224.65 33.6297 1228.12 42.8568 1228.91 46.838C1229.43 49.4609 1229.47 53.8637 1229.47 53.8637V63.9807H1275.4V58.0088C1275.4 58.0088 1275.61 51.756 1275.05 45.9481C1271.6 11.7329 1243.41 0.913341 1211.09 0.913341C1178.77 0.913341 1151.09 11.8266 1147.06 45.9481C1146.69 49.0628 1146.15 54.6833 1146.15 58.0088V134.683C1146.15 138.032 1146.27 140.608 1146.87 146.72C1149.87 179.998 1178.7 191.778 1210.95 191.778C1243.2 191.778 1272.03 179.975 1275.09 146.72C1275.63 140.608 1275.7 138.032 1275.77 134.683V85.8072H1211.25Z" fill="white"/>
</svg>
