<svg width="1102" height="311" viewBox="0 0 1102 311" fill="none" xmlns="http://www.w3.org/2000/svg">
<path d="M189.581 0C123.064 0 96.1325 44.884 86.1682 72.2702L0 310.748H911.661C978.377 310.748 1005.64 265.553 1015.1 238.49L1101.25 0H189.581ZM988.196 228.919C973.684 269.029 942.965 282.405 911.655 282.405H40.587L113.063 81.8237C127.557 41.7134 158.289 28.3374 189.587 28.3374H1060.65L988.196 228.919Z" fill="white"/>
<path d="M955.088 121.195H1002.54L1026.53 55.3319C1026.53 55.3319 1022 53.3937 1013.72 51.7008C1005.49 49.9839 993.304 48.2431 977.308 48.2191C928.826 48.2251 917.233 61.1465 902.178 103.715C890.054 137.873 897.57 150.047 913.318 165.619C924.206 176.47 932.951 182.829 926.087 200.321L917.408 222.341C915.381 227.522 913.475 229.968 910.109 229.962C904.928 229.992 904.639 226.858 906.919 221.037L920.249 186.203L873.244 186.191L847.459 256.116C847.459 256.116 854.094 257.815 863.593 259.359C873.045 260.968 885.772 262.601 898.848 262.571C947.566 262.601 957.398 249.01 971.403 209.533C984.19 173.623 979.787 159.206 960.468 140.195C947.276 127.171 943.899 121.728 949.098 107.568L954.575 92.7681C956.698 87.0013 958.441 85.2306 962.573 85.2007C965.908 85.2306 967.555 87.1509 965.378 93.1689L955.088 121.195ZM855.294 254.196L852.26 253.532L875.777 189.792H879.113L855.294 254.196ZM908.897 104.87C896.044 141.158 904.778 148.043 927.245 170.925C936.323 180.191 937.819 188.291 932.77 201.613L925.08 221.755C922.299 229.053 919.682 233.552 913.349 233.534C912.721 233.552 912.172 233.522 911.587 233.474C916.859 232.762 919.235 228.419 921.835 221.767L929.453 201.607C934.538 188.315 933.06 180.173 923.946 170.901C901.454 148.061 892.756 141.17 905.598 104.918C920.249 63.4257 930.665 51.7965 977.35 51.8084L978.72 51.8503C933.657 52.1614 923.367 64.018 908.897 104.87ZM964.382 81.7191C964.967 81.6772 965.498 81.6174 966.144 81.6294C973.575 81.6174 974.98 87.3902 972.628 93.5159L963.622 117.618H960.305L969.358 93.4621C971.506 87.8688 970.468 82.4789 964.382 81.7191ZM863.533 51.1145H807.3L730.722 259.586H777.684L809.248 172.965L809.749 172.917C815.226 172.941 816.908 178.642 813.102 189.966L789.241 259.586H835.257L857.405 196.313C861.585 184.432 860.179 175.483 857.767 169.477C856.524 166.51 854.679 163.423 852.278 160.97C852.887 160.851 853.906 160.45 855.185 159.924C867.635 154.905 877.291 144.92 881.96 132.286L893.39 101.287C904.651 70.7539 892.841 51.1384 863.533 51.1145ZM840.691 87.0672L842.344 87.0552C848.351 87.0492 851.228 89.783 847.881 98.8998L836.976 129.146C834.189 136.719 830.443 140.541 824.17 140.553H820.877L840.691 87.0672ZM739.197 255.973H735.933L809.845 54.7337H813.126L739.197 255.973ZM819.641 192.066L797.649 255.973H794.344L816.347 192.066C820.527 179.988 820.612 169.806 809.972 169.351L812.409 169.369C823.887 169.268 823.917 179.665 819.641 192.066ZM854.594 100.114L843.641 130.384C840.504 138.992 835.643 144.155 827.482 144.167H824.164C832.319 144.149 837.187 138.992 840.323 130.354L851.277 100.132C855.432 88.7242 850.909 83.6813 842.941 83.448L845.619 83.4659C853.876 83.4659 858.846 88.461 854.594 100.114ZM704.707 51.1145H654.337L609.202 114.495L633.974 51.1145H584.322L507.732 259.586H557.812L582.681 186.03L581.3 259.586H630.09L627.635 154.827L704.707 51.1145ZM588.387 255.973H585.051L586.077 175.818L589.509 165.93L588.387 255.973ZM516.242 255.973H512.925L586.867 54.7337H590.148L516.242 255.973ZM604.045 127.058L656.249 54.7337H659.5L600.239 136.874L604.045 127.058ZM490.662 140.565L537.673 140.613L568.893 55.5592C568.893 55.5592 564.815 53.7825 556.884 52.1494C548.928 50.4565 536.852 48.8293 520.193 48.8174C472.115 48.8054 461.988 59.1485 448.308 96.483L404.283 216.724C394.499 243.488 402.232 262.763 443 262.745C486.784 262.763 497.978 248.902 507.714 222.377L528.269 166.259H481.476L461.3 220.894C459.135 226.618 457.699 229.855 452.482 229.897C447.723 229.867 448.38 226.23 450.039 221.671L497.176 93.0852C499.36 87.0672 500.892 84.9794 505.91 84.9913C509.758 84.9794 510.144 87.7013 508.009 93.5638L490.662 140.565ZM464.684 222.132L483.991 169.842L487.308 169.806L467.953 222.156C465.655 228.383 463.29 233.492 455.727 233.438C455.124 233.438 454.653 233.39 454.158 233.336C460.383 232.654 462.53 227.839 464.684 222.132ZM455.039 97.7213L410.996 217.897C402.19 242.07 407.872 258.719 444.815 259.155H443C404.711 259.167 398.776 242.346 407.691 217.956L451.698 97.7213C464.919 61.7747 473.647 52.3827 520.193 52.4066L521.767 52.4246C476.717 52.628 468.043 62.2233 455.039 97.7213ZM507.352 81.4978C507.961 81.426 508.57 81.3841 509.209 81.3722C516.303 81.3841 517.455 87.0013 515.169 93.2347L499.155 136.976L495.819 137.024L511.869 93.2347C513.974 87.4261 513.172 82.2276 507.352 81.4978ZM399.276 51.1145L322.753 259.586H374.764L451.203 51.1145H399.276ZM331.233 255.973H327.934L401.828 54.7337H405.085L331.233 255.973ZM346.18 51.1145L311.908 149.257L321.239 51.1145H267.931L191.1 259.586H228.768L263.926 161.898L254.746 259.586H307.686L383.6 51.1145H346.18ZM262.159 255.973H258.853L268.148 150.083L272.497 138.256L262.159 255.973ZM199.556 255.949L196.287 255.973L270.44 54.7337H273.776L199.556 255.949ZM310.346 162.472L348.743 54.7337H352.061L309.151 174.963L310.346 162.472ZM181.739 121.219L229.135 121.243L253.021 55.3558C253.021 55.3558 248.497 53.4595 240.294 51.7546C232.097 49.9839 219.895 48.2431 203.887 48.279C155.423 48.2491 143.866 61.1884 128.763 103.715C116.591 137.85 124.16 150.047 139.897 165.601C150.796 176.47 159.548 182.847 152.66 200.303L143.993 222.389C141.942 227.57 140.06 229.968 136.652 229.986C131.513 229.992 131.254 226.924 133.473 221.103L146.821 186.233L99.7745 186.191L74.0012 256.116C74.0012 256.116 80.6481 257.839 90.0997 259.425C99.5996 261.052 112.344 262.655 125.391 262.637C174.187 262.637 183.964 249.081 197.982 209.551C210.775 173.683 206.39 159.284 187.047 140.212C173.879 127.171 170.466 121.68 175.683 107.574L181.111 92.81C183.295 87.0013 185.05 85.2546 189.14 85.2366C192.493 85.3084 194.17 87.1808 191.956 93.2228L181.739 121.219ZM81.9389 254.28L78.7723 253.538L102.326 189.792L105.625 189.822L81.9389 254.28ZM135.476 104.882C122.586 141.098 131.314 148.097 153.83 170.913C162.908 180.209 164.416 188.315 159.337 201.631L151.689 221.743C148.932 229.113 146.248 233.576 139.915 233.552C139.306 233.576 138.715 233.54 138.142 233.486C143.426 232.834 145.802 228.497 148.408 221.767L156.074 201.655C161.098 188.345 159.609 180.173 150.513 170.901C128.069 148.097 119.353 141.128 132.164 104.882C146.809 63.4736 157.256 51.8264 203.899 51.8264L205.274 51.8443C160.224 52.1793 149.91 64.0419 135.476 104.882ZM190.991 81.7909C191.486 81.7131 192.089 81.6294 192.686 81.6473C200.171 81.6473 201.51 87.4321 199.23 93.5099L190.201 117.666L186.89 117.642L195.943 93.492C198.066 87.8688 197.047 82.5327 190.991 81.7909ZM784.126 86.2775L797.517 51.1145H710.824L634.089 259.586H720.728L733.231 225.111H696.818L716.403 171.942L744.921 171.93L758.039 136.468L729.419 136.45L747.544 86.2655L784.126 86.2775ZM642.587 255.973H639.282L713.333 54.7337H716.626L642.587 255.973Z" fill="white"/>
<path fill-rule="evenodd" clip-rule="evenodd" d="M1001.96 281.49C993.729 281.49 987.281 287.861 987.281 295.991C987.281 304.12 993.596 310.557 1001.96 310.557C1010.33 310.557 1016.58 304.162 1016.58 295.991C1016.58 287.819 1010.16 281.49 1001.96 281.49ZM1001.96 307.662C995.351 307.662 990.2 302.703 990.2 295.991C990.2 289.279 995.351 284.397 1001.96 284.397C1008.57 284.397 1013.65 289.38 1013.65 295.991C1013.65 302.601 1008.48 307.662 1001.96 307.662Z" fill="white"/>
<path d="M1004.23 297.883C1006.25 297.273 1007.67 295.79 1007.67 293.307V293.265C1007.67 291.949 1007.24 290.83 1006.46 290.011C1005.54 289.06 1004.12 288.497 1002.31 288.497H995.855V303.596H998.394V298.332H1001.57L1005.14 303.596H1008.12L1004.23 297.883ZM998.394 295.981V290.914H1002.1C1003.98 290.914 1005.09 291.8 1005.09 293.421V293.457C1005.09 294.988 1003.93 295.981 1002.12 295.981H998.394Z" fill="white"/>
</svg>
