<svg width="952" height="570" viewBox="0 0 952 570" fill="none" xmlns="http://www.w3.org/2000/svg">
<path d="M901.363 482.928H909.274V538.865H901.363V569.943H951.232V538.865H943.333V482.928H951.232V452.4H901.363V482.928ZM841.893 482.928H847.55L838.504 512.901L829.409 482.928H834.526V452.4H785.224V482.928H797.144L824.924 569.947H853.223L879.872 482.928H891.175V452.4H841.9V482.928H841.893ZM757.478 538.865H745.017V482.928H754.09V452.4H703.086V482.928H711.024V538.865H703.086V569.943H788.083V520.227H757.478V538.865ZM600.527 482.928H608.503V538.865H600.527V569.943H687.804V530.92H657.176V538.865H642.462V525.304H669.675V495.357H642.462V482.928H657.176V490.28H687.804V452.4H600.527V482.928ZM537.641 494.214V482.928H552.382V490.28H584.145V471.076L565.977 452.4H523.517L503.648 472.154V506.112L518.968 522.475H551.221V538.865H537.638V528.684H504.779V550.174L523.513 569.943H564.839L585.276 549.608V509.468L570.523 494.21H537.638L537.641 494.214ZM443.625 494.214V482.928H458.328V490.28H490.068V471.076L471.939 452.4H430.057L410.199 472.154V506.112L424.902 522.475H457.772V538.865H443.621V528.684H410.751V550.174L430.053 569.943H470.838L491.21 549.608V509.468L476.469 494.21H443.621L443.625 494.214ZM366.014 452.4H333.695L305.938 538.865H296.298V569.97H342.764V540.562H335.405L337.697 533.803H359.759L361.461 540.562H354.101V569.97H402.269V538.865H391.51L365.995 452.4H366.014ZM345.048 508.891L349.015 496.5L352.419 508.891H345.048ZM236.276 482.928H243.658V538.865H236.276V569.943H285.566V538.865H277.617V482.928H285.566V452.4H236.276V482.928ZM175.663 481.77H184.141V504.984L156.384 452.4H115.008V482.928H122.946V538.865H115.008V569.943H160.933V539.981H151.873V511.177L183.007 569.943H212.466V482.924H220.404V452.396H175.663V481.77ZM53.2841 481.77H57.251V538.865H43.6559V481.77H48.1673V452.4H0.567257V482.928H9.68905V549.612L29.4821 569.947H71.402L91.2331 549.612V482.928H100.279V452.4H53.2841V481.77ZM476.423 262.694C567.679 94.2757 765.945 18.5541 951.206 86.9352L951.773 20.8174C777.812 -30.5965 591.443 11.1908 465.093 168.9C331.404 55.8567 138.784 50.7909 0 143.464V215.791C135.38 93.7365 367.678 111.82 476.423 262.682V262.694Z" fill="white"/>
<path d="M483.794 344.609C397.122 150.25 131.79 123.33 0 269.191V354.247C33.6166 305.373 79.0238 270.884 128.337 251.669C251.584 203.662 399.314 253.063 448.841 409.067H529.136C559.741 192.076 782.395 106.162 951.206 191.498L951.773 130.469C768.777 55.3134 556.882 131.612 483.805 344.635L483.794 344.609Z" fill="white"/>
</svg>
