<?xml version="1.0" encoding="UTF-8"?>
<svg id="Layer_1" data-name="Layer 1" xmlns="http://www.w3.org/2000/svg" version="1.1" viewBox="0 0 1356 1075.5">
  <defs>
    <style>
      .cls-1 {
        fill: #00ff3b;
        stroke-width: 0px;
      }
    </style>
  </defs>
  <path class="cls-1" d="M1356,61.18L1162.56.25h-39.3v31.84L1022.17.25h-39.3v31.84L881.79.25h-39.3v31.84L741.4.25h-39.3v31.84L601.01.25h-39.3v31.84L460.63.25h-39.3v31.84L320.24.25h-39.3v31.84L179.85.25h-39.3v31.84L39.47.25H.17v1075.24h39.3l101.08-33.63v33.63h39.3l101.08-33.63v33.63h39.3l101.08-33.63v33.63h39.3l101.08-33.63v33.63h39.3l101.09-33.63v33.63h39.3l101.08-33.63v33.63h39.3l101.08-33.63v33.63h39.3l101.08-33.63v33.63h39.3l193.44-64.36v-45.48l-162.52-51.19,162.52-54.08v-45.48l-162.52-51.19,162.52-54.08v-45.48l-162.52-51.19,162.52-54.07v-45.48l-162.52-51.19,162.52-54.07v-45.48l-162.52-51.19,162.52-54.07v-45.48l-162.52-51.19,162.52-54.07v-45.48ZM1123.25,171.03v11.81l-70.16-22.1,70.16-23.34v33.63ZM1123.25,321.77v11.81l-70.16-22.1,70.16-23.34v33.63ZM1123.25,472.52v11.81l-70.16-22.1,70.16-23.34v33.63ZM1123.25,623.26v11.81l-70.16-22.1,70.16-23.34v33.63ZM1123.25,774v11.81l-70.16-22.1,70.16-23.35v33.63ZM982.87,603.23v31.84l-70.15-22.1,70.15-23.34v13.6ZM842.48,452.49v31.84l-70.16-22.1,70.16-23.34v13.6ZM702.1,452.49v31.84l-70.16-22.1,70.16-23.34v13.6ZM561.71,452.49v31.84l-70.16-22.1,70.16-23.34v13.6ZM421.32,452.49v31.84l-70.16-22.1,70.16-23.34v13.6ZM280.94,452.49v31.84l-70.16-22.1,70.16-23.34v13.6ZM210.78,612.97l70.16-23.34v45.44l-70.16-22.1ZM351.17,612.97l70.15-23.34v45.44l-70.15-22.1ZM491.55,612.97l70.16-23.34v45.44l-70.16-22.1ZM631.94,612.97l70.16-23.34v45.44l-70.16-22.1ZM772.33,612.97l70.16-23.34v45.44l-70.16-22.1ZM982.87,452.49v31.84l-70.16-22.1,70.16-23.34v13.6ZM982.87,301.74v31.84l-70.16-22.1,70.16-23.34v13.6ZM842.48,301.74v31.84l-70.16-22.1,70.16-23.34v13.6ZM702.1,301.74v31.84l-70.16-22.1,70.16-23.34v13.6ZM561.71,301.74v31.84l-70.16-22.1,70.16-23.34v13.6ZM421.32,301.74v31.84l-70.16-22.1,70.16-23.34v13.6ZM280.94,301.74v31.84l-70.16-22.1,70.16-23.34v13.6ZM140.55,301.74v31.84l-70.16-22.1,70.16-23.34v13.6ZM140.55,452.49v31.84l-70.16-22.1,70.16-23.34v13.6ZM140.55,603.23v31.84l-70.16-22.1,70.16-23.34v13.6ZM140.55,753.98v31.84l-70.16-22.1,70.16-23.35v13.61ZM210.78,763.71l70.16-23.34v45.44l-70.16-22.1ZM351.16,763.71l70.16-23.34v45.44l-70.16-22.1ZM491.55,763.71l70.16-23.35v45.44l-70.16-22.1ZM631.93,763.71l70.16-23.35v45.44l-70.16-22.1ZM772.32,763.71l70.16-23.34v45.44l-70.16-22.1ZM912.71,763.71l70.16-23.34v45.44l-70.16-22.1ZM982.87,151v31.84l-70.16-22.1,70.16-23.34v13.6ZM842.48,151v31.84l-70.16-22.1,70.16-23.34v13.6ZM702.1,151v31.84l-70.16-22.1,70.16-23.34v13.6ZM561.71,151v31.84l-70.16-22.1,70.16-23.34v13.6ZM421.32,151v31.84l-70.16-22.1,70.16-23.34v13.6ZM280.94,151v31.84l-70.16-22.1,70.16-23.34v13.6ZM140.55,151v31.84l-70.16-22.1,70.16-23.34v13.6ZM70.39,914.46l70.16-23.35v45.44l-70.16-22.1ZM210.78,914.46l70.16-23.34v45.44l-70.16-22.1ZM351.16,914.46l70.16-23.34v45.44l-70.16-22.1ZM491.55,914.46l70.16-23.35v45.44l-70.16-22.1ZM631.93,914.46l70.16-23.35v45.44l-70.16-22.1ZM772.32,914.46l70.16-23.34v45.44l-70.16-22.1ZM912.71,914.46l70.16-23.34v45.44l-70.16-22.1ZM1053.09,914.46l70.16-23.35v45.44l-70.16-22.1Z"/>
</svg>