<?xml version="1.0" encoding="UTF-8"?>
<svg id="Layer_1" data-name="Layer 1" xmlns="http://www.w3.org/2000/svg" version="1.1" xmlns:xlink="http://www.w3.org/1999/xlink" viewBox="0 0 616 335">
  <defs>
    <style>
      .cls-1 {
        fill: none;
      }

      .cls-1, .cls-2 {
        stroke-width: 0px;
      }

      .cls-3 {
        clip-path: url(#clippath);
      }

      .cls-2 {
        fill: #00ff3b;
      }
    </style>
    <clipPath id="clippath">
      <rect class="cls-1" width="616" height="335"/>
    </clipPath>
  </defs>
  <g class="cls-3">
    <g>
      <path class="cls-2" d="M-1.94,64.12c.96,2.8,1.99,5.59,2.87,8.41,2.76,8.94,5.44,17.9,8.19,26.84,3.66,11.94,7.36,23.87,10.98,35.83.23.75.03,1.66-.1,2.47-.64,4.02-1.33,8.03-1.99,12.05-.04.24.05.51.12,1,.98-.59,1.82-1.11,2.67-1.61,1.21-.72,2.09-.49,3,.68,1.81,2.32,2.38,5.07,3.13,7.78.1.38,0,.84-.1,1.25-.71,3.18-1.45,6.36-2.2,9.68-1.74-1.76-3.68-3.72-5.86-5.93-.2.54-.58,1.07-.45,1.33.59,1.17,1.16,2.42,2.04,3.36,2.69,2.88,4.38,6.19,1.8,10.76-1.69,3-2.41,6.56-3.45,9.9-.39,1.26.2,2.12,1.58,2.43,4.68,1.05,7.63,5.93,8.14,9.86.21,1.57-.78,3.5-1.7,4.98-1.82,2.93-3,6.08-4.05,9.32-.39,1.19-.88,2.34-1.34,3.54,1.23.27,2.26.37,3.18.73,3.79,1.51,5.6,4.76,6.83,8.32.53,1.52.17,3.19-1.29,4.32-1.94,1.51-2.15,3.77-2.78,6.13,1.29-1.45,2.43-2.65,3.48-3.94,3.48-4.27,11.34-4.53,15.23.96.17.24.04.91-.18,1.2-1.23,1.59-2.49,3.17-3.82,4.68-4.01,4.55-5.98,10.11-7.89,15.7-.51,1.5-1.01,2.99-1.58,4.7,2.99-1.09,5.63-3.34,8.78-1.94,2.47,1.1,5.28,1.9,6.69,4.72-1.73,2.21-3.47,4.43-5.21,6.66.1.1.2.19.3.29.5-.48.99-.98,1.52-1.44,1.52-1.31,2.95-2.78,4.63-3.86,1.61-1.03,3.58-.86,5.26-.09,2.71,1.23,5.37,2.64,6.91,5.4,1.07,1.91,1.83,3.93.74,6.03-.58,1.11-1.52,2.03-2.34,3-2.45,2.86-4.92,5.7-7.39,8.54-1.01,1.16-2.03,2.31-3.07,3.49-1.37-1.21-2.69-2.36-4-3.52-.08.08-.16.15-.24.23.98,1.26,2.04,2.47,2.93,3.79.95,1.42,2.04,1.82,3.86,2,5.26.53,10.26,3.38,11.41,9.39.18.93-.35,2.24-.98,3.02-1.45,1.81-3.2,3.38-4.76,5.1-.74.82-1.33,1.77-1.98,2.67.17.15.34.29.51.44,1.59-1.37,3.19-2.73,4.76-4.12,2.9-2.57,6.06-4.62,10.01-5.21,1.09-.16,1.68.16,1.99,1.25.82,2.86,1.8,5.68,2.52,8.56.17.7-.24,1.71-.71,2.35-2.26,3.12-4.64,6.15-6.97,9.21-.73.96-1.46,1.91-2.24,2.93-1.18-1.55-2.15-3.07-3.37-4.33-.94-.97-2.13-1.86-3.37-2.31-.6-.21-1.6.71-2.56,1.19,3.67,3.74,6.69,7.42,8.37,12.03.11.31,1.06.64,1.45.49,5.7-2.18,10.98-1.1,16.02,1.94,1.37.83,1.29,1.49.05,2.43-3.16,2.41-6.25,4.91-9.35,7.38-.18.14-.28.39-.42.59.12.13.24.27.36.4,2.28-1.81,4.57-3.62,6.86-5.42.92-.72,1.82-1.47,2.78-2.13.79-.55,1.33-.36,1.64.64,1.79,5.96,3.66,11.89,5.38,17.87.19.64-.21,1.63-.65,2.24-.9,1.24-2,2.33-3.03,3.48h-9.3c-1.31-.99-2.69-1.81-4.65-1.7.18.64.33,1.17.49,1.7H-1.93v-48.55c1.53,1.16,3.06,2.29,4.57,3.47,4.03,3.14,8.03,6.3,12.05,9.45,5.61,4.39,11.21,8.79,16.84,13.16,1.01.79,2.1,1.48,3.45,2.43-3.02-9.41-5.92-18.42-8.82-27.43-2.92-9.07-5.85-18.13-8.77-27.19-2.65-8.25-5.29-16.52-7.94-24.78-2.55-7.95-5.09-15.91-7.68-23.85-1.19-3.63-2.46-7.24-3.7-10.86V64.12h0Z"/>
      <path class="cls-2" d="M119.22,366.25c-3.88-14.33-7.75-28.66-11.63-42.99-3.88-14.33-7.76-28.66-11.63-42.99-4.26-15.77-8.51-31.54-12.77-47.31-3.38-12.48-6.78-24.95-10.15-37.43-2.96-10.99-5.89-21.99-8.84-32.98-.94-3.49-2.02-6.96-2.76-10.49-.24-1.17.05-2.68.63-3.75,3.86-7.16,7.87-14.24,11.83-21.35,2.38-4.27,4.71-8.58,7.22-12.78.48-.81,1.58-1.51,2.53-1.74,5.85-1.43,11.74-2.69,17.61-4.05,2.74-.64,5.47-1.35,8.18-2.11,1.21-.34,1.64.14,2.13,1.19,1.1,2.33.5,4.17-.7,6.35-1.55,2.8-2.43,5.98-3.59,9-.19.48-.37.95-.44,1.12-1.68-2.04-3.26-4.21-5.1-6.13-1.82-1.89-4.33-2.42-6.8-1.87-4.15.93-7.88,2.5-10.51,6.31-2.76,3.98-5.85,7.83-6.99,12.55-1,4.11-2.12,8.03-4.6,11.49-.39.55-.57,1.25-.92,2.03,3.23-1.7,5.59-4.78,9.5-4.82,3.85-.04,7.07,1.22,9.69,4.47-5.36,5.47-9.96,11.36-10.63,19.36.29-.79.57-1.58.88-2.36.33-.84.71-1.66,1.04-2.5,1.86-4.75,4.23-9.15,8.1-12.63,2.32-2.09,4.2-1.99,6.33.23,2.85,2.95,3.84,6.7,4.76,10.46.57,2.3-.31,4.44-1.56,6.35-1.94,2.96-4.02,5.84-6.03,8.72-1.71-1.02-3.27-2.26-5.05-2.94-1.63-.61-3.49-.69-5.25-.8-.37-.03-.79.81-1.19,1.25.09.14.18.29.26.43h2.5c3.35,0,5.81,1.87,8.1,3.97.21.19-.2,1.32-.58,1.81-1.07,1.37-2.39,2.57-3.41,3.98-1.17,1.61-2.12,3.37-3.16,5.07.14.1.29.19.43.29,1.59-2.19,3.08-4.48,4.82-6.55,1.1-1.31,2.5-2.42,3.92-3.41.57-.39,1.59-.46,2.31-.27,4.16,1.07,7.87,2.91,9.36,7.29.42,1.24.43,2.94-.1,4.11-1.06,2.34-2.68,4.43-3.96,6.68-1.64,2.9-3.18,5.85-4.85,8.95-.37-.17-.75-.29-1.07-.51-1.64-1.14-3.21-2.39-4.94-3.38-.4-.23-1.3.39-1.95.92,3.07.8,5.29,2.69,7.63,4.42.89.66,2.14.98,3.27,1.15,5.11.74,8.35,3.69,10.19,8.33.51,1.28.54,2.53-.24,3.81-2.71,4.45-5.36,8.92-8.01,13.41-.49.83-1.09.92-1.63.22-1.66-2.11-3.93-1.78-5.57-1.72,1.51.92,3.43,2.03,5.29,3.25.97.63,1.04,1.4.21,2.39-1.36,1.63-2.56,3.4-3.79,5.13-.29.41-.44.92-.7,1.46,1.46-1.64,2.86-3.18,4.23-4.74,1.56-1.77,3.35-2.57,5.82-2.01,4.41,1,7.23,3.78,8.8,7.76.52,1.32.38,3.26-.2,4.59-1.11,2.56-2.74,4.89-4.16,7.31-1.08,1.82-2.21,3.61-3.25,5.45-.44.78-.78.96-1.59.39-1.34-.95-2.79-1.74-4.19-2.6-.12.19-.25.38-.38.57,1.51,1.11,3,2.26,4.55,3.31,1.43.96,1.45,1.16.3,2.34-.99,1.01-1.85,2.14-2.78,3.21.12.11.23.23.34.35.55-.51,1.15-.97,1.62-1.54,1.54-1.85,3.45-2.63,5.82-2.1,5.27,1.17,8.12,4.81,9.59,9.67.26.86-.2,2.1-.69,2.97-1.74,3.09-3.62,6.1-5.46,9.14.11.09.22.17.33.26,1.89-2.37,3.76-4.75,5.66-7.1,2.17-2.68,5.51-5.14,9.09-3.61,2.47,1.06,5.15,1.88,6.7,4.32.25.4.27,1.34,0,1.62-4.26,4.27-6.93,9.35-7.98,15.28-.06.36-.2.71-.33,1.06-.03.09-.15.14-.48.46-2.37-4.2-6.04-6.33-10.81-6.46-.39-.01-.8.53-1.6,1.1,3.55.78,6.08,2.57,8.16,4.82,3.52,3.83,3.63,4.91,1.1,9.24-1.95,3.35-3.83,6.72-4.54,10.69,1.55-2.17,3.09-4.35,4.66-6.5,1.37-1.86,2.67-3.78,4.21-5.5,1.87-2.1,4.44-2,6.67-1,2.68,1.19,5.09,2.96,7.95,4.68-5.59,5.02-8.28,11.17-9.7,18.13-2.45-3.87-5.47-6.29-10.31-5.24.32.2.63.46.98.6,3.65,1.42,5.94,4.17,7.44,7.63.57,1.31.65,2.63-.12,3.98-1.53,2.67-2.97,5.4-4.45,8.11l.29.27c1.03-1.16,2.06-2.33,3.09-3.49,1.57-1.78,2.9-3.89,4.78-5.25,1.92-1.4,4.57-1.07,6.64-.19,2.13.91,4.33,2.04,5.75,4.14.49.72.51,1.11-.04,1.77-1.24,1.5-2.43,3.05-3.53,4.64-2.03,2.94-3.14,6.23-3.6,9.75-.07.56-.21,1.12-.32,1.75-2.23-1.02-4.32-1.99-6.89-3.17.92.98,1.55,1.68,2.21,2.33,2.2,2.18,3.37,5.81,1.91,8.73h-18.92Z"/>
      <path class="cls-2" d="M558,366.25c1.96-2.44,3.27-5.12,3.14-8.79-1.44,2.32-2.65,4.27-4.03,6.49-.84-1.55-1.54-2.76-2.16-4.02-.72-1.47-1.2-3.09-2.09-4.45-1.82-2.78-.5-4.99.92-7.31,1.89-3.08,3.7-6.2,5.54-9.3.07-.13.08-.29.13-.51-2.69,3.64-5.36,7.23-8.29,11.18-1.44-2.49-2.61-4.49-3.76-6.51-.47-.83-.84-1.72-1.35-2.53-1.1-1.74-.45-3.57-.19-5.29.58-3.85,1.71-7.5,3.97-10.82,1.36-1.99,2.16-4.36,3.24-6.61-1.74-.28-1.99-2.12-2.86-3.37-1.4-2-2.72-4.08-3.82-6.25-.57-1.12-.98-2.58-.78-3.78.67-4.13,1.64-8.22,2.49-12.33.06-.3.12-.6.01-.97-1.55,2.73-3.1,5.45-4.82,8.48-.64-1.43-1.2-2.55-1.64-3.72-1.24-3.32-3.47-5.94-6-8.31-.89-.83-1-1.68-.77-2.72.32-1.38.64-2.76.61-4.31-.44.62-.93,1.21-1.3,1.87-.61,1.07-1.21.82-1.84.05-2.46-2.99-4.95-5.95-7.35-8.99-.49-.63-.86-1.53-.88-2.32-.14-4.3.41-8.5,2.37-12.4.54-1.08,1.28-2.08,2.06-3.02.99-1.18,3.07-1.03,4.31.18.78.76,1.59,1.48,2.54,2.1-.76-.93-1.45-1.93-2.3-2.77-1.89-1.87-2.18-3.73-.98-6.04.66-1.26,1.1-2.64,1.65-3.97l-.67-.3c-.95,2.04-1.91,4.09-3.01,6.45-.63-.62-1.16-1.07-1.61-1.6-2.56-2.98-5.14-5.95-7.61-9-.67-.83-1.21-1.91-1.41-2.95-.74-3.87-.05-7.64,1.36-11.26.45-1.16,1.19-2.27,2.01-3.21,2.19-2.53,5.18-2.24,7.25.6,1.74,2.39,3.45,4.81,5.17,7.21.15.21.28.44.42.67.15-.09.31-.17.46-.26-.29-.78-.39-1.73-.9-2.32-2.29-2.64-4.63-5.24-7.09-7.73-1.67-1.69-2.06-3.09-.77-5.08,1.07-1.64,2.23-3.23,3.49-4.73,1.36-1.61,3.14-2.3,5.29-1.83.33.07.72-.08.95-.11,0-2.73-.31-5.41.08-7.98.53-3.49,2.26-6.52,5.1-8.74.73-.57,1.64-1.1,2.53-1.23,2.64-.4,4.05.88,4.55,4.05.5,3.15.89,6.32,1.31,9.48,1.36,10.12,2.72,20.24,4.07,30.36,1.34,10.01,2.61,20.03,4.01,30.04,1.14,8.21,2.48,16.39,3.6,24.6.8,5.84,1.32,11.72,2.08,17.57,1.22,9.33,2.59,18.64,3.8,27.97,1.28,9.8,2.44,19.62,3.66,29.44.04.31.13.62.2.93h-14.11Z"/>
      <path class="cls-2" d="M577.24,366.25c-.99-6.13-2-12.26-2.95-18.4-.12-.8-.15-1.76.17-2.47,1.87-3.98,3.74-7.97,5.86-11.83.82-1.49,2.15-2.76,3.45-3.92,1.48-1.32,2.96-.75,4.04.95,1.76,2.78,1.98,5.87,2.32,8.99.16,1.47.83,2.88,1.36,4.63,1.2-1.55,2.06-2.8,3.07-3.93,1.52-1.7,3.08-3.37,4.73-4.93.63-.6,1.52-1.02,2.37-1.26,1.71-.47,2.95.3,3.4,2.01,1.02,3.85,2.03,7.7,2.98,11.56.74,3.02-.27,4.71-3.25,5.94-1.01.41-1.92,1.07-2.68,1.88,1.43-.24,2.86-.73,4.28-.68,4.05.11,7.2,3.56,7.19,7.63,0,1.27-.07,2.55-.11,3.82h-36.22Z"/>
      <path class="cls-2" d="M403.2,366.25c.1-4.72.18-9.45.29-14.17.05-1.96.21-3.92.25-5.89.02-1.02.41-1.52,1.44-1.35,2.62.43,5.23.91,7.85,1.34,1.84.3,3.7.5,5.51.88.55.12,1.33.65,1.44,1.12.81,3.35,1.49,6.73,2.19,10.1.11.54.06,1.12.1,1.83-2.28-1.03-4.37-1.98-6.45-2.92-.02.07-.04.15-.07.22,3.4,2.94,6.81,5.88,10.21,8.82h-22.76Z"/>
      <path class="cls-2" d="M152.87,366.25c-1.5-2.32-3.89-3-6.41-3.39-2.87-.44-3.69-1.38-3.55-4.23.22-4.61,1.07-9.1,3.67-12.99,2.22-3.31,5.33-5.37,9.63-2.13,2.64,1.99,4.69,4.42,6.14,7.37,1.14,2.32.86,4.09-.88,5.99-2.44,2.66-3.6,5.82-3.79,9.38h-4.81,0Z"/>
      <path class="cls-2" d="M433.32,366.25c-1.46-.45-3.02-.71-4.34-1.41-1.01-.54-2.14-1.49-2.5-2.51-1.6-4.61-2.95-9.31-4.38-13.98-.04-.14.01-.31.04-.69.78.05,1.55.07,2.31.16,2.12.26,4.24.49,6.35.87.9.16,1.78.58,2.58,1.02,2.59,1.42,3.3,3.69,3.31,6.54.02,3.33.51,6.66.8,9.99h-4.17Z"/>
      <path class="cls-2" d="M159.29,366.25c.99-2.34,1.76-4.81,3.01-7,2.06-3.59,4.9-5.15,8.52-4.25.45.11,1.05.46,1.19.85,1.16,3.03,2.24,6.08,3.3,9.14.13.38,0,.84,0,1.26h-16.03,0Z"/>
      <path class="cls-2" d="M544.22,366.25c1.55-3.35,3.04-6.73,4.69-10.03.34-.68,1.18-1.4,1.9-1.56,1.1-.24,1.65.71,1.95,1.7.69,2.28,1.35,4.57,2.08,6.83.34,1.04.82,2.04,1.24,3.06h-11.86,0Z"/>
      <path class="cls-2" d="M531.08,366.25c.83-2.22,1.54-4.5,2.52-6.65.73-1.6,1.7-3.12,2.76-4.52.61-.81,1.27-.13,1.82.44,1.78,1.84,2.34,4.2,2.99,6.56.39,1.42.96,2.78,1.45,4.17h-11.54,0Z"/>
      <path class="cls-2" d="M438.77,366.25c-.62-3.39-1.43-6.78-.52-10.23.54-2.06,3.54-2.82,5.02-1.28.28.29.39.87.38,1.31-.1,3.4-.25,6.8-.38,10.2h-4.49Z"/>
      <path class="cls-2" d="M522.43,366.25c-.12-2.39-.34-4.77-.3-7.16.02-1.05.57-2.08.96-3.44,2.52,2.03,3.8,4.22,4.79,6.64.55,1.35,1.27,2.64,1.92,3.95h-7.37Z"/>
      <path class="cls-2" d="M141.01,366.25c3.31-2.58,6.62-1.84,9.93,0h-9.93Z"/>
      <path class="cls-2" d="M200.62,286.7c.51,1.1,1.12,2.17,1.51,3.32.25.75.29,1.62.21,2.42-.08.77-.43,1.51-.64,2.19.86-.32,1.73-.95,2.47-.83.84.14,1.63.88,2.33,1.49,3.02,2.56,5.5,5.57,7.48,9.35.55-1.38,1.05-2.57,1.49-3.77,1.17-3.19,2.42-6.33,4.54-9.07,1.59-2.06,3.13-2.25,4.78-.27,1.9,2.27,3.72,4.6,5.46,6.75.23-1.08-.35-2.48-1.72-4.68-1.14-1.83-2.08-3.8-2.96-5.76-.24-.54-.14-1.42.14-1.96,1.11-2.11,2.36-4.15,3.56-6.21.13-.22.32-.44.53-.59,1.52-1.05,5.62-.52,7.14.53,1.93,1.33,2.45,3.43,3.32,5.3.29.62-.18,1.84-.68,2.51-1.34,1.83-3.04,3.4-4.29,5.28-.79,1.19-1,2.76-1.47,4.15.13.04.27.08.4.12.96-1.74,1.92-3.48,2.88-5.23.15-.28.29-.57.48-.82,2.58-3.36,5.38-3.2,7.28.68,1.56,3.19,2.69,6.58,3.99,9.88.26.67.43,1.37.77,2.48,1.08-2.2,1.95-4,2.84-5.79,1.3-2.62,2.54-5.26,3.93-7.82,1.38-2.54,3.85-2.62,5.43-.18.76,1.16,1.24,2.51,1.98,4.07.69-2.62.11-4.74-.69-6.83-.59-1.55.49-4.7,1.92-5.49.29-.16.71-.16,1.06-.13,2.76.23,5.52.48,8.28.75,2.48.25,4.15,2.41,3.38,4.89-.4,1.3-1.52,2.52-2.6,3.43-2.23,1.86-3.84,4.09-4.96,6.71-.83,1.7-1.65,3.4-2.48,5.1l.5.22c.74-1.59,1.47-3.19,2.2-4.78.23-.64.64-1.58,1.41-2.56.21-.27.37-.43.59-.67,1.18-1.28,2.34-2.62,3.67-3.73,1.15-.96,2.82-.55,3.32.87.94,2.69,1.77,5.44,2.39,8.22.67,2.99,1.04,6.04,1.61,9.52.61-.88,1.03-1.4,1.36-1.96,1.38-2.38,2.53-4.93,4.16-7.12,1.19-1.61,2.89-2.93,4.58-4.06,1.43-.96,2.9-.17,3.51,1.5,1.12,3.08,1.68,6.21,1.57,9.52-.07,2.24.45,4.51.72,6.9,1.84-1.31,2.15-2.86,1.57-4.69-.49-1.55-.64-3.23-.86-4.86-.37-2.69-.68-5.38-.99-8.07-.16-1.43.1-2.74,1.19-3.81,1.45-1.43,2.7-3.15,4.36-4.26,2.57-1.72,6.18-.56,6.91,2.4.76,3.09.88,6.39.91,9.6,0,1.16-1.07,2.32-1.66,3.49,4.1,2.05,3,5.97,3.8,9.12,1.01-1.56,1.44-2.98,1.01-6.47-.46-3.73,1.78-5.65,4.35-7.47.64-.45,1.43-.72,2.17-1.01,2.37-.92,4.56.06,5.39,2.48,1.19,3.46.79,7.04.63,10.6-.02.36-.09.72-.14,1.07,1.27.44,2.47.85,3.23,1.12,2.12-.95,3.92-1.96,5.85-2.56,2.62-.81,4.15.15,4.98,2.74.18.55.37,1.09.94,1.63,0-.65.06-1.31,0-1.95-.27-2.47.2-4.65,1.82-6.69,2.69-3.38,5.93-5.89,10.14-6.98,2.26-.59,3.53.2,3.97,2.47.83,4.33.38,8.56-1.12,12.71-.85,2.35-1.6,4.74-2.39,7.11.14.05.29.1.43.15,3.04-1.72,6.01-3.59,9.15-5.1,1.66-.8,3.59-1.1,5.44-1.38,1.14-.17,2.18.49,2.26,1.76.14,2.35.12,4.72.12,7.08,0,.62-.19,1.24-.29,1.86.14.05.27.09.41.14.73-1.89,1.85-3.72,2.1-5.67.45-3.55,2.55-5.1,5.61-6.32,6.13-2.44,11.83-1.14,17.38,1.59.87.43,1.48,1.81,1.77,2.87.61,2.25.86,4.59,1.38,6.87.4,1.78.96,3.53,1.45,5.3.2-.03.39-.06.59-.09-.03-.69-.03-1.38-.1-2.07-.29-2.96-.82-5.92-.84-8.88-.02-4.02.79-4.91,4.82-4.34,2.93.42,5.11,2.23,7.37,3.89.38.28.66.68,1.02.98,2.07,1.77,3.39,3.81,3.32,6.72-.05,2.09.41,4.2.65,6.3.14-.01.27-.02.41-.04-.09-1.1-.23-2.19-.25-3.29-.09-5.78,4.75-7.04,8.59-5.46.75.31,1.51,1.12,1.81,1.88.85,2.16,1.48,4.4,2.16,6.62.17.54.22,1.12.3,1.51.6-1.44,1.19-2.95,1.85-4.43.73-1.63,2.1-1.85,3.63-1.43.81.22,1.64.56,2.32,1.03,2.94,2.03,5.83,4.13,8.76,6.21-.02-.36,0-1.01-.11-1.65-.64-3.77-1.38-7.53-1.92-11.32-.24-1.67-.19-3.4-.05-5.08.11-1.24.66-2.61,2.14-2.57,1.24.03,2.76.33,3.64,1.1,1.9,1.65,3.54,3.64,5.18,5.57,2.14,2.5,3.4,5.19,2.69,8.73-.46,2.29-.09,4.74-.09,7.12.14.03.27.05.41.08.21-.86.46-1.72.6-2.59.15-.89,0-1.87.33-2.68.47-1.18,1.09-2.4,1.95-3.29.4-.42,1.82-.46,2.3-.08,1.85,1.46,3.62,3.07,5.2,4.83.63.7.82,1.9.95,2.91.16,1.2.04,2.44.04,3.95.69-1.2,1.19-2.21,1.82-3.13,1.07-1.58,2.14-1.79,3.62-.63,3.13,2.44,5.78,5.32,7.9,8.68.3.49.65.95.98,1.44,0-1.95-.11-3.83.02-5.69.23-3.32.55-6.65.96-9.96.1-.79.58-1.63,1.11-2.25.83-.96,1.79-.66,2.67.09.51.44,1.05.86,1.57,1.28.17.16.34.33.51.49,2.21,3.02,3.93,6.29,5.1,9.85.1.3.33.6.32.9-.08,2.39,1.67,3.23,3.67,4.18-.38-1.49-.8-2.8-1.05-4.14-1.06-5.55-.76-11,1.29-16.31.7-1.81,2.64-2.1,4.1-.51,3.09,3.37,4.77,7.4,5.94,11.79.75,2.82.16,5.18-.85,7.67-.4.98-.5,2.08-.73,3.12.18.05.36.1.54.15.27-.81.52-1.63.8-2.44.45-1.3,1.15-2.32,2.76-2.12,1.45.18,2.37,1.25,2.47,2.85.22,3.66.43,7.33.63,10.99.03.57,0,1.14,0,1.99-1.73-.21-3.24-.33-4.73-.59-3.25-.56-6.47-1.24-9.72-1.77-8.31-1.37-16.62-2.67-24.93-4.02-7.42-1.2-14.84-2.42-22.25-3.63-6.73-1.1-13.47-2.21-20.2-3.32-6.42-1.06-12.83-2.12-19.25-3.18-6.47-1.07-12.94-2.13-19.41-3.19-6.36-1.05-12.73-2.1-19.09-3.15-6.58-1.08-13.15-2.17-19.73-3.25-6.36-1.05-12.73-2.1-19.09-3.15-7.26-1.19-14.53-2.36-21.79-3.55-6.52-1.07-13.05-2.15-19.57-3.22-6.36-1.05-12.73-2.1-19.09-3.15-6.58-1.08-13.15-2.16-19.73-3.24-5.99-.99-11.99-1.98-17.99-2.97-6.89-1.14-13.78-2.26-20.68-3.4-5.31-.88-10.6-1.9-15.93-2.62-2.78-.37-4.55-2.22-6.62-3.63-2.02-1.36-3.83-3.03-5.79-4.49-3.57-2.68-7.25-5.23-10.75-8.01-1.11-.88-2.12-2.19-2.6-3.51-4.98-13.81-9.86-27.67-14.74-41.52-4.69-13.29-9.32-26.6-14.02-39.9-3.61-10.23-7.3-20.44-10.92-30.67-4.36-12.34-8.68-24.69-13.03-37.04-4.69-13.3-9.41-26.58-14.11-39.88-5.14-14.55-10.25-29.1-15.39-43.65-3.97-11.24-7.99-22.46-11.95-33.69-4.43-12.54-8.83-25.09-13.24-37.64-.15-.43-.22-.89-.39-1.58,1.36,0,2.53-.11,3.67.05.42.06.9.69,1.1,1.16.55,1.27.96,2.59,1.43,3.9.61,1.71,1.52,2.23,3.11,1.32,2.96-1.71,6.11-1.99,9.27-1.26,1.96.46,3.85,1.49,5.55,2.61,1.25.82.2,1.58-.65,2.15-2.84,1.91-5.25,4.24-6.92,7.27,1.77-1.65,3.51-3.33,5.33-4.93.98-.86,2.06-1.65,3.16-2.36.99-.63,1.55-.05,1.9.9,1.36,3.58,2.73,7.15,4.11,10.73.25.64.45,1.32.76,1.93.86,1.68.97,3.08-.43,4.73-1.55,1.83-2.53,4.13-3.88,6.14-.91,1.36-1.84,2.85-3.12,3.8-1.17.87-2.83,1.1-4.27,1.62-.02-.17-.04-.33-.07-.5.29.71.57,1.42.99,2.45.26-.04.89,0,1.41-.24,5.11-2.27,11.95,1.37,13.07,7.15.33,1.7.13,3.19-1.39,4.42-2.86,2.29-4.72,5.29-5.91,9.08,1.55-1.79,2.79-3.45,4.28-4.89,2.52-2.44,5.11-4.8,8.73-5.62.96-.21,1.39,0,1.71.84,1.11,2.94,2.21,5.87,3.36,8.79.55,1.4-.63,2.16-1.25,2.86-3.33,3.78-5.92,8.01-8.29,12.41-.12.22-.31.4-.4.51-1.34-1.79-2.66-3.53-3.97-5.29-.12.09-.24.17-.36.26.89,1.37,1.92,2.67,2.62,4.13.99,2.05,1.81,4.2,2.55,6.35.37,1.08.87,1.39,1.86.89,4.45-2.26,8.01.02,11.5,2.33.96.64,1,1.72.02,2.59-.99.88-2.05,1.68-2.96,2.64-.89.94-1.63,2.02-2.3,3.13,1.83-1.57,3.73-3.05,5.46-4.72,1.47-1.41,3.16-1.71,5.01-1.46.44.06.99.63,1.18,1.1,1.66,4.2,3.24,8.44,4.89,12.64.35.9.11,1.5-.56,2.1-3.34,3-5.91,6.62-8.2,10.44-.68,1.12-1.36,2.24-2.17,3.55-1.43-1.38-2.7-2.6-3.97-3.82-.1.07-.19.14-.29.21.76,2.04,1.53,4.09,2.3,6.15.16.02.34.09.47.04,3.98-1.67,7.41-.52,10.52,2.07,2.26,1.89,3.37,4.43,3.29,7.3-.03,1.04-.78,2.2-1.51,3.04-2.04,2.36-3.74,4.89-4.63,7.91,1.82-2.01,3.56-4.1,5.47-6.01,1.46-1.45,2.99-2.95,4.77-3.91,1.25-.67,2.97-.51,4.48-.56.31-.01.75.67.93,1.12,1.02,2.45,2.03,4.92,2.92,7.42.18.5.03,1.37-.32,1.76-3.25,3.58-5.79,7.61-7.63,12.05-.85,2.04-1.44,4.19-2.31,6.79-1.3-4.26-2.72-7.92-6.43-10.07,3.28,4.12,5.16,8.83,6.17,14.07,2.62-1.4,5.4-2.03,8.03-.78,2.43,1.16,4.91,2.52,6.4,4.98-3.91,3.99-8.94,7.09-9.41,13.1,1.48-2.31,2.93-4.89,4.7-7.22,1.48-1.94,3.07-4.03,5.56-4.73,3.46-.96,6.26,1.19,8.4,4.47,1,1.54,1.61,3.34,2.35,5.04.98,2.25-.46,3.89-1.58,5.51-2.26,3.27-4.65,6.44-6.99,9.66-.83,1.15-1.65,2.3-2.32,3.25-2.1-1.03-4.06-2-6.02-2.96-.02.07-.04.14-.06.21,1.57,1.33,3.15,2.65,4.71,3.98.86.73.75,1.4-.09,2.1-.92.76-1.79,1.59-2.68,2.4.08.11.15.21.24.32.15-.08.34-.12.46-.24,4.23-4.25,10.12-2.28,12.48,2.9.72,1.59,1.28,3.25,1.97,4.86,1.04,2.42-.56,4.12-1.74,5.78-1.52,2.13-2.36,4.46-3.04,6.89.14.1.28.2.42.29.43-.57.92-1.11,1.29-1.73,1.4-2.37,2.8-4.69,5.11-6.39,2.55-1.89,6.15-1.49,8.28-.01,1.52,1.05,2.71,2.62,3.92,4.06.76.92.48,1.97-.42,2.69-4.98,3.99-7.63,9.39-9.51,15.28-.15.47-.35.93-.59,1.55-1.13-1.97-2.14-3.72-3.15-5.47-.07.04-.14.08-.21.11,1.23,4.09,2.46,8.18,3.68,12.22,1.01-.07,2.4-.39,3.7-.21,2.95.43,4.71,2.74,6.64,4.69.58.58.97,1.36,1.44,2.03-1.45,1.71-3.1,3.26-4.24,5.12-1.13,1.85-1.76,4-2.34,6.1,1.23-2.15,2.35-4.37,3.72-6.43,2.8-4.23,5.78-4.06,9.26-.17,2.26,2.53,3.56,5.48,4.16,8.8.3,1.67-.21,3.02-1.08,4.35-2.35,3.6-4.68,7.21-7.03,10.81-.08.12-.25.18-.57.4-.65-.87-1.29-1.73-1.93-2.59.6,1.92,1.16,3.82,1.83,5.68.13.37.74.83,1.11.8,2.62-.19,4.13,1.68,5.58,3.24,2.3,2.47,3.25,5.7,3.81,8.96.17,1.02-.22,2.15-.47,3.21-.24,1.06-.63,2.09-.93,3.07,1.56-.94,2.97-2.38,4.53-2.56,1.56-.17,3.26.93,4.9,1.47.54.42,1.08.85,1.62,1.27h0Z"/>
      <path class="cls-2" d="M189.25-15.8h25.06c4.02,0,5.19.64,6.44,4.53.88,2.73,1.31,5.65-1.11,8.05-.3.3-.62.57-.93.86-1.39,1.3-2.79,2.59-4.18,3.89.1.1.21.2.31.31,2.01-1.16,3.94-2.48,6.04-3.44,3.49-1.6,7.21-1.35,10.85-.62,1.98.4,3.59,4.53,3.25,7.07-.27,2.03-1.82,2.55-3.21,3.38-3.79,2.27-7.35,4.85-10.17,8.29-.64.78-.79,1.97-1.04,2.62,1.22-1.01,2.63-2.12,3.98-3.29,2.23-1.93,4.4-3.93,6.67-5.81.96-.8,2.1-1.41,3.15-2.11,1.75-1.17,3.29-.36,4.47.8,3.49,3.44,6.07,7.38,6.35,12.49.07,1.21-.27,1.99-1.31,2.63-3.87,2.4-7.23,5.39-10.28,8.76-2.22,2.46-2.13,2.58-4.77-.41-1.98-2.25-4.19-4.16-7.41-5,.28,1.34.78,2.13,1.93,2.63,2.89,1.27,5.18,3.21,6.4,6.3-.79.51-1.49.95-2.18,1.4-.02.15-.05.3-.07.46,4.67-1.43,8.21.3,11.06,3.67,2.91,3.44,2.84,7.51,2,11.83.95.05,1.72.11,2.5.13,4.58.15,7.81,2.48,10.09,6.28.74,1.23.25,2.65-1.02,3.41-1.35.8-2.69,1.63-3.46,3.7,1.42-.54,2.48-.85,3.44-1.34,3.55-1.79,7.99-1.52,10.5.88,2.6,2.49,3.67,5.65,3.58,9.22-.06,2.53-1.94,3.75-3.61,5.14-1.18.99-2.31,2.04-3.46,3.05l.42.66c1.01-.36,2.14-.55,2.99-1.13,2.61-1.79,5.61-2.47,8.6-2.62,1.57-.08,3.45.86,4.76,1.88,2.12,1.66,3.3,4.12,4.27,6.63.47,1.21.18,1.81-1.14,2.34-2.51,1.02-4.89,2.36-7.31,3.58-.47.24-.91.53-1.37.8.17.23.35.46.52.7,1.16-.55,2.33-1.09,3.48-1.65,1.94-.94,3.79-2.2,5.84-2.73,2.34-.61,5.42,1.61,6.56,3.81,1.81,3.49,2.03,7.22,2.11,11.01.04,1.67-.65,2.72-2.3,3.17-2.68.74-4.89,2.31-7.01,4.01-.5.41-.84,1.02-1.04,1.85.38-.07.78-.06,1.12-.21,2.59-1.12,5.2-2.19,7.72-3.45,1.56-.78,3.09-1.04,4.78-.68,4.38.93,8.84,6.2,8.83,10.59,0,.39-.55.95-.97,1.14-2.62,1.15-5.31,2.15-7.93,3.31-1.85.82-2.98,2.31-3.65,4.62,1.65-1.35,2.98-2.51,4.4-3.56.85-.63,1.82-1.11,2.77-1.58,1.09-.54,2.23-.99,3.33-1.52,2.12-1.01,5.76.64,7.19,3.02,2.34,3.88,2.95,8,2.31,12.41-.32,2.25-.9,2.72-3.01,3.55-2.79,1.1-5.71,2.07-7.82,4.4-.24.26-.39.59-.8,1.22.77-.3,1.18-.49,1.61-.64,3.12-1.03,6.21-2.18,9.37-3.04,2.56-.7,4.63.51,6.49,2.24,2.4,2.23,4.01,4.79,4.13,8.14.05,1.57-.59,2.49-2.17,3.08-2.78,1.04-5.49,2.29-8.13,3.64-1.02.52-1.76,1.56-2.62,2.37.09.11.19.22.28.34,2.06-1.15,4.09-2.35,6.18-3.45,1.32-.69,2.69-1.27,4.07-1.83,1.62-.65,3.06.13,4.4.84,2.19,1.16,3.85,2.94,4.67,5.27,1.57,4.44,1.82,8.96.17,13.45-.47,1.27-1.21,2.45-1.88,3.79,4.06.84,5.56,3.82,6.55,7.2.74,2.54,1.42,5.1,2.17,7.81-1.78.46-3.29.85-4.88,1.26.17.09.24.15.33.17,1.67.41,3.85-.22,4.89,1.47,1.32,2.14,2.6,4.47,3.11,6.89.55,2.6.32,5.39.18,8.08-.13,2.57-.01,5.05,1.2,7.75,1.61-4.37,4.69-7.11,8.06-9.54,2.36-1.71,5.13-2.39,8.02-2.18,1.72.12,3.07,1.16,3.43,2.91.57,2.8,1,5.63,1.36,8.47.16,1.29.03,2.62.27,3.94,1.01-4.36,2.45-8.69.95-13.22-.53-1.6.47-2.67,1.56-3.34,2.28-1.4,4.73-2.39,7.54-2.32,3.77.1,6.66,1.9,7.48,5.49.67,2.92.93,5.97.99,8.97.05,2.63-.86,3.1-3.47,3-1.64-.06-3.31.07-4.93.37-2.31.43-4.4,2.4-5.13,4.6,2.24-1.77,4.7-2.68,7.31-3.47,2.55-.77,4.66-.25,6.63,1.15,1.11.79,1.72.62,2.7-.21,4.24-3.6,9.82-4.09,14.71-1.49.37.2.88.21,1.32.21,1.96,0,3.92-.03,5.88-.08.97-.02,1.34.48,1.34,1.37,0,.26,0,.53,0,.8,0,2.8.02,2.84-2.62,3.83-2.79,1.05-5.6,2.03-8.42,2.99-7.11,2.41-14.23,4.79-21.35,7.2-1.46.49-2.93.98-4.31,1.65-4.3,2.09-8.16.75-11.99-1.32-.93-.5-1.97-.8-2.96-1.2-3.85-1.54-7.76-2.99-11.54-4.69-1.24-.56-2.46-1.62-3.19-2.76-2.21-3.5-4.15-7.17-6.24-10.75-2.09-3.58-4.24-7.12-6.33-10.7-3.62-6.2-7.19-12.42-10.81-18.62-2.79-4.78-5.64-9.52-8.44-14.29-4.09-6.97-8.14-13.96-12.23-20.93-2.85-4.86-5.76-9.69-8.61-14.56-3.42-5.82-6.8-11.67-10.21-17.5-2.76-4.73-5.55-9.45-8.32-14.17-3.57-6.1-7.13-12.22-10.7-18.32-2.07-3.53-4.18-7.04-6.25-10.58-3.49-5.96-6.96-11.94-10.46-17.9-3.44-5.87-6.91-11.73-10.35-17.6-4.17-7.11-8.3-14.24-12.47-21.34-3.53-6.01-7.1-11.98-10.63-17.99-4.03-6.88-8.03-13.78-12.05-20.67-.98-1.68-1.97-3.35-3.19-5.4h.01Z"/>
      <path class="cls-2" d="M487.26,191.73c2.87-1.31,5.46-2.48,8.12-3.69-.52-.26-1.07-.53-1.79-.88,2.05-3.81,3.27-8.02,6.9-10.75,1.48-1.11,3.89-1.23,5.39-.05,2.8,2.19,5.53,4.44,8.67,6.98-.86-1.5-1.38-2.75-2.2-3.76-1.26-1.55-2.47-3.44-4.16-4.28-2.85-1.41-3.35-3.61-3.34-6.28.01-3.14.81-6.07,2.29-8.86,1.97-3.7,5.19-5.25,8.37-3.48,2.97,1.65,5.65,3.86,7.46,6.79,1.69,2.73,3.08,5.65,4.55,8.52.95,1.85.41,2.91-1.43,3.99-2.43,1.42-3.93,3.67-4.87,6.32.19-.23.43-.45.56-.71,1.79-3.51,4.92-4.47,8.55-4.49,2.03,0,2.04,0,1.67-1.9-.69-3.5.12-6.81,1.62-9.9.84-1.72,2.14-3.25,3.43-4.69,2-2.23,4.12-2.26,6.48-.4,3.76,2.96,6.9,6.41,8.78,10.88.03.07.15.11.42.29-1.07-4.07-3-7.4-6.17-9.94-1.28-1.02-2.88-1.7-3.96-2.88-.61-.66-.93-2.21-.59-3.01,1.95-4.52,6.85-7.82,12.08-5.42,1.47.68,2.69,2.05,3.84,3.28,1.7,1.82,3.22,3.79,4.83,5.68,1.49,1.75,1.42,3.03-.16,4.67-1.37,1.43-2.66,2.93-3.98,4.4.14.15.29.29.44.44.57-.51,1.08-1.1,1.72-1.5,1.55-.97,3.08-2.07,4.77-2.7,1.76-.65,2.44-1.66,1.26-3.28-1.34-1.84-2.95-3.48-4.45-5.2-2.17-2.48-4.59-4.79-6.43-7.49-.85-1.24-.8-3.23-.82-4.89-.04-4,1.99-6.91,5.17-9.17,2.39-1.7,4.92-1.56,7.26.47,1.32,1.14,2.8,2.11,4.03,3.35,3.66,3.68,5.65,8.31,7.26,13.14.3.9.67,1.78.98,2.59,1.26-2.21,2.38-4.48,3.79-6.57,1.85-2.74,4.54-4.5,7.74-5.28,2.36-.58,4.39.52,6.2,1.95,1.44,1.14,2.82,2.34,4.35,3.38-1.65-1.7-3.22-3.48-4.97-5.06-1.69-1.51-1.83-1.98-.4-3.8,2.23-2.84,5.05-4.76,8.75-4.16,3.07.5,5.82,2.03,7.88,4.49.3.36.38.99.39,1.49.02,7.35,0,14.69.04,22.04,0,1.24-.49,1.79-1.64,2.14-5.41,1.64-10.8,3.33-16.18,5.05-6.69,2.15-13.37,4.35-20.05,6.52-3.24,1.05-6.48,2.1-9.72,3.16-6.63,2.16-13.26,4.32-19.89,6.49-6.28,2.05-12.55,4.11-18.83,6.15-3.75,1.22-7.51,2.38-11.26,3.6-6.53,2.12-13.04,4.28-19.57,6.41-6.68,2.18-13.37,4.34-20.05,6.54-4.59,1.52-9.15,3.16-13.76,4.64-2.38.76-4.86,1.22-7.26,1.93-1.39.41-2.72,1.03-4.42,1.68,0-2.31-.04-4.15,0-5.99.19-7.07.39-14.14.61-21.22.04-1.43.18-2.87.22-4.3.03-1.09.58-1.43,1.56-1.17.72.18,1.52.29,2.12.68,2.56,1.68,5.08,3.43,7.57,5.22.94.68.95,1.7.64,2.75-.4,1.36-.76,2.73-1.02,4.19,2.02-3.31,4.43-5.81,8.81-4.72-.08-.16-.1-.27-.16-.3-3.12-1.57-3.36-2.08-2.01-5.32.79-1.9,1.64-3.82,2.76-5.53,3.23-4.9,6.67-3.82,9.87-1.44,1.99,1.49,3.89,3.09,5.84,4.63,1.61,1.27,1.92,2.92.91,4.74-.46.83-.87,1.68-1.43,2.78h.01Z"/>
      <path class="cls-2" d="M411.64,262.89c.74,4.23,1.48,8.46,2.23,12.77-.54-.43-1.1-.89-1.66-1.34-.06.05-.13.1-.19.15.69,1.47,1.39,2.94,2.07,4.42,1.2,2.64,1.54,5.34.82,8.22-.37,1.47-.4,3.05-.37,4.58.03,1.49-.49,2.02-1.97,1.82-2.01-.28-4.02-.51-6.05-.66-1.53-.11-2.18-.86-2.16-2.36.06-3.78.06-7.56.15-11.33.16-6.65.41-13.29.58-19.94.35-14.15.67-28.29,1.01-42.44.2-8.03.4-16.06.63-24.09.14-5.05.33-10.1.49-15.15.01-.41-.04-.83-.08-1.51-1.55.24-3,.42-4.43.69-8.7,1.63-17.4,3.27-26.09,4.93-5.34,1.02-10.67,2.06-16,3.14-1.33.27-2.26.01-2.92-1.24-2.35-4.46-4.79-8.87-7.04-13.38-.32-.63-.05-2.11.47-2.52,2.93-2.27,6.08-4.07,10.02-4.04,2.46.03,4.43.94,6.2,2.51.58.52,1.22.99,2.14,1.28-.41-1-.76-2.04-1.24-3-.65-1.31-.64-2.45.57-3.42,2.15-1.72,4.17-3.62,6.49-5.05,1.43-.88,3.31-1.42,5-1.45,5.31-.09,10.62.1,15.93.24,2.86.08,4.88,1.98,7.05,3.48,1.12.78,2.06,1.82,3.05,2.77,1.23,1.18,1.32,2.26.36,3.69-.59.88-1.17,1.76-1.57,2.81,1.45-.9,2.88-1.85,4.37-2.68,2.91-1.62,5.97-1.54,8.96-.32,1.76.72,3.39,1.76,5.05,2.71,1.13.64,1.6,1.75,1.04,2.86-2.54,5.06-2.35,10.39-1.81,15.78.02.2-.04.41-.08.78-2.23-1.16-4.38-2.28-6.53-3.39-.1.13-.2.26-.29.39.92.99,1.84,2,2.77,2.99,1.16,1.22,2.55,2.3,3.44,3.69.58.9.63,2.26.58,3.4-.06,1.39-.49,2.76-.44,4.22.54-.73,1.03-1.51,1.64-2.19,2.43-2.71,6.24-3.06,9.31-1,1.45.98,3.03,1.76,4.54,2.66,1.55.92,1.95,2.1,1.27,3.74-1.79,4.37-2.45,8.88-1.74,13.57.07.47-.14.99-.22,1.49-.5-.19-1.04-.31-1.51-.56-3.03-1.62-6-3.38-9.1-4.87-1.65-.8-4.54-.26-5.35.62,1.85.3,3.72.55,5.55.93,3.2.65,5.4,2.9,7.6,5.02,1.2,1.16,2.16,2.61,3.09,4.02.8,1.2.88,2.72-.04,3.76-1.98,2.24-2.32,4.94-2.7,7.68-.18,1.26-.46,2.54-.43,3.8.05,1.65-.73,1.75-1.98,1.36-3.14-.97-6.28-1.94-9.43-2.9-.24-.07-.49-.12-.95-.23.78,1.68,1.69,2.58,3.41,3.15,2.11.71,4.05,2.06,5.88,3.38.54.39.83,1.72.62,2.44-1.41,4.77-1.54,9.53-.35,14.34.09.37.01.78.01,1.27-4.27-1.8-7.93-4.79-12.7-4.64-.07.15-.13.31-.2.46.91.38,1.79.9,2.74,1.1,2.77.57,5.08,1.87,6.95,3.96.88.98,1.79,1.91,2.69,2.87,1.82,1.93,1.69,4.32.96,6.47-1.04,3.1-1.36,6.21-1.28,9.42.02.94-.08,1.88-.13,2.96-4.05-1.08-7.88-2.1-11.7-3.15-.26-.07-.52-.39-.64-.65-1.68-3.65-3.43-7.28-4.96-11-.55-1.33-.57-2.87-.83-4.32-.2.04-.4.07-.6.11h0Z"/>
      <path class="cls-2" d="M233.03,184.82c1.25-.97,2.49-1.94,3.74-2.9,1.84-1.43,3.61-2.97,5.56-4.24,2.61-1.69,5.35-1.2,7.59.65,1.63,1.35,2.98,3.14,4.15,4.93,1.19,1.83.59,3.39-1.31,4.47-.18.11-.37.22-.53.35-1.17.89-2.34,1.78-3.37,2.88,1.15-.67,2.26-1.41,3.46-1.99,3.17-1.55,6.39-.45,8.15,2.73.81,1.46,1.6,2.94,2.51,4.37-.03-2.25-.45-4.39-1.55-6.37-.18-.32-.43-.61-.63-.93-2.11-3.4-2.02-3.32.54-6.37,2.35-2.79,5.01-5.15,8.07-7.13,1.66-1.08,3.83-.85,5.48.36,3.32,2.45,4.43,6.27,6.26,9.64.2.37-.22,1.08-.32,1.49,1.35.43,3.03.96,4.75,1.51,0-.09.04-.54,0-.98-.24-2.64,1.09-4.5,3.13-5.9,1.97-1.35,4.02-2.57,6.07-3.8,2.26-1.37,2.7-1.12,4.06,1.2,2.35,3.98,4.86,7.86,7.31,11.79.7,1.13,1.56,2.19,2.07,3.4.23.55,0,1.56-.41,2.05-.41.51-1.27.77-1.97.92-6.8,1.35-13.61,2.64-20.41,3.97-5.81,1.13-11.61,2.28-17.41,3.45-3.29.66-6.61,1.2-9.84,2.09-3.18.88-5.73-.43-8.36-1.76-.43-.21-.81-.52-1.24-.71-6.3-2.87-12.58-5.79-18.92-8.56-3.04-1.32-4.3-3.9-5.53-6.65-3.66-8.21-7.4-16.38-11.12-24.57-4.18-9.2-8.36-18.4-12.55-27.6-3.71-8.13-7.4-16.27-11.16-24.38-1.52-3.28-1.18-4.19,2.36-4.95,3.44-.74,6.91-1.37,10.35-2.12,1.8-.39,3.56-.94,5.52-1.19-3.09,3.72-6.41,7.2-7.69,11.96,3.03-4.25,5.87-8.64,10.1-12.15,1.32,2.4,2.62,4.7,3.87,7.02,1.43,2.67,2.83,5.36,4.2,8.06.21.41.36,1.13.14,1.42-2.29,3.04-4.66,6.03-7.13,9.2-.38-.52-.76-1.06-1.15-1.58-.88-1.18-1.71-2.4-2.69-3.5-.96-1.09-2.26-.85-3.83-.72.43.46.59.78.83.87,2.14.81,3.52,2.46,4.84,4.21,1.26,1.67,1.29,1.89-.27,3.32.35.1.63.26.91.25,7.31-.28,12.41,6.1,10.37,13.1-.54,1.86-1.4,3.62-2.24,5.75.84-.46,1.48-.69,1.99-1.1,2.94-2.34,7.19-2.31,9.89.22,1.11,1.04,2.23,2.13,3.06,3.39,1.24,1.89.57,3.23-1.23,4.56-1.64,1.21-2.95,2.87-4.33,4.39-.59.65-1.01,1.47-1.37,2.01,1.76-1.6,3.68-3.38,5.61-5.13,2.44-2.2,4.43-2.06,6.84.19,3.86,3.59,5.13,8.06,4.71,13.12-.07.83-.49,1.78-1.05,2.39-1.82,1.99-3.79,3.85-5.69,5.78-1.14,1.16-2.25,2.36-3.37,3.54.07.1.14.2.22.3h0Z"/>
      <path class="cls-2" d="M509.04,30.15c.86-4.23,5.12-6.06,6.61-9.78-3.9,1.56-6.32,4.53-7.97,8.43-1.91-1.95-2.73-4.14-2.84-6.56-.22-4.93-.36-9.87-.41-14.81-.01-1.22.44-2.44.78-4.13,3.57,2.56,6.76,4.83,9.94,7.11.18-.17.37-.35.55-.52-.65-.76-1.19-1.69-1.98-2.23-2.45-1.67-4.95-3.29-7.53-4.75-1.55-.88-2.65-1.73-2.52-3.76.12-1.95-.11-3.93-.27-5.89-.1-1.22.44-1.83,1.5-2.29,2.54-1.1,5.14-1.33,8.03-.58-.25-1.92-.42-3.7-.72-5.46-.21-1.22.06-1.84,1.42-1.75,1.01.06,2.04.11,3.04,0,1.54-.18,2.04.56,2.23,1.95,1.51,11.17,3.04,22.34,4.59,33.51,1.42,10.22,2.86,20.43,4.28,30.65,1.89,13.59,3.76,27.18,5.65,40.77,1.23,8.84,2.49,17.68,3.74,26.52.64,4.52,1.28,9.04,1.95,13.56.14.96-.23,1.46-1.11,1.82-2.46,1-4.91,2.04-7.35,3.11-.82.36-1.62.79-2.38,1.27-1.58,1.02-3.15.46-3.12-1.42.03-1.86.64-3.73,1.2-5.54.42-1.35,1.18-2.6,1.79-3.91-1.64.61-2.6,1.58-3.9,4.67-.79,1.87-1.19,3.91-1.85,6.14-.57-.65-1.15-1.17-1.56-1.81-2.45-3.79-5.51-6.97-9.33-9.4-1.18-.75-1.69-1.76-1.69-3.19,0-2.39-.17-4.78-.31-7.17-.06-.97.27-1.51,1.21-1.94,3.6-1.64,8.23-.98,11.33,1.75,1.59,1.4,3.15,2.85,4.76,4.22.55.46,1.24.76,2.26,1.37-1.18-3.12-2.89-5.25-5.27-6.84-2.34-1.57-4.75-3.02-5.74-5.94-1.09-3.22.03-6.1,1.58-8.65,1.31-2.16,3.32-3.96,5.25-5.65,1.06-.93.99-1.32.11-2.19-1.4-1.38-2.55-3.03-4.03-4.3-2.65-2.27-5.38-4.5-8.25-6.47-4.68-3.22-4.65-6.67-2.18-11.8,1.45-3.02,3.98-4.63,7.8-4.82-1.28-2-2.15-3.86-3.47-5.28-1.86-2-3.96-3.84-6.17-5.43-1.76-1.27-2.54-2.86-2.59-4.85-.1-4.35-.08-8.71-.08-13.06,0-.58.19-1.15.3-1.73.28-1.51,1.3-1.94,2.61-1.48,1.45.51,2.85,1.19,4.2,1.91.96.52,1.82,1.23,3,1.62-.59-.74-1.07-1.61-1.79-2.19-.77-.62-1.75-.98-2.64-1.44-.89-.46-1.78-.91-2.65-1.35h0Z"/>
      <path class="cls-2" d="M177.61,61.72c1.08-1.68,2.16-3.37,3.24-5.05.81-1.27,1.47-1.4,2.51-.31,3.96,4.14,5.88,9.28,7.07,14.74.33,1.52-.02,2.94-1.36,3.75-1.56-1.57-3.06-3.03-4.5-4.55-.64-.67-1.24-.71-2.1-.47-1.17.33-2.41.41-3.67.73,2.45.73,4.15,2.41,5.7,4.24,1.15,1.35.95,1.65-.4,2.82-1.51,1.31-2.9,2.78-4.23,4.28-1.63,1.84-2.86,1.91-3.97-.27-1.99-3.88-3.78-7.85-5.59-11.82-2.72-5.95-5.38-11.93-8.06-17.89-4.17-9.26-8.34-18.53-12.52-27.78-3.11-6.88-6.25-13.75-9.37-20.63-2.9-6.39-5.77-12.8-8.65-19.2-.11-.23-.14-.5-.26-.97.66-.05,1.21-.14,1.75-.14,3.63-.01,7.26.03,10.89-.03,1.13-.02,1.87.29,2.47,1.31,1.75,2.99,1.74,3.44-1.47,5.65-1.39.95-1.56,2.1-1.37,3.86,1.31-1.18,2.4-2.23,3.57-3.17,1.65-1.33,1.99-1.23,2.96.62,1.7,3.19,3.37,6.39,5.1,9.57.54,1,.44,1.7-.39,2.53-1.08,1.08-2.1,2.27-2.92,3.55-.5.79-.59,1.85-.86,2.79.21.12.42.24.63.36,1.52-2.15,3.04-4.31,4.73-6.7.89,1.57,1.64,2.84,2.33,4.14,2.05,3.85,4.07,7.71,6.1,11.57.15.28.48.62.4.84-.21.64-.57,1.24-.86,1.85-.45-.26-1.01-.43-1.32-.8-2.18-2.58-4.83-4.29-8.13-4.88-.13.19-.26.38-.38.57,2.9,2.1,5.81,4.2,8.78,6.35-1.46,1.85-4.05,2.4-5.11,4.64,2.05-1.12,3.94-2.25,5.91-3.2,2.41-1.15,3.43-.41,4.24,1.18,1.9,3.69,3.9,7.32,5.87,10.97.52.96.33,1.65-.56,2.32-1.65,1.26-3.27,2.55-4.79,3.95-.64.59-.98,1.5-1.45,2.26.13.11.27.21.4.32.89-.63,1.81-1.24,2.68-1.91,1.51-1.16,2.97-2.38,4.51-3.5.2-.15.97.05,1.1.29,2.04,3.73,4.04,7.49,5.99,11.27.15.29-.05.91-.29,1.24-.72.99-1.54,1.9-2.32,2.84-1.4,1.67-2.27,3.55-2.04,5.87h0Z"/>
      <path class="cls-2" d="M613.38,54.1c-2.06-2.98-3.82-5.92-5.97-8.54-1.5-1.82-3.4-3.39-5.36-4.73-3.3-2.25-4.44-5.44-4.64-9.15-.06-1.1,0-2.2-.38-3.35-.51,1.45-1.01,2.9-1.59,4.55-.95-1.41-1.81-2.6-2.58-3.85-3.13-5.06-7.36-9.02-12.27-12.31-1.49-1-2.99-1.99-4.54-2.89-1.83-1.06-1.93-1.56-.42-3.03,1.9-1.84,3.81-3.69,5.71-5.53.07-.07.12-.17.35-.51-3.79,1.14-6.24,3.56-8.74,7.2-1.29-1.6-2.34-2.96-3.46-4.28-3.59-4.22-8.02-7.37-12.81-10.1-2.71-1.54-3.78-5.34-2.43-8.55.39-.93.91-1.81,1.38-2.7.79-1.51,1.98-2.19,3.75-2.17,6.73.07,13.46.06,20.19,0,1.43-.02,2.31.52,3,1.67,4.08,6.85,8.15,13.71,12.27,20.53,2.83,4.68,5.8,9.28,8.62,13.97,3.32,5.51,6.54,11.08,9.78,16.63.2.35.3.81.3,1.21.02,5.06,0,10.11,0,15.17,0,.2-.08.4-.16.76h0Z"/>
      <path class="cls-2" d="M172.08,98.86c.19-1.08.36-2.03.53-2.98-.14-.09-.27-.19-.4-.28-.68.67-1.36,1.34-2.04,2.01-1.78,1.75-3.63,3.43-5.34,5.24-1.67,1.76-3.24,3.62-4.78,5.5-1.45,1.77-2.77,3.61-5.29,4.03-1.46.25-2.89.75-4.31,1.21-1.07.34-1.72.03-2.16-.99-1.5-3.41-3.05-6.79-4.52-10.21-.18-.42-.14-1.08.07-1.49.64-1.28,1.31-2.57,2.16-3.7.4-.52,1.22-.84,1.91-1.01,5.22-1.31,10.46-2.55,15.69-3.83,4.4-1.08,8.79-2.18,13.18-3.28,4.13-1.03,8.27-2.06,12.4-3.09,8.69-2.16,17.38-4.32,26.06-6.48,3.83-.95,7.65-1.9,11.47-2.88.98-.25,1.93-.6,2.88-.93,1.91-.66,2.73-.14,2.87,1.85.06.79.11,1.59.1,2.38-.01,1.91-.84,3.09-2.6,4.14-2.43,1.45-4.61,3.39-6.65,5.37-1.62,1.58-3.69,2.03-5.58,2.94-.38.18-.84.2-1.22.39-1.94.98-3.17.06-4.72-1.16-1.45-1.14-3.54-1.48-5.34-2.2-.78-.31-1.6-.61-2.28-1.09-.87-.61-1.53-1.03-2.45,0-1.3,1.46-2.71,2.84-4.14,4.18-3.22,3-6.51,5.92-9.71,8.92-2.17,2.04-5.32,1.77-7.63.14-1.86-1.32-4.38-1.73-6.61-2.51-.43-.15-.92-.12-1.55-.2h0Z"/>
      <path class="cls-2" d="M593.51,36.21c-8.7,1.24-8.47,1.91-12.92,7.4-.58-.46-1.34-.83-1.75-1.42-3.04-4.42-6.86-8.04-11.16-11.21-.51-.38-1.04-.75-1.6-1.04-3.51-1.82-4.45-3.66-3.59-7.51,1.13-5.11,5.87-9.69,11.72-8.03,2.44.69,4.72,2.35,6.77,3.95,2.41,1.87,4.64,4.02,6.67,6.3,2.74,3.07,4.65,6.68,5.78,10.67.08.29.05.61.08.91h0Z"/>
      <path class="cls-2" d="M598.99,68.59c-5.66-.02-9.77,2.63-12.72,7.57-1.38-1.78-2.6-3.34-3.8-4.92-2.94-3.87-6.38-7.18-10.47-9.87-.99-.65-2-2.02-2.12-3.14-.58-5.74,1.67-9.31,6.6-11.45,2.84-1.24,5.8-1.13,8.22,1.47,1.22,1.31,2.86,2.23,4.08,3.53,2.39,2.54,4.84,5.07,6.85,7.89,1.78,2.48,3.07,5.34,3.36,8.93Z"/>
      <path class="cls-2" d="M396.76,225.38c-1.07-.44-1.95-.69-2.71-1.13-3.57-2.08-7.33-1.84-11.13-.91-.95.23-1.81.87-2.72,1.29-1.82.85-1.93.77-2.12-1.15-.31-3.22-.57-6.45-1.01-9.65-.24-1.73-.77-3.42-1.24-5.1-.63-2.22.52-3.94,2.08-4.94,2.79-1.79,5.87-3.16,8.86-4.61.49-.24,1.3-.21,1.8.04,2.9,1.43,5.85,2.79,8.57,4.51,1.69,1.06,2.86,2.83,2.15,5.05-1.5,4.71-1.83,9.57-2.16,14.44-.04.62-.21,1.23-.39,2.15Z"/>
      <path class="cls-2" d="M427.56,166.07c-1.86-1.1-3.65-2.36-5.6-3.25-1.51-.69-3.22-.97-4.86-1.38-.67-.17-1.38-.29-2.06-.25-2.92.15-4.07-1.47-4.72-4.08-1.18-4.68-.92-9.13,1.32-13.45,2.12-4.09,5.43-5.31,9.68-3.53,1.12.47,2.35.66,3.48,1.1,3.81,1.49,6.47,4.37,8.85,7.51.43.56.52,2.01.11,2.47-3.49,3.91-4.67,8.71-5.59,13.64-.07.36-.23.7-.37,1.05-.04.08-.15.13-.23.19h0Z"/>
      <path class="cls-2" d="M441.94,196.8c-2.19-1.35-4.14-2.62-6.15-3.78-1.99-1.15-4.09-1.98-6.46-2.09-1.8-.09-2.93-1.23-3.14-3.02-.37-3.14-1.02-6.31-.9-9.44.12-3.15.94-6.28,3.22-8.81,1.87-2.08,3.94-1.67,6.48-.77,1.98.7,4.02,1.61,5.61,2.94,2.33,1.95,4.36,4.28,6.35,6.61,1,1.16.68,2.81-.11,3.92-2.68,3.75-3.01,8.23-4.26,12.43-.18.6-.38,1.2-.64,2.02h0Z"/>
      <path class="cls-2" d="M92.04,146.31c-1.54-.93-3.02-1.66-4.31-2.65-2.14-1.64-4.55-1.94-7.1-1.84-2.07.08-2.71-.8-2.39-2.83.68-4.27,2.28-8.24,4.65-11.76,1.86-2.77,4.34-5.18,6.77-7.5,1.84-1.75,4.23-1.47,6.51-.72,3.39,1.11,5.66,3.43,7.04,6.64.77,1.78.54,3.27-1,4.72-4.48,4.18-7.22,9.52-9.68,15.03-.11.24-.24.46-.49.93h0Z"/>
      <path class="cls-2" d="M492.98,185.74c-2.24-2.15-4.21-4.32-6.47-6.11-1.93-1.53-4.23-2.58-6.3-3.95-.74-.49-1.61-1.21-1.82-1.99-.78-3-1.04-6.08-.19-9.13.19-.68.55-1.48,1.08-1.87,3.09-2.21,6.25-4.24,10.37-3.79,1.7.19,3,.79,4.16,2.04,2.77,2.97,5.23,6.13,6.64,9.99.76,2.05.26,3.56-1.68,4.53-1.62.8-2.38,2.22-3.04,3.71-.8,1.79-1.44,3.64-2.16,5.46-.15.38-.39.73-.6,1.12h0Z"/>
      <path class="cls-2" d="M592.24,114.11c-.59-1.49-1.06-2.66-1.53-3.83.09-.14.18-.28.27-.42.9.42,1.96.65,2.67,1.28,3.97,3.48,7.63,7.29,9.91,12.1,1.12,2.37,1.61,5.03,2.37,7.56.27.9.03,1.42-1.03,1.46-4.34.13-7.58,2.09-9.77,5.82-.23.39-.59.71-1.11,1.34-.9-1.37-1.71-2.52-2.43-3.72-2.54-4.22-5.71-7.83-9.62-10.88-2.95-2.29-2.27-5.64,1.17-6.98,3.01-1.17,5.98-2.45,9.11-3.74Z"/>
      <path class="cls-2" d="M333.24,197.23c-.51-1.72-1.07-3.19-1.38-4.72-.68-3.4-1.64-6.66-3.46-9.67-1-1.65-.94-3.44.45-5.03,2.65-3.04,5.22-6.21,9.29-7.44.74-.23,1.86-.12,2.46.31,1.18.86,2.34,1.9,3.11,3.12,1.92,3.04,3.74,6.16,5.38,9.36,1.15,2.23.15,4.53-.7,6.59-.32.78-1.74,1.45-2.72,1.56-3.63.4-6.63,2.02-9.49,4.12-.84.62-1.79,1.09-2.95,1.78Z"/>
      <path class="cls-2" d="M603.18,99.73c-1.85.38-3.53.44-4.92,1.09-1.89.88-3.63,2.13-5.3,3.39-.79.6-1.48.68-2.14.17-1.12-.86-2.31-1.74-3.15-2.85-3.72-4.92-6.37-10.4-7.92-16.36-.57-2.18-.89-4.37,1.69-5.8,2.34-1.29,5.38-1.28,7.56.22,5.51,3.79,9.77,8.63,12.42,14.78.74,1.71,1.18,3.55,1.77,5.35Z"/>
      <path class="cls-2" d="M601.24,64.75c-2.98-3.86-5.55-7.87-8.8-11.2-3.25-3.33-7.19-5.99-10.91-9.01,2.22-2.79,4.84-5.32,8.78-5.71,3.66-.36,6.92.74,10.05,2.77,3.49,2.27,6,5.36,8.49,8.53.85,1.09,1.65,2.21,2.45,3.33.66.92.39,1.43-.72,1.63-2.9.51-5.37,1.81-7.02,4.29-.78,1.17-1.28,2.54-1.85,3.83-.23.51-.32,1.08-.46,1.54Z"/>
      <path class="cls-2" d="M568.76,10.94c-5.85,1.88-9.24,5.6-10.23,11.49-1.94-2.31-3.63-4.52-5.53-6.53-1.71-1.8-3.44-3.78-5.56-4.96-3.24-1.82-4.87-4.59-6.15-7.79-.14-.35-.23-.72-.41-1.03-1.33-2.31-1.5-2.82,1.51-3.94,4.6-1.71,9.3-1.38,13.61,1,5.09,2.8,8.92,7.06,12.75,11.77h0Z"/>
      <path class="cls-2" d="M146.23,312.81c1.64.77,3.41,1.36,4.93,2.36,3.18,2.09,5.44,4.94,5.8,8.86.09.93-.3,2.02-.76,2.88-1.97,3.63-4.07,7.19-6.09,10.8-.62,1.11-1.31,1.35-2.21.37-2.39-2.61-5.39-3.83-8.88-4.14-1.6-.14-2.18-1.58-2.22-2.91-.14-4.81.65-9.44,3.48-13.47.89-1.28,1.99-2.44,3.17-3.46.67-.58,1.67-.79,2.79-1.28Z"/>
      <path class="cls-2" d="M143.54,310.2c-2.03-1.46-3.88-2.96-5.9-4.19-1-.61-2.28-.82-3.47-1.02-1.78-.3-2.95-1.28-3.07-3.07-.21-3.21-.07-6.42,1.47-9.33,1.25-2.37,2.56-4.74,4.14-6.89,1.73-2.34,4.9-2.39,7.43-.8,4.04,2.53,5.22,6.65,6.49,10.77.07.24.09.56-.01.77-2.23,4.46-4.49,8.92-6.74,13.37-.07.14-.2.24-.32.38h0Z"/>
      <path class="cls-2" d="M608.17,130.47c-.9-2.02-1.58-3.55-2.26-5.08-2.87-6.46-7.21-11.69-13.05-15.72-.49-.34-.97-1.46-.76-1.89,1.29-2.64,6.1-6.98,9.77-6.31.95.17,1.94.52,2.73,1.06,2.18,1.5,4.27,3.14,6.4,4.73,1.82,1.35,2.94,3,2.6,5.42-.13.94-.14,1.93,0,2.87.47,3.2-.52,5.72-2.8,8.07-1.09,1.12-1.39,3.04-2.01,4.61-.22.58-.33,1.2-.61,2.25h0Z"/>
      <path class="cls-2" d="M431.8,314.71c0,3.03-.04,6.05.02,9.08.03,1.49-.68,1.72-1.91,1.34-2.68-.82-5.38-1.58-8.04-2.47-.61-.2-1.29-.69-1.59-1.23-3.1-5.65-5.01-11.6-4.2-18.15.34-2.75,1.64-3.83,4.32-3.22,3.09.7,5.83,2.17,7.92,4.65.55.65,1.17,1.24,1.78,1.82,2.41,2.31,2.26,5.23,1.71,8.18h0Z"/>
      <path class="cls-2" d="M604.84,97.91c-1.38-2.8-2.52-5.42-3.92-7.9-2.02-3.57-4.63-6.7-7.74-9.4-.91-.79-1.91-1.53-2.66-2.47-.34-.43-.47-1.47-.18-1.9,3.67-5.4,9.54-5.79,14.3-2.47,3.36,2.35,6.12,5.16,8.23,8.52.81,1.28.43,3.32.52,5.01,0,.17-.45.43-.73.55-3.94,1.66-6.14,4.73-7.21,8.73-.1.39-.34.74-.61,1.31Z"/>
      <path class="cls-2" d="M580.91,149.24c-1.78-2.87-3.35-5.56-5.08-8.16-2.47-3.72-5.69-6.71-9.58-8.92-1.18-.67-1.28-1.19-.55-2.34,1.49-2.3,3.3-4.34,5.88-5.14,1.77-.55,3.97-.62,5.75-.12,3.26.92,5.95,3.04,8.21,5.56,1.85,2.06,3.25,4.44,4.14,7.09.25.74.37,1.44-.65,1.79-3.87,1.32-5.84,4.38-7.21,7.96-.28.73-.58,1.45-.91,2.28h0Z"/>
      <path class="cls-2" d="M452.21,178.3c.44-1.74.8-3.5,1.35-5.2.19-.58.75-1.24,1.31-1.48,3.95-1.69,7.93-3.35,11.96-4.85.66-.25,1.95.03,2.39.54,1.62,1.87,3.13,3.87,4.45,5.97.94,1.49.51,3.41-.96,4.22-2.45,1.35-2.87,3.79-3.7,6.03-.46,1.24-.8,2.53-1.16,3.81-.3,1.03-.91,1.2-1.81.75-1.19-.59-2.41-1.13-3.58-1.75-2.84-1.52-5.63-3.15-8.5-4.61-1.51-.77-1.59-1.97-1.74-3.42h0Z"/>
      <path class="cls-2" d="M49.02,262.34c-2.62-2.68-5.22-4.84-8.8-5.34-.21-.03-.42-.09-.63-.12-2.95-.41-2.96-.41-2.37-3.4,1.06-5.43,3.51-10.23,7.01-14.47,1.31-1.58,2.84-3.05,5.14-3.18,1.09-.06,1.75.26,2.09,1.44,1.28,4.37,3.04,8.59,2.75,13.34-.28,4.54-2.26,8.18-5.19,11.73h0Z"/>
      <path class="cls-2" d="M529.13,169.68c-1.41-2.05-2.49-3.87-3.82-5.48-1.61-1.95-3.32-3.85-5.21-5.52-1.49-1.31-3.29-2.28-4.97-3.36-1.58-1.01-1.96-2.1-1.32-3.93,2.4-6.87,10.48-8.5,15.69-3.84,2.41,2.15,4.51,4.45,6.36,7.05.59.83.77,1.55-.03,2.4-1.08,1.16-2.09,2.4-3.05,3.66-1.41,1.85-2.25,3.94-2.66,6.24-.15.85-.57,1.65-.97,2.78h0Z"/>
      <path class="cls-2" d="M282.08,184.73c-.35-.89-.65-1.82-1.07-2.7-1.08-2.23-2.17-4.46-3.36-6.64-.25-.45-.91-.69-1.4-.99-1.65-.99-2.42-2.62-1.57-4.32,1.35-2.68,2.97-5.23,4.49-7.83.1-.17.29-.37.47-.41,2.64-.51,5.26-1.55,8-.64.52.17,1.1.57,1.37,1.02,2.16,3.54,4.23,7.13,6.37,10.68.65,1.08.26,1.35-.76,1.96-2.62,1.56-5.15,3.32-7.56,5.19-1.73,1.34-3.22,3-4.98,4.67h0Z"/>
      <path class="cls-2" d="M525.66,217.68c-2.4-2.27-4.55-4.3-6.69-6.33-.73-.69-1.36-1.52-2.17-2.09-3-2.09-3.3-5-2.61-8.19.22-1.03.6-2.05,1.08-2.99.26-.52.8-1.06,1.33-1.24,3.07-1.03,6.19-1.93,9.27-2.93,1.33-.43,1.99-.06,2.85,1.13,1.98,2.76,3.3,5.78,4.39,8.95.87,2.52.48,3.6-1.86,4.99-2.11,1.26-3.16,3.38-4.23,5.45-.48.93-.8,1.94-1.34,3.26Z"/>
      <path class="cls-2" d="M354.8,205.75c.06,3.99-.58,4.57-4.13,4.76-1.12.06-2.3.38-3.29.89-2.81,1.46-5.54,3.09-8.31,4.63-.24.13-.78.17-.85.06-.2-.32-.29-.75-.29-1.13-.09-3.01.02-6.04-.27-9.02-.17-1.7-.98-3.34-1.52-4.99-.48-1.46-.07-2.72,1.24-3.54,1.72-1.06,3.36-2.28,5.2-3.08,4.87-2.13,7.96-1.03,10.22,3.62,1.26,2.6,2.17,5.32,2.02,7.8Z"/>
      <path class="cls-2" d="M446.62,254.99c-.13,2.86-.24,5.73-.39,8.59-.03.58-.15,1.16-.3,1.72-.46,1.82-1.16,2.33-2.95,1.72-2.25-.77-4.44-1.75-6.61-2.73-.48-.21-.94-.76-1.13-1.25-2.14-5.45-3.11-11.03-1.62-16.81.31-1.21.74-2.53,1.52-3.45.57-.67,2.03-1.28,2.72-1.01,2.43.98,4.94,2.06,6.95,3.68,1.08.87,1.42,2.89,1.69,4.46.28,1.65.06,3.39.06,5.09h.05Z"/>
      <path class="cls-2" d="M179.21,232.53c-3.31-2.34-6.48-4.45-9.46-6.8-.68-.54-1.03-1.93-.95-2.88.45-5.35,2.05-10.29,5.87-14.3.76-.8,1.53-1.59,2.29-2.38.97-1.01,1.92-.76,2.47.32,1.17,2.31,2.37,4.65,3.19,7.09.95,2.81,1.52,5.75,2.24,8.64.36,1.44-.02,2.6-1,3.8-1.61,1.95-2.96,4.12-4.64,6.52h0Z"/>
      <path class="cls-2" d="M448.42,163.73c-.42,2.66-.76,5.29-1.29,7.89-.35,1.69-1.18,1.97-2.61,1.05-1.78-1.15-3.42-2.58-5.32-3.47-1.9-.88-4.01-1.51-6.08-1.77-2.77-.35-3.83-1.42-3.52-4.54.47-4.72,2.93-8.25,7.18-10.38,1.03-.52,2.47-.82,3.54-.54,2.08.55,4.06,1.5,5.99,2.46.5.25.87,1.09.98,1.72.45,2.5.77,5.03,1.14,7.58h0Z"/>
      <path class="cls-2" d="M137.86,281.34c-2.53-2.86-5.25-4.71-8.6-5.49-.62-.14-1.32-.14-1.84-.45-1.15-.67-1.9-1.64-1.9-3.09-.02-4.29,1-8.3,3.22-11.97.84-1.39,1.83-2.71,2.81-4,1.48-1.95,3.18-1.83,4.52.18,3.37,5.04,4.49,10.83,5.51,16.63.11.61-.21,1.36-.51,1.96-.97,1.98-2.02,3.93-3.22,6.24h0Z"/>
      <path class="cls-2" d="M472.58,332.24c-1.72-1.17-3.15-2.38-4.78-3.19-3.56-1.76-5.29-4.55-6-8.39-.8-4.33-1.45-8.57-.24-12.92.82-2.98,2.34-3.67,5.06-2.13,3.44,1.93,5.35,5.13,7.27,8.4,1.7,2.9,1.91,5.76.92,8.95-.81,2.62-1.14,5.39-1.7,8.08-.06.3-.24.57-.53,1.2h0Z"/>
      <path class="cls-2" d="M535.65,316.38c-1.31-1.76-2.34-3.08-3.31-4.45-1.32-1.86-2.59-3.75-3.86-5.64-.17-.25-.3-.58-.32-.89-.36-5.29.13-10.41,3.26-14.95,1.78-2.58,3.39-2.77,5.42-.37,2.54,3,4.14,6.51,4.91,10.38.16.78.26,1.57.45,2.34.4,1.65.48,3.26-.52,4.74-1.92,2.83-3.86,5.65-6.03,8.82h0Z"/>
      <path class="cls-2" d="M329.38,311.91c0-2.51.14-4.73-.04-6.93-.16-1.87-.55-3.74-1.11-5.53-.51-1.64-.49-3.15.3-4.62,1.49-2.74,3.19-5.17,6.92-4.73,1.37.16,2.78,0,4.15.11,3.35.26,5.04,2.22,4.39,5.44-.68,3.41-1.64,6.78-2.63,10.12-.43,1.45-1.42,2.42-3.1,2.87-2.19.59-4.25,1.65-6.38,2.47-.72.28-1.48.47-2.52.8h0Z"/>
      <path class="cls-2" d="M123.04,272.26c-.54-.76-.98-1.29-1.32-1.88-1.97-3.38-4.88-5.54-8.68-6.44-1.35-.32-1.86-.93-1.29-2.22,1.4-3.18,2.5-6.55,4.32-9.48,2.65-4.28,8.01-5.07,12.16-2.17,1.2.83,2.26,1.86,3.32,2.86.67.63.4,1.25-.13,1.94-1.5,1.98-3.2,3.9-4.27,6.1-1.4,2.87-2.29,5.99-3.39,9.02-.25.68-.44,1.39-.72,2.27h0Z"/>
      <path class="cls-2" d="M256.13,185.37c-1.27-2.49-2.28-4.9-3.69-7.04-.89-1.36-2.27-2.51-3.65-3.41-1.6-1.05-2.23-2.52-.94-3.93,1.05-1.15,2.32-2.33,3.73-2.88,3.21-1.23,6.53-2.33,9.9-2.98,2.35-.45,4.87-.15,7.3.02.53.04,1.4.98,1.4,1.51.02,1.73-.17,3.49-.54,5.19-.14.64-.9,1.35-1.55,1.66-3.82,1.81-6.52,4.88-9.22,7.95-1,1.14-1.76,2.49-2.75,3.91Z"/>
      <path class="cls-2" d="M347.44,166.35c-.34-1.34-.64-2.5-.94-3.67-.42-1.65-.92-3.28-1.22-4.94-.27-1.49-.49-3.03-.42-4.54.07-1.5,1.28-2.36,2.64-2.62,4.64-.9,9.29-1.77,13.96-2.47,2.35-.35,4.19,1.36,3.98,3.65-.23,2.41-.75,4.79-1.28,7.16-.31,1.39-1.31,2.02-2.8,2.14-2.06.16-4.23.23-6.13.93-2.36.87-4.48,2.35-6.7,3.59-.31.17-.58.42-1.08.79h0Z"/>
      <path class="cls-2" d="M118.01,242.46c-.83-1.01-1.45-1.73-2.02-2.47-1.83-2.33-3.93-4.29-6.91-5.05-1.86-.47-2.58-1.92-1.71-3.62,1.44-2.83,2.88-5.66,4.44-8.42,1.68-2.97,4.96-4.31,8.41-3.77,2.22.34,4.25.76,4.62,3.47.04.31.2.66.11.93-.83,2.54-1.62,5.1-2.57,7.61-1.07,2.87-2.29,5.68-3.42,8.53-.31.78-.54,1.59-.94,2.79h0Z"/>
      <path class="cls-2" d="M245.22,50.67c2.14-3.12,3.46-6.53,6.25-8.96.36-.31.71-.64,1.04-.98,2.11-2.17,3.39-2.35,5.76-.39,3.64,3.01,6.21,6.79,7.72,11.28.4,1.2-.03,2-.92,2.78-2.18,1.91-4.33,3.86-6.44,5.85-.67.63-1.12.82-1.51-.19-1.11-2.84-3.02-5.12-5.49-6.81-1.28-.88-2.93-1.22-4.41-1.8-.58-.23-1.16-.45-2-.78Z"/>
      <path class="cls-2" d="M550.86,146.8c-5.53,1.2-8.49,4.72-10.54,9.46-2.09-2.43-3.85-4.68-5.83-6.71-1.65-1.68-3.52-3.16-5.38-4.62-1.01-.8-.92-1.47-.09-2.21.67-.6,1.39-1.18,2.15-1.65,3.53-2.18,7.06-4.45,11.36-4.75,2.32-.16,4.35.45,5.31,2.91.95,2.44,1.94,4.86,3.02,7.56h0Z"/>
      <path class="cls-2" d="M200.62,286.7c-.54-.42-1.08-.85-1.62-1.27-.31-.48-.51-1.15-.95-1.4-3.88-2.24-3.97-5.71-3.17-9.46.75-3.5,2.11-6.77,4.11-9.75.38-.56,1.31-1.35,1.65-1.21.76.31,1.56,1.02,1.91,1.77,1.01,2.17,1.99,4.37,2.61,6.67.62,2.28,2.07,3.12,4.17,3.4,1.67.22,2.08.76,1.38,2.33-.74,1.62-1.71,3.15-2.68,4.65-1.41,2.17-2.91,4.29-4.42,6.48-1-.74-2-1.47-2.99-2.2h0Z"/>
      <path class="cls-2" d="M244.46,46.58c-.54-5.98-3.75-10.01-9.68-12.52,3.19-2.89,5.9-5.4,8.68-7.83.99-.86,2.11-1.61,3.29-2.19.49-.25,1.53-.18,1.88.17,3.04,3.05,5.63,6.42,6.23,10.84.08.62-.33,1.53-.83,1.96-2.87,2.52-5.77,4.99-7.91,8.2-.35.53-.68,1.06-1.02,1.59-.21-.08-.42-.16-.63-.24h0Z"/>
      <path class="cls-2" d="M536.61,349.3c-.82-1.32-1.38-2.2-1.92-3.1-.87-1.46-1.6-3.02-2.61-4.37-2.3-3.08-1.8-6.52-1.14-9.82.59-2.93,1.69-5.78,2.79-8.57.94-2.38,2.78-2.6,4.39-.63,2.81,3.46,3.72,7.65,4.61,11.89.61,2.92-.17,5.26-1.81,7.6-1.48,2.11-2.72,4.39-4.32,7h0Z"/>
      <path class="cls-2" d="M407.32,158.04c-.78-.35-1.33-.46-1.71-.79-4.31-3.69-9.44-4.31-14.83-4.04-2.22.11-2.31.33-2.13-2.03.08-1.16.04-2.34.04-3.51,0-2.51,1.05-4.25,3.52-4.74,4.38-.86,8.82-1.53,13.26-2.05,2.39-.28,3.33,1.42,2.49,3.64-1.22,3.18-1.35,6.52-1,9.88.11,1.1.23,2.2.38,3.62h0Z"/>
      <path class="cls-2" d="M415.16,318.04c-1.62-.82-3.09-1.62-4.61-2.32-2.18-1-4.43-1.39-6.85-.87-.57.12-1.75-.38-1.89-.83-1.3-4.08-2.15-8.2-.96-12.51.58-2.09,2.25-3.01,3.87-3.99.45-.27,1.28-.12,1.85.07,1.71.57,3.37,1.3,5.07,1.9,1.34.47,1.98,1.51,2.12,2.76.58,5.06,1.07,10.13,1.58,15.19.01.14-.09.3-.19.6h0Z"/>
      <path class="cls-2" d="M576.08,43.08c-1.47.7-2.7,1.2-3.84,1.85-1.83,1.04-3.31,2.49-4.34,4.32-.49.88-1.05.83-1.65.28-.94-.85-1.93-1.68-2.68-2.69-3.56-4.72-6.87-9.61-8.47-15.39-.57-2.06-.07-2.59,2.07-2.46,5.02.3,8.9,2.85,12.31,6.27,1.57,1.57,3.06,3.21,4.52,4.89.75.86,1.34,1.87,2.09,2.93h0Z"/>
      <path class="cls-2" d="M359.79,317.99c.12-1.22.23-2.26.32-3.3.34-3.64.69-7.29,1.02-10.93.27-2.98.88-3.75,3.66-4.66.91-.3,1.81-.63,2.7-1,2.91-1.2,5.86.3,6.74,3.34,1.21,4.23.39,8.32-.79,12.38-.14.5-1.24,1.16-1.75,1.05-3.86-.82-7.12.52-10.25,2.51-.27.17-.55.33-.84.47-.14.06-.3.06-.82.15h0Z"/>
      <path class="cls-2" d="M148.25,123.76c1.39,3.53,2.61,6.58,3.8,9.64,1.1,2.82,2.12,5.68,3.24,8.49.36.89.36,1.54-.29,2.32-1.21,1.47-2.29,3.04-3.78,5.04-.63-.86-1.07-1.52-1.57-2.14-1.65-2.04-3.76-3.21-6.41-3.44-.83-.07-1.72-.3-2.42-.72-.93-.55-1.54-1.37-1.31-2.65.77-4.42,2.34-8.49,5.05-12.08,1.07-1.42,2.26-2.75,3.68-4.46Z"/>
      <path class="cls-2" d="M431.64,279.82c.66-3.48,1.22-6.99,2.04-10.44.17-.73,1.17-1.54,1.96-1.79,2.71-.87,6.87.54,8.46,2.87.53.78.75,1.9.77,2.87.1,3.77.07,7.54.06,11.31,0,.57-.17,1.16-.35,1.71-.35,1.07-1.18,1.47-2.13.93-2.71-1.53-5.55-2.6-8.62-3.22-1.65-.33-1.95-1.31-2.19-4.24h0Z"/>
      <path class="cls-2" d="M192.68,276.77c-.69-1.5-1.24-2.69-1.78-3.88-1.19-2.66-2.89-4.85-5.32-6.59-.69-.49-1.22-2.17-.91-2.93,1.32-3.15,2.61-6.44,4.62-9.15,2.32-3.12,8.32-1.52,9.56,2.24.28.86.5,1.74.76,2.6.65,2.21-.1,3.78-1.59,5.58-1.68,2.03-2.66,4.66-3.77,7.11-.67,1.48-.99,3.11-1.57,5.01h0Z"/>
      <path class="cls-2" d="M445.4,332.13c-1.02-.51-1.78-.72-2.31-1.2-2.14-1.92-4.76-2.79-7.46-3.4-1.5-.35-2.24-1.22-2.46-2.55-.63-3.89-1-7.8.16-11.67.43-1.45,2.16-2.55,3.75-2.38,3.67.4,8.2,4,7.95,8.49-.2,3.47.3,6.99.46,10.49.03.61-.05,1.23-.1,2.22h0Z"/>
      <path class="cls-2" d="M34.34,201.95c1.69.46,2.97.67,4.13,1.16,1.45.61,1.77,2.15,1.57,3.38-.28,1.77-1.03,3.5-1.74,5.18-1.28,3.03-2.7,6-4.01,9.01-.86,1.98-1.3,2.1-2.92.64-1.92-1.73-3.95-3.35-5.72-5.22-.66-.7-1.16-2.06-.97-2.96.74-3.53,2.36-6.76,5.09-9.13,1.27-1.1,3.19-1.47,4.57-2.06h0Z"/>
      <path class="cls-2" d="M213.84,302.21c-.8-1.18-1.46-2.26-2.24-3.25-1.38-1.73-2.82-3.4-4.26-5.07-1.12-1.31-1.48-2.79-1.09-4.45.82-3.55,2.27-6.75,5.32-8.96,2.05-1.49,4.23-1.09,5.71.95,1.37,1.88,2.81,3.72,4.04,5.69.34.54.33,1.85-.06,2.2-3.79,3.38-6.11,7.54-7.09,12.47-.02.09-.12.17-.32.43h0Z"/>
      <path class="cls-2" d="M515,107.24c-.53-.7-1.09-1.39-1.59-2.11-4.36-6.23-5.62-13.25-5.14-20.67.07-1.11.58-2.19.88-3.29,1.1.44,2.31.69,3.27,1.34,2.42,1.62,4.78,3.33,7.04,5.16,1.1.89,1.94,2.09,2.86,3.19.69.82,0,1.2-.58,1.61-3.31,2.36-5.44,5.53-6.12,9.52-.28,1.65-.05,3.38-.05,5.07-.19.06-.38.12-.58.18Z"/>
      <path class="cls-2" d="M113.67,213.19c-2.5-3.78-6.28-5.32-9.48-7.62-1.55-1.11-1.93-2.19-1.38-3.98,1.33-4.32,3.74-7.93,7.18-10.85,1.25-1.06,2.05-.9,2.98.53,1.7,2.62,2.23,5.6,2.73,8.6.55,3.32.34,6.54-1.06,9.67-.44,1-.58,2.13-.98,3.65h0Z"/>
      <path class="cls-2" d="M284.42,303.95c-.28-.95-.58-1.79-.76-2.65-.65-3.22-1.19-6.46-1.91-9.67-.62-2.75.32-5.02,2.01-7.03.43-.51,1.4-.83,2.09-.8,2.44.11,4.88.4,7.31.67.38.04.95.27,1.06.56,1.22,3.07,2.28,6.2.8,9.49-.2.44-.66.86-1.1,1.07-3.56,1.67-6.32,4.21-8.4,7.52-.14.22-.33.41-.52.6-.07.07-.19.08-.59.25Z"/>
      <path class="cls-2" d="M525.63,299.03c-1.33-2.3-2.39-4.37-3.67-6.3-.84-1.26-2.04-2.29-2.98-3.49-.4-.51-.68-1.18-.77-1.82-.19-1.42-.14-2.87-.32-4.29-.3-2.28.57-4.18,1.8-5.96,1.38-2,4.37-2.04,6.48-.08,2.36,2.2,3.72,5.05,4.62,8.06.24.82-.31,1.95-.67,2.86-1.42,3.59-2.9,7.14-4.49,11.02h0Z"/>
      <path class="cls-2" d="M327.24,175.59c-.12-2.27-.03-4.95-.47-7.54-.38-2.21-1.09-4.48-2.18-6.44-1.41-2.53-.38-4.23,1.74-5.57.94-.6,1.95-1.11,3-1.49.51-.18,1.37-.17,1.72.15,3.46,3.07,6.41,6.53,7.66,11.11.39,1.44.05,2.34-1.56,3.24-3.5,1.93-6.71,4.39-9.9,6.54h0Z"/>
      <path class="cls-2" d="M487.36,324.52c-1.91-1.52-3.65-2.88-5.37-4.26-.53-.43-1.1-.82-1.55-1.32-.87-.96-2.08-1.87-2.42-3.01-.72-2.43-.98-4.99-1.43-7.5-.22-1.24.19-2.15,1.49-2.34,1.35-.2,2.75-.43,4.09-.28,2.79.32,5.55.75,7.7,2.95,1.38,1.41,1.78,2.21,1.18,4.07-1.21,3.79-2.4,7.57-3.69,11.69Z"/>
      <path class="cls-2" d="M493.36,331.85c-.17-.16-.34-.33-.51-.49-.87-.93-1.84-1.78-2.57-2.8-.55-.77-1.2-1.77-1.14-2.63.17-2.68.53-5.37,1.04-8.01.3-1.56.99-3.09,2.88-3.45,1.95-.37,3.64.09,4.73,1.85,1.11,1.8,2.52,3.55,3.06,5.53.48,1.74.11,3.77-.17,5.63-.4,2.72-1.06,5.41-1.62,8.1-.04.19-.2.35-.49.86-1.8-1.6-3.5-3.1-5.2-4.61h-.01Z"/>
      <path class="cls-2" d="M30.38,198.63c-1.21-2.1-2.15-4.13-3.47-5.88-1.1-1.45-2.57-2.64-4.01-3.78-1.57-1.25-2.18-2.3-1.48-4.08,1.05-2.65,2.21-5.28,3.55-7.79,1.19-2.21,3.74-3.12,6.19-2.4.55.16,1.19.73,1.39,1.26.71,1.89,1.28,3.82,1.82,5.76.14.52.19,1.22-.05,1.67-2.01,3.82-3.05,7.89-3.46,12.15-.1.99-.31,1.98-.49,3.09h0Z"/>
      <path class="cls-2" d="M544.02,331.04c-.28-.49-.56-1.03-.88-1.53-1.57-2.44-3.07-4.93-4.77-7.29-1.41-1.95-1.87-3.96-.84-6.11.93-1.94,1.97-3.88,3.24-5.61,1.43-1.93,3.63-1.86,5.17,0,1.99,2.42,3.3,5.19,3.9,8.26.12.59.08,1.33-.17,1.86-1.67,3.43-3.42,6.82-5.16,10.21-.03.07-.18.08-.49.2h0Z"/>
      <path class="cls-2" d="M513,333.23c-.58-.98-1.04-1.68-1.41-2.41-1.32-2.58-3.05-4.82-5.38-6.57-1.53-1.15-2.08-2.65-1.64-4.49.46-1.91.8-3.88,1.55-5.67.55-1.3,1.55-2.49,2.61-3.45.48-.43,1.84-.55,2.36-.18,2.58,1.84,4.56,3.99,5.1,7.46.77,4.86-1.13,9.08-2.35,13.5-.15.54-.47,1.03-.84,1.82Z"/>
      <path class="cls-2" d="M591.72,340.64c-.16-.97-.36-1.78-.43-2.59-.27-3.31-1.4-6.29-3.45-8.9-.94-1.2-1.01-2.47-.23-3.71,1.17-1.85,2.51-3.57,4.64-4.46.48-.2.9-.55,1.35-.83,1.16-.71,2.22-.71,3.36.18,2.74,2.16,3.55,5.23,3.98,8.4.29,2.13-1.4,3.61-2.59,5.11-1.78,2.23-3.8,4.26-5.74,6.35-.16.17-.44.23-.88.45h0Z"/>
      <path class="cls-2" d="M528.28,330.93c-1.42-2.27-2.83-4.56-4.28-6.81-.37-.57-.85-1.08-1.34-1.56-1.96-1.91-2.46-4.16-1.55-6.7.59-1.64,1.12-3.33,1.99-4.82,1.68-2.87,5.39-2.84,6.94.08,1.21,2.27,2.1,4.7,3.09,7.08.15.36.2.88.07,1.24-1.45,3.9-2.94,7.78-4.42,11.67-.17-.06-.33-.12-.5-.18h0Z"/>
      <path class="cls-2" d="M484.65,343.34c-2.32-2.32-4.53-4.55-6.78-6.76-.32-.32-.78-.59-1.22-.67-1.77-.33-2.18-1.47-2.01-3.04.33-3.05.6-6.12.99-9.17.28-2.19,2.7-3.43,4.72-2.51,3.46,1.57,5.96,5.73,5.64,9.47-.31,3.7-.69,7.39-1.06,11.09-.06.61-.21,1.22-.28,1.6h0Z"/>
      <path class="cls-2" d="M435.44,235.74c.08-2.96.49-5.8,2.17-8.37,1.43-2.2,4.36-3.5,6.92-2.95,1.21.26,2.02.95,2.2,2.21.66,4.57.29,9.11-.41,13.63-.22,1.42-1.81,2.09-3.27,1.73-1.85-.46-3.7-.9-5.58-1.24-1.03-.19-1.69-.63-1.8-1.68-.11-1.1-.16-2.21-.23-3.32h0Z"/>
      <path class="cls-2" d="M118.78,46.98c.8,1.98,1.47,3.58,2.1,5.19,1.64,4.26,3.27,8.52,4.89,12.79.55,1.44.41,1.82-1.54,4.11-3.65-4.28-8.25-6.11-14.08-4.68,1.01-6.84,3.8-12.39,8.63-17.4h0Z"/>
      <path class="cls-2" d="M319.73,157.34c-.11-.62-.23-1.17-.28-1.73-.31-3.6-1.72-6.76-3.99-9.53-.59-.72-1.56-1.12-2.19-1.82-.39-.44-.8-1.35-.6-1.73,1.04-1.94,2.09-3.93,3.5-5.61,1.03-1.22,2.5-.1,3.7.29.62.2,1.28.7,1.61,1.26,1.89,3.11,3.99,6.15,5.44,9.47,1.51,3.46,1.16,3.75-1.95,5.83-1.67,1.11-3.32,2.25-5.24,3.55h0Z"/>
      <path class="cls-2" d="M165.57,190.18c-2.33-4.46-4.8-8.57-10.17-9.91,1.76-5.22,4.09-9.79,8.63-13.38,2.16,3.84,3.92,7.6,4.84,11.68,1,4.39-2.3,7.64-3.3,11.6Z"/>
      <path class="cls-2" d="M575.96,336.17c-.66-1.67-1.2-2.82-1.58-4.02-1.1-3.39-3.46-6.43-2.98-10.25.13-1.03.54-2.08,1.01-3.02.35-.69.94-1.32,1.57-1.78.68-.49,1.51-.8,2.31-1.08.38-.13.84.03,1.27.02,2.46-.08,4.01,1.01,4.65,3.42.26.97.66,1.9,1,2.85.77,2.22.9,4.14-1.05,6.09-2.21,2.22-3.96,4.91-6.19,7.76h0Z"/>
      <path class="cls-2" d="M459,319.96c-2.29-1.56-4.2-2.95-6.21-4.2-1.51-.95-3.21-1.59-4.65-2.61-.62-.44-1.03-1.5-1.09-2.31-.16-1.9,0-3.82-.06-5.73-.04-1.25.58-1.98,1.71-2.08,2.22-.2,4.47-.46,6.68-.29,2.86.22,4.42,2.17,4.3,5.02-.16,3.92-.43,7.83-.68,12.22Z"/>
      <path class="cls-2" d="M249.66,299.15c-1.04-2.35-1.95-4.29-2.77-6.28-.82-2.01-1.58-4.05-2.33-6.09-.97-2.65,1.34-6.55,4.12-6.69,3.23-.17,6.36.21,9,2.45,1.91,1.63,1.95,3.59.05,5.19-3,2.53-5.42,5.52-7,9.15-.28.65-.61,1.28-1.08,2.27h0Z"/>
      <path class="cls-2" d="M367.86,158.21c.07-1.08.09-1.75.16-2.42.14-1.32.4-2.63.43-3.95.08-2.92,2-5.47,4.89-5.86,3.84-.52,7.72-.8,11.58-1.15,1.32-.12,1.74.53,1.64,1.84-.12,1.57-.09,3.18.07,4.75.15,1.47-.27,1.97-1.81,1.85-4.24-.31-8.44-.12-12.29,1.99-.78.43-1.51.96-2.27,1.43-.7.44-1.4.87-2.41,1.51Z"/>
      <path class="cls-2" d="M428.85,295.64c-2.29-.33-4.58-.66-6.88-.98-1.32-.19-2.63-.43-3.95-.5-1.5-.08-2.23-.63-2.1-2.25.19-2.33.17-4.67.35-6.99.2-2.52,3.31-4.19,5.66-3.13,1.69.76,3.51,1.31,5.05,2.3.86.55,1.7,1.77,1.79,2.76.24,2.78.08,5.59.08,8.8h0Z"/>
      <path class="cls-2" d="M323.18,58.88c-3.65,1.12-6.94,2.11-10.23,3.14-2.99.94-5.99,1.83-8.93,2.9-1.52.55-2.41.17-3.36-1.04-1.18-1.5-2.59-2.83-4.06-4.4.5-.2.99-.47,1.51-.59,2.49-.59,4.98-1.11,7.47-1.72,4.02-.99,8.05-1.94,12.03-3.07,1.62-.46,2.71,0,3.55,1.26.66,1,1.2,2.08,2.02,3.52Z"/>
      <path class="cls-2" d="M521.64,266.32c-.37-.67-.76-1.33-1.11-2.01-1.49-2.86-3.63-5.51-3.75-8.85-.15-3.91-.1-7.85.24-11.74.19-2.22,1.84-2.71,3.3-1.05,2.19,2.5,4.1,5.24,6.1,7.91.97,1.29.74,2.66-.13,3.86-2.39,3.26-3.71,6.88-4.05,10.88-.02.3-.13.6-.2.9-.13.03-.26.07-.39.1h0Z"/>
      <path class="cls-2" d="M120.71,241.91c.07-4.07,1.19-7.84,3.3-11.3,1.13-1.87,1.48-1.8,2.62.06,2.65,4.29,4.42,8.94,5.45,13.84.24,1.16-.05,2.51-.38,3.7-.29,1.05-1.05,1.42-2.24.76-1.8-1-3.66-1.94-5.59-2.61-3.06-1.05-3.21-1.1-3.17-4.44h0Z"/>
      <path class="cls-2" d="M66.05,299.56c-.52-.86-.89-1.61-1.38-2.27-1.91-2.53-4.28-4.4-7.49-5.02-.68-.13-1.37-.26-2-.54-.75-.33-1.2-.9-.64-1.77,1.89-2.94,3.62-6,5.69-8.81,2.2-2.97,3.48-2.69,4.76.83,1.41,3.88,3.06,7.74,2.95,11.98-.05,1.95-.23,3.9-1.89,5.59h0Z"/>
      <path class="cls-2" d="M41.23,212.27c.95,1.44,2.18,2.77,2.81,4.34,1.58,3.94,3.27,7.88,3.62,12.19.01.16.06.31.08.47.4,3.26.09,3.51-2.9,2.26-2.45-1.02-4.88-2.08-7.3-3.16-1.36-.6-2.34-2.34-1.87-3.84.88-2.83,1.93-5.61,3.02-8.36.52-1.31,1.29-2.53,1.95-3.79l.59-.11h0Z"/>
      <path class="cls-2" d="M543.42,363.34c-.74-1.22-1.44-2.27-2.03-3.38-1.15-2.15-2.25-4.33-3.36-6.5-.52-1.03-.71-2.02-.09-3.17,1.22-2.29,2.23-4.69,3.45-6.98.88-1.65,3.14-1.64,4.37-.18,1.99,2.35,2.88,5.18,2.9,8.08.01,1.78-1.03,3.6-1.76,5.33-.82,1.95-1.82,3.84-2.75,5.74-.16.32-.4.59-.73,1.06Z"/>
      <path class="cls-2" d="M530.18,364.05c-1.77-2.87-3.29-5.33-4.81-7.8-.22-.36-.34-.8-.62-1.1-1.22-1.29-1.2-2.78-.7-4.31.59-1.82,1.21-3.62,1.86-5.42.18-.49.46-.96.77-1.39,1.72-2.35,3.31-2.42,5.04-.1,2.99,3.98,3.55,8.26,1.43,12.85-.8,1.73-1.36,3.56-2.06,5.33-.2.52-.48,1.02-.92,1.93h0Z"/>
      <path class="cls-2" d="M163.95,347.48c-.47-.51-.88-.88-1.19-1.32-1.74-2.46-3.77-4.56-6.69-5.66-2.41-.91-3.13-2.52-2.35-4.94.97-2.99,2.06-5.91,4.63-7.99.78-.63,1.35-.72,1.94.21,2.42,3.82,4.66,7.67,5.64,12.19.63,2.88-.72,4.99-1.99,7.52h0Z"/>
      <path class="cls-2" d="M439.15,210.1c.75-2.52,1.43-5.06,2.28-7.54.47-1.38,1.36-2.53,2.92-2.94,1.24-.33,2.16,0,2.47,1.29.3,1.23.64,2.51.6,3.75-.11,4.14-.35,8.28-.6,12.42-.06.89-.38,1.76-.51,2.66-.22,1.6-1.49,1.87-2.7,1.98-1.13.1-1.91-.53-2.4-1.69-1.34-3.15-1.8-6.42-2.08-9.94h0Z"/>
      <path class="cls-2" d="M276.55,69.81c2.83,1.21,4.21,3.33,5.53,5.52,1.29,2.13,2.65,4.22,3.95,6.35,1.42,2.33,1.23,3.27-.87,4.91-1.09.85-2.15,1.73-3.25,2.62-1.09-1.91-1.96-3.99-3.32-5.66-1.37-1.68-3.13-3.12-4.91-4.39-1.63-1.16-2.14-2.3-1.02-3.95,1.27-1.86,2.64-3.66,3.9-5.4h0Z"/>
      <path class="cls-2" d="M613.06,78.18c-1.17-1.16-2.34-2.3-3.5-3.47-1.26-1.27-2.66-2.45-3.67-3.9-.75-1.08-1.41-2.53-1.38-3.79.15-5.61,2.78-8.5,8.12-9.9.19-.05.41.01.78.03v20.75c-.12.09-.24.18-.35.27h0Z"/>
      <path class="cls-2" d="M611.29,347.75c-.99-2.01-1.81-3.62-2.58-5.27-1.05-2.26-2.02-4.56-3.1-6.79-1.59-3.28-1.17-5.43,1.77-7.6,1.22-.9,2.53-1.79,3.94-2.3,1.67-.61,2.25-.06,2.25,1.67.01,5.25,0,10.51,0,15.77,0,1.8-1.22,2.89-2.28,4.53h0Z"/>
      <path class="cls-2" d="M82.03,336.75c-3.64-2.25-7.23-3-11.02-3.04-2.37-.03-3.12-1.12-2.35-3.35,1.52-4.39,3.62-8.46,6.62-12.04.16-.19.36-.34.81-.77,1.99,6.43,3.9,12.62,5.94,19.2h0Z"/>
      <path class="cls-2" d="M269.99,75.38c-.25-1.28-.54-2.06-.53-2.83.04-4.3-2.59-7.15-5.46-9.79-2.37-2.18-2.41-2.54.29-4.52.51-.37.93-.86,1.35-1.34,1.17-1.35,2.25-1.55,3.57-.44,3.08,2.6,5.1,5.93,6.38,9.71.4,1.19.15,2.15-.82,3.13-1.29,1.31-2.28,2.91-3.41,4.38-.34.45-.7.87-1.37,1.69h0Z"/>
      <path class="cls-2" d="M399.14,301.58c-2.83-3.01-5.45-3.55-7.78-1.42-1.29,1.18-2.13,2.86-3.11,4.35-.36.54-.54,1.2-.91,2.05-1.11-1.97-2-3.7-3.04-5.34-.47-.74-1.14-1.42-1.87-1.92-2.82-1.92-5.05-1-6.28,2.53-1.01-1.55-.51-4.75.83-6.41.99-1.22,2.05-1.52,3.61-1.3,5.46.78,10.95,1.42,16.43,2.07,2,.24,2.27.44,2.37,2.41.04.74,0,1.49-.02,2.23,0,.19-.12.38-.24.76h0Z"/>
      <path class="cls-2" d="M445.1,297.06c-.43,0-.74.03-1.06,0-3.74-.35-7.47-.73-11.21-1.03-1.31-.11-1.99-.63-1.84-2,.23-2.05.37-4.12.72-6.16.27-1.56,2.01-2.55,3.67-2.34,3.92.5,6.33,3.22,8.83,5.86,1.58,1.67,1.38,3.54.89,5.67h0Z"/>
      <path class="cls-2" d="M502.11,168.6c-1.81-2.32-3.29-4.38-4.94-6.28-1.11-1.27-2.4-2.4-3.74-3.44-1.43-1.11-1.59-2.56.02-3.31,3.07-1.43,6.21-2.82,9.44-3.79,1.38-.41,3.14.12,4.63.55.91.26,1.46,1.25.39,2.1-3.98,3.17-5.22,7.56-5.6,12.34-.04.51-.11,1.01-.2,1.83h0Z"/>
      <path class="cls-2" d="M348.36,48.28c-.11,2.69-.12,2.66-2.7,3.45-4.74,1.44-9.47,2.9-14.19,4.38-1.47.46-2.9,1.01-4.35,1.54-.86.32-1.38.05-1.8-.77-.53-1.03-1.14-2.02-1.79-2.98-.53-.77-.48-1.27.49-1.5,1.35-.32,2.71-.6,4.05-.93,5.74-1.4,11.48-2.81,17.22-4.23.36-.09.72-.2,1.06-.34,1.69-.71,2.08-.45,2.01,1.37Z"/>
      <path class="cls-2" d="M134.61,88.05c1.31,3.43,2.62,6.78,3.88,10.15.5,1.34.84,2.75,1.42,4.06.57,1.31.37,2.43-.25,3.64-.53,1.03-.9,2.13-1.41,3.35-.87-1.49-1.66-2.9-2.49-4.28-1.3-2.16-3.13-3.7-5.54-4.53-2.76-.95-3.26-1.96-1.74-4.38,1.66-2.64,3.59-5.11,5.42-7.64.11-.15.36-.19.71-.37h0Z"/>
      <path class="cls-2" d="M521.7,322.53c.85,1.11,1.99,2.11,2.49,3.36,1.3,3.29,2.33,6.69,3.45,10.05.72,2.14.2,4.01-.99,5.89-.93,1.46-1.54,3.12-2.3,4.69-.32.65-.7,1.28-1.28,1.89-2.38-8.45-2.77-17-2.1-25.63.25-.08.49-.16.74-.24Z"/>
      <path class="cls-2" d="M302.49,122.1c-1.2-5.62-3.3-10.48-9.17-12.67.61-2.48,2.03-4.39,3.5-6.25.2-.25,1.2-.24,1.52.03,1.09.91,2.23,1.85,3.01,3.01,2.08,3.12,4.44,6.12,5.31,9.91.37,1.62-.02,2.76-1.41,3.69-.91.61-1.7,1.4-2.75,2.28h0Z"/>
      <path class="cls-2" d="M399.04,311.71c.3,1.55-.37,1.76-1.52,1.59-1.99-.29-4-.54-6.01-.71-2.66-.22-3.69-1.25-3.34-3.92.39-2.9,1.85-5.3,4.23-7.04,2.36-1.73,4.77-.89,5.71,1.92.1.3.16.62.22.93.04.21.07.42.09.63.21,2.28.41,4.55.6,6.61h0Z"/>
      <path class="cls-2" d="M345.07,303.28c.17-1.86.3-3.37.47-4.87.16-1.48.39-2.94.57-4.41.16-1.31.78-1.9,2.2-1.93,2.96-.06,5.96-.76,8.81.56.71.33,1.83.92,1.84,1.41.04,1.48-.35,2.97-.66,4.44-.04.2-.65.42-.97.39-4.19-.43-7.65,1.28-10.9,3.64-.29.21-.63.36-1.35.77h0Z"/>
      <path class="cls-2" d="M445.73,311.99c-3.02-1.16-5.58-2.37-8.28-3.11-2.76-.76-3.7-2.69-4.34-5.11-.25-.94.08-1.39.83-1.78,3.35-1.75,6.77-1.61,10.16-.19.65.27,1.52,1.04,1.56,1.62.16,2.73.07,5.48.07,8.57h0Z"/>
      <path class="cls-2" d="M313.72,300.6c-.12-1.82-.17-3.5-.35-5.18-.17-1.62-.39-3.24-.76-4.83-.2-.88-.07-1.45.83-1.45,2.96-.02,5.93.06,8.89.11.1,0,.23.04.3.11,1.06.98,2.49,1.82,3,3.04.23.54-1.22,2.13-2.21,2.77-2.84,1.84-5.84,3.44-8.78,5.12-.22.12-.48.16-.92.31Z"/>
      <path class="cls-2" d="M354.08,189.44c3.43,5.46,6.8,10.81,10.09,16.05-2.84,1.52-5.39,2.88-8.18,4.37-.03-.63-.12-1.08-.06-1.51.53-4.45-1.05-8.46-2.56-12.49-.28-.75-.65-1.46-.92-2.2-.64-1.75-.3-2.75,1.63-4.21Z"/>
      <path class="cls-2" d="M376.99,313.25c.1-1.73.22-3.25.28-4.77.06-1.59.05-3.17.09-4.76.03-1.45.03-3.01,1.65-3.65,1.53-.6,2.72.2,3.85,1.24,2.46,2.28,3.3,5.24,3.75,8.39.21,1.48-.32,2.26-1.94,2.42-2.51.26-5,.72-7.67,1.13h0Z"/>
      <path class="cls-2" d="M510.91,143.47c-.29-5.99-.56-11.57-.83-17.15.25-.15.5-.29.75-.44.54.74,1.05,1.5,1.63,2.21,2.59,3.13,5.23,6.23,7.8,9.38.82,1,.45,1.61-.75,2.11-2.79,1.17-5.51,2.48-8.61,3.89h0Z"/>
      <path class="cls-2" d="M291.41,61.35c1.82,0,6.12,3.05,6.52,4.72.07.28-.41.91-.76,1.05-1.14.43-2.35.68-3.51,1.05-2.35.76-4.7,1.54-7.04,2.34-1.02.35-1.69.07-2.29-.82-.67-1.01-1.52-1.91-2.26-2.87-.7-.91-.81-1.73.46-2.23,2.93-1.16,5.48-3.35,8.88-3.23h0Z"/>
      <path class="cls-2" d="M496.24,307.06c3.61.47,6.82.89,10.04,1.3.91.12,1.01.67.73,1.37-1.18,2.9-2.36,5.79-3.57,8.67-.34.83-.9.83-1.48.23-1.66-1.7-3.31-3.42-4.97-5.12-.33-.34-.7-.64-1.02-1-.53-.59-1.15-1.13-1.53-1.81-1.37-2.45-.58-3.7,1.82-3.66h0Z"/>
      <path class="cls-2" d="M100.67,147.12c-1.53-.61-2.85-1.13-4.16-1.67-.81-.33-1.01-.91-.59-1.66,1.53-2.78,2.79-5.76,4.69-8.26,1.83-2.4,4.31-4.32,6.56-6.39.42-.39,1.09-.52,1.65-.77.12.1.23.2.35.3-2.82,6.13-5.65,12.26-8.5,18.45h0Z"/>
      <path class="cls-2" d="M291.69,107.39c.67-6.89-.94-12.62-6.57-17.19,1.24-1.26,2.39-2.43,3.83-3.88,3,4.76,5.81,9.22,8.61,13.67-2.01,2.53-3.94,4.97-5.87,7.4h0Z"/>
      <path class="cls-2" d="M191.13,244.31c-.68-1.13-1.46-2.21-2-3.4-1.21-2.65-3.3-4.52-5.51-6.26-.86-.68-1.29-1.38-.84-2.45.77-1.85,1.49-3.73,2.3-5.57.42-.95,1.02-.96,1.66-.11,2.98,3.94,4.48,8.56,5.77,13.2.38,1.37-.5,3.08-.81,4.64-.19-.02-.38-.03-.57-.05h0Z"/>
      <path class="cls-2" d="M103.72,164.68c2.32,5.63,5.04,11.13,5.35,17.49-.84-.92-1.79-1.76-2.49-2.77-1.34-1.94-3.43-2.58-5.43-3.39-2.09-.85-2.99-2.07-2.15-4.01,1.12-2.56,2.7-4.92,4.08-7.36.21.02.42.03.63.05h0Z"/>
      <path class="cls-2" d="M603.67,329.47c-.99-2.19-1.86-4.1-2.72-6.03-.28-.63-.48-1.29-.79-1.9-.71-1.42-.58-1.83.93-2.03,3.48-.46,6.91-.44,10.02,1.52.58.36,1.18.77,1.58,1.31.23.32.27,1.21.06,1.35-2.94,1.94-5.94,3.79-9.09,5.78h0Z"/>
      <path class="cls-2" d="M180.5,104.11c-6.4,2.04-12.8,4.09-19.2,6.13-.08-.11-.16-.22-.23-.34.2-.33.32-.73.6-.97,2.51-2.18,5.05-4.33,7.57-6.51,1.53-1.32,3.15-2.21,5.33-2.01,2.53.23,4.12,1.9,6.02,3.14-.03.19-.05.37-.08.55h0Z"/>
      <path class="cls-2" d="M212.35,94.13c-6.73,2.07-13.21,4.07-19.7,6.06-.11-.18-.23-.36-.34-.53.57-.75,1.05-1.59,1.73-2.23,3.07-2.9,6.42-5.39,10.62-6.4,2.81-.67,5.8.46,7.68,3.1Z"/>
      <path class="cls-2" d="M214.58,129.15c1.21-1.82,2.31-3.48,3.69-5.57.92,1.07,1.74,1.94,2.46,2.89,1.44,1.89,2.97,3.73,4.2,5.75,1.66,2.72,1.86,4.84-.51,7-.23.21-.38.51-.57.76-.15.19-.32.37-.67.79-1.2-5.19-3.87-9.09-8.6-11.61h0Z"/>
      <path class="cls-2" d="M582.56,74.95c-1.62.94-3.01,1.88-4.53,2.55-.49.21-1.57-.11-1.92-.54-1.04-1.3-2-2.72-2.73-4.22-1.15-2.38-2.11-4.85-3.09-7.31-.26-.66-.32-1.4-.24-2.26,5.14,2.9,8.53,7.57,12.51,11.79Z"/>
      <path class="cls-2" d="M105.11,11.21c1.81,4.67,3.48,8.98,5.15,13.28.29.74.64,1.47.83,2.24.15.6.09,1.24.13,1.93-1.79-2.07-3.14-4.33-5.1-5.71-1.96-1.38-4.53-1.88-7.04-2.85,1.31-3.14,3.23-6.09,6.04-8.89Z"/>
      <path class="cls-2" d="M515.52,210.04c2.16,2.82,4.25,5.33,6.05,8.03.41.61.1,2.02-.34,2.81-1.21,2.21-2.66,4.28-4.01,6.41-2.15-1.42-3.75-13.59-1.7-17.25Z"/>
      <path class="cls-2" d="M520.55,293.29c1.29,3.12,2.46,6.28,3.9,9.33,1.09,2.32.27,4.19-.82,6.12-.87,1.54-1.74,3.1-2.92,4.58-1.56-6.63-2.23-13.23-.92-19.89.25-.05.51-.1.76-.14h0Z"/>
      <path class="cls-2" d="M560.45,130.16c-4.59,2.49-7.27,6.38-8.5,11.68-1.53-2.06-2.79-3.86-4.17-5.56-.92-1.14-.66-2.1.28-2.91.88-.75,1.85-1.47,2.9-1.93,2.08-.92,4.21-1.8,6.41-2.38.9-.24,2.01.34,3.02.55.02.19.04.37.05.55Z"/>
      <path class="cls-2" d="M305.93,122.86c.8-.82,1.36-1.56,2.08-2.03.3-.19,1.15.03,1.46.35,3.26,3.35,5.27,7.43,6.7,11.81.15.46.04,1.23-.27,1.56-1.22,1.31-2.57,2.5-4.21,4.07.49-6.29-1.25-11.54-5.76-15.76h0Z"/>
      <path class="cls-2" d="M176.04,198.65c-1.55-.93-3.09-1.9-4.68-2.79-.96-.53-2.09-.79-2.96-1.44-.54-.4-1.11-1.36-.99-1.93.62-2.86,1.46-5.68,2.23-8.55,2.43,1.01,6.85,11.68,6.39,14.7h0Z"/>
      <path class="cls-2" d="M108.47,126.52c.97-4.89,1.94-9.32,4.92-13.5,1.05,2.85,2.01,5.3,2.88,7.79,1.16,3.36,1.14,3.41-2.3,4.4-1.71.5-3.47.83-5.49,1.3Z"/>
      <path class="cls-2" d="M150.81,300.7c2.9,4.93,4.56,9.67,5.42,14.69-.13.12-.26.25-.39.37-.74-.42-1.52-.77-2.2-1.27-1.51-1.08-2.97-2.23-4.44-3.35-1.38-1.06-1.85-2.97-1.12-4.55.84-1.82,1.69-3.64,2.74-5.89h0Z"/>
      <path class="cls-2" d="M403.17,208.98c0,3.47.03,6.43-.01,9.38-.02,1.8-.15,3.6-.2,5.4-.03.88-.02,1.64-1.23,1.84-1.19.19-2.11.06-2.71-1.06-.12-.23-.23-.49-.26-.75-.5-4.67-.27-9.23,2.45-13.3.35-.52,1.03-.82,1.95-1.52h0Z"/>
      <path class="cls-2" d="M351.81,46.08c.38-.25.88-.77,1.46-.92,5.56-1.42,11.14-2.75,16.71-4.15,1.39-.35,2.73-.83,4.11-1.24.92-.28,1.37.12,1.59,1.02.22.89.04,1.51-.92,1.63-1.84.23-3.72.24-5.54.6-4.7.93-9.29,2.2-13.28,5.04-.26.19-.53.36-.83.48-3,1.23-2.78.87-3.3-2.47h0Z"/>
      <path class="cls-2" d="M547.55,12.56c1.9,2.09,3.92,4.07,5.65,6.29,1.22,1.57,2.09,3.43,2.98,5.22.29.57.35,1.87.22,1.92-1,.32-2.13.68-3.09.47-.74-.16-1.54-1.02-1.92-1.76-1.51-2.97-2.91-6-4.23-9.06-.34-.8-.24-1.79-.35-2.7.25-.12.49-.25.74-.38h0Z"/>
      <path class="cls-2" d="M541.07,189.32c-3.95,3.49-5.18,8.09-6.23,12.9-1.93-3.1-3.74-6.02-5.73-9.2,3.95-1.22,7.95-2.46,11.96-3.7h0Z"/>
      <path class="cls-2" d="M224.42,145.84c.83-2.41,1.56-4.53,2.29-6.68,3.43,1.6,8.78,12,7.94,15.76-2.03-4.71-5.06-7.86-10.23-9.08Z"/>
      <path class="cls-2" d="M613.37,107.04c-1.95-2.32-4.45-3.84-4.99-6.56-.28-1.4.34-3.18,1.06-4.52.86-1.62,2.24-2.96,3.4-4.42.18.09.36.19.53.28v15.23h0Z"/>
      <path class="cls-2" d="M34.41,187.85c.91,2.25,1.77,4.1,2.39,6.03.42,1.3.51,2.71.7,4.08.13.95-.18,2.06,1.39,2.25.31.04.47,1.24.67,1.83-.26.23-.37.38-.41.36-2.06-.93-4.18-1.76-6.13-2.87-.56-.32-.98-1.52-.88-2.24.4-2.83,1.04-5.63,1.6-8.44.04-.18.21-.33.66-1h0Z"/>
      <path class="cls-2" d="M222.7,285.39c-2.12-2.27-4.03-4.31-5.93-6.35-.59-.64-.41-1.19.33-1.51.52-.22,1.11-.39,1.68-.41,1.59-.05,3.19-.02,4.79.02.47.01.96.09,1.41.24,1.65.56,2.11,1.98,1.11,3.37-1.08,1.49-2.18,2.98-3.39,4.63h0Z"/>
      <path class="cls-2" d="M433.72,144.92c-3.75-3.06-7.75-5.34-12.37-6.77,1.27-.22,2.54-.41,3.79-.66,1.19-.24,2.36-.68,3.55-.76.91-.06,1.87.25,2.78.49.39.1.69.48,1.04.72,2.4,1.68,2.87,4.05,1.2,6.98h0Z"/>
      <path class="cls-2" d="M448.73,151.96c-3.13-1.05-6.03-1.94-8.83-3.04-.74-.29-1.54-1.15-1.76-1.91-.46-1.55-.54-3.2-.84-5.15.72.33,1.1.44,1.42.66,3.05,2.04,6.06,4.13,9.12,6.14,1.29.84.96,1.96.88,3.3Z"/>
      <path class="cls-2" d="M121.2,217.56c-.76-.19-1.16-.3-1.57-.39-3.68-.88-4.29-1.72-3.57-5.43.4-2.1,1.03-4.16,1.85-6.25,1.56,3.86,3.49,7.56,3.29,12.08h0Z"/>
      <path class="cls-2" d="M400.38,33.94c-.48.31-.91.74-1.43.9-5.23,1.64-10.47,3.21-15.7,4.84-1.62.5-3.2,1.12-4.8,1.68-.72.25-1.38.15-1.36-.73,0-.55.27-1.38.67-1.59.77-.41,1.73-.45,2.61-.67,5.32-1.32,10.63-2.62,15.94-3.97,1.25-.32,2.47-.76,3.7-1.15.12.23.24.46.36.69Z"/>
      <path class="cls-2" d="M443.24,197.76c.95-4.4,1.67-8.81,4.71-12.54.04.49.12.98.11,1.46-.09,3.35-.19,6.7-.29,10.04-.06,2.05-.45,2.3-2.45,1.63-.6-.2-1.21-.34-2.08-.59h0Z"/>
      <path class="cls-2" d="M373.36,294.01c-.72.44-1.39,1.11-2.17,1.27-3.23.67-6.5,1.19-9.75,1.75-.3.05-.61,0-.98,0-.02-.31-.04-.52-.03-.71.14-4.04.39-4.22,4.47-3.71,2.38.3,4.77.48,7.16.73.39.04.78.17,1.17.25l.15.42h0Z"/>
      <path class="cls-2" d="M508.07,65.31c-.42-.92-.92-1.51-.93-2.12-.05-2.21-.03-4.43.14-6.63.1-1.26.97-1.28,1.8-.56,1.1.97,2.12,2.03,3.2,3.03.84.78,1.07,1.43,0,2.31-1.4,1.16-2.66,2.49-4.22,3.98h0Z"/>
      <path class="cls-2" d="M582.93,317.55c2.99.08,5.55-.27,7.9,1.13,1.31.78,1.37,1.45.15,2.39-1.17.91-2.29,1.89-3.52,2.71-.38.25-1.42.26-1.53.05-1.03-1.94-1.92-3.95-3-6.28Z"/>
      <path class="cls-2" d="M27.61,161.69c1.12,3.75,3.05,7.29,2.91,11.41-2.34-.4-3.88-1.84-3.9-3.88-.02-2.51.19-5.02.29-7.53h.7Z"/>
      <path class="cls-2" d="M240.87,84.98c-4.49,1.4-8.86,2.77-13.55,4.23.36-.53.48-.92.73-1.06,2.72-1.54,5.4-3.17,8.21-4.52,1.75-.84,3.26-.29,4.61,1.35h0Z"/>
      <path class="cls-2" d="M465.86,303.57c3.07.47,5.68.84,8.27,1.3.35.06.87.68.85,1-.1,1.46-.37,2.91-.63,4.72-2.88-2.39-5.51-4.56-8.49-7.02Z"/>
      <path class="cls-2" d="M303.58,286.9c-1.48,2.35-3.76,2.95-5.55,4.2-.13.09-.89-.33-1.01-.64-.55-1.42-.97-2.89-1.59-4.78,2.8.42,5.35.8,8.14,1.22Z"/>
      <path class="cls-2" d="M193.57,78.49c-3.68,1.84-7.46,2.32-11.46,3.54,3.93-4.03,7.68-5.96,11.46-3.54Z"/>
      <path class="cls-2" d="M613.44,124.24v10.53c-3.76-2.1-3.16-7.9,0-10.53Z"/>
      <path class="cls-2" d="M510.2,102.54c1.58,1.93,2.6,4.02,2.97,6.39.04.26-.84.83-1.36.94-.51.11-1.31.01-1.63-.33-.95-1.01-.92-5.52.02-7.02h0Z"/>
      <path class="cls-2" d="M193.72,244.32c2.37,2.68,2.99,5.86,3.87,8.96-1.09-.96-2.26-1.84-3.26-2.89-1.76-1.85-1.9-3.33-.6-6.07Z"/>
      <path class="cls-2" d="M171.01,353.42c-3.69-.85-5.54-3.07-2.79-8.49.97,2.95,1.85,5.63,2.79,8.49Z"/>
      <path class="cls-2" d="M470.15,165.28c1.83-.83,3.28-1.49,5.01-2.28-.21,2.29-.4,4.26-.58,6.23l-.45.31c-1.27-1.36-2.53-2.72-3.97-4.26h0Z"/>
      <path class="cls-2" d="M511.95,152.89c-1.21-1.32-2.19-2.39-3.38-3.69,2.09-.8,3.91-1.5,6.06-2.32-.93,2.09-1.72,3.84-2.68,6h0Z"/>
      <path class="cls-2" d="M239.18,278.89c1.87.13,3.75.26,5.97.42-1.04,1.35-1.82,2.45-2.72,3.45-.18.2-1.01.19-1.16,0-.83-1.06-1.55-2.22-2.3-3.34.07-.18.14-.35.21-.52h0Z"/>
      <path class="cls-2" d="M276.28,162.72c-.92,1.54-1.85,3.08-2.78,4.62-.13-.04-.25-.09-.38-.13-.14-1.13-.43-2.27-.34-3.39.04-.48.78-1.04,1.33-1.3.53-.25,1.23-.15,1.86-.21.11.13.21.27.32.4h0Z"/>
      <path class="cls-2" d="M141.48,106.65c.6,1.65,1.15,3.18,1.76,4.88-3.25-.74-3.89-2.56-1.76-4.88Z"/>
      <path class="cls-2" d="M613.48,350.14v5.86c-1.78-1.14-1.84-3.66,0-5.86Z"/>
    </g>
  </g>
</svg>