<?xml version="1.0" encoding="UTF-8"?>
<svg id="Layer_1" data-name="Layer 1" xmlns="http://www.w3.org/2000/svg" version="1.1" viewBox="0 0 1254.83 1077">
  <defs>
    <style>
      .cls-1 {
        fill: #13ff00;
        stroke-width: 0px;
      }
    </style>
  </defs>
  <path class="cls-1" d="M757.84,107.53l.59-.39-.97-3-108.45,2.09,19.72,60.74,89.11-59.44h0ZM651.57,108.05l104.54-2.01.11.33-86.46,57.67-18.18-55.99Z"/>
  <path class="cls-1" d="M634.8,147.53l.59-.39-.97-3-108.45,2.09,19.72,60.74,89.11-59.44h0ZM633.07,146.03l.11.33-86.46,57.67-18.18-55.99,104.54-2.01Z"/>
  <path class="cls-1" d="M265.25,267.68l.59-.39-.97-3-108.45,2.09,19.73,60.74,89.11-59.44h0ZM158.98,268.2l104.54-2.02.11.33-86.46,57.67-18.18-55.99h0Z"/>
  <path class="cls-1" d="M512.14,187.21l-.97-3-108.45,2.09,19.72,60.74,89.7-59.83h0ZM405.28,188.12l104.54-2.02.11.33-86.46,57.67-18.18-55.99h0Z"/>
  <path class="cls-1" d="M1004.73,27.06l-.97-3-108.45,2.09,19.73,60.74,89.7-59.83h0ZM897.87,27.97l104.54-2.02.11.33-86.46,57.67-18.18-55.99h0Z"/>
  <path class="cls-1" d="M389.1,227.21l-.97-3-108.45,2.09,19.73,60.74,89.7-59.83h0ZM386.77,226.11l.11.33-86.46,57.67-18.18-55.99,104.54-2.02h0Z"/>
  <path class="cls-1" d="M881.7,67.06l-.97-3-108.45,2.09,19.72,60.74,89.7-59.83h0ZM879.37,65.96l.11.33-86.46,57.67-18.18-55.99,104.54-2.01Z"/>
  <path class="cls-1" d="M141.82,304.29l-108.45,2.09,19.73,60.74,89.7-59.83-.97-3h0ZM35.94,308.21l104.54-2.01.11.33-86.46,57.67-18.18-55.99Z"/>
  <path class="cls-1" d="M812.71,276.5l.59-.39-.97-3-108.45,2.09,19.72,60.74,89.11-59.44h0ZM706.44,277.02l104.54-2.01.11.33-86.46,57.67-18.18-55.99h0Z"/>
  <path class="cls-1" d="M936.56,236.04l-.97-3-108.45,2.09,19.72,60.74,89.7-59.83h0ZM934.24,234.94l.11.33-86.46,57.67-18.18-55.99,104.54-2.01h0Z"/>
  <path class="cls-1" d="M1059.6,196.03l-.97-3-108.45,2.09,19.72,60.74,89.7-59.83h0ZM952.74,196.95l104.54-2.02.11.33-86.46,57.67-18.18-55.99Z"/>
  <path class="cls-1" d="M689.67,316.5l.59-.39-.97-3-108.45,2.09,19.73,60.74,89.11-59.44h0ZM687.94,315.01l.11.33-86.46,57.67-18.18-55.99,104.54-2.01h0Z"/>
  <path class="cls-1" d="M320.12,436.66l.59-.39-.97-3-108.45,2.09,19.73,60.74,89.11-59.44h0ZM213.85,437.18l104.54-2.02.11.33-86.46,57.67-18.18-55.99Z"/>
  <path class="cls-1" d="M196.69,473.27l-108.45,2.09,19.73,60.74,89.7-59.83-.97-3h0ZM90.81,477.18l104.54-2.01.11.33-86.46,57.67-18.18-55.99h0Z"/>
  <path class="cls-1" d="M567.01,356.19l-.97-3-108.45,2.09,19.73,60.74,89.7-59.83h0ZM460.15,357.1l104.54-2.02.11.33-86.46,57.67-18.18-55.99Z"/>
  <path class="cls-1" d="M443.97,396.19l-.97-3-108.45,2.09,19.73,60.74,89.7-59.83h0ZM441.64,395.09l.11.33-86.46,57.67-18.18-55.99,104.54-2.02Z"/>
  <path class="cls-1" d="M498.83,565.17l-.97-3-108.45,2.09,19.73,60.74,89.7-59.83h0ZM496.51,564.07l.11.33-86.46,57.67-18.18-55.99,104.54-2.02Z"/>
  <path class="cls-1" d="M251.57,642.24l-108.45,2.09,19.73,60.74,89.7-59.83-.97-3h0ZM145.68,646.16l104.54-2.01.11.33-86.46,57.67-18.18-55.99h0Z"/>
  <path class="cls-1" d="M744.55,485.48l.59-.39-.97-3-108.45,2.09,19.73,60.74,89.11-59.44h0ZM742.81,483.99l.11.33-86.46,57.67-18.18-55.99,104.54-2.01h0Z"/>
  <path class="cls-1" d="M374.99,605.63l.59-.39-.97-3-108.45,2.09,19.73,60.74,89.11-59.44h0ZM268.72,606.15l104.54-2.02.11.33-86.46,57.67-18.18-55.99Z"/>
  <path class="cls-1" d="M621.87,525.16l-.97-3-108.45,2.09,19.73,60.74,89.7-59.83h0ZM515.01,526.07l104.54-2.02.11.33-86.46,57.67-18.18-55.99Z"/>
  <path class="cls-1" d="M867.58,445.48l.59-.39-.97-3-108.45,2.09,19.72,60.74,89.11-59.44h0ZM761.31,446l104.54-2.01.11.33-86.46,57.67-18.18-55.99h0Z"/>
  <path class="cls-1" d="M1114.47,365.01l-.97-3-108.45,2.09,19.72,60.74,89.7-59.83h0ZM1007.61,365.92l104.54-2.02.11.33-86.46,57.67-18.18-55.99Z"/>
  <path class="cls-1" d="M991.43,405.01l-.97-3-108.45,2.09,19.72,60.74,89.7-59.83h0ZM989.1,403.91l.11.33-86.46,57.67-18.18-55.99,104.54-2.01h0Z"/>
  <path class="cls-1" d="M306.43,811.22l-108.45,2.09,19.73,60.74,89.7-59.83-.97-3h0ZM200.54,815.13l104.54-2.02.11.33-86.46,57.67-18.18-55.99Z"/>
  <path class="cls-1" d="M429.85,774.61l.59-.39-.97-3-108.45,2.09,19.73,60.74,89.11-59.44h0ZM323.58,775.13l104.54-2.02.11.33-86.46,57.67-18.18-55.99Z"/>
  <path class="cls-1" d="M922.45,614.46l.59-.39-.97-3-108.45,2.09,19.72,60.74,89.11-59.44h0ZM816.18,614.98l104.54-2.02.11.33-86.46,57.67-18.18-55.99Z"/>
  <path class="cls-1" d="M799.42,654.46l.59-.39-.97-3-108.45,2.09,19.73,60.74,89.11-59.44h0ZM797.68,652.96l.11.33-86.46,57.67-18.18-55.99,104.54-2.02Z"/>
  <path class="cls-1" d="M553.7,734.14l-.97-3-108.45,2.09,19.73,60.74,89.7-59.83h0ZM551.38,733.04l.11.33-86.46,57.67-18.18-55.99,104.54-2.02Z"/>
  <path class="cls-1" d="M676.74,694.14l-.97-3-108.45,2.09,19.72,60.74,89.7-59.83h0ZM569.88,695.05l104.54-2.02.11.33-86.46,57.67-18.18-55.99Z"/>
  <path class="cls-1" d="M1169.34,533.98l-.97-3-108.45,2.09,19.72,60.74,89.7-59.83h0ZM1062.48,534.9l104.54-2.02.11.33-86.46,57.67-18.18-55.99Z"/>
  <path class="cls-1" d="M1046.3,573.99l-.97-3-108.45,2.09,19.72,60.74,89.7-59.83h0ZM1043.97,572.89l.11.33-86.46,57.67-18.18-55.99,104.54-2.02Z"/>
  <path class="cls-1" d="M1100.2,739.96l-108.45,2.09,19.73,60.74,89.7-59.83-.97-3h0ZM994.31,743.88l104.54-2.01.11.33-86.46,57.67-18.18-55.99Z"/>
  <path class="cls-1" d="M1223.24,699.96l-108.45,2.09,19.72,60.74,89.7-59.83-.97-3h0ZM1117.35,703.87l104.54-2.01.11.33-86.46,57.67-18.18-55.99Z"/>
  <path class="cls-1" d="M730.64,860.11l-108.45,2.09,19.73,60.74,89.7-59.83-.97-3h0ZM624.75,864.03l104.54-2.01.11.33-86.46,57.67-18.18-55.99Z"/>
  <path class="cls-1" d="M485.31,943.19l-.97-3-108.45,2.09,19.73,60.74,89.7-59.83h0ZM378.45,944.11l104.54-2.01.11.33-86.46,57.67-18.18-55.99Z"/>
  <path class="cls-1" d="M361.3,980.19l-108.45,2.09,19.73,60.74,89.7-59.83-.97-3h0ZM255.41,984.11l104.54-2.01.11.33-86.46,57.67-18.18-55.99Z"/>
  <path class="cls-1" d="M977.91,783.04l-.97-3-108.45,2.09,19.72,60.74,89.7-59.83h0ZM871.05,783.95l104.54-2.01.11.33-86.46,57.67-18.18-55.99Z"/>
  <path class="cls-1" d="M854.87,823.04l-.97-3-108.45,2.09,19.73,60.74,89.7-59.83h0ZM748.01,823.95l104.54-2.01.11.33-86.46,57.67-18.18-55.99Z"/>
  <path class="cls-1" d="M607.6,900.11l-108.45,2.09,19.72,60.74,89.7-59.83-.97-3h0ZM501.71,904.03l104.54-2.01.11.33-86.46,57.67-18.18-55.99Z"/>
  <path class="cls-1" d="M1143.93,788.3l110.9-79.95-9.98-30.75-134.23-1.66,86.16-57.47-.97-3-104.19,2.01,108.35-78.11-9.98-30.75-134.23-1.66,86.15-57.47-.97-3-104.19,2.01,108.35-78.11-9.98-30.74-134.23-1.66,86.16-57.47-.97-3-104.19,2.01,108.35-78.11-9.98-30.74-134.23-1.66,86.15-57.47-.97-3-104.19,2.01,108.35-78.11-9.98-30.75-137.23-1.71h-.16l-26.03,8.46,10.67,32.88-107.53-1.33h-.16l-26.03,8.46,10.7,32.95-107.77-1.33h-.16l-26.03,8.46,10.67,32.88-107.53-1.33h-.16l-26.03,8.46,10.7,32.95-107.77-1.33h-.15l-26.03,8.46,10.67,32.88-107.53-1.33h-.15l-26.03,8.46,10.7,32.95-107.77-1.33h-.15l-26.03,8.46,10.67,32.88-107.53-1.33h-.16l-26.01,8.46,36.5,112.39,25-8.12,18.37,56.58-24.99,8.13,36.5,112.39,24.99-8.13,18.37,56.58-24.99,8.12,36.5,112.39,24.99-8.12,18.37,56.58-24.99,8.12,36.5,112.39,24.99-8.12,18.37,56.58-24.99,8.13,36.5,112.39,26.02-8.46,86.91-62.65,10.1,31.11,26.02-8.46,87.11-62.79,10.13,31.18,26.02-8.46,86.91-62.65,10.1,31.11,26.02-8.46,87.11-62.8,10.13,31.18,26.02-8.46,86.91-62.65,10.1,31.11,26.02-8.46,87.11-62.8,10.13,31.18,26.02-8.46,86.91-62.65,10.1,31.11,26.02-8.46h-.01ZM334.84,898.71l-.97-3-104.19,2.01,84.36-60.81,10.1,31.11,25-8.13,18.37,56.58-24.99,8.13,10.67,32.88-104.5-1.3,86.16-57.47h0ZM351.02,859.62l104.54-2.01.11.33-86.46,57.67-18.18-55.99h0ZM457.88,858.71l-.97-3-104.19,2.01,84.55-60.95,10.13,31.18,25-8.12,18.37,56.58-24.99,8.13,10.7,32.95-104.75-1.3,86.16-57.47ZM474.27,819.55l104.54-2.01.11.33-86.46,57.67-18.18-55.99h0ZM581.14,818.63l-.97-3-104.19,2.01,84.36-60.81,10.1,31.11,24.99-8.13,18.37,56.58-24.99,8.13,10.67,32.88-104.5-1.3,86.16-57.47h0ZM597.31,779.54l104.54-2.01.11.33-86.46,57.67-18.18-55.99h0ZM704.18,778.63l-.97-3-104.19,2.01,84.56-60.95,10.13,31.18,24.99-8.12,18.37,56.58-24.99,8.13,10.7,32.95-104.75-1.3,86.16-57.46h0ZM720.57,739.47l104.54-2.01.11.33-86.46,57.67-18.18-55.99h0ZM826.84,738.95l.59-.39-.97-3-104.19,2.01,84.36-60.81,10.1,31.11,24.99-8.13,18.37,56.58-25,8.13,10.67,32.88-104.5-1.3,85.57-57.07h0ZM843.61,699.46l104.54-2.01.11.33-86.46,57.67-18.18-55.99h0ZM950.47,698.55l-.97-3-104.19,2.01,84.55-60.95,10.13,31.18,24.99-8.13,18.37,56.58-25,8.13,10.7,32.95-104.75-1.3,86.16-57.47ZM966.87,659.39l104.54-2.01.11.33-86.46,57.67-18.18-55.99h0ZM1073.14,658.87l.59-.39-.97-3-104.19,2.01,84.36-60.81,10.1,31.11,24.99-8.13,18.37,56.58-24.99,8.12,10.67,32.88-104.5-1.3,85.57-57.07h0ZM1194.44,617.37l.11.33-86.46,57.67-18.18-55.99,104.54-2.01h0ZM279.97,729.73l-.97-3-104.19,2.01,84.36-60.81,10.1,31.11,24.99-8.13,18.37,56.58-24.99,8.13,10.67,32.88-104.5-1.3,86.16-57.47h0ZM296.14,690.64l104.54-2.01.11.33-86.46,57.67-18.18-55.99ZM403.01,689.73l-.97-3-104.19,2.01,84.55-60.95,10.13,31.18,24.99-8.13,18.37,56.58-24.99,8.13,10.7,32.95-104.75-1.3,86.16-57.47ZM419.4,650.57l104.54-2.01.11.33-86.46,57.67-18.18-55.99ZM526.26,649.65l-.97-3-104.19,2.01,84.36-60.81,10.1,31.11,25-8.13,18.37,56.58-25,8.13,10.67,32.88-104.5-1.3,86.16-57.47h0ZM542.44,610.56l104.54-2.01.11.33-86.46,57.67-18.18-55.99ZM649.3,609.65l-.97-3-104.19,2.01,84.56-60.95,10.13,31.18,24.99-8.13,18.37,56.58-24.99,8.13,10.7,32.95-104.75-1.3,86.16-57.47h0ZM665.7,570.48l104.54-2.01.11.33-86.46,57.67-18.18-55.99ZM771.97,569.97l.59-.39-.97-3-104.19,2.01,84.36-60.81,10.1,31.11,24.99-8.13,18.37,56.58-24.99,8.12,10.67,32.88-104.5-1.3,85.57-57.07h0ZM788.74,530.48l104.54-2.01.11.33-86.46,57.67-18.18-55.99ZM895.6,529.57l-.97-3-104.19,2.01,84.55-60.95,10.13,31.18,24.99-8.13,18.37,56.58-24.99,8.13,10.7,32.95-104.75-1.3,86.16-57.47ZM911.99,490.41l104.54-2.01.11.33-86.46,57.67-18.18-55.99ZM1018.26,489.89l.59-.39-.97-3-104.19,2.01,84.36-60.81,10.1,31.11,24.99-8.13,18.37,56.58-24.99,8.12,10.67,32.88-104.5-1.3,85.57-57.07h0ZM1139.57,448.39l.11.33-86.46,57.67-18.18-55.99,104.54-2.01ZM225.09,560.75l-.97-3-104.19,2.01,84.36-60.81,10.1,31.11,24.99-8.13,18.37,56.58-24.99,8.13,10.67,32.88-104.5-1.3,86.16-57.47h0ZM241.27,521.66l104.54-2.02.11.33-86.46,57.67-18.18-55.99ZM348.13,520.75l-.97-3-104.19,2.01,84.55-60.95,10.13,31.18,25-8.13,18.37,56.58-24.99,8.13,10.7,32.95-104.75-1.3,86.16-57.47ZM364.53,481.58l104.54-2.02.11.33-86.46,57.67-18.18-55.99ZM471.39,480.67l-.97-3-104.19,2.01,84.36-60.81,10.1,31.11,24.99-8.12,18.37,56.58-24.99,8.12,10.67,32.88-104.5-1.3,86.16-57.47h0ZM487.57,441.58l104.54-2.02.11.33-86.46,57.67-18.18-55.99ZM594.43,440.67l-.97-3-104.19,2.01,84.56-60.95,10.13,31.18,24.99-8.12,18.37,56.58-24.99,8.13,10.7,32.95-104.75-1.3,86.16-57.47h0ZM610.82,401.51l104.54-2.02.11.33-86.46,57.67-18.18-55.99ZM717.09,400.99l.59-.39-.97-3-104.19,2.01,84.36-60.81,10.1,31.11,24.99-8.12,18.37,56.58-25,8.12,10.67,32.88-104.5-1.3,85.57-57.07h0ZM733.86,361.5l104.54-2.02.11.33-86.46,57.67-18.18-55.99ZM840.72,360.59l-.97-3-104.19,2.01,84.55-60.95,10.13,31.18,24.99-8.12,18.37,56.58-25,8.12,10.7,32.95-104.75-1.3,86.16-57.47ZM857.12,321.43l104.54-2.02.11.33-86.46,57.67-18.18-55.99ZM963.39,320.91l.59-.39-.97-3-104.19,2.01,84.36-60.81,10.1,31.11,24.99-8.12,18.37,56.58-24.99,8.12,10.67,32.88-104.5-1.3,85.57-57.07h0ZM1084.69,279.41l.11.33-86.46,57.67-18.18-55.99,104.54-2.02ZM170.22,391.77l-.97-3-104.19,2.01,84.36-60.81,10.1,31.11,24.99-8.12,18.37,56.58-24.99,8.12,10.67,32.88-104.5-1.3,86.16-57.47h0ZM186.39,352.68l104.54-2.01.11.33-86.46,57.67-18.18-55.99h0ZM293.26,351.77l-.97-3-104.19,2.01,84.55-60.95,10.13,31.18,24.99-8.12,18.37,56.58-24.99,8.12,10.7,32.95-104.75-1.3,86.16-57.47ZM309.65,312.6l104.54-2.01.11.33-86.46,57.67-18.18-55.99h0ZM416.51,311.69l-.97-3-104.19,2.01,84.36-60.81,10.1,31.11,25-8.12,18.37,56.58-25,8.12,10.67,32.88-104.5-1.3,86.16-57.47h0ZM432.69,272.6l104.54-2.01.11.33-86.46,57.67-18.18-55.99h0ZM539.55,271.69l-.97-3-104.19,2.01,84.56-60.95,10.13,31.18,24.99-8.12,18.37,56.58-24.99,8.12,10.7,32.95-104.75-1.3,86.16-57.47h0ZM555.95,232.52l104.54-2.01.11.33-86.46,57.67-18.18-55.99h0ZM662.22,232l.59-.39-.97-3-104.19,2.01,84.36-60.81,10.1,31.11,24.99-8.12,18.37,56.58-24.99,8.12,10.67,32.88-104.5-1.3,85.57-57.07h0ZM678.99,192.52l104.54-2.01.11.33-86.46,57.67-18.18-55.99h0ZM785.85,191.61l-.97-3-104.19,2.01,84.55-60.96,10.13,31.18,24.99-8.13,18.37,56.58-24.99,8.12,10.7,32.95-104.75-1.3,86.16-57.47ZM802.24,152.45l104.54-2.01.11.33-86.46,57.67-18.18-55.99h0ZM908.51,151.93l.59-.39-.97-3-104.19,2.01,84.36-60.82,10.1,31.11,24.99-8.12,18.37,56.58-24.99,8.12,10.67,32.88-104.5-1.3,85.57-57.07h0ZM1029.82,110.43l.11.33-86.46,57.67-18.18-55.99,104.54-2.01h0ZM37.69,398.73L2.36,289.9l23.96-7.79,109.98,1.37-10.9-33.58,23.96-7.79,110.23,1.37-10.93-33.65,23.96-7.79,109.98,1.37-10.9-33.58,23.96-7.79,110.23,1.37-10.93-33.65,23.96-7.79,109.98,1.37-10.9-33.58,23.96-7.79,110.23,1.37-10.93-33.65,23.96-7.79,109.98,1.37-10.9-33.58,23.96-7.79,135.76,1.68,9.15,28.17-109.44,78.89-24.09,7.88-10.32-31.77-88.64,63.9-24.09,7.88-10.34-31.84-88.84,64.04-24.08,7.88-10.32-31.77-88.64,63.9-24.08,7.88-10.34-31.84-88.84,64.04-24.08,7.88-10.32-31.77-88.64,63.9-24.08,7.88-10.34-31.84-88.84,64.04-24.08,7.88-10.32-31.77-88.64,63.9-24.08,7.88h0ZM63.37,392.7l104.54-2.01.11.33-86.46,57.67-18.18-55.99h0ZM92.56,567.71l-35.34-108.83,24.09-7.79,109.85,1.36-10.9-33.58,24.09-7.79,110.09,1.36-10.93-33.65,24.09-7.79,109.85,1.36-10.91-33.58,24.09-7.79,110.09,1.36-10.93-33.65,24.09-7.79,109.85,1.36-10.9-33.58,24.09-7.79,110.09,1.36-10.93-33.65,24.1-7.79,109.85,1.36-10.9-33.58,24.09-7.79,135.62,1.68,9.15,28.17-109.44,78.89-24.09,7.88-10.32-31.77-88.64,63.9-24.09,7.88-10.34-31.84-88.84,64.04-24.08,7.88-10.32-31.77-88.64,63.9-24.08,7.88-10.34-31.84-88.84,64.04-24.08,7.88-10.32-31.77-88.64,63.9-24.08,7.88-10.34-31.84-88.84,64.04-24.08,7.88-10.32-31.77-88.64,63.9-24.08,7.88h.03ZM118.23,561.67l104.54-2.02.11.33-86.46,57.67-18.18-55.99ZM147.43,736.68l-35.34-108.83,24.09-7.79,109.85,1.36-10.9-33.58,24.09-7.79,110.09,1.36-10.93-33.65,24.09-7.79,109.85,1.36-10.9-33.58,24.09-7.79,110.09,1.36-10.93-33.65,24.09-7.79,109.85,1.36-10.9-33.58,24.09-7.79,110.09,1.36-10.93-33.65,24.1-7.79,109.85,1.36-10.9-33.58,24.09-7.79,135.62,1.68,9.15,28.17-109.44,78.89-24.09,7.88-10.32-31.77-88.64,63.9-24.09,7.88-10.34-31.84-88.84,64.04-24.08,7.88-10.32-31.77-88.64,63.9-24.08,7.88-10.34-31.84-88.84,64.04-24.08,7.88-10.32-31.77-88.64,63.9-24.08,7.88-10.34-31.84-88.84,64.04-24.08,7.88-10.32-31.77-88.64,63.9-24.08,7.88h.03ZM173.1,730.65l104.54-2.01.11.33-86.46,57.67-18.18-55.99ZM202.29,905.66l-35.34-108.83,24.09-7.79,109.85,1.36-10.9-33.58,24.09-7.79,110.09,1.36-10.93-33.65,24.09-7.79,109.85,1.36-10.9-33.58,24.09-7.79,110.09,1.36-10.93-33.65,24.09-7.79,109.85,1.36-10.9-33.58,24.09-7.79,110.09,1.36-10.93-33.65,24.09-7.79,109.85,1.36-10.9-33.58,24.09-7.79,135.62,1.68,9.14,28.17-109.44,78.9-24.09,7.88-10.32-31.77-88.64,63.9-24.09,7.88-10.34-31.84-88.84,64.04-24.08,7.88-10.32-31.77-88.64,63.9-24.08,7.88-10.34-31.84-88.84,64.04-24.08,7.88-10.32-31.77-88.64,63.9-24.08,7.88-10.34-31.84-88.84,64.04-24.08,7.88-10.32-31.77-88.64,63.9-24.08,7.88.03.02ZM227.97,899.62l104.54-2.01.11.33-86.46,57.67-18.18-55.99h0ZM1119.09,794.4l-10.32-31.77-88.76,63.98-23.97,7.79-10.34-31.84-88.95,64.12-23.97,7.79-10.32-31.77-88.76,63.98-23.96,7.79-10.34-31.84-88.95,64.12-23.96,7.79-10.32-31.77-88.76,63.98-23.97,7.79-10.34-31.84-88.95,64.12-23.96,7.79-10.32-31.77-88.76,63.99-23.97,7.79-35.34-108.83,24.09-7.79,109.85,1.36-10.9-33.58,24.09-7.79,110.09,1.36-10.93-33.65,24.09-7.79,109.85,1.36-10.9-33.58,24.09-7.79,110.09,1.36-10.93-33.65,24.09-7.79,109.85,1.36-10.9-33.58,24.09-7.79,110.09,1.36-10.93-33.65,24.09-7.79,109.85,1.36-10.9-33.58,24.09-7.79,135.62,1.68,9.14,28.17-109.56,78.98-23.96,7.79h.02Z"/>
</svg>