<?xml version="1.0" encoding="UTF-8"?>
<svg id="Layer_1" data-name="Layer 1" xmlns="http://www.w3.org/2000/svg" version="1.1" viewBox="0 0 1356 1201.5">
  <defs>
    <style>
      .cls-1 {
        fill: #00ff3b;
        stroke-width: 0px;
      }
    </style>
  </defs>
  <path class="cls-1" d="M212.1,150.23l-83.74,147.23-19.63-9.34,30.61,167.47,32.47,12.81,76.15-114.1-17.23-8.19-18.65-195.9M354.07-.4l-102.42,171.16-19.71-11.41,16.05,194.99,32.46,15.43,90.38-129.94-17.11-9.9.34-230.31"/>
  <path class="cls-1" d="M151.71,484.41l-63.03,95.42-16.03-5.13,28.86,107.78,27.27,7.34,59.02-78.24-14.44-4.62-21.65-122.53M258.05,387.66l-74.13,107.61-16.13-6.17,19.99,122.48,27.34,8.76,68.01-87.1-14.4-5.51-10.67-140.05"/>
  <path class="cls-1" d="M112.51,701.3l-50.39,67.38-13.55-2.98,26.58,74.63,23.5,4.34,48.02-57.39-12.4-2.74-21.77-83.25ZM197.39,632.93l-57.7,74.53-13.63-3.58,20.64,83.41,23.57,5.18,54.21-62.86-12.42-3.25-14.66-93.45"/>
  <path class="cls-1" d="M85.02,853.44l-41.89,50.44-11.71-1.76,24.37,54.4,20.62,2.57,40.4-44.13-10.86-1.62-20.93-59.87M155.56,801.95l-47.08,55-11.8-2.12,20.12,60.09,20.71,3.11,44.91-47.81-10.89-1.95-15.98-66.32"/>
  <path class="cls-1" d="M124.99,925.5l-39.68,42.51-10.4-1.25,19.22,45.09,18.46,1.81,38.26-37.77-9.69-1.16-16.17-49.23Z"/>
  <path class="cls-1" d="M64.67,966.06l-35.83,39.39-10.33-1.03,22.4,41.17,18.38,1.44,34.84-35.17-9.66-.96-19.8-44.85Z"/>
  <path class="cls-1" d="M101.68,1019.77l-34.25,34.01-9.3-.7,18.19,34.9,16.65.98,33.28-30.72-8.72-.67-15.84-37.79Z"/>
  <path class="cls-1" d="M49,1052.79l-31.28,31.77-9.23-.55,20.67,32.07,16.58.72,30.59-28.82-8.7-.51-18.63-34.67Z"/>
  <path class="cls-1" d="M83.3,1094.05l-30.11,27.93-8.41-.34,17.18,27.68,15.16.41,29.42-25.57-7.95-.32-15.29-29.78Z"/>
  <path class="cls-1" d="M36.55,1121.64l-27.73,26.26-8.34-.22,19.15,25.57,15.09.22,27.25-24.14-7.91-.21-17.5-27.47"/>
  <path class="cls-1" d="M68.46,1154.09l-26.86,23.43-7.66-.09,16.2,22.37,13.91.02,26.36-21.69-7.28-.09-14.68-23.97Z"/>
  <path class="cls-1" d="M782.06,306.39l-107.56,109.38-11.41-6.6-32.73,126.93-10.62-5.05,31.38-126.99-93.55,97.43-11.75-5.58,94.63-99.86-11.97-6.95,37.44-165.96-108.14,125.01-13.44-7.8-21.8,144.48-12.31-5.85,20.18-144.73-92.62,110.3-13.77-6.55,93.55-113.15-14.2-8.23,22.61-193.79-106.84,144.99-16.13-9.34-6.3,166.54-14.47-6.88,4.26-167.07-89.73,126.45-16.31-7.75,8.29,144.8,27.59,10.88,80.36-100.43,27.32,12.98-7.78,126.86,23.72,9.37,82.59-89.4,23.29,11.08-19.49,112.39,20.62,8.14,83.41-80.35,20.12,9.56,94.44-89.07-10.26-5.95,47.39-144.24Z"/>
  <path class="cls-1" d="M629.9,558.43l-80.77,76.57-10.35-3.95-16.65,87.63-9.66-3.1,15.62-87.46-71.75,69.48-10.53-3.37,72.5-71.02-10.79-4.12,17.04-109.03-80,84.95-11.87-4.55-7.67,97.13-10.94-3.51,6.49-96.99-70.27,76.55-12.02-3.85,70.92-78.31-12.4-4.76,5.34-122.89-78.01,95.09-13.74-5.25,4.16,108.52-12.52-4.02-5.55-108.47-67.57,85.05-13.8-4.41,13.22,96.29,23.82,6.41,62.39-70.85,23.72,7.6,1.22,86.78,21,5.66,64.54-64.64,20.79,6.65-8.07,78.79,18.65,5.03,65.73-59.37,18.36,5.88,73.2-64.86-9.49-3.63,25.69-97.64Z"/>
  <path class="cls-1" d="M523.77,734.23l-63.95,56.95-9.39-2.46-7.6,63.77-8.8-1.93,6.85-63.55-57.68,52.34-9.49-2.09,58.23-53.39-9.71-2.53,6.47-76.62-62.84,61.87-10.53-2.75-.29,69.31-9.8-2.16-.57-69.11-56.19,56.6-10.64-2.33,56.67-57.77-10.94-2.86-2.74-84.31-60.87,67.67-11.94-3.11,8.92,75.78-11-2.43-9.9-75.59-53.87,61.56-11.94-2.63,15.04,68.22,20.93,3.88,50.73-53.01,20.9,4.6,5.81,62.73,18.77,3.47,52.62-49.21,18.67,4.11-1.64,57.99,16.92,3.13,53.85-45.89,16.79,3.69,59.19-49.59-8.72-2.28,13.68-70.08Z"/>
  <path class="cls-1" d="M445.53,863.82l-52.56,44.22-8.53-1.54-2.23,48.25-8.07-1.2,1.64-48.02-47.97,41.05-8.6-1.28,48.4-41.82-8.82-1.59.56-56.45-51.38,47.33-9.45-1.71,3.79,51.69-8.85-1.32-4.44-51.46-46.59,43.79-9.51-1.42,46.98-44.63-9.78-1.76-6.82-61.02-49.62,50.89-10.53-1.88,11.12,55.59-9.8-1.47-11.83-55.35-44.62,46.89-10.52-1.57,15.52,50.57,18.65,2.31,42.6-41.36,18.65,2.81,8.2,47.19,16.96,2.12,44.22-38.92,16.9,2.55,2.12,44.24,15.48,1.92,45.39-36.71,15.38,2.31,49.39-39.33-8-1.44,6.54-52.48Z"/>
  <path class="cls-1" d="M220.51,939.38l-41.76,39.89-9.42-1.15,12.07,42.32,16.84,1.64,39.99-35.67-8.8-1.06-8.92-45.98Z"/>
  <path class="cls-1" d="M159.98,977.51l-38.02,37.1-9.39-.92,15.4,38.76,16.82,1.33,36.62-33.34-8.8-.86-12.62-42.08Z"/>
  <path class="cls-1" d="M187.4,1027.88l-35.98,32.24-8.5-.63,12.4,33.1,15.33.89,34.75-29.27-8.03-.61-9.97-35.72Z"/>
  <path class="cls-1" d="M134.5,1059.24l-33.06,30.21-8.48-.5,14.99,30.52,15.29.67,32.1-27.54-8.02-.46-12.83-32.89Z"/>
  <path class="cls-1" d="M161.05,1098.38l-31.57,26.7-7.74-.31,12.38,26.5,14.06.38,30.67-24.56-7.36-.29-10.45-28.41Z"/>
  <path class="cls-1" d="M114.07,1124.77l-29.22,25.16-7.72-.21,14.46,24.55,14.03.2,28.52-23.21-7.35-.2-12.71-26.29Z"/>
  <path class="cls-1" d="M139.55,1155.83l-28.09,22.56-7.11-.09,12.18,21.59,13,.02,27.42-20.96-6.78-.08-10.62-23.04Z"/>
  <path class="cls-1" d="M306.92,951.92l-43.3,37.57-8.56-1.03,6.13,39.82,15.43,1.52,41.24-33.8-8.03-.96-2.91-43.12Z"/>
  <path class="cls-1" d="M246.49,987.91l-39.65,35.03-8.6-.84,9.47,36.62,15.43,1.21,38.04-31.65-8.07-.8-6.63-39.58Z"/>
  <path class="cls-1" d="M265.85,1035.31l-37.3,30.65-7.81-.6,7.48,31.49,14.16.84,35.85-27.97-7.38-.56-5-33.85Z"/>
  <path class="cls-1" d="M212.94,1065.16l-34.46,28.79-7.83-.46,10.09,29.11,14.16.62,33.31-26.36-7.4-.43-7.88-31.27Z"/>
  <path class="cls-1" d="M232.81,1102.36l-32.7,25.59-7.19-.29,8.27,25.4,13.09.36,31.65-23.61-6.83-.29-6.29-27.16Z"/>
  <path class="cls-1" d="M185.79,1127.66l-30.42,24.17-7.19-.19,10.34,23.61,13.09.19,29.58-22.36-6.83-.19-8.56-25.21"/>
  <path class="cls-1" d="M205.68,1157.46l-29.08,21.76-6.65-.09,8.68,20.85,12.16.02,28.28-20.25-6.34-.09-7.06-22.2Z"/>
  <path class="cls-1" d="M385.46,963.31l-44.39,35.5-7.83-.94,1.13,37.6,14.16,1.4,42.2-32.09-7.38-.89,2.11-40.58Z"/>
  <path class="cls-1" d="M325.36,997.37l-40.9,33.2-7.84-.77,4.42,34.71,14.23,1.11,39.08-30.14-7.42-.74-1.58-37.38Z"/>
  <path class="cls-1" d="M337.88,1042.12l-38.3,29.22-7.21-.55,3.27,30.02,13.12.77,36.74-26.77-6.85-.51-.77-32.18Z"/>
  <path class="cls-1" d="M285.15,1070.6l-35.56,27.51-7.23-.43,5.86,27.83,13.15.56,34.25-25.28-6.85-.39-3.63-29.8Z"/>
  <path class="cls-1" d="M299.28,1106.06l-33.6,24.55-6.66-.26,4.64,24.41,12.23.32,32.44-22.73-6.37-.26-2.67-26.04Z"/>
  <path class="cls-1" d="M252.33,1130.36l-31.38,23.25-6.68-.19,6.73,22.72,12.23.17,30.42-21.57-6.37-.17-4.95-24.22"/>
  <path class="cls-1" d="M267.34,1158.97l-29.89,21.01-6.22-.08,5.58,20.17,11.41.02,29.01-19.6-5.96-.07-3.94-21.43Z"/>
  <path class="cls-1" d="M1036.11,488.48l-101.05,78.26-7.43-4.31-49.86,91.26-7.19-3.42,48.92-91.09-90.66,71.25-7.79-3.71,91.89-72.79-7.72-4.48,58.54-112.83-103.65,86.69-8.49-4.93-45.99,101.01-8.14-3.87,44.94-100.89-92.18,78.43-8.87-4.23,93.43-80.19-8.85-5.13,54.09-126.91-105.92,96.89-9.78-5.68-40.51,112.69-9.25-4.4,39.31-112.66-93.24,87.02-10.16-4.82-28.07,100.55,18.1,7.15,83.31-72.84,17.54,8.33-34.41,90.71,16,6.31,82.66-66.47,15.41,7.32-39.1,82.42,14.27,5.63,81.58-61.07,13.67,6.5,90.06-66.54-6.82-3.95,61.43-101.22Z"/>
  <path class="cls-1" d="M872.89,670.03l-79.08,58.59-7.19-2.75-32.77,67.04-6.9-2.21,31.96-66.8-71.9,54-7.42-2.38,72.81-55.1-7.45-2.86,36.88-80.17-80.07,63.65-8.08-3.08-28.72,72.87-7.69-2.46,27.88-72.65-72.33,58.42-8.29-2.67,73.24-59.61-8.38-3.2,32.1-88.16-80.7,69.57-9.1-3.47-23.52,79.65-8.58-2.75,22.57-79.44-72.35,63.5-9.32-2.98-15.24,72.03,16.67,4.48,66.25-54.84,16.36,5.23-20.9,66.22,14.99,4.04,66.33-50.89,14.63,4.69-25.31,61.19,13.55,3.66,66.04-47.47,13.19,4.23,72.11-51.16-6.68-2.57,40.42-73.37Z"/>
  <path class="cls-1" d="M751.58,804.93l-64.26,45.74-6.85-1.8-21.89,51.11-6.58-1.45,21.27-50.86-59.04,42.54-6.99-1.54,59.72-43.33-7.06-1.85,23.79-59.65-64.52,48.99-7.59-1.98-18.12,54.79-7.21-1.59,17.47-54.55-58.97,45.42-7.71-1.69,59.64-46.27-7.81-2.04,19.34-64.49-64.47,52.69-8.41-2.19-13.44,58.96-7.95-1.76,12.74-58.72-58.56,48.65-8.53-1.88-7.64,53.85,15.35,2.84,54.58-42.97,15.16,3.34-12.54,50.22,13.98,2.58,54.98-40.39,13.75,3.03-16.51,47.02,12.78,2.36,55.08-38.08,12.55,2.75,59.55-40.73-6.42-1.68,27.32-55.41Z"/>
  <path class="cls-1" d="M657.87,909.13l-53.71,36.83-6.47-1.16-14.7,40.1-6.2-.94,14.17-39.86-49.76,34.52-6.56-.99,50.32-35.12-6.66-1.2,15.41-45.86-53.62,39-7.07-1.27-11.29,42.51-6.77-1.01,10.77-42.27-49.46,36.45-7.18-1.06,50.01-37.12-7.28-1.3,11.42-48.97-53.25,41.45-7.76-1.39-7.21,45.21-7.35-1.1,6.63-44.97-48.9,38.62-7.83-1.18-2.9,41.6,14.18,1.76,46.16-34.74,14.06,2.12-7.09,39.22,13.03,1.62,46.69-32.96,12.9,1.93-10.64,37.12,12.04,1.51,46.96-31.35,11.89,1.78,50.44-33.32-6.12-1.11,18.67-43.11Z"/>
  <path class="cls-1" d="M457.18,973.73l-45.15,33.61-7.18-.87-3.12,35.63,13.07,1.28,42.87-30.55-6.78-.82,6.29-38.28Z"/>
  <path class="cls-1" d="M397.56,1006.04l-41.79,31.54-7.23-.72.19,32.96,13.15,1.04,39.84-28.77-6.83-.67,2.67-35.39Z"/>
  <path class="cls-1" d="M404.29,1048.39l-39.03,27.9-6.68-.5-.38,28.67,12.21.7,37.37-25.66-6.34-.48,2.84-30.64Z"/>
  <path class="cls-1" d="M351.84,1075.63l-36.38,26.33-6.7-.39,2.23,26.65,12.25.53,34.96-24.29-6.37-.38v-28.46"/>
  <path class="cls-1" d="M361.02,1109.48l-34.29,23.61-6.22-.24,1.49,23.47,11.42.31,33.07-21.91-5.94-.24.46-24.99Z"/>
  <path class="cls-1" d="M314.25,1132.86l-32.15,22.37-6.24-.17,3.6,21.91,11.46.17,31.09-20.83-5.96-.15-1.8-23.3Z"/>
  <path class="cls-1" d="M324.99,1160.38l-30.54,20.29-5.82-.07,2.83,19.52,10.72.02,29.6-18.99-5.58-.07-1.2-20.7Z"/>
  <path class="cls-1" d="M522.89,983.27l-45.64,31.92-6.61-.8-6.68,33.82,12.11,1.2,43.28-29.15-6.27-.75,9.81-36.23Z"/>
  <path class="cls-1" d="M463.87,1014.01l-42.41,30.02-6.66-.65-3.46,31.37,12.2.96,40.42-27.49-6.34-.63,6.25-33.58Z"/>
  <path class="cls-1" d="M465.67,1054.19l-39.56,26.7-6.18-.46-3.49,27.44,11.36.65h.02l37.83-24.63-5.89-.44,5.93-29.25Z"/>
  <path class="cls-1" d="M413.64,1080.3l-36.99,25.25-6.23-.36-.94,25.56,11.44.5,35.52-23.37-5.94-.34,3.15-27.23Z"/>
  <path class="cls-1" d="M418.52,1112.68l-34.82,22.73-5.82-.24-1.23,22.61,10.71.29h.02l33.52-21.16-5.55-.22,3.18-24.02Z"/>
  <path class="cls-1" d="M372,1135.2l-32.73,21.59-5.84-.15.84,21.16,10.76.15,31.62-20.15-5.6-.15.94-22.44"/>
  <path class="cls-1" d="M378.97,1161.72l-31.04,19.62-5.48-.07.41,18.92,10.1.02,30.04-18.42-5.26-.07,1.22-20Z"/>
  <path class="cls-1" d="M583.34,992.03l-45.9,30.4-6.11-.74-9.71,32.18,11.24,1.11,43.52-27.86-5.79-.68,12.76-34.4Z"/>
  <path class="cls-1" d="M525.03,1021.35l-42.82,28.65-6.17-.6-6.58,29.93,11.34.89,40.78-26.34-5.86-.58,9.3-31.95Z"/>
  <path class="cls-1" d="M522.6,1059.58l-39.92,25.59-5.75-.43-6.2,26.29,10.62.62,38.16-23.69-5.5-.41,8.6-27.97Z"/>
  <path class="cls-1" d="M471.03,1084.62l-37.44,24.26-5.79-.34-3.68,24.56,10.7.46,35.92-22.51-5.53-.32,5.84-26.1"/>
  <path class="cls-1" d="M472.18,1115.65l-35.21,21.91-5.43-.22-3.65,21.83,10.05.27,33.88-20.46-5.21-.22,5.57-23.11Z"/>
  <path class="cls-1" d="M426,1137.38l-33.18,20.83-5.46-.15-1.59,20.44,10.1.15,32.03-19.5-5.24-.14,3.36-21.64"/>
  <path class="cls-1" d="M429.65,1162.95l-31.43,19.02-5.16-.07-1.73,18.34,9.54.02,30.37-17.88-4.93-.05,3.34-19.38Z"/>
  <path class="cls-1" d="M1099.29,533.78l-98.28,71.18-6.56-3.8-52.56,83.01-6.4-3.04,51.69-82.81-88.81,65.16-6.94-3.28-42.56,75.35,12.78,5.05,80.24-56.42,12.21,5.8,88.05-61.17-6.04-3.51,63.18-91.52Z"/>
  <path class="cls-1" d="M936.17,699.09l-77.81,54.23-6.47-2.48-35.83,61.99-6.25-2,35.11-61.73-71.16,50.19-6.71-2.16-28.81,56.81,12.3,3.32,65.53-44.42,11.94,3.83,71.18-47.73-6.03-2.31,43.02-67.53Z"/>
  <path class="cls-1" d="M736.37,864.13l-58.85,40.01-6.39-1.4-19.78,44.17,11.73,2.17,54.96-36.03-6.01-1.32,24.35-47.61M812.96,823.98l-63.76,42.87-6.23-1.62-24.92,47.84,11.49,2.53,59.21-38.4-5.86-1.54,30.07-51.68Z"/>
  <path class="cls-1" d="M650.8,954.82l-49.86,32.76-6.06-.91-13.62,35.2,11.15,1.39,47.07-29.9-5.74-.85,17.04-37.68M716.57,921.66l-53.61,34.86-5.96-1.08-17.52,37.92,10.98,1.64,50.39-31.7-5.64-1.01,21.34-40.64"/>
  <path class="cls-1" d="M639.12,1000.14l-45.99,28.99-5.67-.68-12.3,30.69,10.45,1.03,43.64-26.67-5.38-.65,15.24-32.71Z"/>
  <path class="cls-1" d="M581.61,1028.14l-43.04,27.4-5.74-.57-9.25,28.62,10.58.82,40.98-25.28-5.45-.53,11.9-30.47Z"/>
  <path class="cls-1" d="M575.53,1064.59l-40.11,24.56-5.38-.39-8.55,25.25,9.95.58,38.37-22.84-5.14-.38,10.86-26.79Z"/>
  <path class="cls-1" d="M524.52,1088.64l-37.75,23.33-5.43-.33-6.08,23.64,10.04.43,36.19-21.73-5.19-.31,8.2-25.06"/>
  <path class="cls-1" d="M522.38,1118.44l-35.47,21.16-5.1-.22-5.76,21.09,9.47.24,34.12-19.79-4.88-.19,7.62-22.29Z"/>
  <path class="cls-1" d="M476.6,1139.43l-33.52,20.15-5.14-.14-3.75,19.79,9.52.14,32.32-18.9-4.93-.14,5.48-20.9"/>
  <path class="cls-1" d="M477.3,1164.13l-31.7,18.44-4.86-.07-3.65,17.81h9.03l30.66-17.36-4.68-.05,5.21-18.77Z"/>
  <path class="cls-1" d="M1248.44,640.69l-89.87,55.56-4.69-2.72-56.23,64.68-4.71-2.24,55.51-64.42-82.59,51.54-5.04-2.38,83.79-52.55-4.86-2.81,64.59-76.29-92.64,60.04-5.22-3.04-55.54,69.95-5.19-2.48,54.79-69.69-84.73,55.47-5.57-2.65,85.95-56.55-5.4-3.13,64.18-83.3-95.45,65.17-5.84-3.37-54.4,75.97-5.74-2.74,53.57-75.74-86.82,59.96-6.18-2.94-45.08,69.31,11.51,4.53,78.73-52.38,10.96,5.22-46.89,64.06,10.45,4.11,77.14-48.82,9.88,4.69-48.16,59.48,9.51,3.75,75.5-45.71,8.97,4.26,81.64-49.01-4.38-2.53,64.55-70.24Z"/>
  <path class="cls-1" d="M690.79,1007.63l-45.95,27.73-5.27-.63-14.52,29.32,9.76.96,43.62-25.59-5-.62,17.37-31.17Z"/>
  <path class="cls-1" d="M634.08,1034.45l-43.14,26.24-5.33-.51-11.53,27.39,9.88.79,41.07-24.31-5.09-.5,14.13-29.1Z"/>
  <path class="cls-1" d="M624.89,1069.26l-40.21,23.62-5.04-.38-10.57,24.27,9.33.55,38.45-22.02-4.81-.36,12.85-25.69Z"/>
  <path class="cls-1" d="M574.45,1092.41l-37.92,22.48-5.09-.29-8.15,22.77,9.42.41,36.36-20.97-4.86-.29,10.24-24.08"/>
  <path class="cls-1" d="M569.46,1121.06l-35.62,20.44-4.79-.19-7.62,20.37,8.92.24,34.27-19.18-4.61-.19,9.45-21.5Z"/>
  <path class="cls-1" d="M524.11,1141.35l-33.74,19.5-4.85-.14-5.64,19.18,8.99.14,32.52-18.34-4.64-.12,7.35-20.2"/>
  <path class="cls-1" d="M522.23,1165.23l-31.92,17.89-4.57-.05-5.36,17.29,8.53.02,30.85-16.88-4.4-.07,6.88-18.2Z"/>
  <path class="cls-1" d="M738.75,1014.59l-45.82,26.57-4.9-.6-16.39,28.05,9.11.91,43.52-24.6-4.67-.57,19.15-29.76Z"/>
  <path class="cls-1" d="M682.9,1040.3l-43.13,25.2-4.98-.5-13.5,26.27,9.27.73,41.09-23.38-4.76-.48,16.01-27.85Z"/>
  <path class="cls-1" d="M670.99,1073.62l-40.21,22.75-4.71-.36-12.33,23.38,8.77.51,38.47-21.26-4.52-.33,14.54-24.7Z"/>
  <path class="cls-1" d="M621.17,1095.93l-38,21.67-4.76-.27-9.98,21.96,8.87.38,36.46-20.29-4.57-.27,12.01-23.2"/>
  <path class="cls-1" d="M613.7,1123.52l-35.73,19.77-4.52-.19-9.25,19.72,8.43.22,34.36-18.58-4.33-.19,11.05-20.77Z"/>
  <path class="cls-1" d="M568.79,1143.16l-33.89,18.88-4.56-.12-7.31,18.59,8.49.12,32.68-17.79-4.38-.12,8.97-19.57Z"/>
  <path class="cls-1" d="M564.62,1166.27l-32.06,17.38-4.33-.05-6.85,16.82,8.08.02,30.97-16.44-4.18-.05,8.38-17.67Z"/>
  <path class="cls-1" d="M904.3,771.78l-70.24,46.84-6.08-1.95-31.55,52.96,11.23,3.03,64.81-41.74-5.69-1.83,37.51-57.32M958.05,792.28l-69.16,43.88-5.53-1.78-33.71,49.56,10.29,2.77,63.99-39.33-5.19-1.66,39.31-53.44ZM992.93,725.16l-76.4,50.41-5.84-2.24-38.19,57.58,10.86,3.47,70.1-44.7-5.46-2.09,44.94-62.45M1044.09,748.65l-74.9,47.06-5.31-2.04-39.96,53.7,9.92,3.18-35.37,46.53,9.45,2.55,63.06-37.17-4.76-1.52,40.68-50-67.99,41.24-5.05-1.62,68.92-42.01-4.97-1.9,46.29-58.01M1090.44,769.93l-73.34,44.12-4.83-1.85-41.29,50.26,9.11,2.91,67.69-39.6-4.56-1.74,47.22-54.11"/>
  <path class="cls-1" d="M793.85,879.15l-58.47,37.74-5.86-1.28-22.45,41.63,10.81,2,54.67-34.16-5.52-1.22,26.82-44.71ZM846.44,892.87l-57.96,35.7-5.38-1.18-24.65,39.34,9.99,1.85,54.28-32.47-5.09-1.13,28.81-42.13M868.73,841.29l-63.1,40.32-5.7-1.49-27.39,44.95,10.57,2.33,58.7-36.33-5.38-1.4,32.28-48.37M919.6,857.08l-62.29,38.04-5.22-1.37-29.34,42.37,9.73,2.14-26.43,37.27,9.27,1.71,53.78-30.93-4.71-1.04,30.42-39.79-57.33,33.87-4.97-1.1,58.06-34.45-4.93-1.28,34-45.45M966.22,871.54l-61.42,35.99-4.81-1.27-30.92,40.03,9.01,1.98,57.36-32.74-4.56-1.2,35.33-42.82"/>
  <path class="cls-1" d="M705.85,964.69l-49.79,31.17-5.6-.84-16.1,33.46,10.35,1.28,47.01-28.55-5.31-.8,19.42-35.72M756.68,973.79l-49.58,29.71-5.19-.79-18.21,31.89,9.62,1.2,46.88-27.34-4.93-.74,21.39-33.94M770.45,933.15l-53.33,33.08-5.5-.99-19.88,35.96,10.17,1.52,50.2-30.21-5.21-.94,23.57-38.44M820.09,943.74l-52.94,31.47-5.09-.91-21.85,34.18,9.44,1.42-19.97,30.43,8.99,1.11,46.64-26.21-4.59-.68,23.05-32.33-49.26,28.4-4.83-.72,49.88-28.86-4.83-.87,25.36-36.42M865.97,953.54l-52.46,30-4.71-.85-23.48,32.55,8.8,1.32,49.5-27.62-4.49-.8,26.85-34.61"/>
  <path class="cls-1" d="M783.4,1021.07l-45.58,25.47-4.57-.55-18,26.91,8.53.84,43.33-23.66-4.37-.53,20.66-28.48Z"/>
  <path class="cls-1" d="M728.42,1045.78l-43.01,24.21-4.68-.46-15.19,25.25,8.68.68,41-22.55-4.45-.43,17.64-26.7Z"/>
  <path class="cls-1" d="M714.17,1077.7l-40.13,21.95-4.42-.32-13.87,22.54,8.27.48,38.4-20.54-4.25-.32,16-23.78Z"/>
  <path class="cls-1" d="M665.02,1099.25l-38.01,20.94-4.49-.26-11.58,21.23,8.36.36,36.46-19.64-4.3-.26,13.55-22.36"/>
  <path class="cls-1" d="M655.32,1125.83l-35.73,19.16-4.27-.19-10.69,19.12,7.96.2,34.37-18.03-4.09-.17,12.43-20.1Z"/>
  <path class="cls-1" d="M610.91,1144.85l-33.96,18.32-4.32-.12-8.79,18.05,8.05.12,32.77-17.29-4.15-.12,10.43-18.95"/>
  <path class="cls-1" d="M604.68,1167.26l-32.13,16.88-4.09-.05-8.2,16.37h7.67l31.05-15.99-3.97-.05,9.68-17.16Z"/>
  <path class="cls-1" d="M1356.48,718.13l-82.11,45.21-3.54-2.04-56.37,52.43-3.61-1.73,55.75-52.16-76.37,42.35-3.82-1.81,77.46-43.12-3.63-2.1,63.7-60.37-84.59,48.26-3.87-2.24-56.58,56.02-3.92-1.86,55.91-55.77-78.41,45.06-4.16-1.97,79.53-45.89-3.99-2.31,64.25-64.97-87.18,51.68-4.26-2.48-56.54,60.08-4.28-2.04,55.83-59.82-80.48,48.1-4.57-2.17-49,55.44,8.67,3.42,73.84-42.94,8.19,3.9-49.53,51.85,7.96,3.15,72.15-40.46,7.51,3.56-49.81,48.67,7.33,2.91,70.53-38.23,6.89,3.27,75.46-40.64-3.32-1.93,62.99-56.3Z"/>
  <path class="cls-1" d="M825.07,1027.13l-45.27,24.48-4.28-.51-19.39,25.83,8.02.79,43.09-22.8-4.09-.5,21.92-27.28Z"/>
  <path class="cls-1" d="M770.95,1050.89l-42.8,23.3-4.37-.45-16.66,24.29,8.17.65,40.85-21.76-4.2-.41,19.01-25.62Z"/>
  <path class="cls-1" d="M754.71,1081.53l-39.97,21.19-4.16-.31-15.21,21.76,7.79.46,38.28-19.89-3.99-.29,17.26-22.92Z"/>
  <path class="cls-1" d="M706.19,1102.34l-37.95,20.24-4.23-.24-12.98,20.53,7.9.34,36.41-19.02-4.06-.24,14.9-21.59"/>
  <path class="cls-1" d="M694.59,1128.02l-35.69,18.56-4.03-.17-11.97,18.54,7.55.21,34.36-17.53-3.89-.15,13.67-19.45Z"/>
  <path class="cls-1" d="M650.68,1146.46l-33.98,17.77-4.08-.1-10.11,17.52,7.62.1,32.78-16.81-3.92-.1,11.7-18.37"/>
  <path class="cls-1" d="M642.63,1168.19l-32.15,16.44-3.9-.05-9.4,15.94h7.3l31.09-15.58-3.77-.05,10.84-16.7Z"/>
  <path class="cls-1" d="M864.05,1032.79l-44.92,23.56-4.01-.5-20.55,24.86,7.54.74,42.8-22-3.85-.46,23-26.19Z"/>
  <path class="cls-1" d="M810.8,1055.66l-42.54,22.46-4.11-.41-17.92,23.4,7.69.61,40.63-21.02-3.94-.39,20.19-24.65Z"/>
  <path class="cls-1" d="M792.82,1085.14l-39.79,20.47-3.92-.29-16.37,21.04,7.37.43,38.12-19.26-3.77-.29,18.36-22.1Z"/>
  <path class="cls-1" d="M744.97,1105.27l-37.83,19.59-3.97-.22-14.21,19.86,7.48.32,36.31-18.46-3.84-.22,16.07-20.87Z"/>
  <path class="cls-1" d="M731.67,1130.07l-35.59,18.01-3.82-.15-13.1,18,7.16.19,34.29-17.04-3.68-.14,14.75-18.87Z"/>
  <path class="cls-1" d="M688.26,1147.98l-33.95,17.28-3.87-.1-11.29,17.04,7.24.1,32.75-16.37-3.73-.1,12.83-17.84"/>
  <path class="cls-1" d="M678.61,1169.07l-32.13,15.99-3.7-.05-10.5,15.53,6.95.02,31.07-15.21-3.58-.04,11.89-16.25Z"/>
  <path class="cls-1" d="M1051.48,827.97l-66.76,38.9-4.64-1.49-36.67,43.82,8.72,2.34,62.07-35.24-4.38-1.4,41.67-46.94ZM1092.36,843.57l-65.51,36.78-4.27-1.37-37.66,41.38,8.07,2.17,61.04-33.48-4.04-1.3,42.37-44.2M1129.95,857.92l-64.24,34.88-3.94-1.27-38.4,39.19,7.5,2.02,60-31.89-3.75-1.2,42.83-41.74ZM1132.64,789.31l-71.76,41.48-4.42-1.69-42.27,47.19,8.38,2.69,66.42-37.43-4.18-1.59,47.82-50.63M1171.23,807.03l-70.17,39.12-4.06-1.56-42.95,44.46,7.74,2.48,65.14-35.48-3.84-1.47,48.16-47.55M1206.63,823.3l-68.61,37.02-3.75-1.44-43.4,42,7.16,2.29,63.85-33.72-3.55-1.35,48.3-44.78"/>
  <path class="cls-1" d="M939.31,917.11l-56.62,32.21-4.59-1.01-27.9,35.39,8.61,1.59,53.2-29.52-4.37-.96,31.68-37.7M980.47,927.85l-55.87,30.69-4.27-.94-29.08,33.7,8.02,1.49,52.56-28.24-4.06-.89,32.7-35.79M1018.66,937.82l-55.06,29.3-3.97-.87-30.06,32.14,7.5,1.39,51.91-27.06-3.78-.84,33.48-34.06M1009.09,884.84l-60.48,34.14-4.45-1.16-32.18,37.92,8.36,1.85,56.61-31.2-4.21-1.1,36.36-40.46ZM1048.63,897.13l-59.5,32.47-4.13-1.08-33.18,36.03,7.78,1.71,55.8-29.78-3.92-1.03,37.15-38.32ZM1085.25,908.48l-58.51,30.94-3.82-1.01-33.95,34.28,7.24,1.59,54.96-28.48-3.65-.96,37.72-36.38"/>
  <path class="cls-1" d="M847.49,990.06l-48.88,27.18-4.51-.67-21.48,29.11,8.41,1.04,46.31-25.16-4.28-.65,24.42-30.84M888.2,997.37l-48.43,26.05-4.2-.63-22.74,27.88,7.88.98,45.93-24.21-4.01-.6,25.57-29.49M926.21,1004.17l-47.94,25.03-3.94-.6-23.81,26.75,7.4.92,45.52-23.32-3.77-.57,26.51-28.24M908.51,962.61l-51.93,28.67-4.39-.79-24.85,31.06,8.22,1.23,49.05-26.48-4.18-.75,28.07-32.95ZM948.06,971.06l-51.33,27.44-4.09-.74-25.98,29.7,7.69,1.16,48.56-25.42-3.9-.7,29.07-31.44ZM984.9,978.91l-50.68,26.31-3.82-.68-26.91,28.45,7.21,1.08,48.03-24.44-3.67-.65,29.85-30.05"/>
  <path class="cls-1" d="M900.58,1038.1l-44.51,22.7-3.79-.46-21.55,23.93,7.11.68,42.46-21.25-3.63-.43,23.91-25.18Z"/>
  <path class="cls-1" d="M848.23,1060.16l-42.27,21.67-3.85-.39-19.01,22.58,7.26.56,40.39-20.32-3.72-.36,21.2-23.74Z"/>
  <path class="cls-1" d="M828.72,1088.54l-39.55,19.81-3.7-.27-17.37,20.36,6.95.39,37.92-18.68-3.56-.26,19.3-21.35Z"/>
  <path class="cls-1" d="M781.53,1108.02l-37.66,18.97-3.77-.22-15.28,19.24,7.07.31,36.19-17.91-3.63-.21,17.08-20.18Z"/>
  <path class="cls-1" d="M766.75,1132.02l-35.45,17.5-3.63-.15-14.08,17.48,6.8.19,34.17-16.57-3.49-.14,15.69-18.3Z"/>
  <path class="cls-1" d="M723.86,1149.42l-33.88,16.8-3.67-.1-12.31,16.57,6.88.1,32.7-15.94-3.55-.1,13.82-17.33Z"/>
  <path class="cls-1" d="M712.77,1169.91l-32.06,15.58-3.53-.05-11.44,15.16h6.61l31.02-14.83-3.39-.03,12.79-15.82Z"/>
</svg>