<?xml version="1.0" encoding="UTF-8"?>
<svg id="LOUD_Pattern_01" data-name="LOUD Pattern 01" xmlns="http://www.w3.org/2000/svg" version="1.1" viewBox="0 0 555.1 500.7">
  <defs>
    <style>
      .cls-1 {
        fill: #13ff00;
        stroke-width: 0px;
      }
    </style>
  </defs>
  <g>
    <path class="cls-1" d="M341.1,0l-207.4,11.1c-.8,0-1.2.9-.8,1.6l5.1,7.6c.1.2.4.4.6.4l129.2,29.8c.1,0,.2,0,.4,0l53.7-7.5c.3,0,.5-.2.7-.4l25.2-36.2c.3-.4.2-1-.2-1.3l-5.9-4.8c-.2-.2-.4-.2-.7-.2ZM288.1,38.7l-78.3-21.6c-1.1-.3-.9-1.9.2-2l98.3-6.7c.8,0,1.4.9.9,1.6l-20,28.3c-.2.3-.7.5-1.1.4Z"/>
    <path class="cls-1" d="M209.3,46.1L78.5,8.5c0,0-.1,0-.2,0L16.7,1.1c-.7,0-1.3.6-1.1,1.3l49.3,131.1c.2.5.7.8,1.2.6l45.9-15c0,0,.1,0,.2,0l99.5-56.5c.4-.2.6-.6.5-1l-2.2-14.6c0-.4-.3-.7-.7-.8ZM105.7,93.4l-16.8-54.4c-.2-.7.4-1.4,1.1-1.3l103.5,18c1,.2,1.1,1.5.2,1.9l-86.6,36.5c-.5.2-1.2,0-1.3-.6Z"/>
    <path class="cls-1" d="M109.6,126.6L.7,160.7c-.4.1-.7.6-.7,1l2.8,45c0,.6.5,1,1.1.9l88-7.2c.4,0,.7-.3.9-.6l25.6-68.9c.2-.5,0-1.1-.6-1.3l-7.5-3.1c-.2,0-.5,0-.7,0ZM90.6,187.3l-47.3-7.2c-1-.1-1.2-1.5-.3-1.9l59.2-28c.8-.4,1.7.4,1.4,1.2l-11.9,35.1c-.2.5-.6.7-1.1.7Z"/>
    <path class="cls-1" d="M196.5,83l-51.2,27.5c-.1,0-.2.1-.3.3l-24.7,30.4c0,.1-.1.2-.2.4l-14.9,52.8c-.1.4,0,.9.4,1.1l2.8,1.9c.4.3,1,.2,1.3-.2l90.5-110.7c.4-.4.3-1.1-.2-1.4l-2.5-1.9c-.3-.2-.7-.3-1.1,0ZM128.4,163.4l8.6-35.1c0-.3.3-.5.5-.7l32.3-15.3c1-.5,1.9.7,1.2,1.5l-40.8,50.4c-.7.8-2,.2-1.7-.9Z"/>
    <path class="cls-1" d="M246.5,51.1l-14.6,1.1c-.3,0-.6.2-.7.4l-98.7,132.3c-.6.7.1,1.8,1,1.6l27.8-6.2c0,0,.2,0,.3-.1l126.8-72.4c.2-.1.3-.3.4-.5l11-27c.2-.5,0-1-.5-1.3l-52.3-27.8c-.2,0-.4-.1-.5-.1ZM190.1,134.9l41.7-61.5c.3-.4.8-.6,1.2-.3l44.5,20.4c.8.4.8,1.4,0,1.8l-86.2,41c-.9.4-1.8-.6-1.3-1.5Z"/>
    <path class="cls-1" d="M170.1,188.2l-82.4,16.8c-.2,0-.4.2-.6.4l-9.1,11.4c-.3.4-.3.9,0,1.3l75.8,80.2c.4.4,1,.4,1.4,0l8.9-8.1c.1-.1.2-.3.3-.4l23-74.3c0-.3,0-.6-.1-.8l-16.2-26.1c-.2-.4-.6-.5-1-.5ZM147.9,272.8l-36.7-41.4c-.5-.5-.2-1.4.5-1.6l56.2-16.3c.8-.2,1.5.5,1.2,1.3l-19.5,57.7c-.2.7-1.2.9-1.7.3Z"/>
    <path class="cls-1" d="M298.6,150l-6.2-27c-.1-.6-.8-1-1.4-.7l-119.3,57.3c-.7.3-.8,1.3-.1,1.7l43.2,28.5c0,0,.2.1.3.1l79.8,21.9c.4.1.9,0,1.1-.4l7.6-12.2c.1-.2.2-.4.1-.6l-5-68.5c0,0,0-.1,0-.2ZM246.7,185.7l38-28.4c.6-.5,1.5,0,1.6.6l9.3,58.6c.1.9-.8,1.5-1.5,1l-47.3-30.3c-.6-.4-.6-1.2,0-1.6Z"/>
    <path class="cls-1" d="M71.6,224.2l-49.7,7.4c-.5,0-.9.6-.8,1.1l4.1,35.2c0,0,0,.1,0,.2l43.1,132.5s0,0,0,.1l10.1,21.8c.4.9,1.8.7,1.9-.3l17.9-170.8c0-.3,0-.6-.3-.8l-25.6-26.2c-.2-.2-.5-.3-.9-.3ZM66.4,368.4l-34.3-100.9c-.3-.9.7-1.7,1.5-1.1l36.1,25.3c.3.2.4.5.4.8l-1.9,75.5c0,1.1-1.6,1.4-1.9.3Z"/>
    <path class="cls-1" d="M154.3,369.6l-40.6-100.5c-.2-.5-.7-.7-1.1-.6l-10.5,2.3c-.4,0-.8.5-.8.9l-12.4,165s0,0,0,.1l2.3,62.9c0,.9,1.2,1.3,1.8.6l72.6-86.7c.2-.2.3-.6.2-.9l-11.5-43s0,0,0-.1ZM109.3,414.6l1.2-119.5c0-1.1,1.6-1.4,1.9-.3l30.9,90.2c.1.4,0,.8-.3,1.1l-32.1,29.3c-.6.6-1.7.1-1.7-.7Z"/>
    <path class="cls-1" d="M141.9,307l-3,6.7c-.1.2-.1.5,0,.7l27.7,75.9c0,.2.2.3.3.4l32.3,28.7c.2.2.4.2.6.3l58.8,1.6c.4,0,.8-.2.9-.6l2.9-6.3c.2-.4,0-.9-.2-1.2l-118.8-106.6c-.5-.5-1.3-.3-1.6.3ZM185.2,396.2l-15.8-51.8c-.3-1,.9-1.7,1.6-1l57.3,51c.7.6.3,1.7-.6,1.7l-41.5.9c-.4,0-.8-.3-1-.7Z"/>
    <path class="cls-1" d="M319.1,354.8l-30.4-55.7c-.2-.3-.5-.5-.9-.5l-135.1,4.3c-.9,0-1.3,1.2-.6,1.8l97.8,75.3s0,0,0,0l99.8,65.2c.3.2.7.2,1.1,0l4.7-2.9c.4-.3.6-.8.4-1.2l-36.7-86.2s0,0,0,0ZM271.2,372.5l34.8-9.3c.4-.1.9,0,1.1.5l37.4,68.2c.5,1-.7,1.9-1.5,1.3l-72.1-58.9c-.6-.5-.4-1.5.4-1.7Z"/>
    <path class="cls-1" d="M231.1,251.3l-39.4-18.8c-.5-.3-1.2,0-1.4.6l-19.3,59.5c-.2.6.3,1.3,1,1.3l63.8-.5s0,0,0,0l46.6-4.4c.5,0,.8-.4.9-.9l.4-3c0-.4-.1-.8-.5-1l-52-32.8s0,0-.1,0ZM228.1,282.5l3-19c.1-.7.8-1,1.4-.7l41,20.7c1,.5.6,1.9-.5,1.9l-43.9-1.6c-.6,0-1-.6-1-1.2Z"/>
    <path class="cls-1" d="M299.4,296.1l42.3,78.7c0,0,0,.1.1.2l19.5,22.3c.2.2.4.3.6.3l75.4,13.2c.3,0,.7,0,.9-.3l17.9-20.7c.4-.5.3-1.2-.2-1.5l-155.2-93.5c-.9-.5-1.9.4-1.4,1.3ZM348,374.8l-29-52.9c-.5-1,.6-1.9,1.5-1.3l48.7,37.6c.5.4.5,1.2,0,1.6l-19.7,15.3c-.5.4-1.2.2-1.5-.3Z"/>
    <path class="cls-1" d="M409.9,261.9c0-.5-.3-.9-.8-1l-67-16.1-134.4-25.1c-.2,0-.4,0-.6,0l-8.2,3.7c-.7.3-.8,1.3-.1,1.8l114.1,69.9s0,0,0,0l95.6,47.6c.7.3,1.4-.2,1.4-.9l-.2-80ZM323,279.4l-97.9-48.7c-1.1-.5-.5-2.1.7-1.9l112.1,25.1c.7.1,1,.9.6,1.5l-14.2,23.6c-.3.4-.8.6-1.3.4Z"/>
    <path class="cls-1" d="M316.1,179.5l-8.3,1.8c-.5.1-.8.6-.8,1.1l4.9,45.9c0,.3.2.6.5.7l9.2,5.9c.1,0,.2.1.4.1l95.1,16.3c.6.1,1.2-.4,1.2-1l.2-35.9c0-.4-.3-.8-.7-1l-101.1-33.9c-.2,0-.4,0-.5,0ZM319.6,220.8l-2.9-26.2c0-.8.7-1.4,1.4-1l55.3,27.2c1,.5.6,1.9-.5,1.9l-52.4-1c-.5,0-.9-.4-1-.9Z"/>
    <path class="cls-1" d="M355,169.1l-38.2-78.3c-.2-.3-.5-.5-.8-.6l-12.9-1.1c-.6,0-1.1.4-1.1,1l2.2,67.1c0,0,0,.2,0,.2l4.1,14.3c0,.3.4.6.7.7l48.1,13.1c.7.2,1.4-.4,1.2-1.2l-3.2-15.1c0,0,0-.2,0-.2ZM315.4,160.5l-1.2-47.8c0-1.1,1.5-1.4,1.9-.4l24,53.6c.3.8-.3,1.6-1.2,1.4l-22.8-5.8c-.4-.1-.7-.5-.8-.9Z"/>
    <path class="cls-1" d="M435.5,74.8l-117.5.5c-.7,0-1.2.7-.9,1.3l7.7,22.7c0,0,0,.1,0,.2l58.9,94.5c.1.2.3.3.5.4l22.6,9.1c.5.2,1.1,0,1.3-.6l30.9-92.7c0-.1,0-.3,0-.4l-2.5-34.1c0-.5-.5-.9-1-.9ZM390.3,182.2l-43.9-78.7c-.4-.7.2-1.6,1-1.5l54.5,5.3c.6,0,1,.6.9,1.1l-10.5,73.5c-.1.9-1.4,1.2-1.9.3Z"/>
    <path class="cls-1" d="M484.3,23.2l-29.3,1.6s0,0-.1,0l-174.9,32.9c-.8.2-1.1,1.2-.4,1.8l14.8,11.7c.2.1.4.2.7.2l172.4-5.5s0,0,.1,0l26.4-3.7c.6,0,1-.7.8-1.2l-9.5-37c-.1-.5-.5-.8-1-.7ZM345.2,58.1l113.9-21.8c.5,0,1,.2,1.1.6l7,19c.2.6-.2,1.3-.9,1.3l-120.9,2.8c-1.2,0-1.4-1.8-.2-2Z"/>
    <path class="cls-1" d="M490.4,233.8l-20.9-102.5c0-.2-.2-.4-.4-.6l-23.3-18.5c-.6-.5-1.5-.1-1.6.6l-30.3,202.3c0,.1,0,.3,0,.4l7.6,30.7c.2.8,1.3,1,1.8.3l67.5-98.9c.1-.2.2-.4.2-.6l-.5-13.2c0,0,0-.1,0-.2ZM449,275.7l12.1-112.9c.1-1.1,1.7-1.2,2-.1l18.8,78.1c0,.3,0,.7-.2.9l-30.9,34.8c-.6.7-1.8.2-1.7-.8Z"/>
    <path class="cls-1" d="M521.8,305.4l-35.9-32.3c-.2-.2-.5-.3-.8-.2l-6,1.1c-.3,0-.5.2-.7.4l-55.7,85c-.3.5-.2,1.1.3,1.4l49.4,29.6c.5.3,1.1.1,1.4-.3l48.9-76.7c.1-.2.2-.4.2-.6l-.7-6.7c0-.2-.1-.5-.3-.6ZM475.4,333.6l14.8-48.2c.2-.7,1.1-.9,1.6-.4l20.4,18.4c.5.4.4,1.1,0,1.5l-35.2,29.8c-.8.6-1.9-.1-1.6-1.1Z"/>
    <path class="cls-1" d="M550,116.8l-82.1-44.6c-.7-.4-1.5.2-1.5,1l2.3,28.2c0,0,0,.1,0,.2l45.9,189.3c0,.2.1.4.3.5l23.3,22.6c.6.6,1.6.2,1.7-.6l15.3-152.7c0,0,0-.1,0-.2l-4.6-42.8c0-.3-.2-.6-.5-.8ZM521.7,259.6l-33.2-142c-.2-.9.7-1.5,1.5-1.1l40.7,24.6c.3.2.5.5.5.9l-7.4,117.4c0,1.1-1.7,1.3-2,.2Z"/>
  </g>
  <path class="cls-1" d="M39.7,329.7l-8.7-15.4c-.4-.8-1.6-.6-1.8.2l-22.2,78.5c0,.2,0,.4,0,.6l3.2,9.6c0,0,0,.1,0,.1l48.9,92.9c.2.4.8.6,1.2.5l16.1-6c.5-.2.7-.7.6-1.2l-37.3-159.7c0,0,0-.2-.1-.3ZM16.9,396.5l13.1-36.6c.3-.9,1.7-.9,1.9.1l22.6,98.8c.3,1.1-1.3,1.7-1.8.7l-35.8-62.2c-.1-.3-.2-.6,0-.8Z"/>
  <path class="cls-1" d="M305.8,423.1h-21.3s0,0-.1,0l-131.9,18.6c-.3,0-.5.2-.7.4l-14.2,20.1c-.4.6,0,1.4.7,1.6l201.4,31.5c0,0,.2,0,.3,0l37.4-3.8c.9,0,1.2-1.1.6-1.7l-71.4-66.4c-.2-.2-.4-.3-.7-.3ZM187,449.3l104.5-16.5c.4,0,.7,0,.9.4l25.9,33c.6.7,0,1.7-.9,1.6l-130.4-16.5c-1.1-.1-1.2-1.8,0-2Z"/>
  <path class="cls-1" d="M161.1,473.6l-20.9-2c-.2,0-.5,0-.7.2l-30.8,22.1c-.7.5-.5,1.7.4,1.8l19.9,3s0,0,.1,0h126c.2,0,.5,0,.7-.3l6.4-5.7c.6-.6.3-1.6-.5-1.7l-100.6-17.4s0,0,0,0ZM139.2,490.4l15.1-10.8c.2-.2.5-.2.7-.2l68.8,10.8c1.2.2,1.1,2-.2,2h-83.9c-1,0-1.4-1.2-.6-1.8Z"/>
  <path class="cls-1" d="M377,407.7l-17,45.9c0,.1,0,.2,0,.3v7.7c0,.3.2.7.5.8l44.4,28.5c.2.1.3.2.5.2h8.8c.5,0,.8-.3,1-.7l18.3-68c.1-.5-.2-1.1-.7-1.2l-54.5-14c-.5-.1-1,.1-1.2.6ZM369.3,462.5l22.2-22.2c.3-.3.7-.4,1.1-.2l1.2.5c.3.1.5.4.6.8l6,40.1c.1.8-.8,1.5-1.5,1l-29.4-18.5c-.5-.3-.6-1.1-.2-1.6Z"/>
  <path class="cls-1" d="M538.5,333.4l-8.1-6.5c-.4-.4-1.1-.3-1.4.2l-67.7,89.8s0,0,0,.1l-35.3,67.6c-.3.6,0,1.4.8,1.5l111.9,14.1c.6,0,1.1-.3,1.1-.9l4.5-57s0,0,0-.1l-5.2-108c0-.3-.1-.6-.4-.7ZM527.9,439.5l-42.1-11.8c-.6-.2-.9-.9-.6-1.4l44.2-81.3c.5-.9,1.9-.5,1.9.5l-2.1,93.1c0,.7-.6,1.1-1.3.9Z"/>
  <path class="cls-1" d="M531.3,3.1h-10.2c-.2,0-.5,0-.6.2l-25.2,20.9c0,0-.2.2-.2.3l-3.1,5.3c-.2.3-.2.7,0,1l42.3,69c.5.7,1.6.6,1.8-.3l7.5-26.5c0-.1,0-.3,0-.4l-11.3-68.7c0-.5-.5-.8-1-.8ZM517,46.7l-17.4-17.3c-.4-.4-.4-1.1,0-1.5l20.9-17.4c.7-.6,1.7,0,1.6.9l-3.5,34.7c0,.8-1.1,1.2-1.7.6Z"/>
  <path class="cls-1" d="M355.6,12.6l-15.2,22.9c-.5.7.1,1.7,1,1.5l21.3-3s0,0,0,0l100.3-21.5c.3,0,.5-.2.6-.4l3.5-5.6c.4-.7,0-1.6-.9-1.5l-109.9,7.2c-.3,0-.6.2-.8.4ZM364.6,27.1l6.4-10.7c.2-.3.5-.5.8-.5l59.8-3.7c1.2,0,1.5,1.7.3,2l-66.3,14.4c-.9.2-1.5-.7-1.1-1.5Z"/>
  <path class="cls-1" d="M14.1,35.3l-1.8,3.4c0,.1-.1.3-.1.4l-2.3,76.2c0,.1,0,.2,0,.3l8.7,31c.2.5.7.8,1.2.7l32.3-9.6c.4-.1.6-.4.7-.8l2.4-16.3c0-.2,0-.4,0-.6L15.9,35.3c-.3-.8-1.4-.8-1.8,0ZM17.7,116.1v-56.8c0-1.1,1.5-1.4,1.9-.4l18.7,43.3c.2.4,0,.9-.3,1.2l-18.7,13.5c-.7.5-1.6,0-1.6-.8Z"/>
</svg>