<?xml version="1.0" encoding="UTF-8"?>
<svg id="Layer_1" data-name="Layer 1" xmlns="http://www.w3.org/2000/svg" version="1.1" xmlns:xlink="http://www.w3.org/1999/xlink" viewBox="0 0 596 335">
  <defs>
    <style>
      .cls-1 {
        fill: none;
      }

      .cls-1, .cls-2, .cls-3 {
        stroke-width: 0px;
      }

      .cls-4 {
        clip-path: url(#clippath);
      }

      .cls-2 {
        fill: #13ff00;
      }

      .cls-3 {
        fill: #00ff3b;
      }
    </style>
    <clipPath id="clippath">
      <rect class="cls-1" width="596" height="335"/>
    </clipPath>
  </defs>
  <g class="cls-4">
    <g>
      <path class="cls-2" d="M70.46,0c.9,2.91,1.78,5.83,2.7,8.73,1.7,5.37,3.46,10.72,5.1,16.11.89,2.93.77,5.98.99,9.2-3.92-.23-7.6-.44-11.51-.67.29.8.45,1.34.66,1.85,4.56,10.92,9.12,21.84,13.69,32.76.16.38.3.77.5,1.13,2.05,3.7,2.57,7.82,3.3,11.88.02.14-.04.29-.09.66-3.29.31-6.62.61-10.19.94.32.69.54,1.24.82,1.76,5.19,9.65,10.38,19.3,15.58,28.95.86,1.59,1.75,3.17,2.62,4.75.15.27.33.54.42.83.74,2.36,1.47,4.73,2.26,7.29-3,1.16-6.14,1.54-9.23,2.62.43.69.76,1.26,1.13,1.8,6.3,9.35,12.54,18.73,18.93,28.01,1.97,2.87,2.99,6.1,4.43,9.35-2.48,1.48-5.16,2.41-7.78,3.74.34.48.59.86.87,1.21,7.26,8.82,14.57,17.6,21.74,26.5,1.63,2.02,2.75,4.46,4.17,6.81-1.96,1.93-4.24,3.16-6.33,4.85.55.58,1,1.07,1.46,1.54,1.99,2.03,4.03,4.02,5.97,6.09.74.79,1.54,1.04,2.59,1.07,4.23.11,8.48.17,12.7.51,4.89.39,9.77.97,14.64,1.62,6.67.88,13.25,2.27,19.76,3.95,6.71,1.73,13.34,3.75,19.77,6.36,2.89,1.17,5.49,2.89,7.82,4.96.1.09.13.24.21.4-.21,0-.37.04-.51,0-3.46-1.22-6.95-2.36-10.36-3.71-9.4-3.72-19.1-6.45-28.97-8.54-6.11-1.29-12.29-2.3-18.52-2.87-.15-.01-.3.03-.76.08,1.57.97,2.95,1.78,4.29,2.65,1.36.89,2.7,1.83,4.06,3.27-.83.06-1.32.13-1.81.14-1.86.02-3.73.12-5.58.02-3.61-.2-7.21-.57-10.82-.76-6.87-.36-13.74-.61-20.62-.39-5.79.19-11.57.58-17.33,1.2-4.11.44-8.2,1.07-12.29,1.63-.23.03-.45.17-.91.35,3.57,1.86,6.84,3.8,9.9,6.44-.53.22-.88.39-1.24.51-1.28.4-2.6.71-3.85,1.18-3.4,1.27-6.89,2.11-10.48,2.73-9.27,1.61-18.42,3.79-27.47,6.43-11.13,3.25-22.02,7.18-32.69,11.71-.36.15-.69.37-1.29.69,4.08,2.03,7.83,4.12,11.41,6.78-.4.32-.62.52-.87.68-3.16,2.07-6.32,4.14-9.48,6.19-.52.34-1.06.65-1.62.91-6.69,3.15-13.37,6.31-20.07,9.43-.72.34-1.53.51-2.3.76v-24.5c.46-.22.94-.41,1.38-.67,1.25-.73,2.46-1.54,3.74-2.2.71-.37,1.55-.69,2.33-.69,2.01,0,4.04.04,6.02.34,1.2.18,2.06-.04,2.98-.76,4.32-3.38,8.86-6.44,13.5-9.36,11.2-7.05,22.96-12.92,35.62-16.92.45-.14.88-.34,1.32-.51-1.11.3-1.44-.51-1.81-1.18-3.95-7.26-8.01-14.47-11.82-21.8-6.13-11.79-11.61-23.89-16.53-36.23-4.06-10.17-7.79-20.46-11.14-30.9-3.61-11.28-6.79-22.67-9.52-34.17-2.51-10.6-4.81-21.26-6.37-32.05-.66-4.55-1.46-9.08-2.08-13.63-.51-3.73-.89-7.49-1.26-11.24-.51-5.09-1-10.18-1.41-15.27-.3-3.76-.41-7.53-.7-11.29-.57-7.33-.53-14.66-.52-22h18c.09.24.18.48.26.73,2.15,6.8,4.29,13.6,6.43,20.39.16.49.35.99.4,1.49.26,2.52.49,5.04.7,7.56.03.34-.07.68-.12,1.22-3.98-.1-7.88-.2-11.92-.3.1.45.13.7.21.93.8,2.4,1.52,4.84,2.44,7.19,4.46,11.46,8.97,22.91,14.65,33.84,1.18,2.28,2.02,4.62,2.4,7.15.2,1.33.53,2.63.79,3.95.07.34.1.69.19,1.25-4.05.47-8.06.55-12.17,1,.21.55.32.93.49,1.28.44.88.93,1.73,1.36,2.61,6.37,12.79,13.74,25,21.62,36.91.17.26.38.51.47.79.9,2.64,1.79,5.28,2.67,7.93.02.07-.06.18-.16.43-3.91.74-7.9,1.49-12.09,2.29.42.67.7,1.15,1,1.61,6.97,10.47,14.48,20.54,22.68,30.07,3.14,3.64,5.93,7.4,7.57,11.94.17.46.39.9.65,1.49-4.05,1.29-7.92,2.51-11.96,3.79.41.54.66.92.95,1.25,9.52,10.79,19.64,20.98,30.25,30.7,1.03.94,1.69,2.14,2.33,3.56-1.82.4-3.47.77-5.12,1.12-1.67.35-3.34.68-5.01,1.04-1.72.37-3.43.74-5.14,1.17-1.59.39-3.16.85-4.75,1.29,2.5.1,4.92.15,7.34.31.96.06,1.84-.03,2.72-.39,5.19-2.1,10.59-3.56,16.03-4.79,6.21-1.41,12.52-2.16,18.88-2.56.44-.03.88-.17,1.44-.29-.33-1.73-.68-3.29-1.33-4.91-3.5,1.93-6.71,3.99-10.29,5.69-.94-1.49-1.75-2.93-2.7-4.26-1.18-1.64-1.77-3.47-2.17-5.41-2.28-11.24-4.41-22.51-6-33.88-.1-.74-.27-1.48-.44-2.38-4.03,1.42-7.75,3.06-11.79,4.32-1.13-2.6-2.21-5.05-3.26-7.51-.16-.37-.17-.81-.21-1.22-.34-3.39-.78-6.78-.97-10.18-.5-9.18-.89-18.38-1.33-27.56-.03-.56-.07-1.11-.12-1.92-4.32.92-8.48,1.81-12.76,2.72-.76-2.21-1.5-4.24-2.16-6.3-.28-.88-.49-1.8-.52-2.71-.06-1.96-.03-3.93.04-5.89.22-5.94.39-11.88.75-17.82.32-5.21.86-10.4,1.3-15.61.04-.54,0-1.08,0-1.73-4.59.13-8.98.81-13.34.88-.57-1.37-1.9-7.45-1.9-8.62,0-.36.06-.72.11-1.08,1.67-14,4.14-27.87,7.23-41.79-4.7-.26-9.37-.51-14.04-.77-.12-.42-.22-.66-.25-.91-.23-2.26-.49-4.52-.65-6.79-.06-.91-.02-1.88.2-2.76,1.05-4.21,2.18-8.4,3.29-12.6.8-2.99,1.61-5.98,2.42-8.97h21.11Z"/>
      <path class="cls-2" d="M1.55,335c.25-.56.45-1.15.75-1.67,8.32-14.26,17.58-27.89,27.91-40.78.78-.97,1.6-1.9,2.31-2.92,3.1-4.46,7.72-7.1,12.07-10.05.85-.57,1.75-1.07,2.71-1.65,4.08,3.76,7.62,7.92,11.33,12.14.5-.52.89-.9,1.25-1.32,5.39-6.28,11.08-12.29,17.07-17.99,6.96-6.64,14.22-12.94,22.08-18.53.71-.5,1.49-.94,2.31-1.23,2.62-.95,5.29-1.79,7.91-2.73.99-.35,1.64-.14,2.23.74,2.23,3.35,4.51,6.68,6.76,10.01.26.38.49.77.82,1.27.55-.36,1.02-.64,1.47-.97,7.29-5.3,15-9.94,23.08-13.92,4.64-2.29,9.37-4.39,14.3-5.96.73-.23,1.51-.41,2.27-.44,2.32-.08,4.65-.07,6.98-.11.86-.02,1.45.29,1.86,1.09,1.57,3.14,3.19,6.26,4.78,9.38.21.41.38.83.63,1.39.58-.16,1.12-.28,1.64-.46,6.67-2.3,13.5-3.92,20.5-4.78,4.41-.54,8.86-.77,13.31-.43,1.17.09,2.32.5,3.45.82.84.24,1.64.68,2.49.85,1.84.35,2.83,1.52,3.42,3.18.89,2.48,1.82,4.94,2.7,7.42.44,1.23.41,1.28,1.73,1.32,5.24.15,10.4.89,15.48,2.17,4.53,1.14,8.96,2.61,13.03,4.89,2.28,1.27,4.25,3.1,6.32,4.73.34.27.57.75.7,1.18.77,2.51,1.52,5.03,2.23,7.57.2.71.36,1.3,1.15,1.67,5.83,2.75,11.13,6.3,15.98,10.56,4.39,3.85,8.14,8.23,11.27,13.12,1.16,1.81,1.67,3.92,1.87,6.02.19,1.95.9,3.45,2.22,4.9,4.74,5.24,8.53,11.16,11.82,17.4.36.68.63,1.41.94,2.12h-8.69c-.64-1.58-1.26-3.17-1.91-4.74-.63-1.53-1.27-3.05-1.95-4.56-.67-1.51-1.21-3.1-2.3-4.8-.77,3.8-1.51,7.21-2.97,10.46-1.12-1.01-4.2-5.25-4.84-6.68-2.88-6.42-6.1-12.66-9.77-18.67-3.29-5.39-6.88-10.57-10.77-15.55-.3-.39-.66-.73-1.22-1.36-.38,4.42-.64,8.52-1.83,12.72-1.38-1.02-2.52-1.98-3.77-2.78-1.38-.88-2.45-2.03-3.44-3.31-3.92-5.02-8.23-9.68-12.84-14.09-4.67-4.48-9.62-8.63-14.88-12.41-.38-.27-.8-.49-1.44-.87.31,4.97.57,9.59-.02,14.37-.68-.18-1.18-.29-1.66-.43-1.19-.34-2.37-.75-3.57-1.03-1.13-.26-2.13-.74-3.07-1.41-5.57-3.96-11.47-7.37-17.61-10.4-5.99-2.95-12.15-5.49-18.49-7.58-.51-.17-1.05-.29-1.85-.51,1.14,5.29,2.14,10.33,2.43,15.62-.64.08-1.19.17-1.74.22-1.65.13-3.3.31-4.95.33-1.02.01-2.06-.13-3.05-.36-1.81-.43-3.57-1.05-5.39-1.46-5.09-1.15-10.2-2.23-15.38-2.93-7.85-1.06-15.74-1.66-23.66-1.63-.44,0-.88.09-1.52.15,2.14,5.39,4.22,10.59,5.52,16.05-.31.18-.47.3-.66.38-2.45.97-4.9,1.96-7.36,2.89-.57.21-1.2.31-1.81.35-2.01.14-4.03.16-6.04.35-6.33.61-12.65,1.32-18.92,2.41-9.23,1.61-18.34,3.73-27.31,6.44-.41.12-.79.34-1.3.57,3.41,5.1,6.64,10.06,9.37,15.36-.33.27-.55.47-.8.65-2.41,1.78-4.81,3.58-7.25,5.32-.75.53-1.58.97-2.43,1.31-6.66,2.69-13.36,5.3-20,8.05-2.52,1.04-4.93,2.36-7.39,3.55H1.55Z"/>
      <path class="cls-2" d="M101.82,0c.07.98.2,1.95.21,2.93.13,8.58.26,17.16.35,25.74.02,2.47-.1,4.94-.15,7.49-.67.08-1.16.13-1.82.2.19,2.12.37,4.21.57,6.29.48,5.09.99,10.17,1.45,15.26.42,4.63.78,9.26,1.17,13.89.18,2.16.36,4.32.54,6.48.03.36.17.86-.01,1.06-.76.86-.35,1.74-.2,2.63,1.24,7.38,2.48,14.77,3.72,22.15.06.35.15.69.27,1.21,1.78-.24,3.49-.55,5.21-.7,1.75-.15,3.47.18,5.41.45-.7,2.25-1.35,4.34-2.03,6.52.64,0,1.1.05,1.54,0,4.1-.54,8.19-1.17,12.29-1.63,4.06-.45,8.13-.73,12.2-1.05,2.1-.17,4.07.49,6.25.94-.48,2.14-1.58,3.97-2.15,6.08,1.07,0,1.99.05,2.91,0,7.75-.48,15.5-.75,23.25-.2,1.88.13,3.71.77,5.79,1.23-.82,2.01-1.55,3.79-2.34,5.7.57.07.96.13,1.35.16,3.67.2,7.34.29,10.99.62,4.42.41,8.84.92,13.23,1.63,1.79.29,3.48,1.2,5.39,1.89-.68,1.66-1.28,3.13-1.98,4.82,1.29.21,2.48.41,3.67.59,6.6,1,13.14,2.26,19.49,4.36,2.52.83,4.77,2.19,7.24,3.49-.4,1.29-.79,2.5-1.22,3.88.48.17.93.37,1.4.49,5.46,1.45,10.74,3.4,15.91,5.66,2.39,1.04,4.6,2.35,6.74,3.81.85.58,1.19,1.22.97,2.2-.11.5-.17,1.01-.27,1.63.42.21.81.42,1.22.6,6.86,2.99,13.26,6.74,19.01,11.58,1.04.88,2.07,1.72,2.18,3.23.02.26.26.58.48.74,2.21,1.6,4.44,3.17,6.63,4.73,1.96-4.47,3.59-9.03,6.76-12.74.14.03.28.06.42.08.35,1.15.71,2.29,1.15,3.73.39-.59.66-.93.87-1.3,1.83-3.3,3.83-6.5,6.14-9.5.57-.74,1.18-1.41,2.24-1.85.18,1.23.35,2.36.57,3.85.48-.59.8-.95,1.07-1.34,2.25-3.18,4.77-6.11,7.5-8.88.69-.7,1.44-1.29,2.49-1.64v3.6c4.05-3.96,7.76-7.98,12.88-10.43-.28,1.04-.56,2.09-.84,3.13,4.71-3.3,9.2-6.75,14.52-8.8.08.08.16.17.24.25-.45.87-.91,1.74-1.36,2.61,5.26-2.62,10.38-5.35,16.26-6.45-.59.71-1.18,1.41-1.77,2.12,3.5-.95,6.77-2.35,10.47-3.02-.07.54-.08.98-.18,1.39-.39,1.66-.79,3.32-1.21,4.97-.31,1.21-.6,1.42-1.86,1.27-.82-.1-1.63-.27-2.45-.4-1.63-.25-3.27-.52-4.9-.74-.65-.09-1.33-.07-2.11-.11-.42.99-.85,1.92-1.21,2.88-.62,1.63-1.44,2.25-3.22,2.22-1.08-.02-2.17-.15-3.25-.21-1.95-.1-3.91-.17-6.01-.26-.26,1.2-.52,2.23-.69,3.29-.28,1.75-.79,2.28-2.58,2.4-1.81.12-3.62.16-5.42.24-1.23.05-2.47.11-3.88.17-.02,1.15-.08,2.17-.06,3.19.05,1.93-.56,2.69-2.51,2.94-2.46.31-4.93.58-7.39.88-.45.05-.88.18-1.52.31.22,1.17.4,2.22.63,3.27.34,1.57,0,2.22-1.6,2.7-.93.28-1.92.38-2.88.58-2.06.44-4.12.89-6.39,1.38.49,1.28.84,2.41,1.35,3.46.4.82.28,1.39-.45,1.84-.52.32-1.06.63-1.63.81-2.12.65-4.27,1.24-6.4,1.87-.59.17-1.16.4-1.8.63.4,1.55,1.51,2.63,2.15,3.96-.48.98-1.23,1.51-2.2,1.85-2.24.79-4.45,1.65-6.88,2.56,2.83,2.89,5.52,5.63,8.41,8.59.27-.67.47-1.12.62-1.57.62-1.86,1.2-3.74,1.82-5.6.38-1.15.4-1.15,1.62-2.03.97.69,1.97,1.4,3.09,2.2.26-.61.48-1.07.65-1.53.77-2.03,1.53-4.06,2.3-6.09.45-1.18.52-1.24,1.83-2.04.86.91,1.74,1.82,2.77,2.91.33-.68.57-1.17.8-1.66.98-2.11,1.96-4.22,2.94-6.33.43-.92,1.04-1.65,2.11-2.12.74,1.11,1.49,2.24,2.31,3.47,2.4-3.53,3.67-7.61,7.19-10.44.64,1.51,1.18,2.8,1.81,4.29.42-.55.69-.9.96-1.26,1.68-2.23,3.33-4.48,5.03-6.69.72-.94,1.54-1.81,2.96-2.04.3,1.34.6,2.67.94,4.24.4-.37.69-.62.96-.89,2.41-2.41,4.81-4.83,7.22-7.24.67-.67,1.47-1.12,2.56-1.17.08,1.4.16,2.78.25,4.37.47-.31.75-.48,1.02-.68,2.83-2.16,5.66-4.34,8.49-6.5.8-.61,1.69-.98,2.92-1.01-.75,4.57-1.71,9.02-2.64,13.63-3.06-.54-5.98-1.05-9.04-1.59-.02,1.77.89,3.12,1.12,4.58-.81.78-1.77.68-2.68.62-2.22-.15-4.43-.35-6.65-.5-.65-.05-1.3,0-2.27,0,.79,1.5,1.44,2.75,2.08,3.98-.7.72-1.54.73-2.36.77-2.53.12-5.06.22-7.59.33-.36.02-.72.06-1.17.1.33,1.48,1.68,2.19,2.34,3.37-.63.74-1.43.86-2.26.97-2.86.39-5.71.8-8.72,1.23.65,1.34,1.95,1.73,2.78,2.69-.42.68-1.09.88-1.8,1.05-2.91.71-5.81,1.44-8.8,2.48.93.54,1.87,1.09,3.08,1.8-.91.41-1.57.77-2.27,1.03-2.23.82-4.48,1.61-6.71,2.42-.48.17-.94.4-1.45.89.82.27,1.65.53,2.71.88-1.57,1.28-3.33,1.76-4.9,2.56-1.6.82-3.23,1.59-4.82,2.65.56.11,1.11.23,1.8.37-.49,1.02-1.65,1.05-2.35,1.85.8.9,1.61,1.82,2.41,2.74,4.12,4.77,8.26,9.54,12.37,14.32.79.92,1.67,1.83,1.74,3.55-1.26-1.15-2.25-2.13-3.15-3.22-4.14-5.02-8.3-10.04-12.46-15.04-.55-.66-1.2-1.25-1.98-2.06-.19,1.11-.35,1.98-.54,3.11-1.54-1.17-2.82-2.24-3.99-3.48-5.02-5.36-10.07-10.68-15.11-16.02-.14-.15-.32-.25-.6-.47-.49,1.31-.94,2.53-1.46,3.94-1.63-1.16-3.29-1.95-4.64-3.25-5.18-4.98-10.41-9.91-15.62-14.85-.41-.39-.87-.73-1.45-1.21-.79,1.62-1.53,3.17-2.35,4.87-1.89-.97-3.7-1.76-5.26-3.08-5.63-4.79-11.32-9.51-16.99-14.26-.23-.19-.49-.33-.86-.57-.97,1.85-1.9,3.61-2.91,5.53-2.81-1.46-5.81-2.05-8.32-3.96-5.55-4.23-11.23-8.3-16.85-12.42-.41-.3-.86-.55-1.45-.92-1.08,2.06-2.12,4.04-3.22,6.13-2.01-.63-3.99-.98-5.72-2.09-6.48-4.16-12.98-8.31-19.47-12.45-.17-.11-.35-.19-.68-.37-1.06,2.21-2.09,4.38-3.21,6.73-2.12-.6-4.26-.76-6.21-1.85-6.13-3.45-12.3-6.82-18.45-10.22-.49-.27-1.01-.49-1.71-.82-.93,2.25-1.82,4.42-2.75,6.69-2.15-.17-4.23-.37-6.19-1.28-6.47-3.01-12.94-6.01-19.42-9.01-.37-.17-.76-.31-1.25-.5-.17.33-.37.62-.47.93-.5,1.58-1.01,3.15-1.43,4.75-.21.81-.63,1.13-1.62.87.75,3.88,1.8,7.51,2.78,11.2,2.99-.11,5.83-.2,8.66-.33,3.51-.16,7.02-.35,10.54-.5.72-.03,1.45.03,2.16.14,1.06.17,2.11.42,3.32.66-.34,1.84-1.34,3.33-1.79,5.22.72.06,1.36.15,2,.15,5.02-.06,10.03-.16,15.05-.21,2.79-.03,5.59-.05,8.38,0,1.66.03,3.21.58,4.99,1.06-.97,1.96-1.85,3.74-2.82,5.7,2.02.11,3.81.24,5.6.29,6.21.17,12.41.33,18.62.45,2.48.05,4.77.75,7.23,1.68-.84,2.02-2.24,3.69-3.19,5.76.48.09.76.16,1.05.19,7.06.55,14.12,1.17,21.18,1.61,3.64.23,6.96,1.4,10.24,2.82.18.08.33.23.63.44-1.18,1.84-2.33,3.64-3.61,5.65,1.86.25,3.49.45,5.1.7,6.54,1.01,13.07,2.03,19.6,3.08,1.93.31,3.46,1.52,5.35,2.34-1.25,1.93-2.39,3.68-3.63,5.61,1.88.38,3.59.66,5.27,1.07,5.88,1.42,11.74,2.89,17.62,4.32,2.01.49,3.63,1.68,5.51,2.87-1.06,1.72-2.07,3.36-3.16,5.14.56.19,1.03.37,1.51.51,5.83,1.63,11.54,3.62,17.2,5.75,2.17.81,4.06,2,5.84,3.45.6.49.7.94.33,1.59-.66,1.16-1.29,2.35-2.03,3.72.7.3,1.34.58,1.98.85,5.41,2.22,10.75,4.6,15.69,7.76,1.34.86,2.48,2.01,3.71,3.03.46.38.53.85.32,1.39-.43,1.1-.84,2.2-1.31,3.43.49.3.95.61,1.44.88,4.26,2.37,8.25,5.13,12.04,8.19,1.55,1.25,2.81,2.74,3.96,4.33.28.38.4.95.42,1.43.02.56-.08,1.14-.24,1.68-.26.86,0,1.39.68,1.99,2.29,2.01,4.51,4.09,6.71,6.2,2.49,2.38,4.28,5.31,6.03,8.24.43.72.46,1.67.7,2.51.16.53.23,1.16.57,1.56,4.19,5.03,6.93,10.89,9.59,16.78,2.57,5.7,5.02,11.45,7.46,17.21.95,2.23,1.77,4.52,2.59,6.81.31.86.48,1.76.56,2.7-.71-.84-1.1-1.82-1.48-2.82-2.14-5.59-4.3-11.18-6.47-16.76-.27-.7-.62-1.37-1.18-1.98-.2.99-.39,1.99-.63,3.2-1.12-1.27-1.76-2.55-2.36-3.83-2.57-5.47-5.11-10.96-7.67-16.43-.37-.79-.78-1.55-1.25-2.5-.66,1.44-1.24,2.68-1.91,4.13-1.24-1.39-2.37-2.54-3.16-4.02-2.96-5.51-5.97-10.99-8.98-16.47-.34-.63-.76-1.23-1.26-2.03-1.02,1.55-1.96,2.98-2.98,4.55-1.34-1.32-2.64-2.39-3.57-3.86-3.62-5.72-7.3-11.41-10.95-17.1-.19-.3-.43-.57-.74-.99-1.28,1.64-2.49,3.2-3.8,4.88-1.61-1.36-3.27-2.34-4.45-3.99-3.77-5.25-7.65-10.42-11.49-15.61-.33-.45-.71-.87-1.19-1.45-1.49,1.76-2.91,3.43-4.41,5.2-1.76-1.21-3.49-2.12-4.84-3.72-4.45-5.31-9.01-10.52-13.53-15.77-.1-.12-.23-.2-.42-.36-1,.65-1.57,1.72-2.35,2.57-.77.83-1.51,1.7-2.37,2.67-1.78-1.09-3.69-1.78-5.18-3.31-4.73-4.85-9.52-9.63-14.3-14.44-.32-.32-.68-.61-1.12-1.01-1.53,1.81-3.02,3.57-4.64,5.49-1.81-.95-3.71-1.54-5.27-2.9-5.18-4.52-10.41-8.99-15.62-13.47-.23-.2-.49-.36-.88-.64-1.37,1.71-2.71,3.39-4.09,5.13-.43-.13-.82-.22-1.2-.35-3.53-1.26-6.71-3.08-9.69-5.4-4.25-3.29-8.71-6.31-13.09-9.43-.33-.24-.69-.44-1.15-.73-1.13,1.6-2.22,3.15-3.38,4.79-1.94-.58-3.81-1.11-5.5-2.14-5.74-3.49-11.49-6.98-17.24-10.46-.43-.26-.89-.48-1.43-.77-.86,1.43-1.67,2.79-2.55,4.25-2.04-.54-4-1.11-5.85-2.04-5.73-2.87-11.48-5.71-17.22-8.56-.41-.2-.84-.37-1.42-.62-.51,1.11-.99,2.17-1.51,3.32-1.93-.37-3.75-.88-5.52-1.6-3.64-1.48-7.28-2.95-10.93-4.42-.52-.21-1.06-.39-1.63-.6-.4.54-.13,1.02.01,1.48,1.32,4.41,2.61,8.82,3.97,13.21,3.44,11.12,7.59,21.98,12.17,32.67.89,2.09,1.82,4.17,2.74,6.25.21.46.46.91.76,1.49,1.22-.46,2.37-.88,3.51-1.33,14.26-5.64,27.91-12.54,41.25-20.08,2.17-1.23,2.16-1.24,4.26.01.3.18.59.39,1.08.71-1.66,1.55-2.82,3.45-4.7,4.61-.11-.06-.21-.12-.32-.17.29-1.01.57-2.02.96-3.38-.62.54-.98.81-1.28,1.13-2.77,2.86-5.54,5.72-8.28,8.6-.64.67-1.27,1.3-2.42,1.66.12-1.36.22-2.52.34-3.86-.35.25-.64.4-.85.62-2.76,2.87-5.49,5.76-8.27,8.62-.63.65-1.4,1.15-2.22,1.81-.76-1.42-.09-2.84-.71-4.23-.54.49-1,.88-1.43,1.31-2.43,2.47-4.86,4.94-7.26,7.44-.67.7-1.42,1.16-2.46,1.33-.68-1.22-.48-2.6-.8-3.99-1.05.34-1.6,1.25-2.35,1.88-.79.67-1.53,1.4-2.28,2.11-.75.71-1.48,1.43-2.39,2.31-.5-.93-.92-1.72-1.43-2.66-.49.77-.91,1.43-1.46,2.28-.34-.54-.58-.9-.8-1.28-2.32-3.89-3.74-8.16-5.12-12.44-2.64-8.21-5.28-16.42-7.93-24.63-.12-.38-.29-.76-.51-1.3-.97.71-1.85,1.36-2.88,2.11-.26-.52-.47-.91-.64-1.32-1.39-3.24-2.38-6.6-3.01-10.07-1.78-9.7-3.55-19.4-5.33-29.1-.09-.5-.22-.98-.35-1.58-1.47.5-2.82.97-4.31,1.48-.22-.61-.38-1.07-.55-1.54-1.62-4.54-1.91-9.28-2.16-14.04-.26-5.11-.6-10.21-.85-15.32-.18-3.82-.27-7.64-.4-11.47-.01-.36-.06-.71-.1-1.23-1.91-.25-3.78.47-5.61.26-.11-.11-.23-.18-.25-.26-.66-2.77-1.31-5.56-1.14-8.41.44-7.27.94-14.54,1.53-21.8.38-4.68.96-9.35,1.44-14.02,0-.09-.04-.19-.09-.45-1.89-.21-3.83-.43-5.77-.63-1.41-.15-1.47-.18-1.56-1.56-.11-1.65-.34-3.31-.27-4.95.09-2.05.3-4.13.72-6.14,1.53-7.33,3.17-14.64,4.76-21.96.03-.15.03-.31.05-.46h6.83Z"/>
      <path class="cls-2" d="M538.26,0c-1.9,2.12-3.72,4.3-5.7,6.33-1.91,1.96-3.96,3.77-5.96,5.64-.33.31-.72.56-1.19.91-.64-1.2-1.24-2.31-1.92-3.58-6.97,8.15-13,16.87-20.5,24.52-.79-.93-1.41-1.66-2.19-2.57-.38.49-.73.9-1.04,1.34-3.54,5.1-7.03,10.22-10.62,15.28-1.88,2.65-3.91,5.18-5.98,7.9-.85-.54-1.52-.96-2.3-1.45-.33.54-.61,1.02-.9,1.5-4.26,6.97-8.51,13.94-12.77,20.9-.16.26-.37.5-.52.77-.46.84-1.07,1.22-2.03.79-.17-.08-.4-.05-.7-.08-2.65,5.26-5.29,10.5-7.93,15.74,1.04.93,1.67,2.06,2.2,3.43h-2.49c.03.85.61,1.27,1.01,1.74,4.45,5.4,8.35,11.18,11.82,17.25.95,1.66,1.75,3.39,2.73,5.31-.63-.07-1.03-.11-1.61-.17.24.43.37.71.53.96,4.28,6.62,7.85,13.61,10.79,20.92,3.74,9.29,7.43,18.6,11.14,27.9.19.47.32.96.5,1.5-1.89-.49-2.36-.89-3.1-2.43-2.11-4.45-3.33-9.22-5-13.84-.95-2.62-1.93-5.24-2.81-7.88-.33-.99-.87-1.7-1.91-1.74-1.92-.07-2.78-1.25-3.67-2.77-1.53-2.61-2.64-5.35-3.63-8.19-1.59-4.59-3.32-9.13-5.02-13.68-.53-1.42-.57-1.41-2.16-1.41-.78,0-1.55.02-2.33.06-.58.03-1-.16-1.29-.67-.85-1.53-1.87-2.99-2.51-4.6-2.01-5.04-3.89-10.13-5.82-15.2-.09-.24-.2-.47-.4-.92-.46.73-.74,1.41-1.23,1.9-.48.48-1.16.75-1.92,1.21-1.5,3.64-3.08,7.49-4.67,11.35.06.03.11.06.17.1.3-.48.61-.96.91-1.44,2.83,1.22,8.26,6.48,9.61,9.33-1.86.53-3.71,1.06-5.86,1.68.71.59,1.17.98,1.64,1.36,5.61,4.59,11.01,9.4,15.98,14.68,1.75,1.86,2.89,4.13,4.35,6.51-1.89.28-3.58.53-5.6.83.52.57.83.94,1.18,1.28,4.85,4.67,9.28,9.72,13.53,14.94,1.54,1.89,2.92,3.88,3.93,6.11.14.31.26.64.44,1.09h-4.87c.45.59.76,1.03,1.1,1.44,5.17,6.21,9.92,12.72,13.96,19.72.87,1.51,1.54,3.13,2.3,4.7-.07.1-.14.2-.21.3-1.2-.29-2.4-.59-3.77-.92,2.8,4.77,5.55,9.25,8.09,13.85,2.52,4.56,4.94,9.19,6.42,14.52-.96-.48-1.75-.86-2.76-1.36.15.52.2.85.35,1.13.58,1.16,1.16,2.31,1.78,3.44.4.72.41,1.32-.18,1.96-1.11,1.2-2.18,2.44-3.49,3.93-.36-1.96-.66-3.56-.96-5.16-.33-1.78-.71-3.55-.99-5.33-.16-1.03-.65-1.53-1.69-1.64-1.08-.11-2.14-.41-3.21-.48-1.05-.07-1.61-.51-2.13-1.44-1.59-2.83-1.89-5.98-2.53-9.05-.9-4.35-1.76-8.71-2.66-13.06-.38-1.82-.4-1.82-2.33-1.83-1.14,0-2.28-.02-3.41.05-.92.05-1.46-.27-1.99-1.08-1.31-2-1.9-4.2-2.39-6.49-1.16-5.35-2.41-10.68-3.63-16.02-.07-.29-.17-.58-.29-.99-2.35.36-4.63.71-7,1.07-1.16-1.77-2.37-3.43-2.87-5.59-1.29-5.53-2.78-11.02-4.2-16.52-.11-.44-.28-.87-.46-1.45-.53.1-1.03.14-1.51.28-1.49.42-2.98.85-4.46,1.32-.68.22-1.16.15-1.59-.49-.86-1.29-1.83-2.5-2.68-3.8-.36-.55-.58-1.21-.76-1.84-1.6-5.51-3.18-11.02-4.77-16.53-.15-.53-.36-1.05-.6-1.73-1.83.72-3.54,1.4-5.34,2.11-.06-.33-.11-.6-.17-.91-.16.06-.34.08-.42.18-.19.24-.39.49-.49.77-1.46,4.36-2.9,8.72-4.38,13.17.28.25.56.54.88.78,2.27,1.71,4.49,3.5,6.84,5.1,2.32,1.58,3.46,4.03,5.21,6.23-2.03,1.03-3.9,1.98-5.98,3.03.6.5,1.01.87,1.44,1.21,5.17,4.14,10.33,8.28,15.5,12.41,1.41,1.13,2.12,2.73,3.16,4.3-2.22.85-4.28,1.63-6.61,2.52.58.5.98.85,1.38,1.2,5.24,4.61,10.46,9.25,15.72,13.83,1.53,1.34,2.37,3.09,3.48,4.97-2.3.59-4.46,1.14-6.84,1.75.45.49.74.82,1.05,1.14,5.12,5.11,10.24,10.24,15.38,15.33,1.58,1.57,2.46,3.53,3.48,5.73-2.29.29-4.44.55-6.96.87,5.91,6.36,11.47,12.57,16.51,19.39-2.99,3.73-5.91,7.42-8.92,11.04-.11-.04-.21-.08-.32-.12-.17-1.66-.35-3.33-.53-5.12-2.7-.1-5.23.74-7.81,1.02-1.28-2.09-2.13-4.15-2.35-6.56-.51-5.71-1.24-11.4-1.89-17.1-.05-.4-.18-.79-.3-1.31-2.5.37-4.8,1.27-7.28,2.01-.94-1.75-2.02-3.32-2.31-5.36-.86-6.03-1.86-12.04-2.83-18.06-.05-.34-.23-.66-.4-1.11-2.16.92-4.24,1.8-6.43,2.73-1.05-1.54-2.03-3.05-2.41-4.93-1.2-6.03-2.47-12.04-3.72-18.06-.06-.29-.17-.58-.29-.98-2.08.7-3.74,2.04-5.74,3.07-.97-1.48-1.96-2.86-2.4-4.61-1.49-5.86-3.04-11.7-4.56-17.54-.08-.29-.18-.57-.32-.98-1.76.74-3.01,2.07-4.68,3.18-1.05-1.53-1.9-3.16-2.98-4.85-.19.42-.36.7-.45,1.01-.21.74-.37,1.51-.59,2.25-.52,1.77-.91,3.53.62,5.07-.4.71-.74,1.34-1.11,1.95-.45.73-.43,1.37.06,2.13,2.64,4.1,5.59,7.95,8.85,11.57,1.21,1.34,1.96,2.88,2.76,4.51-.93,1.12-1.85,2.22-2.86,3.43,1.95,2.4,3.79,4.76,5.74,7.02,1.82,2.11,3.75,4.14,5.67,6.17,1.13,1.2,1.65,2.69,2.38,4.12-1.36,1.14-2.61,2.2-4.01,3.38,1.09,1.27,2.05,2.47,3.09,3.59,2.96,3.18,5.9,6.37,8.95,9.47,1.35,1.37,2.09,3.03,2.94,4.8-1.71,1.06-3.36,2.08-5.17,3.21,1.25,1.39,2.35,2.67,3.5,3.9,3.05,3.24,6.12,6.46,9.18,9.68,1.8,1.89,2.33,2.73,3.33,5.5-1.97.88-3.96,1.78-6.15,2.76,4.12,4.54,8.08,8.89,12.07,13.29-2.84,4.08-5.64,8.09-8.54,12.26-.25-.45-.47-.77-.6-1.11-11.98-30.27-23.94-60.55-35.91-90.83-.13-.34-.27-.67-.4-1.01-1.25-3.27-3.19-6.08-5.81-8.43-.07-.06-.19-.07-.48-.17-.34,1.55-.67,3.09-1.02,4.68h-1.15c-.2,1.45-.39,2.87-.58,4.23.11.15.15.29.22.31,1.37.43,2.15,1.32,2.27,2.78.03.35.23.69.31,1.04.24,1,.86,1.4,1.88,1.47,1.7.11,3.39.35,5.09.53.58.06,1.13.12,1.35.81.49,1.53,1.01,3.04,1.5,4.56.4,1.27.77,2.55.93,3.99-1.31-1.19-2.66-2.34-3.92-3.58-2.86-2.81-6.31-4.83-9.48-7.22-.11-.08-.29-.08-.52-.14-.1.29-.25.57-.28.85-.55,6.9-1.03,13.81-.91,20.74.06,3.87.28,7.74.52,11.61.09,1.46-.54,2.56-1.31,3.74-.6-.4-.49-.96-.5-1.42-.01-2.42-.08-4.85.05-7.27.25-4.64.63-9.27.95-13.91.04-.54,0-1.07,0-1.9-.76.71-1.26,1.19-1.82,1.72-.53-.5-.45-1.1-.39-1.61.22-2.1.39-4.22.79-6.29,1.02-5.43,2.15-10.84,3.23-16.25.08-.39.14-.79.24-1.4-1,.55-1.82,1.01-2.87,1.59.07-1.9.15-3.53.66-5.09,1.9-5.79,3.82-11.58,5.73-17.36.34-1.03.7-2.04,1.13-3.29-1.21.27-2.22.49-3.35.74,0-.47-.07-.78.01-1.06.61-2.18.99-4.48,1.92-6.51,2.74-5.96,5.69-11.82,8.56-17.73.31-.64.63-1.28,1.04-2.1-1.36-.14-2.54-.26-3.9-.4.65-2.04,1.12-3.92,2.21-5.59,3.9-5.98,7.78-11.96,11.66-17.95.28-.43.55-.86.93-1.47-1.44-.43-2.79-.82-4.32-1.28.81-1.91,1.45-3.7,2.67-5.18,4.8-5.82,9.64-11.61,14.46-17.42.29-.35.58-.71.98-1.21-1.47-.8-2.86-1.54-4.4-2.38,1.08-1.92,1.91-3.87,3.44-5.36,4.16-4.03,8.34-8.04,12.53-12.04,1.71-1.63,3.48-3.21,5.36-4.93-1.51-1.24-2.89-2.37-4.25-3.49.48-1.34,2.6-4.18,3.89-5.16,6.39-4.84,12.79-9.66,19.18-14.49.33-.25.64-.51,1.12-.89-1.38-1.59-2.72-3.13-4.17-4.79,1.7-1.7,2.91-3.72,4.96-4.94,6.22-3.69,12.45-7.38,18.68-11.07,1.1-.65,2.22-1.27,3.46-1.98-.91-1.43-1.75-2.71-2.54-4.03-.28-.47-.46-1-.68-1.51h20.18,0ZM454.91,96.02c.06.03.12.07.19.1.17-.3.34-.6.52-.9-.06-.04-.13-.07-.19-.11-.17.3-.34.6-.51.91h0Z"/>
      <path class="cls-2" d="M499.46,0c-.16.48-.26.99-.49,1.43-2.01,3.79-3.93,7.63-6.1,11.32-1.03,1.75-2.56,3.21-3.99,4.96-1.87-1.95-3.6-3.75-5.48-5.72-.88,1.82-1.72,3.41-2.43,5.07-2.95,6.89-5.92,13.77-8.76,20.7-.95,2.31-2.64,4.03-4.01,6.25-1.97-1.61-3.79-3.1-5.75-4.7-.23.46-.43.79-.56,1.14-2.9,8.24-5.49,16.57-7.89,24.97-.59,2.07-1.9,3.74-2.96,5.77-2.07-1.26-3.99-2.43-6.03-3.67-.19.48-.39.83-.47,1.2-1.57,7.58-3.2,15.16-4.64,22.77-.48,2.54-1.52,4.78-2.7,7.16-2.12-.87-4.15-1.7-6.33-2.6-.21,1.7-.43,3.22-.57,4.75-.57,6.02-1.13,12.03-1.66,18.05-.26,2.86-.85,5.42-1.9,7.47-1.94-.44-3.93-.89-6.07-1.37-.04.69-.11,1.24-.11,1.8.08,6.41.08,12.82.29,19.22.1,2.95-.68,5.73-1.18,8.57-.13.76-.66.87-1.25.85-1.14-.03-2.27-.1-3.41-.15-.45-.02-.9-.04-1.49-.07,0,.61-.06,1.11,0,1.6.85,6.4,1.77,12.79,2.55,19.19.19,1.56-.06,3.18-.11,4.78-.02.65-.42.9-1,.97-1.02.14-2.05.26-3.08.4-.55.07-1.1.16-1.83.26.34,1.52.62,2.93.97,4.31,1.23,4.75,2.49,9.49,3.72,14.25.49,1.91.6,3.86.38,5.99-1.63.56-3.28,1.13-5.01,1.72.12.43.19.83.33,1.2,1.99,5.21,4.03,10.4,5.96,15.64.51,1.39.68,2.9.98,4.36.13.6-.18.98-.68,1.26-.86.48-1.71.97-2.56,1.45-.4.22-.79.44-1.31.73.61,1.23,1.16,2.39,1.76,3.52,1.85,3.47,3.69,6.93,5.58,10.38.75,1.37,1.24,2.82,1.67,4.31.33,1.13.06,1.86-.84,2.53-.9.68-1.74,1.44-2.68,2.23.26.43.46.83.72,1.2,2.7,3.91,5.45,7.8,8.1,11.75.74,1.1,1.21,2.38,1.79,3.58.28.57.22,1.08-.2,1.58-.82.99-1.61,2.01-2.56,3.2.91,1.08,1.84,2.23,2.82,3.33,2.37,2.67,4.82,5.26,7.13,7.98.82.97,1.41,2.16,1.97,3.31.18.38.07,1.02-.12,1.45-.51,1.12-1.14,2.19-1.89,3.61.27.17.66.34.96.61,3.03,2.66,6.08,5.3,9.05,8.03,1.05.97,1.91,2.16,2.86,3.24.6.68.58,1.37.13,2.13-.79,1.34-1.54,2.69-2.29,4.05-1.04,1.9-2.05,3.83-3.11,5.72-.4.71-.9,1.35-1.47,2.18-1.3-1.3-2.47-2.41-2.98-4.05-1.76-5.67-3.52-11.35-5.28-17.02-.15-.48-.31-.96-.53-1.64-1.63,1.44-3.15,2.8-4.82,4.27-1.03-1.52-2.1-2.83-2.4-4.56-1.07-6.16-2.12-12.31-3.19-18.47-.06-.35-.17-.68-.29-1.16-1.86,1.18-3.62,2.3-5.53,3.52-.86-1.64-1.84-3.04-1.92-4.8-.29-6.04-.58-12.07-.85-18.11-.03-.76,0-1.52,0-2.49-2.28.96-4.3,1.81-6.4,2.7-.78-2.03-1.45-3.85-1.27-5.88.56-6.64,1.08-13.28,1.61-19.92,0-.1-.05-.19-.1-.41-1.13-.13-2.13.47-3.2.7-1.1.23-2.2.5-3.49.8-.54-2.1-1.11-4.03-.68-6.13,1.34-6.47,2.65-12.95,3.96-19.43.08-.4.15-.8.27-1.45-2.4.2-4.68.39-7.11.6-.46-1.95-.71-3.85-.13-5.68,2.13-6.74,4.36-13.46,6.55-20.19.19-.58.39-1.15.63-1.87-2.5-.16-4.85-.31-7.15-.46-.55-1.43-.47-4.4.28-6.12,2-4.59,4.04-9.17,6.11-13.74.94-2.07,2.01-4.08,3.01-6.12.23-.46.42-.93.72-1.58-2.56-.54-5.01-1.06-7.56-1.6.13-1.04.23-1.9.36-2.76.07-.51.22-1.01.28-1.52.26-2.14,1.04-4.08,2.17-5.91,3.64-5.89,7.25-11.8,10.88-17.7.32-.52.66-1.03,1.11-1.72-2.53-.92-4.93-1.79-7.47-2.72.64-2.31.91-4.6,2.33-6.55,4.71-6.48,9.53-12.88,14.65-19.06.32-.39.61-.8,1-1.32-2.46-1.28-4.83-2.51-7.31-3.8.93-2.14,1.48-4.3,2.96-6.03,5.46-6.36,11.2-12.46,17.2-18.3.37-.36.8-.66,1.25-1.03-1.04-1.21-2.29-1.74-3.36-2.5-1.09-.78-2.21-1.51-3.38-2.31.14-.38.23-.72.38-1.03,1.31-2.72,3.05-5.07,5.35-7.12,5.83-5.19,11.66-10.39,17.74-15.28.31-.25.59-.54,1.01-.94-2.12-1.78-4.16-3.5-6.31-5.31,1.37-2.02,2.51-4.11,4.39-5.61,7.08-5.64,14.46-10.88,22.02-15.86.42-.28.83-.58,1.39-.96-1.93-1.97-3.76-3.85-5.65-5.78.4-.61.78-1.2,1.16-1.79h24.83,0Z"/>
      <path class="cls-2" d="M458.17,0c-.14.48-.18,1.01-.42,1.43-3.23,5.72-6.04,11.64-8.81,17.6-.92,1.98-2.47,3.66-3.79,5.57-1.88-1.09-3.18-2.73-5.01-3.9-.25.46-.48.85-.66,1.25-4.05,8.79-7.37,17.85-10.3,27.07-.62,1.97-1.9,3.74-2.99,5.82-1.92-1.4-3.65-2.66-5.47-3.99-.19.45-.35.76-.46,1.09-2.76,8.57-4.94,17.28-6.43,26.15-.45,2.67-1.71,4.95-2.75,7.49-2.23-.89-3.97-2.48-6.19-3.48-.46,2.87-.88,5.61-1.34,8.35-1.16,6.94-1.52,13.96-2.13,20.96-.17,1.97-1,3.76-1.51,5.86-2.22-1.04-4.25-1.99-6.5-3.05-.13,1.8-.34,3.42-.36,5.04-.07,7.08-.21,14.16.42,21.22.14,1.52-.02,3.09-.22,4.61-.23,1.78-.65,3.54-1.02,5.44-2.33-.42-4.37-1.46-6.63-2.08-.33.99-.07,1.9,0,2.79.57,7.17,1.73,14.25,3.14,21.29.47,2.36.71,4.68.52,7.06-.03.35-.11.7-.19,1.16-2.38-.12-4.57-.92-7.05-1.37.09.64.13,1.18.25,1.7,1.7,7.62,3.76,15.14,6.45,22.47.77,2.1.75,4.24.86,6.54-2.42.26-4.69-.37-7.07-.37.04.28.04.48.1.65,2.65,7.46,5.86,14.68,9.41,21.75.76,1.51,1.29,3.7,1.26,5.68-2.22.15-4.46.3-6.92.46.3.65.5,1.16.76,1.64,3.29,6.22,6.86,12.27,10.97,17.99,1.22,1.7,1.57,3.65,2.27,5.77-2.36.45-4.57.88-6.92,1.33.3.47.53.86.79,1.23,4.16,5.87,8.78,11.37,13.52,16.77,1.02,1.17,1.59,2.72,2.43,4.21-2.19,1.17-4.43,1.6-6.78,2.48,1.4,1.49,2.58,2.91,3.92,4.16,3.93,3.66,7.91,7.29,11.92,10.86,1.32,1.18,1.99,2.71,2.95,4.21-1.86,1.4-3.98,2.12-6.08,3.3.51.43.91.8,1.33,1.13,4.92,3.96,10.04,7.64,15.37,11.02,1.53.97,2.54,2.37,3.7,3.81-1.56,1.68-3.59,2.64-5.37,4.12,1.41.95,2.71,1.83,4.02,2.71h-13.04c-.96-1.22-1.92-2.43-2.87-3.66-6.23-8.01-11.88-16.41-16.89-25.24-4.9-8.64-9.19-17.57-12.86-26.81-4.43-11.16-7.94-22.6-10.54-34.32-1.58-7.11-2.8-14.28-3.73-21.51-1.27-9.85-1.89-19.75-1.93-29.67-.04-7.6.18-15.19.93-22.76.53-5.24.94-10.5,1.73-15.7.96-6.33,2.17-12.62,3.44-18.9,2.27-11.26,5.49-22.26,9.2-33.12,2.69-7.87,5.76-15.6,9.12-23.22,3.94-8.94,8.25-17.71,13.09-26.2,3.4-5.97,6.99-11.84,10.62-17.67,4.49-7.2,9.45-14.08,14.6-20.82,3.6-4.72,7.45-9.26,11.2-13.88.42-.52.86-1.03,1.29-1.55h9.62Z"/>
      <path class="cls-2" d="M491.7,335c.91-2.22,2.21-4.12,3.9-5.88,8.34-8.63,16.99-16.93,25.92-24.94.34-.3.75-.53,1.34-.93-3.62-2.62-6.9-5.01-10.24-7.44.22-.48.36-.86.56-1.2.46-.81,1.02-1.57,1.42-2.4,1.42-2.97,3.7-5.16,6.2-7.22,9.05-7.47,18.13-14.9,27.61-21.84.37-.27.71-.57,1.25-1.02-3.22-2.74-6.35-5.41-9.58-8.16,2.36-3.01,4.19-6.21,7.33-8.46,9.33-6.7,18.96-12.94,28.63-19.12,1.26-.81,2.57-1.54,3.86-2.31.43-.26.84-.55,1.44-.94-3.02-2.91-5.91-5.69-8.91-8.58.76-.84,1.51-1.61,2.17-2.44,2.35-2.97,5.27-5.19,8.59-6.99,3.82-2.07,7.59-4.22,11.38-6.34.49-.28.97-.59,1.46-.88v40.01c-.36-.29-.75-.54-1.06-.86-1.94-2.01-3.85-4.04-5.78-6.05-.38-.4-.8-.76-1.33-1.25-.35.65-.63,1.13-.87,1.62-5.07,10.52-9.98,21.11-14.46,31.89-1.39,3.35-2.85,6.64-5.37,9.34-.45.49-.79,1.08-1.2,1.62-.24.31-.52.59-.85.96-2.81-2.37-5.55-4.68-8.42-7.1-.29.66-.49,1.07-.65,1.49-4.2,11.06-8,22.26-11.58,33.53-1.15,3.62-2.92,6.8-4.92,9.93-.16.25-.39.45-.65.74-3.02-1.74-5.79-3.78-8.85-5.61-.3.98-.55,1.71-.74,2.45-1.36,5.46-2.72,10.92-4.06,16.39-.65,2.66-1.23,5.33-1.85,7.99h-31.66,0Z"/>
      <path class="cls-2" d="M596,167.19c-.78-.48-1.57-.96-2.46-1.51-.3.33-.62.64-.91.99-8.36,10.22-15.8,21.09-22.54,32.44-.42.7-.93,1.37-1.48,1.97-1.64,1.79-3.32,3.53-5.11,5.43-2.36-1.96-4.65-3.86-7.08-5.87-.42.6-.8,1.07-1.09,1.58-3.43,5.96-6.99,11.84-10.22,17.9-3.08,5.79-5.78,11.78-8.67,17.67-.38.78-.85,1.53-1.37,2.23-1.42,1.9-2.9,3.76-4.47,5.78-2.61-1.88-4.85-4.16-7.49-6.15-.24.41-.48.73-.65,1.08-5.54,11.46-10.1,23.33-14.17,35.37-1.16,3.42-2.56,6.62-4.52,9.62-.45.68-.88,1.39-1.43,2.27-2.7-2.17-5.3-4.27-8.05-6.48-.24.53-.45.91-.6,1.32-4.28,12.59-7.73,25.4-10.32,38.43-.4,2-.97,3.89-1.95,5.68-.81,1.49-1.51,3.05-2.36,4.77-2.99-1.95-5.72-4.1-8.76-6.31-.66,3.36-1.28,6.48-1.9,9.6h-15.21c2.44-5.19,4.84-10.4,7.34-15.56,5.89-12.14,12.42-23.93,19.4-35.48,6.72-11.1,13.92-21.89,21.52-32.4,8.46-11.69,17.48-22.93,26.97-33.8,8.7-9.98,17.86-19.52,27.38-28.73,10.59-10.26,21.73-19.89,33.21-29.13,2.29-1.85,4.64-3.62,6.97-5.43v12.72h0Z"/>
      <path class="cls-2" d="M98.09,335c1.21-1.35,2.38-2.72,3.62-4.03,7.21-7.56,14.62-14.92,22.53-21.75.65-.56,1.42-1.05,2.2-1.4,1.88-.85,3.8-1.62,5.72-2.4.37-.15.77-.23,1.36-.4.36,2.49.54,4.89.58,7.31.04,2.36.06,4.71.1,7.38.62-.37,1.02-.56,1.36-.82,6.84-5.28,13.88-10.28,21.24-14.81,4.89-3,9.92-5.76,14.9-8.62.22-.13.45-.29.7-.34,2.48-.52,4.97-.8,7.72-.68-.16,4.96-1.26,9.66-2.25,14.63.61-.19,1.04-.29,1.43-.46,6.47-2.89,13.07-5.48,19.86-7.5,4.8-1.43,9.69-2.57,14.55-3.77.77-.19,1.66-.14,2.44.03,1.7.38,3.37.9,5.15,1.39-1.11,4.85-2.92,9.28-4.71,13.86.59,0,1,.05,1.39,0,7.75-1.12,15.54-1.5,23.36-1.14,2.68.12,5.36.42,8.03.68.55.05,1.15.21,1.6.5,1.55,1.02,3.04,2.12,4.65,3.26-1.71,4.39-4.15,8.26-6.59,12.39.75.18,1.33.33,1.91.45,6.45,1.29,12.79,2.96,18.89,5.45.51.21.98.52,1.46.79h-29.18c-4.46-3.3-9.34-5.91-14.37-8.21-10.23-4.69-20.99-7.49-32.2-8.53-6.65-.62-13.31-.57-19.97-.05-7.08.56-14.04,1.78-20.91,3.5-11.42,2.86-22.32,7.14-32.86,12.36-.49.24-.91.62-1.36.93h-22.35,0Z"/>
      <path class="cls-2" d="M191.16,177.54c-.72-.5-1.42-1.03-2.16-1.48-2.26-1.37-4.48-2.8-6.81-4.02-4.43-2.32-8.92-4.52-13.39-6.75-2.91-1.45-5.84-2.88-8.76-4.32-.44-.22-.87-.46-1.24-.86,2.05.67,4.07,1.4,6.14,2,4.21,1.23,8.44,2.41,12.68,3.56,2,.54,3.89,1.32,5.94,2.21-.7.78-1.28,1.42-1.97,2.19.43.2.76.39,1.12.51,6.82,2.27,13.73,4.23,20.71,5.94,2.62.65,4.97,1.96,7.63,3.21-1.1,1-2.05,1.85-3.23,2.92.77.28,1.26.5,1.77.65,6.95,2,13.9,4.01,20.86,5.96,2.02.56,3.8,1.56,5.82,2.62-1.36,1.24-2.59,2.37-3.98,3.64,1.94.63,3.68,1.22,5.44,1.75,5.99,1.8,11.97,3.6,17.97,5.36,1.92.56,3.52,1.67,5.45,2.76-1.57,1.37-2.98,2.6-4.56,3.97.62.24,1.07.45,1.54.6,7.01,2.33,14.02,4.68,21.05,6.95,1.98.64,3.5,1.92,5.42,3.12-1.67,1.45-3.19,2.78-4.89,4.25,1.39.53,2.58.99,3.78,1.44,6.09,2.31,12.18,4.63,18.27,6.92,1.79.67,3.06,2.03,4.74,3.19-1.69,1.49-3.23,2.84-4.93,4.34.7.32,1.23.58,1.78.82,6.05,2.68,12.08,5.4,18.15,8.03,1.88.81,3.09,2.33,4.66,3.76-1.57,1.48-3.01,2.84-4.58,4.32.65.34,1.2.62,1.73.91,5.28,2.85,10.54,5.71,15.83,8.53,1.75.93,2.87,2.47,4.3,4.03-1.33,1.42-2.61,2.79-4,4.29.61.4,1.1.75,1.62,1.06,4.65,2.82,9.13,5.86,13.47,9.14,1.29.98,1.99,2.35,2.89,3.61.35.48.08.89-.21,1.26-.84,1.1-1.7,2.2-2.64,3.4.76.6,1.48,1.17,2.19,1.74,3.49,2.77,6.89,5.63,9.77,9.04.89,1.05,1.55,2.31,2.17,3.55.2.41.07,1.12-.14,1.59-.46,1.03-1.07,1.99-1.65,3.03,1.27,1.45,2.62,2.81,3.76,4.33,1.7,2.27,3.37,4.58,4.85,6.99,1.33,2.18,1.93,4.58.74,7.09-.31.65-.13,1.15.2,1.73.49.83.88,1.71,1.31,2.58h-8.69c-.62-2.71-1.2-5.44-1.86-8.14-.86-3.56-1.78-7.11-2.67-10.67-.05-.19-.15-.37-.28-.68-1.49,1.25-2.93,2.46-4.46,3.74-1.1-1.53-2.11-2.84-2.62-4.53-1.65-5.43-3.4-10.84-5.13-16.25-.2-.63-.48-1.24-.76-1.97-1.76,1.26-3.42,2.45-5.18,3.7-1.28-1.41-2.44-2.67-3.11-4.34-2.16-5.37-4.35-10.72-6.54-16.08-.23-.57-.5-1.12-.8-1.79-.44.25-.79.43-1.12.65-1.21.78-2.44,1.55-3.63,2.38-.74.52-1.26.36-1.88-.26-1.36-1.37-2.45-2.86-3.3-4.62-2.34-4.83-4.85-9.59-7.29-14.37-.26-.5-.56-.98-.89-1.57-.42.22-.78.38-1.11.58-1.29.77-2.57,1.54-3.85,2.33-.61.37-1.11.37-1.67-.15-1.39-1.31-2.71-2.62-3.72-4.31-2.86-4.79-5.89-9.48-8.85-14.21-.27-.43-.58-.83-.92-1.31-1.87,1.06-3.65,2.08-5.54,3.15-1.68-1.33-3.39-2.51-4.67-4.26-3.43-4.66-6.96-9.25-10.45-13.87-.28-.37-.59-.7-.97-1.14-1.14.64-2.29,1.22-3.36,1.91-1.14.74-2.02.65-3.2-.16-2.61-1.81-4.4-4.35-6.52-6.6-3.04-3.24-6.04-6.52-9.06-9.78-.17-.18-.39-.33-.63-.53-1.06.57-2.11,1.12-3.14,1.71-.75.43-1.35.36-2.11-.12-3.24-2.02-5.75-4.86-8.56-7.38-3.2-2.85-6.38-5.72-9.64-8.64-.65.35-1.25.63-1.82.97-.99.59-1.88.62-2.86-.12-2.6-1.96-5.25-3.84-7.88-5.77-3.45-2.54-6.9-5.1-10.33-7.67-.6-.45-1.1-.55-1.83-.25-.58.24-1.3.14-1.95.19l.05.05c-.4-.31-.77-.67-1.2-.93-2.07-1.25-4.16-2.48-6.24-3.72-1.46-.88-2.92-1.76-4.38-2.65h0Z"/>
      <path class="cls-2" d="M345.49,335c-.14-1.66-1.44-7-2.02-8.17-.92.15-1.89.31-2.84.47-.31.05-.61.11-.91.18-1.57.36-2.73.05-3.54-1.55-.61-1.2-1.22-2.36-1.63-3.65-1.52-4.83-3.12-9.63-4.69-14.44-.08-.24-.21-.47-.39-.88-1.02.11-2.08.24-3.15.34-2.57.24-2.61.26-4.06-1.87-.74-1.1-1.37-2.3-1.92-3.52-2.01-4.42-3.96-8.87-5.95-13.3-.19-.42-.43-.81-.62-1.18-1.38,0-2.67,0-3.95,0-.77,0-1.4-.25-1.85-.92-1.05-1.59-2.2-3.12-3.18-4.76-2.46-4.13-4.87-8.29-7.26-12.46-.43-.75-.95-1.19-1.83-1.13-2.18.15-3.67-.9-4.89-2.63-2.14-3.04-4.35-6.03-6.56-9.03-1.53-2.08-3.11-4.13-4.65-6.2-.39-.52-.83-.86-1.5-.96-1.22-.19-2.14-.86-2.97-1.8-4.51-5.05-8.93-10.18-13.65-15.04-4.28-4.4-8.89-8.49-13.36-12.71-.39-.37-.77-.74-.97-1.32.41.27.83.54,1.24.81,4.42,2.96,8.84,5.94,13.27,8.89,1.41.94,2.69,2.01,4.22,3.29-1.18.23-2.01.39-3.11.6.59.47.97.8,1.37,1.09,5.79,4.26,11.78,8.23,17.92,11.98,1.45.89,2.62,2.09,4.16,3.43-1.55.39-2.72.68-4.17,1.05.57.45.96.81,1.4,1.11,5.85,3.9,11.69,7.82,17.57,11.66,1.62,1.06,2.93,2.39,4.48,3.95-1.75.54-3.24.99-4.93,1.52.52.4.89.73,1.3,1.01,5.82,3.95,11.62,7.93,17.47,11.83,1.58,1.05,2.74,2.47,4.2,4.04-1.87.63-3.55,1.2-5.5,1.86.59.47.99.83,1.43,1.14,5.52,3.93,11.02,7.88,16.57,11.76,1.53,1.07,2.48,2.56,3.76,4.14-1.95.76-3.71,1.45-5.72,2.23.54.45.95.8,1.37,1.13,4.91,3.79,9.8,7.62,14.75,11.35,1.58,1.19,2.61,2.75,3.74,4.56-1.83.83-3.59,1.63-5.52,2.51.42.41.76.77,1.13,1.09,2.9,2.5,5.81,4.98,8.7,7.48.34.3.62.68.92,1.02h-13.66Z"/>
      <path class="cls-2" d="M596,279.48c-1.69,2.07-3.35,4.17-5.08,6.2-1.71,2.01-3.48,3.95-5.24,5.91-.13.15-.32.24-.58.43-.74-.56-1.47-1.11-2.28-1.73-.28.35-.56.64-.77.96-5.56,8.58-11.23,17.09-17.26,25.36-1.46,2-2.99,3.96-4.41,5.99-.67.96-1.41,1.46-2.59,1.15-.19-.05-.41,0-.83,0-2.06,3.69-4.17,7.47-6.28,11.25h-8.07c.26-.38.49-.79.79-1.12,3.22-3.56,6.46-7.1,9.7-10.65.21-.23.39-.48.69-.86-2.05-1.09-4.03-2.14-6.08-3.23.14-.37.21-.66.36-.9,1.05-1.66,2.01-3.39,3.22-4.92,1.11-1.41,2.43-2.68,3.77-3.88,7.79-7.01,15.61-13.99,23.42-20.98.3-.27.59-.56,1.03-.97-2.03-1.75-4-3.45-6.09-5.24,1.02-1.32,1.98-2.53,2.89-3.76,1.18-1.59,2.58-2.91,4.2-4.08,5.19-3.74,10.33-7.56,15.49-11.35v16.44h0Z"/>
      <path class="cls-2" d="M336.49,0c-.26.73.39.89.78,1.13,3.46,2.17,6.92,4.33,10.41,6.45,1.32.8,2.69,1.56,4.08,2.23,1.67.8,2.91,2.09,4.29,3.49-1.19,1.06-2.33,2.08-3.64,3.25.58.39,1.01.73,1.47.98,5.02,2.77,10.03,5.56,15.1,8.26,1.6.85,2.76,2.1,4.13,3.45-1.47,1.19-2.86,2.3-4.42,3.56.62.38,1.08.69,1.56.95,5.24,2.8,10.47,5.63,15.74,8.38,1.66.86,2.81,2.21,4.19,3.58-1.72,1.23-3.33,2.39-5.15,3.69,5.14,2.81,10.02,5.47,15.05,8.22-2.68,4.85-5.3,9.56-7.97,14.4-1.31-1.07-2.14-2.32-2.8-3.73-2.29-4.86-4.61-9.71-6.92-14.55-.22-.46-.47-.91-.77-1.52-1.48.84-2.53,2.14-3.97,3.17-1.13-1.24-2.3-2.37-3.09-3.84-2.68-5.01-5.39-10.01-8.09-15.01-.17-.31-.36-.62-.66-1.12-.98.91-1.9,1.76-2.97,2.75-1.16-1.17-2.22-2.39-3.08-3.8-2.88-4.72-5.76-9.44-8.65-14.15-.26-.43-.56-.84-.96-1.44-.64.76-1.2,1.41-1.91,2.26-1.28-1.64-2.44-3.01-3.46-4.47-3.11-4.45-6.17-8.93-9.25-13.4-.23-.33-.49-.64-.79-1.03-.4.33-.74.62-1.23,1.03-.8-1.09-1.55-2.12-2.31-3.15h5.28Z"/>
      <path class="cls-2" d="M373.43,0c-.72.63-1.45,1.25-2.31,2,.65.31,1.15.54,1.65.78,5.88,2.93,11.75,5.86,17.63,8.79,1.62.8,2.7,2.18,4.07,3.56-1.75,1.07-3.36,2.05-5.23,3.19.63.37,1.08.66,1.55.91,5.33,2.77,10.47,5.86,15.5,9.14,1.04.68,2.08,1.37,3,2.19.91.82,1.67,1.82,2.65,2.91-1.63.81-3.13,1.56-4.7,2.34.47.97,1.45,1.19,2.15,1.72.74.55,1.53,1.03,2.49,1.67-1.7,2.53-3.35,4.98-5.16,7.66-1.39-2.98-2.67-5.72-4.04-8.66-2.08,1.18-4.04,2.28-6.14,3.46-1.29-1.29-2.76-2.36-3.59-4.13-2.41-5.09-4.92-10.13-7.4-15.19-.18-.36-.4-.71-.7-1.24-1.94,1.28-3.81,2.52-5.82,3.84-1.32-1.11-2.75-2.07-3.6-3.69-2.59-4.94-5.21-9.87-7.82-14.81-.24-.45-.51-.87-.85-1.45-1.87,1.4-3.63,2.72-5.49,4.11-1.4-1.25-2.93-2.21-3.78-3.9-.65-1.29-1.44-2.51-2.13-3.79-.24-.44-.36-.94-.53-1.42h18.62Z"/>
      <path class="cls-2" d="M400.75,0c.68.83,1.36,1.66,2.04,2.49,1.41,1.72,2.82,3.43,4.21,5.16.31.39.55.84.88,1.36-.51.22-.91.39-1.43.61,2.46,2.86,4.95,5.58,7.23,8.47,2.3,2.91,4.4,5.98,6.69,9.12-1.13,1.55-2.17,2.98-3.38,4.63-1.34-1.62-2.61-2.93-3.51-4.57-2.83-5.1-5.68-10.19-8.54-15.28-.27-.49-.59-.95-.96-1.54-.94.41-1.83.78-2.71,1.18-1.38.63-1.33.6-2.48-.48-1.37-1.3-2.43-2.79-3.3-4.45-.97-1.82-2.02-3.6-3.01-5.41-.21-.39-.29-.85-.43-1.28h8.69Z"/>
      <path class="cls-2" d="M247.4,0c.13.32.17.72.39.96,1.05,1.14,1.24,2.52.98,3.91-.26,1.42.26,2.27,1.33,3.14,3.55,2.88,6.33,6.41,7.86,10.75.79,2.24,1.73,4.34,2.91,6.41,1.49,2.63,2.5,5.54,3.66,8.36.96,2.34,1.84,4.71,2.75,7.07.11.27.17.56.06.93-.2-.33-.43-.64-.6-.98-5.76-11.68-13.45-22.01-22.14-31.64-2.35-2.61-4.82-5.11-7.21-7.68-.34-.36-.58-.81-.87-1.23h10.86Z"/>
      <path class="cls-2" d="M327.49,335c-1.52-3.28-2.99-6.58-4.56-9.83-5.9-12.18-12.08-24.23-18.69-36.05-.1-.18-.18-.37-.15-.69.21.21.45.4.63.63,3.65,4.62,7.31,9.23,10.94,13.88.87,1.12,1.62,2.33,2.43,3.5l-.23.3c-.94-.32-1.88-.64-3.08-1.05.34.54.5.85.71,1.11,4.25,5.4,8.49,10.8,12.77,16.18,1.09,1.37,2.08,2.77,2.87,4.63-1.52-.28-2.8-.51-4.41-.81,1.39,1.87,2.58,3.48,3.77,5.08.77,1.03,1.53,2.07,2.29,3.11h-5.28Z"/>
      <path class="cls-2" d="M551.92,335c.13-.33.21-.69.41-.97,1.2-1.73,2.43-3.44,3.67-5.18.85,1.01,2.01,4,2.44,6.15h-6.52Z"/>
      <path class="cls-3" d="M80.4,335c1.02-.8,2.03-1.6,3.26-2.56.32,1.05.55,1.81.78,2.56h-4.04Z"/>
      <path class="cls-2" d="M256.43,127.99c-1.74.67-3.53.13-5.39.47.26.38.42.68.64.92,2.51,2.74,5.02,5.5,7.57,8.2.71.75,1.19,1.53,1.18,2.68-1.58.82-3.4.52-5.2,1.01.27.4.46.76.71,1.05,1.78,2.01,3.58,4.01,5.37,6.02.27.31.58.61.76.97.52,1.03.22,1.72-.88,2.14-.19.08-.39.13-.58.22-1.36.61-2.46.39-3.66-.62-2.45-2.06-5.06-3.93-7.73-5.98.41-1.26.83-2.56,1.31-4.02-1.08-.22-2.07-.41-3.06-.62-.3-.06-.6-.15-.9-.22-2.12-.53-2.79-1.67-2.27-3.85.56-2.31,1.13-4.61,1.66-6.93.14-.59.17-1.2.26-1.85-1.32-.47-2.53-.89-3.73-1.34-2.04-.77-2.66-1.65-2.62-3.81.02-.98.16-1.95.22-2.93.14-2.21.27-4.42.4-6.71-1.12-.56-2.14-1.15-3.23-1.59-1.98-.79-2.78-2.37-3.01-4.32-.22-1.84-.31-3.7-.48-5.55-.11-1.23-.29-2.46-.38-3.7-.05-.69-.31-1.16-.92-1.49-.41-.22-.76-.53-1.17-.76-2.24-1.27-3.29-3.31-3.87-5.71-.72-3.01-1.49-6.01-2.22-9.02-.18-.72-.47-1.31-1.06-1.82-1.67-1.44-2.87-3.21-3.66-5.3-1.28-3.38-2.5-6.8-4.03-10.07-1.99-4.25-4.25-8.38-6.4-12.55-.25-.48-.49-.97-.63-1.5,4.18,5.48,8.37,10.95,12.73,16.66-1.52-.09-2.28-1.07-3.52-1.52.21.43.32.74.5.99,3.45,4.84,7.14,9.5,11.12,13.92,1,1.11,1.93,2.27,2.59,3.8-1.51.11-2.63-.9-4.22-1.11.35.55.54.94.82,1.26,3.61,4.25,7.22,8.51,10.88,12.72.85.98,1.6,1.99,2.09,3.32-1.73.22-3.18-.59-5.07-.87.42.57.65.97.96,1.32,3.4,3.82,6.79,7.65,10.24,11.43.81.89,1.43,1.84,1.83,3.1-1.81.25-3.46-.14-5.4-.37.33.51.5.85.74,1.12,3.07,3.36,6.13,6.72,9.24,10.04.74.79,1.18,1.66,1.44,2.74h0Z"/>
      <path class="cls-2" d="M191.16,177.54c1.46.88,2.92,1.77,4.38,2.65.63.41.47.97.26,1.51-.7,1.89-1.38,3.79-2.15,5.65-.27.64-.78,1.18-1.26,1.88-1.18-1.22-1.17-2.83-1.99-4.29-.92,2.09-1.76,3.96-2.57,5.86-.65,1.52-1.26,3.06-1.9,4.58-.5,1.19-.5,1.19-1.89,2.18-.69-1.27-1.37-2.52-2.13-3.92-.27.43-.5.74-.67,1.08-1.24,2.56-2.49,5.11-3.69,7.68-.44.94-1.02,1.66-2.24,2.08-.8-1.09-1.64-2.24-2.56-3.48-.27.39-.5.71-.7,1.04-1.25,2.08-2.49,4.17-3.75,6.25-.21.35-.45.71-.75.98-1.05.97-1.61.94-2.61-.08-.33-.33-.63-.69-.94-1.03-.31-.33-.62-.65-1.03-1.08-.47.62-.86,1.16-1.28,1.67-1.15,1.39-2.26,2.82-3.49,4.15-1.33,1.44-2.38,1.47-3.91.29-.57-.44-1.11-.9-1.71-1.39-2,1.8-3.87,3.66-6.44,4.67.54,1.17,1.03,2.2,1.6,3.42-.42-.12-.64-.12-.68-.2-1.7-3.46-3.39-6.93-5.13-10.49,2.86.08,5.52.27,8.35-.02-.74-1.39-1.38-2.6-2-3.77.97-.89,2-.98,3.04-1.01,2.63-.08,5.27-.16,7.91-.24.55-.02,1.1-.07,1.81-.11-.48-1.21-.92-2.24-1.31-3.29-.44-1.2-.4-1.45.75-1.92.84-.34,1.79-.47,2.7-.56,2.56-.26,5.13-.44,7.94-.68-.21-.81-.38-1.43-.54-2.05-.1-.4-.22-.8-.31-1.2-.43-1.79.03-2.58,1.86-2.99,1.21-.27,2.45-.4,3.67-.61,1.57-.27,3.14-.56,4.85-.87-.13-1.21-.29-2.32-.37-3.43-.13-1.89.46-2.72,2.3-3.25,1.84-.52,3.69-1,5.53-1.51.54-.15,1.06-.37,1.67-.59.07-1.26.13-2.48.2-3.79.48.1.82.16,1.16.23h0Z"/>
      <path class="cls-2" d="M202.93,184.79c.42.36.8.77,1.25,1.08,2.43,1.66,4.89,3.29,7.32,4.95,1.52,1.04,1.59,2.23.13,3.85-1.21-.76-2.46-1.53-3.91-2.43-.12,1.02-.23,1.91-.32,2.8-.15,1.54-.28,3.09-.44,4.62-.04.36-.1.73-.24,1.05-.4.92-1.07,1.21-2,.83-1.05-.43-2.06-.93-3.18-1.43-.23.97-.44,1.86-.66,2.76-.18.7-.34,1.41-.55,2.09-.72,2.28-1.48,2.7-3.79,2.13-.69-.17-1.38-.39-2.23-.63-.31.61-.61,1.19-.9,1.77-.99,2.05-2.51,3.23-4.91,3.02-.41-.04-.83.02-1.24-.04-.88-.12-1.54.15-2.25.71-.74.58-1.69,1.04-2.62,1.24-6.01,1.29-12.08,2.25-18.2,2.89-1.15.12-2.33-.02-3.5-.04,0-.12,0-.25-.01-.37,4.04-.46,8.08-.91,12.12-1.37.02-.1.03-.19.05-.29-.86-.35-1.72-.7-2.8-1.14.83-.71,1.62-.81,2.41-.92,2.91-.43,5.82-.86,8.73-1.3.44-.07.86-.21,1.5-.37-1.27-.77-2.35-1.42-3.47-2.09.74-.88,1.59-1.07,2.46-1.25,2.58-.52,5.16-1.06,7.74-1.61.49-.1.96-.26,1.64-.45-1.23-1.02-2.32-1.93-3.46-2.87.52-.91,1.16-1.38,2.07-1.61,2.3-.58,4.59-1.22,6.88-1.85.59-.16,1.15-.39,1.85-.63-1.18-1.3-2.24-2.48-3.27-3.6.44-1.16,1.21-1.65,2.19-1.99,2.48-.87,4.93-1.82,7.46-2.77-.84-1.7-2.38-2.78-2.81-4.66.4,0,.7,0,.98,0l-.05-.05h0Z"/>
      <path class="cls-2" d="M226.13,93.36c1.52,4.02,2.96,7.82,4.52,11.95-1.14-.59-1.27-1.57-2.1-2.2.08.46.1.76.19,1.05,1.52,4.88,3.37,9.64,5.45,14.31.43.96.7,2,1.04,3-.12.07-.23.15-.34.22-.89-.88-1.79-1.76-2.68-2.64-.08.03-.15.05-.23.08.16.49.28.99.48,1.46,1.78,4.29,3.56,8.58,5.37,12.85.43,1,.87,1.97.86,3.21-1.17-.3-1.88-1.14-2.76-1.7-.43-.28-.75-1.11-1.48-.38-.06.05-.37-.1-.54-.21-.83-.52-1.64-1.06-2.38-1.53-.05-.24-.12-.35-.09-.43.47-1.24.08-2.26-.7-3.26-1.75-2.24-1.9-4.83-1.57-7.52.18-1.43.34-2.87.44-4.31.09-1.28-.05-2.51-.51-3.78-.59-1.63-1.02-3.38-1.13-5.1-.33-4.9-.93-9.75-1.93-14.56-.02-.09.02-.2.07-.51h0Z"/>
      <path class="cls-2" d="M388.84,76.12c-.87,1.1-1.54,1.94-2.25,2.84.44.53.83.99,1.29,1.55-.3.61-.61,1.22-1.07,2.15-.47-1.51-1.93-1.6-2.42-2.79-.45-1.09-1.12-2.09-1.74-3.11-5.6-9.18-11.21-18.35-16.82-27.52-.23-.37-.44-.76-.81-1.4,1.62,1.26,8.87,9.25,9.67,10.57-.01.1,0,.22-.04.3-1.09,1.93-1.42,1.47.37,3.52,3.1,3.55,6.51,6.79,10.01,9.93,1.33,1.19,2.49,2.58,3.81,3.95h0Z"/>
      <path class="cls-2" d="M336.12,177.3c.1-.28.14-.6.31-.82.68-.91,1.41-1.78,2.11-2.67.83-1.06,1.42-1.2,2.67-.7,2.92,1.16,2.36,1.11,4.14-1.1.49-.6.9-1.26,1.37-1.87.89-1.14,1.58-1.22,2.74-.43.72.49,1.46.95,2.31,1.51.69-.81,1.32-1.54,1.93-2.29.59-.72,1.14-1.47,1.76-2.16,1.03-1.16,1.77-1.15,2.79-.02.42.46.86.89,1.27,1.36.44.5.92.58,1.7-.14-.21,1.45-.37,2.54-.54,3.73-.87.06-1.64.08-2.4.17-1.08.13-2.29-.3-3.15.84-.18.24-.78.17-1.19.23-1.74.26-3.51.36-5.2.8-4.23,1.1-8.43,2.36-12.64,3.55h.02s0,.01,0,.01Z"/>
      <path class="cls-2" d="M223.09,199.04c-2.88,1.37-5.37,2.75-8,3.73-1.1.41-2.51.01-3.9-.02.15-.29.18-.48.28-.53,3.15-1.51,6.31-3.02,9.62-4.59.51.35,1.08.76,2,1.4h0Z"/>
      <path class="cls-2" d="M156.79,159.39c-3.96-1.76-7.87-3.49-11.78-5.22,4.3,1.18,8.74,1.86,12.94,3.82-.42.51-.74.89-1.16,1.4Z"/>
      <path class="cls-2" d="M244.38,215.05c-.75.02-1.51.04-2.14-.5-2.11-1.8-4.21-3.62-6.15-5.66,2.82,1.92,5.64,3.83,8.47,5.75-.06.13-.12.27-.17.4h0Z"/>
      <path class="cls-2" d="M298.03,278.15c1.95,2.48,3.91,4.96,5.86,7.44-.09.1-.19.2-.28.3-.83-.42-1.68-.89-2.2-1.67-1.27-1.91-2.44-3.9-3.65-5.86.09-.07.18-.14.27-.21h0Z"/>
      <path class="cls-2" d="M336.1,177.29c-1.61.52-3.22,1.03-4.83,1.56-.57.19-1.14.4-2.04.73.72-.9,1.19-1.55,1.73-2.13.51-.56,1.18-.8,1.96-.67,1.07.18,2.13.35,3.2.53,0,0-.01,0-.01,0h0Z"/>
      <path class="cls-2" d="M204.8,41.05c1.61,2.12,3.5,4.07,4.73,6.49-2.56-1.44-3.4-4.14-4.73-6.49Z"/>
      <path class="cls-2" d="M227.18,125.04c-.07,1.47-.13,2.94-.2,4.42-.78.02-.99-.33-.89-.86.22-1.2.48-2.39.73-3.58.12,0,.24,0,.36.01h0Z"/>
      <path class="cls-2" d="M357.42,36.48c1.8,1.27,3.36,3.47,3.42,4.64-.95-.52-1.26-1.48-1.8-2.22-.58-.78-1.08-1.61-1.62-2.42h0Z"/>
      <path class="cls-2" d="M217.78,195.29c.85.59,1.5,1.04,2.15,1.49-.03.11-.06.22-.09.32-.9-.1-1.79-.2-2.94-.32.35-.59.56-.95.88-1.49Z"/>
      <path class="cls-2" d="M323.06,182.21c.5-.98,1.27-1.43,2.42-1.1-.8.37-1.61.73-2.42,1.1Z"/>
      <path class="cls-2" d="M206.03,206.52c-.3.11-.6.22-.9.33-.02-.04-.03-.09-.05-.13.28-.12.55-.24.83-.37.04.05.08.11.12.16Z"/>
      <path class="cls-2" d="M503.67,202.9c3.26,3.01,5.91,6.41,8.35,10.15-.57-.19-1.15-.37-1.99-.65.91,1.54,2.04,2.56,2.97,3.73.96,1.21,1.94,2.41,3,3.73-.93,1.46-2.29,2.49-3.49,3.91-.29-.47-.52-.78-.68-1.12-1.67-3.44-3.23-6.93-5.02-10.31-1.51-2.86-2.2-5.98-3.24-9-.03-.08.04-.2.09-.45Z"/>
      <path class="cls-2" d="M423.16,229.93c.74,4.69,1.53,9.58,2.29,14.47.2,1.28.23,2.56-.38,4-.2-.39-.39-.61-.43-.86-.27-1.73-.59-3.46-.74-5.2-.32-3.8-.54-7.61-.79-11.42-.03-.41.04-.82.04-.99Z"/>
      <path class="cls-2" d="M430.77,268.17c-1.66-4.35-2.11-9.01-3.11-13.54.1.23.21.45.29.69.08.24.11.5.18.75.89,3.02,1.82,6.03,2.67,9.06.27.96.3,1.99.44,2.99-.16.02-.32.03-.47.05h0Z"/>
      <path class="cls-2" d="M501.72,198.76c-1.83-3.66-2.99-7.56-3.96-11.52,1.56,3.76,2.75,7.65,3.96,11.52Z"/>
      <path class="cls-2" d="M527.38,15.23c2.51-2.57,5.6-4.39,8.69-6.5-.67.97-6.84,5.61-8.69,6.5Z"/>
      <path class="cls-2" d="M439.05,286.84c-1.48-2.32-2.22-4.95-3.07-7.53,1.16,2.46,2.53,4.83,3.07,7.53Z"/>
      <path class="cls-2" d="M448.8,304c-.49-.8-.98-1.59-1.48-2.38.11-.07.21-.14.32-.2.49.78.98,1.57,1.47,2.35-.1.08-.21.16-.31.24h0Z"/>
      <path class="cls-2" d="M496.89,184.47c.11.26.22.53.32.8-.05.03-.1.05-.15.07-.12-.27-.24-.54-.36-.81.06-.02.12-.04.19-.06h0Z"/>
    </g>
  </g>
</svg>