<?xml version="1.0" encoding="UTF-8"?>
<svg id="Layer_1" data-name="Layer 1" xmlns="http://www.w3.org/2000/svg" version="1.1" viewBox="0 0 614 339.5">
  <defs>
    <style>
      .cls-1 {
        fill: #13ff00;
        stroke-width: 0px;
      }
    </style>
  </defs>
  <path class="cls-1" d="M398.08,339.23c-3.27-3.91-6.5-7.86-9.82-11.72-11.83-13.75-24.27-26.81-37.05-39.49-.5-.5-.98-1.03-1.57-1.65.4-.57.68-1.07,1.04-1.5,1.91-2.3,3.9-4.53,5.75-6.88,1.01-1.28,2.17-1.95,3.69-2.21,11.45-1.95,22.89-4.02,34.34-5.94,9.75-1.63,19.52-3.11,29.29-4.66.46-.07.91-.24,1.75-.47-9.88-11.33-20.11-21.78-30.7-32.2,2.2-2.59,4.18-5.01,6.27-7.3.42-.46,1.27-.54,1.93-.6,9.08-.78,18.15-1.59,27.23-2.27,7.57-.57,15.15-.98,22.72-1.48.53-.03,1.06-.14,1.99-.28-1.62-2.35-3.45-4.03-5.1-5.87-1.7-1.89-3.43-3.75-5.17-5.59-1.74-1.84-3.51-3.66-5.28-5.47-1.77-1.81-3.56-3.6-5.35-5.38-1.79-1.78-3.58-3.55-5.59-5.54,1.5-2.02,2.95-3.91,4.69-5.48.49-.44,1.45-.35,2.2-.35,10.76-.01,21.52-.01,32.28,0,2.21,0,4.41.11,6.62.15.66.01,1.32-.06,2.46-.12-7.54-8.58-15.2-16.29-23.2-24.06,1.25-1.46,2.29-2.87,3.52-4.01.48-.45,1.43-.43,2.15-.39,5.58.3,11.16.61,16.73,1.02,5.57.41,11.14.94,16.71,1.41.26.02.52-.03,1.21-.07-6.65-7.65-13.56-14.43-20.59-21.33.69-.85,1.29-1.47,1.77-2.2.79-1.21,1.81-1.43,3.08-1.26,5.34.69,10.7,1.29,16.04,1.99,4.11.54,8.2,1.19,12.31,1.79.26.04.53,0,1.2,0-6.01-6.84-12.18-12.95-18.51-19.07.51-.68.92-1.18,1.28-1.72.69-1.04,1.54-1.31,2.7-1.09,6.73,1.25,13.47,2.44,20.21,3.65,1.73.31,3.45.67,5.26.82-5.1-6.14-10.74-11.58-16.29-17.05,1.53-2.65,1.64-2.75,4.05-2.2,6.75,1.53,13.5,3.1,20.25,4.65.46.11.92.18,1.88.36-5.05-5.78-10.17-10.72-15.22-15.68,1.11-2.29,1.24-2.41,3.19-1.9,6.03,1.6,12.06,3.24,18.08,4.85.46.12.91.22,1.47.17-4.21-5.11-8.92-9.61-13.54-14.13,1.16-2.03,1.19-2.08,3.05-1.52,5.45,1.65,10.89,3.34,16.34,5.01.32.1.64.19,1.07.11-3.9-4.67-8.18-8.85-12.46-12.98.93-1.83.95-1.89,2.59-1.35,4.62,1.53,9.22,3.12,13.84,4.68.64.21,1.28.41,1.91.61l.24-.4c-3.88-3.95-7.76-7.9-11.66-11.88.38-1.44,1.2-1.44,2.25-1.05,3.66,1.36,7.33,2.67,10.99,4.01,1.1.4,2.18.84,3.27,1.26.09-.14.17-.28.26-.42-1.76-1.85-3.51-3.72-5.3-5.54-1.81-1.85-3.66-3.65-5.45-5.43.5-1.6,1.43-1.18,2.26-.85,3.32,1.28,6.62,2.59,9.93,3.9,1.03.41,2.05.83,3.19,1.08-3.06-3.83-6.57-7.13-9.99-10.5.4-1.32,1.12-1.14,1.87-.83,1.94.79,3.88,1.56,5.82,2.37,5.34,2.24,9.9,5.69,13.68,10.37.98,1.21,1.75,2.5,2.26,4.03,1.53,4.64,3.12,9.26,4.69,13.9.28.84.67,1.68-.03,2.71-1.35-.81-1.91-2.34-2.83-3.49-.96-1.2-1.82-2.48-2.75-3.71-.92-1.22-1.86-2.41-3.08-3.45.17.6.32,1.21.52,1.81,1.54,4.8,3.11,9.59,4.63,14.41.3.94.84,2-.35,2.98-2.87-3.86-5.74-7.72-8.6-11.57-.12.06-.24.12-.36.19.18.66.35,1.32.54,1.97,1.59,5.27,3.19,10.53,4.8,15.79.32,1.03.65,2.04-.3,3.07-1.41-.98-2.11-2.68-3.16-4.01-1.03-1.32-1.99-2.72-3.01-4.07-1.05-1.39-2.14-2.74-3.21-4.11-.13.07-.25.14-.38.21.2.75.38,1.5.59,2.24,1.65,5.8,3.3,11.61,4.98,17.4.34,1.15.44,2.2-.57,3.35-3.42-4.61-6.79-9.15-10.17-13.69-.11.06-.22.12-.34.18.13.61.24,1.24.41,1.84,1.78,6.71,3.57,13.43,5.38,20.13.37,1.38.55,2.68-.67,4-3.68-4.96-7.36-9.91-11.03-14.86l-.39.24c.16.71.32,1.42.49,2.12,1.86,7.64,3.69,15.29,5.6,22.91.39,1.55.17,2.8-.92,4.17-4.02-5.44-8-10.81-11.98-16.18-.12.07-.24.14-.36.21.05.48.06.97.16,1.44,1.93,8.79,3.89,17.58,5.82,26.38.57,2.61.55,2.62-.94,5.29-1.42-1.27-2.26-3.02-3.38-4.5-1.11-1.46-2.15-2.97-3.24-4.45-1.13-1.53-2.27-3.06-3.42-4.58-1.1-1.44-2.22-2.86-3.33-4.29l-.4.2c.21,1.06.43,2.12.64,3.18,1.86,9.59,3.66,19.2,5.61,28.78.47,2.3.03,4.16-1.32,6.23-1.45-1.47-2.42-3.29-3.61-4.9-1.27-1.71-2.49-3.46-3.75-5.17-1.22-1.66-2.44-3.3-3.69-4.93-1.23-1.61-2.48-3.19-3.72-4.79-.13.07-.27.13-.4.2.18,1.07.37,2.14.55,3.21,1.87,11.38,3.65,22.77,5.64,34.12.49,2.79-.43,4.83-1.71,7.31-1.68-1.87-2.85-3.9-4.2-5.76-1.34-1.84-2.66-3.7-4.01-5.53-1.39-1.89-2.8-3.77-4.22-5.63-1.36-1.79-2.75-3.56-4.43-5.2.03.47.02.94.09,1.41,1.94,14.83,3.9,29.66,5.8,44.5.12.92-.08,1.97-.38,2.85-.51,1.46-1.22,2.83-2.03,4.62-6.14-8.82-12.14-17.21-18.89-25.66,0,1.14-.05,1.77,0,2.38.87,8.62,1.81,17.24,2.62,25.86.86,9.23,1.59,18.48,2.41,27.72.11,1.26-.05,2.39-.58,3.52-.84,1.81-1.6,3.66-2.58,5.91-7.15-10.28-14.13-20.12-21.97-29.85,0,1.2-.03,1.85,0,2.49,1.15,22.18,2.29,44.37,3.48,66.55.13,2.51-.16,4.8-1.3,7.01-.85,1.65-1.49,3.43-2.25,5.14-.2.46-.49.86-.91,1.58-8.04-11.67-16.12-23.01-24.83-33.97-.71.95-.44,1.88-.43,2.72.11,10.73.28,21.46.38,32.19.04,4.26-.05,8.52-.07,12.77h-49.67Z"/>
  <path class="cls-1" d="M533.42,339.23c-.25-.77-.41-1.6-.78-2.3-4.8-9.24-9.59-18.48-14.48-27.66-.84-1.58-1.2-2.95-.46-4.67.56-1.3,1.01-2.68,1.34-4.07.37-1.56,1.21-2.17,2.61-2.39,6.62-1.05,13.23-2.19,19.84-3.3,1.82-.3,3.64-.58,5.75-.92-.45-1.05-.72-1.81-1.08-2.51-4.51-8.72-8.99-17.46-13.6-26.11-.86-1.62-1.15-3.01-.38-4.66.22-.47.33-1,.51-1.5.97-2.71.36-2.64,3.51-2.71,5.79-.13,11.59-.2,17.38-.3.94-.02,1.88-.09,3.16-.15-.44-1.03-.72-1.78-1.08-2.48-3.86-7.46-7.68-14.96-11.64-22.35-.93-1.73-1.38-3.22-.47-5.06.36-.72.56-1.54.92-2.57,6.59.29,13.09,1.4,19.96,2.15-.45-1.06-.69-1.76-1.02-2.4-3.34-6.48-6.55-13.05-10.12-19.37-1.44-2.56-1.36-4.58.14-7.04,5.68.87,11.32,2.46,17.33,3.86-.45-1.07-.7-1.77-1.03-2.41-3-5.82-5.92-11.69-9.09-17.39-1.17-2.1-1.43-3.83.01-6.03,5,1.16,9.91,3.12,15.24,4.92-.31-.87-.46-1.49-.74-2.03-2.83-5.49-5.61-11.01-8.57-16.41-.96-1.75-1.1-3.17.17-4.89,4.51,1.44,8.85,3.55,13.56,5.58-.27-.81-.38-1.37-.63-1.85-2.62-5.09-5.22-10.2-7.94-15.23-.77-1.43-.98-2.62.17-4.17,4.05,1.59,7.95,3.81,12.28,6.02-.32-.88-.46-1.43-.71-1.91-2.39-4.63-4.77-9.26-7.22-13.84-.65-1.22-1.05-2.31.04-3.73,3.75,1.57,7.22,4.01,11.23,6.17-.36-.9-.53-1.45-.78-1.94-2.19-4.23-4.38-8.45-6.61-12.65-.55-1.04-1.02-2,.03-3.36,3.37,1.74,6.58,4.01,10.1,5.91-.28-.66-.51-1.34-.84-1.97-1.92-3.7-3.85-7.38-5.79-11.07-.49-.93-1.08-1.82-.13-3.09,3.27,1.57,6.08,4.13,9.65,6.34-.57-1.27-.89-2.08-1.29-2.83-1.72-3.3-3.45-6.58-5.18-9.87-.44-.83-1.14-1.64-.15-2.77.37.18.81.34,1.18.61,2.34,1.74,4.71,3.46,6.98,5.31.74.6,1.39,1.48,1.83,2.39,1.25,2.63,2.5,5.27,3.48,8.02.7,1.96,1.06,4.08,1.41,6.17.9,5.46,1.73,10.94,2.54,16.41.11.75.02,1.54.02,2.31-.15.02-.29.03-.43.05-1.41-3.92-2.82-7.83-4.23-11.75-.12.03-.24.07-.35.1.43,2.75.87,5.5,1.28,8.25.62,4.13,1.24,8.25,1.8,12.39.13.92.02,1.88.02,2.82-.16.04-.31.07-.47.11-1.48-4.09-2.95-8.19-4.43-12.28-.13.03-.27.07-.4.1.2,1.42.39,2.85.59,4.26.86,6.16,1.74,12.32,2.59,18.48.13.94.31,1.94-.52,2.92-1.69-4.69-3.33-9.25-4.98-13.8-.12.04-.25.09-.37.13.56,3.93,1.14,7.86,1.66,11.79.62,4.67,1.22,9.33,1.75,14.01.11,1-.09,2.04-.14,3.07-.15.02-.3.03-.45.04-1.82-5.03-3.63-10.06-5.45-15.09-.13.05-.25.1-.38.14.45,3.36.93,6.71,1.35,10.07.76,6.18,1.52,12.36,2.2,18.55.14,1.23-.09,2.51-.15,3.76-.17.02-.34.05-.5.07-1.94-5.38-3.88-10.76-5.81-16.15-.12.02-.25.04-.37.06,0,.45-.05.92,0,1.36,1.17,10.03,2.35,20.06,3.52,30.09.2,1.67.2,3.33-.54,5.4-1.04-2.2-1.55-4.27-2.28-6.22-.74-1.97-1.4-3.97-2.12-5.94-.74-2.02-1.53-4.03-2.29-6.04-.13.04-.26.07-.4.11.3,2.57.62,5.13.88,7.7,1.01,9.82,2.03,19.65,2.94,29.48.14,1.52-.25,3.1-.4,4.65-.16.01-.32.02-.49.04-2.36-6.56-4.73-13.12-7.09-19.68-.17.04-.35.09-.52.13.17,1.81.35,3.62.52,5.43,1.13,12.41,2.29,24.82,3.33,37.24.15,1.84-.31,3.75-.7,5.66-1.24-1.61-1.57-3.61-2.26-5.42-.72-1.89-1.33-3.84-2.01-5.74-.66-1.84-1.33-3.67-2.02-5.5-.71-1.87-1.44-3.72-2.53-5.46.28,3.06.58,6.11.83,9.17.8,9.7,1.58,19.39,2.36,29.09.25,3.11.37,6.23.67,9.33.32,3.3-.03,6.49-1.02,9.71-3.07-8.33-5.87-16.77-9.64-24.85.19,2.67.4,5.33.58,8,.8,11.76,1.6,23.52,2.39,35.28.23,3.49.43,6.98.6,10.48.1,2.05.11,4.1.16,6.15h-4.55c-2.41-6.55-4.82-13.1-7.24-19.64-.04-.09-.24-.11-.45-.2.04.65.07,1.24.11,1.85.32,6,.64,12,.97,18h-25.66,0Z"/>
  <path class="cls-1" d="M.33,103.59c1.75-.39,3.51-.73,5.26-1.17,11.22-2.81,22.43-5.69,33.66-8.45,15.81-3.88,31.64-7.64,47.45-11.51,19.04-4.66,38.07-9.36,57.1-14.09,10.42-2.59,20.81-5.32,31.24-7.88,20.45-5.03,40.92-9.96,61.36-15.01,16.01-3.95,31.99-8.03,48-12,13.38-3.32,26.78-6.53,40.17-9.83,19.84-4.89,39.67-9.83,59.52-14.7,10.36-2.54,20.73-5.02,31.12-7.42,2.69-.62,5.46-.87,8.19-1.25,1.62-.22,3.11.22,4.92,1.49-5.08.99-9.85.54-14.83,1.55.81.56,1.35.94,1.89,1.31,0,.15,0,.3,0,.45-.68.15-1.36.38-2.05.44-3.78.31-7.57.57-11.35.86-.6.05-1.2.15-2.13.26.73.74,1.24,1.26,1.93,1.97-3,1.2-5.92.79-8.76,1.05-2.79.26-5.57.52-8.7.81.68.91,1.1,1.46,1.6,2.14-1.29.92-2.63,1-3.97,1.09-4.27.29-8.53.59-12.8.9-.67.05-1.33.18-2.16.3.32.98.57,1.73.86,2.59-1.56.89-3.18,1.03-4.82,1.15-4.61.32-9.22.64-13.83.98-.67.05-1.34.18-2.15.29-.07,1.09-.12,2.04-.19,3.09-1.32.84-2.8,1.11-4.31,1.21-4.2.3-8.4.55-12.6.85-1.51.11-3.02.38-4.53.42-1.25.03-1.97.65-2.21,1.91-.37,1.92-1.44,2.79-3.14,2.98-1.78.2-3.54.55-5.32.69-5.36.45-10.73.85-16.1,1.21-1.28.08-2.23.62-2.97,1.73-.08.12-.2.22-.27.35-1.82,3.79-5.17,4.21-8.47,4.48-6.46.55-12.93.95-19.4,1.36-1.65.1-3.1.59-4.36,1.78-1.05.99-2.21,1.84-3.19,2.9-1.28,1.39-2.77,2.1-4.48,2.6-3.37.98-6.8,1.09-10.24,1.32-5.78.39-11.56.82-17.33,1.34-.99.09-2.04.48-2.91,1.03-3.04,1.95-5.99,4.06-9,6.06-.81.54-1.71.96-2.61,1.28-4.64,1.65-9.44,1.95-14.28,2.2-6.34.32-12.66.89-18.98,1.42-.87.07-1.76.4-2.55.83-5.19,2.82-10.36,5.71-15.53,8.58-.49.27-.94.71-1.46.85-4.09,1.03-8.15,2.48-12.3,2.89-9.2.91-18.44,1.27-27.66,1.92-1.15.08-2.34.36-3.4.85-8.83,4.11-17.63,8.3-26.44,12.44-1.13.53-2.31,1.01-3.5,1.35-3.2.91-6.4,1.87-9.65,2.55-2.49.52-5.05.73-7.59.89-8.88.58-17.76,1.11-26.64,1.59-3.17.17-6.06,1.4-8.96,2.58-10.6,4.35-21.17,8.75-31.77,13.11-.76.31-1.57.44-2.36.65v-9.59h0Z"/>
  <path class="cls-1" d="M585.16,339.23c.03-.3.13-.63.06-.89-.75-2.74-.07-5.42.22-8.12.13-1.25.61-1.89,1.68-2.24,1.92-.63,3.8-1.36,5.7-2.07.64-.24,1.26-.54,2.12-.9-.43-2.72-.77-5.34-1.27-7.92-1.08-5.58-2.22-11.13-3.38-16.69-.64-3.05-.6-5.01.41-8.55,2.4-.19,4.92-.39,7.67-.6-.07-.93-.05-1.74-.2-2.52-1.27-6.62-2.5-13.24-3.9-19.83-.52-2.47-.36-4.78.33-7.36,2.2.47,4.34.92,6.77,1.43-.09-1.06-.08-1.95-.25-2.81-1.15-5.95-2.29-11.9-3.52-17.82-.42-2-.33-3.89.23-5.91,2.15.21,3.82,1.71,5.88,2.37.42-.93.09-1.82-.06-2.64-.98-5.21-1.99-10.41-3.05-15.6-.39-1.88-.67-3.72.08-5.69,2.05.47,3.42,2.37,5.61,3.37-.53-3.04-.96-5.78-1.49-8.51-.6-3.12-1.24-6.24-1.93-9.34-.31-1.39-.3-2.69.26-4.08,1.88.7,2.96,2.65,4.95,3.9-.29-1.91-.46-3.46-.76-4.99-.7-3.64-1.51-7.26-2.18-10.91-.24-1.29-.2-2.65-.32-4.32,2.11,1.01,3.03,2.89,4.84,4.44-.14-1.2-.17-1.97-.32-2.72-.8-4.16-1.6-8.33-2.44-12.48-.22-1.05-.36-2.06.13-3.27,1.73,1.08,2.53,3.01,4.2,4.19-.35-2.04-.66-4.08-1.05-6.11-.51-2.68-1.07-5.34-1.63-8.01-.19-.89-.35-1.75.34-2.88,1.78,2.52,3.81,4.53,4.27,7.76.75,5.2,1.22,10.4,1.18,15.67-.05,6.54-.09,13.08-.43,19.63-.25-2.31-.5-4.62-.74-6.92-.08,0-.16,0-.24.01v22.54c-.13,0-.27.02-.4.02-.21-2.5-.42-4.99-.64-7.49-.02,0-.04,0-.06,0-.15,8.42-.29,16.84-.44,25.25-.14,0-.27,0-.41,0-.2-2.97-.4-5.94-.6-8.92-.06,0-.12,0-.17,0l-.46,28.63c-.16,0-.33,0-.49.01-.22-3.48-.44-6.97-.65-10.46-.09,0-.18,0-.27,0,0,1.08.01,2.16,0,3.24-.14,8.82-.28,17.65-.45,26.47-.03,1.34-.18,2.67-.63,4-.23-4.11-.45-8.22-.68-12.33-.46,13.12-.51,26.24-1.52,39.34l-.89-13.73c-.42,15.06-.71,30.1-1.4,45.12-.15,0-.3,0-.45,0-.32-5.28-.63-10.55-.94-15.83l-.24.02-.65,24.04h-15.32Z"/>
  <path class="cls-1" d="M508.07,21.33c-3.88-1.87-7.75-3.74-11.63-5.6.02-.17.03-.34.05-.51.7-.08,1.42-.31,2.09-.2,5.73.92,11.46,1.81,17.16,2.94,1.65.33,3.2,1.36,4.73,2.21,3.92,2.18,7.07,5.29,9.44,9.33.79,1.34,1.6,2.67,2.3,4.06.36.72,1.37,1.46.6,2.38-.82.97-1.49-.14-2.13-.57-2.6-1.73-5.16-3.53-7.74-5.29-.64-.44-1.31-.82-2.34-1.46.29.79.4,1.24.6,1.61,1.57,2.87,3.16,5.72,4.73,8.58.25.45.55.9.68,1.4.1.37.1,1.04-.1,1.19-.32.24-.87.3-1.27.18-.44-.13-.82-.54-1.23-.83-3.39-2.33-6.78-4.66-10.49-7.22.36,2.07,1.44,3.25,2.09,4.66.69,1.49,1.49,2.92,2.21,4.39.72,1.45,1.41,2.92,2.06,4.27-.75,1.57-1.54,1.24-2.48.58-3.31-2.33-6.65-4.61-9.99-6.9-.57-.39-1.17-.7-1.99-.82,2.18,4.68,4.37,9.36,6.51,13.96-.87,1.2-1.77,1.48-2.7.84-3.68-2.54-7.36-5.08-11.05-7.61-.56-.38-1.16-.68-2.17-1.26,2.4,5.69,4.59,10.89,6.84,16.22-.59.58-1.08,1.07-1.67,1.65-5.12-3.5-10.18-6.97-15.24-10.44l-.33.35c2.18,5.86,4.36,11.72,6.6,17.74-.72.65-1.34,1.21-2.02,1.82-5.55-3.82-11.03-7.59-16.51-11.36-.11.09-.22.18-.33.27.12.53.21,1.07.37,1.58,1.7,5.31,3.42,10.6,5.11,15.92.94,2.97.91,2.98-1.74,4.74-5.88-4.14-11.73-8.55-18.26-12.46.17.93.24,1.51.38,2.06,1.58,6.07,3.2,12.13,4.74,18.2.9,3.56.86,3.57-2.32,5.56-6.42-4.63-12.88-9.39-20.07-13.82.14,1.04.19,1.66.3,2.26,1.44,7.52,2.91,15.03,4.33,22.55.16.85.35,2.04-.04,2.58-.75,1.04-1.85,1.81-2.91,2.49-.29.19-1.01-.27-1.45-.58-2.37-1.69-4.69-3.49-7.08-5.15-4.08-2.84-8.21-5.6-12.32-8.39-.46-.31-.95-.56-1.66-.97,0,.78-.06,1.34,0,1.88,1.07,8.98,2.09,17.96,3.27,26.92.28,2.14-.1,3.54-1.76,4.81-2.88,2.2-2.03,2.27-5.07.1-6.84-4.86-13.73-9.64-20.6-14.44-.51-.36-1.06-.63-1.87-1.11-.04.9-.11,1.54-.09,2.17.39,10.87.79,21.75,1.17,32.62.12,3.47.12,3.51-2.42,5.64-3.87,3.25-2.43,3.21-6.52.29-7.82-5.58-15.68-11.07-23.53-16.59-.57-.4-1.19-.7-2.09-1.23-.11,1.15-.22,2.02-.27,2.89-.74,12.76-1.47,25.52-2.21,38.27-.1,1.75-.28,3.49-.37,5.24-.05,1.05-.36,1.87-1.15,2.53-1.87,1.56-3.72,3.16-5.53,4.8-.77.69-1.45.76-2.22.09-.38-.33-.78-.63-1.18-.92-9.66-6.91-19.32-13.83-28.99-20.73-.5-.36-1.07-.62-1.81-1.03-.19.92-.37,1.62-.49,2.35-3.1,18.64-6.21,37.27-9.25,55.92-.32,1.99-1,3.5-2.54,4.69-2.08,1.62-4.03,3.46-6.04,5.19-1.94,1.68-1.94,1.67-3.88.16-2.37-1.84-4.74-3.67-7.13-5.48-26.39-20.09-54.04-37.77-82.95-53.05-6.28-3.32-12.67-6.37-19.01-9.54-.8-.4-1.6-.82-2.68-1.38.7-.47,1.12-.82,1.59-1.06,3.27-1.63,6.52-3.3,9.84-4.8,1.25-.57,2.64-.87,3.99-1.02,10.22-1.15,20.45-2.31,30.68-3.31,15.8-1.54,31.61-2.97,47.42-4.43,3.16-.29,6.33-.49,9.49-.74.95-.07,1.91-.18,2.92-.5-5.58-3.73-11.48-6.72-17.34-9.76-5.92-3.07-11.93-5.92-18.13-8.99.53-.41.85-.75,1.24-.95,2.45-1.23,4.89-2.47,7.37-3.62.81-.37,1.71-.63,2.59-.69,14.32-.96,28.64-1.95,42.96-2.81,9.16-.54,18.33-.87,27.49-1.29.51-.03,1.02-.12,1.58-.41-9.94-5.94-20.21-11-30.87-15.98.62-.48.95-.79,1.32-1.02,3.69-2.25,7.62-3.18,11.87-3.24,16.62-.23,33.23-.68,49.85-1.04.95-.02,1.91,0,2.92-.29-2.64-2.09-5.54-3.48-8.4-4.95-3-1.55-6.01-3.06-9.04-4.53-2.95-1.44-5.93-2.82-9.34-4.45,2.69-1.4,4.81-3.02,7.54-3,15.03.08,30.07.13,45.11.2.71,0,1.43,0,2.17-.25-7.58-4.58-15.44-8.31-23.81-12.16,2.08-1.18,3.63-2.37,5.63-2.37,2.76,0,5.52-.07,8.28.03,10.41.36,20.81.78,31.22,1.17.48.02.96,0,1.51-.17-3.3-2.25-6.86-3.92-10.39-5.67-3.57-1.77-7.18-3.43-11.01-5.24,1.69-1.46,3.34-2.11,5.26-2.02,5.44.25,10.89.41,16.33.71s10.88.73,16.31,1.09c.65.04,1.31,0,2.01-.17-6.19-3.65-12.63-6.64-19.44-9.76,1.47-1.13,2.69-1.79,4.17-1.69,6.88.46,13.77.92,20.65,1.42,3.22.23,6.44.55,10.1.88-1.42-1.57-2.94-1.99-4.28-2.73-1.42-.78-2.88-1.47-4.33-2.18-1.45-.71-2.91-1.39-4.37-2.07-1.44-.67-2.89-1.34-4.54-2.1,1.22-1.18,2.4-1.57,3.76-1.45,7.08.65,14.15,1.29,21.23,1.94,1.89.17,3.77.39,5.71.38-5.1-3.18-10.53-5.48-15.95-8.09,1.05-1.34,2.28-1.36,3.52-1.23,5.01.51,10.02,1.02,15.03,1.57,2.94.32,5.88.73,8.88.91-4.73-2.83-9.7-5.09-14.82-7.42.99-1.27,2.03-1.18,3.03-1.07,4.66.52,9.33,1.05,13.99,1.62,2.53.31,5.05.71,7.64.92-4.3-2.78-9-4.63-13.65-6.95.92-1.13,1.87-1.04,2.81-.91,5.81.81,11.62,1.64,17.43,2.46.6.08,1.21.12,1.87.01-3.94-2.46-8.16-4.22-12.5-6.28.88-1.13,1.84-.93,2.73-.8,4.38.63,8.74,1.29,13.12,1.95,1.49.23,2.98.5,4.47.75.03-.18.05-.36.08-.53h-.01Z"/>
  <path class="cls-1" d="M416.02,15.55l-13.29-1.53c-.02-.14-.03-.28-.05-.42.77-.18,1.53-.46,2.31-.52,7.43-.48,14.87-.93,22.3-1.38.72-.04,1.43-.07,2.15-.1,0-.19,0-.38,0-.57l-11.48-1.31-.06-.39c.4-.14.8-.36,1.21-.4,3.78-.3,7.56-.6,11.35-.82,3.85-.23,7.71-.36,11.57-.65-3.63-1.12-7.44-.88-11.12-1.85,7.36-1.27,14.8-.99,22.2-1.94-3.39-.38-6.78-.76-10.17-1.14-.03-.11-.05-.21-.07-.32.46-.14.92-.39,1.38-.41,6.75-.29,13.51-.82,20.26-.73,3.75.05,7.5,1.11,11.24,1.73.33.05.7.18.96.4,2.11,1.82,4.05,3.82,5.86,5.99-.91,1.09-1.77.77-2.65.52-3.14-.9-6.27-1.77-9.42-2.64-.71-.19-1.43-.3-2.3-.12,1.68,1.97,3.36,3.93,5.09,5.95-.93,1.38-2.02.93-3.05.65-3.41-.95-6.8-1.94-10.21-2.88-.65-.18-1.33-.24-2.36-.43,1.92,2.55,3.6,4.79,5.3,7.05-1.16,1.08-2.17.97-3.3.64-3.66-1.09-7.33-2.1-11.01-3.13-.72-.2-1.47-.31-2.68-.56,1.86,2.83,3.48,5.29,5.13,7.81-1.1,1.21-2.2,1.24-3.49.86-4.12-1.23-8.27-2.37-12.41-3.53-.7-.19-1.42-.27-2.44-.46,1.73,3.14,3.25,5.91,4.8,8.71-1.38,1.29-2.68,1.32-4.18.88-4.79-1.42-9.61-2.73-14.42-4.07-.32-.09-.66-.12-1.41-.24.83,1.88,1.53,3.45,2.21,5.04.7,1.63,1.39,3.27,2.1,4.94-1.67,1.16-3.11,1.47-4.87.92-4.91-1.53-9.86-2.87-14.8-4.26-.63-.18-1.3-.22-2.23-.37,1.22,3.94,2.33,7.52,3.46,11.19-1.76,1.28-3.41,1.86-5.49,1.21-5.37-1.68-10.79-3.16-16.19-4.69-.71-.2-1.45-.3-2.48-.51.77,4.53,1.48,8.75,2.2,13.04-2.18,1.36-4.17,2.12-6.71,1.29-5.81-1.9-11.71-3.46-17.58-5.14-.72-.21-1.46-.29-2.48-.5-.2,5.28.34,10.34.15,15.47-1.55.64-2.93,1.38-4.39,1.75-.87.22-1.89-.03-2.8-.29-6.8-1.95-13.59-3.96-20.39-5.94-.72-.21-1.47-.29-2.4-.47-.17.76-.36,1.39-.45,2.03-.68,4.81-1.38,9.62-1.98,14.45-.17,1.39-.71,2.08-1.91,2.57-4.78,1.96-4.74,1.92-9.69.4-6.71-2.06-13.45-3.97-20.18-5.92-.86-.25-1.74-.37-2.79-.59-.31.86-.6,1.6-.85,2.37-1.91,6.03-3.84,12.06-5.69,18.12-.41,1.36-1.04,2.19-2.3,2.6-1.58.53-3.14,1.18-4.65,1.9-1.35.64-2.61.58-4.01.14-8.63-2.67-17.25-5.35-25.92-7.84-4.48-1.28-3.41-1.7-5.68,2.64-3.96,7.58-7.84,15.22-11.69,22.87-.68,1.35-1.52,2.23-2.86,2.72-2.42.89-4.82,1.86-7.18,2.93-1.43.65-2.74.58-4.21.12-10.07-3.18-20.15-6.35-30.26-9.35-4.15-1.23-3.14-1.58-5.83,2.08-7.68,10.47-15.29,21-22.88,31.56-1.03,1.43-2.19,2.41-3.76,3-3.33,1.26-6.63,2.6-9.89,4.05-1.51.67-2.88.63-4.4.08-16.05-5.83-32.32-10.77-48.81-14.85-15.27-3.78-30.65-6.9-46.2-9-6.16-.83-12.33-1.54-18.49-2.32-.45-.06-.89-.21-1.8-.44.78-.35,1.11-.55,1.46-.65,5.75-1.57,11.45-3.49,17.28-4.61,9.03-1.74,18.14-2.95,27.23-4.34,9.63-1.47,19.26-2.94,28.9-4.32,12.72-1.82,25.44-3.57,38.17-5.33,4.79-.66,9.58-1.27,14.37-1.92.33-.05.65-.17.98-.42-11.45-2.33-23-3.76-34.63-5.29.4-.19.8-.42,1.22-.56,8.6-2.96,17.48-4.26,26.39-5.44,9.58-1.27,19.15-2.66,28.74-3.91,10.34-1.35,20.69-2.6,31.04-3.87,4.11-.51,8.23-.96,12.34-1.45.16-.02.32-.16.89-.45-10.31-1.93-20.27-3.08-30.35-4.37.36-.2.71-.46,1.1-.6,5.95-2.06,12.1-2.93,18.28-3.66,9.26-1.1,18.5-2.33,27.75-3.43,7.47-.89,14.96-1.66,22.43-2.48,3.15-.34,6.31-.66,9.48-1.17-8.5-1.85-17.13-2.66-25.81-4.02.52-.21,1.04-.45,1.57-.64,4.17-1.44,8.5-1.91,12.82-2.4,8.92-1,17.83-2.06,26.75-3,7.14-.75,14.29-1.37,21.43-2.06.64-.06,1.29-.16,1.93-.25,0-.18,0-.37-.01-.55-7.54-.95-15.07-1.89-22.61-2.83,2.48-1.33,5.08-1.96,7.75-2.23,11.74-1.19,23.48-2.38,35.22-3.54,2.89-.29,5.78-.43,8.67-.66.88-.07,1.76-.21,2.64-.32,0-.16.01-.31.02-.47-6.76-.82-13.52-1.65-20.6-2.51,1.69-1.04,3.28-1.45,4.87-1.61,8.1-.83,16.21-1.62,24.31-2.34,5.57-.5,11.14-.87,16.71-1.31.26-.02.52-.09.81-.52-6.13-.74-12.26-1.49-18.39-2.23-.01-.15-.03-.29-.04-.44,1.32-.32,2.63-.83,3.96-.95,9.48-.84,18.98-1.6,28.46-2.38,2.54-.21,5.09-.36,7.66-.68-5.39-1.25-10.9-1.59-16.37-2.39,1.61-1.14,3.39-1.22,5.13-1.34,9.63-.69,19.27-1.33,28.9-2,.24-.02.49-.05.74-.25-4.87-1.15-9.84-1.38-15.21-2.08,1.4-.96,2.58-1.06,3.7-1.14,7.98-.54,15.97-1.03,23.96-1.55,1.14-.07,2.28-.2,3.42-.3l-.02-.4h0Z"/>
</svg>