<?xml version="1.0" encoding="UTF-8"?>
<svg id="LOUD_Pattern_04" data-name="LOUD Pattern 04" xmlns="http://www.w3.org/2000/svg" version="1.1" viewBox="0 0 1000 1078.9">
  <defs>
    <style>
      .cls-1 {
        fill: #13ff00;
        stroke-width: 0px;
      }
    </style>
  </defs>
  <polygon class="cls-1" points="46.3 141.4 69.1 70.3 61 70.3 38.5 0 15.9 70.3 7.8 70.3 30.6 141.4 46.3 141.4"/>
  <polygon class="cls-1" points="84.8 224.5 107.5 153.4 99.5 153.4 76.9 83.2 54.4 153.4 46.3 153.4 69.1 224.5 84.8 224.5"/>
  <polygon class="cls-1" points="46.3 295.6 69.1 224.5 61 224.5 38.5 154.2 15.9 224.5 7.8 224.5 30.6 295.6 46.3 295.6"/>
  <polygon class="cls-1" points="84.8 378.8 107.5 307.7 99.5 307.7 76.9 237.4 54.4 307.7 46.3 307.7 69.1 378.8 84.8 378.8"/>
  <polygon class="cls-1" points="46.3 449.9 69.1 378.8 61 378.8 38.5 308.5 15.9 378.8 7.8 378.8 30.6 449.9 46.3 449.9"/>
  <polygon class="cls-1" points="84.8 533 107.5 461.9 99.5 461.9 76.9 391.6 54.4 461.9 46.3 461.9 69.1 533 84.8 533"/>
  <polygon class="cls-1" points="46.3 604.1 69.1 533 61 533 38.5 462.7 15.9 533 7.8 533 30.6 604.1 46.3 604.1"/>
  <polygon class="cls-1" points="84.8 687.3 107.5 616.2 99.5 616.2 76.9 545.9 54.4 616.2 46.3 616.2 69.1 687.3 84.8 687.3"/>
  <polygon class="cls-1" points="46.3 758.4 69.1 687.3 61 687.3 38.5 617 15.9 687.3 7.8 687.3 30.6 758.4 46.3 758.4"/>
  <polygon class="cls-1" points="84.8 841.5 107.5 770.5 99.5 770.5 76.9 700.2 54.4 770.5 46.3 770.5 69.1 841.5 84.8 841.5"/>
  <polygon class="cls-1" points="46.3 912.7 69.1 841.6 61 841.6 38.5 771.3 15.9 841.6 7.8 841.6 30.6 912.7 46.3 912.7"/>
  <polygon class="cls-1" points="84.8 995.8 107.5 924.7 99.5 924.7 76.9 854.4 54.4 924.7 46.3 924.7 69.1 995.8 84.8 995.8"/>
  <polygon class="cls-1" points="46.3 1066.9 69.1 995.8 61 995.8 38.5 925.5 15.9 995.8 7.8 995.8 30.6 1066.9 46.3 1066.9"/>
  <polygon class="cls-1" points="123.2 141.4 146 70.3 137.9 70.3 115.4 0 92.9 70.3 84.8 70.3 107.5 141.4 123.2 141.4"/>
  <polygon class="cls-1" points="161.7 224.5 184.5 153.4 176.4 153.4 153.8 83.2 131.3 153.4 123.2 153.4 146 224.5 161.7 224.5"/>
  <polygon class="cls-1" points="123.2 295.6 146 224.5 137.9 224.5 115.4 154.2 92.9 224.5 84.8 224.5 107.5 295.6 123.2 295.6"/>
  <polygon class="cls-1" points="161.7 378.8 184.5 307.7 176.4 307.7 153.8 237.4 131.3 307.7 123.2 307.7 146 378.8 161.7 378.8"/>
  <polygon class="cls-1" points="123.2 449.9 146 378.8 137.9 378.8 115.4 308.5 92.9 378.8 84.8 378.8 107.5 449.9 123.2 449.9"/>
  <polygon class="cls-1" points="161.7 533 184.5 461.9 176.4 461.9 153.8 391.6 131.3 461.9 123.2 461.9 146 533 161.7 533"/>
  <polygon class="cls-1" points="123.2 604.1 146 533 137.9 533 115.4 462.7 92.9 533 84.8 533 107.5 604.1 123.2 604.1"/>
  <polygon class="cls-1" points="161.7 687.3 184.5 616.2 176.4 616.2 153.8 545.9 131.3 616.2 123.2 616.2 146 687.3 161.7 687.3"/>
  <polygon class="cls-1" points="123.2 758.4 146 687.3 137.9 687.3 115.4 617 92.9 687.3 84.8 687.3 107.5 758.4 123.2 758.4"/>
  <polygon class="cls-1" points="161.7 841.5 184.5 770.5 176.4 770.5 153.8 700.2 131.3 770.5 123.2 770.5 146 841.5 161.7 841.5"/>
  <polygon class="cls-1" points="123.2 912.7 146 841.6 137.9 841.6 115.4 771.3 92.9 841.6 84.8 841.6 107.5 912.7 123.2 912.7"/>
  <polygon class="cls-1" points="161.7 995.8 184.5 924.7 176.4 924.7 153.8 854.4 131.3 924.7 123.2 924.7 146 995.8 161.7 995.8"/>
  <polygon class="cls-1" points="123.2 1066.9 146 995.8 137.9 995.8 115.4 925.5 92.9 995.8 84.8 995.8 107.5 1066.9 123.2 1066.9"/>
  <polygon class="cls-1" points="200.1 141.4 222.9 70.3 214.8 70.3 192.3 0 169.8 70.3 161.7 70.3 184.5 141.4 200.1 141.4"/>
  <polygon class="cls-1" points="238.6 224.5 261.4 153.4 253.3 153.4 230.8 83.2 208.2 153.4 200.1 153.4 222.9 224.5 238.6 224.5"/>
  <polygon class="cls-1" points="200.1 295.6 222.9 224.5 214.8 224.5 192.3 154.2 169.8 224.5 161.7 224.5 184.5 295.6 200.1 295.6"/>
  <polygon class="cls-1" points="238.6 378.8 261.4 307.7 253.3 307.7 230.8 237.4 208.2 307.7 200.1 307.7 222.9 378.8 238.6 378.8"/>
  <polygon class="cls-1" points="200.1 449.9 222.9 378.8 214.8 378.8 192.3 308.5 169.8 378.8 161.7 378.8 184.5 449.9 200.1 449.9"/>
  <polygon class="cls-1" points="238.6 533 261.4 461.9 253.3 461.9 230.8 391.6 208.2 461.9 200.1 461.9 222.9 533 238.6 533"/>
  <polygon class="cls-1" points="200.1 604.1 222.9 533 214.8 533 192.3 462.7 169.8 533 161.7 533 184.5 604.1 200.1 604.1"/>
  <polygon class="cls-1" points="238.6 687.3 261.4 616.2 253.3 616.2 230.8 545.9 208.2 616.2 200.1 616.2 222.9 687.3 238.6 687.3"/>
  <polygon class="cls-1" points="200.1 758.4 222.9 687.3 214.8 687.3 192.3 617 169.8 687.3 161.7 687.3 184.5 758.4 200.1 758.4"/>
  <polygon class="cls-1" points="238.6 841.5 261.4 770.5 253.3 770.5 230.8 700.2 208.2 770.5 200.1 770.5 222.9 841.5 238.6 841.5"/>
  <polygon class="cls-1" points="200.1 912.7 222.9 841.6 214.8 841.6 192.3 771.3 169.8 841.6 161.7 841.6 184.5 912.7 200.1 912.7"/>
  <polygon class="cls-1" points="238.6 995.8 261.4 924.7 253.3 924.7 230.8 854.4 208.2 924.7 200.1 924.7 222.9 995.8 238.6 995.8"/>
  <polygon class="cls-1" points="200.1 1066.9 222.9 995.8 214.8 995.8 192.3 925.5 169.8 995.8 161.7 995.8 184.5 1066.9 200.1 1066.9"/>
  <polygon class="cls-1" points="277.1 141.4 299.9 70.3 291.8 70.3 269.2 0 246.7 70.3 238.6 70.3 261.4 141.4 277.1 141.4"/>
  <polygon class="cls-1" points="315.5 224.5 338.3 153.4 330.2 153.4 307.7 83.2 285.2 153.4 277.1 153.4 299.9 224.5 315.5 224.5"/>
  <polygon class="cls-1" points="277.1 295.6 299.9 224.5 291.8 224.5 269.2 154.2 246.7 224.5 238.6 224.5 261.4 295.6 277.1 295.6"/>
  <polygon class="cls-1" points="315.5 378.8 338.3 307.7 330.2 307.7 307.7 237.4 285.2 307.7 277.1 307.7 299.9 378.8 315.5 378.8"/>
  <polygon class="cls-1" points="277.1 449.9 299.9 378.8 291.8 378.8 269.2 308.5 246.7 378.8 238.6 378.8 261.4 449.9 277.1 449.9"/>
  <polygon class="cls-1" points="315.5 533 338.3 461.9 330.2 461.9 307.7 391.6 285.2 461.9 277.1 461.9 299.9 533 315.5 533"/>
  <polygon class="cls-1" points="277.1 604.1 299.9 533 291.8 533 269.2 462.7 246.7 533 238.6 533 261.4 604.1 277.1 604.1"/>
  <polygon class="cls-1" points="315.5 687.3 338.3 616.2 330.2 616.2 307.7 545.9 285.2 616.2 277.1 616.2 299.9 687.3 315.5 687.3"/>
  <polygon class="cls-1" points="277.1 758.4 299.9 687.3 291.8 687.3 269.2 617 246.7 687.3 238.6 687.3 261.4 758.4 277.1 758.4"/>
  <polygon class="cls-1" points="315.5 841.5 338.3 770.5 330.2 770.5 307.7 700.2 285.2 770.5 277.1 770.5 299.9 841.5 315.5 841.5"/>
  <polygon class="cls-1" points="277.1 912.7 299.9 841.6 291.8 841.6 269.2 771.3 246.7 841.6 238.6 841.6 261.4 912.7 277.1 912.7"/>
  <polygon class="cls-1" points="315.5 995.8 338.3 924.7 330.2 924.7 307.7 854.4 285.2 924.7 277.1 924.7 299.9 995.8 315.5 995.8"/>
  <polygon class="cls-1" points="277.1 1066.9 299.9 995.8 291.8 995.8 269.2 925.5 246.7 995.8 238.6 995.8 261.4 1066.9 277.1 1066.9"/>
  <polygon class="cls-1" points="354 141.4 376.8 70.3 368.7 70.3 346.2 0 323.6 70.3 315.5 70.3 338.3 141.4 354 141.4"/>
  <polygon class="cls-1" points="392.5 224.5 415.2 153.4 407.1 153.4 384.6 83.2 362.1 153.4 354 153.4 376.8 224.5 392.5 224.5"/>
  <polygon class="cls-1" points="354 295.6 376.8 224.5 368.7 224.5 346.2 154.2 323.6 224.5 315.5 224.5 338.3 295.6 354 295.6"/>
  <polygon class="cls-1" points="392.5 378.8 415.2 307.7 407.1 307.7 384.6 237.4 362.1 307.7 354 307.7 376.8 378.8 392.5 378.8"/>
  <polygon class="cls-1" points="354 449.9 376.8 378.8 368.7 378.8 346.2 308.5 323.6 378.8 315.5 378.8 338.3 449.9 354 449.9"/>
  <polygon class="cls-1" points="392.5 533 415.2 461.9 407.1 461.9 384.6 391.6 362.1 461.9 354 461.9 376.8 533 392.5 533"/>
  <polygon class="cls-1" points="354 604.1 376.8 533 368.7 533 346.2 462.7 323.6 533 315.5 533 338.3 604.1 354 604.1"/>
  <polygon class="cls-1" points="392.5 687.3 415.2 616.2 407.1 616.2 384.6 545.9 362.1 616.2 354 616.2 376.8 687.3 392.5 687.3"/>
  <polygon class="cls-1" points="354 758.4 376.8 687.3 368.7 687.3 346.2 617 323.6 687.3 315.5 687.3 338.3 758.4 354 758.4"/>
  <polygon class="cls-1" points="392.5 841.5 415.2 770.5 407.1 770.5 384.6 700.2 362.1 770.5 354 770.5 376.8 841.5 392.5 841.5"/>
  <polygon class="cls-1" points="354 912.7 376.8 841.6 368.7 841.6 346.2 771.3 323.6 841.6 315.5 841.6 338.3 912.7 354 912.7"/>
  <polygon class="cls-1" points="392.5 995.8 415.2 924.7 407.1 924.7 384.6 854.4 362.1 924.7 354 924.7 376.8 995.8 392.5 995.8"/>
  <polygon class="cls-1" points="354 1066.9 376.8 995.8 368.7 995.8 346.2 925.5 323.6 995.8 315.5 995.8 338.3 1066.9 354 1066.9"/>
  <polygon class="cls-1" points="430.9 141.4 453.7 70.3 445.6 70.3 423.1 0 400.5 70.3 392.5 70.3 415.2 141.4 430.9 141.4"/>
  <polygon class="cls-1" points="469.4 224.5 492.2 153.4 484.1 153.4 461.5 83.2 439 153.4 430.9 153.4 453.7 224.5 469.4 224.5"/>
  <polygon class="cls-1" points="430.9 295.6 453.7 224.5 445.6 224.5 423.1 154.2 400.5 224.5 392.5 224.5 415.2 295.6 430.9 295.6"/>
  <polygon class="cls-1" points="469.4 378.8 492.2 307.7 484.1 307.7 461.5 237.4 439 307.7 430.9 307.7 453.7 378.8 469.4 378.8"/>
  <polygon class="cls-1" points="430.9 449.9 453.7 378.8 445.6 378.8 423.1 308.5 400.5 378.8 392.5 378.8 415.2 449.9 430.9 449.9"/>
  <polygon class="cls-1" points="469.4 533 492.2 461.9 484.1 461.9 461.5 391.6 439 461.9 430.9 461.9 453.7 533 469.4 533"/>
  <polygon class="cls-1" points="430.9 604.1 453.7 533 445.6 533 423.1 462.7 400.5 533 392.5 533 415.2 604.1 430.9 604.1"/>
  <polygon class="cls-1" points="469.4 687.3 492.2 616.2 484.1 616.2 461.5 545.9 439 616.2 430.9 616.2 453.7 687.3 469.4 687.3"/>
  <polygon class="cls-1" points="430.9 758.4 453.7 687.3 445.6 687.3 423.1 617 400.5 687.3 392.5 687.3 415.2 758.4 430.9 758.4"/>
  <polygon class="cls-1" points="469.4 841.5 492.2 770.5 484.1 770.5 461.5 700.2 439 770.5 430.9 770.5 453.7 841.5 469.4 841.5"/>
  <polygon class="cls-1" points="430.9 912.7 453.7 841.6 445.6 841.6 423.1 771.3 400.5 841.6 392.5 841.6 415.2 912.7 430.9 912.7"/>
  <polygon class="cls-1" points="469.4 995.8 492.2 924.7 484.1 924.7 461.5 854.4 439 924.7 430.9 924.7 453.7 995.8 469.4 995.8"/>
  <polygon class="cls-1" points="430.9 1066.9 453.7 995.8 445.6 995.8 423.1 925.5 400.5 995.8 392.5 995.8 415.2 1066.9 430.9 1066.9"/>
  <polygon class="cls-1" points="507.8 141.4 530.6 70.3 522.5 70.3 500 0 477.5 70.3 469.4 70.3 492.2 141.4 507.8 141.4"/>
  <polygon class="cls-1" points="546.3 224.5 569.1 153.4 561 153.4 538.5 83.2 515.9 153.4 507.8 153.4 530.6 224.5 546.3 224.5"/>
  <polygon class="cls-1" points="507.8 295.6 530.6 224.5 522.5 224.5 500 154.2 477.5 224.5 469.4 224.5 492.2 295.6 507.8 295.6"/>
  <polygon class="cls-1" points="546.3 378.8 569.1 307.7 561 307.7 538.5 237.4 515.9 307.7 507.8 307.7 530.6 378.8 546.3 378.8"/>
  <polygon class="cls-1" points="507.8 449.9 530.6 378.8 522.5 378.8 500 308.5 477.5 378.8 469.4 378.8 492.2 449.9 507.8 449.9"/>
  <polygon class="cls-1" points="546.3 533 569.1 461.9 561 461.9 538.5 391.6 515.9 461.9 507.8 461.9 530.6 533 546.3 533"/>
  <polygon class="cls-1" points="507.8 604.1 530.6 533 522.5 533 500 462.7 477.5 533 469.4 533 492.2 604.1 507.8 604.1"/>
  <polygon class="cls-1" points="546.3 687.3 569.1 616.2 561 616.2 538.5 545.9 515.9 616.2 507.8 616.2 530.6 687.3 546.3 687.3"/>
  <polygon class="cls-1" points="507.8 758.4 530.6 687.3 522.5 687.3 500 617 477.5 687.3 469.4 687.3 492.2 758.4 507.8 758.4"/>
  <polygon class="cls-1" points="546.3 841.5 569.1 770.5 561 770.5 538.5 700.2 515.9 770.5 507.8 770.5 530.6 841.5 546.3 841.5"/>
  <polygon class="cls-1" points="507.8 912.7 530.6 841.6 522.5 841.6 500 771.3 477.5 841.6 469.4 841.6 492.2 912.7 507.8 912.7"/>
  <polygon class="cls-1" points="546.3 995.8 569.1 924.7 561 924.7 538.5 854.4 515.9 924.7 507.8 924.7 530.6 995.8 546.3 995.8"/>
  <polygon class="cls-1" points="507.8 1066.9 530.6 995.8 522.5 995.8 500 925.5 477.5 995.8 469.4 995.8 492.2 1066.9 507.8 1066.9"/>
  <polygon class="cls-1" points="584.8 141.4 607.5 70.3 599.5 70.3 576.9 0 554.4 70.3 546.3 70.3 569.1 141.4 584.8 141.4"/>
  <polygon class="cls-1" points="623.2 224.5 646 153.4 637.9 153.4 615.4 83.2 592.9 153.4 584.8 153.4 607.5 224.5 623.2 224.5"/>
  <polygon class="cls-1" points="584.8 295.6 607.5 224.5 599.5 224.5 576.9 154.2 554.4 224.5 546.3 224.5 569.1 295.6 584.8 295.6"/>
  <polygon class="cls-1" points="623.2 378.8 646 307.7 637.9 307.7 615.4 237.4 592.9 307.7 584.8 307.7 607.5 378.8 623.2 378.8"/>
  <polygon class="cls-1" points="584.8 449.9 607.5 378.8 599.5 378.8 576.9 308.5 554.4 378.8 546.3 378.8 569.1 449.9 584.8 449.9"/>
  <polygon class="cls-1" points="623.2 533 646 461.9 637.9 461.9 615.4 391.6 592.9 461.9 584.8 461.9 607.5 533 623.2 533"/>
  <polygon class="cls-1" points="584.8 604.1 607.5 533 599.5 533 576.9 462.7 554.4 533 546.3 533 569.1 604.1 584.8 604.1"/>
  <polygon class="cls-1" points="623.2 687.3 646 616.2 637.9 616.2 615.4 545.9 592.9 616.2 584.8 616.2 607.5 687.3 623.2 687.3"/>
  <polygon class="cls-1" points="584.8 758.4 607.5 687.3 599.5 687.3 576.9 617 554.4 687.3 546.3 687.3 569.1 758.4 584.8 758.4"/>
  <polygon class="cls-1" points="623.2 841.5 646 770.5 637.9 770.5 615.4 700.2 592.9 770.5 584.8 770.5 607.5 841.5 623.2 841.5"/>
  <polygon class="cls-1" points="584.8 912.7 607.5 841.6 599.5 841.6 576.9 771.3 554.4 841.6 546.3 841.6 569.1 912.7 584.8 912.7"/>
  <polygon class="cls-1" points="623.2 995.8 646 924.7 637.9 924.7 615.4 854.4 592.9 924.7 584.8 924.7 607.5 995.8 623.2 995.8"/>
  <polygon class="cls-1" points="584.8 1066.9 607.5 995.8 599.5 995.8 576.9 925.5 554.4 995.8 546.3 995.8 569.1 1066.9 584.8 1066.9"/>
  <polygon class="cls-1" points="661.7 141.4 684.5 70.3 676.4 70.3 653.8 0 631.3 70.3 623.2 70.3 646 141.4 661.7 141.4"/>
  <polygon class="cls-1" points="700.1 224.5 722.9 153.4 714.8 153.4 692.3 83.2 669.8 153.4 661.7 153.4 684.5 224.5 700.1 224.5"/>
  <polygon class="cls-1" points="661.7 295.6 684.5 224.5 676.4 224.5 653.8 154.2 631.3 224.5 623.2 224.5 646 295.6 661.7 295.6"/>
  <polygon class="cls-1" points="700.1 378.8 722.9 307.7 714.8 307.7 692.3 237.4 669.8 307.7 661.7 307.7 684.5 378.8 700.1 378.8"/>
  <polygon class="cls-1" points="661.7 449.9 684.5 378.8 676.4 378.8 653.8 308.5 631.3 378.8 623.2 378.8 646 449.9 661.7 449.9"/>
  <polygon class="cls-1" points="700.1 533 722.9 461.9 714.8 461.9 692.3 391.6 669.8 461.9 661.7 461.9 684.5 533 700.1 533"/>
  <polygon class="cls-1" points="661.7 604.1 684.5 533 676.4 533 653.8 462.7 631.3 533 623.2 533 646 604.1 661.7 604.1"/>
  <polygon class="cls-1" points="700.1 687.3 722.9 616.2 714.8 616.2 692.3 545.9 669.8 616.2 661.7 616.2 684.5 687.3 700.1 687.3"/>
  <polygon class="cls-1" points="661.7 758.4 684.5 687.3 676.4 687.3 653.8 617 631.3 687.3 623.2 687.3 646 758.4 661.7 758.4"/>
  <polygon class="cls-1" points="700.1 841.5 722.9 770.5 714.8 770.5 692.3 700.2 669.8 770.5 661.7 770.5 684.5 841.5 700.1 841.5"/>
  <polygon class="cls-1" points="661.7 912.7 684.5 841.6 676.4 841.6 653.8 771.3 631.3 841.6 623.2 841.6 646 912.7 661.7 912.7"/>
  <polygon class="cls-1" points="700.1 995.8 722.9 924.7 714.8 924.7 692.3 854.4 669.8 924.7 661.7 924.7 684.5 995.8 700.1 995.8"/>
  <polygon class="cls-1" points="661.7 1066.9 684.5 995.8 676.4 995.8 653.8 925.5 631.3 995.8 623.2 995.8 646 1066.9 661.7 1066.9"/>
  <polygon class="cls-1" points="738.6 141.4 761.4 70.3 753.3 70.3 730.8 0 708.2 70.3 700.1 70.3 722.9 141.4 738.6 141.4"/>
  <polygon class="cls-1" points="777.1 224.5 799.9 153.4 791.8 153.4 769.2 83.2 746.7 153.4 738.6 153.4 761.4 224.5 777.1 224.5"/>
  <polygon class="cls-1" points="738.6 295.6 761.4 224.5 753.3 224.5 730.8 154.2 708.2 224.5 700.1 224.5 722.9 295.6 738.6 295.6"/>
  <polygon class="cls-1" points="777.1 378.8 799.9 307.7 791.8 307.7 769.2 237.4 746.7 307.7 738.6 307.7 761.4 378.8 777.1 378.8"/>
  <polygon class="cls-1" points="738.6 449.9 761.4 378.8 753.3 378.8 730.8 308.5 708.2 378.8 700.1 378.8 722.9 449.9 738.6 449.9"/>
  <polygon class="cls-1" points="777.1 533 799.9 461.9 791.8 461.9 769.2 391.6 746.7 461.9 738.6 461.9 761.4 533 777.1 533"/>
  <polygon class="cls-1" points="738.6 604.1 761.4 533 753.3 533 730.8 462.7 708.2 533 700.1 533 722.9 604.1 738.6 604.1"/>
  <polygon class="cls-1" points="777.1 687.3 799.9 616.2 791.8 616.2 769.2 545.9 746.7 616.2 738.6 616.2 761.4 687.3 777.1 687.3"/>
  <polygon class="cls-1" points="738.6 758.4 761.4 687.3 753.3 687.3 730.8 617 708.2 687.3 700.1 687.3 722.9 758.4 738.6 758.4"/>
  <polygon class="cls-1" points="777.1 841.5 799.9 770.5 791.8 770.5 769.2 700.2 746.7 770.5 738.6 770.5 761.4 841.5 777.1 841.5"/>
  <polygon class="cls-1" points="738.6 912.7 761.4 841.6 753.3 841.6 730.8 771.3 708.2 841.6 700.1 841.6 722.9 912.7 738.6 912.7"/>
  <polygon class="cls-1" points="777.1 995.8 799.9 924.7 791.8 924.7 769.2 854.4 746.7 924.7 738.6 924.7 761.4 995.8 777.1 995.8"/>
  <polygon class="cls-1" points="738.6 1066.9 761.4 995.8 753.3 995.8 730.8 925.5 708.2 995.8 700.1 995.8 722.9 1066.9 738.6 1066.9"/>
  <polygon class="cls-1" points="815.5 141.4 838.3 70.3 830.2 70.3 807.7 0 785.2 70.3 777.1 70.3 799.9 141.4 815.5 141.4"/>
  <polygon class="cls-1" points="854 224.5 876.8 153.4 868.7 153.4 846.2 83.2 823.6 153.4 815.5 153.4 838.3 224.5 854 224.5"/>
  <polygon class="cls-1" points="815.5 295.6 838.3 224.5 830.2 224.5 807.7 154.2 785.2 224.5 777.1 224.5 799.9 295.6 815.5 295.6"/>
  <polygon class="cls-1" points="854 378.8 876.8 307.7 868.7 307.7 846.2 237.4 823.6 307.7 815.5 307.7 838.3 378.8 854 378.8"/>
  <polygon class="cls-1" points="815.5 449.9 838.3 378.8 830.2 378.8 807.7 308.5 785.2 378.8 777.1 378.8 799.9 449.9 815.5 449.9"/>
  <polygon class="cls-1" points="854 533 876.8 461.9 868.7 461.9 846.2 391.6 823.6 461.9 815.5 461.9 838.3 533 854 533"/>
  <polygon class="cls-1" points="815.5 604.1 838.3 533 830.2 533 807.7 462.7 785.2 533 777.1 533 799.9 604.1 815.5 604.1"/>
  <polygon class="cls-1" points="854 687.3 876.8 616.2 868.7 616.2 846.2 545.9 823.6 616.2 815.5 616.2 838.3 687.3 854 687.3"/>
  <polygon class="cls-1" points="815.5 758.4 838.3 687.3 830.2 687.3 807.7 617 785.2 687.3 777.1 687.3 799.9 758.4 815.5 758.4"/>
  <polygon class="cls-1" points="854 841.5 876.8 770.5 868.7 770.5 846.2 700.2 823.6 770.5 815.5 770.5 838.3 841.5 854 841.5"/>
  <polygon class="cls-1" points="815.5 912.7 838.3 841.6 830.2 841.6 807.7 771.3 785.2 841.6 777.1 841.6 799.9 912.7 815.5 912.7"/>
  <polygon class="cls-1" points="854 995.8 876.8 924.7 868.7 924.7 846.2 854.4 823.6 924.7 815.5 924.7 838.3 995.8 854 995.8"/>
  <polygon class="cls-1" points="815.5 1066.9 838.3 995.8 830.2 995.8 807.7 925.5 785.2 995.8 777.1 995.8 799.9 1066.9 815.5 1066.9"/>
  <polygon class="cls-1" points="892.5 141.4 915.2 70.3 907.1 70.3 884.6 0 862.1 70.3 854 70.3 876.8 141.4 892.5 141.4"/>
  <polygon class="cls-1" points="930.9 224.5 953.7 153.4 945.6 153.4 923.1 83.2 900.6 153.4 892.5 153.4 915.2 224.5 930.9 224.5"/>
  <polygon class="cls-1" points="892.5 295.6 915.2 224.5 907.1 224.5 884.6 154.2 862.1 224.5 854 224.5 876.8 295.6 892.5 295.6"/>
  <polygon class="cls-1" points="930.9 378.8 953.7 307.7 945.6 307.7 923.1 237.4 900.6 307.7 892.5 307.7 915.2 378.8 930.9 378.8"/>
  <polygon class="cls-1" points="892.5 449.9 915.2 378.8 907.1 378.8 884.6 308.5 862.1 378.8 854 378.8 876.8 449.9 892.5 449.9"/>
  <polygon class="cls-1" points="930.9 533 953.7 461.9 945.6 461.9 923.1 391.6 900.6 461.9 892.5 461.9 915.2 533 930.9 533"/>
  <polygon class="cls-1" points="892.5 604.1 915.2 533 907.1 533 884.6 462.7 862.1 533 854 533 876.8 604.1 892.5 604.1"/>
  <polygon class="cls-1" points="930.9 687.3 953.7 616.2 945.6 616.2 923.1 545.9 900.6 616.2 892.5 616.2 915.2 687.3 930.9 687.3"/>
  <polygon class="cls-1" points="892.5 758.4 915.2 687.3 907.1 687.3 884.6 617 862.1 687.3 854 687.3 876.8 758.4 892.5 758.4"/>
  <polygon class="cls-1" points="930.9 841.5 953.7 770.5 945.6 770.5 923.1 700.2 900.6 770.5 892.5 770.5 915.2 841.5 930.9 841.5"/>
  <polygon class="cls-1" points="892.5 912.7 915.2 841.6 907.1 841.6 884.6 771.3 862.1 841.6 854 841.6 876.8 912.7 892.5 912.7"/>
  <polygon class="cls-1" points="930.9 995.8 953.7 924.7 945.6 924.7 923.1 854.4 900.6 924.7 892.5 924.7 915.2 995.8 930.9 995.8"/>
  <polygon class="cls-1" points="892.5 1066.9 915.2 995.8 907.1 995.8 884.6 925.5 862.1 995.8 854 995.8 876.8 1066.9 892.5 1066.9"/>
  <polygon class="cls-1" points="969.4 141.4 992.2 70.3 984.1 70.3 961.5 0 939 70.3 930.9 70.3 953.7 141.4 969.4 141.4"/>
  <polygon class="cls-1" points="969.4 295.6 992.2 224.5 984.1 224.5 961.5 154.2 939 224.5 930.9 224.5 953.7 295.6 969.4 295.6"/>
  <polygon class="cls-1" points="969.4 449.9 992.2 378.8 984.1 378.8 961.5 308.5 939 378.8 930.9 378.8 953.7 449.9 969.4 449.9"/>
  <polygon class="cls-1" points="969.4 604.1 992.2 533 984.1 533 961.5 462.7 939 533 930.9 533 953.7 604.1 969.4 604.1"/>
  <polygon class="cls-1" points="969.4 758.4 992.2 687.3 984.1 687.3 961.5 617 939 687.3 930.9 687.3 953.7 758.4 969.4 758.4"/>
  <polygon class="cls-1" points="969.4 912.7 992.2 841.6 984.1 841.6 961.5 771.3 939 841.6 930.9 841.6 953.7 912.7 969.4 912.7"/>
  <polygon class="cls-1" points="969.4 1066.9 992.2 995.8 984.1 995.8 961.5 925.5 939 995.8 930.9 995.8 953.7 1066.9 969.4 1066.9"/>
  <polygon class="cls-1" points="1000 854.4 977.5 924.7 969.4 924.7 992.2 995.8 1000 995.8 1000 854.4"/>
  <polygon class="cls-1" points="1000 700.2 977.5 770.5 969.4 770.5 992.2 841.5 1000 841.5 1000 700.2"/>
  <polygon class="cls-1" points="1000 545.9 977.5 616.2 969.4 616.2 992.2 687.3 1000 687.3 1000 545.9"/>
  <polygon class="cls-1" points="1000 391.6 977.5 461.9 969.4 461.9 992.2 533 1000 533 1000 391.6"/>
  <polygon class="cls-1" points="1000 237.4 977.5 307.7 969.4 307.7 992.2 378.8 1000 378.8 1000 237.4"/>
  <polygon class="cls-1" points="1000 83.2 977.5 153.4 969.4 153.4 992.2 224.5 1000 224.5 1000 83.2"/>
  <polygon class="cls-1" points="99.4 1078.9 76.9 1008.7 54.4 1078.9 99.4 1078.9"/>
  <polygon class="cls-1" points="176.4 1078.9 153.8 1008.7 131.3 1078.9 176.4 1078.9"/>
  <polygon class="cls-1" points="253.3 1078.9 230.8 1008.7 208.3 1078.9 253.3 1078.9"/>
  <polygon class="cls-1" points="330.2 1078.9 307.7 1008.7 285.2 1078.9 330.2 1078.9"/>
  <polygon class="cls-1" points="407.1 1078.9 384.6 1008.7 362.1 1078.9 407.1 1078.9"/>
  <polygon class="cls-1" points="484 1078.9 461.5 1008.7 439 1078.9 484 1078.9"/>
  <polygon class="cls-1" points="561 1078.9 538.5 1008.7 516 1078.9 561 1078.9"/>
  <polygon class="cls-1" points="637.9 1078.9 615.4 1008.7 592.9 1078.9 637.9 1078.9"/>
  <polygon class="cls-1" points="714.8 1078.9 692.3 1008.7 669.8 1078.9 714.8 1078.9"/>
  <polygon class="cls-1" points="791.7 1078.9 769.2 1008.7 746.7 1078.9 791.7 1078.9"/>
  <polygon class="cls-1" points="868.7 1078.9 846.2 1008.7 823.6 1078.9 868.7 1078.9"/>
  <polygon class="cls-1" points="945.6 1078.9 923.1 1008.7 900.6 1078.9 945.6 1078.9"/>
  <polygon class="cls-1" points="1000 1078.9 1000 1008.7 977.5 1078.9 1000 1078.9"/>
  <polygon class="cls-1" points="46.6 0 69.1 70.3 84.8 70.3 107.3 0 46.6 0"/>
  <polygon class="cls-1" points="123.5 0 146 70.3 161.7 70.3 184.2 0 123.5 0"/>
  <polygon class="cls-1" points="200.4 0 222.9 70.3 238.6 70.3 261.1 0 200.4 0"/>
  <polygon class="cls-1" points="277.3 0 299.9 70.3 315.5 70.3 338.1 0 277.3 0"/>
  <polygon class="cls-1" points="354.3 0 376.8 70.3 392.5 70.3 415 0 354.3 0"/>
  <polygon class="cls-1" points="431.2 0 453.7 70.3 469.4 70.3 491.9 0 431.2 0"/>
  <polygon class="cls-1" points="508.1 0 530.6 70.3 546.3 70.3 568.8 0 508.1 0"/>
  <polygon class="cls-1" points="585 0 607.5 70.3 623.2 70.3 645.8 0 585 0"/>
  <polygon class="cls-1" points="661.9 0 684.5 70.3 700.1 70.3 722.7 0 661.9 0"/>
  <polygon class="cls-1" points="738.9 0 761.4 70.3 777.1 70.3 799.6 0 738.9 0"/>
  <polygon class="cls-1" points="815.8 0 838.3 70.3 854 70.3 876.5 0 815.8 0"/>
  <polygon class="cls-1" points="892.7 0 915.2 70.3 930.9 70.3 953.4 0 892.7 0"/>
  <polygon class="cls-1" points="969.6 0 992.2 70.3 1000 70.3 1000 0 969.6 0"/>
  <polygon class="cls-1" points="0 1008.7 0 1078.9 22.5 1078.9 0 1008.7"/>
  <polygon class="cls-1" points="22.5 924.7 0 854.4 0 995.8 7.8 995.8 30.6 924.7 22.5 924.7"/>
  <polygon class="cls-1" points="22.5 770.5 0 700.2 0 841.5 7.8 841.5 30.6 770.5 22.5 770.5"/>
  <polygon class="cls-1" points="22.5 616.2 0 545.9 0 687.3 7.8 687.3 30.6 616.2 22.5 616.2"/>
  <polygon class="cls-1" points="22.5 461.9 0 391.6 0 533 7.8 533 30.6 461.9 22.5 461.9"/>
  <polygon class="cls-1" points="22.5 307.7 0 237.4 0 378.8 7.8 378.8 30.6 307.7 22.5 307.7"/>
  <polygon class="cls-1" points="22.5 153.4 0 83.2 0 224.5 7.8 224.5 30.6 153.4 22.5 153.4"/>
  <polygon class="cls-1" points="0 0 0 70.3 7.8 70.3 30.4 0 0 0"/>
</svg>