<?xml version="1.0" encoding="UTF-8"?>
<svg id="Layer_1" data-name="Layer 1" xmlns="http://www.w3.org/2000/svg" version="1.1" xmlns:xlink="http://www.w3.org/1999/xlink" viewBox="0 0 614 335">
  <defs>
    <style>
      .cls-1 {
        fill: none;
      }

      .cls-1, .cls-2 {
        stroke-width: 0px;
      }

      .cls-3 {
        clip-path: url(#clippath);
      }

      .cls-2 {
        fill: #00ff3b;
      }
    </style>
    <clipPath id="clippath">
      <rect class="cls-1" width="614" height="335"/>
    </clipPath>
  </defs>
  <g class="cls-3">
    <g>
      <path class="cls-2" d="M7.72,281.04c-.18-.08-.32-.18-.43-.32-.36-.45-.84-.79-1.33-1.09-.17-.1-.35-.21-.52-.32-.11-.07-.23-.14-.34-.2-1.07-.55-2.13-1.11-3.2-1.66-3.78-1.94-7.68-3.12-11.93-1.62-1.54.54-3.07,1.11-4.6,1.68-2.02.75-3.37,2.68-3.37,4.84v9.36c0,2.92,2.42,5.34,5.33,5.16.12,0,.23-.02.36-.03,2.04-.25,4.13-.45,6.09-1.02,4.93-1.43,9.84-2.96,14.67-4.7.94-.34,1.61-1.76,2.16-2.8.51-.96.71-2.1,1.02-3.16.03-.08.05-.17.08-.26-.85-1.66-1.96-3.05-3.99-3.89h0Z"/>
      <path class="cls-2" d="M40.19,270.37c-.73-1.87-2.02-3.07-3.56-3.95-1.77-1.02-3.86-1.23-5.89-.89-.67.11-1.28-.03-2-.27-1.18-.4-2.46-.5-3.7-.7-.45-.07-.9-.13-1.36-.18-1.93-.2-3.88-.68-5.79-.52-4.89.41-9.24,2.46-13.36,5.04-2.64,1.65-2.63,5.25-.1,7.09.76.56,1.51,1.13,2.24,1.72.22.18.46.34.71.48,1.86,1.04,3.84,1.86,5.69,2.91.24.13.48.27.72.39,1.03.53,2.2.72,3.33.53,4.17-.71,8.13-2.18,11.93-4,3.66-1.76,7.18-3.82,10.77-5.74.94-.5.67-1.11.36-1.92h0Z"/>
      <path class="cls-2" d="M506.36,344.28c-1.97-1.85-2.27-6.57-.48-9.15.65-.93,1.49-1.76,2.37-2.48,4.67-3.88,9.32-7.8,14.11-11.54,1.99-1.56,4.51-1.52,6.74-.59,2.34.98,4.56,2.31,6.73,3.63,4.61,2.8,8.86,6.05,12.2,10.37,1.03,1.33.93,3.24-.75,4.45-1.68,1.22-3.65,2.07-5.54,2.98-1.77.85-3.61,1.56-5.42,2.33h-29.96Z"/>
      <path class="cls-2" d="M580.09,344.28c-2.11-1.43-4.21-2.86-6.33-4.28-1.09-.73-2.24-1.37-3.29-2.15-1.27-.95-1.27-1.53-.04-2.55.4-.34.95-.54,1.46-.7,8.12-2.5,15.66-6.08,22.22-11.61.58-.48,1.71-.6,2.51-.45.98.19,1.93.76,2.8,1.3,4.24,2.59,8.66,4.92,12.07,8.65.91,1,1.67,2.15,2.5,3.23v8.56h-33.9,0Z"/>
      <path class="cls-2" d="M510.31-11.22c-1.99,10.94-7.24,20.33-13.75,29.13-.68.92-1.51,1.73-2.31,2.55-1.24,1.29-2.16,1.32-2.93-.31-1.69-3.54-3.52-7.09-4.55-10.84-1.04-3.81-1.25-7.87-1.71-11.83-.28-2.39.92-4.45,1.81-6.56.3-.69.49-1.43.73-2.15h22.71,0Z"/>
      <path class="cls-2" d="M101.82-11.22c-1.17,4.83-2.24,9.72-4.97,13.95-1.15,1.79-2.9,3.21-4.44,4.74-.37.37-.99.49-1.57.75.42-3.2,3.58-4.87,3.83-8.03-.31.02-.45,0-.52.05-.43.32-.85.66-1.26.99.11-.56.22-1.13.34-1.69.06-.31.13-.63.24-1.09-1.31.67-2.43,1.15-3.46,1.8-1.07.67-1.52.28-1.99-.71-.43-.9-1.18-1.64-1.58-2.55-.37-.85-.6-1.8-.66-2.73-.11-1.6-.03-3.21-.03-4.82-.14-.02-.28-.03-.42-.05-.55,2.29-1.05,4.6-1.65,6.88-1.42,5.41-2.68,10.88-4.46,16.17-.61,1.82-2.56,3.18-3.9,4.75-.18-.13-.36-.26-.54-.39.12-.28.16-.64.36-.84,1.1-1.06,1.22-2.49.22-3.65-.7-.81-.62-1.4.34-1.96.32-.18.43-.71.63-1.09-.14-.08-.28-.16-.42-.24-1.98,1.46-3.98,2.9-5.93,4.39-.91.7-1.79.59-2-.5-.64-3.23-1.36-6.46-1.66-9.73-.2-2.17-.09-4.52.55-6.58.54-1.74,1.98-3.24,3.14-4.75.85-1.11,1.88-2.07,2.83-3.1h28.97Z"/>
      <path class="cls-2" d="M467.19-11.22c-.43.76-.8,1.57-1.3,2.28-1.57,2.24-1.1,4.34.35,6.38.75,1.07,1.55,2.1,2.44,3.29-3.14,2.93-6.3,5.71-9.27,8.68-2.71,2.72-6.03,4.3-9.45,5.8-1.41.62-2.28.45-3.04-1-1.66-3.17-3.08-6.4-3.69-9.97-.32-1.88-1.06-3.69-1.39-5.57-.15-.89,0-1.96.39-2.78,1-2.17,2.2-4.25,3.31-6.37.12-.23.17-.49.25-.74h21.4,0Z"/>
      <path class="cls-2" d="M614,89.84c-.51.33-.97.74-1.52.95-1.27.48-2.55.9-3.85-.04-5.21-3.75-9.32-8.32-10.74-14.79-.25-1.13-.18-2.35-.09-3.52.32-3.87.84-7.72,1.06-11.59.24-4.32.23-8.64.33-12.97,0-.41.07-.82.15-1.64,1.39,1.58,2.57,2.84,3.65,4.18,2.26,2.81,4.68,5.49,5.8,9.07.82,2.62.81,3.02-1.32,4.64-.23.17-.51.5-.49.73.15,2.62-.21,5.18,1.32,7.75,2.24,3.79,3.85,7.95,5.72,11.95v5.27h0Z"/>
      <path class="cls-2" d="M-5.82,344.28c-1.42-2.23-3.82-3.19-5.92-4.54-.87-.56-1.84-.93-2.77-1.4-1.14-.57-1.22-1.43-.29-2.29.67-.61,1.26-1.32,1.92-1.93.47-.44.96-.96,1.54-1.17,3.31-1.18,6.64-2.31,9.97-3.39,1.85-.6,3.37.52,5.01,1.08,1.9.65,3.77,1.45,5.72,1.79,2.24.39,3.97,1.63,5.53,2.99,1.8,1.57,3.25,3.55,4.74,5.45.94,1.19.88,2.44-.45,3.43H-5.82Z"/>
      <path class="cls-2" d="M399.05,344.28c-.16-.85-.32-1.7-.48-2.54-.09.14-.17.29-.26.43-1.33-.52-2.64-1.12-4-1.53-.56-.17-1.24,0-1.85.09-1.89.26-3.79.56-5.68.84-.12-.22-.23-.44-.35-.67.59-.86,1.04-1.88,1.8-2.54,2.97-2.58,5.86-5.32,9.15-7.44,1.46-.94,3.85-.92,5.71-.66,3.48.49,6.79-.03,10.02-1.05,4.11-1.31,8.13-2.88,12.19-4.31.61-.22,1.26-.32,1.9-.47.11.18.22.36.34.53-.88.98-1.7,2.01-2.65,2.93-5.46,5.27-11.35,9.97-17.91,13.82-1.37.8-2.66,1.72-3.99,2.58h-3.95Z"/>
      <path class="cls-2" d="M153.17-11.22c-.54,2.11-.92,4.28-1.67,6.3-1.38,3.73-2.88,7.42-4.56,11.02-.64,1.38-1.92,2.46-2.91,3.68-.17-.09-.34-.18-.5-.27.97-1.77,1.78-3.66,2.94-5.29,1.2-1.67,2.08-6.19,1-7.89-3.65,3.07-7.26,6.12-10.9,9.19-.47-.17-.92-.33-1.33-.48-.92.77-1.77,1.55-2.7,2.22-.4.29-1.17.6-1.43.42-.4-.27-.74-1-.68-1.48.27-2.22.72-4.42,1.04-6.63.19-1.34.35-2.7.36-4.05,0-1.19-1.49-1.81-3.26-1.47-.53.1-1.07.16-1.61.23-.08-.16-.17-.32-.25-.48,1.8-1.67,3.61-3.34,5.41-5.01h21.07,0Z"/>
      <path class="cls-2" d="M614,196.16c-3-3.05-4.78-6.85-6.5-10.68-1.07-2.37-2.24-4.73-2.98-7.21-.58-1.95-.9-4.11-.71-6.11.51-5.21,2.75-9.84,5.64-14.14,1.22-1.82,2.96-2.28,4.55-1.36v39.5Z"/>
      <path class="cls-2" d="M427.36,344.28c5.32-4.72,10.98-8.8,18.45-9.59-.29.74-.52,1.33-.75,1.93.1.15.21.3.32.44,1.11-.42,2.2-.88,3.32-1.25,1.52-.51,3.07-1.39,4.59-1.35,5.37.14,9.68,2.42,12.38,7.23.44.78.58,1.72.87,2.59h-39.17Z"/>
      <path class="cls-2" d="M-18,306.43c1.25.5,2.65.78,3.72,1.53,4.23,2.94,8.9,5.33,12.16,9.51.4.52.78,1.05,1.12,1.61,1.45,2.42,1.05,4.66-1.51,5.72-3.34,1.37-6.85,2.35-10.34,3.32-1.65.46-3.42.48-5.14.7v-22.38h0Z"/>
      <path class="cls-2" d="M614,45.4c-.63,1.2-1.26,2.4-2.13,4.05-1.92-1.97-3.79-3.62-5.35-5.54-2.29-2.8-4.6-5.63-6.4-8.74-.73-1.27-.41-3.37-.09-4.99.47-2.34,1.35-4.6,2.1-6.89.71-2.14,1.53-2.59,3.29-1.26,2.6,1.97,4.97,4.25,7.43,6.41.41.36.76.77,1.15,1.16v15.8Z"/>
      <path class="cls-2" d="M-18,260.34c1.29-.21,2.58-.47,3.88-.63,1.12-.14,2.05.05,2.84,1.13.94,1.28,3.39,1.04,4.66-.06.77-.67,1.68-1.22,2.62-1.62,3.92-1.63,7.89-3.15,12.13-3.78.63-.09,1.3.12,1.95.18-.36.54-.65,1.14-1.1,1.59-.37.38-.9.59-1.79,1.15.59.21.99.35,1.43.5-1.43,2.14-3.38,3-5.19,4.07-2,1.19-3.97,2.44-5.93,3.7-4.82,3.1-9.72,6-15.51,6.92v-13.17h0Z"/>
      <path class="cls-2" d="M53.1-11.22c-.48,3.99-.43,8.15-1.6,11.93-.98,3.17-3.34,5.92-5.17,8.81-.21.33-1.07.6-1.4.43-1.32-.65-3.12-.91-3.29-2.79-.28-3.21-.4-6.44.67-9.54,1.01-2.97,2.15-5.89,3.23-8.84h7.57,0Z"/>
      <path class="cls-2" d="M614,15.44c-4.26-7.78-8.23-15.66-8.05-24.88.01-.6.1-1.19.15-1.78h7.9V15.44Z"/>
      <path class="cls-2" d="M614,322.23c-2.58-1.6-5.22-3.1-7.7-4.84-1.29-.9-1.21-2.5.03-3.51.83-.68,1.8-1.23,2.79-1.66,1.59-.69,3.25-1.23,4.88-1.84v11.85Z"/>
      <path class="cls-2" d="M-18,250.14c3.35-1.27,6.7-2.58,10.07-3.82,3.38-1.24,6.84-2.15,10.44-2.36.11.16.21.32.32.48-1.05.75-2.01,1.69-3.16,2.21-4.92,2.21-9.91,4.26-15.25,5.23-.79.14-1.61.16-2.42.24v-1.98Z"/>
      <path class="cls-2" d="M614,275.49c-.19,2.12-.38,4.23-.6,6.62-.85-.33-1.66-.64-2.51-.96.35-.84.6-1.47,1.09-2.62-1.34-.08-2.38-.16-3.42-.2-.72-.03-1.26-.21-.87-1.06.22-.47.53-1.02.96-1.26,1.75-.99,3.56-1.88,5.35-2.81v2.3Z"/>
      <path class="cls-2" d="M121.19,252.24c.93-.72,1.96-1.57,2.75-2.57-.2-.2-.41-.5-.65-.9-.18-.31-.38-.61-.6-.88-3.7-4.52-8.52-6.9-13.68-8.44-2.63-.79-5.34-.59-7.68,1.36-3.72,3.1-6.3,7.23-8.51,11.67-.63,1.26-.09,2.62,1.17,2.9.91.2,1.91.35,2.8.14,1.65-.37,2.86.68,3.84,1.62.93.89,1.83,1.45,2.96,1.52,4.33.27,8.54-.14,12.49-2.32,1.53-1.6,3.34-2.73,5.11-4.1h0Z"/>
      <path class="cls-2" d="M168.04,260.47c-1.01-1.56-2.08-3.24-4.17-3.4-3.9-.29-7.83-.79-11.7-.49-2.33.18-3.63-.45-4.76-2.19-.18-.27-.39-.52-.57-.79-.47-.73-2.82-4.29-5.75-5.36-1.86-.68-3.58-.22-5.07.18-4.88,1.31-4.56,4.16-11.74,9.4-1.82,1.33-3.86,3.42-4.48,5.03-.07.18.02.37.19.45,1.31.59,2.18,2.01,3.67,2.25.32.05.65.1.93.25,2.28,1.2,4.61,2.07,7.25,2.15,1.34.04,2.7.54,3.99,1.01.68.24,1.21.87,1.82,1.3,1.59,1.1,3.19,2.19,4.88,3.35.19.13.21.41.04.57-1.54,1.44-2.83,2.59-4.05,3.82-.77.78-.04,1.18.59,1.4.77.27,1.65.28,2.37.63,3.98,1.91,8.58,1.01,11.6-2.21,1.05-1.13,2.21-2.37,3.58-2.92,1.51-.61,3.07-.97,4.22-2.21,1.17-1.25,2.35-2.47,3.47-3.76.09-.1.09-.3.06-.49-.02-.21-.22-.36-.43-.32-.61.12-1.14.22-1.66.32-.12.02-.24-.02-.33-.1h0c-.17-.18-.11-.48.11-.59,2.09-.99,1.81-2.66,1.25-4.56-.06-.2.07-.42.28-.46,1.29-.26,2.4-.5,3.51-.67,1.02-.16,1.45-.74.91-1.58Z"/>
      <path class="cls-2" d="M189.48,244.79c.59-1.44.74-2.92.8-4.46.05-1.16.18-2.4-.31-3.49-.19-.42-.45-.78-.77-1.1-.36-.13-.68-.27-.93-.43-2.07-1.27-4.31-2.26-6.48-3.36-.13-.07-.33-.02-.49-.05-2.61-.39-4.39.96-6.04,2.75-1.1,1.18-2.24,2.44-3.6,3.26-1.85,1.1-2.86,2.7-3.25,4.62-.18.91-.36,1.5-1.17,1.9-1.34.66-1.89,1.74-1.62,3.24.18,1.02.03,1.83-.89,2.6-1.23,1.03-1.01,1.88.52,2.56,1.65.74,3.35,1.35,5,2.06,3.95,1.71,7.62,1.48,10.98-1.42,1.57-1.36,3.29-2.54,4.81-3.96.77-.72,1.58-1.4,2.37-2.1.37-.6.77-1.18,1.12-1.8-.15-.2-.21-.48-.07-.81h0Z"/>
      <path class="cls-2" d="M165.85,237.71c.59-1.44.74-2.92.8-4.46.05-1.17.18-2.4-.31-3.5-.19-.41-.45-.78-.77-1.1-.36-.13-.68-.27-.93-.43-2.07-1.27-4.3-2.26-6.48-3.36-.13-.07-.33-.02-.49-.05-2.61-.4-4.39.96-6.04,2.74-1.1,1.19-2.24,2.44-3.61,3.26-1.85,1.1-2.86,2.7-3.24,4.62-.18.91-.36,1.5-1.17,1.9-1.34.67-1.89,1.74-1.62,3.24.18,1.02.03,1.83-.89,2.6-1.23,1.03-1.01,1.88.52,2.56,1.65.74,3.35,1.35,5,2.06,3.95,1.71,7.62,1.48,10.98-1.42,1.57-1.36,3.29-2.54,4.81-3.96.77-.72,1.58-1.4,2.37-2.1.37-.6.77-1.18,1.13-1.8-.15-.2-.21-.48-.08-.81h0Z"/>
      <path class="cls-2" d="M223.09,242.01c-.7-.5-1.51-1.01-1.92-1.72-1.76-3.06-4.38-4.85-7.81-5.26-4.08-.49-8.18-.69-12.27-1.06-.94-.09-1.88-.25-2.76-.22-.12.13-.29.24-.53.28-4.23.69-2.86,6.12-3.9,9.16-.68,1.98-2.28,3.45-3,5.43-.2.55-.42,1.05-.69,1.49.21.46.67,1,1.39,1.83.14.16.2.38.33.64-.97,1.24-2.47,2.31-2.61,3.54-.15,1.35-.75,1.48-1.6,1.93-.5.27-1.02.96-1.06,1.49-.03.39.65,1.07,1.14,1.21,1.4.38,2.87.85,4.28.76,3.54-.23,7.08-.67,10.6-1.17,2.31-.33,4.81-.46,6.82-1.46,6.29-3.15,11.25-7.78,14.31-14.28.6-1.27.26-1.87-.7-2.56h0Z"/>
      <path class="cls-2" d="M300.51,211.16c-.65-1.8-2.14-2.07-3.69-2.48-3.11.39-6.2.97-9.3,1.46-1.64.26-3.27.51-4.9.76-.67-.75-.88-.99-1.55-1.73.08-.29.16-.6.25-.93.16-.6-.34-1.16-.95-1.07-2.6.38-5.14.74-7.65,1.2-1.09.2-.81,1.1-.7,1.98.21,1.74.45,3.54.24,5.26-.53,4.18.25,6.52,3.96,5.91.7-.12,1.41-.16,2.12-.19h.02c.78-.03,1.18.92.62,1.47-1.07,1.04-2.12,2.07-2.8,3.31-1.32,2.4-3.15,4.23-5.03,6.08-.29.28-.76.37-1.14.56-.19.09-.37.18-.56.28-.52.27-.63.97-.21,1.38.22.21.45.38.7.41,2.42.35,4.87.75,7.29.65,1.97-.07,4.15-.41,5.83-1.36,5.83-3.31,10.16-8.33,14.33-13.47,1.77-2.18,2.58-4.81,3.51-7.38.03-.09.07-.18.1-.27-.1-.62-.25-1.24-.46-1.83h-.01Z"/>
      <path class="cls-2" d="M325.52,187.57c-.18-.12-.28-.47-.29-.72-.07-1.82-1.45-2.7-2.62-3.75-.4-.35-.8-.79-.98-1.27-.57-1.52-1.97-2.59-3.05-2.16-3.5,1.38-7.01,2.73-10.47,4.19-4.62,1.95-6.63,6.16-8.49,10.37-.28.64.3,1.95.87,2.62,1.58,1.86,1.73,4.04,1.72,6.26,0,.5-.07,1-.16,1.54.24.43.57.81,1.01,1.09,1.63,1.04,3.83.97,5.77,1.18,4.06-.27,8.05-1.1,11.94-2.41.95-.32,1.97-1.08,2.46-1.92,1.53-2.63,3.15-5.29,4.15-8.14,1.47-4.18,1.64-4.46-1.84-6.88h0Z"/>
      <path class="cls-2" d="M558.4,329.55c-2.9.42-4.86-1.41-6.87-2.97-3.32-2.57-6.03-5.69-7.97-9.47-1.18-2.32-1.12-2.33.56-4.24,3.07-3.5,6.21-6.96,8.93-10.72,2.78-3.85,6.91-4.77,10.99-5.91.6-.17,1.44.09,2.04.4,6.16,3.08,12.39,6.06,18.39,9.43,2,1.12,3.27,3.48,5.13,4.95,1.82,1.45,1.54,2.8.54,4.43-.43.7-.73,1.47-1.15,2.18-1.33,2.26-2.92,4.19-5.6,5-6.94,2.11-13.85,4.32-20.81,6.39-1.33.4-2.8.35-4.21.51h0Z"/>
      <path class="cls-2" d="M29,292.31c-2.37-.73-3.13-3.7-1.38-5.46,2.12-2.13,4.56-3.72,6.57-5.73,2.15-2.17,4.6-4.04,6.74-6.21.75-.76,1.19-1.99,1.43-3.08.37-1.66,2.1-2.96,3.97-2.42,3.13.91,6.21,1.97,9.28,3.06,5.07,1.79,9.64,4.56,14.06,7.54,1.62,1.09,2.79,2.83,4.17,4.27.34.36.67.71,1.03,1.06,1.64,1.58,1.6,2.14.5,4.06-.59,1.02-.86,2.28-1.04,3.47-.2,1.25-.57,2.17-1.91,2.52-6.97,1.87-13.92,3.82-20.92,5.62-1.11.28-2.29.24-3.56.25-.66,0-1.13-.65-.89-1.26,0,0,0,0,0-.01.89-2.19-.25-3.96-2.66-4.1-.38-.02-.8-.02-1.12-.18-3.44-1.82-7.31-1.63-10.96-2.47-1.11-.26-2.21-.57-3.31-.91h0Z"/>
      <path class="cls-2" d="M452.99,38.18c-3.52-3.91-1.63-7.74.39-10.9,2.21-3.45,5.16-6.57,8.3-9.22,5.48-4.63,11.35-8.8,17.06-13.15.24-.18.55-.27,1.24-.59-.38,1.22-.68,2.07-.91,2.93-.39,1.42-.77,2.85-1.06,4.29-.11.52-.16,1.27.12,1.6,1.64,1.87.66,3.89.32,5.77-.47,2.56-1.35,5.04-2.05,7.55-.09.32-.29.62-.31.93-.03.79-.17,2.2.06,2.26,1.26.37,2.24,1.94,3.89.89.94-.6,2.1-.89,3.19-1.2,1.52-.43,2.68.41,3.58,1.44.9,1.01.55,2.23-.18,3.18-2.75,3.54-5.42,7.16-8.41,10.49-4.15,4.6-9.1,8.21-14.77,10.82-1.13.52-1.73.44-1.95-.9-.38-2.24-.82-4.47-1.24-6.71-.05-.27-.05-.62-.21-.78-2.05-1.98-1.14-4.43-.94-6.67.25-2.77-.64-3.72-3.36-2.96-.98.27-1.93.64-2.77.92h0Z"/>
      <path class="cls-2" d="M438.65,316.13c.27-.45.39-.85.65-1.07,4.2-3.66,8.26-7.51,12.67-10.9,5.7-4.38,12.6-5.86,19.5-7.31,3.67-.77,6.76.57,9.91,1.93,1.83.79,3.65,1.67,5.35,2.71,2.4,1.47,2.38,2.75.3,4.58-6.51,5.75-14.05,9.78-21.96,13.18-3.79,1.63-7.56,3.38-11.47,4.66-2.71.89-5.65,1.08-8.5,1.55-.94.15-1.9.21-3.36.37.64-1.02,1-1.64,1.4-2.24.73-1.09,1.52-2.15,2.21-3.26.87-1.4.44-2.61-1.15-3.05-1.74-.47-3.53-.75-5.54-1.16h0Z"/>
      <path class="cls-2" d="M396.4,143.53c-7.47,6.63-14.77,12.85-25.01,15.22.46-1.89.81-3.35,1.19-4.81.31-1.2.14-2.22-.74-3.19-.42-.46-.64-1.24-.69-1.88-.13-1.99-1.16-4.39-2.42-5.42.79-1.23,1.58-2.46,2.36-3.68l-.31-.58c-4.51,3.67-9.48,3.8-15.05,2.5.92-1.28,1.53-2.39,2.37-3.28,8.94-9.39,19.13-17.03,31.23-21.94.55-.22,1.22-.17,1.46-.2-.25,1.66-.44,2.97-.64,4.29-.02.16.03.33,0,.49-.31,2.47-.76,4.93-.89,7.42-.11,2.08-1.19,3.57-2.32,5.12-1.45,1.99-1.45,2.29.11,4.1.26.31,1.02.63,1.2.49,1.18-.9,1.99,0,2.71.58,1.74,1.41,3.36,2.96,5.42,4.79h0Z"/>
      <path class="cls-2" d="M428.9,88.18c.07-.43.12-1.13.31-1.79,1.06-3.8,2.32-7.54,3.19-11.39,1.03-4.55,4.01-7.75,7.12-10.81,3.31-3.26,6.84-6.31,10.34-9.38.59-.52,1.48-.69,2.23-1.03.24.95.76,1.93.67,2.84-.63,5.8-.93,11.59-.04,17.38.22,1.44.7,2.87,1.27,4.22.88,2.09.98,4.14-.46,5.91-3.2,3.95-6.41,7.92-9.89,11.62-2.51,2.66-4.46,5.53-5.5,9.01-1.31,4.4-2.56,8.82-3.93,13.57-.37-.89-.92-1.62-.95-2.37-.12-3.34-.14-6.68-.1-10.02.03-2.57.02-5.17.34-7.71.22-1.76,1.01-3.45,1.46-5.19.28-1.08,1-2.27-.48-3.16-.16-.1-.1-.69-.03-1.03.29-1.23-.36-1.7-1.41-1.56-1.33.18-2.64.55-4.15.88h0Z"/>
      <path class="cls-2" d="M481.92,337.44c-1.92-.41-3.46-.81-4.8-2.25-1.62-1.74-3.5-3.24-5.34-4.75-1.22-1-1.11-1.79,0-2.78,1.8-1.59,3.55-3.24,5.28-4.91.71-.68,1.49-1.39,1.91-2.24,1.15-2.34,3.16-3.67,5.26-5.01,4.46-2.83,9.01-5.43,14.27-6.44.72-.14,1.54-.17,2.23.04,4.72,1.42,9.21,3.34,13.05,6.53,2.35,1.95,2.5,2.32.88,4.83-2.81,4.37-6.8,7.36-11.55,9.35-3.65,1.53-7.3,3.09-11.02,4.43-3.34,1.21-6.77,2.14-10.16,3.2h0Z"/>
      <path class="cls-2" d="M235.25,230.07c-.79-1.03-1.36-1.72-1.85-2.46-.16-.23-.3-.69-.18-.87.81-1.16,1.61-2.35,2.57-3.38.64-.69,1.18-1.12.59-2.21-.31-.56-.19-1.56.09-2.2.86-1.91,2.06-3.68,2.83-5.63,2.29-5.77,7.34-6.49,12.47-6.85,2.85-.2,5.9-.31,8.59.47,3.23.95,6.18,2.87,9.22,4.45.24.12.36.87.25,1.24-2.33,8.06-8.12,13.39-14.68,17.94-1.93,1.34-4.51,1.96-6.89,2.36-4.02.68-8.11,1.03-12.19,1.31-1.59.11-3.24-.26-4.82-.59-.43-.09-.72-.81-1.07-1.24.41-.27.8-.59,1.25-.79,1.13-.5,2.28-.94,3.83-1.58h0Z"/>
      <path class="cls-2" d="M364.48,185.15c.04-4.68,1.39-8.98,3.87-12.75,1.95-2.98,4.5-5.63,8.4-6.27.71-.12,1.35-.65,2.02-1,2.06-1.06,4.1-2.16,6.19-3.16,1.12-.53,2.35-.84,3.5-1.32,1.85-.77,2.77-.18,3.77,1.59,2.66,4.73.85,9.2-.6,13.67-1.27,3.93-3.38,7.44-6.04,10.61-2.08,2.47-4.34,4.77-7.26,6.22-1.24.62-2.74.68-4.08,1.14-1.43.49-2.86,1.04-4.2,1.76-2.14,1.14-3.82.5-4.26-1.9-.52-2.84-.88-5.72-1.3-8.58Z"/>
      <path class="cls-2" d="M347.87,153.6c1.28,2.21,3.27,3.16,5.28,4.04.26.11.77-.27,1.13-.47,1.33-.73,2.66-1.48,3.8-2.12.24,1,.42,1.74.6,2.48.68-.62,1.44-1.17,2.03-1.86.72-.86,1.3-1.83,1.94-2.76l.57.29c-.04.57,0,1.16-.12,1.72-.83,4.01-1.63,8.03-2.57,12.01-.25,1.07-.85,2.1-1.47,3.03-1.48,2.22-2.89,4.54-4.66,6.51-1.39,1.54-3.17,2.84-5,3.85-2.01,1.11-4.23,2.36-6.42,2.49-3.45.19-6.12,1.9-9.09,3.17-1.35-.81-1.14-2.08-.87-3.46.43-2.2-.02-2.91-2.03-3.58-.39-4.88.15-9.68,2.68-13.89,2.76-4.6,5.99-8.9,11.63-10.39.88-.23,1.71-.69,2.56-1.04h0Z"/>
      <path class="cls-2" d="M76.27,280.92c-3.47-.02-4.4-.76-5.76-3.88-.38-.87-1.46-1.59-2.4-2.02-1.88-.87-3.88-1.46-5.81-2.23-.84-.34-1.55-.98-.69-1.85,3.74-3.79,6.53-8.55,11.33-11.27,3.55-2.02,7.24-2.65,11.32-1.56,2.98.8,6.12,1.02,9.18,1.5,2.24.35,4.28,1.1,6.09,2.55,3.24,2.62,3.79,6.47.78,9.39-2,1.94-4.46,3.55-6.99,4.74-3.22,1.52-6.67,2.62-10.11,3.59-2.23.63-4.62.7-6.94,1.03h0Z"/>
      <path class="cls-2" d="M203.29,228.7c2.44-.04,2.06-2.22,2.77-3.49.57-1.01.71-2.22,2.21-2.38-3.17-.61-3.7-1.7-2.02-4.52,1.97-3.32,3.36-6.82,4.29-10.57.26-1.03,1.4-2.26,2.4-2.6,2.72-.91,5.55-1.65,8.39-1.96,3.02-.34,6.11-.29,9.14-.06,1.48.11,2.9,1.02,4.36,1.54.34.12.72.18,1.08.15,1.63-.09,2.13.42,2.01,2.09-.03.38-.2.84-.05,1.13,1.66,3.12-.76,5.08-2.28,6.98-2.55,3.19-5.51,6.06-8.38,8.99-2.67,2.72-5.86,4.48-9.75,4.77-3.8.29-7.61.64-11.42.89-.87.06-1.76-.22-2.64-.35-.03-.2-.07-.4-.1-.6h0Z"/>
      <path class="cls-2" d="M13.37,317.14c-1.04-.16-2.35-.28-3.62-.58-1.79-.42-2.54-1.87-2.71-3.49-.12-1.13-.61-1.64-1.55-2.03-3.06-1.29-6.15-2.51-9.14-3.95-2.27-1.1-2.73-1.98-.59-3.91,3.19-2.87,7.04-4.53,10.69-6.58,1.66-.93,3.35-1.83,4.91-2.9,1.45-.99,2.98-1.24,4.49-.55,2.31,1.07,4.57,2.29,6.75,3.6,1.99,1.2,3.7,3.26,5.82,3.77,2.56.62,3.74,2.49,5.19,4.03,2.35,2.49,2.99,5.68-1.18,7.4-6.06,2.49-12.21,4.61-19.07,5.2h0Z"/>
      <path class="cls-2" d="M95.27,304.86c1.18,1.01,2.06,1.97,2.67,2.68-.65.12-1.34.45-1.6.24-1.6-1.25-3.19.28-4.8,0-.21-.04-.72,1.61-1.09,2.48.54.23,1.08.65,1.62.65,2.14,0,4.49.39,6.34-.37,1.51-.62,2.19-.04,3.03.57.37.27.57,1.22.39,1.69-.69,1.8-2.82,2.89-4.75,2.77-2.13-.13-4.01.27-5.98,1.47-2.23,1.35-4.95,2-7.54,2.57-1.72.38-3.69.42-5.38-.04-2.3-.62-4.44-1.85-6.66-2.81-2.94-1.27-5.89-2.55-8.84-3.79-1.26-.53-2.55-.98-3.84-1.43-2.55-.88-3.01-2.43-.8-4.72,1.16-1.2,2.85-1.95,4.39-2.72,2.43-1.2,4.93-2.27,7.42-3.35,2.46-1.06,5.02-1.9,7.4-3.11,2.04-1.04,4.12-.72,5.86.02,1.99.86,4.51,1.99,9.28,5.07.68.44,1.69,1.1,2.88,2.13h0Z"/>
      <path class="cls-2" d="M438.93,29.15c-.42,1.01-.81,1.73-1.04,2.5-.64,2.21-.19,3.27,1.93,4.2,1.47.65,1.09,2.01,1.27,3.07.33,1.91.39,3.87.55,5.66,1.41-1.77,3.02-3.79,4.62-5.81.18.1.37.19.55.29.84,2.85.53,5.77-.81,8.32-2.51,4.78-5,9.71-9.5,13.03-2.96,2.19-6.13,4.12-9.31,5.98-1.59.93-3.71.07-4.27-1.73-.73-2.33-1.35-4.74-1.61-7.16-.62-5.72.32-11.25,2.65-16.52.32-.72.74-1.52,1.35-1.99,4.23-3.22,8.52-6.37,12.79-9.53.16-.12.39-.15.83-.31h0Z"/>
      <path class="cls-2" d="M421.65,90.06c.33,7.82.66,15.22-.82,22.53-.54,2.68-1.27,5.33-2.18,7.91-1.25,3.55-4.36,5.45-7.35,7.22-2.45,1.45-5.22,2.36-8.21,3.67-.1-2.09-.08-3.69-.28-5.27-.14-1.09-.88-2.15-.8-3.19.14-2.03.61-4.05,1.04-6.05.52-2.39.19-3.12-2.12-3.68-1.23-.3-1.21-1.08-1.08-2,.53-3.51,1.99-6.58,4.39-9.2,2.84-3.1,6.11-5.64,9.79-7.67,2.48-1.36,4.93-2.76,7.63-4.27h0Z"/>
      <path class="cls-2" d="M245.57,242.97c.9.66,1.56,1.15,2.23,1.63-.91.4-1.81.79-2.82,1.23.8,1.33,1.64,2.78,3.82,3.01,2.93.31,3.5,1.31,1.85,3.75-1.51,2.23-3.6,4.07-5.43,6.08-2.83,3.09-6.72,3.67-10.53,4.29-3.12.51-6.28.82-9.44,1.11-1.9.17-3.82.18-5.73.17-.41,0-1.09-.32-1.16-.61-.13-.5-.04-1.22.26-1.63,1.31-1.79,2.77-3.48,4.08-5.28.3-.41.48-1.33.24-1.64-1.78-2.23-.42-3.94.73-5.75.67-1.06,1.27-2.16,1.78-3.3.23-.52.33-1.22.18-1.75-.81-2.98-.07-4.81,3.02-5.29,3.53-.55,7.17-.45,10.76-.53,1.07-.02,2.16.24,3.22.47,2.84.63,3.48,1.62,2.96,4.03h0Z"/>
      <path class="cls-2" d="M114.85,282.47c.79.38,1.58,1.04,2.39,1.07,2.15.08,3.47,1.59,5.08,2.59,1.68,1.05,3.28,2.24,4.88,3.34-.41.37-.99.67-1.22,1.15-.28.57-.27,1.29-.38,1.94h1.87c.76.91.48,1.89-.61,2.52-2.07,1.2-4.2,2.34-6.37,3.35-1.32.61-2.76,1.04-4.18,1.35-.86.19-1.8-.03-2.71,0-1.39.04-2.79.09-4.18.22-2.01.18-3.46-.6-4.57-2.27-.36-.55-1.01-1.07-1.64-1.25-2.14-.64-4.3-1.36-6.5-1.62-2.36-.28-3.7-1.49-4.29-3.61-.13-.47.33-1.2.69-1.68.42-.56,1.06-.94,1.56-1.44,1.65-1.69,1.59-1.76.24-3.74-.24-.35,0-1.34.36-1.72,1.87-1.97,3.88-3.79,5.76-5.75,1.19-1.24,2.53-1.81,4.25-1.67,4.86.4,9.05,2.69,13.35,4.65.24.11.51.28.64.49.37.61.68,1.25,1.01,1.88-.68,0-1.36.04-2.03-.02-1.06-.1-2.12-.26-3.18-.39-.08.21-.15.41-.23.62Z"/>
      <path class="cls-2" d="M192.71,266.19c-1.02,1.41-1.76,2.43-2.64,3.63,1.15.34,2,.59,3.25.96-.73.37-1.19.47-1.42.75-.33.4-.82,1.18-.67,1.38,1.05,1.42.08,2.22-.95,3.18,1.99,1.45,3.94,2.74,6.4,3.01,1.57.17,1.79.56,1.04,1.96-.18.33-.36.72-.65.93-2.59,1.79-5.17,3.6-7.84,5.28-1.66,1.05-3.42,1.95-5.21,2.76-.72.32-1.66.4-2.45.26-1.92-.34-3.81-.86-5.71-1.31-.26-.06-.57-.1-.77-.26-.75-.57-1.46-1.19-2.18-1.79.74-.44,1.54-.81,2.21-1.35.61-.49,1.38-1.07,1.56-1.75.29-1.1.51-2.52-1.16-2.9-2.44-.56-4.92-.96-7.36-1.56-.85-.21-1.72-.65-2.39-1.21-.94-.8-.78-1.68.02-2.7,2.06-2.63,3.79-5.46,4.55-8.78.34-1.46,1.14-2.51,2.79-2.79,5.1-.88,10.1-.17,15.07.94,1.44.32,2.83.86,4.5,1.38h0Z"/>
      <path class="cls-2" d="M276.9,92.14c.02-8,2.28-14.82,7.48-20.53,2.88-3.16,5.95-3.27,8.87-.05,1.04,1.15,1.8,2.75,2.17,4.28.75,3.12,1.55,6.18,3.52,8.77.84,1.1.52,2.04-.1,3.01-3.95,6.23-8.39,12.05-13.85,17.06-.08.08-.17.14-.24.22-1.88,1.75-2.3,1.82-3.69-.39-2.44-3.87-4.64-7.88-4.15-12.36Z"/>
      <path class="cls-2" d="M119.21,238.46c.45-.35.9-.69,1.55-1.18-.58-.18-.92-.3-1.26-.39-2.75-.7-3.59-1.69-3.47-4.48.04-.93-.24-1.14-1.04-1.45-1.91-.74-3.78-1.61-5.56-2.61-.49-.27-.65-1.2-.86-1.86-.09-.28.21-.75.07-.94-1.22-1.66-.06-2.42,1.19-2.96,2.58-1.11,5.14-2.37,7.84-3.04,4.06-1.01,8.2-1.72,12.35-2.26,1.91-.25,3.93.04,5.87.34,2.56.39,5.11.92,7.6,1.59,2.71.72,2.95,1.97,1.85,4.46-1.42,3.2-4.17,4.95-6.76,6.83-3.42,2.49-6.97,4.82-10.67,6.87-1.94,1.08-4.29,1.48-6.49,2-.68.16-1.49-.26-2.25-.42.01-.16.02-.33.04-.49h0Z"/>
      <path class="cls-2" d="M268.83,92.38c.05,1.12.13,1.71.09,2.29-.26,3.82.61,7.41,2.3,10.81.94,1.9.86,3.7.21,5.71-2.41,7.44-7.17,13.17-12.93,18.21-1.17,1.03-2.77.84-3.57-.71-.9-1.72-1.67-3.58-2.04-5.47-1.1-5.66-1.89-11.39-.62-17.12,1.11-4.98,3.58-9.04,8.53-11.15.86-.37,1.64-.93,2.52-1.19,1.72-.51,3.49-.88,5.5-1.37h0Z"/>
      <path class="cls-2" d="M37.47,335.67c-.44,0-.88.05-1.31,0-5.19-.66-4.36-.32-5.65-4.76-.19-.67-.79-1.38-1.4-1.72-1.98-1.14-4.17-1.95-6.05-3.22-1.85-1.25-2.23-2.3-.35-3.85,1.25-1.03,2.62-1.96,4.06-2.7,3.01-1.55,6.07-2.99,9.15-4.39,2.33-1.05,4.42-.68,6.61.81,2.32,1.57,4.96,2.67,7.49,3.91,1.83.9,3.94,1.4,5.52,2.61,1.53,1.17,2.73,2.92,3.72,4.62.86,1.47.15,2.99-1.79,3.8-2.85,1.18-5.77,2.28-8.76,3.02-3.68.92-7.46,1.43-11.2,2.13-.02-.09-.03-.17-.05-.25h0Z"/>
      <path class="cls-2" d="M117.68,46.28c-.77,4.19-1.41,8.04-2.19,11.87-.37,1.81-.97,3.56-1.5,5.34-.57,1.91-1.13,2.04-3.04,2.08-1.89.05-3.76-.05-5.46,1.71-2.44,2.51-5.51,4.39-8.83,5.67-.38.14-1.07-.22-1.46-.54-.29-.24-.34-.78-.49-1.19-1.08-2.97-2.01-6-3.27-8.88-1.25-2.85-.49-5.32,1.45-7.21,1.81-1.77,4.21-2.94,6.33-4.39,1.21-.83,2.4-1.69,3.6-2.53,3.52-2.49,7.06-4.94,10.55-7.47,1.17-.85,1.94-.61,2.44.61.69,1.67,1.28,3.38,1.86,4.94h0Z"/>
      <path class="cls-2" d="M499.65,61.04c-2.43-8.61-4.86-17.48-4.7-26.79.02-.91.36-1.98.92-2.69,3.66-4.58,7.37-9.12,11.17-13.58.83-.97,2.09-1.57,3.57-2.64.44,2.43.73,4.24,1.1,6.04.92,4.56,1.91,9.1,2.8,13.66.13.69.18,1.6-.15,2.16-4.87,7.99-9.82,15.93-14.71,23.84h0Z"/>
      <path class="cls-2" d="M285.94,138.1c.41-.49.61-1.12.57-1.76-.12-1.66-.29-3.32-.28-4.97.03-7.31-2.03-14.06-5.37-20.47-.92-1.78-1.76-2.22-3.54-1.32-1.03.52-1.99,1.5-2.57,2.51-1.54,2.64-2.88,5.39-4.24,8.14-.48.96-1,2.01-1.09,3.05-.64,8.1,1.02,15.52,5.03,22.28.81,1.36,2.66,1.65,3.82.58,2.72-2.52,5.29-5.19,7.68-8.03Z"/>
      <path class="cls-2" d="M72.53,95.72c-.21-.13-.28-.14-.3-.18-2.04-3.94-5.1-7.44-5.19-12.19-.01-.62.19-1.28.45-1.84.95-2.03,1.83-4.11,3.01-6.01,2.4-3.86,4.48-8.02,8.5-10.55.6-.38,1.71-.4,2.37-.11,1.72.78,2.79,2.28,3.28,4.07,1.73,6.28,3.58,12.55,3.32,19.17-.07,1.81-.28,3.44-2.57,4.35-1.63.65-2.77,2.53-4.11,3.89-1.38,1.39-2.71,2.83-4.1,4.21-.24.24-.67.28-1.01.41-.13-.38-.31-.74-.4-1.13-.26-1.18-.41-2.39-.76-3.55-.44-1.47-1.38-1.49-2.48-.55h0Z"/>
      <path class="cls-2" d="M73.23,253.94c-1.41,1.21-2.68,2.66-4.25,3.58-5.21,3.05-10.67,5.54-16.96,4.72-1.81-.24-3.59-.87-5.34-1.45-.99-.33-1.05-1.22-.55-2.03.39-.63.92-1.18,1.67-2.11-1.85-.42-3.49-.81-5.14-1.17-.91-.2-1.84-.31-2.73-.58-.85-.25-1.31-.73-.7-1.71.8-1.28,1.5-2.5,2.94-3.35,2-1.18,3.81-2.74,5.59-4.25,2.29-1.94,4.81-3.85,7.73-4.02,4.39-.25,8.88-.28,12.57,3.21,1.09,1.03,2.34,1.72,3.1,3.18.55,1.06,1.69,1.17,2.26-.46.85,2.29.37,3.16-1.73,3.76-.94.27-1.84.73-2.76,1.11.03.24.05.48.08.72,1.31.15,2.63.3,3.94.46.1.13.19.26.28.39Z"/>
      <path class="cls-2" d="M60.53,153.92c-.29.62-.58,1.26-.88,1.88-.76,1.57-2.06,1.79-3.02.4-1.15-1.69-2.44-2.97-4.35-3.98-1.3-.68-2.25-2.73-2.61-4.34-.84-3.8.15-7.38,2.08-10.78,1.18-2.09,2.82-3.63,4.8-4.77,1.82-1.05,3.77-2.02,5.79-2.56,1.97-.53,3.42.87,4.47,2.42,2.72,4.01,4.53,8.43,5.82,13.1.71,2.58,1.18,5.12.54,7.75-.59,2.42-1.2,2.65-3.31,1.36-1.22-.75-2.32-.45-3.26.77-.59.77-1.19,1.57-1.96,2.14-1.08.8-1.89.35-2.31-.94-.29-.88-.76-1.69-1.15-2.53-.22.03-.43.06-.65.09h0Z"/>
      <path class="cls-2" d="M227.95,138.59c.26-5.99,2.04-11.02,5.92-15.03,2.22-2.3,4.92-4.17,7.55-6.03,1.72-1.21,2.59-.54,3.33,1.39,1.29,3.36,2.9,6.59,4.31,9.9.24.58.4,1.4.18,1.93-2.84,6.84-6.75,13.02-11.72,18.52-.44.49-.9.97-1.39,1.4-2.95,2.53-2.56,2.97-5.24-.53-.75-.97-1.19-2.2-1.65-3.36-.29-.75-.37-1.6-.49-2.41-.3-2.06-.57-4.12-.8-5.79h0Z"/>
      <path class="cls-2" d="M183.76,223.77c-1.36-.68-2.58-1.37-3.87-1.91-1.05-.44-1.43-.83-.88-2.07.69-1.55,1.01-3.27,1.55-5.15.14.08,0,0-.14-.08-1.88-1.01-1.94-1.48-.57-3.1,1-1.18,2.12-2.32,2.87-3.65,1.67-2.93,4.41-3.72,7.37-3.71,4.18.01,8.38.25,12.54.7,1.6.17,3.14,1.14,4.62,1.9.3.15.35,1.06.27,1.58-.08.51-.67.97-.67,1.46.01,3.52-2.58,5.36-4.7,7.53-1.07,1.1-2.24,2.14-3.11,3.38-2.85,4.11-6.85,5.92-11.71,6.13-1.2.05-2.4.1-3.59,0-.48-.04-.95-.42-1.42-.65.23-.46.45-.93.7-1.38.15-.27.37-.52.72-.99h0Z"/>
      <path class="cls-2" d="M114.83,28.74c.08-.43.12-.87.23-1.29.11-.42.43-.83.4-1.22-.07-.86,0-2.05-.52-2.49-.95-.81-2.1-.32-3.14.4-2,1.39-4.09,2.64-6.13,3.98-.91.6-1.7,1.4-2.67,1.88-.81.41-1.96.92-2.65.63-.9-.38-1.11-1.53-1-2.7.27-2.93.7-5.91.4-8.81-.33-3.17.22-6.14,2.19-8.28,2.43-2.64,5.57-4.63,8.46-6.83.81-.62,1.82-.98,2.73-1.47,1.37-.74,2.06-.47,2.25,1.04.17,1.31.6,1.56,1.83.97,1.81-.86,3.7-1.56,5.59-2.24.27-.1.96.27,1.06.55.24.7.48,1.55.3,2.22-1.31,4.81-2.63,9.61-4.14,14.36-.83,2.62-1.99,5.14-3.1,7.67-.32.73-1,1.29-1.51,1.93-.2-.1-.4-.2-.59-.3h0Z"/>
      <path class="cls-2" d="M317.92,213.74c1.15.51,2.68.56,3.04,2.23-.86.34-1.63.69-2.43.94-.71.23-1.46.35-2.31.55.53,1.06,1.57,1.11,2.54,1.11,1.79.01,3.59-.08,5.38-.12,1.5-.03,1.98.45,1.26,1.69-1.42,2.43-2.95,4.83-4.74,7-2.4,2.9-5.14,5.53-8.65,7.1-2.28,1.02-4.52,2.14-7.19,2.13-2.19,0-4.38.66-6.58.72-1.29.04-2.62-.47-3.88-.88-.16-.05-.25-1.12,0-1.46.6-.83,1.42-1.5,2.15-2.24,1.6-1.61,3.27-3.15,4.77-4.85,1.22-1.38.99-2.56-.29-3.75-.26-.24-.4-1.03-.22-1.26.67-.82,1.51-1.49,2.26-2.25.48-.48,1.31-1.04,1.28-1.52-.1-1.74,1.1-2.67,2.08-3.66,2.93-2.96,6.65-4.49,10.6-5.5.39-.1.92.13,1.29.36.11.07-.09.64-.12.98-.05.49-.06.99-.1,1.48-.03.36-.08.71-.13,1.18h0Z"/>
      <path class="cls-2" d="M399.37,91.05c-.95-1.28-1.94-2.33-2.57-3.56-.5-.97-.81-2.18-.78-3.27.16-5.83,1.26-11.43,4.66-16.35.56-.8,1.14-1.69,1.93-2.21,3.82-2.53,7.71-4.95,11.78-7.53-.3,1.12-.56,2.05-.79,2.99-.43,1.83-.51,3.53.3,5.41.49,1.15-.05,2.84-.4,4.21-.28,1.08-.96,2.29.08,3,.75.51,1.99.34,3.02.38,1.37.05,2.75.01,4.24.27-5.16,8.27-12.77,13.29-21.48,16.65h0Z"/>
      <path class="cls-2" d="M412.22,162.3c-.06-.78-.13-1.6-.19-2.41-.86.1-1.79.04-2.57.35-.89.36-1.61,1.2-2.44-.09-.19-.29-.77-.34-1.18-.48-.2-.07-.48,0-.64-.12-.98-.7,0-2.36-1.64-2.93-1.5-.52-.85-2.01-.44-2.95.93-2.15,1.8-4.43,3.23-6.24,5.31-6.76,10.83-13.36,16.3-19.99.37-.45,1.21-.99,1.58-.85.53.2,1.09.96,1.17,1.55.29,1.88.66,3.83.48,5.7-.58,6-1.73,11.9-4.22,17.46-2.1,4.7-5.5,8.25-9.45,11h.01Z"/>
      <path class="cls-2" d="M13.75,168.91c.33-2.47.71-4.93.95-7.41.1-1.01-.32-2.09-.11-3.06.53-2.36,1.18-4.7,1.98-6.98.66-1.87.27-3.16-1.44-4.16-.46-.27-.88-1.02-.91-1.57-.15-2.78-.78-5.73-.07-8.3.92-3.31,2.65-6.53,4.64-9.36,1.55-2.2,3.87-1.4,5.2,1.74,1.42,3.35,2.67,6.8,3.62,10.31.39,1.46-.18,3.19-.38,4.79-.03.23-.39.48-.65.6-1.16.5-2.36.91-3.51,1.45-.34.16-.54.64-.79.98-.86,1.21-1.83,2.37-2.53,3.67-.33.61-.38,1.58-.14,2.23.91,2.46,2.17,4.79,2.96,7.28.93,2.95,2.06,5.99,2.12,9.02.07,3.48-.36,4.42-4.32,3.98-.32-.04-.72-.09-.96.06-1.11.68-1.94.44-2.63-.61-.13-.2-.42-.36-.67-.43-.66-.2-1.73-.15-1.92-.54-.4-.84-.34-1.9-.45-2.87-.03-.27.03-.54.05-.82-.02,0-.04,0-.06,0h0Z"/>
      <path class="cls-2" d="M326.12,154.36c1.6-1.15,3.2-2.3,4.79-3.44,1.8,1.24,2.87,4.59,2.21,7.05-1.37,5.12-3.42,9.92-6.98,13.95-1.5,1.69-3.34,2.88-5.54,3.54-3.53,1.07-7.02,2.27-10.57,3.31-.85.25-1.83.04-2.87-.24,4.08-11.66,8.31-22.95,19.34-29.76l.61.23c-.5,1.72-1,3.43-1.5,5.15.17.07.34.15.51.22h0Z"/>
      <path class="cls-2" d="M482.93,49.8c1.69,1.39,1.45,3.14,1.51,4.62.18,4.15.09,8.31.06,12.46,0,.53-.17,1.1-.37,1.6-1.75,4.26-3.54,8.5-5.29,12.75-.47,1.15-1.12,1.5-2.41,1.14-2.57-.71-2.69-.51-4.19,1.82-1.04,1.61-2.18,3.17-3.48,4.56-.56.61-1.63.74-2.7,1.18,1.05-3.08,2.05-6.01,3.04-8.95-.14-.1-.29-.19-.43-.29-.87.5-1.74,1-2.83,1.63-.83-1.99-1.7-3.9-2.41-5.88-.13-.36.33-1,.63-1.44,1.49-2.17,3.01-4.32,4.54-6.46,3.25-4.55,6.46-9.13,9.8-13.61,1.36-1.82,3-3.43,4.53-5.14h0Z"/>
      <path class="cls-2" d="M147.55,19.59c1.13,1.57,1.18,3.39.95,5.18-.74,5.69-1.89,11.28-4.2,16.59-.85,1.95-1.2,2.21-3.31,1.84-1.88-.33-3.38.32-4.61,1.82-.6.72-1.45,1.24-2.2,1.84-1.05.85-2.18,1.6-3.12,2.55-.76.76-1.3,1.74-1.93,2.63-.28-.13-.55-.27-.83-.4-.19-.62-.46-1.22-.55-1.85-.28-2.05-.59-3.96-1.89-5.8-1.31-1.86-1.35-4.43.88-6.35.93-.8,1.51-2.24,1.78-3.5.33-1.55.94-2.61,2.22-3.6,3.83-2.96,7.5-6.12,11.26-9.17,1.13-.92,2.21-2,3.94-1.5.46.13,1.03-.16,1.62-.26h0Z"/>
      <path class="cls-2" d="M297.65,61.87c.6-1.67,1.32-3.69,2.06-5.7.75-2.04,1.36-4.16,2.35-6.09.84-1.63,2.03-3.09,3.24-4.49,1.04-1.2,3.09-.87,4.31.67,2.3,2.91,4.53,5.89,6.74,8.86.27.37.45.91.44,1.36-.06,2.08-.07,4.18-.38,6.22-.2,1.31-.73,2.63-1.4,3.78-2.11,3.61-4.67,6.86-8.09,9.34-1.17.85-2.33.95-3.14-.5-1.85-3.3-3.72-6.58-5.45-9.94-.45-.88-.41-2-.69-3.53h0Z"/>
      <path class="cls-2" d="M61.65,70.41c-.72-1.99-1.41-3.36-2.68-4.71-2.55-2.71-4.22-6.1-2.88-10.12.32-.96.08-1.52-.91-2.1-.6-.35-1.06-1.54-1.01-2.32.37-5.87,2.81-10.79,7.17-14.72,1.85-1.67,3.8-1.33,5.25.75,2.39,3.41,3.11,7.34,3.69,11.35.45,3.12.71,6.22-.82,9.11-2.02,3.8-4.13,7.56-6.25,11.3-.3.53-.92.87-1.56,1.46h0Z"/>
      <path class="cls-2" d="M273.98,202.16s0,0,.01-.01c.73-.8,1.3-1.63.18-2.66-1.57-1.45-1.41-2.36-.02-4.05,1.61-1.95,2.91-4.14,4.47-6.13,1.1-1.41,2.27-2.84,3.66-3.93,2.31-1.82,4.77-3.47,7.28-5.02,2.53-1.56,7.75-.62,9.72,1.68.32.37.42,1.14.3,1.64-1.27,4.96-3.5,9.45-6.52,13.59-1.93,2.64-4.83,3.52-7.65,4.41-2.47.78-5.09,1.17-7.67,1.53-1.1.15-2.22.11-3.34.07-.58-.02-.83-.7-.43-1.12h0Z"/>
      <path class="cls-2" d="M149.36,312.49c.67.52,1.51,1.17,2.34,1.81-.99.47-1.95,1.05-2.99,1.38-.81.26-1.71.21-2.58.3-.38.04-.78.01-1.12.15-.71.27-1.58,1.08-2.04.88-1.92-.84-4.29-.58-5.82-2.4-.36-.43-.9-.77-1.42-.96-2.34-.87-4.72-1.64-7.06-2.51-1.12-.41-2.2-.96-3.29-1.46-.71-.33-1.03-.79-.52-1.55.36-.54.57-1.23,1.04-1.64,1.17-.99,1.52-2.3,2.12-3.64.82-1.85,1.88-3.94,4-4.93,2.52-1.18,4.98-2.54,7.86-2.61.48-.01,1.15-.13,1.4.12,2.22,2.22,4.45,4.44,6.5,6.82,1.07,1.25,1.83,2.79,2.61,4.26.86,1.63.93,3.37.14,5.04-.23.48-.92.75-1.18.94Z"/>
      <path class="cls-2" d="M82.42,47.43c1.76-2.7.63-5.32-.03-8.53-1.51,1.34-2.66,2.37-3.82,3.38-.49.42-.96.89-1.53,1.18-.8.42-1.44.22-1.83-.71-1.66-4-2.34-8.18-2.1-12.48.14-2.46,1.77-4.29,3.39-5.84,3.52-3.34,7.25-6.45,10.96-9.58.55-.46,1.7-.96,2.08-.71.59.39.9,1.38,1.06,2.18.91,4.27-.19,8.47-.59,12.68-.27,2.9-.82,5.79-1.39,8.66-.57,2.88-1.86,5.43-3.89,7.6-.72.76-1.31,1.64-1.96,2.46-.12-.1-.24-.2-.36-.3h0Z"/>
      <path class="cls-2" d="M100.76,111.26c-.3-.94-.41-1.4-.59-1.83-.34-.8-.5-1.91-1.12-2.31-1.61-1.05-1.81-2.6-2.11-4.23-.27-1.44-.66-2.86-1.03-4.28-.51-1.94-.24-3.64,1.21-5.14,3.36-3.48,6.63-7.06,10.03-10.5,1.06-1.07,2.44-1.82,3.62-2.77.79-.64,1.52-.61,1.84.3.76,2.12,1.84,4.28,1.91,6.45.13,3.96-.32,7.94-.66,11.91-.23,2.67-2.32,3.8-4.4,4.94-.87.47-1.59,1.21-2.34,1.87-2.01,1.75-3.99,3.52-6.34,5.59h0Z"/>
      <path class="cls-2" d="M58.12,114.53c-1.28,1.24-2.55,2.49-3.84,3.72-1.04.99-2.06,1.52-3.04-.1-.15-.26-.5-.4-.77-.59-3.19-2.34-1.66-5.34-1.07-8.15.2-.95.68-1.82-.32-2.83-.82,1.5-1.57,2.88-2.51,4.62-.35-3.28.1-6.02,1.65-8.36,1.45-2.21,3.27-4.2,5.02-6.2.51-.58,1.34-.9,2.04-1.3.94-.53,1.78-.41,2.76.14,1.14.65,2.47.95,3.68,1.49.52.23,1.21.6,1.35,1.05,1.24,3.98,2.47,7.98,3.51,12.01.45,1.78-.62,3.19-1.53,4.77-1.64,2.83-3.97,4.89-6.24,7.08-.2.19-.37.46-.6.54-.42.14-.88.15-1.32.22,0-.44-.21-1.09,0-1.3,1.88-1.84.61-4.43,1.93-6.37-.23-.14-.46-.27-.69-.4h0Z"/>
      <path class="cls-2" d="M251.1,164.18s0,0,0,0c.21.29.62.38.94.21,1.49-.8,2.98-1.63,4.45-2.48.14-.08.24-.2.31-.34,1.05-2.35,2.11-4.69,3.22-7.01,2.13-4.46,3.2-9.06,2.64-14.02-.13-1.16-.56-1.79-1.48-2.5-1.23-.95-2.23-2.14-3.08-3.43-.77-1.17-1.42-1.16-2.4-.32-4.84,4.14-8.46,9.04-9.55,15.47-.46,2.71-.8,5.51.65,8.03,1.28,2.22,2.79,4.32,4.3,6.4Z"/>
      <path class="cls-2" d="M532.89,294.72c3.45.75,6.91,1.48,10.36,2.25,1.39.31,2.76.66,4.14,1,1.45.36,1.83,1.07.83,2.16-1.46,1.59-2.97,3.27-4.8,4.34-2.67,1.57-5.62,2.69-8.49,3.9-4.1,1.72-8.51,1.91-12.85,2.32-.88.08-1.92-.56-2.74-1.1-.76-.5-1.24-1.4-1.97-1.95-1.94-1.47-1.68-3.59-1.75-5.6-.02-.43.44-1.1.85-1.28,3.95-1.81,7.9-3.65,11.95-5.23,1.31-.51,2.92-.29,4.39-.4.03-.13.07-.26.1-.39h0Z"/>
      <path class="cls-2" d="M266.76,248.69c.49.17.89.36,1.31.43,1.23.2,2.52.25,1.67,2.15-.13.29.29,1.05.66,1.32,1.15.83,2.33,1.66,3.62,2.24,1.06.47,2.28.59,3.63.91-.38,1-.53,2.33-1.25,3.12-2.07,2.28-3.88,4.9-6.89,6.15-.3.13-.6.25-.89.39-1.35.64-2.67,1.36-4.05,1.9-.86.34-1.82.47-2.75.57-.24.03-.75-.42-.76-.65-.02-1.39.04-2.78.14-4.16.13-1.97-.36-2.6-2.34-2.7-1.03-.05-2.08.08-3.12.06-.92-.02-1.89.02-2.75-.24-1.71-.51-2.17-2.14-.96-3.47,1.62-1.77,2.92-3.69,3.46-6.04.19-.83.07-1.74.36-2.52.39-1.06.77-2.49,1.61-2.95,3.15-1.74,6.67-1.97,10.19-1.56,1.61.18,1.98,1.48.89,2.69-.51.57-1.06,1.09-1.57,1.65-.1.11-.09.3-.18.7h0Z"/>
      <path class="cls-2" d="M42.47,75.79c-.73-.1-1.21-.16-1.78-.23,0-1.43.11-2.86-.04-4.25-.09-.79-.5-1.61-.97-2.26-.73-.99-1.14-1.85-.59-3.14,1.25-2.89,2.73-5.59,5.05-7.77,1.27-1.2,2.33-1.12,2.64.52.8,4.31,3.85,7.52,5.24,11.55,2.5,7.27,1.42,13.72-3.5,19.56-1.19,1.42-2.46,2.78-3.81,4.05-1.47,1.36-2.24,1.2-2.86-.65-.46-1.37-.64-2.84-.85-4.28-.19-1.29-.26-2.6-.39-3.9-.32-3.18.3-6.19,1.88-9.17h0Z"/>
      <path class="cls-2" d="M73.05,233.29c1.15-.88,2.22-1.9,3.46-2.61,4.3-2.49,8.96-3.7,13.95-3.54.11,0,.24-.03.33.02.83.52,1.65,1.05,2.47,1.58-.35.35-.68.71-1.02,1.06-.27.28-.48.47-.65.6-.39.32-.42.37-.42.39h0c.02.32,12.65-.81,13.4,1.7.33,1.09-1.59,2.97-2.94,4.28-.69.68-1.28,1.12-1.51,1.3-1.62,1.26-4,2.6-11.27,6.27-2.81,1.42-6.05,2.01-9.12,2.88-.6.17-1.33-.12-2-.19l-.48-.74c.92-.68,1.85-1.35,2.74-2.06,1.57-1.26,1.56-1.27-.3-2.41.21-.89.3-1.96-.29-2.59-1.41-1.51-5.33.98-6.65-.37-.53-.55-.69-1.78.59-4.66-.09-.3-.18-.59-.28-.89h0Z"/>
      <path class="cls-2" d="M50.46,170.84c-.97-.25-1.69-.36-2.34-.62-1.01-.4-1.56.03-1.86.92-.19.57-.18,1.19-.36,1.77-.16.51-.33,1.27-.69,1.43-2.04.84-2.5,2.74-3.26,4.47-.1.23-.33.42-.64.78-.93-.9-1.82-1.75-2.69-2.63-1.11-1.13-2.26-2.22-3.26-3.43-.64-.78-1.29-1.7-1.5-2.65-.74-3.46-1.34-6.94-1.9-10.43-.1-.65.02-1.54.41-2.01,1.85-2.25,3.57-4.7,5.82-6.49,2.43-1.94,4.16-1.33,6.16,1.11,3.01,3.67,4.37,8.01,5.21,12.58.28,1.55.54,3.11.9,5.23h0Z"/>
      <path class="cls-2" d="M225.08,287.08h3.83c-.64.79-.9,1.34-1.33,1.58-1.37.76-2.83,1.36-4.22,2.1-.61.33-1.13.84-1.68,1.27,0,.21.02.43.03.64-.63-.38-1.26-.76-1.91-1.16-1.63,1.36-1.61,1.33-3.47-.24-.28-.24-.92-.19-1.35-.08-1.07.3-1.4-.1-1.38-1.13.05-2.29-.17-2.48-2.53-2.85-2.58-.4-5.31-.37-7.51-2.05-.47-.36-1.01-1.25-.88-1.69.92-2.94.76-6.28,2.91-8.77.82-.96,1.85-1.92,2.99-2.39,3.74-1.54,7.53-.83,11.22.34,1.42.45,1.49,1.14.55,2.52-1.59,2.33-1.56,2.29.67,4.08,1.72,1.39,3.4,2.85,4.99,4.39.3.29.25,1.17.07,1.67-.19.51-.74.89-1.13,1.32.04.14.09.29.13.43h0Z"/>
      <path class="cls-2" d="M373.15,112.15c.69-2.57.03-4.46-4.51-3.43.16-1.31.18-2.54.47-3.72,1.24-5.23,4.29-9.14,8.66-12.25,2.34-1.66,4.3-3.87,6.55-5.95.91.93,1.75.77,2.43-.49.17-.31.63-.46.95-.68.16.38.48.76.46,1.12-.11,2.35-.3,4.69-.45,7.04-.08,1.3-.14,2.6-.21,4.08.73-.04,1.31-.1,1.88-.1.37,0,.98-.04,1.07.14,1.01,2.16,2.13.85,3.25.16.21-.13.44-.23.91-.04-1.12,1.05-2.21,2.14-3.35,3.15-2.75,2.44-5.49,4.87-8.28,7.25-2.08,1.77-4.43,2.88-7.29,2.83-.79-.02-1.6.55-2.54.9h0Z"/>
      <path class="cls-2" d="M255.4,185.81c-.13-.02-.26-.03-.39-.05-.75-.09-1.06-1.03-.49-1.54.2-.18.4-.32.61-.4,1.66-.64,3.36-1.41,5.1-1.55,3.13-.25,5.77-1.27,8.02-3.45.85-.82,4.45-.78,5.1.14.45.64.61,1.81.34,2.55-.88,2.43-1.76,4.94-3.12,7.12-2.1,3.36-4.52,6.54-6.96,9.68-1.67,2.15-4.42,2.48-6.8,3.34-.69.25-1.81-.08-1.39-1.5.17-.57.17-1.18.19-1.9.01-.44-.3-.83-.74-.9-2.42-.41-4.84-.82-7.28-1.23-.41-.07-.73-.41-.74-.83-.04-1.72,1.18-3.68,2.8-4.03,2.58-.56,4.41-2.29,6.27-3.96,0,0,0,0,0,0,.54-.49.19-1.4-.53-1.49h0Z"/>
      <path class="cls-2" d="M613.25,299.84c0,1.43-.1,2.86.03,4.28.11,1.23-.42,1.71-1.5,2.1-4.91,1.82-9.98,2.88-15.15,3.52-.41.05-.98-.1-1.27-.37-2.3-2.19-4.6-4.39-6.81-6.68-1.68-1.74-1.58-2.6.65-3.7,3-1.47,6.25-2.42,9.16-4.04,3.67-2.04,7.29-2.94,11.36-1.48,1.08.39,2.78.05,3.3.72.59.76.18,2.3.19,3.51.01.71,0,1.43,0,2.14h.04Z"/>
      <path class="cls-2" d="M313.79,79.29c.62-1.73,1.11-3.79,2.06-5.61,1.78-3.45,3.77-6.79,5.79-10.11.32-.53,1.22-.89,1.9-.96.37-.04.97.59,1.22,1.05,1.37,2.61,2.73,5.24,3.95,7.92.33.72.46,1.74.24,2.49-.91,3.04-1.08,6.11-.93,9.26.06,1.16-.29,2.5-.89,3.49-1.54,2.52-3.32,4.89-5.04,7.3-.75,1.05-1.58.94-2.29-.09-2.39-3.44-4.02-7.23-5.17-11.23-.3-1.05-.51-2.13-.83-3.51h0Z"/>
      <path class="cls-2" d="M341.19,150.13c-1.42-2.25-.6-4.3.04-6.47.55-1.87,1.38-4.31.64-5.76-1.66-3.25.4-5.25,1.58-7.54,2.94-5.72,7.55-9.87,12.98-13.18.5-.3,1.03-.54,1.8-.76-1.27,1.78-.78,3.33.23,4.89.26.4.34,1.05.26,1.54-1.55,9.17-5.77,17.02-11.93,23.9-1.54,1.72-3.5,2.73-5.6,3.38h0Z"/>
      <path class="cls-2" d="M21.73,249.81c1.1-.7,2.21-1.41,3.61-2.3-3.02-.16-5.71-.3-8.8-.46.79-1.44,1.51-2.61,2.08-3.84.27-.58.52-1.4.32-1.93-.6-1.62-.52-2.2,1.18-2.75,2.06-.67,4.16-1.39,6.29-1.63,6.5-.74,13.03-1.31,19.56-1.85,1.34-.11,2.73.12,4.07.32.56.08,1.07.5,1.61.76-.3.6-.45,1.42-.94,1.76-1.69,1.2-3.41,2.39-5.27,3.29-5.79,2.82-11.61,5.6-17.51,8.19-1.81.79-3.91.91-5.88,1.34l-.32-.87h0Z"/>
      <path class="cls-2" d="M587.92,148.61c1.83,3.74,3.95,7.02,5.07,10.6,1.4,4.45,2.19,9.13,2.85,13.77.5,3.48-2.4,6.46-5.46,7.4-.57.17-1.66-.18-2.03-.67-3.28-4.19-6.79-8.43-6.68-14.09.12-6.05,1.68-11.78,6.25-17.01Z"/>
      <path class="cls-2" d="M39.91,42.65c.2-.63.38-1.27.61-1.9.26-.74.66-1.44.83-2.2.24-1.05.72-1.52,1.7-.87.85.57,1.6,1.27,2.63,2.11.61-.69,1.36-1.44,1.97-2.28,2.5-3.44,4.13-7.31,5.53-11.28.8-2.25.32-3.19-1.88-3.83-3.58-1.04-4.55-4.78-2.11-7.61,1.13-1.32,2.49-2.16,3.88-3.12,1.75-1.22,3.01-3.15,4.47-4.79.32-.36.58-.78,1.06-1.44.5.64,1.05,1.09,1.29,1.67,1.85,4.53,1.96,9.27,1.36,14.03-.36,2.85-.76,5.73-1.57,8.47-1.12,3.81-3.33,7.07-6.12,9.91-.88.9-1.75,1.8-2.6,2.73-1.35,1.49-3.9,1.26-4.93-.46-.94-1.59-2.47-1.74-3.77-.43-.58.58-1.26,1.07-1.89,1.6-.15-.1-.29-.2-.44-.31h0ZM58.36,20.99c1.35-2.68,1.43-6.05,1.21-9.48-1.06,1.4-2.22,2.56-2.92,3.95-.95,1.87-1.55,3.92-2.35,6,1.5-.17,2.55-.3,4.06-.47Z"/>
      <path class="cls-2" d="M455.97,122.29c-2.45,6.72-2.44,13.51-3.41,20.14-.62,4.22-3.16,7.42-5.77,10.52-1.59,1.9-3.48,3.55-5.28,5.27-.37.36-.9.55-1.8,1.07.07-1.16.06-1.92.16-2.67.55-4.33,1.13-8.66,1.71-12.98.33-2.44.55-4.9,1.03-7.32,1.28-6.45,5.63-10.45,11.13-13.43.58-.31,1.3-.36,2.24-.61h0Z"/>
      <path class="cls-2" d="M94.07,122.57c-.17,1.79-.3,3.58-.51,5.37-.31,2.57-2.59,2.77-4.36,3.63-1.39.67-2.68,1.53-3.99,2.35-.64.4-1.21.92-1.83,1.36-.8.56-1.32.21-2.13-.27-2.16-1.29-2.54-3.18-2.57-5.41,0-.69-.49-1.42-.88-2.07-1.26-2.12-1.16-2.88.54-4.56.46-.46.72-1.17.98-1.8.45-1.07.92-2.14,1.23-3.24.71-2.49,2.81-3.79,4.53-5.4,3-2.81,3.83-2.55,6.33.78,2.12,2.83,2.54,5.94,2.66,9.26h0Z"/>
      <path class="cls-2" d="M613.08,267.84c-3.76,1.75-7.47,3.58-11.28,5.23-2.76,1.19-5.62,2.17-8.46,3.19-5.59,1.99-11.26,1.93-16.97.62-.25-.06-.49-.18-1.07-.4,1-.74,1.85-1.29,2.6-1.95,2.15-1.87,4.55-3.55,6.32-5.73,2.45-3.03,5.62-3.82,9.12-3.9,3.49-.08,6.99.18,10.49.3,1.59.05,3.18.1,4.76.2.54.03,1.43.07,1.54.34.51,1.35,1.61,1.49,2.85,1.48.03.21.06.42.08.63h0Z"/>
      <path class="cls-2" d="M286.04,178.05c.18-1.83-.66-2.54-2.51-2.13.05-.73-.08-1.48.17-2.06,1.02-2.44,2.3-4.78,3.22-7.25,1.16-3.11,3.56-5.25,5.85-7.34,3.91-3.57,8.36-6.45,13.35-8.4.55-.21,1.21-.39,1.76-.27.87.18,1.88.44,2.43,1.03.27.3-.24,1.49-.61,2.16-2.84,5.1-6.77,9.32-10.96,13.32-2.72,2.6-5.36,5.29-8.09,7.87-1.05.99-2.25,1.83-3.42,2.7-.27.2-.67.22-1.18.38h0Z"/>
      <path class="cls-2" d="M593.88,117.96c5.94,8.17,12.41,24.42,9.64,30.87-8.61-.32-13.67-8.57-13.93-15.51-.17-4.37.61-8.49,2.51-12.4.49-1,1.15-1.92,1.78-2.96Z"/>
      <path class="cls-2" d="M252.33,91.55c-1.59-3.77-1.04-7.36-.35-11,1.11-5.87,4.37-10.71,7.32-15.7.46-.78,1.19-1.44,1.91-2.02.94-.76,1.96-.8,3.03-.08,1.82,1.22,3.71,2.34,5.51,3.58.37.25.71.91.65,1.32-.15,1-.38,2.06-.88,2.93-4.49,7.89-10.7,14.39-17.18,20.97h0Z"/>
      <path class="cls-2" d="M225.95,99.86c1.18,2.52,1.72,4.9,1.73,7.35.01,6.26-2.6,11.55-6.37,16.35-1.91,2.44-3.84,4.86-5.85,7.21-.88,1.03-1.93,1.92-2.99,2.78-.89.73-1.74.46-2.01-.63-.26-1.04-.47-2.21-.27-3.23.97-4.78,2.73-9.28,5.09-13.57.62-1.13,1.1-2.44,1.23-3.71.3-3,2.28-5.06,3.94-7.22,1.47-1.91,3.47-3.42,5.5-5.35h0Z"/>
      <path class="cls-2" d="M486.84,89.62c-.47,5.77-.91,11.55-1.42,17.32-.18,2.07-.5,4.12-.79,6.18-.07.47-.17,1.01-.45,1.38-2.36,3.06-4.77,6.09-7.21,9.19-.55-1.22-1.11-2.48-1.67-3.74-1.08-2.44-2.23-4.84-3.17-7.33-.27-.72-.21-1.85.18-2.5,2.99-4.96,6.02-9.9,9.19-14.74,1.39-2.12,3.15-4,4.74-5.99.2.08.4.15.6.22Z"/>
      <path class="cls-2" d="M529.39,15.39c-.43-1.57-.74-2.7-1.1-4.01-4.32,1.49-6.12,5.67-9.78,8.32.31-3.51.53-6.65.87-9.77.2-1.9.49-3.81.93-5.67.16-.67.76-1.57,1.35-1.76,4.06-1.29,6.68-4.21,9.05-7.51,1.05-1.47,2.2-2.88,3.34-4.27.31-.38.8-.62,1.21-.92.3.49.85.97.86,1.47.08,2.66.02,5.32.02,7.98,0,4.16-1.11,8.02-3.31,11.52-.97,1.54-2.17,2.93-3.43,4.61h0Z"/>
      <path class="cls-2" d="M216.04,198.74c1.72-.64,3.41-1.27,5.22-1.95.38-.14.44-.68.09-.87-.02-.01-.03-.02-.05-.02-.46-.18-.93-.35-1.4-.52-.31-.12-.42-.5-.21-.76.35-.45.7-.9,1.15-1.17,1.95-1.17,3.98-2.19,5.96-3.31.39-.22.96-.63.95-.93-.01-.43-.43-.92-.79-1.23-.42-.36-.88-.66-1.39-.99-.34-.22-.28-.74.1-.87,6.64-2.35,13.17-3.99,20.04-4.49.38-.03.65.39.46.73-3.56,6.3-7.93,11.77-14.64,14.89-4.98,2.32-12.17,3.34-15.46,2.44-.45-.12-.47-.76-.03-.93h0Z"/>
      <path class="cls-2" d="M209.64,142.63c.2.8.57,1.6.57,2.39-.02,11.62-1.42,22.98-6.55,33.61-.74,1.53-3.62,1.84-4.62.46-3.12-4.3-3.35-4.39-1.49-9.38,2.25-6.04,4.94-11.92,7.47-17.86,1.09-2.57,2.24-5.12,3.37-7.68.23-.53.51-1.03.76-1.55.17,0,.34,0,.5,0h0Z"/>
      <path class="cls-2" d="M598.58,91.38c.49.64,1,1.27,1.46,1.93,3.03,4.35,6.16,8.65,9.04,13.11,1.01,1.57,1.46,3.53,2.05,5.35.13.41-.1,1.26-.42,1.43-2.23,1.24-3.97,2.89-4.79,5.1-1.94-.74-3.75-1.4-5.53-2.14-.42-.17-.86-.52-1.07-.9-3.61-6.37-4.8-13.07-2.61-20.2.39-1.25.81-2.49,1.22-3.73.22.01.45.03.67.04Z"/>
      <path class="cls-2" d="M278.4,68.91c-.15-.12-.43-.22-.48-.38-1.07-3.81-3.25-7.51-1.15-11.65,1.09-2.15,2.19-4.3,3.12-6.51.94-2.23,2.58-3.75,4.48-5.1,1.71-1.21,2.41-1.12,3.65.62.75,1.05,1.45,1.1,2.45.28.48-.39,1.44-.75,1.83-.52.53.31,1.08,1.25.99,1.83-.35,2.37-.64,4.82-1.53,7.01-1.15,2.83-10.64,12.67-13.36,14.43h0Z"/>
      <path class="cls-2" d="M367.24,217.42c-2.84,3.6-5.64,7.12-9.63,9.79-4.21,2.8-8.77,3.42-13.87,3.85.31-.63.4-1.16.71-1.41,1.27-1.05,2.63-1.99,3.93-3.02.88-.7,1.85-1.36,2.5-2.24.3-.41.2-1.56-.16-1.95-1.18-1.26-1.18-2.39-.09-3.6,1.02-1.14,1.56-2.33.95-3.88-.14-.34,0-.9.21-1.25,1.91-3.29,4.71-5.54,8.31-6.73.53-.17,1.52-.13,1.74.18.33.48.22,1.3.17,1.96-.02.35-.26.72-.48,1.03-1.4,1.96-1.38,2.11.53,3.45,2.31,1.62,2.33,1.97.51,4.11-.28.33-.12,1.02-.17,1.54.48-.12,1.02-.13,1.43-.37,1-.59,1.93-1.28,2.89-1.93.18.16.36.32.53.48h0Z"/>
      <path class="cls-2" d="M320.76,234.27c1.01-1.3,1.9-2.74,3.07-3.88,2.17-2.13,4.02-4.36,4.78-7.44.25-1.01,1.32-1.97,2.25-2.64,1.59-1.15,2.21-2.76,2.79-4.48.16-.47.61-.85.97-1.23.14-.15.47-.15.56-.31.96-1.58,2.47-1.21,3.91-1.16,1,.04,1.63.14,2.24,1.31.6,1.13,1.77,2.49,3.65,2.12.5-.1,1.08.23,1.63.37-.2.5-.33,1.05-.61,1.5-.43.69-1.05,1.28-1.41,2-2.08,4.18-5.65,7.02-8.98,10.08-.35.32-.85.52-1.32.64-3.16.84-6.33,1.63-9.49,2.46-.89.23-1.76.55-2.65.8-.38.1-.77.15-1.16.22-.08-.12-.15-.23-.23-.34Z"/>
      <path class="cls-2" d="M300.67,120.34c-3.16-3.58-6.73-6.96-7.55-12.07-.14-.88-.1-1.93.26-2.71,2.5-5.29,5.76-10.07,9.95-14.19.11-.11.29-.14.75-.36.39,1.96.85,3.79,1.11,5.66.47,3.36.84,6.73,1.19,10.11.08.73.07,1.58-.23,2.22-1.76,3.76-3.61,7.48-5.49,11.35h0Z"/>
      <path class="cls-2" d="M153.51,220.53c.71-.59,1.02-.97,1.43-1.16,1.47-.69,1.24-1.55.33-2.52-.3-.32-.64-.6-.92-.94-1.1-1.3-.97-2.88.5-3.73,1.93-1.12,3.94-2.12,5.98-3.01,2.75-1.19,5.48-2.62,8.36-3.19,2.85-.57,5.91-1.22,8.82.27,1.39.71,1.84,2.02.62,3.03-3.47,2.88-6.81,5.98-10.61,8.35-3.71,2.31-8.03,3.32-12.51,3.15-.51-.02-1.03-.13-2-.26h0Z"/>
      <path class="cls-2" d="M399.19,57.53c.85-9.97,3.7-18.96,10.93-26.03.26.07.52.15.78.22-.16.79-.18,1.65-.51,2.36-.41.88-1.17,1.59-1.62,2.46-.55,1.07-.13,1.69,1.09,1.58.74-.07,1.66-.15,2.14-.61,1.41-1.35,3.09-1.35,4.84-1.44.82-.04,1.62-.37,2.75-.64-1.97,3.49-3.83,6.81-5.71,10.11-.63,1.09-1.44,2.09-1.97,3.22-2.53,5.38-7.83,6.7-12.72,8.77h0Z"/>
      <path class="cls-2" d="M419.05-3.14c.58,1.95.61,4.27,1.79,5.39,1.19,1.14,3.51,1.1,5.34,1.57-1.04,7.7-10.4,19.27-16.96,20.67,1.28-6.65,2.3-13.28,3.9-19.76.82-3.3,3.48-5.71,5.92-7.87h0Z"/>
      <path class="cls-2" d="M569.84,267.98c-1.99,1.99-4.27,3.54-6.95,4.54-1.37.51-2.68,1.25-4.09,1.63-1.97.52-4.03.7-6,1.2-.97.25-1.86.85-2.73,1.38-5.22,3.13-12.99,5.62-18.98,4.48-.8-2.88,2.91-4,2.73-6.8,3.94-2.12,7.93-4.47,12.54-5.23,1.67-.27,3.62-.24,5.15.38,5.66,2.31,10.91,1.42,16.07-1.37.62-.34,1.33-.53,2-.79l.26.58h0Z"/>
      <path class="cls-2" d="M569.86,293.38c6.12-7.06,20.65-9.97,30.75-6.7-1.62,1.58-2.9,3.37-4.62,4.4-4.38,2.63-9.08,4.6-14.21,5.28-4.32.58-8.42.14-11.92-2.99h0Z"/>
      <path class="cls-2" d="M353.79,186.97c.91,3.23,1.79,5.83.42,8.58-.29.58-.45,1.23-.64,1.86-.21.73-.15,1.75-.62,2.17-1.15,1.02-2.45,2.26-3.86,2.52-3.63.65-7.36.86-11.05,1.16-.73.06-1.49-.29-2.24-.41-.35-.06-.74-.06-1.09.01-1.56.33-3.1.73-4.67,1.02-.38.07-.82-.15-1.21-.24.08-2.19,2.66-5.32,4.82-6.13,3.29-1.24,6.53-2.59,9.8-3.88.25-.1.53-.2.79-.2,2.15-.05,3.6-1.3,5.04-2.73,1.28-1.27,2.78-2.32,4.5-3.72h0Z"/>
      <path class="cls-2" d="M322.86,39.26c.52-2.16,1.03-4.31,1.55-6.46.45-1.87,2.01-2.52,3.55-3.06.48-.17,1.42.07,1.72.46,2.04,2.63,4.17,5.23,5.83,8.09.82,1.42.75,3.38.98,5.11.05.35-.27.81-.54,1.12-1.89,2.2-3.8,4.38-5.73,6.55-1.74,1.95-2.43,1.9-3.87-.19-2.4-3.47-3.02-7.44-3.49-11.61Z"/>
      <path class="cls-2" d="M245.28,84.85c.75,3.23,1.63,6.43,2.18,9.69.14.85-.65,1.94-1.2,2.79-4,6.23-9.17,11.35-15.36,15.69.25-.98.52-1.96.76-2.94,1.05-4.3,2.17-8.59,3.09-12.92.36-1.68.96-3.05,2.17-4.28,2.24-2.25,4.38-4.61,6.53-6.95.36-.4.59-.92.87-1.38.32.1.64.19.96.29h0Z"/>
      <path class="cls-2" d="M344.82,113.69c.98-1.85,2-3.69,2.94-5.56,2.93-5.86,5.84-11.74,8.75-17.62.1-.19.12-.47.27-.57,1.8-1.22,3.61-2.42,5.62-3.75,1.08,5.08,2.6,9.94.04,14.73-.81,1.52-2.11,2.95-3.51,3.97-4.2,3.06-8.55,5.9-12.85,8.82-.26.17-.6.22-.91.32l-.34-.33h0Z"/>
      <path class="cls-2" d="M589.16,4.69c2.33,1.14,4.17,2.71,5.57,4.8,1.4,2.09,2.78,4.19,4.24,6.23.64.9.78,1.72-.05,2.47-3.59,3.28-6.47,7.09-8.96,11.84-1.84-4.6-3.55-8.83-5.21-13.08-.15-.37-.1-.9.04-1.27,1.41-3.61,2.86-7.21,4.37-10.99h0Z"/>
      <path class="cls-2" d="M36.79,126.66c-1.19-.92-2.18-1.69-3.35-2.6-.22.48-.45,1.1-.77,1.67-.71,1.27-1.39,2.58-2.25,3.74-.57.77-1.37.84-1.93-.2-1.83-3.38-2.84-6.82-1.02-10.56.26-.54.41-1.13.62-1.69,1.08-2.84,2.19-5.66,3.22-8.52.17-.48.2-1.24-.06-1.6-.75-1.03-.27-1.45.62-1.85,2.53-1.12,3.11-1.15,4.35,1.74.96,2.25,1.53,4.8,1.64,7.24.16,3.58-.24,7.19-.44,10.78-.03.51-.33,1-.63,1.84h0Z"/>
      <path class="cls-2" d="M26.73,176.67c1.7.89,1.65.88,1.81-.69.03-.32.7-.9.93-.83,1,.27,2.33.45,2.86,1.17,2.33,3.14,4.56,6.41,5.42,10.31.22,1.01-.29,2.2-.6,3.27-.07.23-.68.42-1.06.44-.8.03-1.6-.12-2.39-.1-.99.03-1.48.44-2.14,1.41-1.26,1.84-2.16,4.14-4.45,5.19-1.23.57-2.61.08-2.99-1.27-.37-1.31-.43-2.69-1.9-3.52-.47-.27-.6-1.51-.55-2.28.13-2.24,1.32-3.89,3.36-4.8,2.42-1.07,3.57-4.1,2.4-6.51-.25-.52-.42-1.08-.7-1.79h0Z"/>
      <path class="cls-2" d="M167.81,313.5c.96-1.96,1.75-3.91,2.82-5.69,1.28-2.14,3.61-2.76,5.84-3.2,1.8-.36,3.68-.38,5.53-.41.56,0,1.13.45,1.7.69-.33.47-.64.96-1.01,1.4-.17.2-.51.26-.67.46-.51.67-.97,1.37-1.45,2.05.64.35,1.31.66,1.91,1.06.62.41,1.44.79,1.73,1.4.6,1.23,1.17,2.32,2.62,2.7.12.03.22.92.1,1-2.68,1.5-5.3,3.17-8.14,4.3-1.92.76-4.18,1.02-5.95-.88-.29-.31-.94-.26-1.38-.47-.37-.17-1.01-.52-.98-.71.32-2.18-1.39-2.85-2.67-3.7h0Z"/>
      <path class="cls-2" d="M223.97,137.35c.25,1.3.46,2.41.67,3.52.44,2.37.8,4.76,1.35,7.1,1.18,5.03-.97,8.98-3.96,12.66-1.42,1.75-3,3.36-4.51,5.04-.15-.09-.3-.18-.46-.27,0-2.38.14-4.76-.03-7.12-.23-3.16-.73-6.31-1.08-9.46-.05-.47-.06-1,.1-1.44,1.45-4.09,3.9-7.43,7.92-10.03h0Z"/>
      <path class="cls-2" d="M375.02,83.56c.17-.8.18-1.68.55-2.38,1.32-2.58,1.85-5.28,2.22-8.15.48-3.78.78-7.81,3.9-10.7.24-.22.5-.41.81-.67.85.54,1.67,1.06,2.61,1.66-.4.54-.87.96-1.06,1.48-.18.5-.3,1.23-.06,1.64.49.83,1.17,1.61,1.92,2.21.25.2,1.22-.03,1.45-.35,1.23-1.75,2.22-3.67,3.52-5.36.59-.76,1.7-1.11,2.89-1.84-.17,1.02-.18,1.81-.44,2.52-1.07,2.99-2.05,6.02-3.38,8.9-.6,1.29-1.81,2.43-2.98,3.31-3.19,2.41-6.5,4.66-9.77,6.97-.53.38-1.09.71-1.64,1.06-.18-.1-.35-.19-.52-.29h0Z"/>
      <path class="cls-2" d="M136.18,63.28c1.34,3.78.26,12.18-1.92,13.8,0-1.72-.13-3.57.18-4.78.42-1.63.64-3.13.36-4.8-.23.8-.32,1.68-.72,2.38-.91,1.57-2.1,2.98-2.94,4.57-.89,1.7-1.82,3.28-1.34,5.57.29,1.38-1.02,3.19-1.84,4.68-.48.87-1.36,1.59-2.2,2.18-.56.39-1.44.7-2.03.53-.42-.12-.78-1.09-.83-1.7-.09-1.13-.08-2.15-1.58-1.88-1.27-4.25-.21-7.93,2.57-11.12.95-1.1,2.16-2,3.36-2.84,2.39-1.66,4.88-3.18,7.28-4.83.61-.42,1.04-1.1,1.65-1.77h0Z"/>
      <path class="cls-2" d="M240.06,288.37c-1.34-3.39,1.29-4.41,3.74-5.05,3.47-.91,7.04-1.4,10.6-1.95.36-.06.95.66,1.23,1.13.19.32.15.89.02,1.28-.68,1.88,0,3.09,1.65,4.07,1.01.6,1.03,1.56.04,2.27-1.3.94-1.99,2.25-2.86,3.54-.72,1.06-2.8,1.25-4.31,1.7-.52.15-1.15-.13-1.73-.08-1.24.09-2.05-.22-1.93-1.68.09-1.12-.55-1.73-1.55-2-1.11-.3-2.23-.56-3.35-.8-1.21-.26-2.12-.73-1.56-2.41h0Z"/>
      <path class="cls-2" d="M505.04,298.95c.27-1.36.43-2.5.72-3.61,1.07-4.14,3.44-5.82,7.73-6.42,2.43-.34,4.83-1.35,7.08-2.39,2.31-1.07,6.29-.6,7.57,1.59.45.76-.05,2.22-.41,3.25-.17.5-.97.89-1.56,1.12-4.33,1.69-8.63,3.49-13.04,4.92-2.51.82-5.23,1.02-8.09,1.54h0Z"/>
      <path class="cls-2" d="M576.79,175.66c1.64,5.12,2.9,9.88,4.7,14.43,1.38,3.49-.9,5.92-1.8,8.75-.15.47-1.7.97-2.34.73-1.99-.73-3.88-1.77-5.74-2.8-.36-.2-.66-.88-.66-1.34,0-6.96,2.03-13.32,5.83-19.77Z"/>
      <path class="cls-2" d="M136.2,342.66c-2.57-.47-5.6-.87-8.52-1.64-1-.26-1.88-1.35-2.57-2.25-.22-.29.18-1.5.61-1.75,1.94-1.15,3.53-2.71,6.3-2.46,4.08.36,8.24-.12,12.36-.26,1.55-.05,4.99,2.04,5.64,3.46.5,1.09.33,2-.88,2.37-2.18.67-4.38,1.33-6.62,1.78-1.91.39-3.88.47-6.33.74h0Z"/>
      <path class="cls-2" d="M578.74,64.96c5.12,4.59,9.04,9.68,11.7,15.72.5,1.15.44,2.15-.12,3.27-.86,1.7-1.56,3.47-2.42,5.43-2-1.32-3.9-2.55-5.78-3.83-.25-.17-.44-.5-.53-.8-1.98-6.36-2.75-12.88-2.84-19.79Z"/>
      <path class="cls-2" d="M237.69,171.29c.35-.14.59-.47.61-.85h0c.26-4.65-.38-9-2.97-13.03-.82-1.28-1.51-1.31-2.18-.45-1.68,2.18-4.1,3.98-4.55,6.88-.48,3.04-.77,6.12-1.12,9.41-.07.71.58,1.26,1.26,1.08,3.04-.82,6.01-1.85,8.93-3.04h0Z"/>
      <path class="cls-2" d="M559.36,290.73c-2.93-.26-5.96-.34-8.44-2.2-.87-.66-1.35-1.85-1.99-2.8-.06-.09-.05-.21-.08-.32-.2-.68-.4-1.36-.6-2.04.94-.23,1.9-.7,2.82-.63,1.39.11,2.73.64,4.11.93,1.36.29,2.73.53,4.1.74.65.1,1.31.08,1.97.1,4.19.15,8.04-.5,10.67-4.32.34-.49,1.38-.9,1.9-.74.49.15,1.09,1.19,1,1.72-.64,3.61-.35,4.08-3.84,5.21-.51.16-1.05.4-1.43.77-2.85,2.75-6.44,3.31-10.18,3.58h0Z"/>
      <path class="cls-2" d="M400.78,192.6c-2.61-6.1,3.12-18.31,15.11-20.24-.18.52-.33.96-.49,1.38-.79,2.09-1.69,4.16-2.37,6.29-.95,2.97-2.08,5.7-4.94,7.46-2.52,1.54-4.86,3.38-7.31,5.1h0Z"/>
      <path class="cls-2" d="M340.46,67.68c-1.01-2.91-2.11-5.54-2.83-8.27-.8-3.04,1.16-6.9,4.06-8.33,1.71-.84,3.5-1.53,5.3-2.17,1.57-.56,2.24-.09,2.45,1.57.2,1.57.35,3.15.46,4.73.03.4-.08.9-.32,1.2-2.93,3.67-5.9,7.31-9.11,11.27h0Z"/>
      <path class="cls-2" d="M577.76,88.94c.81,1.25,1.59,2.28,2.17,3.41,2.39,4.67,4.73,9.36,7.02,14.07.17.35-.01,1.1-.3,1.4-1.14,1.17-2.39,2.24-3.94,3.66-2.06-2.18-4-4.24-5.94-6.3-.11-.11-.21-.28-.23-.42-.54-5.22-1.11-10.45,1.22-15.81Z"/>
      <path class="cls-2" d="M390.39,36.52c.25,2.42,1.37,3.98,4.09,3.59.52,5.98-5.3,14.97-10.36,16.19-1.43-7.67.08-14.44,6.26-19.77h0Z"/>
      <path class="cls-2" d="M195,319.2s.21-.4.12-.73c-.62-2.24.84-3.02,2.5-3.69.3-.12.74-.17.89-.39,2.24-3.55,5.57-1.71,8.51-1.69.4,0,.91.55,1.19.96.9,1.37,3.13,2.42,1.23,4.6-.11.12.41.8.71,1.37-.42.23-.75.53-1.14.6-2.46.45-4.71,1.24-6.66,2.92-.45.39-1.72.32-2.28-.04-1.68-1.09-3.2-2.43-5.07-3.9h0Z"/>
      <path class="cls-2" d="M28.47,77.25c-.16,3.21-.03,5.87-.51,8.42-.37,1.91-1.48,3.7-2.36,5.49-.4.8-1.01,1.51-1.58,2.22-.25.32-.65.72-.97.71-.31-.02-.67-.47-.86-.82-.23-.42-.36-.92-.45-1.39-.99-4.98-.77-9.89,1.18-14.6.66-1.59,1.71-3.04,2.76-4.42.84-1.1,1.92-.9,2.27.45.38,1.45.41,3,.53,3.94Z"/>
      <path class="cls-2" d="M429.66,18.35c.41-3.85.81-7.48,1.18-11.11.19-1.86,1.1-3.27,2.59-4.35.98-.7,1.87-1.53,2.88-2.17,1.29-.81,2.65-.23,2.61,1.18-.14,5.49-.34,11-5.67,14.5-1.07.7-1.65,2.23-3.6,1.95h0Z"/>
      <path class="cls-2" d="M165.68,8.26c.74,3.97-.53,6.97-2.41,9.85-.99,1.53-1.7,3.25-2.62,4.83-.38.64-.91,1.27-1.52,1.67-1.52,1-3.18.39-3.8-1.29-.4-1.07-.88-2.13-1.1-3.25-.14-.67-.05-1.55.29-2.13,1.03-1.76,2.24-3.32,4.16-4.39,1.73-.96,3.14-2.5,4.72-3.75.66-.52,1.39-.95,2.28-1.55h0Z"/>
      <path class="cls-2" d="M571.7,162.72c-.76-.64-1.5-1.02-1.88-1.63-1.03-1.67-2.13-3.36-2.79-5.19-.48-1.36-.5-2.98-.38-4.45.26-2.98.76-5.94,1.16-8.91.15-.09.31-.17.47-.25.45.49,1.06.9,1.34,1.47,1.64,3.28,3.23,6.59,4.75,9.92.26.57.33,1.4.12,1.98-.78,2.21-1.71,4.38-2.79,7.06Z"/>
      <path class="cls-2" d="M85.83,161.64c1.89.89,1.69,2.64,1.72,4.13.02,1.12-.45,2.24-.66,3.37-.25,1.32-.87,2.2-2.33,2.31-1.19.1-1.63.73-1.57,1.99.1,1.83-.18,3.55-1.91,4.78-.63.45-.84,1.48-1.3,2.2-.3.47-.75,1.24-1.06,1.21-.61-.07-1.44-.46-1.7-.97-.65-1.3-1.28-2.7-1.41-4.12-.09-.92.45-2.26,1.18-2.82,2.64-2.03,4.19-4.79,5.84-7.55.92-1.53,2.05-2.93,3.2-4.55h0Z"/>
      <path class="cls-2" d="M438.28,124.13c1.97-8.63,5.08-16.01,13.89-19.2.2-.08.4-.25.6-.24.61.02,1.22.1,1.82.16-.1.56-.05,1.23-.34,1.66-.88,1.32-1.81,2.62-2.87,3.79-3.5,3.91-7.05,7.79-10.62,11.64-.68.73-1.51,1.33-2.48,2.17h0Z"/>
      <path class="cls-2" d="M574.92,115.87c1.29,2.74,2.53,5.5,3.9,8.2,1.41,2.79,1.55,5.4-.34,8.09-.9,1.28-1.38,2.84-2.26,4.72-1.86-3.58-5.16-6.06-3.76-10.63,1.01-3.3,1.42-6.79,2.1-10.2.12-.06.24-.12.36-.18h0Z"/>
      <path class="cls-2" d="M32.83,25.51c-.16-.87-.28-1.47-.39-2.07-.14-.03-.27-.05-.4-.08-.2.78-.4,1.56-.6,2.34-.68,2.74-1.28,5.5-2.08,8.2-.2.66-1,1.16-1.6,1.81-2.21-5.1.6-18.38,4.52-22.25,2.34,2.92,2.81,9.67.56,12.05h0Z"/>
      <path class="cls-2" d="M64.31,186.74c.26.13.67.22.89.46,1.82,2,2.5,4.42,2.3,7.08-.02.33-.55.92-.73.88-1.32-.29-1.4.66-1.88,1.49-1.22,2.1-2.63,4.11-4.04,6.1-.7,1-1.54.81-2.03-.22-.77-1.62-1.52-3.26-2.06-4.95-.41-1.31.57-2.03,1.61-2.7,2.23-1.43,4.51-2.88,5.44-5.57.27-.78.31-1.65.47-2.57h0Z"/>
      <path class="cls-2" d="M600.6,222.98c-.35-2.97-.83-5.83-.93-8.71-.03-.8.89-1.94,1.68-2.42,1.89-1.15,3.93-2.06,5.96-2.96.85-.37,1.82-.46,2.96-.73-1.2,4.93-4.97,12.55-9.67,14.82h0Z"/>
      <path class="cls-2" d="M97.8,158.07c-.16.05-.33.07-.48.14-2.67,1.14-3.48.63-3.32-2.26.06-1.16.45-2.31.62-3.47.05-.38-.13-.79-.24-1.18-.32-1.08.24-2.04,1.15-1.86,1.44.29,2.08-.65,2.99-1.23.32-.2.56-.62.89-.7.76-.19,1.57-.24,2.35-.34-.05.71.09,1.5-.19,2.1-.75,1.6-1.64,3.13-2.55,4.64-.85,1.4-.66,2.19.81,2.74,1.42.53,1.19,1.79.9,2.75-.29.95-1.03,1.79-1.66,2.6-.23.29-.9.61-1.07.49-.34-.24-.68-.78-.66-1.18.05-1.06.3-2.11.48-3.23h0Z"/>
      <path class="cls-2" d="M580.54,58c-3.58-1.61-5.68-5.06-5.22-8.48.29-2.14.78-4.25,1.23-6.61,1.05.79,1.91,1.33,2.64,2,2.54,2.32,3.65,5.06,2.47,8.51-.49,1.43-.72,2.94-1.12,4.57h0Z"/>
      <path class="cls-2" d="M133.56,215.6c1-.79,2-1.59,3.05-2.42-.28-.18-.61-.4-1.06-.7,1.42-1.95,3.58-2.34,5.56-2.89,3.44-.96,6.95-1.69,10.43-2.51.35-.08.71-.1,1.37.18-.76.91-1.38,2.03-2.31,2.71-3.71,2.68-7.95,4.18-12.34,5.3-1.44.37-2.86.77-4.29,1.16-.13-.28-.26-.55-.4-.83h0Z"/>
      <path class="cls-2" d="M511.46,65.98c.28,2.19.27,4.08-.86,5.97-1.75,2.94-3.24,6.03-4.84,9.06-.16,0-.33-.02-.49-.03-.2-3-.4-6-.57-9-.02-.28.19-.65.41-.84,2.05-1.7,4.12-3.36,6.34-5.16h0Z"/>
      <path class="cls-2" d="M213.51,185.84c-1.66,1.9-3.14,4.04-5.05,5.67-2.56,2.18-5.36,4.13-8.26,5.83-1.75,1.02-3.89,1.39-5.87,2-.32.1-.72-.06-1.57-.15.55-.72.8-1.33,1.25-1.59,3.58-2.02,7.26-3.88,10.8-5.98,2.06-1.23,4.23-2.32,5.56-4.63.46-.79,2.2-.83,3.15-1.14Z"/>
      <path class="cls-2" d="M556.4,176.74c1.07-4.38,2.14-8.82,3.27-13.26.09-.34.5-.59.76-.88.28.36.77.7.81,1.08.28,2.72.48,5.44.67,8.17.03.35-.08.77-.26,1.08-.88,1.51-1.74,3.04-2.75,4.46-.32.45-1.06.69-1.65.81-.14.03-.46-.78-.85-1.46h0Z"/>
      <path class="cls-2" d="M593.4,198.82c.29-.8.54-2.01,1.14-3.01.51-.86,1.4-.92,1.81.24.99,2.82,2.03,5.63,2.83,8.51.42,1.52-.22,1.99-2.48,2.39-1.27.23-2.25.12-2.42-1.51-.21-2.05-.54-4.1-.88-6.62h0Z"/>
      <path class="cls-2" d="M116.97,132.59c.1-.28.27-.63.33-1,.22-1.26.26-2.57.63-3.78.81-2.63,1.15-5.59,3.98-7.07.45-.24,1.26-.3,1.64-.04.34.23.49,1.05.39,1.53-.51,2.46-1.06,4.88-3.1,6.71-.67.6-.83,1.82-1.13,2.79-.21.67-.15,1.44-.44,2.06-.22.46-.81.76-1.23,1.13-.3-.42-.64-.81-.88-1.27-.15-.28-.12-.64-.19-1.07h0Z"/>
      <path class="cls-2" d="M105.27,219.7c7.2-4.62,15.34-6.64,23.32-9.1.1.26.2.52.29.79-7.48,3.82-15.45,6.34-23.61,8.32h0Z"/>
      <path class="cls-2" d="M38.63,50.09c1.34,3.11-.66,12.53-2.84,14.62-2.01-1.21-1.8-3.75-1.13-5.88.69-2.23,1.53-4.42,2.42-6.58.29-.71.91-1.28,1.56-2.16h0Z"/>
      <path class="cls-2" d="M98.17,325.33c1.45-1.49,2.7-2.41,4.36-2.72,1.5-.28,2.98-.68,4.48-.88.53-.07,1.39.12,1.65.49.79,1.17,1.37,2.48,2.15,3.98-4.05-.05-8.15.13-12.63-.87h0Z"/>
      <path class="cls-2" d="M530.56,44.25c-2.18-2.36-.64-9.46,4.59-12.23.83,1.87-1.92,9.28-4.59,12.23Z"/>
      <path class="cls-2" d="M375.82,219.83c-.51-.94-.95-1.47-1.07-2.07-.08-.41.18-.98.45-1.36,1.17-1.63,2.36-3.24,3.62-4.79.68-.83,1.63-1.28,2.56-.41.95.88.24,1.58-.39,2.36-.98,1.23-1.73,2.64-2.7,3.89-.61.78-1.42,1.39-2.47,2.39h0Z"/>
      <path class="cls-2" d="M81.46,223.15c-4.22,3.33-8.8,5.11-13.63,6.73.72-1.99,11.02-7.18,13.63-6.73Z"/>
      <path class="cls-2" d="M105.11,330.51c1.94-1.49,4.21-1.03,6.28-1.35.76-.12,1.64.04,2.35.34.29.12.56,1.19.36,1.45-1.19,1.54-7.21,1.66-8.58.25-.15-.15-.22-.36-.41-.69h0Z"/>
      <path class="cls-2" d="M379.9,208.26c-.46-.41-1.26-.83-1.59-1.48-.5-1,.52-1.2,1.2-1.52.89-.43,1.72-1.07,2.65-1.28,1.03-.23,1.97.49,1.89,1.5-.06.71-.8,1.52-1.45,1.98-.63.44-1.53.48-2.69.8h0Z"/>
      <path class="cls-2" d="M22.32,42.16c.28,3.99-.2,7.88-1.42,11.68-.19.03-.38.05-.57.08-.2-.49-.64-1.01-.57-1.45.55-3.47,1.2-6.93,1.82-10.39.25.03.49.06.74.09Z"/>
      <path class="cls-2" d="M105.59,137.81c.93.78,1.6,4.27,1.1,5.74-.42,1.21-2.18,2.33-3.74,2.31.89-2.7,1.77-5.38,2.65-8.05h0Z"/>
      <path class="cls-2" d="M37.56-.92c-.44,3.31-.89,6.63-1.38,10.26-1.34-2.87-.76-8.7.84-10.33.18.02.36.04.54.07Z"/>
      <path class="cls-2" d="M42.66,219.05c-.43-1.33-.93-2.64-1.21-4-.04-.18.95-.76,1.51-.84.37-.05,1.18.5,1.16.71-.13,1.36-.44,2.7-.7,4.05-.25.02-.51.05-.76.07Z"/>
      <path class="cls-2" d="M135.62,327.55c1.85-1.09,3.51-.98,7.45.26-2.44,1.79-4.75.68-7.45-.26Z"/>
    </g>
  </g>
</svg>