<?xml version="1.0" encoding="UTF-8"?>
<svg id="LOUD_Pattern_03_C" data-name="LOUD Pattern 03 C" xmlns="http://www.w3.org/2000/svg" version="1.1" viewBox="0 0 1000 1525.1">
  <defs>
    <style>
      .cls-1 {
        fill: #13ff00;
        stroke-width: 0px;
      }
    </style>
  </defs>
  <polyline class="cls-1" points="996.5 121.7 965.4 106.7 965 109.6 974.5 130.9 962.6 125 962 128.5 972.2 153.8 959.1 147.1 958.5 151.4 969.5 182.1 954.9 174.4 954 179.7 966 218 949.5 208.9 948.4 215.7 961.4 264.9 942.5 253.9 941 262.9 955.2 328.8 932.9 315 930.9 327.6 946.2 421.1 919.2 402.8 916.3 421.7 932.1 566.2 897.8 539.8 892.9 571 906.7 827.2 859.8 783.1 850.2 844.5 847.5 1442.3 908.2 1525.1 1000 991.9 999.7 914.6 944.5 862.8 998.6 654.6 998.5 617.2 959.4 587.1 997.9 478 997.8 456.1 967.5 435.5 997.5 369.3 997.4 354.9 972.7 339.6 997.2 295.7 997.2 285.5 976.3 273.4 997 242.6 997 235 978.9 225.1 996.8 202.4 996.8 196.5 980.9 188.1 996.7 170.9 996.7 166.3 982.4 159 996.6 145.7 996.6 141.9 983.7 135.5 996.5 124.9 996.5 121.7"/>
  <polyline class="cls-1" points="953.8 101.1 924.3 86.8 923.2 89.3 929 108.3 917.7 102.7 916.4 105.8 922.1 128.3 909.8 122 908.3 125.6 913.8 152.8 900.1 145.5 898.2 150.1 903.3 183.5 887.9 175.1 885.6 180.9 889.7 223.3 872.2 213.3 869.1 220.9 871.3 276.9 851.2 264.5 846.9 274.9 845.4 352.9 821.5 336.7 815.2 352 805.7 469 776.4 446.4 766.3 470.9 737.6 668.3 699.8 632.7 681.1 678 592.5 1094.6 635 1152.6 799.5 794.6 812 738.2 768 696.8 855.8 541.6 862.3 512.4 829 486.9 887 401.5 890.9 383.7 864.2 365.6 906.8 312.5 909.4 300.5 887.1 286.7 920.5 250.9 922.4 242.3 903.3 231.2 930.5 205.8 932 199.3 915.2 190.1 938.2 171.3 939.3 166.2 924.4 158.4 944.3 144.1 945.2 140 931.7 133.2 949.2 122 949.9 118.7 937.7 112.7 953.2 103.9 953.8 101.1"/>
  <polyline class="cls-1" points="913.2 81.4 885 67.8 883.5 70 885.8 86.9 875.1 81.6 873.2 84.2 874.9 104.2 863.2 98.2 861 101.4 861.6 125.2 848.8 118.5 846 122.4 845 151.5 830.7 143.7 827.2 148.6 823.7 185.2 807.7 175.9 803.1 182.3 795.4 230 777.1 218.6 770.9 227.3 756 292.4 734.7 278 725.8 290.4 697.2 385.4 671.8 365.9 657.9 385.2 600.1 539 568.9 509.7 544.6 543.6 408.3 843.4 439.7 886.2 640.5 638 661 596.2 625 562.4 734.6 445.8 745.9 422.9 717.2 400.9 789.3 334.2 796.4 319.8 772.7 303.7 825.1 261.3 829.9 251.3 809.7 238.8 850.3 209.9 853.8 202.6 836.2 192.4 869 171.7 871.7 166.2 856.1 157.6 883.4 142.2 885.5 137.9 871.6 130.5 894.9 118.8 896.6 115.3 884 108.8 904.2 99.7 905.7 96.8 894.1 91 912 83.8 913.2 81.4"/>
  <polyline class="cls-1" points="874.5 62.7 847.6 49.7 845.6 51.5 844.8 66.6 834.7 61.6 832.2 63.8 830.3 81.4 819.2 75.8 816.3 78.5 812.6 99.4 800.6 93.1 797 96.4 790.7 121.7 777.4 114.4 772.9 118.5 762.9 150 748.1 141.4 742.3 146.8 726.3 187.2 709.6 176.9 701.9 184.1 676.1 238.4 657 225.4 646.1 235.5 602.9 312.9 580.7 295.8 564.2 311.1 486.1 431.8 459.9 407.2 432.1 432.9 268.9 653.3 293 686.2 511.3 510.9 536.8 479.4 506.9 451.3 630.6 363.6 645.3 345.5 620.4 326.4 702.8 274.6 712.3 262.9 691.1 248.5 751.1 214.9 757.8 206.7 739.4 195.3 785.8 172.2 790.7 166.1 774.5 156.7 811.8 140 815.6 135.4 801.1 127.4 832.1 115 835.1 111.3 822 104.4 848.4 94.9 850.8 91.9 838.8 85.8 861.7 78.5 863.7 76 852.7 70.5 872.8 64.8 874.5 62.7"/>
  <polyline class="cls-1" points="837.6 44.8 811.9 32.4 809.4 34 805.9 47.3 796.2 42.5 793.3 44.4 788.1 59.9 777.6 54.6 774.1 56.9 766.5 75.1 755.2 69.1 750.9 71.9 740.1 93.9 727.6 87 722.3 90.5 706.7 117.5 692.9 109.5 686.1 114 663.2 148.2 647.9 138.8 638.9 144.6 604.4 189.8 587.1 178.2 574.6 186.3 520.2 249.3 500.7 234.3 482.2 246.2 390 341.4 367.7 320.5 337.7 340 159.8 504.5 178.9 530.6 404.3 405.5 432.9 381.8 407.6 358 540.4 292.3 557.5 278 535.6 261.2 625.5 221.3 636.9 211.9 617.8 199 683.8 172.8 692 166 675.1 155.6 726.3 137.4 732.4 132.4 717.4 123.7 758.6 110.6 763.3 106.6 749.7 99.2 783.9 89.4 787.7 86.3 775.4 79.8 804.4 72.4 807.5 69.8 796.2 64.1 821.3 58.4 823.8 56.2 813.4 51 835.4 46.6 837.6 44.8"/>
  <polyline class="cls-1" points="802.3 27.7 777.7 15.8 774.8 17.2 768.8 28.9 759.6 24.4 756.2 26 748.1 39.5 738.1 34.5 734.1 36.4 723.1 52.2 712.4 46.6 707.5 48.9 692.7 67.8 681 61.4 674.9 64.3 654.5 87.3 641.7 79.9 634 83.5 605.3 112.4 591.2 103.7 581.2 108.4 539.5 146 523.9 135.4 510.2 141.9 447.2 193.1 429.8 179.8 410 189.1 307.9 264.3 288.7 246.3 257.5 261 72.1 384.9 87.6 406.1 314.2 316.9 344.6 298.8 323 278.5 461.3 229.7 480.2 218.5 460.8 203.6 556.1 173.5 569 165.9 551.8 154.2 622.4 134.3 631.7 128.7 616.3 119.2 671.3 105.3 678.4 101.1 664.4 93 708.9 83 714.4 79.8 701.7 72.8 738.6 65.4 743.1 62.8 731.5 56.6 762.8 51.1 766.5 48.9 755.7 43.4 782.8 39.2 785.9 37.4 775.9 32.5 799.7 29.2 802.3 27.7"/>
  <polyline class="cls-1" points="768.5 11.4 745.1 0 741.8 1.1 733.5 11.4 724.7 7.1 720.9 8.4 710.1 20.2 700.7 15.4 696.2 16.9 682.2 30.6 672 25.3 666.6 27.2 648.2 43.4 637.2 37.4 630.6 39.7 605.9 59.2 594.1 52.4 585.7 55.3 552 79.5 539 71.4 528.1 75.2 480.7 106.2 466.5 96.6 451.9 101.7 382.2 143.1 366.6 131.2 345.8 138.4 236.9 197.6 220.3 181.9 188.4 193 0 286.6 12.9 304.1 237.3 241.2 268.8 227.5 250.1 209.9 391.4 174.5 411.6 165.8 394.3 152.5 493.5 130.3 507.5 124.3 491.8 113.7 566.1 99 576.3 94.5 562.1 85.7 620.3 75.5 628.2 72.1 615.2 64.6 662.4 57.3 668.6 54.6 656.7 48.1 696 42.8 701 40.6 690 34.8 723.4 30.9 727.6 29.1 717.4 23.9 746.2 21 749.7 19.5 740.3 14.8 765.6 12.7 768.5 11.4"/>
</svg>