<?xml version="1.0" encoding="UTF-8"?>
<svg id="LOUD_Pattern_03_B" data-name="LOUD Pattern 03 B" xmlns="http://www.w3.org/2000/svg" version="1.1" viewBox="0 0 1000 1068.9">
  <defs>
    <style>
      .cls-1 {
        fill: #13ff00;
        stroke-width: 0px;
      }
    </style>
  </defs>
  <polyline class="cls-1" points="52.8 20.9 13.6 0 .4 270.9 6.9 315.6 47.8 334.5 31.6 486.6 35.6 514.2 67.7 527.7 51.6 625 54.3 643.8 80.7 654.1 65.5 721.4 67.5 734.9 89.9 743.3 75.7 792.3 77.2 802.5 96.8 809.5 83.6 846.7 84.8 854.7 102.1 860.7 89.8 889.7 90.8 896.2 106.3 901.4 94.9 924.6 95.6 929.9 109.7 934.5 99 953.5 99.7 957.9 112.5 962.1 102.5 977.8 103.1 981.5 134.6 991.5 134.5 987.9 121.8 965 133.8 968.9 133.7 964.7 119.8 937.8 133 942.2 132.8 937.1 117.4 905.1 131.9 910 131.7 903.9 114.5 865 130.7 870.5 130.4 862.9 110.9 814.5 129.1 821 128.8 811.3 106.1 749.2 127 757 126.6 744.2 99.7 661.5 124.3 671.1 123.7 653.5 90.7 537.3 120.4 549.7 119.5 523.9 76.9 347.9 114.4 365.2 113.1 323.9 52.8 20.9"/>
  <polyline class="cls-1" points="245.6 123.7 209.8 104.6 154.8 343.5 154.2 383.5 192.5 401.1 152.3 537.8 152 562.9 182.4 575.7 150.7 664.2 150.5 681.3 175.8 691.2 149.6 752.8 149.4 765.3 171.1 773.3 148.7 818.5 148.6 828 167.5 834.7 148.1 869 148 876.5 164.8 882.3 147.6 909.2 147.5 915.2 162.6 920.3 147.2 941.9 147.1 946.8 160.8 951.3 146.8 968.9 146.8 973.1 159.4 977.1 146.5 991.8 146.5 995.3 177.4 1005 177.8 1001.7 168.4 980.1 180.2 983.8 180.7 979.9 170.7 954.6 183.6 958.8 184.2 954.1 173.5 923.9 187.6 928.7 188.4 922.9 176.9 886.5 192.6 891.9 193.5 884.8 181.1 839.5 198.8 845.8 200 836.8 186.6 779.1 206.8 786.6 208.4 774.8 193.9 698.3 217.4 707.5 219.6 691.3 204.2 584.8 232.3 596.6 235.5 573.1 219.7 413.7 254.8 429.9 259.8 392.8 245.6 123.7"/>
  <polyline class="cls-1" points="422.1 217.8 389.3 200.3 298.7 411.1 292.1 447 327.8 463.5 266.5 586.3 262.3 609.1 291.2 621.2 245.4 701.5 242.5 717.3 266.7 726.7 230.4 783 228.3 794.6 249.2 802.3 219.3 843.7 217.7 852.5 236 859.1 210.7 890.7 209.4 897.7 225.7 903.3 203.8 928.1 202.8 933.8 217.5 938.7 198.2 958.7 197.4 963.3 210.8 967.7 193.6 984 192.9 987.9 205.2 991.9 189.7 1005.4 189.1 1008.8 219.3 1018.3 220.3 1015.2 214.1 994.7 225.6 998.5 226.8 994.7 220.5 970.9 233 975 234.4 970.6 228.1 942.3 241.9 946.9 243.6 941.5 237.5 907.3 252.7 912.6 254.8 906 249.2 863.8 266.3 869.8 268.9 861.5 264.2 807.9 283.6 815.1 287 804.2 284.1 733.5 306.6 742.3 311.3 727.5 311.9 629.9 338.6 641.1 345.4 619.8 353.4 475.3 386.3 490.4 396.8 457.3 422.1 217.8"/>
  <polyline class="cls-1" points="584.3 304.3 554.1 288.2 433.1 474.4 421.3 506.6 454.8 522 374.8 632.3 367.1 653 394.6 664.5 336 737.3 330.6 751.7 353.9 760.8 308.3 812.1 304.4 822.8 324.5 830.2 287.6 868.2 284.6 876.4 302.3 882.7 271.5 911.8 269.1 918.2 285 923.7 258.6 946.6 256.7 951.8 271 956.6 248.1 975.1 246.5 979.4 259.6 983.7 239.3 998.8 238 1002.4 250 1006.3 231.9 1018.9 230.8 1022 260.4 1031.4 261.9 1028.4 258.7 1009.1 270 1012.8 271.8 1009.3 269 986.8 281.3 990.8 283.4 986.7 281.4 960.1 294.8 964.6 297.3 959.7 296.4 927.6 311.2 932.7 314.4 926.6 315.1 887.2 331.6 893.1 335.6 885.4 339 835.6 357.7 842.5 362.8 832.5 370.5 767.3 392.1 775.7 399.1 762.2 414.3 672.7 439.7 683.3 449.6 664 478.8 533.1 509.7 547.3 525.1 517.6 584.3 304.3"/>
  <polyline class="cls-1" points="733.8 384 706 369.1 559.2 533.6 542.6 562.5 574.2 577 477.6 675.9 466.8 694.7 492.9 705.6 422.7 771.5 415.2 784.7 437.4 793.4 383.3 840.2 377.7 850 397.1 857.2 353.7 891.9 349.4 899.4 366.6 905.6 330.5 932.2 327.1 938.2 342.5 943.5 312 964.6 309.2 969.5 323.2 974.2 296.8 991.1 294.5 995.2 307.3 999.4 284.1 1013.3 282.1 1016.7 293.9 1020.5 273.3 1032 271.7 1034.9 300.7 1044.1 302.8 1041.4 302.4 1023.2 313.5 1026.7 315.8 1023.5 316.5 1002.4 328.5 1006.3 331.3 1002.5 333.3 977.5 346.3 981.9 349.7 977.3 353.6 947.4 368.1 952.3 372.2 946.7 378.9 910 394.9 915.7 400.2 908.5 411.1 862.3 429.1 869 435.9 859.8 453.4 799.7 474.1 807.7 483.2 795.4 511.6 713.4 535.8 723.6 548.7 706.1 596.8 587.4 625.8 600.8 645.4 574.2 733.8 384"/>
  <polyline class="cls-1" points="872.1 457.7 846.3 444 677.4 589.2 656.8 615.1 686.6 628.8 575.2 717.3 561.6 734.4 586.5 744.8 505.9 804.3 496.2 816.4 517.6 824.7 455.7 867.2 448.5 876.2 467.2 883.2 417.7 914.8 412.1 921.8 428.8 927.7 387.9 952.1 383.5 957.7 398.5 962.8 364 982.1 360.4 986.6 374 991.2 344.3 1006.8 341.3 1010.5 353.9 1014.6 327.9 1027.4 325.4 1030.6 336.9 1034.3 313.9 1044.9 311.8 1047.6 340.3 1056.7 342.8 1054.1 345.2 1037 356.1 1040.5 359 1037.4 362.9 1017.6 374.6 1021.4 378 1017.9 383.9 994.5 396.6 998.8 400.8 994.5 409.3 966.6 423.3 971.4 428.4 966.2 440.8 932 456.3 937.5 462.7 931 480.7 888.2 498.1 894.6 506.4 886.2 533 830.7 552.8 838.5 563.8 827.2 604.4 752.3 627.4 761.9 642.9 746 707.8 638.6 735.2 651.2 758.5 627.4 872.1 457.7"/>
  <polyline class="cls-1" points="1000.4 526.1 976.4 513.4 788.7 641.5 764.4 664.7 792.5 677.6 668.2 756.8 652.1 772.2 675.8 782.1 585.6 835.8 574.1 846.8 594.6 854.8 525.5 893.3 516.8 901.5 534.9 908.3 479.7 937 473 943.5 489.2 949.2 443.7 971.5 438.4 976.6 453 981.6 414.7 999.2 410.4 1003.4 423.7 1007.9 390.8 1022.1 387.2 1025.6 399.4 1029.6 370.8 1041.2 367.7 1044.2 379 1047.8 353.7 1057.5 351.1 1060.1 379.1 1068.9 382 1066.5 387.2 1050.5 397.8 1053.9 401.2 1051.1 408.2 1032.5 419.7 1036.2 423.8 1032.9 433.3 1011.1 445.7 1015.3 450.6 1011.3 463.5 985.2 477.1 989.9 483.1 985.1 500.8 953.4 515.9 958.7 523.4 952.7 547.9 913.1 564.8 919.3 574.4 911.6 609.4 860.6 628.5 868 641.3 857.7 692.8 789.3 714.8 798.5 732.6 784.1 812.6 686.9 838.5 698.8 865.1 677.5 1000.4 526.1"/>
</svg>