<?xml version="1.0" encoding="UTF-8"?>
<svg id="Layer_1" data-name="Layer 1" xmlns="http://www.w3.org/2000/svg" version="1.1" viewBox="0 0 1196 1462.5">
  <defs>
    <style>
      .cls-1 {
        fill: #00ff3b;
        stroke-width: 0px;
      }
    </style>
  </defs>
  <path class="cls-1" d="M416.91,51.43l-28.9,29.38-3.4-.07-10.53,31.03,6.73.33,30.11-30.82-3.55-.08,9.53-29.79M452.6,21.95l-28.58,29.11h-3.52l-9.58,30.24,6.94.15,29.77-30.52h-3.67l8.61-28.97"/>
  <path class="cls-1" d="M373.71,117.65l-30.3,30.98-3.39-.3-12.11,34.02,6.68.81,31.63-32.55-3.54-.31,11.04-32.65ZM410.79,86.97l-29.96,30.7-3.5-.2-11.1,33.13,6.92.59,31.26-32.24-3.65-.2,10.05-31.79"/>
  <path class="cls-1" d="M327.23,188.9l-31.84,32.75-3.35-.55-13.93,37.39,6.61,1.35,33.29-34.48-3.5-.58,12.74-35.89M365.8,156.94l-31.48,32.45-3.49-.45-12.82,36.42,6.87,1.12,32.9-34.12-3.64-.46,11.67-34.96"/>
  <path class="cls-1" d="M277.05,265.81l-33.54,34.72-3.3-.84-16,41.19,6.51,1.98,35.13-36.62-3.47-.89,14.69-39.54M317.24,232.45l-33.15,34.37-3.44-.73-14.8,40.15,6.79,1.74,34.7-36.24-3.6-.76,13.52-38.52"/>
  <path class="cls-1" d="M264.68,314.16l-34.98,36.53-3.39-1.07-17.08,44.38,6.67,2.45,36.68-38.58-3.55-1.12,15.65-42.58Z"/>
  <path class="cls-1" d="M222.74,349.06l-35.41,36.9-3.24-1.19-18.39,45.52,6.36,2.73,37.16-38.99-3.4-1.26,16.92-43.7Z"/>
  <path class="cls-1" d="M207.61,402.93l-37.03,38.91-3.3-1.44-19.71,49.21,6.49,3.29,38.91-41.23-3.47-1.54,18.11-47.21Z"/>
  <path class="cls-1" d="M163.75,439.49l-37.49,39.32-3.16-1.6-21.13,50.48,6.16,3.58,39.42-41.67-3.32-1.68,19.51-48.45"/>
  <path class="cls-1" d="M145.41,499.64l-39.31,41.62-3.21-1.92-22.74,54.77,6.26,4.26,41.39-44.18-3.37-2.02,20.97-52.54Z"/>
  <path class="cls-1" d="M99.46,538.04l-39.82,42.07-3.02-2.07-24.31,56.16,5.9,4.61,41.95-44.7-3.19-2.18,22.51-53.9"/>
  <path class="cls-1" d="M77.37,605.43l-41.85,44.66-3.06-2.46-26.29,61.19,5.95,5.45,44.18-47.55-3.24-2.59,24.31-58.69Z"/>
  <path class="cls-1" d="M564.74,18.5l-30.45,31.92-4.23.03-7.42,33.21-4.3-.1,7.44-32.73-30.82,32.24-4.1-.08,31.1-32.5-4.16.03,7.22-30.8-29.81,30.93-3.97.02-8.25,32.15-4.03-.08,8.26-31.69-30.16,31.23-3.85-.08,30.42-31.48-3.9.02,7.96-29.86-29.18,29.99-3.73.02-8.96,31.15-3.78-.07,8.94-30.72-29.51,30.27-3.62-.07-9.96,32.02,7.15.35,30.78-31.79,7.39.16-9.33,33.08,7.63.38,31.48-32.83,7.87.17-8.56,34.2,8.13.41,32.2-33.94,8.39.18,31.79-33.59-4.43.03,6.34-31.79Z"/>
  <path class="cls-1" d="M523.23,89.93l-32.04,33.84-4.25-.23-9.02,36.76-4.31-.38,9.02-36.22-32.45,34.19-4.11-.35,32.73-34.45-4.16-.23,8.67-33.97-31.31,32.72-3.98-.21-9.83,35.46-4.02-.35,9.8-34.95-31.71,33.05-3.85-.33,31.99-33.31-3.9-.21,9.4-32.85-30.62,31.67-3.73-.2-10.51,34.25-3.78-.31,10.48-33.77-31,31.99-3.6-.31-11.6,35.21,7.12.86,32.39-33.66,7.37.64-10.99,36.48,7.62.91,33.15-34.81,7.88.69-10.24,37.84,8.15.99,33.96-36.07,8.44.73,33.51-35.67-4.46-.25,7.82-35.18Z"/>
  <path class="cls-1" d="M478.24,167.35l-33.81,35.99-4.25-.55-10.86,40.81-4.31-.71,10.82-40.2-34.24,36.37-4.11-.68,34.55-36.62-4.18-.53,10.36-37.59-33,34.72-3.97-.5-11.63,39.23-4.02-.66,11.58-38.65-33.41,35.08-3.83-.63,33.69-35.34-3.88-.48,11.07-36.24-32.24,33.54-3.7-.46-12.28,37.77-3.77-.61,12.21-37.23-32.6,33.87-3.59-.58-13.45,38.8,7.06,1.45,34.14-35.71,7.34,1.21-12.89,40.33,7.57,1.54,35-37.01,7.87,1.29-12.19,41.99,8.13,1.67,35.9-38.43,8.46,1.39,35.41-38.02-4.48-.56,9.52-39.06Z"/>
  <path class="cls-1" d="M429.3,251.61l-35.76,38.35-4.25-.89-12.99,45.44-4.3-1.09,12.92-44.75-36.24,38.78-4.08-1.04,36.55-39.06-4.16-.89,12.31-41.69-34.85,36.93-3.95-.83-13.71,43.52-4-1.01,13.63-42.88-35.29,37.33-3.8-.97,35.61-37.59-3.87-.83,12.95-40.04-33.97,35.61-3.68-.79-14.31,41.79-3.72-.96,14.21-41.14-34.4,35.97-3.54-.89-15.6,42.89,6.97,2.12,36.07-37.99,7.27,1.85-15.09,44.74,7.5,2.28,37.05-39.49,7.82,2.02-14.46,46.74,8.08,2.46,38.07-41.11,8.43,2.17,37.54-40.63-4.46-.96,11.48-43.47Z"/>
  <path class="cls-1" d="M299.11,323.27l-35.92,37.92-3.64-1.14-16.66,46.33,7.15,2.64,37.72-40.14-3.83-1.21,15.17-44.41Z"/>
  <path class="cls-1" d="M255.76,359.42l-36.38,38.32-3.49-1.27-18.06,47.57,6.84,2.93,38.22-40.57-3.67-1.36,16.54-45.62Z"/>
  <path class="cls-1" d="M241.45,415.73l-38.09,40.5-3.55-1.57-19.4,51.59,7.01,3.54,40.07-42.98-3.75-1.65,17.71-49.42Z"/>
  <path class="cls-1" d="M196.04,453.67l-38.6,40.95-3.39-1.72-20.93,52.94,6.64,3.87,40.63-43.46-3.58-1.82,19.22-50.76"/>
  <path class="cls-1" d="M178.43,516.79l-40.51,43.41-3.47-2.05-22.57,57.62,6.79,4.64,42.73-46.21-3.67-2.18,20.7-55.22Z"/>
  <path class="cls-1" d="M130.76,556.72l-41.08,43.9-3.27-2.23-24.27,59.14,6.38,4.99,43.34-46.74-3.47-2.36,22.34-56.69"/>
  <path class="cls-1" d="M109.23,627.73l-43.24,46.73-3.32-2.66-26.31,64.65,6.48,5.93,45.72-49.88-3.52-2.81,24.19-61.96Z"/>
  <path class="cls-1" d="M336.07,333.05l-36.9,39.41-3.92-1.22-16.14,48.46,7.73,2.84,38.8-41.79-4.13-1.29,14.56-46.41Z"/>
  <path class="cls-1" d="M291.2,370.56l-37.41,39.84-3.73-1.37-17.65,49.8,7.37,3.16,39.34-42.27-3.95-1.45,16.03-47.7Z"/>
  <path class="cls-1" d="M277.9,429.51l-39.19,42.2-3.85-1.68-18.97,54.16,7.58,3.85,41.31-44.89-4.08-1.78,17.2-51.85Z"/>
  <path class="cls-1" d="M230.84,468.95l-39.76,42.7-3.65-1.85-20.64,55.63,7.19,4.18,41.9-45.41-3.87-1.95,18.82-53.29"/>
  <path class="cls-1" d="M214.1,535.33l-41.79,45.37-3.75-2.23-22.31,60.77,7.37,5.04,44.15-48.41-3.98-2.36,20.31-58.18Z"/>
  <path class="cls-1" d="M164.6,576.91l-42.4,45.9-3.54-2.41-24.14,62.41,6.94,5.42,44.81-48.99-3.75-2.56,22.09-59.78"/>
  <path class="cls-1" d="M143.79,651.9l-44.71,49.01-3.62-2.89-26.24,68.51,7.07,6.46,47.36-52.43-3.85-3.07,23.99-65.58Z"/>
  <path class="cls-1" d="M375.88,343.56l-37.95,41.04-4.21-1.32-15.48,50.81,8.34,3.06,39.94-43.59-4.44-1.39,13.81-48.61Z"/>
  <path class="cls-1" d="M329.35,382.54l-38.47,41.51-4.05-1.49-17.1,52.23,7.98,3.42,40.5-44.12-4.25-1.57,15.38-49.98Z"/>
  <path class="cls-1" d="M317.29,444.4l-40.4,44.07-4.16-1.82-18.41,57.01,8.23,4.16,42.6-46.96-4.4-1.93,16.54-54.53Z"/>
  <path class="cls-1" d="M268.4,485.46l-40.98,44.6-3.97-2-20.22,58.61,7.82,4.54,43.26-47.54-4.2-2.12,18.29-56.08"/>
  <path class="cls-1" d="M252.78,555.42l-43.16,47.52-4.06-2.43-21.91,64.27,8.03,5.47,45.65-50.81-4.31-2.58,19.76-61.45Z"/>
  <path class="cls-1" d="M201.28,598.79l-43.8,48.1-3.85-2.63-23.91,66.06,7.57,5.92,46.38-51.45-4.08-2.79,21.71-63.18"/>
  <path class="cls-1" d="M181.42,678.24l-46.3,51.49-3.93-3.14-26.04,72.8,7.73,7.07,49.11-55.25-4.2-3.35,23.63-69.61Z"/>
  <path class="cls-1" d="M700.92,14.3l-32.49,35.34-5.2.02-4.05,36.9-5.3-.12,4.16-36.35-32.93,35.74-5.04-.1,33.21-36-5.07.03,4.18-33.97-31.79,34.14-4.83.02-5.37,35.57-4.92-.1,5.44-35.06-32.22,34.5-4.69-.1,32.48-34.75-4.73.02,5.34-32.83-31.1,32.98-4.53.03-6.48,34.35-4.59-.1,6.51-33.86-31.49,33.33-4.4-.08-7.67,35.41,8.72.43,32.91-35.13,9.01.2-6.64,36.7,9.35.48,33.69-36.42,9.65.21-5.44,38.1,10.06.5,34.5-37.77,10.38.21,33.99-37.34-5.47.03,2.84-35.16Z"/>
  <path class="cls-1" d="M660.87,93.54l-34.34,37.69-5.25-.28-5.63,41.29-5.37-.46,5.72-40.66-34.83,38.14-5.11-.45,35.15-38.42-5.14-.28,5.64-37.85-33.54,36.32-4.89-.28-6.96,39.67-4.97-.43,7.01-39.08-34.02,36.73-4.74-.41,34.32-37-4.78-.26,6.81-36.47-32.78,35.03-4.54-.25-8.08,38.17-4.63-.41,8.1-37.59-33.23,35.41-4.4-.38-9.38,39.33,8.76,1.06,34.78-37.41,9.06.78-8.34,40.91,9.42,1.14,35.66-38.86,9.75.84-7.14,42.63,10.16,1.22,36.57-40.42,10.52.91,35.99-39.95-5.54-.3,4.25-39.36Z"/>
  <path class="cls-1" d="M617.07,180.22l-36.4,40.37-5.32-.66-7.5,46.36-5.42-.89,7.57-45.65-36.96,40.85-5.14-.84,37.26-41.13-5.19-.64,7.35-42.37-35.51,38.8-4.92-.63-8.81,44.36-5.02-.83,8.86-43.69-36.04,39.23-4.74-.78,36.32-39.49-4.81-.61,8.53-40.65-34.63,37.34-4.58-.58-9.93,42.5-4.64-.76,9.91-41.87-35.11,37.74-4.4-.71-11.37,43.79,8.77,1.78,36.83-39.97,9.1,1.49-10.36,45.75,9.47,1.93,37.84-41.62,9.81,1.6-9.17,47.87,10.26,2.1,38.86-43.42,10.64,1.75,38.25-42.88-5.62-.71,5.95-44.23Z"/>
  <path class="cls-1" d="M568.95,275.46l-38.73,43.37-5.37-1.12-9.72,52.33-5.47-1.4,9.76-51.49-39.34,43.92-5.15-1.32,39.66-44.22-5.24-1.09,9.38-47.55-37.71,41.56-4.94-1.04-11.02,49.82-5.04-1.29,11.04-49.03-38.28,42.05-4.74-1.21,38.58-42.35-4.83-1.03,10.53-45.42-36.71,39.89-4.58-.96-12.1,47.54-4.64-1.19,12.06-46.79-37.23,40.35-4.4-1.12-13.68,48.94,8.74,2.66,39.14-42.85,9.1,2.33-12.74,51.34,9.47,2.88,40.3-44.74,9.85,2.53-11.57,53.98,10.31,3.14,41.47-46.83,10.72,2.74,40.79-46.25-5.68-1.19,7.98-49.88Z"/>
  <path class="cls-1" d="M418.82,354.93l-39.03,42.79-4.56-1.44-14.67,53.37,9.07,3.32,41.11-45.55-4.82-1.52,12.9-50.97Z"/>
  <path class="cls-1" d="M370.54,395.46l-39.61,43.31-4.36-1.6-16.41,54.92,8.66,3.7,41.74-46.12-4.63-1.7,14.61-52.51Z"/>
  <path class="cls-1" d="M359.95,460.53l-41.64,46.1-4.51-1.98-17.71,60.16,8.96,4.54,43.98-49.24-4.79-2.11,15.71-57.47Z"/>
  <path class="cls-1" d="M309.11,503.34l-42.27,46.66-4.3-2.18-19.65,61.89,8.51,4.96,44.68-49.87-4.56-2.31,17.6-59.17"/>
  <path class="cls-1" d="M294.87,577.28l-44.6,49.88-4.44-2.66-21.33,68.16,8.79,6,47.24-53.47-4.73-2.82,19.07-65.09Z"/>
  <path class="cls-1" d="M241.18,622.62l-45.31,50.51-4.2-2.88-23.5,70.12,8.28,6.46,48.03-54.2-4.48-3.06,21.17-66.99"/>
  <path class="cls-1" d="M222.54,707l-47.98,54.26-4.31-3.45-25.71,77.63,8.51,7.78,50.99-58.39-4.61-3.68,23.12-74.14Z"/>
  <path class="cls-1" d="M465.32,367.22l-40.15,44.71-4.96-1.55-13.63,56.19,9.86,3.62,42.35-47.72-5.24-1.65,11.76-53.6Z"/>
  <path class="cls-1" d="M415.15,409.47l-40.8,45.27-4.74-1.75-15.53,57.88,9.42,4.03,43.06-48.33-5.02-1.83,13.62-55.27Z"/>
  <path class="cls-1" d="M406.32,478.07l-42.94,48.31-4.92-2.15-16.77,63.65,9.78,4.96.02.02,45.42-51.77-5.24-2.3,14.66-60.72Z"/>
  <path class="cls-1" d="M353.39,522.79l-43.65,48.94-4.69-2.38-18.89,65.56,9.3,5.42,46.2-52.43-4.99-2.53,16.71-62.59"/>
  <path class="cls-1" d="M340.8,601.14l-46.12,52.48-4.86-2.89-20.55,72.52,9.63,6.58.02.02,48.94-56.44-5.19-3.09,18.13-69.17Z"/>
  <path class="cls-1" d="M284.79,648.63l-46.91,53.17-4.59-3.14-22.93,74.67,9.1,7.1,49.82-57.2-4.91-3.35,20.42-71.25Z"/>
  <path class="cls-1" d="M267.65,738.56l-49.77,57.34-4.76-3.8-25.15,83.08,9.4,8.61,53.01-61.9-5.09-4.08,22.36-79.24Z"/>
  <path class="cls-1" d="M515.83,380.57l-41.34,46.83-5.39-1.7-12.39,59.3,10.79,3.96,43.67-50.08-5.73-1.8,10.39-56.51Z"/>
  <path class="cls-1" d="M463.62,424.69l-42.02,47.42-5.17-1.9-14.44,61.15,10.29,4.39,44.43-50.74-5.49-2.02,12.39-58.31Z"/>
  <path class="cls-1" d="M456.91,497.19l-44.33,50.78-5.39-2.36-15.6,67.56,10.76,5.45,46.98-54.54-5.75-2.51,13.33-64.37Z"/>
  <path class="cls-1" d="M401.69,544l-45.09,51.45-5.14-2.59-17.91,69.64,10.23,5.95,47.82-55.29-5.47-2.78,15.58-66.39"/>
  <path class="cls-1" d="M391.16,627.3l-47.74,55.37-5.35-3.19-19.51,77.43,10.66,7.27,50.76-59.73-5.72-3.4,16.9-73.74Z"/>
  <path class="cls-1" d="M332.57,677.16l-48.59,56.13-5.06-3.45-22.12,79.79,10.05,7.85,51.72-60.57-5.42-3.7,19.43-76.04Z"/>
  <path class="cls-1" d="M317.37,773.36l-51.7,60.76-5.25-4.21-24.32,89.29,10.44,9.57,55.17-65.85-5.67-4.53,21.33-85.03Z"/>
  <path class="cls-1" d="M753.05,12.7l-33.21,36.63-5.58.03-2.56,38.3-5.7-.12,2.69-37.74-33.69,37.08-5.44-.12-4.03,39.61,10.87.55,35.29-39.26,11.22.23,34.77-38.78-5.9.03,1.27-36.45Z"/>
  <path class="cls-1" d="M713.88,94.93l-35.14,39.19-5.7-.31-4.08,43.06-5.82-.51,4.23-42.4-35.69,39.67-5.5-.48-5.72,44.5,11,1.34,37.49-42.12,11.4.97,36.9-41.59-6.01-.33,2.64-40.99Z"/>
  <path class="cls-1" d="M621.99,226.36l-37.94,42.6-5.57-.91-7.73,50.2,11.15,2.28,39.94-45.37-5.9-.96,6.05-47.82M670.89,185.22l-37.34,42.08-5.78-.73-5.92,48.58,11.57,1.9,39.28-44.79-6.11-.78,4.3-46.27"/>
  <path class="cls-1" d="M571.94,328.27l-40.46,45.93-5.62-1.44-10.16,56.89,11.25,3.42,42.71-49.11-5.97-1.52,8.25-54.2M623.48,284.78l-39.81,45.36-5.85-1.24-8.15,55.09,11.72,3.01,41.99-48.46-6.2-1.3,6.3-52.45Z"/>
  <path class="cls-1" d="M570.92,395.14l-42.6,49.12-5.9-1.85-10.82,62.77,11.81,4.35,45.08-52.69-6.3-1.97,8.73-59.73Z"/>
  <path class="cls-1" d="M516.46,441.28l-43.32,49.78-5.65-2.08-13.07,64.8,11.3,4.84,45.87-53.42-6.01-2.21,10.89-61.71Z"/>
  <path class="cls-1" d="M512.34,518.16l-45.78,53.49-5.93-2.61-14.11,71.94,11.86,6.02,48.61-57.62-6.35-2.78,11.7-68.44Z"/>
  <path class="cls-1" d="M454.61,567.25l-46.61,54.23-5.63-2.86-16.66,74.24,11.29,6.56,49.52-58.44-6.03-3.06,14.13-70.67Z"/>
  <path class="cls-1" d="M446.65,656.11l-49.47,58.57-5.92-3.52-18.16,82.98,11.83,8.08,52.71-63.42-6.34-3.78,15.35-78.92Z"/>
  <path class="cls-1" d="M385.21,708.57l-50.4,59.42-5.58-3.82-21.03,85.61,11.15,8.72,53.77-64.37-6.01-4.1,18.13-81.46"/>
  <path class="cls-1" d="M372.46,811.91l-53.75,64.61-5.87-4.69-23.18,96.4,11.68,10.69,57.52-70.31-6.31-5.04,19.91-91.66Z"/>
  <path class="cls-1" d="M935.51,7.06l-35.44,41.23-7.09.03,3.73,43.26-7.3-.15-3.42-42.61-36.04,41.77-6.89-.15,36.37-42.04-6.91.03-2.71-39.34-34.68,39.57-6.53.03,1.31,41.46-6.71-.13-1.04-40.85-35.26,40.07-6.35-.13,35.57-40.35-6.38.05-.56-37.85-33.94,38.05-6.03.03-.79,39.82-6.18-.13.98-39.23-34.45,38.52-5.85-.13-2.38,41.24,11.77.59,36.12-40.86,12.13.25-.41,43.01,12.76.63,37.01-42.6,13.15.28,1.87,44.93,13.91.69,37.87-44.48,14.33.3,37.19-43.87-7.53.03-5.19-40.98Z"/>
  <path class="cls-1" d="M631.2,411.07l-43.9,51.67-6.46-2.03-8.92,66.65,13.04,4.79,46.51-55.58-6.92-2.17,6.66-63.33Z"/>
  <path class="cls-1" d="M574.31,459.44l-44.7,52.4-6.2-2.28-11.35,68.89,12.46,5.34,47.39-56.39-6.63-2.45,9.02-65.5Z"/>
  <path class="cls-1" d="M573.3,541.21l-47.31,56.49-6.54-2.86-12.23,76.88,13.17,6.66,50.31-61.07-7.02-3.07,9.62-73.03Z"/>
  <path class="cls-1" d="M512.84,592.83l-48.23,57.32-6.23-3.16-15,79.44,12.51,7.29,51.32-62-6.69-3.39,12.31-75.51"/>
  <path class="cls-1" d="M508.02,687.99l-51.29,62.19-6.58-3.92-16.37,89.31,13.22,9.04,54.78-67.6-7.09-4.21,13.33-84.81Z"/>
  <path class="cls-1" d="M443.48,743.34l-52.33,63.12-6.21-4.25-19.53,92.28,12.46,9.73,55.91-68.67-6.71-4.58,16.39-87.66"/>
  <path class="cls-1" d="M433.79,854.82l-55.95,68.97-6.54-5.22-21.6,104.61,13.14,12.01,60.03-75.4-7.09-5.67,18.01-99.3Z"/>
  <path class="cls-1" d="M697.44,428.59l-45.24,54.48-7.14-2.23-6.53,71.03,14.44,5.3,48-58.81-7.65-2.41,4.11-67.37Z"/>
  <path class="cls-1" d="M637.92,479.41l-46.13,55.27-6.84-2.51-9.22,73.51,13.8,5.9,49.01-59.7-7.34-2.71,6.73-69.76Z"/>
  <path class="cls-1" d="M640.7,566.69l-48.92,59.86-7.25-3.17-9.81,82.52,14.67,7.42,52.11-64.95-7.82-3.44,7.02-78.24Z"/>
  <path class="cls-1" d="M577.25,621.12l-49.93,60.77-6.92-3.5-12.89,85.38,13.95,8.13,53.25-65.99-7.45-3.77,10-81"/>
  <path class="cls-1" d="M576.29,723.46l-53.22,66.24-7.34-4.38-14.01,96.65,14.84,10.13,56.96-72.34-7.95-4.73,10.72-91.57Z"/>
  <path class="cls-1" d="M508.33,782.05l-54.38,67.3-6.96-4.76-17.55,99.95,14.01,10.94,58.26-73.54-7.52-5.14,14.14-94.78"/>
  <path class="cls-1" d="M502.55,902.94l-58.31,73.94-7.35-5.88-19.4,114.19,14.89,13.63,62.71-81.29-8.03-6.41,15.5-108.18Z"/>
  <path class="cls-1" d="M722.88,137.05l-36.57,41.32-5.96-.51-4.02,46.55,11.98,1.44,38.43-43.97-6.31-.55,2.45-44.28ZM783.09,140.41l-37.47,43.11-6.49-.56-1.98,48.79,13.05,1.57,39.43-45.98-6.87-.59.33-46.33M848.59,144.04l-38.4,45.08-7.05-.61.41,51.24,14.29,1.72,40.45-48.18-7.52-.64-2.16-48.59M771.16,96.44l-35.99,40.81-6.15-.35-2.28,44.98,12.38,1.07,37.8-43.41-6.51-.36.74-42.75ZM833.26,98.07l-36.85,42.56-6.69-.36-.1,47.07,13.5,1.17,38.73-45.37-7.09-.4-1.5-44.68ZM900.81,99.84l-37.72,44.46-7.29-.4,2.48,49.39,14.77,1.29,39.69-47.52-7.78-.43-4.15-46.78"/>
  <path class="cls-1" d="M678.42,233.53l-38.95,44.51-6.05-.99-6,52.77,12.18,2.48,41.03-47.52-6.43-1.06,4.21-50.2ZM739.87,241.35l-39.99,46.6-6.63-1.09-3.92,55.62,13.33,2.73,42.2-49.88-7.04-1.16,2.03-52.81ZM807.02,249.87l-41.08,48.89-7.24-1.19-1.4,58.76,14.67,2.99,43.37-52.48-7.73-1.27-.6-55.72M729.26,190.62l-38.3,43.95-6.26-.79-4.06,51.01,12.62,2.07,40.33-46.88-6.66-.84,2.33-48.51ZM792.81,196.52l-39.29,45.98-6.84-.86-1.79,53.68,13.83,2.26,41.41-49.17-7.29-.93v-50.96M862.24,202.95l-40.32,48.21-7.5-.94.92,56.64,15.22,2.49,42.53-51.7-8.03-1.02-2.83-53.68Z"/>
  <path class="cls-1" d="M629.16,340.4l-41.64,48.17-6.13-1.57-8.41,60.13,12.34,3.75,43.98-51.62-6.54-1.67,6.38-57.19M691.77,353.67l-42.86,50.61-6.74-1.72-6.28,63.75,13.58,4.15,45.36-54.39-7.19-1.83,4.13-60.52M760.52,368.23l-44.12,53.32-7.42-1.9-3.68,67.78,15.04,4.58,46.76-57.5-7.95-2.03,1.37-64.26M682.86,294.93l-40.91,47.52-6.38-1.36-6.25,58.15,12.85,3.29,43.21-50.91-6.79-1.44,4.26-55.27M747.8,306.03l-42.07,49.9-6.99-1.47-3.9,61.57,14.14,3.62,44.46-53.62-7.47-1.59,1.82-58.41ZM819.11,318.23l-43.26,52.54-7.7-1.63-1.06,65.38,15.65,4,45.8-56.62-8.28-1.75-1.16-61.93"/>
  <path class="cls-1" d="M770.6,447.93l-46.66,57.62-7.9-2.48-3.57,75.97,16.08,5.92,49.59-62.42-8.53-2.68.99-71.93Z"/>
  <path class="cls-1" d="M708.18,501.45l-47.64,58.51-7.57-2.78-6.56,78.73,15.38,6.58,50.68-63.43-8.16-2.99,3.87-74.62Z"/>
  <path class="cls-1" d="M715.6,595.01l-50.63,63.65-8.08-3.55-6.77,88.98,16.47,8.33,54.01-69.36-8.77-3.83,3.77-84.2Z"/>
  <path class="cls-1" d="M648.83,652.56l-51.73,64.67-7.72-3.9-10.21,92.17,15.66,9.12,55.27-70.52-8.35-4.23,7.06-87.29"/>
  <path class="cls-1" d="M652.69,763.15l-55.25,70.87-8.24-4.91-10.94,105.1,16.8,11.48,59.27-77.77-8.99-5.37,7.35-99.4Z"/>
  <path class="cls-1" d="M580.93,825.37l-56.56,72.06-7.82-5.34-14.92,108.87,15.86,12.39,60.76-79.15-8.51-5.8,11.19-103.04Z"/>
  <path class="cls-1" d="M580.12,957.21l-60.82,79.68-8.36-6.68-16.39,125.48,17.02,15.58,65.61-88.1-9.19-7.34,12.13-118.62Z"/>
  <path class="cls-1" d="M1170.13-.17l-37.69,47.09-9.27.07,14.08,49.69-9.65-.2-13.48-48.91-38.48,47.8-8.99-.18,38.8-48.1-9.01.05-11.63-44.68-36.95,44.96-8.44.05,10.01,47.36-8.77-.2-9.52-46.6-37.67,45.6-8.21-.18,38.02-45.88-8.21.05-8.15-42.75-36.2,43.01-7.72.03,6.59,45.21-7.98-.17-6.21-44.51-36.86,43.61-7.5-.17,4.61,47.04,15.22.76,38.73-46.56,15.66.33,7.85,49.35,16.71.83,39.62-48.81,17.2.36,11.7,51.88,18.44.93,40.48-51.32,18.98.4,39.59-50.51-9.93.05L1170.13-.17Z"/>
  <path class="cls-1" d="M851.83,469.4l-48.12,61.15-8.81-2.76.12,81.61,18.03,6.63,51.19-66.51-9.53-2.99-2.88-77.13Z"/>
  <path class="cls-1" d="M786.18,525.94l-49.19,62.14-8.44-3.11-3.16,84.71,17.23,7.37,52.39-67.65-9.14-3.35.3-80.12Z"/>
  <path class="cls-1" d="M799.32,626.68l-52.36,67.93-9.09-3.98-2.91,96.41,18.62,9.42,55.98-74.39-9.88-4.33-.36-91.06Z"/>
  <path class="cls-1" d="M728.85,687.72l-53.62,69.08-8.66-4.38-6.71,100.05,17.71,10.31,57.39-75.73-9.42-4.78,3.32-94.56"/>
  <path class="cls-1" d="M738.83,807.89l-57.42,76.16-9.33-5.55-6.94,115.05,19.18,13.1,61.73-84.09-10.23-6.1,3.01-108.57Z"/>
  <path class="cls-1" d="M662.77,874.22l-58.87,77.53-8.84-6.05-11.38,119.38,18.09,14.14,63.37-85.66-9.7-6.61,7.32-112.72"/>
  <path class="cls-1" d="M668.36,1018.96l-63.5,86.33-9.55-7.63-12.34,138.95,19.65,17.98,68.7-96.15-10.54-8.44,7.58-131.03Z"/>
  <path class="cls-1" d="M942.49,493.38l-49.59,65.12-9.88-3.09,4.78,88.12,20.32,7.47,52.83-71.17-10.72-3.37-7.73-83.08Z"/>
  <path class="cls-1" d="M873.29,553.3l-50.79,66.23-9.47-3.49,1.11,91.61,19.45,8.33,54.21-72.44-10.33-3.8-4.18-86.43Z"/>
  <path class="cls-1" d="M893.52,662.29l-54.16,72.83-10.28-4.49,2.1,105.12,21.18,10.72.02.02,58-80.22-11.24-4.92-5.62-99.06Z"/>
  <path class="cls-1" d="M818.95,727.29l-55.57,74.14-9.8-4.97-2.2,109.27,20.18,11.75,59.62-81.72-10.74-5.44-1.49-103.02Z"/>
  <path class="cls-1" d="M836.6,858.67l-59.67,82.3-10.66-6.34-1.6,126.9,22.06,15.05.02.02,64.27-91.47-11.76-7.01-2.66-119.45Z"/>
  <path class="cls-1" d="M755.71,929.68l-61.3,83.86-10.11-6.91-6.69,131.85,20.85,16.29,66.19-93.27-11.17-7.62,2.21-124.21"/>
  <path class="cls-1" d="M769.6,1089.8l-66.32,94.18-11.05-8.84-6.74,155.26,22.92,20.98,71.96-105.76-12.28-9.82,1.52-146Z"/>
  <path class="cls-1" d="M920.12,148.01l-39.34,47.22-7.73-.68,3.32,53.96,15.71,1.9,41.46-50.63-8.26-.71-5.14-51.07M998.54,152.37l-40.28,49.59-8.51-.74,6.79,56.99,17.35,2.1,42.5-53.3-9.12-.79-8.71-53.83M974.57,101.77l-38.6,46.56-7.98-.45,5.54,51.92,16.23,1.4,40.65-49.88-8.53-.46-7.32-49.09M1055.41,103.89l-39.47,48.86-8.77-.48,9.24,54.74,17.91,1.55,10.99,60.38,19.27,2.33,43.52-56.29-10.1-.88-13.04-56.91-41.22,52.2-9.39-.81,41.59-52.49-9.4-.51-11.09-51.65M1144.42,106.24l-40.33,51.39-9.7-.53,13.68,57.86,19.89,1.72,42.51-55.39-10.43-.58-15.63-54.48Z"/>
  <path class="cls-1" d="M880.7,259.24l-42.17,51.42-7.96-1.31,1.67,62.29,16.23,3.3,44.56-55.37-8.54-1.4-3.77-58.94M961.94,269.55l-43.29,54.23-8.82-1.44,5.4,66.24,18.03,3.68,45.82-58.59-9.5-1.55-7.63-62.56M938.43,210l-41.34,50.68-8.24-1.04,4.18,59.95,16.82,2.76,43.65-54.51-8.84-1.12-6.21-56.71M1022.38,217.78l-42.36,53.4-9.12-1.16,8.18,63.65,18.67,3.06,9.96,70.72,20.16,4.11,47.02-62.19-10.59-1.74-12.36-66.65-44.4,57.35-9.78-1.6,44.76-57.63-9.82-1.24-10.31-60.08M1115.39,226.41l-43.39,56.44-10.15-1.29,13.04,67.83,20.89,3.42,45.87-61.14-10.96-1.39-15.3-63.88Z"/>
  <path class="cls-1" d="M836.38,384.3l-45.42,56.33-8.21-2.1-.45,72.37,16.74,5.11,48.18-60.97-8.84-2.26-2-68.46M920.52,402.13l-46.74,59.7-9.14-2.35,3.55,77.58,18.74,5.7,49.67-64.87-9.9-2.53-6.16-73.23M897.82,331.68l-44.48,55.47-8.53-1.8,2.41,69.69,17.41,4.46,47.14-60-9.17-1.93-4.78-65.88M985.06,346.58l-45.7,58.74-9.5-2,6.74,74.59,19.46,4.97,8.53,83.54,21.12,6.43,51.14-69.3-11.12-2.84-11.35-78.7-48.08,63.48-10.21-2.61,48.46-63.78-10.26-2.17-9.24-70.36M1082.33,363.2l-46.93,62.42-10.62-2.25,12.08,80.17,21.96,5.62,49.8-68.08-11.53-2.45-14.74-75.44"/>
  <path class="cls-1" d="M1044.38,520.31l-51.07,69.65-11.15-3.5,10.64,95.67,23.12,8.49,54.46-76.52-12.18-3.82-13.81-89.97Z"/>
  <path class="cls-1" d="M971.23,584.04l-52.43,70.9-10.69-3.93,6.51,99.63,22.12,9.45,56.03-77.96-11.68-4.3-9.86-93.8Z"/>
  <path class="cls-1" d="M1000.31,702.67l-56.01,78.48-11.7-5.14,8.53,115.41,24.37,12.34,60.06-87-12.89-5.65-12.36-108.46Z"/>
  <path class="cls-1" d="M921.11,772.17l-57.58,79.97-11.15-5.65h-.02l3.67,120.16,23.2,13.5,61.9-88.71-12.31-6.23-7.72-113.04"/>
  <path class="cls-1" d="M948.56,916.83l-61.96,89.49-12.29-7.34,5.47,141.12,25.69,17.55,66.89-100.23-13.65-8.15-10.15-132.45Z"/>
  <path class="cls-1" d="M862.22,993.25l-63.83,91.29-11.63-7.95h-.02s-.36,146.87-.36,146.87l24.29,18.99,69.12-102.35-12.95-8.84-4.59-138.02"/>
  <path class="cls-1" d="M886.93,1171.88l-69.28,103.53-12.9-10.31.93,175.28,27.1,24.79,75.4-117.38-14.47-11.57-6.76-164.34Z"/>
</svg>