<?xml version="1.0" encoding="UTF-8"?>
<svg id="Layer_1" data-name="Layer 1" xmlns="http://www.w3.org/2000/svg" version="1.1" xmlns:xlink="http://www.w3.org/1999/xlink" viewBox="0 0 630.31 335">
  <defs>
    <style>
      .cls-1 {
        fill: none;
      }

      .cls-1, .cls-2 {
        stroke-width: 0px;
      }

      .cls-3 {
        clip-path: url(#clippath);
      }

      .cls-2 {
        fill: #00ff3b;
      }
    </style>
    <clipPath id="clippath">
      <rect class="cls-1" width="630.31" height="335"/>
    </clipPath>
  </defs>
  <g class="cls-3">
    <g>
      <path class="cls-2" d="M70.91,354.21c1.8-.54,3.58-1.22,5.42-1.57,2.02-.39,4.11-.37,6.14-.7,3.19-.51,5.76,1.1,8.47,2.27h-20.03Z"/>
      <path class="cls-2" d="M214.04,354.21c1.82-.46,3.63-1.3,5.45-1.3,3.88,0,7.77.43,11.65.73.44.04.86.37,1.29.57h-18.38,0Z"/>
      <path class="cls-2" d="M198.28,354.21c2.31-.73,4.6-1.88,6.95-2.03,1.46-.1,3.02,1.3,4.54,2.03h-11.49Z"/>
      <path class="cls-2" d="M616.98,283.89c-11.74,17.61-38.66,21.33-54.27,7.19,1.02-.16,1.89-.28,2.75-.43,3.62-.63,6.96-2.08,9.79-4.29,6.22-4.85,13.11-7.28,20.98-6.6,5.08.44,10.17.99,15.21,1.81,1.9.31,3.65,1.5,5.53,2.32h0Z"/>
      <path class="cls-2" d="M536.43,274.89c3.67-1.09,7.29-2.39,11.02-3.21,4.87-1.07,9.78-.48,14.61.56,5.8,1.25,11.58,2.59,17.34,3.97.97.23,1.85.84,3.12,1.44-5.74,3.58-10.18,8.76-17.14,9.25-7.67.54-14.84-1.06-21.24-5.5-2.67-1.85-5.28-3.8-7.92-5.7.06-.27.13-.54.19-.81h0Z"/>
      <path class="cls-2" d="M598.01,301.42c3.2-1.21,6.85-2.23,10.15-3.94,2.86-1.48,5.36-3.68,7.95-5.65,2.43-1.85,4.63-4.04,7.21-5.63,1.97-1.22,4.38-1.73,6.86-2.67v20.6c-2.9.78-27-1.3-32.17-2.7h0Z"/>
      <path class="cls-2" d="M536.36,283.23c.92.97,2.02,1.83,2.72,2.94,1.98,3.12,4.96,4.91,8.18,6.29,4.75,2.05,9.61,3.83,14.4,5.77,2.16.88,3.99,2.24,5.26,4.26,1.35,2.13.69,4.69-1.57,5.83-3.03,1.53-6.27,1.34-9.43.76-3.28-.6-6.38-1.85-9.1-3.87-3.66-2.71-5.75-6.48-7.13-10.71-1.11-3.41-2.23-6.82-3.34-10.23-.09-.29-.18-.57-.27-.86.1-.06.19-.13.29-.19h0Z"/>
      <path class="cls-2" d="M520.39,266.33c1.13-.74,1.85-1.2,2.56-1.68,3.76-2.53,7.64-4.9,11.24-7.65,1.74-1.33,3.17-1.59,4.96-.54,4.37,2.55,8.95,4.78,12.49,8.54.18.19.35.38.52.57-.14.13-.23.27-.28.25-3.66-1-6.56.74-9.47,2.54-1.89,1.17-3.83,2.29-5.8,3.31-2.91,1.52-5.95,1.12-8.67-.27-2.58-1.32-4.86-3.23-7.55-5.08h0Z"/>
      <path class="cls-2" d="M601.4,311.77c3.54,1.39,6.95,2.5,10.6,2.52,1.89.01,3.77-.36,5.66-.57,2.55-.28,5.07-.47,7.61.3,3.86,1.16,5.6,4.98,3.71,8.51-2.25,4.21-6.36,5.65-10.68,3.62-4.92-2.32-9.48-5.19-13.14-9.26-1.41-1.57-2.51-3.4-3.76-5.12h0Z"/>
      <path class="cls-2" d="M572.42,302.32c6.74.54,13.16,1.98,18.59,6.3,2.93,2.34,5.04,5.2,5.92,8.89.73,3.1-.05,4.34-4.01,4.09-2.82-.17-5.42-1.33-7.1-3.85-3.79-5.71-8.28-10.8-13.4-15.43Z"/>
      <path class="cls-2" d="M517.41,294.62c3.53,0,6.5.6,9.28,1.86,3.98,1.8,7.4,4.42,9.95,8.02,1.03,1.45,1.96,3,2.66,4.62.98,2.26.05,4.54-2,5.53-2.28,1.1-5.2.42-6.32-1.65-1.14-2.1-2.26-4.24-3.07-6.48-1.61-4.46-4.63-7.68-8.43-10.32-.58-.4-1.12-.85-2.07-1.58h0Z"/>
      <path class="cls-2" d="M506.85,275.72c2.29-1.64,4.41-3.19,6.57-4.67.34-.23.97-.36,1.31-.21,3.2,1.49,6.44,2.91,9.5,4.65,1.27.72,2.28,2.05,3.13,3.29,1.08,1.56.33,3.42-1.54,3.56-2.24.17-4.54.03-6.76-.34-4.63-.78-8.56-3.08-12.22-6.28h0Z"/>
      <path class="cls-2" d="M498.08,281.61c.33-.1,1.02-.57,1.59-.45,3.58.73,7.25,1.42,9.96,4.13,2.43,2.44,3.55,5.48,2.75,8.9-.46,1.99-2.29,3.4-3.76,3.4-2.26,0-3.26-.91-4.35-3.27-1.95-4.23-4.07-8.37-6.19-12.72h0Z"/>
      <path class="cls-2" d="M543.16,313.35c5.61-1.65,11.12-1.54,16.43.58,1.32.53,2.48,1.78,3.36,2.96.97,1.29.54,2.64-.82,3.5-2.44,1.56-5.13,1.78-7.85,1-.6-.17-1.32-.93-1.45-1.54-.69-3.14-3.04-4.31-5.74-5.16-1.32-.42-2.63-.89-3.95-1.33Z"/>
      <path class="cls-2" d="M567.25,319.82c3.55-1.76,7.1-1.04,10.64-.49,2.79.43,5.12,1.75,7.02,3.83.87.96,1.24,2.02.81,3.3-.44,1.29-1.52,1.65-2.68,1.8-3.04.4-5.53-.85-7.8-2.69-.25-.2-.49-.44-.72-.67-2.11-2.09-3.78-4.78-7.26-5.08Z"/>
      <path class="cls-2" d="M592.43,327.93c4.39-1.88,8.83-2.1,13.33-.91,2.18.58,3.55,2.61,3.33,4.8-.2,2.04-2.15,4.11-4.26,4.03-1.06-.04-2.43-.63-3.07-1.43-2.47-3.13-5.33-5.54-9.34-6.48Z"/>
      <path class="cls-2" d="M611.02,331.15c1.25-1.73,2.77-1.98,4.27-2.14,3.35-.37,6.45.42,9.01,2.6,1.89,1.61,2.53,3.09,1.5,4.43-1.21,1.57-4.2,2.01-5.77.73-.63-.51-1.21-1.11-1.72-1.75-1.78-2.25-3.79-4.08-7.3-3.87h0Z"/>
      <path class="cls-2" d="M505.77,307.53c3.11-.25,5.66.42,7.9,2.35,4.57,3.95,9.98,6.31,15.67,8.1.09.03.16.12.25.2-2.8,1.21-4.99,1.22-8.28-.18-5.62-2.39-10.27-6.29-15.13-9.86-.12-.09-.18-.26-.42-.61Z"/>
      <path class="cls-2" d="M278.03.16c.04,2.05-.73,3.1-2.89,3.23-2.71.16-5.44.11-8.14-.12-4.34-.38-8.66-.96-12.77-2.53-.33-.13-.66-.25-.94-.58h24.75Z"/>
      <path class="cls-2" d="M214.33.07c-4.88,3.29-16.4,5.42-20.42,2.6.92-1.48,1.73-2.74,3.94-2.65,4.96.19,9.94.06,14.91.06h1.57,0Z"/>
      <path class="cls-2" d="M559,329.95c-1.71.29-3.42.79-5.14.84-4.76.13-9.03-1.69-13.22-3.69-1.66-.79-3.28-1.64-5.08-2.55,1.33-1.59,2.69-.68,3.75-.38,3.56.99,7.02,2.35,10.58,3.33,2.51.69,5.13,1,7.69,1.49.46.09.91.24,1.36.36.02.2.04.4.06.61h0Z"/>
      <path class="cls-2" d="M607.08,346.05c1.55-2.68,1.53-2.6,3.84-1.93,2.4.7,4.74.12,7.03-.65,1.29-.43,2.55-.99,3.88-1.24.67-.13,1.45.3,2.18.48-.27.66-.37,1.49-.84,1.96-2,2.02-4.62,2.77-7.32,2.63-2.83-.14-5.62-.78-8.77-1.25h0Z"/>
      <path class="cls-2" d="M498.73,301.17c-6.84-1.46-10.71-6.68-15.13-11.29,1.13-1.12,2.07-1.17,3.16-.15,3.46,3.23,6.97,6.4,10.44,9.62.58.53,1.02,1.21,1.52,1.82Z"/>
      <path class="cls-2" d="M589.92,336.97c-1.49,2.24-3.85,2.72-6.2,3.03-3.37.44-6.34-1.12-9.39-2.18-1.1-.38-.73-1.1-.45-1.51,5.45.22,10.68.43,16.05.65Z"/>
      <path class="cls-2" d="M136.64,2.93c4.07-2.23,8.35-3.42,13.25-2.69-4.29,2.32-8.76,2.57-13.25,2.69Z"/>
      <path class="cls-2" d="M624.24,201.95c1.92-.94,3.85-1.88,5.96-2.91v4.13c-2.04-.27-3.98-.52-5.93-.78-.01-.14-.02-.29-.03-.43h0Z"/>
      <path class="cls-2" d="M125.82.59c-3.99.31-7.97.62-11.96.93-.07-.19-.15-.37-.22-.55.53-.3,1.06-.85,1.6-.86,3.54-.08,7.08-.04,10.62-.04,0,.17-.02.35-.03.52h0Z"/>
      <path class="cls-2" d="M242.57.58c-4.23.53-8.46,0-12.69-.42h12.66c0,.14.02.28.03.42h0Z"/>
      <path class="cls-2" d="M630.19,311.01c-1.18-.36-2.16-.66-3.14-.96,0-.11,0-.21-.01-.31,1.01-.13,2.02-.26,3.14-.4v1.68h0Z"/>
      <path class="cls-2" d="M601.71,213.05c5.23-7.54,11.88-11.55,21.13-9.73,1.44.28,2.85.75,4.2,1.31.38.16.81,1.06.69,1.45-.76,2.37-1.96,4.58-4.16,5.84-3.07,1.75-6.38,2.65-10.04,2.19-3.03-.38-6.1-.36-9.15-.57-.89-.06-1.76-.31-2.67-.48h0Z"/>
      <path class="cls-2" d="M630.29,181.17c0,3.16.04,5.94-.04,8.72-.02.55-.52,1.08-.88,1.77.9,2.95.69,4.07-2.49,5.38-4.62,1.91-9.46,3.32-14.21,4.92-.29.1-.64.01-1.28.01.46-.69.82-1.19,1.14-1.72,3.25-5.3,6.48-10.62,9.78-15.88.41-.65,1.18-1.25,1.91-1.5,1.9-.65,3.86-1.1,6.06-1.7h0Z"/>
      <path class="cls-2" d="M591.97,232.89c1.06-2.52,2.72-4.35,4.95-5.92,3.99-2.82,8.37-4.46,13.14-4.97,2.41-.26,4.89,0,7.32.22,1.37.12,1.93,1.58,1.27,3.11-1.01,2.37-2.86,3.93-5.37,4.33-2.79.44-5.62.58-8.44.77-4.38.29-8.85,0-12.86,2.47h0Z"/>
      <path class="cls-2" d="M568.54,245.46c.86-.56,1.8-1.03,2.55-1.7,3.17-2.8,6.06-5.98,10.02-7.75,2.04-.91,4.12-1.71,6.22-2.46.58-.21,1.31-.18,1.92-.05,2.45.53,3.12,2.2,1.58,4.18-.71.92-1.65,1.82-2.69,2.31-2.9,1.36-5.87,2.58-8.88,3.68-1.62.6-3.37.86-5.07,1.23-1.69.36-3.39.67-5.08,1-.19-.15-.38-.3-.58-.45h0Z"/>
      <path class="cls-2" d="M558.19,259.81c-1.19-.83-2.43-1.68-3.73-2.59,2.68-5.38,6.88-8.75,12.49-10.34.73-.21,1.88.16,2.46.68.39.35.39,1.58.08,2.17-.6,1.18-1.37,2.4-2.37,3.23-2.85,2.35-5.86,4.51-8.93,6.84h0Z"/>
      <path class="cls-2" d="M597.96,249.2c-.58.55-1.07,1.26-1.76,1.62-1.49.79-3.04,1.47-4.61,2.1-4.13,1.66-7.24,4.46-9.91,8-1.22,1.62-3.22,2.67-4.93,3.88-.3.21-.93-.06-1.41-.1.15-.41.24-.85.46-1.22.32-.56.84-1.02,1.07-1.6,2.7-6.82,8.11-10.45,14.8-12.5,1.88-.57,3.91-.67,5.88-.99.14.27.28.55.42.82Z"/>
      <path class="cls-2" d="M601,246.91c3.16-6.53,16.06-12.76,24.61-10.34-2.51.66-4.67,1.24-6.84,1.8-2.92.75-5.38,2.3-7.57,4.34-2.3,2.15-4.84,3.89-8.1,4.2-.64.06-1.29,0-2.1,0h0Z"/>
      <path class="cls-2" d="M617.89,221.37c.85-2.58,8.48-6.75,12.33-7.21v6.48c-2.13-.16-4.19-.54-6.22-.42-2.04.12-4.05.74-6.11,1.14Z"/>
      <path class="cls-2" d="M598.38,216.62c-.34,5.27-4.95,9.72-11.01,10.57,3.74-3.59,7.29-7,11.01-10.57Z"/>
      <path class="cls-2" d="M329.26,354.21c8.21-2.23,14.62-7.67,21.5-12.21,4.52-2.98,9.04-5.28,14.62-5.15,2.14.05,4.3-.52,6.2-.78-.68,2.87-1.41,5.74-2.05,8.63-1.07,4.82-3.56,8.27-8.71,9.23-.14.02-.25.18-.37.27h-31.19Z"/>
      <path class="cls-2" d="M247.52,354.21c-3.63-3.5-7.26-7-10.88-10.5,3.25-.93,6.69-1.91,10.13-2.88.2-.05.45-.05.64.02,5.74,2.31,11.55,4.54,14.66,10.51.48.91.81,1.9,1.2,2.85h-15.76Z"/>
      <path class="cls-2" d="M389.34,354.21c4.71-2.11,9.39-4.28,14.14-6.28,1.05-.44,2.37-.5,3.52-.37,3.26.36,4.58,2.73,3.36,5.74-.12.3-.23.61-.35.91h-20.68Z"/>
      <path class="cls-2" d="M271.49,354.21c-1.81-2.62-4.74-3.71-7.32-5.27-.39-.24-.81-.44-1.16-.81,8.21.31,16.25,1.18,23.25,6.08h-14.77Z"/>
      <path class="cls-2" d="M422.17,354.21c2.08-1.45,4.06-3.08,6.27-4.29,1.16-.64,2.73-.71,4.11-.73,2.87-.04,3.89,1.87,2.44,4.3-.13.23-.23.48-.35.72h-12.48,0Z"/>
      <path class="cls-2" d="M286.06,345.25c.58-.05,1.16-.09,1.74-.16,2.92-.37,5.84-.69,8.74-1.15,2.65-.42,4.69-1.88,6.43-3.92.51-.6,1.55-1.03,2.35-1.05,5.84-.12,11.69-.08,17.53-.18,1.96-.04,3.91-.36,5.87-.52,3.76-.31,7.25.73,10.63,2.21,1.1.48,2.12,1.12,3.56,1.89-1.96,1.86-3.59,4-5.73,5.3-3.81,2.31-8,3.73-12.62,3.37-1.05-.08-2.22.14-3.2.53-4.79,1.92-9.65,1.39-14.54.62-6.28-1-12.39-2.64-18.28-5.07-.92-.38-1.75-.96-2.61-1.45.04-.14.09-.28.13-.42h0Z"/>
      <path class="cls-2" d="M249.53,339.98c4.81-1.58,9.43-2.86,13.86-4.62,4.36-1.73,8.51-1.96,13.15-.93,7.61,1.68,15.39,2.57,23.1,3.79.37.06.73.16,1.21.26-.33,1.76-1.56,2.6-2.94,3.28-2.99,1.47-6.24,1.55-9.46,1.67-3.81.14-7.65.39-11.38-.86-.4-.13-.97.01-1.38.2-3.66,1.66-7.36,2.43-11.44,1.67-4.52-.85-9.07-1.48-13.2-3.67-.42-.22-.84-.44-1.53-.79h0Z"/>
      <path class="cls-2" d="M370.73,350.38c1.7-5.49,4.43-10.24,8.5-14.2,1.45-1.4,3.01-2.35,5.01-2.86,4.86-1.24,9.66-2.75,14.48-4.15.51-.15,1-.31,1.6-.5-.29,5.74-2.86,10.09-7.02,13.68-6.3,5.43-13.81,7.52-21.89,8.15-.24.02-.5-.08-.7-.11h0Z"/>
      <path class="cls-2" d="M425.6,322.05c-5.28,13.35-16.59,20.21-28.05,21.18,2.56-2.75,3.85-5.96,4.68-9.37.41-1.69.52-3.46.97-5.14.18-.65.8-1.4,1.42-1.69,3.89-1.86,7.82-3.64,11.78-5.34.94-.4,2.07-.61,3.09-.53,2,.15,3.98.57,6.11.9h0Z"/>
      <path class="cls-2" d="M411.02,343.98c5.48-4.41,10.82-7.85,17.77-8.2,3.08-.15,5.69.69,8.23,2.11,1.96,1.1,2.18,2.42.7,4.11-1.81,2.06-4.1,3.27-6.92,3.08-1.79-.12-3.56-.57-5.35-.66-4.29-.21-8.6-.31-12.9-.44-.35-.01-.71,0-1.53,0h0Z"/>
      <path class="cls-2" d="M458.64,327.85c-7.11,3.61-14.53,5.19-22.94,3.14,1.7-.82,3.09-1.39,4.37-2.14,1.27-.74,2.66-1.46,3.58-2.55,1.24-1.45,2.54-1.49,4.19-1.17,3.57.71,7.16,1.29,10.74,1.93.02.26.04.52.06.79Z"/>
      <path class="cls-2" d="M440.71,347.23c1.65-4.19,4.31-7.44,8.3-9.45,1.76-.89,3.73-.29,4.86,1.16,1.1,1.4,1.24,3.61,0,5.01-.6.68-1.78,1.33-2.62,1.25-3.73-.36-7.27-.1-10.55,2.03h0Z"/>
      <path class="cls-2" d="M454.34,336.64c.21-.74.28-1.56.65-2.21,1.91-3.36,4.85-5.26,8.66-5.74,1.95-.25,3.28.58,3.5,1.92.28,1.71-1.03,3.69-2.78,4.13-.47.12-.98.17-1.46.12-2.97-.29-5.91-.47-8.23,2.15l-.35-.36h0Z"/>
      <path class="cls-2" d="M461.69,348.55c-.68-1.41-.27-2.11,1.09-3.07,1.62-1.14,2.83-2.93,4.01-4.59.81-1.14,1.18-2.57,1.91-3.78.32-.52,1.03-.8,1.57-1.2.29.59.78,1.17.83,1.78.06.84-.09,1.75-.36,2.56-1.2,3.64-5.18,7.25-9.05,8.29Z"/>
      <path class="cls-2" d="M431.35,323.19c-1.47,1.19-2.93,2.38-4.4,3.57-.07-.07-.15-.15-.22-.22.68-1.2,1.22-2.53,2.12-3.53.4-.45,1.54-.24,2.35-.33.05.17.11.35.16.52h0Z"/>
      <path class="cls-2" d="M7.55,354.21c.15-.38.19-.86.45-1.11,2.81-2.75,4.46-6.22,5.71-9.83,4.74-13.64,15.24-19.51,28.7-21.46.8-.11,1.64-.02,2.46.02.48.03.97.14,1.78.26-1.29,2-2.33,3.96-3.7,5.65-1.95,2.41-4.09,4.68-6.26,6.91-1.22,1.25-1.76,2.45-1.66,4.32.17,3.37-1.38,6.39-4.35,7.88-5.94,2.98-11.94,5.94-18.61,7.09-.2.04-.39.17-.59.26h-3.94Z"/>
      <path class="cls-2" d="M49.57,354.21c-2.66-.21-5.32-.36-7.97-.66-3.06-.34-6.11-.8-9.17-1.21-.06-.19-.12-.39-.17-.58,1.46-1.17,2.8-2.57,4.41-3.47,4.24-2.35,8.51-4.68,12.94-6.65,6.24-2.77,12.59-1.85,18.87.13.97.3,1.23.83.92,1.85-1.8,6.02-6.13,9.01-12.02,10.19-.53.11-1.05.26-1.57.39h-6.24Z"/>
      <path class="cls-2" d="M109.65,354.21c-3.49-.87-6.94-2.04-10.48-2.5-2.24-.29-4.61.48-7.39.83.63-.74,1.01-1.63,1.63-1.84,3.71-1.26,7.44-2.45,11.21-3.51,4.63-1.29,9.37-1.79,14.11-.82,1.99.41,4.02,1.14,5.75,2.19,2.84,1.73,2.91,2.67,1.26,5.64h-16.08Z"/>
      <path class="cls-2" d="M0,340.76c2.95-1.49,5.85-3.11,8.87-4.45,1.91-.85,3.48-.66,5.07.09-.65,1.3-1.15,2.69-1.96,3.88-2.15,3.14-4.45,6.17-6.65,9.28-1.06,1.51-2.02,3.09-3.03,4.65H0v-13.45Z"/>
      <path class="cls-2" d="M165.78,354.21c1.5-.96,2.92-2.1,4.52-2.85,4.84-2.27,9.75-4.4,14.65-6.56,1.18-.52,2.41-.95,3.62-1.42.11.18.21.35.32.53-3.07,1.95-6.04,4.08-9.24,5.8-3.19,1.72-6.6,3.02-9.92,4.5h-3.94Z"/>
      <path class="cls-2" d="M138.17,305.29c-.83,2.21-2.28,3.93-4.15,5.02-4.47,2.61-8.93,5.37-13.71,7.28-2.95,1.18-5.67,2.11-7.85,4.63-3.23,3.71-7.97,4.7-12.47,6.06-6.35,1.93-12.84,1.85-19.35,1.5-2.48-.14-4.53-1.3-6.24-3.17,1.88-.9,3.65-1.62,5.3-2.57,5.97-3.42,10.02-8.32,11.56-15.15.12-.55.72-1.21,1.25-1.42,7.3-2.91,15-4.33,22.7-5.62,2.15-.36,4.52.5,6.78.85,5.34.83,10.67,1.7,16.17,2.58h0Z"/>
      <path class="cls-2" d="M89.18,306.5c-.31,1.46-.43,3-.98,4.37-1.48,3.7-3.56,6.94-7.11,9.13-2.75,1.69-5.42,3.47-8.58,4.35-.64.18-1.19.68-1.76,1.02,1.58,3.57,1.35,4.73-2,6.69-2.15,1.26-4.57,2.06-6.89,3.01-7.91,3.25-17,5.27-24.4,5.43-.25-2.27.79-4,2.34-5.47,2.17-2.07,4.52-3.97,6.56-6.16,1.3-1.4,2.47-3.08,3.19-4.84,1.18-2.88,2.79-4.92,5.91-6.01,5.62-1.95,11.1-4.24,16.94-5.59,3.63-.84,7.05-2.6,10.55-3.97,1.91-.75,3.78-1.58,5.67-2.37l.56.43h0Z"/>
      <path class="cls-2" d="M104.46,331.49c10.69-5.53,21.9-7.07,33.74-4.73,4.03.8,7.79,1.95,11.31,4.07,3.21,1.94,2.52,5.37.32,7.07-.51.4-1.07.79-1.68,1.01-4.98,1.82-10.04,2.68-15.19.76-4.6-1.72-9.24-3.36-13.71-5.37-4.35-1.96-8.86-2.6-13.54-2.67-.38,0-.76-.02-1.14-.04-.03,0-.07-.06-.11-.11Z"/>
      <path class="cls-2" d="M64.4,338.92c7.09-4.15,14.35-7.01,22.41-7.22,3.71-.1,7.46-.23,11.11.27,3.53.49,6.78,2.15,9.32,4.78,2.07,2.14,1.84,3.31-.26,5.34-4.47,4.31-9.77,4.95-15.21,2.88-8.63-3.29-17.59-4.77-26.66-5.86-.15-.02-.3-.08-.7-.18Z"/>
      <path class="cls-2" d="M138.93,324.03c6.19-1.97,12.04-4.09,18.57-3.07,6.95,1.09,13.73.25,20.08-3.07,1.92-1.01,5.93.12,7.15,1.92.87,1.28.4,2.57-.22,3.72-1.89,3.52-4.86,5.81-8.58,7.18-5.33,1.95-10.69,2.04-16.05.12-4.58-1.64-9.12-3.37-13.73-4.92-2.26-.76-4.63-1.21-7.22-1.88h0Z"/>
      <path class="cls-2" d="M126.66,317.39c5.35-3.28,10.81-6.25,14.26-12.37,7.07.88,14.42,1.78,21.76,2.69l.19.69c-1.09.69-2.11,1.52-3.27,2.05-9.49,4.33-19.53,6.47-29.88,7.3-.43.03-.88.07-1.31.01-.59-.08-1.17-.25-1.76-.38h0Z"/>
      <path class="cls-2" d="M130.86,348.91c.95-.67,1.84-1.45,2.85-1.98,4.91-2.55,10.06-4.16,15.68-3.82.81.05,1.65.11,2.43.33,2.38.67,3.37,2.2,3.14,4.66-.19,2.03-1.69,3.72-3.89,3.71-1.8-.01-3.77-.3-5.36-1.08-4.58-2.25-9.19-2.98-14.1-1.43-.14.05-.31,0-.47,0-.09-.13-.18-.26-.27-.39h0Z"/>
      <path class="cls-2" d="M185.27,329.61c1.21-3.66,4.09-5.3,7.25-6.48,1.67-.62,3.47-1.01,5.24-1.25,3.13-.42,5.65.92,7.67,3.22,1.23,1.4.65,3.68-1.16,4.03-1.55.29-3.36.4-4.8-.11-4.83-1.71-9.51-2.45-14.19.59Z"/>
      <path class="cls-2" d="M163.85,337.78c3.08-.9,6.16-1.82,9.25-2.69,2.32-.65,4.63-.62,6.92.19,2.19.78,2.88,2.13,2.2,4.32-.51,1.65-1.43,2.43-3.16,2.12-1.58-.28-3.17-.83-4.61-1.55-3.34-1.67-6.76-2.69-10.61-2.41h0Z"/>
      <path class="cls-2" d="M207.21,336.64c5.28-3.09,10.35-6.08,15.43-9.03,1.34-.78,2.74-1.47,4.15-.08-2.03,3.62-16.47,10.48-19.58,9.11Z"/>
      <path class="cls-2" d="M280.38,1.38c4.22.7,7.94.09,11.59-1.19.5-.17,1.08-.12,1.62-.12,10.72,0,21.45-.01,32.17,0,3.5,0,6.47,1.65,9.19,3.53,2.41,1.67,1.7,5.08-1.34,6.39-1.92.82-4.07,1.35-6.15,1.48-4.45.28-8.95.8-13.34-.62-.4-.13-.94.07-1.4.19-2.31.6-4.65,1.85-6.92,1.72-4.08-.24-8.19-1.03-12.15-2.09-2.87-.76-5.57-2.24-8.27-3.54-2.33-1.12-3.96-2.96-5.01-5.76h0Z"/>
      <path class="cls-2" d="M373.5,12.23c-3.51,4.42-8.24,5.85-13.41,6.45-2.36.27-4.77.48-7.04,1.12-2.78.79-5.55.71-8.27.27-4.89-.8-9.74-1.86-14.56-3-2.1-.5-4.11-1.44-6.13-2.26-.63-.25-1.17-.73-1.68-1.52.66-.03,1.33,0,1.98-.1,3.12-.46,6.29-.72,9.31-1.55,1.56-.43,2.82-1.9,4.24-2.87.68-.47,1.38-1.17,2.13-1.24,4.76-.46,9.54-.93,14.32-1.07,2.23-.07,4.57.31,6.7.99,3.69,1.16,7.25,2.71,10.86,4.1.49.19.97.43,1.54.68h0Z"/>
      <path class="cls-2" d="M133.62,24.39c1.83-2.8,4.33-4.52,6.8-6.31,3.4-2.48,7.26-3.95,11.09-5.54,3.43-1.42,6.89-2.85,9.23-5.98.24-.32.69-.54,1.09-.68,2.06-.73,4.13-1.42,6.2-2.1.33-.11.72-.05,1.23-.09-.11,2.96-1.03,5.53-2.3,8.01-2.18,4.23-4.83,8.12-9.03,10.54-1.53.88-3.43,1.24-5.21,1.57-3.65.66-7.33,1.22-11.01,1.66-2.71.33-5.41.13-8.09-1.09Z"/>
      <path class="cls-2" d="M301.43,15.78c2.42.26,4.85.48,7.26.79,4.04.51,8.02,1.43,11.48,3.59,4.33,2.7,9.07,4.92,12.38,8.98.98,1.19,1.63,2.7,2.2,4.15.52,1.33-.03,2.58-1.33,3.14-1.12.48-2.45.99-3.58.82-4.14-.62-8.12-1.79-11.13-4.99-1.79-1.9-3.66-3.75-5.34-5.76-3.45-4.12-7.04-8.04-12.17-10.18.07-.18.14-.36.21-.55h0Z"/>
      <path class="cls-2" d="M268.77,7.34c5.63-.49,11.15-.7,16.42,1.59,2.55,1.11,5.22,1.96,7.71,3.17,3.37,1.64,5.97,4.17,7.59,7.61.23.49.41,1.02.51,1.55.46,2.36.04,2.67-2.22,3.47-4.78,1.71-8.71.07-11.94-3.18-5.34-5.38-11.15-10.09-17.69-13.93-.14-.08-.26-.19-.39-.29h0Z"/>
      <path class="cls-2" d="M329.49,23.36c4.87.54,9.69.87,13.9,3.78,4.75,3.28,10.03,5.19,15.92,5.38,1.32.04,2.9.83,3.85,1.79,2.39,2.4,1.29,4.28-2.18,5.86-5.34,2.44-10.62,1.18-15.32-1.68-2.74-1.66-4.89-4.31-7.24-6.6-2.39-2.32-4.66-4.75-7.02-7.09-.56-.56-1.27-.96-1.91-1.43h0Z"/>
      <path class="cls-2" d="M240.46,4.78c1.7-.29,3.4-.77,5.11-.84,5.26-.2,10.56-1,15.75.72,3.63,1.2,6.62,3.32,9.14,6.11.27.29.2,1.31-.09,1.62-1.8,1.88-3.94,3.42-6.59,3.6-3.52.25-6.93-.23-10.02-2.32-1.94-1.31-4.17-2.17-6.18-3.39-2.49-1.51-4.89-3.19-7.32-4.8.06-.24.13-.49.2-.73h0Z"/>
      <path class="cls-2" d="M395.25,19.9c-3.24,1.77-6.54,1.99-9.87,2.1-.87.03-1.75.02-2.62.08-1.51.1-2.79.5-3.88,1.75-1.97,2.26-4.76,2.89-7.58,3.43-5.88,1.12-10.43-1.31-14.93-5.31,2.05-.13,3.64-.14,5.2-.36,5.01-.71,9.25-3.21,13.22-6.13,1.82-1.34,3.29-1.6,5.46-.74,4.8,1.91,9.77,3.41,15,5.19h0Z"/>
      <path class="cls-2" d="M210.56,6.7c3.51-1.2,6.63-2.52,9.89-3.32,6.53-1.6,12.54-.02,17.99,3.74.34.24.5,1.16.34,1.62-.9,2.64-3.19,3.9-5.45,5.14-3.78,2.08-7.75,1.69-11.38.05-3.65-1.65-6.96-4.05-10.42-6.14-.3-.18-.49-.53-.97-1.09h0Z"/>
      <path class="cls-2" d="M185.44,14.64c3.72-4.65,8.56-7.09,14.34-8.03,4.34-.71,8.26-.23,11.52,2.99.15.15.27.33.49.6-3.9,3.9-8.18,7.16-13.67,8.22-4.77.93-9.08-.25-12.68-3.79h0Z"/>
      <path class="cls-2" d="M192.86.07c-.86,4.02-2.59,7.03-6.76,8.16-3.89,1.05-7.71,2.35-11.6,3.37-1.39.36-2.91.24-4.68.36,1.25-3.5,2.21-6.72,4.78-9.34,2.09-2.13,4.35-2.73,7.19-2.59,3.64.18,7.3.04,11.07.04h0Z"/>
      <path class="cls-2" d="M98.55,37.79c2.31-.91,4.59-1.9,6.93-2.72,3.78-1.33,7.58-2.64,11.43-3.77,1.21-.35,2.62-.25,3.9-.09,1.46.19,2.91.65,3.41,2.35.53,1.78.09,3.36-1.13,4.68-2.32,2.51-5.37,3.3-8.62,3.15-2.21-.1-4.42-.51-6.58-.97-3.13-.66-6.23-1.49-9.34-2.24,0-.13,0-.26,0-.38Z"/>
      <path class="cls-2" d="M225.33,21.73c1.76-1.67,3.77-2.78,6.13-3.19,5.18-.9,10.35-.95,15.33.91,2.43.9,4.73,2.2,7,3.48,1.27.71,1.18,2.34-.11,3.48-2.02,1.8-4.47,2.41-7.03,1.67-2.76-.8-5.44-1.9-8.13-2.96-4.24-1.68-8.33-3.92-13.2-3.39h0Z"/>
      <path class="cls-2" d="M254.62,22.52c2.7-1.66,5.59-2.25,8.6-2.27,1.41,0,2.82.29,4.23.32,4.16.08,7.86,1.8,11.46,3.54,1.64.8,2.91,2.57,4.04,4.12.35.47-.05,2.04-.61,2.51-1.6,1.32-3.6,2-5.64,1.11-3.68-1.6-7.4-3.17-10.9-5.11-3.52-1.95-6.8-4.35-11.17-4.22h0Z"/>
      <path class="cls-2" d="M125.77,42.17c.02.11-.08-.08-.02-.19,2.05-4.04,4.29-7.89,9.05-9.29.42-.12.86-.23,1.22-.45,3.8-2.39,7.3-.85,10.64.97,2.6,1.42,2.6,4.6-.09,5.75-2.4,1.03-5.09,1.5-7.7,1.87-4.29.59-8.62.9-13.1,1.35h0Z"/>
      <path class="cls-2" d="M370.79,32.75c6.49-.55,11.91-3.49,17.6-5.61,2.23-.83,4.59-1.32,6.88-1.97.05-.02.11-.02.16-.02,1.47-.04,2.99.1,3.75,1.47.78,1.42-.4,2.56-1.29,3.41-3.45,3.28-7.57,5.28-12.34,5.79-2.65.28-5.32.81-7.92-.26-2.2-.9-4.39-1.81-6.84-2.83h0Z"/>
      <path class="cls-2" d="M284.07,26.77c.82-.19,1.67-.63,2.45-.52,3.55.52,7.1,1.12,10.61,1.85,3.91.81,7.36,2.68,10.4,5.25.85.72,1.51,1.7,2.14,2.65.73,1.09,1.14,2.29.07,3.44-1.35,1.46-3.33,2.04-4.73,1.13-2.78-1.8-5.53-3.68-8.17-5.68-1.91-1.44-3.51-3.3-5.47-4.66-1.52-1.06-3.35-1.7-5.09-2.43-.63-.27-1.37-.26-2.06-.37-.05-.22-.1-.44-.16-.66h0Z"/>
      <path class="cls-2" d="M184.35,10.57c-2.38,5.51-5.08,10.07-10.66,11.86-1.66.53-3.53.47-5.31.55-1.08.04-2.18-.11-3.26-.3-.48-.08-1.17-.34-1.31-.69-.13-.34.22-.99.53-1.37,4.22-5.15,9.64-8.24,16.18-9.42,1.17-.21,2.35-.39,3.83-.64h0Z"/>
      <path class="cls-2" d="M177.14,27.38c-2.57,4.26-19.28,12.77-24.67,12.99.69-1.82,1.33-3.69,2.13-5.49.29-.66.83-1.32,1.44-1.7,3.98-2.46,8.25-4.2,12.89-4.99,1.34-.23,2.66-.64,4-.78,1.26-.13,2.54-.03,4.21-.03Z"/>
      <path class="cls-2" d="M198.02,23.81c1.92-.58,3.59-.97,5.16-1.6,5.23-2.07,10.64-2.52,16.19-2.11,1.65.12,3.09.57,4.1,2,.71,1,.84,2.08-.23,2.7-1.36.8-2.9,1.72-4.4,1.8-3.3.18-6.63-.03-9.93-.29-1.78-.14-3.52-.67-5.27-1.08-1.71-.4-3.4-.86-5.62-1.43Z"/>
      <path class="cls-2" d="M175.49,33.59c.31-.27.81-.48.91-.81,1.46-5.1,5.77-6.85,10.11-8.31,2.65-.89,5.52-1.36,8.39-.79.53.11,1.1.12,1.61.3,1.65.58,2,2.15.88,3.45-1.84,2.14-4.5,2.26-6.95,2.92-4.15,1.12-8.27,2.33-12.42,3.44-.8.21-1.67.14-2.5.2,0-.14-.01-.27-.02-.41h0Z"/>
      <path class="cls-2" d="M223.82,39.69c-.94.23-1.87.62-2.82.65-2.55.07-5.12-.1-7.67,0-3.14.12-6.09.79-8.75,2.71-2.12,1.53-4.7,1.94-7.3,1.89-.43,0-.86-.44-1.29-.68.34-.34.65-.72,1.04-.99.74-.54,1.59-.94,2.29-1.52,6.73-5.71,14.34-6.16,22.43-3.81.26.07.51.21.74.35.41.25.81.53,1.21.81.04.21.07.41.11.62h0Z"/>
      <path class="cls-2" d="M314.05,38.44c.95-.14,1.9-.38,2.86-.4,4.69-.09,9.24.48,13.34,3.06,2.5,1.57,3.11,3.6,1.54,5.7-1.2,1.6-3.81,1.73-5.69.13-1.12-.95-2.2-2-3.02-3.2-1.87-2.75-4.62-3.86-7.67-4.52-.45-.1-.9-.19-1.35-.29,0-.16,0-.32,0-.48Z"/>
      <path class="cls-2" d="M320.27,51.41c-4.71,2.25-23.41-1.22-28.57-5.44,2.58-.61,4.77-1.8,7.46-.78,6.73,2.54,13.57,4.76,20.67,6.01.14.03.27.13.43.21Z"/>
      <path class="cls-2" d="M255.1,39.85c-2.69-.48-4.97-.93-7.27-1.28-3.07-.46-6.05-.09-9.02.89-3.04.99-6.18,1.37-9.3.22-.6-.22-1.16-.51-1.8-.8,4.78-4.5,20.21-5.19,27.39.97Z"/>
      <path class="cls-2" d="M287.23,44.82c-2.83-.62-5.66-1.4-8.54-1.82-3.17-.45-6.44-.35-9.59-.89-2.35-.41-4.59-1.46-7.09-2.3,3.97-3.63,21.46.14,25.23,5.01h0Z"/>
      <path class="cls-2" d="M169.46,44.03c-2.46,1.49-4.88,3.04-7.39,4.44-1.41.79-2.92,1.49-4.47,1.93-2.22.62-6.32-2.17-6.63-4.44-.06-.41.41-1.14.81-1.31.61-.26,1.4-.31,2.08-.2,5.18.83,10.31,1,15.36-.89.08.16.16.32.24.48h0Z"/>
      <path class="cls-2" d="M190.24,43.98c-1.16.15-2.32.35-3.49.45-4.27.36-8.34,1.41-12.18,3.38-.44.23-1.08.08-1.63.1.07-.6,0-1.27.23-1.8,1.32-2.85,3.88-4.02,6.74-4.55,1.86-.34,3.78-.42,5.68-.48,1.99-.05,3.4,1.14,4.73,2.39-.03.17-.06.34-.09.5h0Z"/>
      <path class="cls-2" d="M79.62,40.07c2.89-1.39,5.92-1.97,9.15-1.55,2.02.27,3.37,1.51,4.35,3.11.36.58.46,1.76.1,2.23-.37.49-1.53.77-2.18.58-2.19-.63-4.31-1.48-6.44-2.3-1.66-.64-3.3-1.36-4.97-2.06Z"/>
      <path class="cls-2" d="M342.85,42.1c2.61.49,5.28.77,7.81,1.53,1.76.54,3.49,1.53,4.91,2.71,1.56,1.29,1.12,2.8-.74,3.67-2.3,1.08-2.63,1.02-4.36-.83-.34-.36-.68-.72-.96-1.11-1.78-2.43-3.59-4.82-6.84-5.52.06-.15.12-.3.17-.45h0Z"/>
      <path class="cls-2" d="M98.36,42.66c1.3.18,2.6.32,3.89.54,2.15.38,4.29.77,6.42,1.25.56.12,1.22.45,1.51.89.45.7.78,1.57.83,2.38.01.22-1.15.72-1.79.75-2.54.1-5-.12-7.04-1.97-1.29-1.18-2.72-2.21-4.09-3.32l.27-.53h0Z"/>
      <path class="cls-2" d="M147.5,48.94c-4.87,1.17-9.21-1.05-13.91-2.41,1.9-1.46,3.98-1.33,5.98-1.46,2.38-.15,4.83-.43,6.78,1.43.56.54.97,1.23,1.44,1.86-.1.19-.19.39-.29.58Z"/>
      <path class="cls-2" d="M115.5,47c3.4,0,6.59-.18,9.74.09,1.21.1,2.39,1.12,3.48,1.88.89.62.56,1.35-.3,1.74-.58.26-1.25.46-1.88.47-4.2.02-7.52-2.18-11.03-4.17h0Z"/>
      <path class="cls-2" d="M139.19,55.43c-3.63,3.52-13.44,3.11-17.99-.33,2.79.25,5.73.67,8.68.73,2.98.06,5.96-.24,9.31-.4Z"/>
      <path class="cls-2" d="M166.63,53.41c-5.29,3.3-10.71,2.71-16.18.58,5.39-.19,10.79-.38,16.18-.58Z"/>
      <path class="cls-2" d="M68.27.35c-2.5,2.37-5.41,3.72-8.53,4.53-3.25.85-6.59,1.33-9.84,2.17-2.84.74-5.58,1.88-8.43,2.6-2.36.59-4.81.84-7.23,1.2-.39.06-.81-.13-1.62-.27,4.57-2.5,7.69-6.01,10.55-9.8.28-.37.9-.68,1.36-.68,7.76-.04,15.51-.02,23.26,0,.09,0,.17.09.47.26h0Z"/>
      <path class="cls-2" d="M67.88,6.66c.79-.71,1.2-1.11,1.65-1.47,1.06-.85,2.39-1.5,3.18-2.54C74.43.38,76.57-.09,79.27.01c4.96.19,9.93.05,15.2.05-1.63,2.15-3.84,2.92-5.91,3.62-2.5.84-5.16,1.26-7.78,1.7-3.06.51-6.16.89-9.25,1.24-1.05.12-2.11.02-3.65.02h0Z"/>
      <path class="cls-2" d="M32.81.2c-6.94,9.03-15.65,8.44-21.4,0h21.4Z"/>
      <path class="cls-2" d="M1.16,9.55c2.84-1.42,5.47-.6,8.11-.08,3.18.62,5.02,3.13,7.14,5.18,1.11,1.08.46,2.94-1.07,3.61-2.48,1.1-6.22.04-8.24-2.38-1.05-1.25-1.96-2.62-3.05-3.82-.81-.89-1.83-1.6-2.88-2.51Z"/>
      <path class="cls-2" d="M46.04,17.46c1.05-1.96,2.97-2.99,4.93-3.83,1.9-.81,3.91-1.38,5.91-1.92,2.86-.78,5.29.2,7.26,2.25,1.24,1.29,1.02,2.54-.63,3.27-1.11.49-2.43.7-3.65.68-2.56-.03-5.12-.33-7.68-.43-2-.08-4-.02-6.16-.02h0Z"/>
      <path class="cls-2" d="M21.63,13.84c.34-.05.69-.17,1.03-.13,3.13.32,6.25.77,9.39.97,2.96.19,5.62.8,7.27,3.57.76,1.28.55,1.8-.86,2.28-2.44.84-4.87.41-7.02-.6-3.18-1.5-6.15-3.45-9.2-5.21-.28-.16-.57-.3-.86-.45.08-.14.17-.29.25-.43h0Z"/>
      <path class="cls-2" d="M69.63,12.48c.56-.22.76-.35.98-.38,4.28-.75,8.54-1.56,12.84-2.21,1.7-.26,2.9.81,3.66,2.25.18.34.07,1.17-.2,1.35-3.11,2.15-6.5,2.98-10.2,1.81-1.97-.62-3.89-1.37-5.84-2.07-.24-.09-.44-.26-1.24-.74h0Z"/>
      <path class="cls-2" d="M92.12,9.45c3.99-1.28,7.85-2.53,11.71-3.76,1.85-.59,3.54-.1,5.2.73,1.17.59,1.26,1.5.36,2.16-1.2.88-2.57,1.8-3.98,2.06-4.12.78-8.24.17-12.32-.63-.32-.06-.6-.35-.96-.57Z"/>
      <path class="cls-2" d="M124.07,9.63c-1.82,5.77-16.99,9.49-21.7,7.05,7.97.1,14.34-4.58,21.7-7.05Z"/>
      <path class="cls-2" d="M57.17,27.77c-.06,1.98-1.14,2.98-2.46,3.62-5.01,2.42-10.21,2.8-15.55,1.16-.67-.21-1.38-.3-2.05-.52-.44-.15-.85-.42-1.24-.93,7.57,2.21,14.36-.2,21.3-3.32Z"/>
      <path class="cls-2" d="M71.06,25.77c6.21-.22,11.58-3.32,17.42-4.95-1.77,4.36-11.22,7.09-17.42,4.95Z"/>
      <path class="cls-2" d="M22.8,25.06c-1.75,2.32-9.53,4.58-13.65,1.9,4.51-.63,8.98-1.25,13.65-1.9Z"/>
      <path class="cls-2" d="M0,29.58c3.1,1.78,4.9,4.74,6.87,7.54,2.51,3.57,4.9,7.23,7.49,10.74,2.52,3.43,5.7,6.11,9.92,7.73-1,.35-1.98.83-3.01,1.03-6.02,1.15-11.47-.82-14.73-6.3-1.13-1.89-2.63-2.97-4.54-3.71-.65-.25-1.33-.43-2-.63v-16.39Z"/>
      <path class="cls-2" d="M0,68.6c3.92-3.44,12.05-2.08,13.89,2.63-3.58-1.84-6.86-1.01-10.17.29-1.15.46-2.48,1.03-3.73.02v-2.95Z"/>
      <path class="cls-2" d="M0,51.88c3.14,2.65,6.28,5.29,9.26,7.81-2.8-.18-6.03-.39-9.26-.59v-7.21H0Z"/>
      <path class="cls-2" d="M90.6,63.31c-1.54,1.81-3.38,2.75-5.48,2.87-4.83.28-9.61.44-14.44-.79-3.39-.86-6.11-2.34-8.51-4.74-.37-.37-1.04-.55-1.59-.63-4.63-.67-8.65-2.88-12.6-5.16-.9-.52-1.65-1.45-2.22-2.35-1.48-2.34-.42-4.69,2.32-4.83,3.15-.16,6.32-.08,9.46.14,3.42.24,6.84.66,10.22,1.21,3.17.52,6.29,1.31,9.42,2.05.32.07.66.54.77.89,1.88,5.95,6.13,9.33,11.92,11.05.15.04.3.12.73.28h0Z"/>
      <path class="cls-2" d="M233.99,91.21c4.95.21,8.62-2.15,12.37-4.38,4.42-2.63,9.22-3.62,14.3-2.83,4.14.65,8.26,1.44,12.34,2.36,1.21.27,2.26,1.2,3.42,1.83-9.68,12.92-30.33,14.92-42.43,3.02h0Z"/>
      <path class="cls-2" d="M249.57,134.63c-1.69,1.44-3.44,2.24-5.71,1.84-4.23-.74-8.52-1.13-12.73-1.97-3.5-.7-5.99-2.67-7.22-6.33-.54-1.61-2.2-2.9-3.48-4.21-1.05-1.09-2.33-1.96-3.44-3-1.45-1.35-1.21-2.66.72-3.04,2.4-.47,4.88-.9,7.3-.8,5.1.2,10,1.61,14.73,3.44,2.04.79,3.93,2.15,5.66,3.53.77.61,1.54,2.06,1.34,2.89-.71,2.94.25,5.11,2.31,7.03.19.18.34.4.53.63h0Z"/>
      <path class="cls-2" d="M13.5,40.48c2.03,0,4.05-.36,5.88.07,3.96.93,7.92,2.04,11.71,3.51,3.7,1.43,7.22,3.33,10.73,5.19.75.4,1.11,1.5,1.69,2.26.89,1.19,1.61,2.62,2.75,3.47,2.35,1.72,4.93,3.12,7.55,4.73-.46.12-.98.36-1.51.37-7.55.12-15.04-.72-21.98-3.69-4.13-1.77-7.83-4.63-11.56-7.22-2.83-1.97-4.32-4.96-5.27-8.68h0Z"/>
      <path class="cls-2" d="M195.47,112.62c4.56.92,9.31,1.71,13.96,2.88,3.04.77,5.1,3.03,6.66,5.73,1.11,1.93,2.31,3.71,4.26,5.05,2.65,1.81,3.81,4.7,4.26,7.84.23,1.61-.7,2.55-2.23,2.02-5.64-1.95-11.69-2.7-16.87-6.02-2.23-1.43-4-2.94-4.39-5.7-.47-3.36-2.91-5.52-4.97-7.9-.61-.7-1.25-1.37-1.79-2.12-.22-.31-.38-.89-.23-1.17.14-.28.71-.34,1.34-.6h0Z"/>
      <path class="cls-2" d="M117.31,71.35c-5.25-.48-9.96-.34-14.47-1.86-2.68-.9-5.43-1.61-8.03-2.7-2.42-1.02-2.64-1.92-1.76-4.57-.61-.25-1.23-.58-1.88-.76-4.08-1.13-7.8-2.88-10.08-6.64-.83-1.38-1.24-3.02-1.84-4.53.15-.12.29-.25.44-.37,1.73.56,3.44,1.16,5.18,1.67,2.5.73,5.01,1.4,7.52,2.09,4.2,1.14,8.44,2.15,12.56,3.51,1.04.34,2,1.67,2.49,2.78.92,2.04,2.39,3.43,4.12,4.73,1.6,1.2,3.13,2.52,4.55,3.94.54.54.68,1.5,1.2,2.73h0Z"/>
      <path class="cls-2" d="M214.48,77.98c4.6-2.15,9.36-2.91,14.26-2.39,2.7.29,5.38.92,8,1.64,3.88,1.06,7.71,2.33,11.55,3.55.54.17,1.02.58,2.03,1.17-3.99,2.1-7.49,4.25-11.25,5.82-3.06,1.27-6.38.45-9.53-.27-5.61-1.28-10.04-4.61-14.2-8.36-.35-.31-.57-.76-.87-1.16h0Z"/>
      <path class="cls-2" d="M177.36,99.91c10.07,6.89,16.18,16.62,21.54,26.93-.1.18-.2.37-.3.56-.97-.09-2.05.07-2.89-.3-2.87-1.28-5.67-2.74-8.48-4.16-.87-.44-1.64-1.1-2.52-1.51-4.89-2.28-6.72-6.6-7.64-11.47-.62-3.27-1-6.57.29-10.04Z"/>
      <path class="cls-2" d="M109.64,58.72c1.57-.13,2.8-.43,3.98-.31,4.89.5,9.54,1.85,13.48,4.9,2.65,2.05,4.8,4.53,6.12,7.71,1.12,2.7,2.34,5.41,4.82,7.25.14.11.19.34.36.66-2.64.6-5.09.17-7.46-.55-2.91-.89-5.77-1.98-8.63-3.05-2.24-.84-3.91-3.68-3.83-6.05.02-.58-.4-1.31-.83-1.77-2.16-2.29-4.41-4.49-6.59-6.76-.47-.49-.79-1.12-1.42-2.04h0Z"/>
      <path class="cls-2" d="M133.43,66.48c1.41.19,2.91.13,4.21.62,5.12,1.93,10.17,4.22,13.62,8.63,2.93,3.75,4.76,8.18,6.16,12.74.29.93.56,1.86.95,3.13-1.05-.09-1.88-.09-2.69-.25-4.16-.83-7.39-3.35-10.56-5.93-.84-.68-1.59-1.49-2.28-2.32-.33-.39-.66-1.03-.58-1.47.56-2.8-1.19-4.53-2.83-6.25-2.42-2.52-4.6-5.2-6.24-8.27.08-.21.16-.42.25-.63h0Z"/>
      <path class="cls-2" d="M69.51,68.5c-6.69.02-11.87,4.06-17.64,6.52-2.1.9-4.15,1.74-6.44,1.47-1.93-.23-3.92-.39-5.73-1.03-2.76-.97-3.16-3.31-.9-5.09,1.47-1.16,3.15-2.34,4.92-2.79,5.47-1.41,11-3.04,16.76-1.91,3.07.6,6.09,1.47,9.14,2.22-.03.21-.06.41-.09.62h0Z"/>
      <path class="cls-2" d="M229.37,152.8c1.57-2.1,3.58-3.57,5.87-4.34,6.2-2.07,12.48-3.93,18.76-5.79.69-.2,1.53.08,2.3.14-.12.77-.02,1.68-.41,2.29-1.48,2.34-3.16,4.56-4.69,6.87-.83,1.27-1.46,2.66-2.26,3.95-.23.37-.78.88-1.09.81-5.93-1.15-11.86-2.37-17.78-3.59-.2-.04-.37-.19-.7-.36Z"/>
      <path class="cls-2" d="M213.98,84.07c.7.76,1.5,1.38,1.97,2.18,1.99,3.39,5.22,5.12,8.62,6.7,3.35,1.55,6.68,3.16,9.97,4.84.74.38,1.38,1.08,1.86,1.77,1.91,2.7.77,5.17-2.51,5.64-7.86,1.12-15.51-3.67-17.57-11.55-.82-3.13-1.54-6.28-2.34-9.58h0Z"/>
      <path class="cls-2" d="M174.18,106.18c-1.26-.65-2.53-1.14-3.6-1.9-2.83-2.03-5.6-4.15-8.34-6.3-2.12-1.65-2.93-3.97-2.6-6.54.25-1.96-.5-3.48-1.31-5.09-1.49-2.96-2.91-5.94-4.35-8.92-.04-.08,0-.2,0-.78,1.74,1.62,3.28,2.99,4.75,4.44,3.96,3.9,7.97,7.76,11.79,11.79,3.44,3.62,4.62,8.04,3.67,13.3h0Z"/>
      <path class="cls-2" d="M291.99,88.45c-.99,1.43-1.62,2.49-2.4,3.45-2.79,3.49-5.62,6.95-8.46,10.4-1.04,1.26-2.31,1.75-4.05,1.43-5.44-1.02-10.92-1.88-16.8-2.87,2.28-.53,4.22-.72,5.94-1.44,2.83-1.2,5.62-2.6,8.23-4.21,2.17-1.33,4.03-3.14,6.1-4.64.82-.59,1.79-1.2,2.76-1.34,2.72-.38,5.48-.51,8.68-.78h0Z"/>
      <path class="cls-2" d="M97.93,71.54c-.93.22-1.82.52-2.72.64-5.31.66-10.24,2.56-15.13,4.61-2.33.98-4.81,1.85-7.31,1.02-1.71-.57-3.29-1.66-4.73-2.77-.39-.3-.35-1.69-.01-2.29,1.34-2.37,3.72-3.66,6.18-4.27,8.12-2,15.99-1.04,23.49,2.72.08.04.11.16.23.35h0Z"/>
      <path class="cls-2" d="M45.26,64.83c-4.11,1.76-8.14,3.4-12.09,5.21-4.09,1.87-8.21,2.76-12.68,1.48-2.9-.83-5.02-2.5-6.51-5.06-.75-1.28-.49-2.52.83-2.99,1.3-.47,2.96-.91,4.17-.51,4.76,1.62,9.52,1.76,14.36.71,2.8-.61,5.53-.25,8.27.27,1.22.23,2.41.59,3.65.89Z"/>
      <path class="cls-2" d="M120.82,79.34c-3.91.58-7.84,1.06-11.73,1.75-3.15.56-6.16.43-9.16-.74-2.56-1-3.83-3.12-4.9-5.4-.13-.29.5-1.23.98-1.45,4.97-2.35,10.06-2.26,15.06-.2,2.81,1.16,5.49,2.66,8.2,4.05.6.31,1.09.81,1.64,1.23-.03.25-.06.51-.09.76Z"/>
      <path class="cls-2" d="M227.42,71.44c-4.01-1.2-6.86.47-9.61,2.43-3.33,2.36-7.72,2.44-10.97-.11-2.33-1.83-4.41-3.99-6.6-6l.17-.47c2.44-.31,4.88-.65,7.32-.92,3.68-.42,7.37-.8,11.06-1.18.42-.04.94-.11,1.26.09,2.65,1.58,5.13,3.39,7.37,6.17h0Z"/>
      <path class="cls-2" d="M143.71,89.87c-3.15.5-6.3,1-9.45,1.5-2.67.43-5.28.07-7.6-1.26-2.94-1.67-5.02-4.12-5.57-7.62-.17-1.07.2-1.51,1.32-1.72,8.08-1.57,14.53,1.22,19.82,7.23.42.48.95.85,1.43,1.28.02.19.04.39.06.59h0Z"/>
      <path class="cls-2" d="M264.91,119.07c-2.66,4.59-5.09,9.08-9.57,11.87-.74.46-1.76,1.19-2.36.98-1.52-.53-2.97-1.45-3.3-3.29-.12-.64-.14-1.3-.19-1.95-.16-2.31-1.11-4.05-3.41-4.86-.2-.07-.39-.19-.96-.48,6.64-3.67,13.3-2.2,19.79-2.28h0Z"/>
      <path class="cls-2" d="M141.84,91.72c2.78-1.29,5.38-1.51,8.07-.34,5.46,2.39,9.31,6.25,11.22,12.06-4.28,1.79-8.22,1.21-11.77-1.45-3.47-2.61-5.66-6.25-7.52-10.28Z"/>
      <path class="cls-2" d="M187.04,68.65c1.2.22,2.15.18,2.88.56,4.16,2.13,8.29,4.32,12.38,6.57,1.94,1.07,3.97,2.11,4.89,4.37.68,1.67.16,2.69-1.64,2.84-4.36.36-8.15-1.31-11.5-3.85-2.27-1.72-4.62-3.53-5.73-6.35-.46-1.16-.74-2.38-1.28-4.14h0Z"/>
      <path class="cls-2" d="M127.39,96.61c-3.47-1.95-7.27-1.59-11.03-1.6-2.45,0-4.91.04-7.34-.18-2.11-.2-3.78-1.36-4.88-3.22-.99-1.66-.44-2.82,1.41-3.21,6.96-1.5,13.19.38,18.91,4.22,1.33.89,2.23,2.42,3.32,3.65-.13.12-.26.23-.39.35h0Z"/>
      <path class="cls-2" d="M104.21,88.08c-4.12-1.94-8.15-.38-12.23.04-2.75.28-5.54.25-8.3.18-1.8-.04-2.96-1.34-3.78-2.79-.52-.92-.15-1.81.81-2.35,2.16-1.22,4.39-1.8,6.97-1.76,4.35.07,8.41.98,12.23,2.94,1.64.84,3.09,2.06,4.63,3.11-.11.21-.22.42-.33.63h0Z"/>
      <path class="cls-2" d="M220.93,148.85c-3.35-.56-7.74-1.09-12.01-2.09-2.76-.64-5.08-2.28-6.06-5.23-.49-1.49-.5-2.93.66-4.11,1.16-1.17,2.54-.9,3.96-.44,4.01,1.3,6.84,4.22,9.67,7.08,1.59,1.6,2.82,3.55,3.78,4.78h0Z"/>
      <path class="cls-2" d="M241.85,100.5c4.74.54,9.36,2.18,13.26,5.43,2.19,1.83,3.83,4.11,4.41,7.03.32,1.61-.16,2.43-1.83,2.5-1.25.05-2.53.02-3.75-.2-.75-.14-1.65-.54-2.08-1.12-3.42-4.54-6.73-9.15-10.01-13.64Z"/>
      <path class="cls-2" d="M199.24,143.8c-4.24-2.24-8.41-4.36-12.49-6.63-1.1-.62-2.07-1.62-2.85-2.64-1.33-1.74-.56-3.92,1.59-4.23,3.21-.46,6.1-.26,8.89,2.31,3.03,2.79,4.4,5.97,4.92,9.79.05.37.05.76.04,1.14,0,.14-.11.28-.1.26h0Z"/>
      <path class="cls-2" d="M79.57,82.6c-3.46-1.38-6.52-.12-9.72.96-3.45,1.16-7.04,1.93-10.6,2.7-1.59.34-3.09-.81-3.6-2.44-.43-1.39.51-2.25,1.49-2.78,1.42-.76,2.95-1.47,4.51-1.8,5.5-1.16,10.85,0,16.13,1.48.75.21,1.38.82,2.06,1.25-.09.21-.19.43-.28.65h0Z"/>
      <path class="cls-2" d="M163.49,100.78c1.25.71,2.58,1.3,3.74,2.14,4.18,3.02,7.22,6.9,8.72,11.91.32,1.08.16,1.76-1.03,1.42-3.3-.94-6.56-1.89-8.79-4.91-1.57-2.11-2.31-4.4-2.62-6.92-.13-1.07-.24-2.14-.35-3.21.12-.14.23-.29.35-.43h0Z"/>
      <path class="cls-2" d="M179.08,134.3c-6.9-4.58-11.33-10.93-15.74-17.29.14-.2.28-.4.43-.6.85.23,1.79.32,2.55.72,4.78,2.54,9.1,5.67,12.17,10.21.47.69.51,1.73.57,2.62.09,1.29.02,2.6.02,4.33h0Z"/>
      <path class="cls-2" d="M199.3,92.48c5.38.07,9.62,2.49,12.95,6.51,1.07,1.28,1.88,2.8,2.67,4.28.37.69.51,1.56.53,2.36.05,1.63-.34,1.75-1.97,1.38-4-.9-6.79-2.82-7.81-7.14-.69-2.96-3.17-4.86-5.51-6.69-.29-.23-.58-.47-.87-.7Z"/>
      <path class="cls-2" d="M148.12,106.71c-1.64-.22-3.16-.5-4.68-.61-4.56-.32-8.59-2.38-12.81-3.81-.53-.18-.98-.69-1.38-1.13-.76-.84-1.81-1.77-1.1-2.98.71-1.22,2.07-1.68,3.44-1.3,3.47.96,6.9,2.05,9.84,4.25,1.96,1.47,3.89,2.97,5.8,4.49.38.3.63.77.89,1.1h0Z"/>
      <path class="cls-2" d="M162.77,121.78c-.63-.31-1.29-.52-1.81-.91-3.45-2.55-6.9-5.09-10.26-7.75-1.12-.88-2.16-2-2.86-3.23-.8-1.4.33-2.83,1.94-2.54,4.14.75,7.49,2.94,10.07,6.17,1.13,1.42,1.93,3.16,2.61,4.86.38.94.21,2.1.31,3.4h0Z"/>
      <path class="cls-2" d="M183.74,80.27c3.64,1.12,7.75,1.59,10.25,5.13,1.32,1.86,2.12,6.01-.02,7.69-1.76,1.37-3.94,1.06-4.88-.98-.57-1.23-.96-2.56-1.52-3.79-1.21-2.64-2.49-5.24-3.82-8.05Z"/>
      <path class="cls-2" d="M235.79,142.83c-3.52,1.5-6.65,2.9-9.85,4.12-.52.2-1.4-.35-2.04-.68-1.76-.91-3.27-3.33-2.93-4.58.31-1.15,2.51-2.12,4.67-2.07,3.52.08,6.76,1.04,10.15,3.21Z"/>
      <path class="cls-2" d="M123.36,110.48c1.12,0,2.26-.13,3.36.02,5.61.81,10.39,3.19,13.9,7.74,1.08,1.41,1.97,2.97,2.9,4.48.11.18.08.68,0,.72-.32.12-.8.27-1.04.13-1.52-.93-3.4-1.62-4.41-2.96-3.1-4.11-7.33-6.2-12.01-7.74-1.04-.35-1.98-1.01-2.97-1.53.09-.28.18-.56.28-.84h0Z"/>
      <path class="cls-2" d="M52.7,82.15c-1.49-.17-2.75-.53-3.95-.38-1.53.19-3.03.72-4.5,1.23-1.54.53-2.98,1.36-4.54,1.8-1.27.35-2.67-.03-3.3-1.22-.43-.81-.54-2.08-.2-2.9.31-.74,1.35-1.45,2.19-1.66,5-1.22,9.59.05,13.92,2.59.11.07.17.23.37.54h0Z"/>
      <path class="cls-2" d="M43.87,90.09c2.94.38,5.87.85,8.81,1.12,3.25.3,6.51.51,9.78.61,2.26.07,3.49,1.73,5.09,2.91-8.59,1.96-16.16-1.21-23.68-4.64Z"/>
      <path class="cls-2" d="M98.93,101.54c6.88-2.4,17.8,1.62,21.61,7.97-1.9-.33-3.59-.29-4.94-.93-1.98-.94-3.73-2.38-5.58-3.61-2.74-1.82-5.88-2.48-9.04-3.06-.68-.12-1.36-.25-2.04-.37Z"/>
      <path class="cls-2" d="M92.94,98.83c-3.06.81-5.85.19-8.62-.73-2.07-.68-4.14-1.38-6.26-1.85-2.06-.47-4.19-.66-6.22-.97,3.55-2.81,18.54-.39,21.1,3.56h0Z"/>
      <path class="cls-2" d="M164.71,131.34c3.14,2.72,6.83,4.24,10.83,5.11.79.17,1.58.45,2.28.83,1.07.59,1.15,1.34.13,2.16-2.1,1.7-4.99,2.07-6.83.28-2.5-2.43-4.62-5.25-6.91-7.9l.49-.47h0Z"/>
      <path class="cls-2" d="M175.95,70.59c-.13.14-.1.07-.06.06,2.99-.71,2.96-.7,4.35,2.12,1.04,2.12,1.06,4.16-.04,6.27-.55,1.05-1.28,1.62-2.47,1.42-1.24-.21-1.73-1.14-1.76-2.24-.06-2.44-.02-4.89-.02-7.63h0Z"/>
      <path class="cls-2" d="M147.96,124.81c1.94-.92,3.49-1.18,5.18-.48,2.87,1.18,5.48,2.65,7.07,5.46.11.19.27.39.28.58.04,1.03.03,2.06.04,3.09-.78-.49-1.77-.82-2.32-1.5-2.15-2.67-5.09-4.19-8-5.78-.66-.36-1.27-.78-2.25-1.38h0Z"/>
      <path class="cls-2" d="M217.54,107.42c4.83-.67,9.1-.45,13.18,1.48,1.63.77,2.37,1.59,2.66,3.39-5.38-1-10.61-2.21-15.85-4.88Z"/>
      <path class="cls-2" d="M28.74,76.03c-3.29-.57-5.53,1.59-8.16,2.76-.77.34-1.77.73-2.47.5-.74-.24-1.6-1.12-1.75-1.85-.14-.7.35-1.99.94-2.28,1.16-.58,2.6-.98,3.88-.87,2.52.21,5,.83,7.5,1.27.02.16.04.31.07.47h0Z"/>
      <path class="cls-2" d="M191.97,144.76c-4.33-.28-8.35.02-11.77-2.56,1.8-3.37,8.29-.85,11.77,2.56Z"/>
      <path class="cls-2" d="M12.46,80.86c5.37,1.96,10.74,3.91,16.11,5.86-.09.24-.18.47-.27.71-6.1-.02-11.01-3.19-16-6.18.05-.13.1-.26.15-.39Z"/>
      <path class="cls-2" d="M171.89,83.29c3.23,3.28,6.34,6.43,9.56,9.7-4.65-1.12-10.21-6.62-9.56-9.7Z"/>
      <path class="cls-2" d="M396.06,53.66c2.35-1.33,4.36-2.28,6.18-3.53,5.46-3.72,9.05-8.73,10.25-15.34.11-.58.82-1.26,1.41-1.5,5.73-2.27,11.54-4.25,17.63-5.44,5.61-1.1,11.12-2.72,16.73-3.87,2.27-.47,4.67-.43,7.01-.41,1.66.01,3.11.82,3.82,2.39.9,2,.17,3.89-.95,5.55-2.05,3.03-5.15,4.8-8.19,6.64-3.78,2.3-7.53,4.61-11.97,5.53-.59.12-1.17.74-1.56,1.27-2.19,2.93-4.83,5.63-8.16,6.86-5.84,2.16-11.72,4.42-18.16,4.4-3.2,0-6.43.91-9.57-.34-1.47-.59-2.84-1.4-4.47-2.22h0Z"/>
      <path class="cls-2" d="M448.18,41.46c.68-.42,1.35-.87,2.05-1.25,3.99-2.14,7.49-4.93,10.17-8.56.98-1.34,1.2-3.22,1.89-4.8.32-.74.78-1.59,1.42-2.01,5.33-3.48,10.62-7.05,16.14-10.24,5.38-3.11,10.91-6.02,17.23-6.82,1.51-.19,3.05-.16,4.58-.28,1.27-.1,1.47.49,1.25,1.59-1.03,5.25-3.47,9.73-7.51,13.24-1.54,1.34-3.39,2.34-5.05,3.56-1.53,1.12-3.25,2.12-4.44,3.54-2.56,3.08-5.92,4.92-9.5,6.16-6.02,2.09-12.17,3.8-18.33,5.47-2.35.64-4.85.77-7.29,1.04-.83.09-1.69-.11-2.54-.17l-.09-.48h0Z"/>
      <path class="cls-2" d="M410.06,32.08c-.07,4.2-1.17,7.52-3.36,10.39-2.97,3.89-6.87,6.6-11.47,8.31-.71.27-1.46.57-2.02,1.05-.29.25-.45,1.06-.27,1.4,1.16,2.11.92,3.79-1.17,5.25-1.64,1.14-3.41,2.17-5.25,2.97-4,1.74-7.98,3.61-12.14,4.86-4.32,1.29-8.85,1.92-13.28,2.82-1.27.26-1.67-.27-1.45-1.55.41-2.37,2.01-3.93,3.57-5.54,2.01-2.07,4.09-4.08,5.97-6.26.82-.95,1.39-2.19,1.79-3.39,1.02-3.08,2.58-5.28,5.84-6.69,6.43-2.77,12.87-5.36,19.63-7.23,2.63-.73,4.98-2.44,7.48-3.65,1.89-.91,3.82-1.73,6.11-2.75h0Z"/>
      <path class="cls-2" d="M330,83.98c.86-1.07,1.68-1.77,2.1-2.66,1.55-3.29,3.24-6.54,4.37-9.98,2.33-7.11,6.91-12.24,13.15-16.07,4.32-2.65,8.99-4.43,14.01-5.19,1.31-.2,2.67-.03,4.01-.03.11.18.21.35.32.53-1.15,1.94-2.14,3.99-3.48,5.78-2.03,2.69-4.27,5.22-6.48,7.77-.81.94-1.29,1.77-.69,3.07.3.67.28,1.66.03,2.37-.98,2.85-2.16,5.6-5.19,6.95-4.97,2.22-9.89,4.58-14.93,6.64-1.77.72-3.83.75-5.76,1.05-.34.05-.71-.12-1.44-.25h0Z"/>
      <path class="cls-2" d="M336.23,65.89c-1.57,2.91-2.84,5.54-4.37,8.02-1.77,2.87-3.79,5.59-5.64,8.4-1.12,1.69-1.69,3.5-1.08,5.59.65,2.23-.81,3.87-2.1,5.22-2.98,3.1-5.99,6.26-9.44,8.77-2.69,1.96-5.87,3.51-9.73,3.75.17-1.04.32-1.87.43-2.69,1.01-7.15,3.44-13.87,6.37-20.41,1.47-3.29,4.14-5.63,6.87-7.79,3.2-2.52,6.53-4.92,10.02-7.01,1.86-1.11,4.16-1.51,6.29-2.11.55-.16,1.22.12,2.37.27Z"/>
      <path class="cls-2" d="M253.52,158.03c6.25-13.78,12.54-27.15,24.55-37.09.36.91.84,1.8,1.07,2.76,1.98,8.41,1.62,16.6-2.66,24.3-.67,1.2-1.89,2.14-2.99,3.04-3.26,2.66-6.56,5.26-9.89,7.83-.46.36-1.22.59-1.79.51-2.7-.37-5.37-.86-8.28-1.35Z"/>
      <path class="cls-2" d="M426.84,56.65c2.43-1.03,4.85-2.07,7.28-3.1,5.02-2.11,10.23-3.71,15.69-3.43,6.17.32,12.48.02,18.4,2.34,1.45.57,2.84,1.42,4.11,2.33,2.74,1.97,2.83,5.15-.1,6.82-5.67,3.23-11.72,4.26-18.06,1.93-1.48-.54-2.98-1.05-4.47-1.57-2.22-.76-4.49-1.39-6.65-2.29-5.14-2.13-10.46-2.99-16.01-2.56-.06-.16-.13-.32-.19-.49h0Z"/>
      <path class="cls-2" d="M522.96.07c-.91,4.65-1.77,9.09-2.68,13.52-.08.38-.36.87-.69,1.03-2.66,1.32-4.22,3.48-5.11,6.25-1.03,3.17-3.54,5.17-6.01,7.14-5.32,4.24-11.35,4.58-17.68,2.98-.24-.06-.44-.26-.56-.33,2.22-1.59,4.65-2.9,6.5-4.76,2.35-2.38,4.57-5.02,6.26-7.9,3.22-5.5,6.01-11.25,9.02-16.88.24-.44.83-.98,1.26-.99,3.17-.09,6.33-.04,9.68-.04Z"/>
      <path class="cls-2" d="M283.34,129.48c-.58-4.72-1.6-8.96.01-13.49,1.83-5.14,5.1-9.19,8.34-13.34,3.09-3.94,6.27-7.81,9.45-11.68,1.79-2.19,3.64-4.33,5.48-6.47.3-.35.71-.61,1.33-.76-.34,1.06-.68,2.13-1.02,3.18-.98,2.94-1.96,5.88-2.94,8.82-.17.52-.3,1.06-.55,1.54-1.56,2.99-2.17,6.02-1.4,9.44.79,3.48-.39,6.54-3,9.05-3.68,3.55-7.23,7.23-10.98,10.7-1.28,1.19-2.97,1.92-4.72,3.02h0Z"/>
      <path class="cls-2" d="M387.05,66.52c4.96-3.66,10.24-6.41,16.07-7.64,4.4-.93,8.97-1.27,13.49-1.4,4.4-.13,8.52,1.33,12.12,3.89,1.02.73,1.87,1.9,2.37,3.05.26.6-.21,1.78-.72,2.39-4.86,5.74-10.98,5.93-17.62,3.9-6.8-2.08-13.7-3.68-20.88-3.78-1.61-.02-3.21-.26-4.82-.4h0Z"/>
      <path class="cls-2" d="M461.46,47.74c2.12-.77,4.27-1.47,6.36-2.31,4.89-1.96,9.98-1.44,15.04-1.26,5.77.2,11.12-1.2,16.21-3.84,2.23-1.16,4.45-.81,6.56.36,1.45.8,1.91,2.1,1.38,3.63-1.4,4.04-4.26,6.75-8.09,8.47-1.24.55-2.57.9-3.87,1.31-4.15,1.3-8.25,1.03-12.38-.24-6-1.84-12.03-3.57-18.07-5.3-.97-.28-2.01-.32-3.02-.47-.04-.12-.08-.24-.11-.35h0Z"/>
      <path class="cls-2" d="M355.13,80.46c1.57-1.28,3.02-2.77,4.73-3.81,4.14-2.52,8.25-5.15,12.64-7.15,5.96-2.71,12.21-2.44,18.4-.43,1.1.36,1.29,1.05.99,2.02-1.38,4.43-3.83,7.87-8.45,9.48-2.96,1.03-5.88,1.78-9.1,1.54-3.64-.26-7.32.14-10.98-.03-2.68-.12-5.35-.68-8.02-1.05-.07-.19-.14-.38-.21-.58h0Z"/>
      <path class="cls-2" d="M324.36,100.11c3.52-4.4,6.55-8.95,11.38-11.8,4.33-2.55,8.74-4.73,14.01-4.23,1.4.13,2.84.03,4.26-.1,1.24-.11,1.75.5,1.74,1.58,0,1.19.08,2.46-.3,3.55-1.66,4.72-4.24,8.65-9.24,10.56-2.81,1.07-5.66,1.65-8.62,1.57-3.77-.1-7.53-.36-11.29-.6-.61-.04-1.2-.32-1.92-.52h0Z"/>
      <path class="cls-2" d="M301.92,123.21c1.36-7.13,4.91-12.67,10.53-16.92,2.58-1.94,5.18-3.95,8.56-4.1,2.08-.1,4.18.22,6.35.36-.07.73-.04,1.06-.13,1.35-1.79,5.56-4.11,10.88-8.44,14.94-4.71,4.42-10.27,6.18-16.88,4.36h0Z"/>
      <path class="cls-2" d="M348.73,107.34c1.14-2.75,2.6-5.29,5.12-7.09,1.95-1.4,3.78-3.05,5.92-4.07,3.02-1.44,6.2-2.8,9.46-3.46,3.48-.7,7.13-.65,10.71-.71,1.73-.03,2.66,1.76,2.02,3.67-1.04,3.12-3.25,5.28-6.4,6-3.54.81-7.19,1.15-10.8,1.65-4.94.67-10.05.65-14.49,3.45-.41.26-.8.53-1.2.79-.11-.08-.22-.15-.33-.23h0Z"/>
      <path class="cls-2" d="M380.4,90.96c.36-.57.64-1.23,1.11-1.71,4.72-4.78,10.52-7.77,16.89-9.52,3.07-.85,6.37-1.27,9.55-1.19,2.23.06,4.52,1.1,6.61,2.07,1.21.56,1.36,1.97.71,3.3-1.46,2.99-3.99,4.27-7.16,4.71-4.67.64-9.35.84-14.04.44-4.65-.4-9.17-.19-13.35,2.29-.11-.13-.21-.27-.32-.4Z"/>
      <path class="cls-2" d="M414.87,78.6c.4-.51.7-1.23,1.22-1.49,2.08-1.06,4.17-2.14,6.37-2.9,2.83-.97,5.72-1.83,8.65-2.4,4.9-.95,9.85-1.22,14.7.44.61.21,1.2.52,1.75.87,2.23,1.41,2.83,2.47,2.34,3.98-.85,2.6-2.45,3.85-4.8,3.89-6.78.11-13.29-1.63-19.83-3.06-2.68-.59-5.18-.49-7.72.36-.76.26-1.52.52-2.28.78-.13-.15-.27-.3-.4-.44h0Z"/>
      <path class="cls-2" d="M298.51,119.8c.33,6.15.6,11.93-3.22,16.91-1.78,2.32-3.9,4.23-6.66,5.36-1.41.58-2.78,1.28-4.21,1.81-.49.18-1.23.16-1.64-.1-.28-.18-.33-.97-.24-1.44,1.66-9.21,6.56-16.34,14.12-21.73.45-.33,1.04-.46,1.85-.8h0Z"/>
      <path class="cls-2" d="M320.88,125.65c.89-.98,1.73-2,2.69-2.92,3.13-3.01,6.07-6.3,9.54-8.85,2.98-2.2,6.59-3.55,9.96-5.22.56-.28,1.35-.46,1.9-.28,1.25.42,2.97.81,3.44,1.75.46.92-.06,2.75-.78,3.71-.99,1.34-2.45,2.47-3.92,3.29-3.14,1.74-6.35,3.4-9.67,4.74-2.55,1.03-5.34,1.5-8,2.29-1.63.48-3.22,1.08-4.83,1.63-.1-.05-.21-.1-.31-.14h0Z"/>
      <path class="cls-2" d="M302.6,149.61c0-.99-.07-1.71.01-2.41.24-2.02.2-4.15.87-6.02,1.84-5.1,5.48-8.88,9.9-11.85,1.7-1.13,3.69-1.9,5.65-2.53,2.02-.65,3.57,1.11,3.1,3.17-.61,2.69-2.51,4.38-4.45,6.08-3.11,2.73-6.23,5.46-9.26,8.28-1.07.99-1.92,2.22-2.84,3.37-.84,1.04-1.77,1.86-2.98,1.91h0Z"/>
      <path class="cls-2" d="M280.54,162.7c.24-5.73,14.9-20.42,20.22-20.16-.32,1.01-.44,2.07-.94,2.9-2.43,4.07-4.94,8.1-7.46,12.12-1.23,1.96-2.5,3.89-3.85,5.76-.28.39-1.02.74-1.48.67-2.15-.34-4.27-.83-6.49-1.29h0Z"/>
      <path class="cls-2" d="M357.45,126.84c.07,1.72-.87,2.36-1.89,2.93-3.1,1.71-6.26,3.32-9.31,5.12-3.53,2.07-5.9,5.26-8.02,8.68-1.5,2.42-3.73,4.07-6.22,5.36-.4.2-1.04-.07-1.57-.13.13-.52.18-1.08.41-1.55.54-1.11,1.33-2.11,1.75-3.25,2.16-5.82,5.98-10.23,11.47-13.04,3.03-1.55,6.29-2.67,9.51-3.79,1.13-.39,2.46-.22,3.86-.32Z"/>
      <path class="cls-2" d="M454.15,73.89c1.37-2.46,3.76-3.34,5.97-4.42,4.02-1.97,8.25-2.95,12.78-2.76,3.74.15,5.67,2.08,5.13,5.5-.26,1.61-1.36,2.64-2.76,2.87-1.67.28-3.44.15-5.13-.06-1.16-.15-2.34-.62-3.38-1.19-3.78-2.04-7.58-1.51-11.41-.27-.39.13-.8.22-1.19.33h0Z"/>
      <path class="cls-2" d="M434.39,94.74c2.65-2.76,4.81-5.08,8.65-5.59,8.54-1.12,17.01-2.82,25.21-5.72-.87,1.87-4.74,3.96-15.81,8.56-5.67,2.36-11.55,3.28-18.06,2.75h0Z"/>
      <path class="cls-2" d="M391.51,109.51c-2.42.78-4.55,1.53-6.72,2.15-4.48,1.28-8.12,3.72-11.32,7.11-2.58,2.74-5.66,4.97-9.6,5.49-.79.1-1.58.14-2.41.2.7-7.42,21.61-17.89,30.05-14.96h0Z"/>
      <path class="cls-2" d="M398.72,104.8c2.31-3.49,6-4.47,9.22-6.15,6.72-3.49,13.77-4.36,21.43-2.78-.49.24-.74.44-1.02.48-6.22.93-11.99,3.15-17.51,6.09-3.7,1.97-7.63,2.83-12.13,2.35Z"/>
      <path class="cls-2" d="M324.21,151.92c-1.61,1.17-3.18,2.4-4.83,3.5-3.91,2.6-6.97,6.01-9.67,9.79-.36.5-1.07.75-1.62,1.12-.29-.65-.79-1.28-.85-1.95-.34-4,1.85-6.82,4.71-9.16,1.72-1.4,3.64-2.58,5.57-3.68,2.11-1.21,4.33-.87,6.49-.18.07.19.13.37.2.56Z"/>
      <path class="cls-2" d="M502.76,57.34c-1.24,1.93-2.35,3.72-3.54,5.46-.17.24-.73.28-1.11.27-.3,0-.62-.2-.91-.34-3.2-1.66-6.49-2.85-10.21-1.78,2.59-2.25,12.19-4.45,15.77-3.6Z"/>
      <path class="cls-2" d="M0,186.65c.19-.09.43-.13.57-.26,6.46-6.26,14.48-9.42,23-11.6.62-.16,1.24-.33,2.02-.55-1.67,2.75-3.28,5.32-4.78,7.95-1,1.75-2.05,3.52-2.71,5.4-3.29,9.4-9.68,16.07-18.1,21.03v-21.97h0Z"/>
      <path class="cls-2" d="M0,217.47c1.38-1.13,2.75-2.28,4.16-3.38,4.98-3.84,10.58-6.02,16.91-6.19,2.13-.06,4.26-.17,6.39-.16,1.14,0,2.31.08,3.4.36,1.97.51,2.49,1.8,1.02,3.15-2.84,2.6-5.62,5.62-9.01,7.18-6.21,2.85-12.84,4.79-19.33,7.03-1.11.38-2.36.37-3.55.54v-8.53h0Z"/>
      <path class="cls-2" d="M0,239.77c4.85-2.42,9.8-4.6,15.28-5.07,1.72-.15,3.5-.08,5.2.2.63.1,1.4,1.03,1.58,1.72.12.48-.51,1.49-1.05,1.75-2.3,1.12-4.81,1.86-7.04,3.09-4.72,2.6-9.32,5.42-13.97,8.15v-9.84H0Z"/>
      <path class="cls-2" d="M189.18,172.26c3.32,0,6.35.29,9.31-.06,7.67-.89,14.26-4.03,19.09-10.27.79-1.03,1.54-1.15,2.78-1.03,13.09,1.3,25.52,5.43,38.12,8.81,4.12,1.1,8.07,3.01,11.96,4.84,4.23,1.99,4.55,6.97.76,9.72-2.64,1.91-5.73,2.78-8.93,2.95-5.23.29-10.48.44-15.72.41-1.98-.01-3.95-.79-5.95-1.04-.89-.11-1.91.04-2.75.39-4.71,1.93-9.5,3.28-14.65,2.26-4.65-.93-9.46-1.46-13.89-3.03-5.17-1.83-10.06-4.48-14.96-7.01-2.66-1.37-4.17-3.86-5.18-6.94h0Z"/>
      <path class="cls-2" d="M502.82,120.82c-.2-.75-.46-1.49-.58-2.25-.4-2.69-.74-5.4-1.11-8.1-.42-2.99-2.28-4.85-4.86-6.15-3.53-1.77-4.2-3.42-3.93-7.33.85-12.66,5.98-23.69,12.8-34.07,2.73-4.15,6.35-7.5,10.48-10.25,2.3-1.54,4.17-.6,4.43,2.2.24,2.6.35,5.23.3,7.85-.07,4.66.5,9,3.25,13.07,2.46,3.65,2.05,8.02.4,11.84-2.16,5.04-4.77,9.92-7.59,14.63-3.14,5.23-6.72,10.21-10.16,15.26-.84,1.23-1.92,2.29-2.89,3.43-.18-.05-.35-.09-.52-.13h0Z"/>
      <path class="cls-2" d="M488.55,95.21c-.16.97-.29,1.77-.43,2.56-.57,3.22.06,6.06,2.58,8.32.57.51,1.08,1.08,1.64,1.6,2.89,2.71,3.86,6.04,2.46,9.69-1.2,3.13-2.65,6.23-4.49,9.02-2.42,3.68-5.28,7.08-8.06,10.51-1.47,1.82-3.01,3.64-4.79,5.14-9.03,7.59-18.15,15.07-27.24,22.59-.07.06-.19.07-.62.22.51-.79.87-1.36,1.24-1.92,4.03-6.15,6.34-12.92,7.1-20.19.33-3.14.2-6.32.32-9.48.22-5.75,2.04-10.84,5.87-15.25,5.37-6.17,9.97-13.01,16.22-18.41,2.53-2.18,5.57-3.95,8.19-4.39h0Z"/>
      <path class="cls-2" d="M409.43,187.44c.89-1.19,1.81-2.26,2.55-3.45,2.55-4.08,4.12-8.57,4.65-13.33,1.05-9.35,4.82-17.28,11.92-23.51,4.63-4.07,9.31-8.09,14.12-11.93,2.88-2.3,5.92-3.25,8.86-3.45,5.49,24.86-13.98,53.89-42.1,55.66h0Z"/>
      <path class="cls-2" d="M252.7,190.28c2.99-.21,5.98-.34,8.96-.68,1.89-.22,3.74-.78,5.62-1.12,3.96-.71,7.06-2.79,9.46-5.95.69-.91,1.55-1.13,2.67-1.2,6.93-.41,13.84-1.09,20.77-1.37,7.6-.31,15.24-.42,22.61,1.82,3.3,1,6.4,2.64,9.83,4.08-4.11,4.73-8.06,8.85-13.88,10.63-3.99,1.23-7.96,2.23-12.21,1.91-1.57-.12-3.32.26-4.79.87-5.94,2.47-12.03,1.82-18.08.97-9.61-1.35-18.94-3.84-27.91-7.56-1.16-.48-2.18-1.3-3.27-1.97l.22-.44h0Z"/>
      <path class="cls-2" d="M523.8,64.55c.77-3.55-1.62-7.87-3.05-12.35-1.63-5.1-1.63-10.08.8-14.8,3.57-6.94,7.43-13.72,11.18-20.57.21-.38.46-.75.73-1.09,1.02-1.28,2.15-1.28,2.77.2.58,1.38.96,2.91,1.08,4.4.61,7.03,2.18,13.66,7.01,19.16,2.66,3.03,1.94,6.68,1.42,10.18-1.16,7.9-3.88,15.3-7.42,22.43-1.21,2.44-2.03,5.05-3.12,7.55-1.23,2.82-3.67,3.28-5.67.94-3.59-4.19-6.4-8.76-5.73-16.05h0Z"/>
      <path class="cls-2" d="M304.59,203.18c4.13.5,7.82-.23,11.43-1.31,4.74-1.42,9.06-3.71,13.17-6.48,7.43-5,14.96-9.86,22.52-14.68,5.94-3.79,12.77-4.96,19.55-6.15,1.88-.33,3.83-.27,5.86-.16-5.32,2.99-5.75,8.28-6.8,13.28-.46,2.18-1.12,4.32-1.85,6.42-1.59,4.57-5.16,7.05-9.63,8.01-3.87.83-7.87,1.32-11.83,1.43-3.65.1-6.83.73-9.62,3.28-5.63,5.14-17.84,6.95-25.56,2.12-2.25-1.4-4.3-3.12-6.42-4.72-.34-.26-.53-.69-.79-1.04h0Z"/>
      <path class="cls-2" d="M140.24,167.75c1.57-3.71,4.73-4.73,7.98-5.68,3.61-1.05,7.24-2.06,10.76-3.38,1.47-.55,2.81-1.69,3.96-2.81,2.77-2.7,5.73-4.03,9.82-3.52,7.31.91,14.66,1.25,21.89,3.02,3.88.96,7.99,1.02,12.01,1.35,2.83.23,5.68.21,8.51.35,1.43.07,1.72.54.95,1.71-3.58,5.46-8.64,8.71-15.07,9.71-4.26.66-8.54,1.05-12.88.26-2.07-.38-2.35.06-2.36,2.16-.01,1.82-.82,3.21-2.66,3.69-1.93.51-3.99.99-5.95.85-5.77-.41-11.55-.96-17.27-1.8-3.38-.5-6.7-1.56-9.99-2.55-3.23-.98-6.39-2.19-9.71-3.35h0Z"/>
      <path class="cls-2" d="M160.87,151.93c-5.25,3.61-10.45,6.34-16.11,8.17-1.14.37-2.4.54-3.4,1.14-.96.58-2.03,1.45-2.4,2.44-1.65,4.35-5.01,7.12-9.26,7.24-9.2.26-18.5.25-27.38-2.98-1.02-.37-1.98-.94-3.08-1.47.36-.43.44-.62.57-.66,5.35-1.64,9.57-5.03,13.36-8.92,5.25-5.39,11.66-8.48,18.92-9.73,8.11-1.4,16.14-.77,23.87,2.23,1.61.62,3.09,1.58,4.92,2.53h0Z"/>
      <path class="cls-2" d="M116.82,149.74c-1.63,1.32-2.67,2.42-3.92,3.13-4.03,2.31-8.13,4.48-12.2,6.7-1.44.78-2.87,1.57-4.34,2.31-2.3,1.16-3.98,2.74-4.53,5.43-.41,2.02-2.2,3.08-3.87,3.76-8.06,3.26-16.3,5.81-25.18,4.31-1.48-.25-2.92-.76-4.46-1.17.14-.5.14-.8.29-.99,6.18-8.25,13.5-15.35,22.04-21.12,3.66-2.47,8.05-3.08,12.32-3.71,4.21-.63,8.46-1.11,12.71-1.35,2.31-.13,4.69.22,6.98.68,1.31.26,2.49,1.18,4.18,2.02h0Z"/>
      <path class="cls-2" d="M371.27,197.16c2.11-4.14,3.83-8.54,6.44-12.33,2.54-3.68,5.58-7.28,9.13-9.94,7.36-5.52,15.2-10.42,22.86-15.52.9-.6,1.95-.97,2.96-1.37.65-.26,1.35-.39,2.17-.61-.45,3.09-.86,6.02-1.32,8.96-.3,1.94-.62,3.88-1.02,5.79-1.34,6.32-5.27,10.9-10.12,14.84-6.79,5.52-14.58,8.67-23.22,9.81-2.53.33-5.05.66-7.58.99-.11-.2-.21-.41-.31-.61h0Z"/>
      <path class="cls-2" d="M220.02,194.32c13.66-.1,26.35,2.97,37.53,11.24,4.4,3.26,9.06,6.15,12.06,10.92.38.6.75,1.21,1.16,1.79,2.64,3.82-.24,7.52-3.82,8.03-1.28.19-2.65.24-3.92.02-6.19-1.09-11.93-3.1-16.29-8-3.99-4.49-8.27-8.73-12.11-13.34-4-4.82-9.14-7.88-14.61-10.66h0Z"/>
      <path class="cls-2" d="M75.9,152.49c-.4.35-.81.68-1.2,1.03-5.26,4.76-10.59,9.47-15.74,14.34-1.22,1.15-1.93,2.85-2.77,4.35-.96,1.71-1.72,3.52-2.7,5.21-1.26,2.17-3.19,3.6-5.59,4.29-5.5,1.6-11.02,3.14-16.54,4.68-1.52.43-3.05.92-4.61,1.07-1.89.19-3.81.05-6.15.05.25-.92.39-1.78.71-2.55,3.57-8.44,9.53-14.64,17.95-18.2,11.62-4.91,23.36-9.52,35.06-14.25.45-.18.96-.23,1.45-.35.04.11.09.21.13.32h0Z"/>
      <path class="cls-2" d="M171.04,180.52c7.74-.29,15.09-.48,22.16,1.73,6.67,2.08,13.26,4.54,19.03,8.62,3.58,2.53,6.12,6.04,7.91,10.05.32.73.43,1.58.5,2.39.22,2.48-.45,3.17-2.85,3.99-8.23,2.8-14.82-.07-20.38-5.99-6.1-6.5-12.92-12.06-20.49-16.75-1.9-1.18-3.69-2.52-5.88-4.03h0Z"/>
      <path class="cls-2" d="M262.77,204.8c2.94.45,5.89.9,8.83,1.36,6.2.96,11.44,4.01,16.66,7.28,6.39,4.01,13.48,5.84,21.07,5.68,2.65-.05,6.69,3.6,6.75,6.24.02.96-.54,2.13-1.21,2.87-2.74,3.01-6.5,4.1-10.32,4.32-7.92.45-14.98-1.95-20.85-7.43-1.87-1.75-3.65-3.61-5.46-5.43-5.02-5.04-9.34-10.82-15.63-14.52l.17-.37h0Z"/>
      <path class="cls-2" d="M128.29,177.4c2.09-.5,4.16-1.33,6.27-1.45,5.94-.34,11.89-.53,17.84-.5,6.29.04,11.81,2.49,16.74,6.26,1.82,1.39,3.49,2.95,5.23,4.44.9.77.82,1.51.03,2.35-4.23,4.46-9.32,6.73-15.47,5.53-3.18-.62-6.39-1.59-9.29-3-4.85-2.37-9.52-5.13-14.15-7.93-2.55-1.54-4.86-3.48-7.28-5.25.02-.15.05-.3.07-.46h0Z"/>
      <path class="cls-2" d="M378.99,204.57c1.68,0,3.4-.24,5.03.04,5.43.93,10.41-.58,15.25-2.69,5.15-2.24,10.18-4.75,15.34-6.96,2.65-1.14,5.43-2.01,8.43-1.51,4.09.69,6.06,4.05,4.41,7.84-1.62,3.73-4.51,6.41-7.82,8.61-9.24,6.15-18.68,6.45-28.41,1.02-3.42-1.9-7.06-3.4-10.6-5.09-.57-.27-1.14-.56-1.71-.85.02-.14.04-.29.07-.43h0Z"/>
      <path class="cls-2" d="M83.79,180.23c9.36-4.92,19.17-8.02,29.72-5.26,4.4,1.15,8.43,3.77,12.58,5.83.36.18.58,1.24.41,1.75-.86,2.58-2.68,4.46-4.82,6.05-5.49,4.08-11.46,5.33-18.09,3.3-7.42-2.27-13.56-6.69-19.6-11.32-.12-.09-.16-.26-.2-.35h0Z"/>
      <path class="cls-2" d="M557.76.25c-.34,3.97-.65,7.93-1.03,11.89-.72,7.52-1.79,14.97-4.88,21.96-.37.84-.79,1.7-1.37,2.41-1.55,1.92-4.04,1.61-5.02-.66-.4-.92-.48-2-.57-3.02-.26-2.77-.39-5.55-.68-8.32-.37-3.63-2.33-6.55-4.52-9.3-1.72-2.15-2.47-4.45-1.72-7.15.65-2.36,1.3-4.72,2.06-7.05.13-.41.82-.9,1.26-.91,5.31-.06,10.61-.03,15.92-.02.15,0,.3.09.54.17h0Z"/>
      <path class="cls-2" d="M85.01,185.09c-5.62,6.2-12.16,10.77-20.29,12.45-6.67,1.37-12.94.1-18.21-4.59-.4-.36-.88-.63-1.3-.93,6.75-8.05,15.23-11.75,25.2-12.68,5.89-.55,10.57,1.4,14.61,5.75h0Z"/>
      <path class="cls-2" d="M531.09,130.87c.66-4.9.36-9.69-1.07-14.33-1.58-5.1-1.38-10.14-.05-15.17,1.3-4.94,3.1-9.73,6.78-13.45,1.41-1.43,3.26-2.52,5.08-3.43,1.68-.84,3.21-.09,4.28,1.67,1.73,2.85,1.74,5.97,1.02,9.04-.65,2.74-1.28,5.63-2.66,8.03-3.24,5.63-5.32,11.69-7.45,17.75-1.3,3.68-3.33,6.94-5.91,9.88h0Z"/>
      <path class="cls-2" d="M484.06,145.31c.36-.57.69-1.18,1.1-1.71,2.4-3.14,5.39-5.51,9.02-7.14,3.38-1.51,6.92-2.86,9.92-4.96,2.57-1.8,4.43-4.59,6.68-6.87,1.46-1.47,2.96-2.93,4.59-4.19,1.73-1.33,2.92-1.22,4.22.46.94,1.2,1.88,2.67,2.09,4.12.36,2.62.45,5.35.16,7.98-.46,4.06-3.02,6.89-6.59,8.6-4.25,2.04-8.87,2.93-13.37,1.26-6.25-2.32-11.77-1.1-17.09,2.39-.16.11-.35.18-.52.27-.07-.06-.14-.13-.21-.19h0Z"/>
      <path class="cls-2" d="M463.12,170.01c1.68-.76,3.4-1.46,5.04-2.29,4.07-2.06,7.46-4.88,10.01-8.73,1.96-2.97,4.09-5.85,7.18-7.76,1.13-.7,2.43-1.4,3.71-1.54,3.23-.35,6.29.11,7.93,3.51,2.01,4.19,1.73,8.57-1.05,11.31-1.4,1.39-3.12,2.73-4.94,3.38-6.44,2.3-13.07,4.02-20,3.65-2.65-.14-5.28-.79-7.92-1.2.02-.11.03-.21.05-.32h0Z"/>
      <path class="cls-2" d="M553.11,94.82c-.09-.96-.2-1.91-.28-2.87-.28-3.47-.51-6.94-.84-10.41-.53-5.44-1.25-10.89-.2-16.31.49-2.53,1.45-5.03,2.52-7.39,1.24-2.74,4.1-3.6,6.77-2.16,4.02,2.16,5.26,5.95,5.49,10.15.19,3.6-.61,7.15-2.29,10.28-3.42,6.37-7.19,12.55-10.81,18.81l-.34-.1Z"/>
      <path class="cls-2" d="M105.83,202.69c3.18-3.13,7-4.72,11.31-5.04,3.96-.29,8.02-.97,11.88-.43,6.62.92,13.18,2.44,18.78,6.62,2.6,1.94,2.98,3.72.57,5.97-2.9,2.7-6.45,3.38-10.22,2.55-4.81-1.06-9.28-3.04-13.77-5.08-5.84-2.65-11.8-5.19-18.55-4.59h0Z"/>
      <path class="cls-2" d="M148.91,204.13c2.89-2.07,5.82-2.63,8.71-2.99,7.68-.96,15.26-.51,22.54,2.42.81.33,1.62.69,2.47.87,4.58.97,7.25,4.42,9.99,7.73,1.18,1.43.59,3.66-1.01,4.68-2.74,1.74-5.77,2.32-8.78,1.2-3.67-1.36-7.27-2.96-10.74-4.77-3.77-1.96-7.34-4.29-11.02-6.44-2.64-1.54-5.53-2.3-8.57-2.49-1.03-.06-2.05-.12-3.59-.21h0Z"/>
      <path class="cls-2" d="M572.32,57.49c-5.3-5.45-10.6-10.41-10.21-18.56.04-.86-.14-1.74-.25-2.59-.09-.65-.27-1.28-.35-1.93-.54-3.98,5.52-12.58,9.42-13.36,2.2-.44,4.03.51,5.04,2.69,1.36,2.91,1.18,5.99.6,9-1.08,5.62-2.43,11.19-3.49,16.81-.46,2.44-.49,4.96-.76,7.95h0Z"/>
      <path class="cls-2" d="M325.18,219.59c8.67-.04,15.89-3.68,23.36-6.56,4.41-1.71,8.91-3.2,13.46-4.49,1.47-.42,3.28-.12,4.82.27,2.55.65,3.29,2.62,1.79,4.76-1.05,1.49-2.36,2.88-3.78,4.02-6.87,5.52-14.93,7.46-23.55,7.44-1.49,0-3.04-.38-4.46-.89-3.77-1.37-7.49-2.91-11.63-4.54h0Z"/>
      <path class="cls-2" d="M194.58,210.6c.9-.34,1.83-1.04,2.68-.95,4.27.46,8.57.91,12.77,1.78,6.05,1.26,11.98,2.99,17.12,6.67,2.51,1.8,4.83,3.74,6.26,6.57,1.9,3.76-.36,7.37-4.64,7.26-2.93-.07-5.28-1.66-7.52-3.32-2.02-1.49-3.95-3.1-5.88-4.71-3.4-2.83-6.83-5.62-10.14-8.55-2.54-2.24-5.54-3.18-8.76-3.72-.43-.07-.86-.14-1.29-.24-.15-.04-.29-.15-.43-.22l-.17-.57Z"/>
      <path class="cls-2" d="M428.21,188.6c7.02-6.09,14.37-10.51,23.29-11.68,4.96-.65,9.6.49,13.79,3.28,2.18,1.45,2.5,2.82.89,4.91-3.24,4.23-7.64,5.63-12.79,4.67-7.29-1.37-14.62-1.75-22.01-1.41-.92.04-1.83.13-3.17.23Z"/>
      <path class="cls-2" d="M43.8,186.16c-3.83,8.48-8.4,15.77-17.92,17.86-2.65.58-5.53.23-8.3.18-1.46-.03-2.95-.2-4.38-.52-1.53-.35-1.64-.9-.66-2.12,7.42-9.15,17.06-14.24,28.72-15.61.75-.09,1.54.12,2.54.2h0Z"/>
      <path class="cls-2" d="M372.58,232.12c2.72-3.09,5.95-5.41,9.68-6.88,6.46-2.55,13.13-3.21,19.93-1.51,1.3.33,2.62.83,3.77,1.51,2.54,1.49,3.49,4.12,2.57,6.57-1.1,2.9-4.02,4.79-6.82,4.16-2.07-.46-4.16-1.03-6.07-1.91-7.44-3.42-15.04-4.4-23.06-1.93h0Z"/>
      <path class="cls-2" d="M64.6,206.16c.44-.3.98-.9,1.65-1.1,5.01-1.51,10-3.13,15.08-4.36,5.71-1.37,11.52-.84,17.28-.2,2.22.25,3.69,1.78,4.78,3.64.69,1.18.2,2.23-.63,3.12-1.67,1.8-3.79,3.02-6.21,2.9-7.39-.37-14.89.49-22.11-1.87-.99-.32-1.94-.76-2.95-.96-2.25-.45-4.53-.78-6.9-1.18h0Z"/>
      <path class="cls-2" d="M30.54,220.91c.57-1.1.93-1.89,1.36-2.64.73-1.26,1.31-2.67,2.29-3.7,4.87-5.14,10.84-8.26,17.94-8.85,3.02-.25,6.09-.09,9.12.04,1.64.07,2.66,1.18,3.15,2.7.47,1.46-.51,2.33-1.42,3.22-2.23,2.17-5.07,2.88-7.98,3.49-7.04,1.48-14.19,2.55-20.8,5.66-1.3.61-2.71.67-3.67.08Z"/>
      <path class="cls-2" d="M341.13,238.82c.51-.58.79-1.12,1.23-1.37,3.58-2.07,7.07-4.36,10.84-6.01,2.8-1.23,5.97-1.19,8.86.39,1.34.74,2.69,1.45,3.98,2.27,2.98,1.9,3.23,7.66.27,9.4-1.15.68-2.84.99-4.15.74-2.11-.4-4.16-1.28-6.14-2.16-4.64-2.05-9.47-3.12-14.87-3.26h0Z"/>
      <path class="cls-2" d="M580.91,19.95c-1.74-2.67-4.08-3.57-6.85-3.61-2.26-.03-3.75-1.2-4.78-3.15-1.94-3.68-2.41-7.53-1.61-11.58.21-1.07.7-1.64,2-1.59,3.28.12,6.55.08,9.83.02,1.09-.02,1.55.3,1.67,1.42.54,5.28.82,10.55.08,15.83-.11.75-.19,1.51-.33,2.66h0Z"/>
      <path class="cls-2" d="M103.66,228.82c-.97,1.72-2.34,2.09-3.87,2.08-4.04,0-8.09-.09-12.13-.05-4.63.05-8.96,1.29-12.93,3.69-3.31,2-6.92,2.94-10.73,3.18-.59.04-1.25.08-1.77-.14-.45-.19-1.11-.82-1.04-1.09.13-.52.65-1.04,1.14-1.37.78-.51,1.81-.7,2.49-1.3,10.97-9.63,23.35-10.63,36.66-6.08.71.24,1.35.65,2.19,1.07Z"/>
      <path class="cls-2" d="M239.9,228.38c.9-.25,1.81-.77,2.69-.72,4.56.26,9.21.21,13.65,1.15,3.32.7,6.55,2.41,9.46,4.24,3.83,2.42,3.46,7.24-.42,9.29-2.13,1.13-4.19.56-6.04-.64-1.22-.79-2.43-1.76-3.29-2.92-4.04-5.39-9.04-9.16-16.02-9.81,0-.2-.02-.41-.03-.61h0Z"/>
      <path class="cls-2" d="M250.22,248.3c-3.25.11-6.52.51-9.74.27-6.15-.45-12.31-1.07-18.41-1.98-4.85-.72-9.33-2.68-13.48-5.32-.72-.46-1.38-1.02-2.18-1.61,4.59-1.7,8.74-2.33,13.47-.47,9.81,3.85,19.89,6.96,30.37,8.54l-.03.57h0Z"/>
      <path class="cls-2" d="M109.06,228.3c9.96-6.99,31.76-7.09,41.81,2.12-2.33-.51-4.26-.89-6.16-1.36-5.71-1.39-11.41-1.72-17.16-.15-2.77.75-5.6,1.35-8.44,1.81-2.93.48-5.76-.22-8.47-1.32-.56-.23-1.02-.7-1.59-1.1h0Z"/>
      <path class="cls-2" d="M411.87,224.91c2.07-2.55,3.99-5.24,6.25-7.62,2.84-2.99,6.26-5.3,10.08-6.87,2.35-.97,4.84-1.37,6.88.66.6.59,1.05,1.74.94,2.55-.52,3.83-2.91,6.48-6.01,8.55-1.14.76-2.37.44-3.39-.26-2.31-1.57-4.62-1.38-6.98-.26-1.68.79-3.32,1.64-4.99,2.46-.81.4-1.63.77-2.44,1.15l-.34-.37h0Z"/>
      <path class="cls-2" d="M439.81,208.67c.43-.85.76-1.78,1.32-2.55,2.98-4.08,6.72-7.36,11.4-9.28,1.95-.8,4.24-.88,6.4-1.07,1.55-.14,2.87.53,3.65,2.01.82,1.56.21,2.86-.69,4.09-2.44,3.3-5.9,4.51-9.83,4.72-.98.05-1.97.08-2.95,0-3.27-.26-6.32.25-9,2.35-.1-.09-.2-.18-.3-.27h0Z"/>
      <path class="cls-2" d="M199.73,238.1c-2.45-.68-4.88-1.48-7.36-2.03-5.23-1.17-10.5-2-15.91-1.91-5.48.09-10.46-1.72-15.63-4.77,1.87-.54,3.29-1.29,4.72-1.32,7.56-.15,15.1.14,22.37,2.51,4.54,1.48,8.06,4.68,12.01,7.14-.06.13-.13.26-.19.39h0Z"/>
      <path class="cls-2" d="M311.25,236.27c1.92-2.04,4.28-2.76,6.81-3.09,3.99-.52,7.84.17,11.58,1.49,3.72,1.32,5.73,4.22,6.73,7.88.55,2.01-1.2,4.08-3.27,3.79-1.25-.18-2.56-.64-3.62-1.32-1.46-.93-2.82-2.07-4.01-3.32-3.4-3.56-7.46-5.4-12.41-5.18-.43.02-.87,0-1.31-.03-.1,0-.19-.08-.49-.22Z"/>
      <path class="cls-2" d="M469.7,193.09c2.4-5.69,6.09-10.1,11.34-13.1,2.43-1.39,5.32-.89,7.1.97,1.8,1.9,2.03,4.85.58,7.29-1.04,1.75-2.66,2-4.52,2.01-2.82,0-5.69-.07-8.45.41-2.02.35-3.9,1.53-6.05,2.43h0Z"/>
      <path class="cls-2" d="M52.56,236.34c-1.17.13-2.35.29-3.52.4-6.82.68-13.54,1.66-19.62,5.18-.79.46-1.92.32-2.89.46.11-1.07-.04-2.25.37-3.2,1.04-2.39,2.92-4.05,5.33-5.07,4.46-1.87,9.14-2.51,13.94-2.24,2.86.16,4.74,1.98,6.55,3.86-.05.19-.11.39-.16.59Z"/>
      <path class="cls-2" d="M506.83,160.21c2.48-5.94,6.42-9.97,13.08-10.63.87-.09,1.73-.21,2.6-.31,2.14-.23,3.53,1.28,3.16,3.42-.47,2.7-3.4,5.53-6.4,6.08-1.17.21-2.38.3-3.58.29-2.99-.03-5.99-.21-8.86,1.15h0Z"/>
      <path class="cls-2" d="M547.44,123.39c-.96-1.72-.81-3.53-.55-5.26.67-4.39,2.05-8.57,4.93-12.04,1.42-1.71,3.35-2.81,5.7-2.78,1.99.03,3,1.17,2.45,3.08-.4,1.38-1.07,2.76-1.92,3.92-1.55,2.1-3.37,4-5.02,6.03-1.85,2.27-3.64,4.59-5.6,7.04h0Z"/>
      <path class="cls-2" d="M489.05,178.21c.36-1.15.53-2.42,1.13-3.44,2.64-4.45,6.62-7.02,11.73-7.75,1.09-.15,2.4-.05,3.35.44.83.43,1.68,1.49,1.86,2.4.5,2.51-1.74,5.36-4.3,5.64-1.4.15-2.84.13-4.24-.03-3.18-.37-5.95.41-8.33,2.56-.19.17-.43.29-.65.43-.18-.08-.36-.17-.55-.25h0Z"/>
      <path class="cls-2" d="M282.74,233.78c3.9.69,7.79,1.38,11.69,2.05,3.23.56,6.01,1.95,8.23,4.38,1.55,1.69,1.65,3.16.39,5.01-1.63,2.38-3.71,2.76-6,.98-.98-.77-1.91-1.66-2.65-2.66-3.1-4.18-6.52-7.93-11.83-9.39.06-.12.11-.24.17-.37h0Z"/>
      <path class="cls-2" d="M405.2,241.7c-1.83,4.61-5.46,6.76-9.65,8.28-6.73,2.44-13.78,3.31-20.8,4.29-.2.03-.42-.03-.82-.07,2.38-2.89,5.13-4.88,8.83-5.13,7.53-.51,14.3-3.33,20.91-6.66.47-.24.95-.44,1.54-.71h0Z"/>
      <path class="cls-2" d="M525.67,144.16c.54-.69.84-1.13,1.19-1.51,2.66-2.89,5.29-5.81,8.01-8.65,2.34-2.45,5.02-4.17,8.68-3.61,1.34.21,1.83.96,1.23,1.99-.96,1.67-1.87,3.77-3.4,4.63-4.73,2.65-9.75,4.81-14.66,7.14-.17.08-.41,0-1.05,0h0Z"/>
      <path class="cls-2" d="M560.35,97.6c0-1-.16-1.56.03-1.94,1.83-3.69,3.62-7.42,5.64-11.01.77-1.38,2.09-2.46,3.2-3.64.25-.26.64-.43.99-.55,2.47-.81,3.78.39,3.22,3.02-.88,4.13-3.18,7.39-6.54,9.87-1.95,1.44-4.07,2.66-6.54,4.26h0Z"/>
      <path class="cls-2" d="M581.19,47.65c0-1.87-.24-3.77.06-5.59.42-2.57,1.2-5.09,1.88-7.62.83-3.1,2.62-5.35,5.81-6.31,1.7-.52,2.46-.02,2.24,1.76-.16,1.28-.47,2.61-1.04,3.75-1.28,2.52-2.7,4.98-4.18,7.39-1.39,2.26-2.95,4.43-4.44,6.63-.11,0-.21,0-.32-.01h0Z"/>
      <path class="cls-2" d="M573.09,73.71c.32-.6.71-1.17.94-1.8.86-2.35,1.78-4.68,2.47-7.07,1.07-3.69,2.41-7.13,5.92-9.25,1.79-1.08,2.82-.7,2.91,1.42.06,1.37-.06,2.92-.65,4.13-2.31,4.77-5.57,8.83-9.88,12-.45.33-.98.56-1.48.83-.08-.08-.17-.16-.25-.24h0Z"/>
      <path class="cls-2" d="M597.29,7.1c-.47,1.34-.63,2.69-1.32,3.66-2.08,2.91-4.35,5.7-6.59,8.49-.64.8-1.5,1.31-2.57.6-.98-.65-1.1-1.54-.73-2.58.83-2.3,1.55-4.64,2.51-6.89.94-2.21,2.52-4,4.72-5.01.83-.38,2.02-.36,2.92-.09.49.15.72,1.18,1.07,1.82Z"/>
      <path class="cls-2" d="M415.74,241.47c.39-.58.65-1.34,1.19-1.72,1.34-.93,2.74-1.8,4.22-2.48,5.91-2.76,11.54-5.95,16.66-10.03,1.17-.94,2.5-1.68,3.9-2.37-.68,2.37-1.88,4.37-3.58,6.1-2.95,3.02-6.47,5.19-10.34,6.78-3.28,1.35-6.61,2.56-9.94,3.8-.54.2-1.13.25-1.7.37-.14-.15-.27-.31-.41-.46h0Z"/>
      <path class="cls-2" d="M361.95,255.12c-4.56,3.71-9.86,3.71-15,3.66-5.03-.04-10.33,1.04-14.95-2.19,9.92-.73,19.75-2.75,29.95-1.47h0Z"/>
      <path class="cls-2" d="M499.36,195.26c-.16-.82-.24-1.29-.34-1.77-.26-1.2,0-1.9,1.32-2.46,2.95-1.26,4.74-3.78,6.15-6.55.7-1.36,1.28-2.77,1.94-4.15.33-.69.61-1.45,1.11-1.99.51-.53,1.52-1.28,1.89-1.1.61.31,1.3,1.32,1.24,1.98-.16,1.81-.41,3.71-1.12,5.36-1.49,3.44-4.07,6.06-7.25,8.03-1.52.94-3.15,1.7-4.94,2.65h0Z"/>
      <path class="cls-2" d="M307.56,254.17c-10.88,1.86-21.76,3.42-32.45-.63,1.92-1.05,4.23-1.21,6.58-1.11,4.54.2,9.07.44,13.6.62,4.09.16,8.18.25,12.27.36v.75h0Z"/>
      <path class="cls-2" d="M476.26,203.2c-.16,1.35-.11,2.77-.53,4.04-.98,2.96-2.69,5.54-5.39,7.2-2.68,1.64-5.52,3.03-8.44,4.61-.44-.83-.76-1.42-1.13-2.1,5.9-3.72,10.41-8.75,14.91-13.79l.58.04Z"/>
      <path class="cls-2" d="M597.36,44.02c1.11,2.5,1.27,5.16.67,7.76-1.5,6.53-4.32,12.42-9.12,17.23-.15.15-.31.3-.49.43-.08.06-.2.07-.66.24,1.48-2.87,3.06-5.42,4.14-8.17,1.12-2.82,1.8-5.81,2.61-8.74.8-2.92,1.53-5.86,2.29-8.79.19.01.37.03.56.04h0Z"/>
      <path class="cls-2" d="M565.22,120.08c2.11,1.99,1.98,4.01,1.52,5.98-.98,4.16-2.75,7.95-5.92,10.94-2.02,1.92-4.09,3.79-6.19,5.62-.41.36-1.06.45-1.82.42,7.23-5.87,10.6-13.77,12.4-22.96h0Z"/>
      <path class="cls-2" d="M606.56,2.45c3.05,7.25-1.84,19.53-6.97,24.57,2.32-8.2,4.65-16.38,6.97-24.57Z"/>
      <path class="cls-2" d="M581.73,85.04c2.49,7.56-2.11,16.06-9.54,22.42,5.34-6.39,6.51-14.55,9.54-22.42Z"/>
      <path class="cls-2" d="M528.79,165.68c2.84-4.76,5.84-9.8,8.79-14.75,1.91,2.92-3.32,11.73-8.79,14.75Z"/>
    </g>
  </g>
</svg>