<?xml version="1.0" encoding="UTF-8"?>
<svg id="LOUD_Pattern_02" data-name="LOUD Pattern 02" xmlns="http://www.w3.org/2000/svg" version="1.1" viewBox="0 0 1000 942">
  <defs>
    <style>
      .cls-1 {
        fill: #13ff00;
        stroke-width: 0px;
      }
    </style>
  </defs>
  <path class="cls-1" d="M79.4,125.7h14.9V59.5h-14.9L5.8,83.1v17.6l73.6,24.9ZM21.4,91.4l58-16.3v34.9l-58-17.6v-1Z"/>
  <path class="cls-1" d="M194.3,100.7v-17.6s-73.6-23.6-73.6-23.6h-14.9s0,66.1,0,66.1h14.9s73.6-24.9,73.6-24.9ZM178.7,92.4l-58,17.6v-34.9s58,16.3,58,16.3v1Z"/>
  <path class="cls-1" d="M79.4,243.4h14.9v-66.1h-14.9L5.8,200.9v17.6l73.6,24.9ZM21.4,209.2l58-16.3v34.9l-58-17.6v-1Z"/>
  <path class="cls-1" d="M194.3,218.5v-17.6s-73.6-23.6-73.6-23.6h-14.9s0,66.1,0,66.1h14.9s73.6-24.9,73.6-24.9ZM178.7,210.2l-58,17.6v-34.9s58,16.3,58,16.3v1Z"/>
  <path class="cls-1" d="M20.7,235.5H5.8v66.1h14.9l73.6-23.6v-17.6l-73.6-24.9ZM78.7,269.7l-58,16.3v-34.9l58,17.6v1Z"/>
  <path class="cls-1" d="M105.8,260.4v17.6s73.6,23.6,73.6,23.6h14.9s0-66.1,0-66.1h-14.9s-73.6,24.9-73.6,24.9ZM121.4,268.7l58-17.6v34.9s-58-16.3-58-16.3v-1Z"/>
  <path class="cls-1" d="M79.4,361.1h14.9v-66.1h-14.9l-73.6,23.6v17.6l73.6,24.9ZM21.4,326.9l58-16.3v34.9l-58-17.6v-1Z"/>
  <path class="cls-1" d="M194.3,336.2v-17.6s-73.6-23.6-73.6-23.6h-14.9s0,66.1,0,66.1h14.9s73.6-24.9,73.6-24.9ZM178.7,327.9l-58,17.6v-34.9s58,16.3,58,16.3v1Z"/>
  <path class="cls-1" d="M20.7,353.2H5.8v66.1h14.9l73.6-23.6v-17.6l-73.6-24.9ZM78.7,387.4l-58,16.3v-34.9l58,17.6v1Z"/>
  <path class="cls-1" d="M105.8,378.2v17.6s73.6,23.6,73.6,23.6h14.9s0-66.1,0-66.1h-14.9s-73.6,24.9-73.6,24.9ZM121.4,386.5l58-17.6v34.9s-58-16.3-58-16.3v-1Z"/>
  <path class="cls-1" d="M79.4,478.9h14.9v-66.1h-14.9l-73.6,23.6v17.6l73.6,24.9ZM21.4,444.7l58-16.3v34.9l-58-17.6v-1Z"/>
  <path class="cls-1" d="M194.3,454v-17.6s-73.6-23.6-73.6-23.6h-14.9s0,66.1,0,66.1h14.9s73.6-24.9,73.6-24.9ZM178.7,445.7l-58,17.6v-34.9s58,16.3,58,16.3v1Z"/>
  <path class="cls-1" d="M20.7,471H5.8v66.1h14.9l73.6-23.6v-17.6l-73.6-24.9ZM78.7,505.2l-58,16.3v-34.9l58,17.6v1Z"/>
  <path class="cls-1" d="M105.8,495.9v17.6s73.6,23.6,73.6,23.6h14.9s0-66.1,0-66.1h-14.9s-73.6,24.9-73.6,24.9ZM121.4,504.2l58-17.6v34.9s-58-16.3-58-16.3v-1Z"/>
  <path class="cls-1" d="M79.4,596.6h14.9v-66.1h-14.9l-73.6,23.6v17.6l73.6,24.9ZM21.4,562.4l58-16.3v34.9l-58-17.6v-1Z"/>
  <path class="cls-1" d="M194.3,571.7v-17.6s-73.6-23.6-73.6-23.6h-14.9s0,66.1,0,66.1h14.9s73.6-24.9,73.6-24.9ZM178.7,563.4l-58,17.6v-34.9s58,16.3,58,16.3v1Z"/>
  <path class="cls-1" d="M20.7,588.7H5.8v66.1h14.9l73.6-23.6v-17.6l-73.6-24.9ZM78.7,622.9l-58,16.3v-34.9l58,17.6v1Z"/>
  <path class="cls-1" d="M105.8,613.6v17.6s73.6,23.6,73.6,23.6h14.9s0-66.1,0-66.1h-14.9s-73.6,24.9-73.6,24.9ZM121.4,621.9l58-17.6v34.9s-58-16.3-58-16.3v-1Z"/>
  <path class="cls-1" d="M79.4,714.4h14.9v-66.1h-14.9l-73.6,23.6v17.6l73.6,24.9ZM21.4,680.2l58-16.3v34.9l-58-17.6v-1Z"/>
  <path class="cls-1" d="M194.3,689.5v-17.6s-73.6-23.6-73.6-23.6h-14.9s0,66.1,0,66.1h14.9s73.6-24.9,73.6-24.9ZM178.7,681.2l-58,17.6v-34.9s58,16.3,58,16.3v1Z"/>
  <path class="cls-1" d="M20.7,706.5H5.8v66.1h14.9l73.6-23.6v-17.6l-73.6-24.9ZM78.7,740.7l-58,16.3v-34.9l58,17.6v1Z"/>
  <path class="cls-1" d="M105.8,731.4v17.6s73.6,23.6,73.6,23.6h14.9s0-66.1,0-66.1h-14.9s-73.6,24.9-73.6,24.9ZM121.4,739.7l58-17.6v34.9s-58-16.3-58-16.3v-1Z"/>
  <path class="cls-1" d="M79.4,832.1h14.9v-66.1h-14.9l-73.6,23.6v17.6l73.6,24.9ZM21.4,797.9l58-16.3v34.9l-58-17.6v-1Z"/>
  <path class="cls-1" d="M194.3,807.2v-17.6s-73.6-23.6-73.6-23.6h-14.9s0,66.1,0,66.1h14.9s73.6-24.9,73.6-24.9ZM178.7,798.9l-58,17.6v-34.9s58,16.3,58,16.3v1Z"/>
  <path class="cls-1" d="M20.7,824.2H5.8v66.1h14.9l73.6-23.6v-17.6l-73.6-24.9ZM78.7,858.4l-58,16.3v-34.9l58,17.6v1Z"/>
  <path class="cls-1" d="M105.8,849.1v17.6s73.6,23.6,73.6,23.6h14.9s0-66.1,0-66.1h-14.9s-73.6,24.9-73.6,24.9ZM121.4,857.4l58-17.6v34.9s-58-16.3-58-16.3v-1Z"/>
  <path class="cls-1" d="M279.4,125.7h14.9V59.5h-14.9l-73.6,23.6v17.6l73.6,24.9ZM221.4,91.4l58-16.3v34.9l-58-17.6v-1Z"/>
  <path class="cls-1" d="M394.3,100.7v-17.6s-73.6-23.6-73.6-23.6h-14.9s0,66.1,0,66.1h14.9s73.6-24.9,73.6-24.9ZM378.7,92.4l-58,17.6v-34.9s58,16.3,58,16.3v1Z"/>
  <path class="cls-1" d="M279.4,243.4h14.9v-66.1h-14.9l-73.6,23.6v17.6l73.6,24.9ZM221.4,209.2l58-16.3v34.9l-58-17.6v-1Z"/>
  <path class="cls-1" d="M394.3,218.5v-17.6s-73.6-23.6-73.6-23.6h-14.9s0,66.1,0,66.1h14.9s73.6-24.9,73.6-24.9ZM378.7,210.2l-58,17.6v-34.9s58,16.3,58,16.3v1Z"/>
  <path class="cls-1" d="M220.7,235.5h-14.9v66.1h14.9l73.6-23.6v-17.6l-73.6-24.9ZM278.7,269.7l-58,16.3v-34.9l58,17.6v1Z"/>
  <path class="cls-1" d="M305.7,260.4v17.6s73.6,23.6,73.6,23.6h14.9s0-66.1,0-66.1h-14.9s-73.6,24.9-73.6,24.9ZM321.4,268.7l58-17.6v34.9s-58-16.3-58-16.3v-1Z"/>
  <path class="cls-1" d="M279.4,361.1h14.9v-66.1h-14.9l-73.6,23.6v17.6l73.6,24.9ZM221.4,326.9l58-16.3v34.9l-58-17.6v-1Z"/>
  <path class="cls-1" d="M394.3,336.2v-17.6s-73.6-23.6-73.6-23.6h-14.9s0,66.1,0,66.1h14.9s73.6-24.9,73.6-24.9ZM378.7,327.9l-58,17.6v-34.9s58,16.3,58,16.3v1Z"/>
  <path class="cls-1" d="M220.7,353.2h-14.9v66.1h14.9l73.6-23.6v-17.6l-73.6-24.9ZM278.7,387.4l-58,16.3v-34.9l58,17.6v1Z"/>
  <path class="cls-1" d="M305.7,378.2v17.6s73.6,23.6,73.6,23.6h14.9s0-66.1,0-66.1h-14.9s-73.6,24.9-73.6,24.9ZM321.4,386.5l58-17.6v34.9s-58-16.3-58-16.3v-1Z"/>
  <path class="cls-1" d="M279.4,478.9h14.9v-66.1h-14.9l-73.6,23.6v17.6l73.6,24.9ZM221.4,444.7l58-16.3v34.9l-58-17.6v-1Z"/>
  <path class="cls-1" d="M394.3,454v-17.6s-73.6-23.6-73.6-23.6h-14.9s0,66.1,0,66.1h14.9s73.6-24.9,73.6-24.9ZM378.7,445.7l-58,17.6v-34.9s58,16.3,58,16.3v1Z"/>
  <path class="cls-1" d="M220.7,471h-14.9v66.1h14.9l73.6-23.6v-17.6l-73.6-24.9ZM278.7,505.2l-58,16.3v-34.9l58,17.6v1Z"/>
  <path class="cls-1" d="M305.7,495.9v17.6s73.6,23.6,73.6,23.6h14.9s0-66.1,0-66.1h-14.9s-73.6,24.9-73.6,24.9ZM321.4,504.2l58-17.6v34.9s-58-16.3-58-16.3v-1Z"/>
  <path class="cls-1" d="M279.4,596.6h14.9v-66.1h-14.9l-73.6,23.6v17.6l73.6,24.9ZM221.4,562.4l58-16.3v34.9l-58-17.6v-1Z"/>
  <path class="cls-1" d="M394.3,571.7v-17.6s-73.6-23.6-73.6-23.6h-14.9s0,66.1,0,66.1h14.9s73.6-24.9,73.6-24.9ZM378.7,563.4l-58,17.6v-34.9s58,16.3,58,16.3v1Z"/>
  <path class="cls-1" d="M220.7,588.7h-14.9v66.1h14.9l73.6-23.6v-17.6l-73.6-24.9ZM278.7,622.9l-58,16.3v-34.9l58,17.6v1Z"/>
  <path class="cls-1" d="M305.7,613.6v17.6s73.6,23.6,73.6,23.6h14.9s0-66.1,0-66.1h-14.9s-73.6,24.9-73.6,24.9ZM321.4,621.9l58-17.6v34.9s-58-16.3-58-16.3v-1Z"/>
  <path class="cls-1" d="M279.4,714.4h14.9v-66.1h-14.9l-73.6,23.6v17.6l73.6,24.9ZM221.4,680.2l58-16.3v34.9l-58-17.6v-1Z"/>
  <path class="cls-1" d="M394.3,689.5v-17.6s-73.6-23.6-73.6-23.6h-14.9s0,66.1,0,66.1h14.9s73.6-24.9,73.6-24.9ZM378.7,681.2l-58,17.6v-34.9s58,16.3,58,16.3v1Z"/>
  <path class="cls-1" d="M220.7,706.5h-14.9v66.1h14.9l73.6-23.6v-17.6l-73.6-24.9ZM278.7,740.7l-58,16.3v-34.9l58,17.6v1Z"/>
  <path class="cls-1" d="M305.7,731.4v17.6s73.6,23.6,73.6,23.6h14.9s0-66.1,0-66.1h-14.9s-73.6,24.9-73.6,24.9ZM321.4,739.7l58-17.6v34.9s-58-16.3-58-16.3v-1Z"/>
  <path class="cls-1" d="M279.4,832.1h14.9v-66.1h-14.9l-73.6,23.6v17.6l73.6,24.9ZM221.4,797.9l58-16.3v34.9l-58-17.6v-1Z"/>
  <path class="cls-1" d="M394.3,807.2v-17.6s-73.6-23.6-73.6-23.6h-14.9s0,66.1,0,66.1h14.9s73.6-24.9,73.6-24.9ZM378.7,798.9l-58,17.6v-34.9s58,16.3,58,16.3v1Z"/>
  <path class="cls-1" d="M220.7,824.2h-14.9v66.1h14.9l73.6-23.6v-17.6l-73.6-24.9ZM278.7,858.4l-58,16.3v-34.9l58,17.6v1Z"/>
  <path class="cls-1" d="M305.7,849.1v17.6s73.6,23.6,73.6,23.6h14.9s0-66.1,0-66.1h-14.9s-73.6,24.9-73.6,24.9ZM321.4,857.4l58-17.6v34.9s-58-16.3-58-16.3v-1Z"/>
  <path class="cls-1" d="M479.3,125.7h14.9V59.5h-14.9l-73.6,23.6v17.6l73.6,24.9ZM421.4,91.4l58-16.3v34.9l-58-17.6v-1Z"/>
  <path class="cls-1" d="M594.3,100.7v-17.6s-73.6-23.6-73.6-23.6h-14.9s0,66.1,0,66.1h14.9s73.6-24.9,73.6-24.9ZM578.6,92.4l-58,17.6v-34.9s58,16.3,58,16.3v1Z"/>
  <path class="cls-1" d="M479.3,243.4h14.9v-66.1h-14.9l-73.6,23.6v17.6l73.6,24.9ZM421.4,209.2l58-16.3v34.9l-58-17.6v-1Z"/>
  <path class="cls-1" d="M594.3,218.5v-17.6s-73.6-23.6-73.6-23.6h-14.9s0,66.1,0,66.1h14.9s73.6-24.9,73.6-24.9ZM578.6,210.2l-58,17.6v-34.9s58,16.3,58,16.3v1Z"/>
  <path class="cls-1" d="M420.7,235.5h-14.9v66.1h14.9l73.6-23.6v-17.6l-73.6-24.9ZM478.7,269.7l-58,16.3v-34.9l58,17.6v1Z"/>
  <path class="cls-1" d="M505.7,260.4v17.6s73.6,23.6,73.6,23.6h14.9s0-66.1,0-66.1h-14.9s-73.6,24.9-73.6,24.9ZM521.3,268.7l58-17.6v34.9s-58-16.3-58-16.3v-1Z"/>
  <path class="cls-1" d="M479.3,361.1h14.9v-66.1h-14.9l-73.6,23.6v17.6l73.6,24.9ZM421.4,326.9l58-16.3v34.9l-58-17.6v-1Z"/>
  <path class="cls-1" d="M594.3,336.2v-17.6s-73.6-23.6-73.6-23.6h-14.9s0,66.1,0,66.1h14.9s73.6-24.9,73.6-24.9ZM578.6,327.9l-58,17.6v-34.9s58,16.3,58,16.3v1Z"/>
  <path class="cls-1" d="M420.7,353.2h-14.9v66.1h14.9l73.6-23.6v-17.6l-73.6-24.9ZM478.7,387.4l-58,16.3v-34.9l58,17.6v1Z"/>
  <path class="cls-1" d="M505.7,378.2v17.6s73.6,23.6,73.6,23.6h14.9s0-66.1,0-66.1h-14.9s-73.6,24.9-73.6,24.9ZM521.3,386.5l58-17.6v34.9s-58-16.3-58-16.3v-1Z"/>
  <path class="cls-1" d="M479.3,478.9h14.9v-66.1h-14.9l-73.6,23.6v17.6l73.6,24.9ZM421.4,444.7l58-16.3v34.9l-58-17.6v-1Z"/>
  <path class="cls-1" d="M594.3,454v-17.6s-73.6-23.6-73.6-23.6h-14.9s0,66.1,0,66.1h14.9s73.6-24.9,73.6-24.9ZM578.6,445.7l-58,17.6v-34.9s58,16.3,58,16.3v1Z"/>
  <path class="cls-1" d="M420.7,471h-14.9v66.1h14.9l73.6-23.6v-17.6l-73.6-24.9ZM478.7,505.2l-58,16.3v-34.9l58,17.6v1Z"/>
  <path class="cls-1" d="M505.7,495.9v17.6s73.6,23.6,73.6,23.6h14.9s0-66.1,0-66.1h-14.9s-73.6,24.9-73.6,24.9ZM521.3,504.2l58-17.6v34.9s-58-16.3-58-16.3v-1Z"/>
  <path class="cls-1" d="M479.3,596.6h14.9v-66.1h-14.9l-73.6,23.6v17.6l73.6,24.9ZM421.4,562.4l58-16.3v34.9l-58-17.6v-1Z"/>
  <path class="cls-1" d="M594.3,571.7v-17.6s-73.6-23.6-73.6-23.6h-14.9s0,66.1,0,66.1h14.9s73.6-24.9,73.6-24.9ZM578.6,563.4l-58,17.6v-34.9s58,16.3,58,16.3v1Z"/>
  <path class="cls-1" d="M420.7,588.7h-14.9v66.1h14.9l73.6-23.6v-17.6l-73.6-24.9ZM478.7,622.9l-58,16.3v-34.9l58,17.6v1Z"/>
  <path class="cls-1" d="M505.7,613.6v17.6s73.6,23.6,73.6,23.6h14.9s0-66.1,0-66.1h-14.9s-73.6,24.9-73.6,24.9ZM521.3,621.9l58-17.6v34.9s-58-16.3-58-16.3v-1Z"/>
  <path class="cls-1" d="M479.3,714.4h14.9v-66.1h-14.9l-73.6,23.6v17.6l73.6,24.9ZM421.4,680.2l58-16.3v34.9l-58-17.6v-1Z"/>
  <path class="cls-1" d="M594.3,689.5v-17.6s-73.6-23.6-73.6-23.6h-14.9s0,66.1,0,66.1h14.9s73.6-24.9,73.6-24.9ZM578.6,681.2l-58,17.6v-34.9s58,16.3,58,16.3v1Z"/>
  <path class="cls-1" d="M420.7,706.5h-14.9v66.1h14.9l73.6-23.6v-17.6l-73.6-24.9ZM478.7,740.7l-58,16.3v-34.9l58,17.6v1Z"/>
  <path class="cls-1" d="M505.7,731.4v17.6s73.6,23.6,73.6,23.6h14.9s0-66.1,0-66.1h-14.9s-73.6,24.9-73.6,24.9ZM521.3,739.7l58-17.6v34.9s-58-16.3-58-16.3v-1Z"/>
  <path class="cls-1" d="M479.3,832.1h14.9v-66.1h-14.9l-73.6,23.6v17.6l73.6,24.9ZM421.4,797.9l58-16.3v34.9l-58-17.6v-1Z"/>
  <path class="cls-1" d="M594.3,807.2v-17.6s-73.6-23.6-73.6-23.6h-14.9s0,66.1,0,66.1h14.9s73.6-24.9,73.6-24.9ZM578.6,798.9l-58,17.6v-34.9s58,16.3,58,16.3v1Z"/>
  <path class="cls-1" d="M420.7,824.2h-14.9v66.1h14.9l73.6-23.6v-17.6l-73.6-24.9ZM478.7,858.4l-58,16.3v-34.9l58,17.6v1Z"/>
  <path class="cls-1" d="M505.7,849.1v17.6s73.6,23.6,73.6,23.6h14.9s0-66.1,0-66.1h-14.9s-73.6,24.9-73.6,24.9ZM521.3,857.4l58-17.6v34.9s-58-16.3-58-16.3v-1Z"/>
  <path class="cls-1" d="M679.3,125.7h14.9V59.5h-14.9l-73.6,23.6v17.6l73.6,24.9ZM621.3,91.4l58-16.3v34.9l-58-17.6v-1Z"/>
  <path class="cls-1" d="M794.2,100.7v-17.6s-73.6-23.6-73.6-23.6h-14.9s0,66.1,0,66.1h14.9s73.6-24.9,73.6-24.9ZM778.6,92.4l-58,17.6v-34.9s58,16.3,58,16.3v1Z"/>
  <path class="cls-1" d="M679.3,243.4h14.9v-66.1h-14.9l-73.6,23.6v17.6l73.6,24.9ZM621.3,209.2l58-16.3v34.9l-58-17.6v-1Z"/>
  <path class="cls-1" d="M794.2,218.5v-17.6s-73.6-23.6-73.6-23.6h-14.9s0,66.1,0,66.1h14.9s73.6-24.9,73.6-24.9ZM778.6,210.2l-58,17.6v-34.9s58,16.3,58,16.3v1Z"/>
  <path class="cls-1" d="M620.7,235.5h-14.9v66.1h14.9l73.6-23.6v-17.6l-73.6-24.9ZM678.6,269.7l-58,16.3v-34.9l58,17.6v1Z"/>
  <path class="cls-1" d="M705.7,260.4v17.6s73.6,23.6,73.6,23.6h14.9s0-66.1,0-66.1h-14.9s-73.6,24.9-73.6,24.9ZM721.3,268.7l58-17.6v34.9s-58-16.3-58-16.3v-1Z"/>
  <path class="cls-1" d="M679.3,361.1h14.9v-66.1h-14.9l-73.6,23.6v17.6l73.6,24.9ZM621.3,326.9l58-16.3v34.9l-58-17.6v-1Z"/>
  <path class="cls-1" d="M794.2,336.2v-17.6s-73.6-23.6-73.6-23.6h-14.9s0,66.1,0,66.1h14.9s73.6-24.9,73.6-24.9ZM778.6,327.9l-58,17.6v-34.9s58,16.3,58,16.3v1Z"/>
  <path class="cls-1" d="M620.7,353.2h-14.9v66.1h14.9l73.6-23.6v-17.6l-73.6-24.9ZM678.6,387.4l-58,16.3v-34.9l58,17.6v1Z"/>
  <path class="cls-1" d="M705.7,378.2v17.6s73.6,23.6,73.6,23.6h14.9s0-66.1,0-66.1h-14.9s-73.6,24.9-73.6,24.9ZM721.3,386.5l58-17.6v34.9s-58-16.3-58-16.3v-1Z"/>
  <path class="cls-1" d="M679.3,478.9h14.9v-66.1h-14.9l-73.6,23.6v17.6l73.6,24.9ZM621.3,444.7l58-16.3v34.9l-58-17.6v-1Z"/>
  <path class="cls-1" d="M794.2,454v-17.6s-73.6-23.6-73.6-23.6h-14.9s0,66.1,0,66.1h14.9s73.6-24.9,73.6-24.9ZM778.6,445.7l-58,17.6v-34.9s58,16.3,58,16.3v1Z"/>
  <path class="cls-1" d="M620.7,471h-14.9v66.1h14.9l73.6-23.6v-17.6l-73.6-24.9ZM678.6,505.2l-58,16.3v-34.9l58,17.6v1Z"/>
  <path class="cls-1" d="M705.7,495.9v17.6s73.6,23.6,73.6,23.6h14.9s0-66.1,0-66.1h-14.9s-73.6,24.9-73.6,24.9ZM721.3,504.2l58-17.6v34.9s-58-16.3-58-16.3v-1Z"/>
  <path class="cls-1" d="M679.3,596.6h14.9v-66.1h-14.9l-73.6,23.6v17.6l73.6,24.9ZM621.3,562.4l58-16.3v34.9l-58-17.6v-1Z"/>
  <path class="cls-1" d="M794.2,571.7v-17.6s-73.6-23.6-73.6-23.6h-14.9s0,66.1,0,66.1h14.9s73.6-24.9,73.6-24.9ZM778.6,563.4l-58,17.6v-34.9s58,16.3,58,16.3v1Z"/>
  <path class="cls-1" d="M620.7,588.7h-14.9v66.1h14.9l73.6-23.6v-17.6l-73.6-24.9ZM678.6,622.9l-58,16.3v-34.9l58,17.6v1Z"/>
  <path class="cls-1" d="M705.7,613.6v17.6s73.6,23.6,73.6,23.6h14.9s0-66.1,0-66.1h-14.9s-73.6,24.9-73.6,24.9ZM721.3,621.9l58-17.6v34.9s-58-16.3-58-16.3v-1Z"/>
  <path class="cls-1" d="M679.3,714.4h14.9v-66.1h-14.9l-73.6,23.6v17.6l73.6,24.9ZM621.3,680.2l58-16.3v34.9l-58-17.6v-1Z"/>
  <path class="cls-1" d="M794.2,689.5v-17.6s-73.6-23.6-73.6-23.6h-14.9s0,66.1,0,66.1h14.9s73.6-24.9,73.6-24.9ZM778.6,681.2l-58,17.6v-34.9s58,16.3,58,16.3v1Z"/>
  <path class="cls-1" d="M620.7,706.5h-14.9v66.1h14.9l73.6-23.6v-17.6l-73.6-24.9ZM678.6,740.7l-58,16.3v-34.9l58,17.6v1Z"/>
  <path class="cls-1" d="M705.7,731.4v17.6s73.6,23.6,73.6,23.6h14.9s0-66.1,0-66.1h-14.9s-73.6,24.9-73.6,24.9ZM721.3,739.7l58-17.6v34.9s-58-16.3-58-16.3v-1Z"/>
  <path class="cls-1" d="M679.3,832.1h14.9v-66.1h-14.9l-73.6,23.6v17.6l73.6,24.9ZM621.3,797.9l58-16.3v34.9l-58-17.6v-1Z"/>
  <path class="cls-1" d="M794.2,807.2v-17.6s-73.6-23.6-73.6-23.6h-14.9s0,66.1,0,66.1h14.9s73.6-24.9,73.6-24.9ZM778.6,798.9l-58,17.6v-34.9s58,16.3,58,16.3v1Z"/>
  <path class="cls-1" d="M620.7,824.2h-14.9v66.1h14.9l73.6-23.6v-17.6l-73.6-24.9ZM678.6,858.4l-58,16.3v-34.9l58,17.6v1Z"/>
  <path class="cls-1" d="M705.7,849.1v17.6s73.6,23.6,73.6,23.6h14.9s0-66.1,0-66.1h-14.9s-73.6,24.9-73.6,24.9ZM721.3,857.4l58-17.6v34.9s-58-16.3-58-16.3v-1Z"/>
  <g>
    <path class="cls-1" d="M20.7,0H5.8v66.1h14.9l73.6-23.6v-17.6L20.7,0ZM78.7,34.2l-58,16.3V15.6l58,17.6v1Z"/>
    <path class="cls-1" d="M105.8,24.9v17.6s73.6,23.6,73.6,23.6h14.9s0-66.1,0-66.1h-14.9s-73.6,24.9-73.6,24.9ZM121.4,33.2l58-17.6v34.9s-58-16.3-58-16.3v-1Z"/>
    <path class="cls-1" d="M220.7,0h-14.9v66.1h14.9l73.6-23.6v-17.6L220.7,0ZM278.7,34.2l-58,16.3V15.6l58,17.6v1Z"/>
    <path class="cls-1" d="M305.7,24.9v17.6s73.6,23.6,73.6,23.6h14.9s0-66.1,0-66.1h-14.9s-73.6,24.9-73.6,24.9ZM321.4,33.2l58-17.6v34.9s-58-16.3-58-16.3v-1Z"/>
    <path class="cls-1" d="M420.7,0h-14.9v66.1h14.9l73.6-23.6v-17.6L420.7,0ZM478.7,34.2l-58,16.3V15.6l58,17.6v1Z"/>
    <path class="cls-1" d="M505.7,24.9v17.6s73.6,23.6,73.6,23.6h14.9s0-66.1,0-66.1h-14.9s-73.6,24.9-73.6,24.9ZM521.3,33.2l58-17.6v34.9s-58-16.3-58-16.3v-1Z"/>
    <path class="cls-1" d="M620.7,0h-14.9v66.1h14.9l73.6-23.6v-17.6L620.7,0ZM678.6,34.2l-58,16.3V15.6l58,17.6v1Z"/>
    <path class="cls-1" d="M705.7,24.9v17.6s73.6,23.6,73.6,23.6h14.9s0-66.1,0-66.1h-14.9s-73.6,24.9-73.6,24.9ZM721.3,33.2l58-17.6v34.9s-58-16.3-58-16.3v-1Z"/>
    <path class="cls-1" d="M820.6,0h-14.9v66.1h14.9l73.6-23.6v-17.6L820.6,0ZM878.6,34.2l-58,16.3V15.6l58,17.6v1Z"/>
    <path class="cls-1" d="M905.7,24.9v17.6s73.6,23.6,73.6,23.6h14.9s0-66.1,0-66.1h-14.9s-73.6,24.9-73.6,24.9ZM921.3,33.2l58-17.6v34.9s-58-16.3-58-16.3v-1Z"/>
  </g>
  <path class="cls-1" d="M879.3,125.7h14.9V59.5h-14.9l-73.6,23.6v17.6l73.6,24.9ZM821.3,91.4l58-16.3v34.9l-58-17.6v-1Z"/>
  <path class="cls-1" d="M994.2,100.7v-17.6s-73.6-23.6-73.6-23.6h-14.9s0,66.1,0,66.1h14.9s73.6-24.9,73.6-24.9ZM978.6,92.4l-58,17.6v-34.9s58,16.3,58,16.3v1Z"/>
  <path class="cls-1" d="M879.3,243.4h14.9v-66.1h-14.9l-73.6,23.6v17.6l73.6,24.9ZM821.3,209.2l58-16.3v34.9l-58-17.6v-1Z"/>
  <path class="cls-1" d="M994.2,218.5v-17.6s-73.6-23.6-73.6-23.6h-14.9s0,66.1,0,66.1h14.9s73.6-24.9,73.6-24.9ZM978.6,210.2l-58,17.6v-34.9s58,16.3,58,16.3v1Z"/>
  <path class="cls-1" d="M820.6,235.5h-14.9v66.1h14.9l73.6-23.6v-17.6l-73.6-24.9ZM878.6,269.7l-58,16.3v-34.9l58,17.6v1Z"/>
  <path class="cls-1" d="M905.7,260.4v17.6s73.6,23.6,73.6,23.6h14.9s0-66.1,0-66.1h-14.9s-73.6,24.9-73.6,24.9ZM921.3,268.7l58-17.6v34.9s-58-16.3-58-16.3v-1Z"/>
  <path class="cls-1" d="M879.3,361.1h14.9v-66.1h-14.9l-73.6,23.6v17.6l73.6,24.9ZM821.3,326.9l58-16.3v34.9l-58-17.6v-1Z"/>
  <path class="cls-1" d="M994.2,336.2v-17.6s-73.6-23.6-73.6-23.6h-14.9s0,66.1,0,66.1h14.9s73.6-24.9,73.6-24.9ZM978.6,327.9l-58,17.6v-34.9s58,16.3,58,16.3v1Z"/>
  <path class="cls-1" d="M820.6,353.2h-14.9v66.1h14.9l73.6-23.6v-17.6l-73.6-24.9ZM878.6,387.4l-58,16.3v-34.9l58,17.6v1Z"/>
  <path class="cls-1" d="M905.7,378.2v17.6s73.6,23.6,73.6,23.6h14.9s0-66.1,0-66.1h-14.9s-73.6,24.9-73.6,24.9ZM921.3,386.5l58-17.6v34.9s-58-16.3-58-16.3v-1Z"/>
  <path class="cls-1" d="M879.3,478.9h14.9v-66.1h-14.9l-73.6,23.6v17.6l73.6,24.9ZM821.3,444.7l58-16.3v34.9l-58-17.6v-1Z"/>
  <path class="cls-1" d="M994.2,454v-17.6s-73.6-23.6-73.6-23.6h-14.9s0,66.1,0,66.1h14.9s73.6-24.9,73.6-24.9ZM978.6,445.7l-58,17.6v-34.9s58,16.3,58,16.3v1Z"/>
  <path class="cls-1" d="M820.6,471h-14.9v66.1h14.9l73.6-23.6v-17.6l-73.6-24.9ZM878.6,505.2l-58,16.3v-34.9l58,17.6v1Z"/>
  <path class="cls-1" d="M905.7,495.9v17.6s73.6,23.6,73.6,23.6h14.9s0-66.1,0-66.1h-14.9s-73.6,24.9-73.6,24.9ZM921.3,504.2l58-17.6v34.9s-58-16.3-58-16.3v-1Z"/>
  <path class="cls-1" d="M879.3,596.6h14.9v-66.1h-14.9l-73.6,23.6v17.6l73.6,24.9ZM821.3,562.4l58-16.3v34.9l-58-17.6v-1Z"/>
  <path class="cls-1" d="M994.2,571.7v-17.6s-73.6-23.6-73.6-23.6h-14.9s0,66.1,0,66.1h14.9s73.6-24.9,73.6-24.9ZM978.6,563.4l-58,17.6v-34.9s58,16.3,58,16.3v1Z"/>
  <path class="cls-1" d="M820.6,588.7h-14.9v66.1h14.9l73.6-23.6v-17.6l-73.6-24.9ZM878.6,622.9l-58,16.3v-34.9l58,17.6v1Z"/>
  <path class="cls-1" d="M905.7,613.6v17.6s73.6,23.6,73.6,23.6h14.9s0-66.1,0-66.1h-14.9s-73.6,24.9-73.6,24.9ZM921.3,621.9l58-17.6v34.9s-58-16.3-58-16.3v-1Z"/>
  <path class="cls-1" d="M879.3,714.4h14.9v-66.1h-14.9l-73.6,23.6v17.6l73.6,24.9ZM821.3,680.2l58-16.3v34.9l-58-17.6v-1Z"/>
  <path class="cls-1" d="M994.2,689.5v-17.6s-73.6-23.6-73.6-23.6h-14.9s0,66.1,0,66.1h14.9s73.6-24.9,73.6-24.9ZM978.6,681.2l-58,17.6v-34.9s58,16.3,58,16.3v1Z"/>
  <path class="cls-1" d="M820.6,706.5h-14.9v66.1h14.9l73.6-23.6v-17.6l-73.6-24.9ZM878.6,740.7l-58,16.3v-34.9l58,17.6v1Z"/>
  <path class="cls-1" d="M905.7,731.4v17.6s73.6,23.6,73.6,23.6h14.9s0-66.1,0-66.1h-14.9s-73.6,24.9-73.6,24.9ZM921.3,739.7l58-17.6v34.9s-58-16.3-58-16.3v-1Z"/>
  <path class="cls-1" d="M879.3,832.1h14.9v-66.1h-14.9l-73.6,23.6v17.6l73.6,24.9ZM821.3,797.9l58-16.3v34.9l-58-17.6v-1Z"/>
  <path class="cls-1" d="M994.2,807.2v-17.6s-73.6-23.6-73.6-23.6h-14.9s0,66.1,0,66.1h14.9s73.6-24.9,73.6-24.9ZM978.6,798.9l-58,17.6v-34.9s58,16.3,58,16.3v1Z"/>
  <path class="cls-1" d="M820.6,824.2h-14.9v66.1h14.9l73.6-23.6v-17.6l-73.6-24.9ZM878.6,858.4l-58,16.3v-34.9l58,17.6v1Z"/>
  <path class="cls-1" d="M905.7,849.1v17.6s73.6,23.6,73.6,23.6h14.9s0-66.1,0-66.1h-14.9s-73.6,24.9-73.6,24.9ZM921.3,857.4l58-17.6v34.9s-58-16.3-58-16.3v-1Z"/>
  <path class="cls-1" d="M20.7,117.7H5.8v66.1h14.9l73.6-23.6v-17.6l-73.6-24.9ZM78.7,152l-58,16.3v-34.9l58,17.6v1Z"/>
  <path class="cls-1" d="M105.8,142.7v17.6s73.6,23.6,73.6,23.6h14.9s0-66.1,0-66.1h-14.9s-73.6,24.9-73.6,24.9ZM121.4,151l58-17.6v34.9s-58-16.3-58-16.3v-1Z"/>
  <path class="cls-1" d="M220.7,117.7h-14.9v66.1h14.9l73.6-23.6v-17.6l-73.6-24.9ZM278.7,152l-58,16.3v-34.9l58,17.6v1Z"/>
  <path class="cls-1" d="M305.7,142.7v17.6s73.6,23.6,73.6,23.6h14.9s0-66.1,0-66.1h-14.9s-73.6,24.9-73.6,24.9ZM321.4,151l58-17.6v34.9s-58-16.3-58-16.3v-1Z"/>
  <path class="cls-1" d="M420.7,117.7h-14.9v66.1h14.9l73.6-23.6v-17.6l-73.6-24.9ZM478.7,152l-58,16.3v-34.9l58,17.6v1Z"/>
  <path class="cls-1" d="M505.7,142.7v17.6s73.6,23.6,73.6,23.6h14.9s0-66.1,0-66.1h-14.9s-73.6,24.9-73.6,24.9ZM521.3,151l58-17.6v34.9s-58-16.3-58-16.3v-1Z"/>
  <path class="cls-1" d="M620.7,117.7h-14.9v66.1h14.9l73.6-23.6v-17.6l-73.6-24.9ZM678.6,152l-58,16.3v-34.9l58,17.6v1Z"/>
  <path class="cls-1" d="M705.7,142.7v17.6s73.6,23.6,73.6,23.6h14.9s0-66.1,0-66.1h-14.9s-73.6,24.9-73.6,24.9ZM721.3,151l58-17.6v34.9s-58-16.3-58-16.3v-1Z"/>
  <path class="cls-1" d="M820.6,117.7h-14.9v66.1h14.9l73.6-23.6v-17.6l-73.6-24.9ZM878.6,152l-58,16.3v-34.9l58,17.6v1Z"/>
  <path class="cls-1" d="M905.7,142.7v17.6s73.6,23.6,73.6,23.6h14.9s0-66.1,0-66.1h-14.9s-73.6,24.9-73.6,24.9ZM921.3,151l58-17.6v34.9s-58-16.3-58-16.3v-1Z"/>
  <polygon class="cls-1" points="56 0 79.4 7.9 94.3 7.9 94.3 0 56 0"/>
  <polygon class="cls-1" points="105.8 0 105.8 7.9 120.7 7.9 144.1 0 105.8 0"/>
  <polygon class="cls-1" points="256 0 279.4 7.9 294.3 7.9 294.3 0 256 0"/>
  <polygon class="cls-1" points="305.7 0 305.7 7.9 320.7 7.9 344.1 0 305.7 0"/>
  <polygon class="cls-1" points="456 0 479.3 7.9 494.3 7.9 494.3 0 456 0"/>
  <polygon class="cls-1" points="505.7 0 505.7 7.9 520.7 7.9 544 0 505.7 0"/>
  <polygon class="cls-1" points="655.9 0 679.3 7.9 694.3 7.9 694.3 0 655.9 0"/>
  <polygon class="cls-1" points="705.7 0 705.7 7.9 720.6 7.9 744 0 705.7 0"/>
  <polygon class="cls-1" points="855.9 0 879.3 7.9 894.2 7.9 894.2 0 855.9 0"/>
  <polygon class="cls-1" points="905.7 0 905.7 7.9 920.6 7.9 944 0 905.7 0"/>
  <path class="cls-1" d="M94.3,942v-58.2h-14.9l-73.6,23.6v17.6l50.2,17h38.3ZM21.4,915.6l58-16.3v34.9l-58-17.6v-1Z"/>
  <path class="cls-1" d="M144.1,942l50.2-17v-17.6l-73.6-23.6h-14.9v58.2h38.3ZM120.7,899.4l58,16.3v1l-58,17.6v-34.9Z"/>
  <path class="cls-1" d="M294.3,942v-58.2h-14.9l-73.6,23.6v17.6l50.2,17h38.3ZM221.4,915.6l58-16.3v34.9l-58-17.6v-1Z"/>
  <path class="cls-1" d="M344.1,942l50.2-17v-17.6l-73.6-23.6h-14.9v58.2h38.3ZM320.7,899.4l58,16.3v1l-58,17.6v-34.9Z"/>
  <path class="cls-1" d="M494.3,942v-58.2h-14.9l-73.6,23.6v17.6l50.2,17h38.3ZM421.4,915.6l58-16.3v34.9l-58-17.6v-1Z"/>
  <path class="cls-1" d="M544,942l50.2-17v-17.6l-73.6-23.6h-14.9v58.2h38.3ZM520.7,899.4l58,16.3v1l-58,17.6v-34.9Z"/>
  <path class="cls-1" d="M694.3,942v-58.2h-14.9l-73.6,23.6v17.6l50.2,17h38.3ZM621.3,915.6l58-16.3v34.9l-58-17.6v-1Z"/>
  <path class="cls-1" d="M744,942l50.2-17v-17.6l-73.6-23.6h-14.9v58.2h38.3ZM720.6,899.4l58,16.3v1l-58,17.6v-34.9Z"/>
  <path class="cls-1" d="M894.2,942v-58.2h-14.9l-73.6,23.6v17.6l50.2,17h38.3ZM821.3,915.6l58-16.3v34.9l-58-17.6v-1Z"/>
  <path class="cls-1" d="M944,942l50.2-17v-17.6l-73.6-23.6h-14.9v58.2h38.3ZM920.6,899.4l58,16.3v1l-58,17.6v-34.9Z"/>
</svg>