<?xml version="1.0" encoding="UTF-8"?>
<svg id="Layer_1" data-name="Layer 1" xmlns="http://www.w3.org/2000/svg" version="1.1" xmlns:xlink="http://www.w3.org/1999/xlink" viewBox="0 0 614 335">
  <defs>
    <style>
      .cls-1 {
        fill: none;
      }

      .cls-1, .cls-2 {
        stroke-width: 0px;
      }

      .cls-3 {
        clip-path: url(#clippath);
      }

      .cls-2 {
        fill: #13ff00;
      }
    </style>
    <clipPath id="clippath">
      <rect class="cls-1" x="-.15" y="-.22" width="614" height="335"/>
    </clipPath>
  </defs>
  <g class="cls-3">
    <g>
      <path class="cls-2" d="M301.1,334.78c-4.82-11.68-10.1-23.17-16.33-34.25-4.06-7.23-8.43-14.3-12.66-21.44-.42-.71-.83-1.42-1.3-2.22.66-.53,1.17-.99,1.73-1.39,3.26-2.31,6.55-4.57,9.77-6.92,1.26-.92,2.59-1.35,4.18-1.42,13.68-.57,27.35-1.24,41.03-1.74,11.36-.42,22.73-.64,34.09-.95.7-.02,1.41-.1,2.49-.19-.34-.94-.55-1.69-.88-2.4-4.25-9.23-9.05-18.21-14.33-26.96-1.5-2.48-3.07-4.92-4.59-7.38-.31-.51-.58-1.05-.94-1.73.56-.47,1.06-.93,1.61-1.32,2.23-1.59,4.53-3.1,6.7-4.76,1.33-1.02,2.72-1.39,4.41-1.32,11.28.49,22.56.88,33.83,1.42,7.76.38,15.5.96,23.25,1.44.63.04,1.26,0,2.31,0-2.38-6.03-5.32-11.56-8.36-17.02-3.06-5.51-6.37-10.9-9.6-16.41,1.08-1.45,2.86-2.13,4.15-3.31,2.12-1.93,4.46-2.4,7.42-1.99,13.94,1.92,27.91,3.64,41.87,5.43.77.1,1.55.14,2.81.25-4.46-10.3-9.87-19.69-15.88-29.11,1.99-1.39,3.84-2.79,5.82-4,.49-.3,1.4-.13,2.08,0,9.5,1.78,18.99,3.58,28.48,5.41,2.51.48,4.98,1.12,7.48,1.66.59.12,1.2.16,2.24.29-3.97-9.15-8.78-17.48-14.12-25.88,1.5-1.06,2.8-2.18,4.31-2.95.71-.36,1.87-.23,2.73,0,9.57,2.47,19.12,5,28.67,7.52.75.2,1.5.41,2.71.74-.94-3.05-2.38-5.51-3.65-8.02-1.33-2.64-2.8-5.22-4.28-7.79-1.44-2.5-2.99-4.94-4.62-7.64,1.18-.85,2.21-1.81,3.44-2.4.65-.31,1.72-.13,2.49.12,8.11,2.57,16.2,5.2,24.3,7.81.67.22,1.33.45,2.25.76-.26-2.17-1.46-3.77-2.26-5.49-.87-1.85-1.85-3.66-2.84-5.46-.95-1.73-1.95-3.44-2.97-5.14-1-1.69-2.05-3.35-3.12-5.1.61-.51,1.1-.88,1.54-1.29,1.11-1.04,2.29-1.08,3.71-.53,6.81,2.62,13.65,5.17,20.48,7.75.7.26,1.41.53,2.62.99-3.04-7.06-6.67-13.26-10.46-19.29,2.2-2.4,2.39-2.5,5.17-1.33,5.76,2.43,11.49,4.94,17.23,7.41.62.27,1.25.52,2.35.98-2.78-6.49-6.11-12.16-9.6-17.71,1.79-2.12,2.01-2.23,4.42-1.12,4.94,2.3,9.85,4.68,14.77,7.02.69.33,1.38.67,2.59,1.27-1.18-3.38-2.71-6.06-4.19-8.74-1.47-2.65-3.06-5.23-4.57-7.8,1.86-1.68,1.9-1.74,3.78-.78,4.36,2.21,8.69,4.49,13.02,6.75.76.39,1.5.82,2.43,1.11-1.99-5.29-4.91-10.13-7.84-14.84.1-.28.1-.47.2-.55.41-.34.86-.65,1.44-1.08,5.32,2.5,10.37,5.45,15.52,8.38-1.79-4.95-4.52-9.39-7.22-13.8,1.31-1.49,1.37-1.58,2.71-.8,3.61,2.09,7.17,4.25,10.74,6.39.72.43,1.41.91,2.29,1.24-1.7-4.71-4.33-8.95-6.89-13.15.6-1.16,1.39-1.33,2.39-.69,3.95,2.55,7.92,5.08,11.84,7.68.54.36.86,1.04,1.25,1.59.17.25.26.54.37.83,3.87,10,3.39,7.45,2.13,18.15-.38,3.27-1.03,6.52-1.56,9.78-.13.83-.3,1.64-1.54,1.95-.4-2.15-.75-4.29-1.2-6.4-.45-2.08-1.01-4.14-1.52-6.21l-.48.06c-.36,2.71-.67,5.43-1.1,8.13-.58,3.63-1.25,7.25-1.87,10.87-.16.91-.41,1.75-1.65,2.27-.98-4.55-1.95-9.03-2.91-13.51-.17,0-.34,0-.51,0-.08.35-.19.7-.25,1.06-1.11,6.51-2.22,13.02-3.32,19.53-.18,1.08-.55,2.02-1.87,2.76-1.07-4.92-2.12-9.74-3.17-14.56-.2,0-.41.01-.61.02-.36,2.22-.68,4.44-1.09,6.65-.99,5.24-2.02,10.47-3.05,15.7-.25,1.26-.68,2.45-2.21,3.28-1.17-5.36-2.3-10.58-3.44-15.8-.16,0-.32,0-.48,0-.14.39-.33.76-.41,1.16-1.63,8.02-3.24,16.04-4.89,24.06-.35,1.7-.56,1.88-2.56,3.4-1.12-5.88-2-11.68-4.26-17.26-.41,2.04-.78,4.08-1.23,6.11-1.64,7.26-3.32,14.5-4.95,21.76-.38,1.69-1.24,3.04-3.05,4.3-.63-3.31-1.16-6.42-1.84-9.51-.69-3.14-1.52-6.26-2.74-9.39-.16.53-.35,1.05-.48,1.58-2.43,9.93-4.87,19.86-7.26,29.8-.48,2.02-1.68,3.49-3.62,5.07-1.3-7.23-2.51-14.19-5.04-20.95-.17.62-.36,1.25-.53,1.87-3.09,11.48-6.16,22.96-9.28,34.43-.59,2.18-1.78,3.59-4.19,5.26-1.33-7.76-2.76-15.39-5.3-23.35-.37.99-.59,1.43-.71,1.9-3.37,13.35-7.38,26.54-11.62,39.67-.93,2.89-2.88,4.89-5.34,7.32-1.54-8.91-3.16-17.41-5.9-25.94-.91.88-.92,1.87-1.17,2.72-4.53,15.71-9.69,31.23-15.22,46.65-1.13,3.15-3.8,5.04-6.04,7.45-1.92-9.72-3.84-19.32-7.24-28.73-.24.67-.5,1.34-.72,2.01-6.13,18.94-12.94,37.67-20.23,56.25-.85,2.15-1.95,4.07-3.62,5.74-1.45,1.45-2.8,3-4.62,4.97-1.92-11.71-4.27-22.74-8.19-33.62-.29.71-.61,1.4-.87,2.12-7.35,20.23-15.36,40.23-23.72,60.11-1.73,4.11-3.52,8.21-5.29,12.31-.18.42-.3.88-.57,1.24-2.72,3.6-6,6.74-9.31,10.52-1.42-6.89-2.68-13.25-4.05-19.59-1.38-6.37-3.12-12.65-5.25-19.32-.49.86-.77,1.27-.96,1.71-5.14,12.04-10.28,24.08-15.4,36.13-.23.55-.34,1.14-.5,1.71h-58.14,0Z"/>
      <path class="cls-2" d="M492.12,3.52c-.24.02-.47.03-.71.05-.03-.07-.06-.13-.08-.2.52-.18,1.03-.46,1.57-.53,7.36-1.02,14.7-2.18,22.08-2.93,3.47-.35,7.03.09,10.54.23.61.02,1.31.21,1.78.55,1.79,1.25,3.4,2.69,4.75,4.48-1.05.9-2.07.76-3.2.53-3.36-.68-6.74-1.29-10.12-1.88-1-.17-2.03-.19-3.45-.32,1.65,1.88,3.04,3.46,4.46,5.08-1.23.95-2.32.88-3.54.64-3.91-.76-7.85-1.44-11.77-2.13-.77-.13-1.57-.16-2.71-.27,1.49,2,2.78,3.75,4.12,5.54-1.37,1.3-2.85.99-4.33.71-3.45-.66-6.89-1.34-10.34-1.96-1.45-.26-2.93-.37-4.78-.59,1.38,2.35,2.54,4.34,3.71,6.33-1.65,1.12-3.17,1.03-4.8.71-4.38-.86-8.78-1.65-13.18-2.43-.93-.16-1.89-.16-3.12-.26,1.07,2.47,2.03,4.71,3.03,7.03-1.74,1-3.29,1.25-5.16.85-4.83-1.02-9.71-1.84-14.59-2.7-1-.18-2.03-.15-3.28-.22.73,2.77,1.39,5.29,2.08,7.88-1.96,1.11-3.81,1.42-6,.99-5.87-1.15-11.78-2.1-17.67-3.12-.44-.08-.91,0-1.6,0,.24,3.12.47,6.15.69,9.13-2.67,1.1-4.96,1.45-7.66.86-6.14-1.34-12.39-2.27-18.6-3.36-.45-.08-.93-.01-1.64-.01-.28,2.3-.55,4.51-.82,6.72-.12.97-.24,1.94-.33,2.91-.08.85-.55,1.28-1.43,1.56-2.54.8-4.93,1.09-7.7.47-6.45-1.45-13.01-2.43-19.53-3.58-.76-.13-1.56-.09-2.54-.15-.76,2.22-1.49,4.35-2.22,6.48-.27.78-.45,1.6-.79,2.36-.6,1.35-.26,3.4-1.87,3.93-2.64.87-5.22,2.17-8.33,1.36-7.72-2-15.58-3.38-23.52-4.38-1.86-.23-2.76.27-3.55,1.74-2.09,3.88-4.36,7.67-6.44,11.56-.67,1.24-1.55,1.86-2.93,2.36-4.18,1.5-8.17,1.49-12.59.42-7.26-1.76-14.73-2.75-22.11-4.11-1.99-.37-3.44,0-4.73,1.66-3.97,5.08-8.15,10.01-12.16,15.07-.91,1.15-1.92,1.91-3.39,2.27-2.32.56-4.62,1.24-6.9,1.92-1.27.38-2.49.37-3.77.03-10.18-2.68-20.52-4.63-31-5.97-1.66-.21-2.89.02-4.1,1.14-7.46,6.89-15,13.72-22.45,20.62-1.24,1.14-2.5,1.99-4.2,2.42-3.4.86-6.76,1.84-10.13,2.82-1.35.4-2.65.38-4,.02-11.24-3.05-22.67-5.25-34.23-6.89-2.44-.35-4.38.03-6.45,1.42-12.76,8.56-25.15,17.57-37.19,27-1.7,1.33-3.49,2.28-5.63,2.84-4.4,1.14-8.77,2.37-13.12,3.65-1.68.5-3.24.49-4.92.01-10.89-3.07-21.95-5.44-33.16-7.25-12-1.93-24.07-3.23-36.25-3.62-1.43-.05-2.85-.25-4.28-.37v-7.65c5.33-.98,10.66-1.98,16-2.94,17.21-3.09,34.4-6.24,51.63-9.23,11.25-1.95,22.55-3.67,33.82-5.5.45-.07.88-.25,1.3-.49-10.71.07-21.34.87-32,2.15.33-.15.65-.34,1-.45.37-.12.77-.18,1.16-.27,12.35-2.53,24.65-5.25,37.05-7.55,18.28-3.4,36.62-6.55,54.95-9.71,7.24-1.25,14.52-2.26,21.78-3.39.22-.03.44-.11.64-.27-8.78-.18-17.47.8-26.21,1.48,29.62-6.65,59.56-11.72,89.61-16.28-7.6-.13-15.12.73-22.71,1.25,1.41-.35,2.81-.77,4.24-1.04,12-2.26,23.98-4.6,36.02-6.69,10.77-1.87,21.59-3.45,32.39-5.24-6.15-.14-12.24.68-18.39,1.03,19.42-4.35,39.07-7.51,58.77-10.61-1.75.07-3.51.11-5.26.23-1.76.11-3.51.29-5.26.46-1.82.18-3.63.38-5.48.37,15.98-3.6,32.16-6.13,48.37-8.56-4.11-.4-8.14.5-12.23.51,13.69-3.09,27.59-5.14,41.44-7.48-3.72.3-7.45.6-11.17.9,11.15-2.69,22.5-4.34,33.82-6.32-2.48.17-4.96.34-7.45.5,9.56-2.37,19.29-3.72,28.99-5.41-2.21.15-4.43.31-6.65.46,7.69-2.03,15.58-3.04,23.44-4.42h-3.07c-.02-.14-.04-.29-.06-.43,2.59-.47,5.17-.98,7.77-1.4,3.23-.52,6.48-.95,9.71-1.46.42-.07.79-.39,1.18-.59.7.04,1.39.08,2.08.11,0-.08,0-.15,0-.23-.69.04-1.38.07-2.07.11-.85.08-1.69.16-2.53.24-.02-.14-.04-.28-.06-.43,3.82-.63,7.65-1.22,11.45-1.93,1.42-.26,3,0,4.23-1,.86,0,1.72,0,2.58,0,0-.07-.01-.15-.02-.22-.84.08-1.68.16-2.52.24Z"/>
      <path class="cls-2" d="M434.67,334.78c.3-5.09.57-10.17.94-15.25.05-.68.53-1.4.98-1.99,1.45-1.88,3.07-3.66,4.47-5.57.9-1.23,2.06-1.7,3.57-1.93,6.8-1.03,13.57-2.18,20.37-3.18,1.95-.29,2.81-1.09,3.14-2.95,1.47-8.29,2.68-16.6,2.97-25,.09-2.73.93-4.94,2.63-7.22,2.01-2.7,4.19-3.81,7.73-3.51,4.13.35,8.32.13,12.48.14.63,0,1.26-.08,2.17-.14.32-1.53.68-3.04.96-4.56,1.3-7.17,2.14-14.4,2.43-21.67.05-1.35.51-2.44,1.4-3.48,3.89-4.5,1.89-3.81,7.76-2.8,3.38.58,6.74,1.27,10.34,1.95.23-.7.54-1.3.62-1.93.85-6.24,1.67-12.48,2.48-18.72.06-.45.1-.9.07-1.35-.2-3.18,1.36-5.59,4.02-7.85,3.83,1.41,7.81,2.88,12.05,4.44.39-1.9.83-3.56,1.05-5.24.66-5.21,1.42-10.41,1.76-15.64.16-2.52,1.46-4.15,3.31-6.01,3.21,1.81,6.39,3.62,9.88,5.59.33-1.6.73-3.03.92-4.47.64-5.06,1.29-10.12,1.75-15.19.18-1.99,1.24-3.29,2.84-4.75,2.64,2.03,5.21,4.01,7.88,6.07.84-1.02.83-2.25.98-3.37.6-4.46,1.13-8.92,1.61-13.39.21-1.97.39-3.89,2.71-5.24,2.1,2.04,4.23,4.12,6.63,6.46.24-1,.52-1.81.62-2.64.62-4.68,1.25-9.36,1.75-14.06.16-1.45.68-2.58,2.02-3.6,2.23,1.84,3.76,4.22,5.68,6.68.26-.73.53-1.23.6-1.76.56-4.16,1.07-8.32,1.63-12.48.21-1.58,0-3.35,2.13-4.52,1.52,2.15,3.04,4.29,4.72,6.66.98-3.02,1.21-5.91,1.6-8.75.26-1.86.38-3.73.5-5.6.07-1.1.36-2.06,1.54-2.8,1.97,1.75,2.74,4.22,4.42,6.85.32-1.6.61-2.66.74-3.73.4-3.12.74-6.25,1.09-9.38.13-1.18.11-2.4,1.63-3.34,1.58,2.41,2.85,4.84,3.55,7.53.07.27.01.61-.08.89-1.22,3.79-2.08,7.74-3.78,11.33-2.55,5.4-5.69,10.56-8.6,15.81-.3.55-.73,1.04-1.48,1.37.45-1.15.91-2.3,1.36-3.45-.06-.03-.12-.05-.18-.08-3.34,5.8-6.68,11.59-10.02,17.39-.17-.07-.33-.15-.5-.22.87-1.94,1.75-3.89,2.62-5.83-3.96,6.34-7.45,12.91-11.97,18.98.96-2.15,1.93-4.3,2.89-6.46-4.59,7.43-8.72,15.05-13.92,22.16,1.13-2.49,2.27-4.99,3.41-7.48-.15-.06-.29-.13-.44-.19-4.79,8.63-9.6,17.25-15.42,25.37,1.44-3.2,2.88-6.4,4.31-9.6-6.17,10.26-12.03,20.65-18.97,30.49,1.7-3.78,3.4-7.56,5.11-11.34-.15-.06-.3-.12-.45-.18-6.57,11.9-13.36,23.67-20.81,35.1-.16-.07-.32-.14-.48-.21,1.81-4.07,3.63-8.14,5.44-12.21-.16-.07-.32-.14-.48-.2-7.87,14.13-16.02,28.1-25.22,41.55,2.05-5.02,4.53-9.86,6.14-15.03-9.74,16.83-19.52,33.62-30.64,49.71,2.44-5.77,5.25-11.38,6.99-17.4-.29.44-.59.87-.86,1.32-7.82,13.16-15.63,26.33-23.43,39.49-.31.52-.57,1.07-.86,1.6h-4.32c.3-.89.59-1.77.89-2.66-.4.09-.61.27-.73.49-.39.71-.75,1.44-1.12,2.17h-23.54Z"/>
      <path class="cls-2" d="M393.12,109.79c-1.25,4.79-2.31,9.1-3.51,13.37-2.51,8.92-5.11,17.81-7.61,26.73-.4,1.42-1.16,2.36-2.51,3.07-2.09,1.09-4.1,2.31-6.41,3.62-8.4-8.86-17.02-17.37-26.83-25.2-.39.94-.71,1.68-1,2.42-5.99,15.75-11.99,31.49-17.94,47.25-.59,1.57-1.5,2.7-3.08,3.52-2.31,1.19-4.52,2.56-6.78,3.84-.67.38-1.37.72-2.27,1.18-9.54-10.21-19.42-19.96-30.57-28.98-.57,1.1-1.02,1.95-1.45,2.81-9.98,20.04-19.97,40.08-29.92,60.14-.78,1.57-1.84,2.71-3.44,3.58-3.33,1.8-6.57,3.73-9.86,5.6-.68.38-1.37.73-2.35,1.25-31.47-34.61-68.55-62.59-112.35-83.15.81-.41,1.23-.69,1.7-.85,4.67-1.56,9.35-3.13,14.05-4.63,1.04-.33,2.18-.52,3.28-.58,9.91-.57,19.82-1.15,29.73-1.63,26.39-1.28,52.8-2.08,79.22-2.31,1.1,0,2.19-.07,3.37-.36-5.65-4.22-11.73-7.72-17.91-11.06-6.22-3.36-12.58-6.48-19.14-9.83.77-.34,1.29-.61,1.85-.81,1.96-.67,3.97-1.21,5.88-1.97,3.68-1.46,7.49-1.93,11.47-2.02,27.14-.64,54.28-.84,81.42-.1.69.02,1.39,0,2.18-.24-2.25-2.04-4.92-3.46-7.48-4.99-2.7-1.61-5.44-3.16-8.21-4.67-2.7-1.46-5.44-2.86-8.2-4.24-2.73-1.36-5.49-2.66-8.26-4.46,1-.35,2.03-.65,3-1.06,4.4-1.87,9.02-2.27,13.81-2.24,19.94.16,39.87.49,59.78,1.63,1.43.08,2.87.13,4.49.2-.3-1.08-1.2-1.32-1.86-1.73-7.83-4.83-15.98-9.15-24.38-13.04-.61-.28-1.18-.62-2.25-1.18,3.81-1.16,6.88-2.74,10.55-2.58,12.79.56,25.6,1,38.39,1.59,5.36.25,10.7.75,16.05,1.13.63.05,1.27,0,1.89,0,.04-.08.09-.14.1-.2.02-.07.03-.18,0-.2-1.79-1.13-3.51-2.36-5.37-3.36-6.31-3.39-12.67-6.69-18.98-10,1.1-1.04,4.68-2.32,6.8-2.22,6,.26,12,.46,17.99.9,9.73.72,19.45,1.63,29.18,2.45.55.05,1.1,0,2.29,0-3.85-2.69-7.55-4.66-11.26-6.59-3.76-1.96-7.61-3.78-11.87-5.88,2.36-.83,4.22-1.85,6.46-1.66,11.95,1.04,23.91,2.09,35.86,3.15,2.02.18,4.03.45,6.13.46-6.33-4.33-13.21-7.7-20.53-11.06,2.17-1.06,3.91-1.65,5.89-1.44,10.73,1.16,21.47,2.3,32.19,3.46,1.42.15,2.83.38,4.32.41-5.82-3.96-12.16-7.04-18.65-10.02,1.84-1.34,2.6-1.62,5.09-1.36,5.89.61,11.77,1.25,17.64,1.99,4.28.54,8.53,1.28,12.8,1.91.37.05.75,0,1.2-.16-5.24-3.54-10.95-6.28-16.93-9.04,1.37-1.14,2.75-1.28,4.17-1.11,5.55.67,11.11,1.32,16.65,2.09,4.02.56,8.02,1.3,12.11,1.81-2.29-1.82-4.91-3.15-7.51-4.49-2.65-1.37-5.37-2.62-8.19-3.99,1.21-1.11,2.51-1.12,3.87-.92,7.66,1.17,15.32,2.35,22.97,3.53.86.13,1.71.3,2.64.29-4.46-3.1-9.41-5.38-14.4-7.72,1.32-1.09,1.34-1.18,3.2-.92,4.59.64,9.17,1.34,13.74,2.09,2.98.49,5.94,1.1,9,1.45-3.94-2.91-8.45-4.86-12.92-7.01,1.47-1.01,1.48-1.06,3.27-.74,6.52,1.16,13.04,2.35,19.56,3.53.46.08.91.16,1.45.08-3.86-2.73-8.22-4.66-12.5-6.72l.12-.57c.81-.06,1.66-.31,2.43-.16,6.82,1.3,13.62,2.65,20.42,4.03.6.12,1.2.44,1.71.78,2.52,1.72,5.05,3.43,7.49,5.26.7.52,1.31,1.36,1.56,2.16,1.15,3.66,2.17,7.36,3.22,11.05.1.36.17.75.13,1.11-.09.96-1.09,1.4-1.89.82-.44-.31-.76-.76-1.16-1.13-2.5-2.32-4.99-4.65-7.51-6.96-.5-.46-1.1-.83-2.05-1.54.32,1.23.53,2,.71,2.77.83,3.43,1.63,6.87,2.51,10.3.32,1.26,0,2.04-1.49,2.36-3.7-3.42-7.43-6.88-11.16-10.33-.15.08-.3.16-.45.23.04.46.05.92.15,1.37.83,4.04,1.72,8.08,2.51,12.13.34,1.77.25,1.78-1.71,2.67-3.99-3.7-8.01-7.41-12.02-11.13-.15.08-.3.16-.45.24.03.46.02.92.1,1.38.74,4.52,1.55,9.02,2.23,13.55.3,1.98.18,2-2.17,2.97-4.05-4.12-8.18-8.26-13.37-12.26.15,1.29.24,2.05.33,2.81.56,4.62,1.17,9.23,1.66,13.85.25,2.39.15,2.4-2.35,3.55-4.67-4.33-9.36-8.69-14.05-13.05-.17.08-.35.15-.52.23,0,.46-.03.91,0,1.37.39,5.53.72,11.07,1.21,16.6.18,2.09-.44,3.5-3.08,4.15-4.79-4.76-9.65-9.76-15.62-14.31,0,1.51-.01,2.52,0,3.54.09,5.62.07,11.25.34,16.86.12,2.63-1.02,4.07-3.82,4.86-5.19-5.3-10.54-10.64-16.95-15.67-.12,1.15-.23,1.91-.26,2.67-.21,5.47-.38,10.94-.6,16.41-.08,1.87-.33,3.74-.39,5.61-.04,1.26-.53,2.12-1.75,2.67-.86.39-1.65.9-2.67,1.46-5.89-6.05-11.83-11.99-18.83-17.45-.16,1-.29,1.63-.36,2.26-.98,8.72-1.98,17.44-2.92,26.16-.14,1.31-.66,2.24-1.95,2.85-1.2.56-2.33,1.26-3.61,1.96-6.55-6.83-13.17-13.39-20.86-19.39-.21.99-.36,1.63-.48,2.27-1.95,10.26-3.92,20.51-5.81,30.78-.3,1.61-1,2.74-2.6,3.48-1.49.68-2.88,1.57-4.48,2.45-7.31-7.69-14.77-15.05-23.4-21.88h-.01Z"/>
    </g>
  </g>
</svg>