<?xml version="1.0" encoding="UTF-8"?>
<svg id="Layer_1" data-name="Layer 1" xmlns="http://www.w3.org/2000/svg" version="1.1" xmlns:xlink="http://www.w3.org/1999/xlink" viewBox="0 0 604 339">
  <defs>
    <style>
      .cls-1 {
        fill: none;
      }

      .cls-1, .cls-2 {
        stroke-width: 0px;
      }

      .cls-3 {
        clip-path: url(#clippath);
      }

      .cls-2 {
        fill: #13ff00;
      }
    </style>
    <clipPath id="clippath">
      <rect class="cls-1" width="604" height="339"/>
    </clipPath>
  </defs>
  <g class="cls-3">
    <g>
      <path class="cls-2" d="M3.46,339c4.47-9.23,9.24-18.3,14.39-27.18,5.31-9.15,10.96-18.08,17.08-26.71.59-.83,1.37-1.59,2.21-2.18,3.01-2.1,6.08-4.1,9.13-6.13.47-.31.98-.56,1.59-.9,5.36,6.2,10.08,12.76,14.89,19.54.46-.54.82-.89,1.1-1.29,4.61-6.49,9.46-12.79,14.56-18.91,5.03-6.03,10.21-11.93,15.81-17.45,3.17-3.12,6.39-6.2,9.64-9.24.63-.59,1.44-1.06,2.25-1.36,2.86-1.03,5.75-1.98,8.64-2.91,1.37-.44,1.41-.4,2.12.82,3.21,5.52,6.02,11.25,8.59,17.1.17.38.32.77.5,1.15.07.14.19.25.39.51.45-.34.86-.63,1.25-.95,4.67-3.88,9.23-7.91,14.04-11.62,7.9-6.08,16.24-11.5,25.2-15.93.64-.32,1.38-.54,2.09-.57,2.62-.09,5.24-.06,7.86-.1.85-.02,1.35.31,1.63,1.14,1.35,4.01,2.76,8,4.08,12.03.63,1.93,1.1,3.91,1.69,6.06.64-.28,1.16-.47,1.65-.72,6.86-3.55,14.02-6.39,21.43-8.54,4.53-1.31,9.13-2.38,13.83-2.88.72-.08,1.5-.12,2.18.09,2.25.69,4.46,1.52,6.7,2.27.71.24.89.79,1.07,1.41,1.1,3.88,1.85,7.83,2.39,11.83.2,1.5.39,2.99.6,4.62.5,0,.91.05,1.3,0,6.2-.92,12.43-1.06,18.67-.47,4.23.4,8.41,1.16,12.46,2.48.54.18,1.08.44,1.52.78,1.7,1.3,3.41,2.62,5.03,4.02.46.4.8,1.12.89,1.74.32,2.28.58,4.57.74,6.86.15,2.08.13,4.18.18,6.27.04,1.29.05,1.31,1.38,1.67,9.3,2.53,17.63,6.89,24.91,13.21.51.44.98.95,1.37,1.5,1.19,1.66,2.37,3.33,3.47,5.04.38.59.72,1.34.72,2.02.01,3.24-.09,6.48-.16,9.71,0,.36-.04.73-.11,1.09-.21,1.03.14,1.71,1,2.4,6.07,4.83,11.15,10.59,15.43,17.05.34.52.6,1.1.9,1.65h-17.3c-.75-2.38-1.49-4.75-2.26-7.12-.11-.34-.35-.63-.64-1.13-1.1,2.78-2.09,5.29-3.07,7.8-.05.13,0,.3,0,.46h-8.81c-.06-.41-.07-.83-.19-1.22-2.03-6.72-4.5-13.27-7.36-19.68-2.86-6.41-6.09-12.62-9.7-18.64-.23-.38-.52-.71-.99-1.35-1.36,6.5-2.88,12.6-5.19,18.62-.55-.35-.95-.59-1.32-.86-.98-.7-1.9-1.49-2.93-2.12-.98-.6-1.61-1.42-2.2-2.37-2.29-3.69-4.55-7.4-6.98-10.99-5.48-8.08-11.88-15.41-18.91-22.19-.36-.34-.76-.64-1.37-1.15-.34,3.78-.59,7.25-.98,10.7-.4,3.49-.78,7-1.75,10.47-2.01-.55-3.82-1.08-5.65-1.52-.8-.19-1.44-.54-2.03-1.11-1.58-1.52-3.17-3.05-4.82-4.5-4.79-4.16-9.82-8.01-15.14-11.47-5.01-3.26-10.17-6.26-15.56-8.84-.39-.19-.82-.3-1.45-.53.08,1.14.13,2.02.21,2.89.61,6.04.9,12.1.79,18.17-.01.6-.11,1.2-.18,1.86-2.3.21-4.43.39-6.56.62-.97.11-1.85-.05-2.73-.48-1.51-.74-3.03-1.45-4.58-2.08-12.88-5.25-26.23-8.71-40.04-10.42-.44-.05-.89,0-1.44,0,.07.45.09.76.17,1.05.89,3.28,1.88,6.54,2.67,9.84.91,3.76,1.67,7.56,2.45,11.34.27,1.31.2,1.34-1.05,1.85-1.84.75-3.72,1.43-5.51,2.29-1.43.68-2.86.85-4.42.71-9.85-.88-19.7-.65-29.53.15-7.57.61-15.11,1.59-22.58,3.07-.54.11-1.07.28-1.77.46.32.66.51,1.13.76,1.57,3.5,6.26,6.79,12.62,9.76,19.15.77,1.68.76,1.65-.76,2.78-1.71,1.29-3.38,2.64-5.06,3.96H3.46Z"/>
      <path class="cls-2" d="M419.02,339c.39-.67.73-1.37,1.17-2,5.02-7.23,10.65-13.99,16.14-20.86.35-.44.69-.9,1.1-1.43-.33-.37-.58-.69-.87-.97-2.44-2.37-4.86-4.76-7.35-7.09-.81-.76-.97-1.47-.52-2.49,1.91-4.38,4.15-8.48,7.23-12.23,6.74-8.23,13.95-16.03,21.06-23.93,1.47-1.63,3.07-3.15,4.61-4.72.4-.41.79-.82,1.33-1.36-.43-.46-.79-.88-1.18-1.26-2-1.92-4.02-3.82-6.02-5.75-1.02-.98-1.01-1.01-.28-2.26,1.3-2.21,2.49-4.5,3.96-6.59,1.26-1.78,2.76-3.42,4.31-4.97,5.28-5.3,10.56-10.62,15.98-15.78,4.28-4.08,8.78-7.94,13.18-11.89.42-.38.83-.77,1.43-1.32-2.52-2.15-4.93-4.21-7.48-6.39.99-1.35,1.9-2.61,2.82-3.86,2.1-2.83,4.64-5.23,7.25-7.59,9.04-8.21,18.68-15.7,28.18-23.35,1.34-1.08,2.78-2.05,4.17-3.08.46-.33.9-.68,1.49-1.12-2.06-1.84-4.44-2.94-6.62-4.54.29-.37.52-.7.78-.99,4.49-5.03,9.63-9.29,15.18-13.11,3.92-2.7,7.7-5.62,11.64-8.31,5.97-4.07,12.02-8.03,18.03-12.03.51-.34,1.03-.68,1.74-1.15-2.01-1.26-4.1-1.7-6.34-2.48.48-.48.79-.88,1.18-1.17,2.92-2.21,5.78-4.51,8.81-6.56,4.16-2.82,8.4-5.53,12.71-8.12,5.34-3.21,10.79-6.24,16.2-9.35v30.13c-.13.23-.25.46-.39.68-.99,1.6-1.81,3.35-3.03,4.75-1.86,2.12-4,4-6.02,5.97-.22.21-.48.37-.81.62-3.41-2.52-6.63-5.26-10.28-7.5-.33.43-.58.7-.77,1-2.33,3.85-4.78,7.63-6.95,11.57-5.35,9.72-10.37,19.61-14.62,29.87-.28.67-.61,1.34-1.06,1.9-1.69,2.13-3.44,4.22-5.19,6.31-.22.26-.52.45-.85.72-3.62-2.94-7.02-6.02-10.88-8.88-1.03,2.18-2.04,4.12-2.88,6.14-5.28,12.65-10.36,25.38-14.09,38.59-.79,2.81-1.91,5.39-3.71,7.71-.83,1.07-1.48,2.28-2.22,3.43-.28.43-.57.84-.94,1.38-.54-.43-1-.76-1.43-1.13-2.96-2.5-5.91-5.02-8.87-7.52-.42-.35-.87-.65-1.33-.99-.2.31-.32.42-.36.57-.42,1.35-.81,2.71-1.24,4.05-4.72,14.56-8.01,29.46-10.75,44.49-.42,2.3-1.04,4.45-2.17,6.49-.76,1.37-1.42,2.8-2.14,4.19-.21.41-.46.79-.77,1.31-4.36-3.21-8.31-6.76-12.71-10.13-.19.8-.31,1.3-.42,1.8-2.07,9.36-3.14,18.88-4.29,28.38-.79,6.54-1.2,13.12-1.65,19.69-.2,3-.57,5.91-1.92,8.65-.6,1.22-.98,2.54-1.48,3.8-.12.32-.33.6-.61,1.1-4.52-3.31-8.92-6.53-13.62-9.97-.3,3.89-.43,7.43-.59,10.97h-33.98Z"/>
      <path class="cls-2" d="M420.28,0h22.65c-1.04,5.04-2.59,9.86-6.15,13.9-2.46-2.07-4.88-4.11-7.42-6.25-.25.62-.43.99-.55,1.37-3.24,10.35-5.57,20.92-7.35,31.6-.4,2.42-1.11,4.66-2.18,6.82-.36.73-.73,1.46-1.18,2.39-2.89-2.1-5.6-4.08-8.47-6.17-.16.64-.3,1.03-.36,1.42-.59,4.19-1.22,8.38-1.73,12.58-.73,5.97-1.34,11.96-1.31,17.98.01,3.32-.63,6.42-1.91,9.44-.13.31-.33.6-.56,1.01-3.08-1.87-6.05-3.67-9.19-5.58-.08.52-.16.81-.17,1.1-.41,10-.07,19.97.91,29.92.33,3.35.54,6.66-.46,9.94-.1.33-.25.63-.43,1.08-3.43-1.34-6.51-3.18-10.07-4.65.32,2.97.49,5.64.9,8.26,1.3,8.26,2.58,16.53,4.79,24.62.2.74.26,1.55.22,2.32-.12,2.03-.32,4.06-.52,6.09-.04.39-.17.77-.29,1.28-3.61-.85-6.88-2.34-10.3-3.32-.1.28-.17.38-.15.47.05.31.11.62.18.92,2.48,9.91,5.78,19.55,9.66,28.99.64,1.55.86,4.8.4,6.66-3.58-.75-7.17-1.5-11.07-2.31.98,2.35,1.76,4.4,2.67,6.38,3.4,7.36,6.91,14.67,11.15,21.6,1.12,1.84,1.04,3.94,1.31,6.08-3.78.25-7.31-.59-11.16-.62.59.99,1.02,1.7,1.43,2.41,4.42,7.62,9.54,14.77,15.01,21.66,1.34,1.68,1.64,3.65,2.34,5.74-.79.12-1.39.25-2,.29-2.62.14-5.24.24-7.85.37-.38.02-.76.13-1.38.24,1.47,1.83,2.7,3.51,4.09,5.07,4.79,5.4,9.6,10.8,15.01,15.61,1.01.89,2.2,3.53,2.34,5.17-3.42.67-6.87,1.34-10.5,2.05.38.43.57.68.8.88,3.02,2.67,6.04,5.34,9.09,7.98,1.22,1.06,1.22,1.01.5,2.43-3.33,6.52-6.65,13.05-9.95,19.58-.25.5-.37,1.07-.56,1.61-.2.04-.4.09-.64.14-.61-1.3.02-2.82-.75-4.13-.35.03-.65.04-.96.08-2.39.27-4.79.55-7.18.81-3.07.33-2.37.26-3.92-2.01-1.26-1.84-1.55-3.84-1.6-5.95-.12-6.01-.23-12.02-.34-18.04-.01-.61,0-1.22,0-1.95-.77-.04-1.33-.09-1.89-.11-2.57-.08-5.13-.15-7.7-.24-.62-.02-1.33.05-1.61-.7-.76-2.05-1.79-3.99-1.71-6.3.24-6.8.82-13.57,1.72-20.31.11-.81.15-1.62.23-2.49-.79-.13-1.41-.24-2.03-.33-1.87-.27-3.75-.46-5.6-.8-3.51-.65-2.64.1-3.72-3.38-.59-1.9-.68-3.76-.35-5.72,1.21-6.96,2.41-13.91,4.15-20.76.12-.49.17-.99.26-1.57-.63-.18-1.12-.33-1.61-.47-2.47-.69-4.94-1.38-7.42-2.07-.58-.16-1.08-.38-1.16-1.09-.29-2.38-.78-4.72-.16-7.15,1.98-7.81,4.3-15.51,7.04-23.1.13-.37.2-.77.32-1.22-.97-.37-1.85-.7-2.72-1.05-1.9-.76-3.79-1.53-5.69-2.29-.58-.23-.94-.53-.99-1.24-.23-3.21-.03-6.32,1.2-9.39,2.83-7.09,5.61-14.21,8.92-21.1.19-.4.29-.85.45-1.3-.59-.32-1.05-.57-1.51-.81-1.95-1.02-3.88-2.08-5.85-3.06-.84-.41-1.15-.97-1.01-1.87.3-2.01.6-4.03.84-6.06.18-1.59.72-3.03,1.4-4.46,3.73-7.79,7.8-15.4,12.3-22.77.23-.38.41-.8.66-1.29-.77-.49-1.42-.91-2.07-1.34-1.49-.97-2.97-1.96-4.47-2.92-.57-.37-.97-.79-.77-1.54.77-2.87,1.33-5.76,2.97-8.37,4.86-7.7,9.79-15.35,15.17-22.71.23-.32.41-.69.64-1.08-.53-.41-.99-.75-1.44-1.1-1.45-1.12-2.9-2.24-4.37-3.34-.58-.43-.83-.91-.51-1.61,1.17-2.56,2.1-5.22,3.79-7.55,5.61-7.71,11.52-15.17,17.81-22.34.3-.35.58-.72.95-1.17-.53-.47-.98-.88-1.45-1.29-1.11-.95-2.22-1.91-3.35-2.85-.51-.42-.72-.86-.36-1.49,1.53-2.73,2.86-5.57,5.01-7.94,6.52-7.17,13.04-14.32,20.02-21.04.35-.34.56-.82.84-1.24h0Z"/>
      <path class="cls-2" d="M258.59,0c.33.4.61.84.99,1.19,1.71,1.62,3.42,3.24,5.16,4.83,1.44,1.31,2.05,3.09,3.09,4.93-3.29.48-6.38.23-9.73.47.39.48.63.84.93,1.14,4.93,4.77,9.86,9.54,14.79,14.31,1.05,1.02,2.07,2.09,3.2,3.01,1.67,1.36,2.43,3.22,3.26,5.3-.64.11-1.18.25-1.73.29-2.04.14-4.08.25-6.12.38-.5.03-.99.13-1.8.23.61.64.98,1.06,1.37,1.45,5.24,5.13,10.46,10.28,15.75,15.35,1.4,1.34,2.02,2.98,2.66,4.87-2.91.88-5.89.9-9.07,1.51.57.61.93,1.02,1.32,1.41,4.36,4.38,8.69,8.79,13.1,13.12,1.26,1.23,1.65,2.7,2,4.4-2.6,1.07-5.3,1.44-8.1,2.23.47.53.8.92,1.15,1.28,3.22,3.37,6.44,6.74,9.66,10.11.25.27.52.52.74.81.69.87.86,1.93.76,2.97-.1.94-1.11,1.01-1.78,1.33-1.56.74-3.17,1.36-4.97,2.12.43.51.78.94,1.14,1.35,2.07,2.36,4.15,4.72,6.24,7.06.55.62.8,1.33.83,2.14.03.84-.22,1.5-.93,2.03-3.64,2.73-2.49,2.45-5.54-.16-2.42-2.08-4.74-4.28-7.2-6.32-1.1-.91-1.69-1.78-1.09-3.19.12-.27.07-.61.12-1.15-.69.1-1.29.17-1.87.28-.98.19-1.84.07-2.6-.68-.62-.62-1.36-1.11-2.07-1.67-.21.3-.34.49-.56.81-1.49-1.12-2.98-2.18-4.41-3.31-6.23-4.95-12.44-9.93-18.66-14.89-.19-.16-.44-.25-.8-.46-.39.98-.75,1.87-1.15,2.87-.47-.2-.84-.35-1.21-.51-.14-.06-.27-.17-.41-.23-5.92-2.42-10.48-6.88-15.64-10.43-3.62-2.49-7.17-5.1-10.75-7.65-.29-.21-.61-.38-.97-.59-1.05.91-1.57,2.13-2.3,3.19-.91,1.32-.89,1.33-2.38.77-2.26-.84-4.4-1.89-6.41-3.26-6.49-4.42-13.06-8.74-19.6-13.09-.39-.26-.79-.51-1.35-.87-.82,1.09-1.63,2.17-2.43,3.25-.53.72-1.07,1.43-1.55,2.17-.41.63-.92.75-1.61.58-2.91-.72-5.65-1.68-8.23-3.33-6.35-4.06-12.86-7.88-19.31-11.78-.35-.21-.74-.37-1.26-.62-1.32,1.58-2.46,3.26-3.57,4.95-.15.23-.13.61-.12.92.2,5.96.41,11.91.63,17.87,0,.25.11.49.22.91,1.7-.17,3.34-.37,5-.5,5.01-.41,10.03-.82,15.04-1.18,2.34-.17,4.51.69,7.02,1.18-1.62,3.02-3.58,5.57-5.13,8.5,1.37,0,2.56.08,3.73-.01,9.53-.7,19.06-.75,28.6-.42,2.57.09,4.84,1.15,7.39,2-1.26,2.57-3.02,4.65-4.3,7.2.44.09.76.22,1.09.22,6.35.11,12.68.48,18.98,1.2,3.43.39,6.88.81,10.25,1.55,2.8.61,5.36,1.99,8.09,3.41-1.09,2.02-2.11,3.88-3.24,5.96.7.14,1.23.27,1.76.34,7.7,1.06,15.27,2.69,22.68,5.03,2.34.74,4.27,2.15,6.46,3.41-.53,1.7-1.02,3.28-1.53,4.93.35.13.63.28.92.35,4.76,1.13,9.33,2.85,13.78,4.82,3.2,1.42,6.31,3.08,9.07,5.29,1.05.85,1.79,1.77,1.64,3.16-.16,1.42.52,2.11,1.78,2.71,3.93,1.87,7.64,4.14,10.92,7.15.19-1.96,1.09-3.48,2.09-4.94.12.02.24.05.36.07-.12,1.43-.24,2.87-.36,4.3.1.03.2.06.3.08,2.51-5.97,5.41-11.72,9.53-16.75.11.04.22.08.33.12-.44,1.43-.87,2.86-1.31,4.29.05.03.11.05.16.08,1.98-2.62,3.9-5.29,5.97-7.83,2.11-2.58,4.26-5.16,7.29-7.33-.42,1.74-1.66,2.75-2.03,4.47,2.57-2.59,4.97-4.95,7.91-7.17-.12.65-.15,1-.26,1.33-.94,2.88-1.92,5.75-2.81,8.65-.29.94-.77,1.33-1.76,1.41-1.4.12-2.79.47-4.19.69-.92.14-1.51.56-1.72,1.53-.38,1.73-.87,3.45-1.26,5.18-.37,1.61-1.21,2.72-2.87,3.16-1.42.38-2.79.92-4.21,1.26-1.19.29-1.56,1.01-1.57,2.15,0,1.62-.14,3.24-.19,4.86-.06,1.99-.72,2.93-2.55,3.67-.71.29-1.4.63-2.36,1.07,2.16,1.77,3.09,4.33,5.46,5.72.2-.34.36-.63.71-1.24.38,1.73.53,3.32,2.26,4.06.09-.34.22-.65.25-.97.36-3.61,1.26-7.1,2.27-10.57.36-1.22.71-2.49,1.99-3.51.26,2.11.49,4,.77,6.27.29-.59.45-.86.56-1.15,1.13-2.93,2.24-5.86,3.38-8.78.2-.51.53-.96,1.01-1.34-1.94,9.06-3.88,18.13-5.89,27.5-2.77-3.04-5.38-5.91-7.99-8.78-.11.04-.22.08-.33.12-.07,1.46-.14,2.92-.22,4.66-1.71-.92-3.08-1.81-4.25-3.01-5.61-5.72-11.21-11.44-16.82-17.15-.18-.18-.4-.31-.8-.62-.74,2.04-1.42,3.95-2.17,6.01-2.31-1.2-4.48-2.11-6.27-3.84-5.2-5.01-10.52-9.91-15.8-14.84-.79-.74-1.65-1.41-2.61-2.23-1.35,2.51-2.63,4.88-3.97,7.35-2.35-.99-4.64-1.58-6.54-3.24-4.92-4.32-9.95-8.51-14.95-12.74-1.59-1.35-3.23-2.64-4.99-4.08-1.98,2.66-3.37,5.6-5.36,8.28-1.1-.33-2.18-.74-3.29-.98-3.47-.73-6.31-2.48-9.07-4.7-5.74-4.63-11.72-8.98-17.61-13.44-.2-.15-.45-.25-.82-.46-.3.38-.6.72-.84,1.09-1.49,2.34-2.96,4.69-4.45,7.03-.76,1.21-.76,1.14-2.14.92-2.95-.47-5.51-1.66-7.96-3.43-6.24-4.51-12.62-8.82-18.95-13.2-.37-.26-.79-.44-1.27-.7-.35.55-.64.97-.9,1.41-1.43,2.44-2.86,4.87-4.27,7.32-1.04,1.8-.87,1.51-2.71,1.28-.42-.05-.83-.18-1.24-.19-2.07-.09-3.81-.92-5.49-2.08-.92-.63-1.38-1.33-1.47-2.4-.2-2.34-.45-4.68-.7-7.02-.07-.67-.2-1.33-.32-2.09-1.13.09-1.5-.46-1.56-1.47-.16-2.97-.56-5.94-.59-8.91-.05-5.44.08-10.88.17-16.31.06-3.65.19-7.31.29-11.14-.64-.18-1.32-.4-2.01-.56-1.34-.32-1.41-.37-1.52-1.76-.29-3.82-.14-7.62.52-11.41.91-5.2,1.68-10.43,2.55-15.63.43-2.58.97-5.14,1.42-7.71.12-.66.09-1.35.13-2.02h1.89c-.1.88-.23,1.75-.31,2.63-.45,4.84-.83,9.68-1.36,14.51-.15,1.4.34,2.06,1.53,2.65,4.69,2.32,9.35,4.73,14.01,7.11.45.23.87.51,1.46.85-.73.3-1.28.47-1.79.73-.61.31-1.2.3-1.81.02-2.05-.92-4.13-1.78-6.16-2.75-2.17-1.04-4.3-2.17-6.45-3.25-.3-.15-.64-.2-.97-.3-.49,2.3-.65,6.07-.28,7.33,3.65.11,7.15,1.11,10.69,2.56-1.26,1.58-2.81,2.75-3.89,4.55,2.25.21,4.25.29,6.21.59,4.3.64,8.6,1.29,12.87,2.11,5.35,1.03,10.64,2.36,15.61,4.67.4.19.77.42,1.23.67-.91,1.06-1.7,1.99-2.62,3.05.57.16.86.24,1.15.32,6.04,1.55,12.06,3.15,17.81,5.62,3.95,1.69,7.92,3.35,11.48,5.8.37.26.73.54,1.09.8-.25.58-.44,1.05-.6,1.41,4.65,2.38,9.2,4.71,13.75,7.04-1.54-1.17-3.07-2.34-4.71-3.37-1.08-.68-1.43-1.46-1.28-2.72.33-2.8.5-5.62.78-8.43.1-.98-.25-1.49-1.16-1.91-1.85-.86-3.63-1.87-5.43-2.82-.57-.3-.98-.71-1.19-1.37-.58-1.86-.92-3.73-.87-5.7.11-4.29.07-8.58.16-12.86.03-1.21-.39-1.9-1.47-2.46-1.29-.67-2.5-1.53-3.68-2.39-.48-.35-1.01-.88-1.14-1.42-.45-1.76-.88-3.55-1.04-5.36-.4-4.69-.66-9.38-.95-14.08-.05-.8-.38-1.33-1.01-1.83-.76-.6-1.41-1.35-2.1-2.04h9.75c.55.89,1.1,1.78,1.65,2.66.87,1.4,1.5,2.9,2.04,4.89-2.25-.83-4.12-1.53-6-2.22.38,1.16.9,2.11,1.46,3.04,4.06,6.72,8.49,13.19,13.16,19.51,1.03,1.4,1.5,3.03,2.3,4.85-2.81-.44-5.09-1.48-7.5-2.19,0,.24-.04.36,0,.43.58.93,1.13,1.89,1.77,2.77,4.58,6.3,9.18,12.6,13.79,18.88,1.03,1.4,1.53,2.98,2.22,4.93-3.04-.78-5.69-1.45-8.7-2.22.86,1.24,1.47,2.2,2.16,3.1,4.57,5.92,9.15,11.84,13.75,17.74,1.01,1.3,1.49,2.78,1.91,4.41h-2.45c6.72,5.3,13.27,10.47,19.99,15.76,1.22-5.01,2.43-9.83,3.17-14.89-.76,0-1.32-.01-1.88,0-2.3.05-4.61.13-6.91.14-.42,0-1.11-.17-1.22-.44-.59-1.42-1.41-2.75-1.13-4.46.8-4.95,1.47-9.93,2.16-14.9.1-.69.01-1.4.01-2.16-.62-.03-1.08-.05-1.55-.07-2.36-.11-4.71-.23-7.07-.31-1.1-.04-1.75-.46-2.26-1.53-.85-1.78-1.02-3.54-.86-5.47.38-4.79.63-9.6.91-14.4.04-.6,0-1.21,0-1.9-.73-.08-1.24-.14-1.75-.19-2.4-.23-4.8-.46-7.2-.67-.93-.08-1.45-.51-1.9-1.35-1.03-1.9-1.38-3.9-1.38-6.03,0-4.97-.07-9.93-.12-14.9,0-.56-.08-1.12-.12-1.71-.48-.09-.83-.17-1.19-.22-2.34-.3-4.68-.56-7.01-.91-.58-.09-1.41-.3-1.63-.71-.9-1.69-1.98-3.33-2-5.38-.01-1.3-.18-2.6-.28-3.9h20.46Z"/>
      <path class="cls-2" d="M375.3,339c-3.35-2.17-3.72-2.44-5.27-5.9-1.04-2.33-1.89-4.77-2.6-7.23-1.3-4.52-2.46-9.08-3.61-13.64-.25-.98-.71-1.49-1.65-1.84-1.38-.5-2.68-1.18-4.01-1.79-.79-.36-1.3-.96-1.68-1.77-1.41-2.94-2.36-6-3.01-9.21-1.12-5.54-2.03-11.11-2.68-16.72-.12-1.09-.49-1.81-1.52-2.32-1.16-.58-2.21-1.4-3.31-2.1-.85-.54-1.26-1.32-1.54-2.27-1.4-4.7-1.9-9.53-2.17-14.39-.25-4.49-.39-8.98-.54-13.48-.03-.75-.3-1.23-.9-1.69-3.62-2.77-3.76-2.77-4.32-7.27-.39-3.2-.41-6.47-.39-9.7.03-3.55.27-7.1.47-10.65.12-2.04.3-4.07.51-6.09.09-.86-.15-1.48-.75-2.1-2.93-3.04-2.99-3.12-2.9-7.36.14-6.29.92-12.51,2.03-18.69.56-3.09,1.12-6.17,1.72-9.25.14-.73.07-1.3-.43-1.88-.41-.47-.72-1.03-1.07-1.55-.6-.9-.81-1.88-.73-2.98.31-4.29,1.07-8.5,2.04-12.68,1.38-5.96,2.88-11.89,4.75-17.72.36-1.11.39-2.09-.23-3.14-.76-1.28-.74-2.7-.36-4.11,1.04-3.84,1.98-7.7,3.17-11.49,2.23-7.14,4.78-14.17,7.79-21.03.51-1.16.95-2.25.61-3.6-.19-.74.03-1.68.31-2.44,3.29-9.06,7.26-17.82,11.69-26.38.98-1.91,1.99-3.8,2.98-5.7.07-.14.18-.27.22-.41.41-1.43.81-2.87,1.25-4.47-.38-.18-.88-.43-1.39-.66-9.87-4.36-19.8-8.6-29.6-13.11-7.85-3.61-15.55-7.54-23.31-11.34-1.17-.57-2.38-1.13-2.99-2.54-1.8.88-3.51,1.72-5.41,2.64.9.99,1.69,1.81,2.42,2.68,2.48,2.97,4.93,5.97,7.4,8.95.91,1.09,1.24,2.38,1.45,3.75.12.81-.06,1.43-.71,1.93-1.16.9-2.29,1.82-3.43,2.74-.19.16-.36.34-.6.57.85,1.2,1.72,2.3,2.45,3.5,1.07,1.73,2.14,3.48,3.01,5.31,1.06,2.22.99,4.46-.57,6.5-.45.58-.84,1.21-1.32,1.76-.55.63-.59,1.2-.25,1.99.53,1.24,1.01,2.54,1.22,3.86.17,1.1.06,2.31-.19,3.41-.48,2.14-1.18,4.22-1.71,6.35-.53,2.18-.85,4.41-1.46,6.57-1.14,4.02-2.39,8.02-3.67,12-.38,1.17-1.01,2.26-1.68,3.35-.34-.66-.14-1.28.04-1.88,1.15-3.86,2.32-7.71,3.45-11.57.3-1.03.52-2.09.64-3.19-1.56,1.04-2.41,2.76-4.22,3.73-.25-1.26-.21-2.35.03-3.48,1.07-5.01,2.12-10.02,3.17-15.04.09-.43.09-.88.15-1.54-2.06,1.28-3.9,2.43-5.85,3.64-.75-1.46-1.04-2.8-.82-4.22.36-2.32.78-4.64,1.13-6.97.46-3.1.87-6.21,1.28-9.32.07-.56.07-1.13.11-1.9-2.63,1.02-5.09,1.98-7.69,2.99-.86-1.6-1.51-3.06-1.36-4.82.49-5.94.95-11.88,1.42-17.82.03-.4,0-.82,0-1.45-3.15.53-6,1.77-9.2,2.15-.91-1.66-1.86-3.27-1.81-5.33.14-5.7.19-11.4.27-17.1.01-.92-.05-1.85-.09-2.92-.64.08-1.1.1-1.54.18-2.42.44-4.84.92-7.26,1.34-1.45.25-1.46.14-2.26-1.06-1.25-1.86-1.74-3.88-1.61-6.09.05-.83.01-1.67.02-2.51h26.74c.03.95.52,1.7,1.2,2.76-.11-1.16-.18-1.96-.26-2.76h54.11c-1.19,1.48-2.38,2.96-3.74,4.63.63,0,.94.03,1.24,0,3.39-.33,6.77-.79,10.17-.98,4.97-.28,9.95-.38,14.92-.52,1.76-.05,3.28.76,5.1,1.45-2.61,2.38-5.23,4.34-7.67,6.88.47.07.66.13.85.13,4.93.1,9.85.17,14.78.31.92.03,1.43-.35,1.93-1.04,2.42-3.35,4.89-6.67,7.33-10.01.18-.24.26-.56.39-.83h.94c-.17.38-.32.77-.52,1.13-2.55,4.45-5.15,8.86-7.65,13.34-2.06,3.7-4,7.46-6.01,11.19-.21.39-.51.74-.86,1.24-.69-.75-1.27-1.37-1.91-2.06-.24.32-.41.51-.53.74-1.15,2.23-2.38,4.42-3.43,6.7-3.57,7.75-6.71,15.66-9.22,23.83-.73,2.37-1.95,4.59-3.07,7.17-1.05-1.17-1.89-2.12-2.8-3.14-.13.31-.22.5-.28.69-2.95,8.62-5.42,17.36-7.13,26.32-.8,4.21-1.38,8.47-2.8,12.54-.13.37-.3.72-.55,1.32-1.21-1.19-2.27-2.23-3.48-3.42-.18.71-.34,1.19-.42,1.69-.58,3.45-1.29,6.89-1.69,10.36-.6,5.24-1.01,10.51-1.44,15.77-.14,1.67.03,3.36-.17,5.01-.42,3.58-.99,7.14-1.51,10.7-.02.17-.2.32-.4.63-1.42-1.18-2.76-2.29-4.27-3.55-.09.63-.18,1.03-.18,1.42-.11,5.96-.31,11.92.24,17.87.43,4.58.82,9.16,1.29,13.74.27,2.61.34,5.19-.09,7.9-2.1-.68-3.46-2.4-5.53-3.37.23,2.3.34,4.38.66,6.44,1.36,8.89,3.04,17.71,5.53,26.38.65,2.27.59,4.74.84,7.12,0,.06-.13.13-.35.34-1.84-.97-3.75-1.98-5.84-3.08.09.59.12.95.21,1.29,2.55,10.22,6.15,20.08,10.27,29.77.85,2,1.2,4.2,1.76,6.32.03.11-.11.26-.25.57-2.17-.84-4.32-1.67-6.82-2.63.44,1.15.72,1.98,1.07,2.78,3.6,8.37,7.62,16.53,12.56,24.2,1.43,2.23,2.47,4.59,3.25,7.1.1.32.12.65.23,1.29-2.6-.66-4.95-1.26-7.51-1.91.24.52.35.84.52,1.14,5.26,8.9,11.29,17.24,17.92,25.16.99,1.18,2.58,4.14,2.86,5.53-2.58-.29-5.09-.58-7.82-.89.34.53.52.89.76,1.21,4.86,6.32,10.4,12.04,16.13,17.56,1.36,1.31,2.77,2.56,4.2,3.78.58.5.68.99.37,1.65-.33.71-.63,1.44-.94,2.16h-14.79,0ZM377.27,40.03c1.6-2.66,3.3-5.54,5.05-8.39.44-.72.25-1.25-.21-1.84-2.94-3.82-5.86-7.64-8.79-11.46-.24-.31-.58-.55-.9-.85-.4.36-.73.62-1.01.92-1.84,2-3.68,4.01-5.5,6.03-.39.43-.73.95-1.42.76-1.65-.46-3.22-.88-4.43-2.38-2.92-3.62-6.05-7.08-9.11-10.59-.36-.42-.79-.78-1.24-1.23-.37.45-.66.76-.89,1.09-1.46,2.04-2.9,4.1-4.38,6.13-.25.35-.74.85-1.02.79-1.41-.28-2.84-.41-3.97-1.61-3.24-3.42-6.59-6.73-9.9-10.08-.39-.39-.82-.75-1.43-1.29-1.49,2.74-2.88,5.29-4.29,7.88-1.64-.16-3.09-.46-4.35-1.62-3.11-2.88-6.31-5.67-9.48-8.48-.61-.54-1.28-1.01-2.1-1.66-.7,1.69-1.32,3.17-1.94,4.65-.1-.02-.19-.04-.29-.06-.27-1.13-.53-2.26-.8-3.42-2.79.97-5.4,1.87-8.18,2.83.42.46.7.82,1.03,1.13,2.81,2.74,5.63,5.48,8.44,8.22,1.28,1.25,2.52,2.51,2.92,4.36.18.84.74,1.18,1.61,1.13,2.04-.11,4.08-.16,6.12-.27,1.36-.08,2.56.32,3.79,1.01-.43,1.84-.86,3.64-1.34,5.7,1.11.03,1.99.13,2.85.07,4.08-.28,8.16-.54,12.22-.94,1.6-.16,2.97.29,4.47.94-.81,2.23-2.13,4.2-2.73,6.61.8,0,1.42.05,2.04,0,5.27-.45,10.54-.91,15.81-1.37,1.57-.14,2.93.46,4.4,1.17-1.46,2.4-3.17,4.51-4.38,7.07.54.04.85.09,1.16.07,3.98-.24,7.95-.53,11.92-.72,3.29-.16,6.58-.19,10.25-.29h0Z"/>
      <path class="cls-2" d="M0,234.48c.75.18,1.3-.16,1.84-.63,1.7-1.48,3.41-2.94,5.13-4.4,12.03-10.13,25.06-18.74,39.13-25.82,5.67-2.85,11.72-4.5,17.88-5.82.78-.17,1.68-.08,2.46.14,3.7,1.02,7.22,2.53,10.55,4.44,1.1.63,2.04.7,3.22.12,8.5-4.18,17.41-7.25,26.63-9.38,5.31-1.22,10.68-2.23,16.16-2.29,3.51-.04,7.02-.05,10.52.15,4.33.24,8.24,1.99,11.98,4.01,1.73.93,3.39,1.36,5.36,1.2,11.55-.91,22.8.61,33.74,4.41,4.5,1.57,8.98,3.2,13.47,4.79.38.13.77.24,1.35.41-.42-1.71-1.58-2.85-2.11-4.38,1.46-1.08,3.4-1,5.05-2.15-2.3-1.13-4.47-2.19-6.58-3.22-.04-.98.13-1.61.93-1.98,2.86-1.3,5.71-2.62,8.75-4.03.92.72,1.92,1.57,2.98,2.3,2.18,1.51,4.03,3.29,5.22,5.71.36.74.97,1.37,1.41,2.07.57.9.32,1.39-.76,1.35-1.57-.06-3.13-.27-4.69-.41-.39-.04-.79-.06-1.39-.11.8,1.66,2.03,2.72,3.14,4-1.45.68-2.88.56-4.26.75-.47.06-.94.04-1.41.08-.2.02-.57.06-.58.13-.21,1.21-1.4.82-2.27,1.42.79.43,1.48.81,2.18,1.19.69.37,1.36.83,2.09,1.08,7.38,2.54,14.12,6.39,20.83,10.26,11.06,6.38,21.4,13.76,31.12,22.04,3.68,3.13,6.51,6.91,8.93,11.04.1.18.16.38.29.7-.69.03-.98-.45-1.35-.74-4.07-3.13-7.8-6.67-11.7-10-4.26-3.64-8.68-7.09-13.16-10.45-6.58-4.94-13.58-9.27-20.73-13.35-1.59-.91-3.23-1.73-4.86-2.58-.26-.13-.55-.2-.91-.19,2.92,3.47,5.82,6.91,7.91,10.91-.19.13-.25.19-.28.18-2.99-1.09-6.16-1.86-8.95-3.35-6.44-3.43-13-6.57-19.73-9.36-6.77-2.81-13.64-5.4-20.74-7.31-4.96-1.33-9.93-2.59-14.9-3.88-.39-.1-.8-.12-1.28-.07,3.75,3.95,7.38,7.96,10.46,12.77-.64.07-1.07.16-1.49.16-2.52-.02-5.03-.09-7.55-.1-2.71,0-5.25-.92-7.87-1.43-8.34-1.62-16.72-2.86-25.18-3.69-8-.79-16.01-.96-24.03-1.1-3.77-.07-7.54.21-11.31.34-.39.01-.77.14-1.45.27,4.94,4.35,9.43,8.77,13.49,13.82-.46.22-.76.4-1.08.51-3.05.96-6.09,1.94-9.16,2.83-1.09.32-2.25.54-3.39.58-8.97.3-17.88,1.32-26.75,2.57-11.89,1.68-23.63,4.18-35.27,7.15-4.26,1.09-8.46,2.43-12.68,3.66-.39.11-.74.32-1.38.6,5.95,4.53,11.61,9.06,16.88,14.22-.36.3-.61.56-.9.74-3.44,2.2-6.88,4.41-10.35,6.56-.83.52-1.75.95-2.68,1.27-4.75,1.64-9.53,3.23-14.29,4.83-.55.18-1.1.33-1.66.49C0,258.54,0,246.51,0,234.48Z"/>
      <path class="cls-2" d="M0,48.65c.37.43.83.81,1.11,1.29,5.75,9.7,12.38,18.79,19.12,27.8.37.49.69,1.06.88,1.64.91,2.79,1.76,5.59,2.62,8.39.04.14.03.3.06.65-.54.09-1.08.23-1.62.27-5.12.38-10.25.73-15.37,1.1-.88.06-1.75.15-2.86.25.31.56.47.93.7,1.24,4.44,5.7,8.75,11.5,13.37,17.06,4.31,5.19,8.89,10.16,13.43,15.16,3.27,3.6,6.67,7.09,10.01,10.63.21.23.45.46.58.74,1.32,2.78,2.63,5.58,4.04,8.59-.66.2-1.17.4-1.7.5-4.79.9-9.58,1.77-14.37,2.67-1.26.24-2.57.34-3.96.97.48.52.85.93,1.23,1.34,5.69,6.17,12.04,11.65,18.19,17.33,6.97,6.44,14.35,12.39,21.83,18.21.68.53,1.28,1.23,1.75,1.96,1.12,1.76,2.13,3.58,3.32,5.6-3.75.86-7.38,1.26-10.94,1.96-3.65.72-7.3,1.44-10.93,2.24-3.58.79-7.15,1.63-10.7,2.55-3.55.93-7.07,1.96-10.58,3.01-3.56,1.07-7.11,2.19-10.64,3.35-3.48,1.14-6.94,2.36-10.48,3.57-.24-.31-.5-.56-.66-.87-.83-1.58-1.66-3.15-2.42-4.75-.29-.6-.49-1.28-.59-1.94-1.37-8.89-2.58-17.8-3.17-26.79-.17-2.66-.42-5.32-.69-7.97-.07-.65-.36-1.28-.55-1.92V48.66H0Z"/>
      <path class="cls-2" d="M392.92,339c.54-1,.65-2.03.47-3.17-.28-1.83-.03-3.62.75-5.33,1.95-4.26,3.87-8.53,5.79-12.8.19-.42.35-.87.51-1.3,1.01-1.83,2.11-3.61,3.01-5.5,3.52-7.38,7.88-14.29,12-21.33.64-1.1,1.13-2.19,1.23-3.5.07-.85.46-1.72.88-2.48,1.23-2.19,2.53-4.34,3.86-6.47.47-.76.65-1.43.33-2.34-.23-.65-.15-1.45-.05-2.16.94-6.73,1.92-13.46,2.88-20.18.04-.25,0-.51,0-.98-3.73.62-7.3,1.78-11.06,2.14-.99-2.27-1.74-4.38-1.04-6.87,1.83-6.43,3.5-12.91,5.24-19.38.12-.44.21-.9.37-1.57-.69,0-1.24-.03-1.78,0-2.72.16-5.44.33-8.16.49-.37.02-.73,0-1.1-.01-.53-.03-.87-.29-.97-.84-.37-1.99-.77-3.9-.03-5.99,2.46-6.95,5.12-13.83,8.04-20.6.18-.42.32-.85.55-1.46-4.07-.37-8.01-.72-12.09-1.09-.19-2.43-.82-4.65.25-6.89,3.33-6.93,6.81-13.79,10.64-20.46.3-.53.57-1.08.93-1.77-.74-.19-1.28-.33-1.83-.46-2.91-.67-5.83-1.31-8.73-2-1.51-.36-1.54-.41-1.47-1.89.1-1.93.22-3.87.45-5.78.09-.74.42-1.51.82-2.16,4.27-7.14,8.94-14.03,13.83-20.76.28-.38.54-.77.8-1.16.05-.08.03-.2.07-.46-3.8-1.47-7.64-2.95-11.59-4.49.58-2.86.6-5.61,2.54-8.02,5.38-6.69,10.71-13.42,16.45-19.8.34-.38.64-.8,1.06-1.34-.6-.32-1.09-.59-1.59-.86-2.87-1.52-5.74-3.04-8.6-4.57-1.26-.68-1.27-.73-.84-2.08.39-1.25.79-2.5,1.27-3.71.24-.61.6-1.22,1.04-1.71,6.32-7,12.98-13.67,19.92-20.04.38-.35.84-.61,1.49-1.08-3.81-2.62-7.28-5.01-10.82-7.44,1.39-3.07,2.33-6.08,5-8.32,6.93-5.84,13.74-11.81,20.96-17.29.49-.38.96-.78,1.59-1.3-.51-.47-.89-.87-1.32-1.22-2.4-2.02-4.82-4.03-7.22-6.06-1.21-1.02-1.22-1.05-.4-2.45.74-1.26,1.49-2.52,2.32-3.74.37-.55.88-1.03,1.41-1.45,6.52-5.11,13.37-9.74,20.23-14.38.46-.31.86-.73,1.28-1.1h5.03c-.18.42-.29.88-.55,1.24-9.51,13.56-18.13,27.66-25.73,42.37-6.66,12.89-12.49,26.15-17.42,39.8-3.09,8.56-5.83,17.23-8.19,26.03-2.42,9.05-4.42,18.19-5.98,27.43-1.29,7.68-2.24,15.41-2.91,23.18-.84,9.71-1.1,19.43-.79,29.15.2,6.16.74,12.31,1.31,18.46.8,8.71,2.33,17.31,4.28,25.83,2.17,9.49,4.97,18.8,8.52,27.88.07.19.2.36.43.76.38-.49.69-.86.96-1.26,2.94-4.33,5.87-8.66,8.81-12.99.32-.48.66-.94,1-1.41,2.57-3.62,5.15-7.24,7.72-10.86.12-.17.2-.36.49-.9-1.15.42-1.98.73-3.12,1.15,1.02-3.48,2.31-6.56,3.55-10.09,1.01,1.69,1.81,3.04,2.76,4.64,8.34-10.57,16.55-20.93,25.35-30.81,8.81-9.89,17.85-19.56,27.57-28.6-.59.66-1.18,1.33-1.77,1.98-4.94,5.43-9.34,11.28-13.65,17.22-2.58,3.55-5.44,6.9-8.18,10.34-.13.16-.31.27-.57.49-.74-.57-1.47-1.13-2.3-1.77-.31.3-.64.55-.87.86-4.52,6.09-9.11,12.14-12.96,18.7-3.86,6.59-7.82,13.12-11.22,19.97-1.37,2.75-3.25,5.25-4.9,7.85-.1.16-.29.27-.58.54-.92-1.26-1.8-2.46-2.77-3.79-.35.55-.64.97-.9,1.4-2.61,4.18-4.64,8.66-6.82,13.08-4.7,9.54-8.62,19.4-12.11,29.44-.65,1.87-1.65,3.61-2.52,5.4-.68,1.41-1.4,2.8-2.18,4.36-1.68-1.53-2.35-3.61-3.72-5.48-.31.74-.55,1.3-.77,1.86-5.14,13.19-9.1,26.72-12.23,40.51-.38,1.67-.64,3.38-.96,5.06h-10.7,0Z"/>
      <path class="cls-2" d="M51.91,0c.36,2.53.72,5.07,1.09,7.6,1.02,7.1,2.6,14.09,4.08,21.1.14.64.08,1.32.12,1.98,0,.11-.01.22.02.32.25.66.6,1.29.76,1.97,3.06,13.42,6.67,26.68,10.76,39.82,5.24,16.86,11.52,33.32,18.59,49.48,5.16,11.79,10.86,23.34,17.06,34.63,5.74,10.46,11.81,20.74,18.41,30.69.34.51.63,1.04.97,1.59-.96.32-6.96.22-8.67-.12-.08-.39-.21-.83-.25-1.28-.22-2.24-.41-4.48-.62-6.72-.05-.56-.16-1.11-.27-1.86-.69.22-1.23.36-1.75.56-5.16,1.9-10.33,3.8-15.49,5.7-.44.16-.9.29-1.34.44-.53.17-.92,0-1.2-.46-1.31-2.21-2.64-4.4-3.9-6.63-.24-.43-.25-1.01-.28-1.52-.74-13.43-.77-26.87-.27-40.32.03-.71,0-1.42,0-2.3-.81.14-1.37.23-1.93.34-5.74,1.22-11.48,2.45-17.22,3.67-1.83.39-1.84.38-2.61-1.24-.85-1.8-1.67-3.61-2.56-5.39-.49-.97-.7-1.95-.61-3.02.48-5.68.95-11.36,1.41-17.05.67-8.35,1.93-16.62,3.1-24.91.07-.51.11-1.02.18-1.72-.56-.04-1.01-.12-1.44-.08-5.33.4-10.66.81-15.99,1.21-1.2.09-2.41.14-3.61.24-.78.07-1.29-.16-1.54-.97-.8-2.55-1.66-5.07-2.42-7.63-.18-.62-.1-1.35,0-2.01,2-12.56,4.85-24.95,7.8-37.31.64-2.68,1.45-5.32,2.22-8.13-.56-.08-1.01-.17-1.46-.19-6.65-.32-13.3-.64-19.95-.96-1.61-.08-1.63-.09-1.95-1.64-.49-2.36-.95-4.72-1.46-7.07-.22-1-.14-1.96.16-2.93,1.63-5.3,3.23-10.6,4.84-15.91.2-.65.36-1.31.54-1.96h16.67Z"/>
      <path class="cls-2" d="M489.18,339c.32-.4.61-.83.97-1.19,6.86-6.92,14.09-13.45,21.39-19.9,3.06-2.71,6.18-5.34,9.27-8.01.34-.3.65-.63,1.1-1.08-5.36-3.98-10.59-7.87-15.86-11.78.23-.58.38-1.02.58-1.43,1.02-2.12,2.02-4.26,3.11-6.34.4-.76.96-1.52,1.62-2.06,4.3-3.51,8.65-6.96,12.97-10.44,7.42-5.99,15.18-11.53,22.94-17.07.49-.35.96-.75,1.57-1.23-.56-.52-.96-.92-1.39-1.28-4.03-3.42-8.07-6.84-12.1-10.26-.24-.2-.47-.42-.71-.61-.49-.38-.61-.81-.26-1.36,1.61-2.51,3.19-5.04,4.82-7.54.24-.38.69-.63,1.07-.9,11.5-8.15,23.43-15.65,35.45-23.01,1.43-.87,2.91-1.67,4.36-2.51.48-.28.95-.59,1.62-1.02-4.58-4.54-9.3-8.64-13.92-13.03.76-.96,1.43-1.82,2.11-2.68.29-.37.62-.72.87-1.11,1.95-3.02,4.63-5.17,7.79-6.86,8.17-4.39,16.29-8.86,24.44-13.29.31-.17.68-.25,1.02-.36v14.12c-.9,1.09-1.78,2.19-2.69,3.27-11.53,13.64-22.19,27.95-32.29,42.67-7.94,11.57-15.37,23.45-22.44,35.56-9.38,16.05-17.75,32.62-25.52,49.49-3.04,6.6-5.73,13.36-8.58,20.05-.16.38-.22.8-.33,1.2h-22.97Z"/>
      <path class="cls-2" d="M604,13.81c-.53.18-1.07.35-1.81.59.27-1.16.52-2.21.76-3.26-.1-.06-.19-.12-.29-.17-8.01,6.12-16.02,12.23-24.77,17.65v-1.85c-.49.33-.85.53-1.15.79-6.32,5.36-12.86,10.44-19.76,15.01-3.94,2.61-7.38,5.77-11.02,8.72-3.62,2.93-7.07,6.08-10.59,9.13-.23.2-.47.4-.99.84.62-1.19.25-1.86-.5-2.51-.26.25-.54.47-.75.74-3.42,4.37-6.78,8.79-10.27,13.09-1.71,2.11-3.68,4.01-5.53,6.01-.14.15-.35.38-.49.35-1.19-.19-1.47.79-1.96,1.48-1.24,1.69-2.46,3.39-3.68,5.09-.33.46-.65.93-1,1.42,1.88,3.55,3.71,7.04,5.7,10.81-2.1-1.32-3.8-2.5-4.81-4.53-.66-1.33-1.68-2.49-2.68-3.93-.96,1.26-2.13,2.08-2.41,3.55-.03.13-.09.33-.18.36-1.38.41-1.7,1.75-2.58,2.77,7.92,7.5,15.47,15.25,20.8,24.8-.08.09-.17.17-.25.26-1.44-.54-2.88-1.09-4.32-1.63-.08.08-.15.16-.22.25,6.09,7.49,11.57,15.39,15.94,24.17-1.45,1.37-2.88,2.73-4.3,4.08.15-.65-.2-.97-.77-1.15-1.2-.37-2.38-.87-3.6-1.09-1.73-.31-2.91-1.09-3.72-2.69-.75-1.48-1.83-2.76-2.36-4.4-2.06-6.42-4.23-12.81-6.3-19.22-.29-.89-.67-1.29-1.6-1.35-2.25-.13-4.49-.33-6.74-.52-.46-.04-1.1-.02-1.33-.29-1.22-1.43-2.59-2.81-3.42-4.45-1.15-2.27-1.87-4.76-2.78-7.16-.18-.47-.39-.93-.7-1.68-2.46,3.68-4.86,7.07-6.85,10.72,1.02,1.17,1.93,2.21,3.04,3.47-1.28.2-2.25.49-3.21.48-1.83,0-3.08.77-3.83,2.4.15-.51-.08-.66-.56-.62-.6.05-1.21.08-2.1.13.72-1.74,1.32-3.23,2.3-4.51,3.49-4.58,7-9.14,10.51-13.7.76-.99,1.56-1.95,2.49-3.12-1.2-.46-2.23-.86-3.48-1.33,1.07-1.73,1.77-3.48,3.13-4.83,4.78-4.77,9.55-9.54,14.33-14.31.29-.29.56-.61.96-1.04-1.21-.99-2.36-1.93-3.65-2.99,1.17-1.71,2.12-3.46,3.71-4.7,5.39-4.24,10.81-8.44,16.21-12.66.48-.38.96-.76,1.57-1.25-1.27-1.63-2.45-3.14-3.68-4.72,1.62-1.88,2.9-3.9,5.07-5.17,5.92-3.46,11.8-6.99,17.7-10.49.44-.26.88-.53,1.43-.86-.23-.56-.4-1.04-.63-1.49-.71-1.4-1.43-2.79-2.18-4.17-.34-.62-.41-1.15.14-1.69,1.63-1.62,3.14-3.31,5.36-4.25,6.36-2.71,12.66-5.54,18.99-8.33.57-.25,1.14-.49,1.82-.78-.13-.59-.21-1.1-.36-1.58-.62-1.88-1.28-3.76-1.92-5.64-.28-.83-.09-1.53.59-2.13.55-.48,1.15-.91,1.67-1.43,1.11-1.1,2.43-1.78,3.91-2.23.89-.27,1.73-.68,2.6-1.03h21.39v13.81h0ZM603.47.99c-.52.26-.69.3-.79.4-4.95,4.95-9.89,9.91-14.83,14.88-.03.03-.05.1-.04.14.01.04.08.07.12.1.05,0,.11.01.15-.01,4.91-3.19,9.82-6.37,14.71-9.6.33-.22.63-.74.65-1.13.08-1.49.03-3,.03-4.77h0ZM577.62,19.58l-.39-.05c-4.26,4.69-8.52,9.38-12.85,14.14.26.03.38.08.43.04,4.25-3.23,8.5-6.45,12.73-9.71.29-.22.57-.7.55-1.04-.08-1.13-.3-2.25-.47-3.38h0ZM554.36,38.78c-.33.26-.51.36-.64.51-3.52,4.22-7.04,8.44-10.55,12.66-.02.03-.02.1,0,.14.02.04.08.05.18.12.22-.18.48-.36.71-.56,3.36-2.99,6.69-6.03,10.1-8.97.95-.82,1.21-1.62.7-2.72-.15-.32-.28-.66-.5-1.18h0Z"/>
      <path class="cls-2" d="M151,339c.33-.38.62-.82,1-1.14,8.15-6.76,16.5-13.24,25.33-19.09.59-.39,1.31-.67,2.01-.78,1.95-.3,3.93-.47,6.13-.73-.37,3.63-1.26,6.88-2.11,10.13-.84,3.23-1.85,6.4-2.87,9.87.56-.21.95-.29,1.27-.48,6.87-4.04,13.93-7.72,21.2-10.98,5.01-2.25,10.17-4.19,15.27-6.25.42-.17.94-.33,1.37-.25,1.89.38,3.75.86,5.79,1.34-.19.74-.28,1.3-.48,1.81-2.04,5.21-4.29,10.34-6.95,15.27-.22.41-.38.86-.57,1.29h-66.38,0Z"/>
      <path class="cls-2" d="M220.21,339c.34-.14.66-.31,1.01-.4,9.27-2.47,18.64-4.43,28.22-5.11,5.58-.4,3.64-.88,8.21,2.24.38.26.74.56,1.28.98-.44.78-.86,1.53-1.28,2.29h-37.44Z"/>
      <path class="cls-2" d="M0,7.22c.32.4.7.76.94,1.2,1.62,2.91,3.22,5.84,4.8,8.77.29.54.56,1.13.68,1.73.58,2.86,1.12,5.72,1.66,8.59.04.19,0,.4,0,.83-2.72.29-5.41-.14-8.08-.09V7.22Z"/>
      <path class="cls-2" d="M126.15,339c3.64-4.8,7.92-8.71,14.22-10.1.37,3.37-.02,6.74-.07,10.1h-14.16Z"/>
      <path class="cls-2" d="M230.28,127.46c1.02,0,1.67,0,2.34,0,9.69-.1,19.39-.19,29.08-.31,2.61-.03,4.84,1.13,7.37,2.05-1.69,2.97-3.67,5.58-5.48,8.52.56.08.9.16,1.24.17,6.76.28,13.51.53,20.26.86,2.77.14,5.54.43,8.3.73,2.12.23,3.9,1.36,5.99,2.36-1.49,2.63-2.9,5.1-4.44,7.82.95.13,1.69.24,2.45.33,4.84.54,9.69,1.04,14.52,1.63,2.34.29,4.66.74,6.98,1.14,2.35.41,4.26,1.35,6.45,3.17-.88,2.18-1.8,4.44-2.8,6.91,3.86.76,7.69,1.21,11.53,2.42-.83,6.04-1.11,12.05-1.83,18.35-4.54-4.99-8.43-10.03-12.95-14.75-1.88,2.89-3.67,5.63-5.52,8.47-2.26-1.01-4.46-1.6-6.17-3.46-5.33-5.77-10.81-11.39-16.24-17.07-.17-.18-.4-.31-.73-.58-.38.49-.73.92-1.06,1.36-1.52,2.06-3.02,4.15-4.55,6.2-1.01,1.36-1,1.24-2.56.81-2.77-.76-4.89-2.36-6.92-4.36-5.11-5.03-10.4-9.88-15.63-14.79-.33-.31-.72-.58-1.16-.93-.87,1.16-1.68,2.25-2.51,3.32-1.3,1.71-2.64,3.39-3.9,5.12-.56.77-1.13.85-2.02.62-2.78-.72-5.16-1.98-7.35-3.94-5.3-4.75-10.82-9.25-16.26-13.85-.43-.36-.89-.69-1.44-1.12-.4.51-.73.9-1.03,1.3-1.7,2.32-3.39,4.65-5.1,6.97-.83,1.12-.84,1.11-2.23.75-.56-.15-1.1-.38-1.66-.46-3.82-.55-6.85-2.54-9.8-4.91-5.02-4.03-10.24-7.82-15.38-11.7-.41-.31-.85-.57-1.37-.91-.32.39-.6.68-.82,1.02-1.51,2.33-3,4.67-4.5,7-.72,1.1-.76,1.12-2.04.83-1.07-.25-2.15-.47-3.2-.8-.69-.21-1.39-.49-1.98-.89-2.43-1.65-4.8-3.37-7.22-5.02-.71-.48-1.09-1.07-1.27-1.88-.82-3.62-1.68-7.23-2.53-10.84-.3-1.26-.63-2.51-.99-3.93.68-.14,1.22-.28,1.77-.35,8.32-1.04,16.64-2.04,24.96-3.11,2.8-.36,5.36.5,8.29,1.13-1.98,3.18-3.84,6.17-5.86,9.4.91,0,1.55.04,2.19,0,9.46-.69,18.92-1.33,28.37-2.13,4.22-.36,8.07.9,11.96,2.12.09.03.16.13.41.34-1.9,2.85-3.82,5.73-5.93,8.88h0Z"/>
      <path class="cls-2" d="M306.64,186.63c-2.36,2.71-4.56,5.26-6.92,7.97.67.12,1.11.24,1.57.27,6.22.45,12.44.88,18.66,1.35,2.82.21,5.65.39,8.46.73,3.61.44,3.37.98,3.39,3.96,0,1.38-.44,2.52-1.39,3.54-.74.79-1.37,1.68-2.08,2.56.62.68,1.35.46,1.98.55,1.3.18,1.4.23,1.48,1.54.17,2.82.28,5.64.45,8.46.14,2.35.33,4.69.49,7.04.03.45,0,.9,0,1.35-.11.05-.21.09-.32.14-.8-1.05-1.59-2.1-2.39-3.15-.79-1.04-1.59-2.08-2.39-3.12-.83-1.08-1.67-2.14-2.51-3.22-.8-1.03-1.6-2.05-2.52-3.24-.51.46-.93.82-1.33,1.2-2.02,1.9-4.06,3.79-6.05,5.72-.67.65-1.27.64-2.11.31-2.39-.94-4.29-2.37-5.94-4.39-3.94-4.82-8.11-9.46-12.17-14.17-.37-.43-.68-.92-1.11-1.5-.7.6-1.14.95-1.55,1.32-1.88,1.66-3.79,3.3-5.63,5.02-.96.89-1.81,1.04-3.09.51-2.27-.94-4.15-2.24-5.85-4.05-4.37-4.66-8.9-9.16-13.38-13.72-.39-.4-.83-.76-1.33-1.22-.53.44-.96.8-1.39,1.17-1.77,1.55-3.57,3.07-5.3,4.68-.86.8-1.68.9-2.7.39-.79-.4-1.67-.64-2.45-1.05-.73-.38-1.47-.81-2.07-1.36-5.36-4.85-10.69-9.72-16.03-14.59-.42-.38-.89-.73-1.43-1.17-.4.35-.78.68-1.15,1.02-1.58,1.45-3.17,2.89-4.73,4.37-.66.62-1.3.69-2.14.36-2.35-.92-4.52-2.06-6.48-3.73-4.79-4.06-9.73-7.95-14.62-11.9-.44-.36-.92-.67-1.49-1.08-.34.29-.67.52-.94.81-1.07,1.08-2.16,2.14-3.15,3.29-.79.92-1.54.9-2.62.51-3.85-1.38-7.23-3.51-10.44-5.99-1.62-1.25-3.31-2.39-4.93-3.64-.47-.37-.94-.88-1.15-1.43-.98-2.59-1.87-5.22-2.78-7.83-.07-.19-.07-.4-.14-.83.94-.02,1.79-.07,2.65-.05,4.56.13,9.11.29,13.67.42,3.14.08,6.29.16,9.43.17,1.8,0,3.54.2,5.26.77,1.63.54,3.29,1,5.15,1.55-1.72,2.58-3.8,4.64-5.64,7.21.62.1,1.04.21,1.47.22,7.54.25,15.08.49,22.63.72,2.41.07,4.82.18,7.23.18,2.38,0,4.46.99,6.72,1.7-.38,1.18-1.3,1.83-1.97,2.65-.73.89-1.53,1.72-2.31,2.57-.73.81-1.46,1.62-2.3,2.56.47.12.75.25,1.03.26,6.39.26,12.77.5,19.16.76,4.35.17,8.69.32,13.04.55,2.07.11,3.87,1.14,6.01,1.87-2.27,2.88-4.71,5.27-7.23,8.07,1.85.14,3.34.29,4.83.37,8.74.47,17.48.94,26.21,1.38,2.38.12,4.36,1.26,6.68,2.3h0Z"/>
      <path class="cls-2" d="M187.37,176.6c.24,2.23.44,4.08.65,6.03-.99-1-5.19-10.44-5.39-12.17,3.18.66,5.72,2.59,8.88,3.89-.98.7-1.72,1.23-2.66,1.89.6.3,1.07.57,1.56.79,7.19,3.21,14.6,5.82,22.2,7.86,1.99.53,3.75,1.54,5.72,2.48-1.18,1.44-2.9,1.84-4.34,3.05.77.3,1.37.55,1.99.77,8.2,2.92,16.58,5.26,25.07,7.16,2.13.48,3.94,1.6,6.18,2.55-1.95,1.58-3.97,2.53-6.09,3.83.65.26,1.04.45,1.45.57,8.96,2.62,18.02,4.82,27.19,6.56,2.32.44,4.27,1.6,6.64,2.64-2.45,1.8-4.86,3.12-7.51,4.67.84.25,1.31.42,1.8.54,9.25,2.33,18.59,4.27,27.99,5.9,2.24.39,4.07,1.56,6.23,2.52-1.18,1.29-2.57,1.99-3.84,2.84-1.28.86-2.6,1.66-4.24,2.7,1.92.42,3.43.79,4.95,1.07,8.08,1.52,16.16,3.07,24.26,4.51,2.19.39,3.98,1.49,6.08,2.61-2.55,2.26-5.31,3.93-8.16,5.97.7.2,1.11.36,1.54.44,3.09.6,6.17,1.2,9.26,1.77.68.13,1.1.34,1.28,1.12,1.25,5.35,2.55,10.68,3.83,16.02.08.34.11.7.06,1.08-.67-.82-.82-1.83-.93-2.8-.15-1.39-.85-2.19-2.06-2.86-18.86-10.5-37.7-21.04-56.54-31.57-13.99-7.82-28.01-15.59-41.96-23.5-8.34-4.73-16.62-9.56-24.82-14.54-8.32-5.06-16.5-10.36-24.75-15.55-.39-.24-.8-.45-1.53-.85h0Z"/>
      <path class="cls-2" d="M296.62,283.17c10.15,12.85,20.28,25.68,30.56,38.71-.59-.17-.98-.25-1.34-.41-1.39-.61-2.74-1.32-4.16-1.86-1.29-.49-1.97-1.42-2.53-2.61-1.58-3.42-3.21-6.81-4.9-10.17-.36-.71-.97-1.36-1.61-1.85-2.09-1.61-3.96-3.37-5.24-5.75-1.11-2.07-2.4-4.05-3.69-6.02-.68-1.04-1.58-1.93-2.3-2.94-1.62-2.25-3.2-4.53-4.79-6.8-.04-.06,0-.17,0-.3Z"/>
      <path class="cls-2" d="M338.98,102.53c-.19.35-.33.74-.57,1.03-1.03,1.25-2.03,2.54-3.17,3.68-1.1,1.1-2.32,2.09-3.56,3.02-.87.66-1.83,1.22-2.82,1.69-2.08.97-3.24,2.71-4.23,4.66-.57,1.12-1.14,2.23-1.78,3.3-.86,1.43-2.3,2.25-3.54,3.28-.08.07-.17.12-.25.18-1.69,1.24-3.45,2.42-3.92,4.97-.6-.54-.99-.91-1.53-1.4,3.21-5.1,7.67-8.98,11.69-13.23,4.07-4.31,8.94-7.69,13.73-11.15l-.04-.03h0Z"/>
      <path class="cls-2" d="M366.08,333.37c-1.37-.77-2.35-1.94-3.02-3.25-2.44-4.8-4.76-9.66-7.12-14.51-.04-.08,0-.19.1-.34,2.85,6.3,7.04,11.86,10.03,18.1Z"/>
      <path class="cls-2" d="M177.01,143.44c-1.07,1.6-1.92,2.88-2.98,4.47-.82-1.97-1.22-3.66-1.76-5.47,1.71-.07,2.99.65,4.74,1h0Z"/>
      <path class="cls-2" d="M339.02,102.56c3.7-2.38,7.44-4.69,11.59-6.38-.16.23-.29.49-.49.68-1.57,1.49-3.41,2.53-5.42,3.33-1.5.6-2.92,1.37-4.4,2.02-.4.18-.88.22-1.32.32,0,0,.03.03.03.03h0Z"/>
      <path class="cls-2" d="M345.94,289.32c1.81,4.36,3.61,8.73,5.42,13.09-.11.05-.23.09-.34.14-2.52-4.08-3.72-8.7-5.08-13.23Z"/>
      <path class="cls-2" d="M198.81,185.05c1.57,1.19,3.15,2.37,4.72,3.56-1.89-.76-3.52-1.87-4.98-3.21.09-.12.17-.23.26-.35h0Z"/>
      <path class="cls-2" d="M162.38,101.86c.55.06.91.1,1.52.17-.38.71-.67,1.25-.96,1.79-.09-.02-.18-.04-.27-.07-.09-.58-.18-1.16-.29-1.9h0Z"/>
      <path class="cls-2" d="M322.16,38.22c.07.17.21.34.2.51-.02.23-.14.46-.47.67-.03-.38-.06-.76-.09-1.14.12-.01.24-.03.36-.04Z"/>
      <path class="cls-2" d="M486.67,120.98c-.05.71.47.97.97,1.29,3.21,2.07,6.41,4.18,9.62,6.25,4.63,3,8.88,6.49,13.08,10.04,1.58,1.33,2.63,3.08,3.86,4.83-1.11.54-2.1.24-3.05.27-1.05.03-2.1-.03-3.15-.02-.97.01-1.93.07-3.2.13,5.21,4.54,10.16,8.85,15.22,13.27.52-.44,1.13-.91,1.7-1.43,2.49-2.24,4.96-4.51,7.47-6.73.49-.44,1.13-.71,1.7-1.06-3.61,3.64-7.23,7.27-10.83,10.92-.66.66-1.32,1.07-2.33,1.04-.55-.01-1.18.36-1.65.73-.9.71-1.71,1.54-2.56,2.31-.46.41-.94.8-1.45,1.24-4.74-6.12-9.35-12.18-14.08-18.15-4.71-5.93-9.8-11.53-15.23-17.1-.38.71-.68,1.19-.92,1.7-1.51,3.16-3,6.33-4.49,9.5-.47,1-.97,1.94-2.32,2.29.25-1.53.75-2.83,1.44-4.04,2.6-4.53,5.24-9.05,7.88-13.56.74-1.26,1.54-2.49,2.31-3.73h0Z"/>
      <path class="cls-2" d="M470.68,156.71c-.8,2.53-1.6,5.06-2.4,7.59-.1-.03-.2-.05-.3-.08.06-.34.09-.69.2-1.01.58-1.79,1.17-3.57,1.8-5.35.15-.41.49-.75.74-1.12l-.03-.03h0Z"/>
      <path class="cls-2" d="M470.71,156.74c.04-.38.08-.76.11-1.14.09.02.18.04.28.07-.14.34-.28.69-.42,1.03,0,0,.03.04.03.04h0Z"/>
      <path class="cls-2" d="M224.88,56.25c-2.28-1.46-4.59-2.89-6.83-4.41-.35-.24-.52-.89-.56-1.37-.08-1.09-.05-2.19-.02-3.29.08-2.66.2-5.33.26-7.99.05-2.19-.15-4.33-.63-6.51-.55-2.53-.5-5.19-.66-7.79-.4-6.25-.78-12.51-1.16-18.77-.01-.21,0-.42.16-.67,1,4.18,2,8.37,3.09,12.89-1.24-.71-1.21-1.88-2.08-2.66.08.56.13.95.2,1.32,1.46,7.61,3.54,15.05,6.19,22.34.45,1.25.65,2.59,1.05,4.24-1.69-1.02-2.38-2.41-3.65-3.64-.11,1.15.32,1.96.55,2.8.24.91.54,1.8.82,2.7.28.9.55,1.8.84,2.7.28.84.58,1.68.87,2.52.31.89.63,1.77.95,2.66.31.87.61,1.75.91,2.63l-.32.29h0Z"/>
    </g>
  </g>
</svg>